<?xml version="1.0" encoding="utf-8" standalone="no"?>
<!DOCTYPE svg PUBLIC "-//W3C//DTD SVG 1.1//EN"
  "http://www.w3.org/Graphics/SVG/1.1/DTD/svg11.dtd">
<!-- Created with matplotlib (https://matplotlib.org/) -->
<svg height="540pt" version="1.1" viewBox="0 0 1080 540" width="1080pt" xmlns="http://www.w3.org/2000/svg" xmlns:xlink="http://www.w3.org/1999/xlink">
 <defs>
  <style type="text/css">
*{stroke-linecap:butt;stroke-linejoin:round;white-space:pre;}
  </style>
 </defs>
 <g id="figure_1">
  <g id="patch_1">
   <path d="M 0 540 
L 1080 540 
L 1080 0 
L 0 0 
z
" style="fill:#ffffff;"/>
  </g>
  <g id="axes_1">
   <g id="patch_2">
    <path d="M 83.740286 221.717271 
L 542.824286 221.717271 
L 542.824286 31.318173 
L 83.740286 31.318173 
z
" style="fill:#ffffff;"/>
   </g>
   <g id="matplotlib.axis_1">
    <g id="xtick_1">
     <g id="line2d_1">
      <defs>
       <path d="M 0 0 
L 0 3.5 
" id="m266c51556c" style="stroke:#000000;stroke-width:0.8;"/>
      </defs>
      <g>
       <use style="stroke:#000000;stroke-width:0.8;" x="104.60774" xlink:href="#m266c51556c" y="221.717271"/>
      </g>
     </g>
     <g id="text_1">
      <!-- $0$ -->
      <defs>
       <path d="M 42 31.84375 
C 42 37.96875 41.90625 48.421875 37.703125 56.453125 
C 34 63.484375 28.09375 66 22.90625 66 
C 18.09375 66 12 63.78125 8.203125 56.5625 
C 4.203125 49.015625 3.796875 39.671875 3.796875 31.84375 
C 3.796875 26.109375 3.90625 17.375 7 9.734375 
C 11.296875 -0.609375 19 -2 22.90625 -2 
C 27.5 -2 34.5 -0.109375 38.59375 9.4375 
C 41.59375 16.375 42 24.5 42 31.84375 
z
M 22.90625 -0.40625 
C 16.5 -0.40625 12.703125 5.125 11.296875 12.75 
C 10.203125 18.6875 10.203125 27.328125 10.203125 32.953125 
C 10.203125 40.6875 10.203125 47.109375 11.5 53.234375 
C 13.40625 61.78125 19 64.390625 22.90625 64.390625 
C 27 64.390625 32.296875 61.671875 34.203125 53.4375 
C 35.5 47.71875 35.59375 40.984375 35.59375 32.953125 
C 35.59375 26.421875 35.59375 18.375 34.40625 12.453125 
C 32.296875 1.5 26.40625 -0.40625 22.90625 -0.40625 
z
" id="CMR17-48"/>
      </defs>
      <g transform="translate(100.495597 241.170572)scale(0.18 -0.18)">
       <use transform="scale(0.996264)" xlink:href="#CMR17-48"/>
      </g>
     </g>
    </g>
    <g id="xtick_2">
     <g id="line2d_2">
      <g>
       <use style="stroke:#000000;stroke-width:0.8;" x="243.724104" xlink:href="#m266c51556c" y="221.717271"/>
      </g>
     </g>
     <g id="text_2">
      <!-- $10$ -->
      <defs>
       <path d="M 26.59375 63.796875 
C 26.59375 65.890625 26.5 66 25.09375 66 
C 21.203125 61.359375 15.296875 59.890625 9.703125 59.6875 
C 9.40625 59.6875 8.90625 59.6875 8.796875 59.5 
C 8.703125 59.296875 8.703125 59.09375 8.703125 57 
C 11.796875 57 17 57.59375 21 59.984375 
L 21 7.296875 
C 21 3.796875 20.796875 2.59375 12.203125 2.59375 
L 9.203125 2.59375 
L 9.203125 0 
C 14 0.09375 19 0.1875 23.796875 0.1875 
C 28.59375 0.1875 33.59375 0.09375 38.40625 0 
L 38.40625 2.59375 
L 35.40625 2.59375 
C 26.796875 2.59375 26.59375 3.6875 26.59375 7.296875 
z
" id="CMR17-49"/>
      </defs>
      <g transform="translate(235.499818 241.170572)scale(0.18 -0.18)">
       <use transform="scale(0.996264)" xlink:href="#CMR17-49"/>
       <use transform="translate(45.690477 0)scale(0.996264)" xlink:href="#CMR17-48"/>
      </g>
     </g>
    </g>
    <g id="xtick_3">
     <g id="line2d_3">
      <g>
       <use style="stroke:#000000;stroke-width:0.8;" x="382.840468" xlink:href="#m266c51556c" y="221.717271"/>
      </g>
     </g>
     <g id="text_3">
      <!-- $20$ -->
      <defs>
       <path d="M 41.703125 15.46875 
L 39.90625 15.46875 
C 38.90625 8.390625 38.09375 7.1875 37.703125 6.59375 
C 37.203125 5.796875 30 5.796875 28.59375 5.796875 
L 9.40625 5.796875 
C 13 9.6875 20 16.765625 28.5 24.9375 
C 34.59375 30.71875 41.703125 37.5 41.703125 47.390625 
C 41.703125 59.1875 32.296875 66 21.796875 66 
C 10.796875 66 4.09375 56.296875 4.09375 47.296875 
C 4.09375 43.390625 7 42.890625 8.203125 42.890625 
C 9.203125 42.890625 12.203125 43.484375 12.203125 46.984375 
C 12.203125 50.09375 9.59375 51 8.203125 51 
C 7.59375 51 7 50.890625 6.59375 50.6875 
C 8.5 59.1875 14.296875 63.390625 20.40625 63.390625 
C 29.09375 63.390625 34.796875 56.5 34.796875 47.390625 
C 34.796875 38.703125 29.703125 31.21875 24 24.734375 
L 4.09375 2.296875 
L 4.09375 0 
L 39.296875 0 
z
" id="CMR17-50"/>
      </defs>
      <g transform="translate(374.616182 241.170572)scale(0.18 -0.18)">
       <use transform="scale(0.996264)" xlink:href="#CMR17-50"/>
       <use transform="translate(45.690477 0)scale(0.996264)" xlink:href="#CMR17-48"/>
      </g>
     </g>
    </g>
    <g id="xtick_4">
     <g id="line2d_4">
      <g>
       <use style="stroke:#000000;stroke-width:0.8;" x="521.956831" xlink:href="#m266c51556c" y="221.717271"/>
      </g>
     </g>
     <g id="text_4">
      <!-- $30$ -->
      <defs>
       <path d="M 22.09375 34 
C 31 34 34.90625 26.140625 34.90625 17.09375 
C 34.90625 5.03125 28.5 0.390625 22.703125 0.390625 
C 17.40625 0.390625 8.796875 3.015625 6.09375 10.796875 
C 6.59375 10.59375 7.09375 10.59375 7.59375 10.59375 
C 10 10.59375 11.796875 12.1875 11.796875 14.796875 
C 11.796875 17.6875 9.59375 19 7.59375 19 
C 5.90625 19 3.296875 18.1875 3.296875 14.484375 
C 3.296875 5.234375 12.296875 -2 22.90625 -2 
C 34 -2 42.5 6.75 42.5 16.984375 
C 42.5 26.84375 34.5 34 25 35.09375 
C 32.59375 36.671875 39.90625 43.375 39.90625 52.390625 
C 39.90625 60.25 32 66 23 66 
C 13.90625 66 5.90625 60.34375 5.90625 52.296875 
C 5.90625 48.796875 8.5 48.1875 9.796875 48.1875 
C 11.90625 48.1875 13.703125 49.484375 13.703125 52.09375 
C 13.703125 54.6875 11.90625 56 9.796875 56 
C 9.40625 56 8.90625 56 8.5 55.796875 
C 11.40625 62.484375 19.296875 63.6875 22.796875 63.6875 
C 26.296875 63.6875 32.90625 61.96875 32.90625 52.296875 
C 32.90625 49.484375 32.5 44.546875 29.09375 40.21875 
C 26.09375 36.390625 22.703125 36.1875 19.40625 35.890625 
C 18.90625 35.890625 16.59375 35.6875 16.203125 35.6875 
C 15.5 35.59375 15.09375 35.5 15.09375 34.796875 
C 15.09375 34.09375 15.203125 34 17.203125 34 
z
" id="CMR17-51"/>
      </defs>
      <g transform="translate(513.732545 241.170572)scale(0.18 -0.18)">
       <use transform="scale(0.996264)" xlink:href="#CMR17-51"/>
       <use transform="translate(45.690477 0)scale(0.996264)" xlink:href="#CMR17-48"/>
      </g>
     </g>
    </g>
    <g id="text_5">
     <!-- time -->
     <defs>
      <path d="M 16.703125 37.1875 
L 29.703125 37.1875 
L 29.703125 43 
L 16.703125 43 
L 16.703125 55 
L 9.59375 55 
L 9.59375 43 
L 1.703125 43 
L 1.703125 37.1875 
L 9.40625 37.1875 
L 9.40625 11.734375 
C 9.40625 6 10.703125 -1 17.296875 -1 
C 22.296875 -1 26.90625 0.390625 31.296875 2.6875 
L 29.703125 8.609375 
C 27.296875 6.5 24.40625 5.296875 21.296875 5.296875 
C 16.90625 5.296875 16.703125 10.921875 16.703125 13.4375 
z
" id="CMSS17-116"/>
      <path d="M 15.296875 66 
L 6.90625 66 
L 6.90625 57.59375 
L 15.296875 57.59375 
z
M 14.796875 43 
L 7.40625 43 
L 7.40625 0 
L 14.796875 0 
z
" id="CMSS17-105"/>
      <path d="M 67 29.34375 
C 67 36.078125 65.296875 44 54.09375 44 
C 46.59375 44 42.09375 39.296875 40.09375 36.375 
C 38.296875 41.6875 34.09375 44 28.09375 44 
C 21.296875 44 17 40.09375 14.703125 37.28125 
L 14.703125 43.484375 
L 7.40625 43.484375 
L 7.40625 0 
L 15 0 
L 15 24.3125 
C 15 30.25 17.203125 37.890625 24.296875 37.890625 
C 33.40625 37.890625 33.40625 31.453125 33.40625 28.53125 
L 33.40625 0 
L 41 0 
L 41 24.3125 
C 41 30.25 43.203125 37.890625 50.296875 37.890625 
C 59.40625 37.890625 59.40625 31.453125 59.40625 28.53125 
L 59.40625 0 
L 67 0 
z
" id="CMSS17-109"/>
      <path d="M 39.09375 21.484375 
C 39.09375 24.796875 38.90625 31.265625 35.703125 36.671875 
C 32.203125 42.390625 26.5 44 22.203125 44 
C 11.796875 44 3 34.125 3 21.296875 
C 3 9.046875 12.09375 -1 23.59375 -1 
C 28.09375 -1 33.59375 0.296875 38.59375 3.890625 
C 38.59375 4.296875 38.40625 6.46875 38.296875 6.578125 
C 38.296875 6.765625 38 9.828125 38 10.234375 
C 33.203125 6.375 27.703125 5.09375 23.703125 5.09375 
C 17.296875 5.09375 10.40625 10.421875 10.09375 21.484375 
z
M 10.90625 27 
C 12.203125 32.59375 16.59375 37.890625 22.203125 37.890625 
C 23.703125 37.890625 30.703125 37.6875 32.5 27 
z
" id="CMSS17-101"/>
     </defs>
     <g transform="translate(297.813066 261.111936)scale(0.18 -0.18)">
      <use transform="scale(0.996264)" xlink:href="#CMSS17-116"/>
      <use transform="translate(33.831567 0)scale(0.996264)" xlink:href="#CMSS17-105"/>
      <use transform="translate(56.01229 0)scale(0.996264)" xlink:href="#CMSS17-109"/>
      <use transform="translate(130.241544 0)scale(0.996264)" xlink:href="#CMSS17-101"/>
     </g>
    </g>
   </g>
   <g id="matplotlib.axis_2">
    <g id="ytick_1">
     <g id="line2d_5">
      <defs>
       <path d="M 0 0 
L -3.5 0 
" id="m8550dcb52c" style="stroke:#000000;stroke-width:0.8;"/>
      </defs>
      <g>
       <use style="stroke:#000000;stroke-width:0.8;" x="83.740286" xlink:href="#m8550dcb52c" y="213.062767"/>
      </g>
     </g>
     <g id="text_6">
      <!-- $0.0000$ -->
      <defs>
       <path d="M 18.40625 4.796875 
C 18.40625 7.6875 16 9.6875 13.59375 9.6875 
C 10.703125 9.6875 8.703125 7.296875 8.703125 4.890625 
C 8.703125 2 11.09375 0 13.5 0 
C 16.40625 0 18.40625 2.390625 18.40625 4.796875 
z
" id="CMMI12-58"/>
      </defs>
      <g transform="translate(30.741364 219.289417)scale(0.18 -0.18)">
       <use transform="scale(0.996264)" xlink:href="#CMR17-48"/>
       <use transform="translate(45.690477 0)scale(0.996264)" xlink:href="#CMMI12-58"/>
       <use transform="translate(72.787654 0)scale(0.996264)" xlink:href="#CMR17-48"/>
       <use transform="translate(118.478131 0)scale(0.996264)" xlink:href="#CMR17-48"/>
       <use transform="translate(164.168608 0)scale(0.996264)" xlink:href="#CMR17-48"/>
       <use transform="translate(209.859086 0)scale(0.996264)" xlink:href="#CMR17-48"/>
      </g>
     </g>
    </g>
    <g id="ytick_2">
     <g id="line2d_6">
      <g>
       <use style="stroke:#000000;stroke-width:0.8;" x="83.740286" xlink:href="#m8550dcb52c" y="171.452706"/>
      </g>
     </g>
     <g id="text_7">
      <!-- $0.0025$ -->
      <defs>
       <path d="M 11.40625 58.59375 
C 12.40625 58.1875 16.5 56.890625 20.703125 56.890625 
C 30 56.890625 35.09375 61.890625 38 64.6875 
C 38 65.484375 38 66 37.40625 66 
C 37.296875 66 37.09375 66 36.296875 65.59375 
C 32.796875 64.09375 28.703125 63 23.703125 63 
C 20.703125 63 16.203125 63.359375 11.296875 65.484375 
C 10.203125 66 10 66 9.90625 66 
C 9.40625 66 9.296875 65.890625 9.296875 63.90625 
L 9.296875 34.859375 
C 9.296875 33.015625 9.296875 32.5 10.296875 32.5 
C 10.796875 32.5 11 32.703125 11.5 33.421875 
C 14.703125 38.046875 19.09375 40 24.09375 40 
C 27.59375 40 35.09375 37.734375 35.09375 20.203125 
C 35.09375 16.984375 35.09375 11.1875 32.09375 6.59375 
C 29.59375 2.484375 25.703125 0.390625 21.40625 0.390625 
C 14.796875 0.390625 8.09375 4.984375 6.296875 12.6875 
C 6.703125 12.59375 7.5 12.390625 7.90625 12.390625 
C 9.203125 12.390625 11.703125 13.09375 11.703125 16.1875 
C 11.703125 18.890625 9.796875 20 7.90625 20 
C 5.59375 20 4.09375 18.59375 4.09375 15.796875 
C 4.09375 7.09375 11 -2 21.59375 -2 
C 31.90625 -2 41.703125 6.890625 41.703125 19.796875 
C 41.703125 32.09375 33.90625 41.59375 24.203125 41.59375 
C 19.09375 41.59375 14.796875 39.6875 11.40625 36 
z
" id="CMR17-53"/>
      </defs>
      <g transform="translate(30.741364 177.679356)scale(0.18 -0.18)">
       <use transform="scale(0.996264)" xlink:href="#CMR17-48"/>
       <use transform="translate(45.690477 0)scale(0.996264)" xlink:href="#CMMI12-58"/>
       <use transform="translate(72.787654 0)scale(0.996264)" xlink:href="#CMR17-48"/>
       <use transform="translate(118.478131 0)scale(0.996264)" xlink:href="#CMR17-48"/>
       <use transform="translate(164.168608 0)scale(0.996264)" xlink:href="#CMR17-50"/>
       <use transform="translate(209.859086 0)scale(0.996264)" xlink:href="#CMR17-53"/>
      </g>
     </g>
    </g>
    <g id="ytick_3">
     <g id="line2d_7">
      <g>
       <use style="stroke:#000000;stroke-width:0.8;" x="83.740286" xlink:href="#m8550dcb52c" y="129.842645"/>
      </g>
     </g>
     <g id="text_8">
      <!-- $0.0050$ -->
      <g transform="translate(30.741364 136.069295)scale(0.18 -0.18)">
       <use transform="scale(0.996264)" xlink:href="#CMR17-48"/>
       <use transform="translate(45.690477 0)scale(0.996264)" xlink:href="#CMMI12-58"/>
       <use transform="translate(72.787654 0)scale(0.996264)" xlink:href="#CMR17-48"/>
       <use transform="translate(118.478131 0)scale(0.996264)" xlink:href="#CMR17-48"/>
       <use transform="translate(164.168608 0)scale(0.996264)" xlink:href="#CMR17-53"/>
       <use transform="translate(209.859086 0)scale(0.996264)" xlink:href="#CMR17-48"/>
      </g>
     </g>
    </g>
    <g id="ytick_4">
     <g id="line2d_8">
      <g>
       <use style="stroke:#000000;stroke-width:0.8;" x="83.740286" xlink:href="#m8550dcb52c" y="88.232584"/>
      </g>
     </g>
     <g id="text_9">
      <!-- $0.0075$ -->
      <defs>
       <path d="M 45.09375 61.796875 
L 45.09375 64 
L 21.59375 64 
C 9.90625 64 9.703125 65.09375 9.296875 67 
L 7.5 67 
L 4.59375 48.5 
L 6.40625 48.5 
C 6.703125 50.40625 7.40625 55.5 8.59375 57.390625 
C 9.203125 58.1875 16.59375 58.1875 18.296875 58.1875 
L 40.296875 58.1875 
L 29.203125 41.71875 
C 21.796875 30.640625 16.703125 15.671875 16.703125 2.59375 
C 16.703125 1.390625 16.703125 -2 20.296875 -2 
C 23.90625 -2 23.90625 1.390625 23.90625 2.6875 
L 23.90625 7.28125 
C 23.90625 23.65625 26.703125 34.4375 31.296875 41.3125 
z
" id="CMR17-55"/>
      </defs>
      <g transform="translate(30.741364 94.459234)scale(0.18 -0.18)">
       <use transform="scale(0.996264)" xlink:href="#CMR17-48"/>
       <use transform="translate(45.690477 0)scale(0.996264)" xlink:href="#CMMI12-58"/>
       <use transform="translate(72.787654 0)scale(0.996264)" xlink:href="#CMR17-48"/>
       <use transform="translate(118.478131 0)scale(0.996264)" xlink:href="#CMR17-48"/>
       <use transform="translate(164.168608 0)scale(0.996264)" xlink:href="#CMR17-55"/>
       <use transform="translate(209.859086 0)scale(0.996264)" xlink:href="#CMR17-53"/>
      </g>
     </g>
    </g>
    <g id="ytick_5">
     <g id="line2d_9">
      <g>
       <use style="stroke:#000000;stroke-width:0.8;" x="83.740286" xlink:href="#m8550dcb52c" y="46.622523"/>
      </g>
     </g>
     <g id="text_10">
      <!-- $0.0100$ -->
      <g transform="translate(30.741364 52.849173)scale(0.18 -0.18)">
       <use transform="scale(0.996264)" xlink:href="#CMR17-48"/>
       <use transform="translate(45.690477 0)scale(0.996264)" xlink:href="#CMMI12-58"/>
       <use transform="translate(72.787654 0)scale(0.996264)" xlink:href="#CMR17-48"/>
       <use transform="translate(118.478131 0)scale(0.996264)" xlink:href="#CMR17-49"/>
       <use transform="translate(164.168608 0)scale(0.996264)" xlink:href="#CMR17-48"/>
       <use transform="translate(209.859086 0)scale(0.996264)" xlink:href="#CMR17-48"/>
      </g>
     </g>
    </g>
    <g id="text_11">
     <!-- $P_I$ -->
     <defs>
      <path d="M 29.59375 31.59375 
L 46.40625 31.59375 
C 60.203125 31.59375 74 41.765625 74 53.125 
C 74 60.90625 67.40625 68 54.796875 68 
L 23.90625 68 
C 22 68 21.09375 68 21.09375 66.09375 
C 21.09375 65.09375 22 65.09375 23.5 65.09375 
C 29.59375 65.09375 29.59375 64.296875 29.59375 63.203125 
C 29.59375 63 29.59375 62.40625 29.203125 60.90625 
L 15.703125 7.359375 
C 14.796875 3.890625 14.59375 2.890625 7.59375 2.890625 
C 5.703125 2.890625 4.703125 2.890625 4.703125 1.09375 
C 4.703125 0 5.59375 0 6.203125 0 
C 8.09375 0 10.09375 0.1875 12 0.1875 
L 23.703125 0.1875 
C 25.59375 0.1875 27.703125 0 29.59375 0 
C 30.40625 0 31.5 0 31.5 1.890625 
C 31.5 2.890625 30.59375 2.890625 29.09375 2.890625 
C 23.09375 2.890625 23 3.59375 23 4.578125 
C 23 5.078125 23.09375 5.765625 23.203125 6.265625 
z
M 36.796875 61.203125 
C 37.703125 64.890625 38.09375 65.09375 42 65.09375 
L 51.90625 65.09375 
C 59.40625 65.09375 65.59375 62.703125 65.59375 55.21875 
C 65.59375 52.640625 64.296875 44.15625 59.703125 39.578125 
C 58 37.78125 53.203125 34 44.09375 34 
L 30 34 
z
" id="CMMI12-80"/>
      <path d="M 36.796875 60.609375 
C 37.703125 64.09375 37.90625 65.09375 45.203125 65.09375 
C 47.40625 65.09375 48.203125 65.09375 48.203125 66.984375 
C 48.203125 68 47.09375 68 46.796875 68 
C 45 68 42.796875 67.796875 41 67.796875 
L 28.703125 67.796875 
C 26.703125 67.796875 24.40625 68 22.40625 68 
C 21.59375 68 20.5 68 20.5 66.09375 
C 20.5 65.09375 21.296875 65.09375 23.296875 65.09375 
C 29.5 65.09375 29.5 64.296875 29.5 63.203125 
C 29.5 62.5 29.296875 61.90625 29.09375 61.015625 
L 15.59375 7.375 
C 14.703125 3.890625 14.5 2.890625 7.203125 2.890625 
C 5 2.890625 4.09375 2.890625 4.09375 1 
C 4.09375 0 5.09375 0 5.59375 0 
C 7.40625 0 9.59375 0.1875 11.40625 0.1875 
L 23.703125 0.1875 
C 25.703125 0.1875 27.90625 0 29.90625 0 
C 30.703125 0 31.90625 0 31.90625 1.796875 
C 31.90625 2.890625 31.296875 2.890625 29.09375 2.890625 
C 22.90625 2.890625 22.90625 3.6875 22.90625 4.875 
C 22.90625 5.078125 22.90625 5.578125 23.296875 7.171875 
z
" id="CMMI12-73"/>
     </defs>
     <g transform="translate(23.2533 134.887178)rotate(-90)scale(0.18 -0.18)">
      <use transform="translate(0 14.943915)scale(0.996264)" xlink:href="#CMMI12-80"/>
      <use transform="translate(62.877232 0)scale(0.697382)" xlink:href="#CMMI12-73"/>
     </g>
    </g>
   </g>
   <g id="line2d_10">
    <path clip-path="url(#pb8fe784dfc)" d="M 104.60774 211.398365 
L 111.995558 210.713664 
L 118.339898 209.907867 
L 123.891196 208.983421 
L 128.858147 207.934547 
L 133.365968 206.758104 
L 137.498138 205.452963 
L 141.338133 204.010023 
L 144.969433 202.408284 
L 148.392038 200.656657 
L 151.689426 198.717885 
L 154.861596 196.59268 
L 157.950288 194.252581 
L 160.955502 191.695495 
L 163.918977 188.881565 
L 166.882452 185.757815 
L 169.845927 182.307831 
L 172.851141 178.463946 
L 175.939833 174.145144 
L 179.153742 169.259447 
L 182.576347 163.639146 
L 186.332865 157.031023 
L 190.924164 148.479958 
L 202.402412 126.880799 
L 205.491104 121.681073 
L 208.037188 117.811673 
L 210.291098 114.778744 
L 212.294574 112.442036 
L 214.131094 110.630425 
L 215.842396 109.249555 
L 217.428482 108.249557 
L 218.931089 107.560511 
L 220.350217 107.14667 
L 221.727607 106.968554 
L 223.104997 107.012061 
L 224.482387 107.27672 
L 225.901515 107.778256 
L 227.362383 108.532419 
L 228.906729 109.584283 
L 230.534554 110.964512 
L 232.287595 112.74506 
L 234.207593 115.019065 
L 236.336286 117.896688 
L 238.715414 121.497165 
L 241.511932 126.151938 
L 244.976276 132.378661 
L 250.402357 142.658146 
L 257.498001 156.004339 
L 261.63017 163.290794 
L 265.219732 169.18021 
L 268.558858 174.23901 
L 271.731029 178.649263 
L 274.819721 182.568847 
L 277.866674 186.079318 
L 280.871888 189.207841 
L 283.877102 192.021936 
L 286.924055 194.574707 
L 290.054486 196.906168 
L 293.226656 198.993413 
L 296.524044 200.897414 
L 299.946649 202.617489 
L 303.53621 204.173496 
L 307.376205 205.592689 
L 311.466636 206.864334 
L 315.890978 208.003751 
L 320.732712 209.017155 
L 326.117054 209.91149 
L 332.169221 210.685904 
L 339.139648 211.347177 
L 347.362247 211.896324 
L 357.421366 212.336053 
L 370.360482 212.667861 
L 388.558722 212.895499 
L 418.736079 213.022573 
L 497.956859 213.061817 
L 521.956831 213.062462 
L 521.956831 213.062462 
" style="fill:none;stroke:#1f77b4;stroke-linecap:square;"/>
   </g>
   <g id="line2d_11">
    <path clip-path="url(#pb8fe784dfc)" d="M 104.60774 211.398365 
L 111.995558 210.713293 
L 118.339898 209.906597 
L 123.891196 208.980621 
L 128.858147 207.929371 
L 133.365968 206.749449 
L 137.498138 205.439436 
L 141.338133 203.989862 
L 144.927694 202.399187 
L 148.350299 200.639045 
L 151.605948 198.714865 
L 154.736379 196.607387 
L 157.783332 194.287825 
L 160.746807 191.753664 
L 163.668543 188.964129 
L 166.590278 185.864759 
L 169.512014 182.4372 
L 172.475489 178.610497 
L 175.480703 174.360231 
L 178.569395 169.602708 
L 181.825044 164.173062 
L 185.331127 157.885833 
L 189.379818 150.150023 
L 195.139811 138.604313 
L 201.651108 125.661129 
L 204.990235 119.512702 
L 207.703275 114.965411 
L 210.040664 111.470534 
L 212.085879 108.795511 
L 213.964138 106.695235 
L 215.67544 105.106457 
L 217.261525 103.929107 
L 218.764132 103.088274 
L 220.183261 102.547632 
L 221.560651 102.263473 
L 222.896301 102.216907 
L 224.231952 102.396476 
L 225.567603 102.800995 
L 226.944992 103.450568 
L 228.40586 104.391522 
L 229.950206 105.658881 
L 231.61977 107.329454 
L 233.41455 109.451464 
L 235.376287 112.124791 
L 237.588459 115.532624 
L 240.092804 119.815892 
L 243.098018 125.420617 
L 247.063231 133.323282 
L 259.000608 157.414601 
L 262.757126 164.3261 
L 266.137991 170.08764 
L 269.310162 175.060277 
L 272.357115 179.428525 
L 275.32059 183.294457 
L 278.242326 186.746261 
L 281.164061 189.856598 
L 284.085797 192.645189 
L 287.049272 195.167819 
L 290.054486 197.436617 
L 293.143178 199.492042 
L 296.357088 201.362911 
L 299.696214 203.048919 
L 303.202297 204.570341 
L 306.917076 205.94047 
L 310.924028 207.179317 
L 315.264892 208.285533 
L 320.023148 209.265385 
L 325.324011 210.125845 
L 331.334439 210.870795 
L 338.263127 211.500188 
L 346.527465 212.020485 
L 356.753541 212.432027 
L 370.151786 212.736553 
L 389.602199 212.937674 
L 424.245638 213.040111 
L 521.956831 213.062585 
L 521.956831 213.062585 
" style="fill:none;stroke:#ff7f0e;stroke-linecap:square;"/>
   </g>
   <g id="line2d_12">
    <path clip-path="url(#pb8fe784dfc)" d="M 104.60774 211.398365 
L 111.995558 210.712502 
L 118.298159 209.910015 
L 123.849457 208.982546 
L 128.774669 207.938097 
L 133.240751 206.767261 
L 137.331181 205.468641 
L 141.129438 204.032673 
L 144.67726 202.457605 
L 148.058126 200.714643 
L 151.272035 198.808648 
L 154.360727 196.71947 
L 157.365941 194.416998 
L 160.287677 191.897083 
L 163.167674 189.116392 
L 166.005931 186.063957 
L 168.844189 182.679561 
L 171.682447 178.943432 
L 174.562443 174.776388 
L 177.484179 170.150839 
L 180.489393 164.971859 
L 183.661563 159.052252 
L 187.084168 152.179072 
L 190.965903 143.862999 
L 196.183288 132.108401 
L 203.487628 115.69206 
L 206.743276 108.944825 
L 209.331099 104.070213 
L 211.543271 100.353188 
L 213.505008 97.4711 
L 215.299788 95.220879 
L 216.927613 93.530114 
L 218.43022 92.285698 
L 219.807609 91.425139 
L 221.101521 90.869518 
L 222.353693 90.570608 
L 223.564127 90.508247 
L 224.77456 90.670172 
L 225.984994 91.056264 
L 227.237166 91.689678 
L 228.572817 92.62337 
L 229.991946 93.899711 
L 231.494553 95.558367 
L 233.122377 97.693277 
L 234.917157 100.425796 
L 236.920633 103.899965 
L 239.174544 108.272478 
L 241.804106 113.879617 
L 245.101494 121.466047 
L 250.611053 134.801713 
L 256.538002 148.954664 
L 260.29452 157.354622 
L 263.591907 164.197536 
L 266.63886 170.018993 
L 269.518857 175.054683 
L 272.315376 179.506188 
L 275.070155 183.476837 
L 277.783196 187.000661 
L 280.496236 190.161272 
L 283.209276 192.982553 
L 285.964056 195.526611 
L 288.760574 197.807236 
L 291.640571 199.868312 
L 294.604046 201.716315 
L 297.692738 203.381466 
L 300.948387 204.884035 
L 304.412731 206.236703 
L 308.127509 207.44678 
L 312.1762 208.528331 
L 316.642282 209.485853 
L 321.609233 210.318569 
L 327.244009 211.033553 
L 333.838784 211.639188 
L 341.727471 212.132299 
L 351.619633 212.51754 
L 364.850923 212.796363 
L 384.760465 212.97221 
L 423.619552 213.051762 
L 521.956831 213.062714 
L 521.956831 213.062714 
" style="fill:none;stroke:#2ca02c;stroke-linecap:square;"/>
   </g>
   <g id="line2d_13">
    <path clip-path="url(#pb8fe784dfc)" d="M 104.60774 211.398365 
L 111.91208 210.719453 
L 118.172942 209.92086 
L 123.640762 209.005428 
L 128.524235 207.966788 
L 132.948578 206.800848 
L 136.997269 205.505168 
L 140.712047 204.086134 
L 144.176391 202.528901 
L 147.473778 200.802969 
L 150.60421 198.911409 
L 153.567685 196.862051 
L 156.447681 194.598147 
L 159.202461 192.151306 
L 161.915501 189.442269 
L 164.545063 186.503321 
L 167.174626 183.225481 
L 169.762449 179.638345 
L 172.350272 175.662159 
L 174.896356 171.341057 
L 177.484179 166.504739 
L 180.072002 161.194149 
L 182.701564 155.289392 
L 185.414605 148.64302 
L 188.211123 141.19648 
L 191.174598 132.65726 
L 194.346769 122.824422 
L 197.978069 110.817641 
L 203.070237 93.117748 
L 209.038926 72.526963 
L 211.960662 63.25553 
L 214.256311 56.678632 
L 216.176309 51.812506 
L 217.845872 48.14619 
L 219.348479 45.358901 
L 220.68413 43.330082 
L 221.894563 41.883559 
L 222.97978 40.921042 
L 223.981518 40.3245 
L 224.899777 40.031077 
L 225.776298 39.981824 
L 226.652819 40.161243 
L 227.52934 40.571299 
L 228.447599 41.24904 
L 229.449337 42.277215 
L 230.534554 43.727803 
L 231.703248 45.67418 
L 232.99716 48.279541 
L 234.416288 51.656172 
L 236.002374 56.029612 
L 237.797154 61.668364 
L 239.842369 68.863294 
L 242.304975 78.390049 
L 245.560624 91.94604 
L 255.035395 131.922731 
L 258.040609 143.345118 
L 260.711911 152.647649 
L 263.216256 160.574737 
L 265.595383 167.375015 
L 267.891033 173.269438 
L 270.103204 178.351518 
L 272.273637 182.797484 
L 274.444069 186.743903 
L 276.614501 190.229616 
L 278.784934 193.294977 
L 280.955366 195.98031 
L 283.167537 198.366764 
L 285.421448 200.47476 
L 287.758836 202.357104 
L 290.179703 204.022296 
L 292.725787 205.504238 
L 295.438828 206.824357 
L 298.360564 207.99515 
L 301.532734 209.02336 
L 305.038817 209.922294 
L 309.00403 210.702898 
L 313.55359 211.364434 
L 318.896192 211.90988 
L 325.449228 212.346692 
L 333.922262 212.676366 
L 345.85964 212.900937 
L 365.810922 213.02503 
L 419.654339 213.062027 
L 521.956831 213.062767 
L 521.956831 213.062767 
" style="fill:none;stroke:#d62728;stroke-linecap:square;"/>
   </g>
   <g id="patch_3">
    <path d="M 83.740286 221.717271 
L 83.740286 31.318173 
" style="fill:none;stroke:#000000;stroke-linecap:square;stroke-linejoin:miter;stroke-width:0.8;"/>
   </g>
   <g id="patch_4">
    <path d="M 542.824286 221.717271 
L 542.824286 31.318173 
" style="fill:none;stroke:#000000;stroke-linecap:square;stroke-linejoin:miter;stroke-width:0.8;"/>
   </g>
   <g id="patch_5">
    <path d="M 83.740286 221.717271 
L 542.824286 221.717271 
" style="fill:none;stroke:#000000;stroke-linecap:square;stroke-linejoin:miter;stroke-width:0.8;"/>
   </g>
   <g id="patch_6">
    <path d="M 83.740286 31.318173 
L 542.824286 31.318173 
" style="fill:none;stroke:#000000;stroke-linecap:square;stroke-linejoin:miter;stroke-width:0.8;"/>
   </g>
   <g id="text_12">
    <!-- (a) $P_{I_1}$ -->
    <defs>
     <path d="M 25.203125 75 
C 19.796875 69.484375 7.40625 56.671875 7.40625 25.046875 
C 7.40625 -6.6875 19.796875 -19.40625 25.203125 -25 
L 31.296875 -25 
C 19 -12.203125 15 5.71875 15 24.9375 
C 15 44.0625 18.796875 62.078125 31.296875 75 
z
" id="CMSS17-40"/>
     <path d="M 37.59375 27.953125 
C 37.59375 37.484375 30.90625 44 21.90625 44 
C 17.5 44 12.703125 43.1875 7.203125 39.984375 
L 7.796875 33.328125 
C 10.296875 35.15625 14.59375 38.09375 21.796875 38.09375 
C 26.90625 38.09375 30 34.140625 30 27.84375 
L 30 24 
C 14 23.5 4 18.890625 4 11.109375 
C 4 7.0625 6.5 -1 14.796875 -1 
C 16.296875 -1 24.40625 -0.8125 30.203125 3.5 
L 30.203125 -0.203125 
L 37.59375 -0.203125 
z
M 30 12.875 
C 30 11.109375 30 8.734375 27 6.96875 
C 24.40625 5.296875 21.09375 5.09375 19.703125 5.09375 
C 14.703125 5.09375 11.296875 7.859375 11.296875 11.296875 
C 11.296875 18.203125 26.90625 18.890625 30 19 
z
" id="CMSS17-97"/>
     <path d="M 11.296875 -25 
C 16.703125 -19.5 29.09375 -6.6875 29.09375 24.9375 
C 29.09375 56.671875 16.703125 69.375 11.296875 75 
L 5.203125 75 
C 17.5 62.171875 21.5 44.265625 21.5 25.046875 
C 21.5 5.921875 17.703125 -12.09375 5.203125 -25 
z
" id="CMSS17-41"/>
    </defs>
    <g transform="translate(289.197304 25.318173)scale(0.18 -0.18)">
     <use transform="translate(0 25.404611)scale(0.996264)" xlink:href="#CMSS17-40"/>
     <use transform="translate(36.433914 25.404611)scale(0.996264)" xlink:href="#CMSS17-97"/>
     <use transform="translate(81.355835 25.404611)scale(0.996264)" xlink:href="#CMSS17-41"/>
     <use transform="translate(149.018862 25.404611)scale(0.996264)" xlink:href="#CMMI12-80"/>
     <use transform="translate(211.896094 10.460696)scale(0.697382)" xlink:href="#CMMI12-73"/>
     <use transform="translate(242.012877 0)scale(0.498132)" xlink:href="#CMR17-49"/>
    </g>
   </g>
  </g>
  <g id="axes_2">
   <g id="patch_7">
    <path d="M 610.116 221.717271 
L 1069.2 221.717271 
L 1069.2 31.318173 
L 610.116 31.318173 
z
" style="fill:#ffffff;"/>
   </g>
   <g id="matplotlib.axis_3">
    <g id="xtick_5">
     <g id="line2d_14">
      <g>
       <use style="stroke:#000000;stroke-width:0.8;" x="630.983454" xlink:href="#m266c51556c" y="221.717271"/>
      </g>
     </g>
     <g id="text_13">
      <!-- $0$ -->
      <g transform="translate(626.871311 241.170572)scale(0.18 -0.18)">
       <use transform="scale(0.996264)" xlink:href="#CMR17-48"/>
      </g>
     </g>
    </g>
    <g id="xtick_6">
     <g id="line2d_15">
      <g>
       <use style="stroke:#000000;stroke-width:0.8;" x="770.099818" xlink:href="#m266c51556c" y="221.717271"/>
      </g>
     </g>
     <g id="text_14">
      <!-- $10$ -->
      <g transform="translate(761.875532 241.170572)scale(0.18 -0.18)">
       <use transform="scale(0.996264)" xlink:href="#CMR17-49"/>
       <use transform="translate(45.690477 0)scale(0.996264)" xlink:href="#CMR17-48"/>
      </g>
     </g>
    </g>
    <g id="xtick_7">
     <g id="line2d_16">
      <g>
       <use style="stroke:#000000;stroke-width:0.8;" x="909.216182" xlink:href="#m266c51556c" y="221.717271"/>
      </g>
     </g>
     <g id="text_15">
      <!-- $20$ -->
      <g transform="translate(900.991896 241.170572)scale(0.18 -0.18)">
       <use transform="scale(0.996264)" xlink:href="#CMR17-50"/>
       <use transform="translate(45.690477 0)scale(0.996264)" xlink:href="#CMR17-48"/>
      </g>
     </g>
    </g>
    <g id="xtick_8">
     <g id="line2d_17">
      <g>
       <use style="stroke:#000000;stroke-width:0.8;" x="1048.332545" xlink:href="#m266c51556c" y="221.717271"/>
      </g>
     </g>
     <g id="text_16">
      <!-- $30$ -->
      <g transform="translate(1040.10826 241.170572)scale(0.18 -0.18)">
       <use transform="scale(0.996264)" xlink:href="#CMR17-51"/>
       <use transform="translate(45.690477 0)scale(0.996264)" xlink:href="#CMR17-48"/>
      </g>
     </g>
    </g>
    <g id="text_17">
     <!-- time -->
     <g transform="translate(824.18878 261.111936)scale(0.18 -0.18)">
      <use transform="scale(0.996264)" xlink:href="#CMSS17-116"/>
      <use transform="translate(33.831567 0)scale(0.996264)" xlink:href="#CMSS17-105"/>
      <use transform="translate(56.01229 0)scale(0.996264)" xlink:href="#CMSS17-109"/>
      <use transform="translate(130.241544 0)scale(0.996264)" xlink:href="#CMSS17-101"/>
     </g>
    </g>
   </g>
   <g id="matplotlib.axis_4">
    <g id="ytick_6">
     <g id="line2d_18">
      <g>
       <use style="stroke:#000000;stroke-width:0.8;" x="610.116" xlink:href="#m8550dcb52c" y="213.062767"/>
      </g>
     </g>
     <g id="text_18">
      <!-- $0.00$ -->
      <g transform="translate(573.56565 219.289417)scale(0.18 -0.18)">
       <use transform="scale(0.996264)" xlink:href="#CMR17-48"/>
       <use transform="translate(45.690477 0)scale(0.996264)" xlink:href="#CMMI12-58"/>
       <use transform="translate(72.787654 0)scale(0.996264)" xlink:href="#CMR17-48"/>
       <use transform="translate(118.478131 0)scale(0.996264)" xlink:href="#CMR17-48"/>
      </g>
     </g>
    </g>
    <g id="ytick_7">
     <g id="line2d_19">
      <g>
       <use style="stroke:#000000;stroke-width:0.8;" x="610.116" xlink:href="#m8550dcb52c" y="181.108273"/>
      </g>
     </g>
     <g id="text_19">
      <!-- $0.05$ -->
      <g transform="translate(573.56565 187.334923)scale(0.18 -0.18)">
       <use transform="scale(0.996264)" xlink:href="#CMR17-48"/>
       <use transform="translate(45.690477 0)scale(0.996264)" xlink:href="#CMMI12-58"/>
       <use transform="translate(72.787654 0)scale(0.996264)" xlink:href="#CMR17-48"/>
       <use transform="translate(118.478131 0)scale(0.996264)" xlink:href="#CMR17-53"/>
      </g>
     </g>
    </g>
    <g id="ytick_8">
     <g id="line2d_20">
      <g>
       <use style="stroke:#000000;stroke-width:0.8;" x="610.116" xlink:href="#m8550dcb52c" y="149.153778"/>
      </g>
     </g>
     <g id="text_20">
      <!-- $0.10$ -->
      <g transform="translate(573.56565 155.380428)scale(0.18 -0.18)">
       <use transform="scale(0.996264)" xlink:href="#CMR17-48"/>
       <use transform="translate(45.690477 0)scale(0.996264)" xlink:href="#CMMI12-58"/>
       <use transform="translate(72.787654 0)scale(0.996264)" xlink:href="#CMR17-49"/>
       <use transform="translate(118.478131 0)scale(0.996264)" xlink:href="#CMR17-48"/>
      </g>
     </g>
    </g>
    <g id="ytick_9">
     <g id="line2d_21">
      <g>
       <use style="stroke:#000000;stroke-width:0.8;" x="610.116" xlink:href="#m8550dcb52c" y="117.199284"/>
      </g>
     </g>
     <g id="text_21">
      <!-- $0.15$ -->
      <g transform="translate(573.56565 123.425934)scale(0.18 -0.18)">
       <use transform="scale(0.996264)" xlink:href="#CMR17-48"/>
       <use transform="translate(45.690477 0)scale(0.996264)" xlink:href="#CMMI12-58"/>
       <use transform="translate(72.787654 0)scale(0.996264)" xlink:href="#CMR17-49"/>
       <use transform="translate(118.478131 0)scale(0.996264)" xlink:href="#CMR17-53"/>
      </g>
     </g>
    </g>
    <g id="ytick_10">
     <g id="line2d_22">
      <g>
       <use style="stroke:#000000;stroke-width:0.8;" x="610.116" xlink:href="#m8550dcb52c" y="85.24479"/>
      </g>
     </g>
     <g id="text_22">
      <!-- $0.20$ -->
      <g transform="translate(573.56565 91.47144)scale(0.18 -0.18)">
       <use transform="scale(0.996264)" xlink:href="#CMR17-48"/>
       <use transform="translate(45.690477 0)scale(0.996264)" xlink:href="#CMMI12-58"/>
       <use transform="translate(72.787654 0)scale(0.996264)" xlink:href="#CMR17-50"/>
       <use transform="translate(118.478131 0)scale(0.996264)" xlink:href="#CMR17-48"/>
      </g>
     </g>
    </g>
    <g id="ytick_11">
     <g id="line2d_23">
      <g>
       <use style="stroke:#000000;stroke-width:0.8;" x="610.116" xlink:href="#m8550dcb52c" y="53.290295"/>
      </g>
     </g>
     <g id="text_23">
      <!-- $0.25$ -->
      <g transform="translate(573.56565 59.516945)scale(0.18 -0.18)">
       <use transform="scale(0.996264)" xlink:href="#CMR17-48"/>
       <use transform="translate(45.690477 0)scale(0.996264)" xlink:href="#CMMI12-58"/>
       <use transform="translate(72.787654 0)scale(0.996264)" xlink:href="#CMR17-50"/>
       <use transform="translate(118.478131 0)scale(0.996264)" xlink:href="#CMR17-53"/>
      </g>
     </g>
    </g>
    <g id="text_24">
     <!-- $P_R$ -->
     <defs>
      <path d="M 36.796875 61.203125 
C 37.703125 64.890625 38.09375 65.09375 42 65.09375 
L 49.203125 65.09375 
C 57.796875 65.09375 64.203125 62.5 64.203125 54.734375 
C 64.203125 49.640625 61.59375 35 41.5 35 
L 30.203125 35 
z
M 50.703125 33.796875 
C 63.09375 36.484375 72.796875 44.46875 72.796875 53.03125 
C 72.796875 60.8125 64.90625 68 51 68 
L 23.90625 68 
C 21.90625 68 21 68 21 66.09375 
C 21 65.09375 21.703125 65.09375 23.59375 65.09375 
C 29.59375 65.09375 29.59375 64.296875 29.59375 63.203125 
C 29.59375 63 29.59375 62.40625 29.203125 60.90625 
L 15.703125 7.421875 
C 14.796875 3.953125 14.59375 2.96875 7.703125 2.96875 
C 5.40625 2.96875 4.703125 2.96875 4.703125 1.078125 
C 4.703125 0.09375 5.796875 0.09375 6.09375 0.09375 
C 7.90625 0.09375 10 0.296875 11.90625 0.296875 
L 23.703125 0.296875 
C 25.5 0.296875 27.59375 0.09375 29.40625 0.09375 
C 30.203125 0.09375 31.296875 0.09375 31.296875 1.96875 
C 31.296875 2.96875 30.40625 2.96875 28.90625 2.96875 
C 22.796875 2.96875 22.796875 3.765625 22.796875 4.75 
C 22.796875 4.84375 22.796875 5.546875 23 6.328125 
L 29.703125 33 
L 41.703125 33 
C 51.203125 33 53 27.046875 53 23.78125 
C 53 22.28125 52 18.421875 51.296875 15.84375 
C 50.203125 11.296875 49.90625 10.203125 49.90625 8.3125 
C 49.90625 1.28125 55.703125 -2 62.40625 -2 
C 70.5 -2 74 7.828125 74 9.203125 
C 74 9.90625 73.5 10.203125 72.90625 10.203125 
C 72.09375 10.203125 71.90625 9.609375 71.703125 8.8125 
C 69.296875 1.78125 65.203125 0 62.703125 0 
C 60.203125 0 58.59375 1.078125 58.59375 5.546875 
C 58.59375 7.921875 59.796875 16.9375 59.90625 17.4375 
C 60.40625 21.09375 60.40625 21.5 60.40625 22.28125 
C 60.40625 29.515625 54.5 32.59375 50.703125 33.796875 
z
" id="CMMI12-82"/>
     </defs>
     <g transform="translate(566.077586 136.854448)rotate(-90)scale(0.18 -0.18)">
      <use transform="translate(0 14.943915)scale(0.996264)" xlink:href="#CMMI12-80"/>
      <use transform="translate(62.877232 0)scale(0.697382)" xlink:href="#CMMI12-82"/>
     </g>
    </g>
   </g>
   <g id="line2d_24">
    <path clip-path="url(#p7fe6bdb3a2)" d="M 630.983454 213.062767 
L 643.379962 212.638813 
L 652.938212 212.097694 
L 660.74342 211.44041 
L 667.379935 210.664807 
L 673.181667 209.768318 
L 678.357313 208.748332 
L 683.07383 207.594927 
L 687.414695 206.306061 
L 691.463386 204.872584 
L 695.261642 203.293251 
L 698.892942 201.542237 
L 702.357286 199.626115 
L 705.738152 197.501288 
L 709.03554 195.165327 
L 712.291188 192.585168 
L 715.546836 189.717622 
L 718.802485 186.551266 
L 722.099873 183.033368 
L 725.522477 179.05137 
L 729.070299 174.578747 
L 732.868556 169.427308 
L 737.084203 163.324207 
L 742.092893 155.662248 
L 750.106797 142.925101 
L 757.745049 130.935073 
L 762.586783 123.746535 
L 766.718952 118.000134 
L 770.47547 113.146269 
L 774.023292 108.916079 
L 777.445897 105.174781 
L 780.785023 101.848886 
L 784.082411 98.873832 
L 787.379798 96.195477 
L 790.718925 93.770307 
L 794.099791 91.590164 
L 797.564135 89.621335 
L 801.153696 87.839031 
L 804.868474 86.242538 
L 808.791948 84.798837 
L 812.965856 83.501404 
L 817.473677 82.336635 
L 822.35715 81.307447 
L 827.741492 80.402704 
L 833.793659 79.615335 
L 840.722346 78.943476 
L 848.861468 78.3842 
L 858.75363 77.935341 
L 871.442312 77.593503 
L 889.056205 77.357301 
L 917.689216 77.222054 
L 987.977831 77.176577 
L 1048.332545 77.174973 
L 1048.332545 77.174973 
" style="fill:none;stroke:#1f77b4;stroke-linecap:square;"/>
   </g>
   <g id="line2d_25">
    <path clip-path="url(#p7fe6bdb3a2)" d="M 630.983454 213.062767 
L 643.379962 212.638779 
L 652.938212 212.097411 
L 660.74342 211.439499 
L 667.379935 210.662698 
L 673.181667 209.764211 
L 678.357313 208.741156 
L 683.032091 207.594586 
L 687.331216 206.315353 
L 691.338168 204.894448 
L 695.136425 203.311939 
L 698.725986 201.576557 
L 702.19033 199.653939 
L 705.529457 197.546209 
L 708.785105 195.228756 
L 711.999014 192.667573 
L 715.212924 189.81805 
L 718.426833 186.667033 
L 721.682482 183.159104 
L 725.021608 179.228474 
L 728.485952 174.80082 
L 732.158992 169.737803 
L 736.165943 163.825252 
L 740.798982 156.573784 
L 747.018105 146.38676 
L 758.16244 128.095359 
L 762.878957 120.830575 
L 766.927648 114.995277 
L 770.600687 110.081908 
L 774.065031 105.809985 
L 777.404158 102.038932 
L 780.659806 98.692153 
L 783.873715 95.702663 
L 787.087625 93.01453 
L 790.301534 90.612403 
L 793.598922 88.425813 
L 796.979787 86.453342 
L 800.444131 84.689585 
L 804.075432 83.091732 
L 807.873688 81.663464 
L 811.922379 80.379257 
L 816.304983 79.226133 
L 821.063238 78.207903 
L 826.322363 77.314001 
L 832.249313 76.537948 
L 839.052783 75.878401 
L 847.066687 75.332737 
L 856.875372 74.897352 
L 869.522314 74.570469 
L 887.386641 74.348339 
L 917.397042 74.226615 
L 1000.165644 74.191319 
L 1048.332545 74.19077 
L 1048.332545 74.19077 
" style="fill:none;stroke:#ff7f0e;stroke-linecap:square;"/>
   </g>
   <g id="line2d_26">
    <path clip-path="url(#p7fe6bdb3a2)" d="M 630.983454 213.062767 
L 643.379962 212.638708 
L 652.938212 212.096807 
L 660.74342 211.437553 
L 667.379935 210.658188 
L 673.139928 209.762788 
L 678.273835 208.744317 
L 682.948613 207.592418 
L 687.205999 206.318169 
L 691.171212 204.902939 
L 694.927729 203.326188 
L 698.475552 201.59604 
L 701.856417 199.7019 
L 705.153805 197.598056 
L 708.367714 195.279845 
L 711.498145 192.74634 
L 714.586838 189.961235 
L 717.67553 186.876572 
L 720.805961 183.431839 
L 723.978131 179.60627 
L 727.23378 175.328266 
L 730.656385 170.455485 
L 734.287685 164.889559 
L 738.294637 158.327534 
L 742.969414 150.227373 
L 749.898102 137.718019 
L 758.204179 122.822014 
L 762.795478 115.050909 
L 766.677213 108.902922 
L 770.225035 103.690822 
L 773.564162 99.17603 
L 776.736332 95.254058 
L 779.825024 91.782753 
L 782.871977 88.68951 
L 785.877191 85.949962 
L 788.924144 83.472219 
L 792.012837 81.24884 
L 795.143268 79.268594 
L 798.357177 77.495906 
L 801.738043 75.886631 
L 805.285865 74.446951 
L 809.042382 73.164428 
L 813.091074 72.020146 
L 817.473677 71.014481 
L 822.35715 70.12688 
L 827.82497 69.36406 
L 834.127571 68.715713 
L 841.557128 68.18209 
L 850.697987 67.757842 
L 862.551887 67.442058 
L 879.497955 67.230512 
L 908.757052 67.118496 
L 998.162168 67.089884 
L 1048.332545 67.089673 
L 1048.332545 67.089673 
" style="fill:none;stroke:#2ca02c;stroke-linecap:square;"/>
   </g>
   <g id="line2d_27">
    <path clip-path="url(#p7fe6bdb3a2)" d="M 630.983454 213.062767 
L 643.379962 212.638506 
L 652.896473 212.098035 
L 660.659942 211.440466 
L 667.212978 210.668232 
L 672.931233 209.775001 
L 677.981662 208.766276 
L 682.572961 207.625299 
L 686.746869 206.362328 
L 690.628604 204.957265 
L 694.259904 203.406737 
L 697.682509 201.703543 
L 700.938157 199.83471 
L 704.068589 197.779472 
L 707.073803 195.540202 
L 709.995538 193.086418 
L 712.875535 190.374942 
L 715.713793 187.393807 
L 718.510311 184.133694 
L 721.30683 180.532302 
L 724.145088 176.509687 
L 727.025084 172.03467 
L 729.94682 167.080958 
L 732.993773 161.470441 
L 736.207683 155.074087 
L 739.672026 147.666796 
L 743.553761 138.820043 
L 748.353756 127.291277 
L 761.418089 95.591929 
L 765.091128 87.451613 
L 768.305037 80.85496 
L 771.226773 75.348783 
L 773.981553 70.617075 
L 776.611115 66.528622 
L 779.198938 62.912294 
L 781.703283 59.787227 
L 784.207628 57.014039 
L 786.711973 54.571281 
L 789.216318 52.434119 
L 791.804141 50.518328 
L 794.475442 48.820921 
L 797.230222 47.334184 
L 800.151958 46.012036 
L 803.282389 44.844146 
L 806.663255 43.824614 
L 810.378033 42.940676 
L 814.551941 42.181169 
L 819.351936 41.540527 
L 825.028451 41.015376 
L 831.998878 40.602806 
L 841.139737 40.297271 
L 854.371027 40.096559 
L 877.953609 39.994856 
L 960.388298 39.972732 
L 1048.332545 39.972678 
L 1048.332545 39.972678 
" style="fill:none;stroke:#d62728;stroke-linecap:square;"/>
   </g>
   <g id="patch_8">
    <path d="M 610.116 221.717271 
L 610.116 31.318173 
" style="fill:none;stroke:#000000;stroke-linecap:square;stroke-linejoin:miter;stroke-width:0.8;"/>
   </g>
   <g id="patch_9">
    <path d="M 1069.2 221.717271 
L 1069.2 31.318173 
" style="fill:none;stroke:#000000;stroke-linecap:square;stroke-linejoin:miter;stroke-width:0.8;"/>
   </g>
   <g id="patch_10">
    <path d="M 610.116 221.717271 
L 1069.2 221.717271 
" style="fill:none;stroke:#000000;stroke-linecap:square;stroke-linejoin:miter;stroke-width:0.8;"/>
   </g>
   <g id="patch_11">
    <path d="M 610.116 31.318173 
L 1069.2 31.318173 
" style="fill:none;stroke:#000000;stroke-linecap:square;stroke-linejoin:miter;stroke-width:0.8;"/>
   </g>
   <g id="text_25">
    <!-- (b) $P_{R_1}$ -->
    <defs>
     <path d="M 14.90625 69 
L 7.5 69 
L 7.5 -0.203125 
L 15.09375 -0.203125 
L 15.09375 4.296875 
C 18.90625 0.59375 23.5 -1 27.59375 -1 
C 37.203125 -1 45 8.734375 45 21.59375 
C 45 33.328125 39 44 30.09375 44 
C 23.796875 44 18.203125 41.390625 14.90625 38.6875 
z
M 15.09375 32.734375 
C 17.296875 35.5625 20.40625 37.890625 24.796875 37.890625 
C 30.703125 37.890625 37.40625 33.53125 37.40625 21.59375 
C 37.40625 8.84375 29.40625 5.09375 23.90625 5.09375 
C 21.90625 5.09375 19.796875 5.59375 17.796875 7.3125 
C 15.09375 9.75 15.09375 11.265625 15.09375 12.6875 
z
" id="CMSS17-98"/>
    </defs>
    <g transform="translate(813.310271 25.318173)scale(0.18 -0.18)">
     <use transform="translate(0 25.404611)scale(0.996264)" xlink:href="#CMSS17-40"/>
     <use transform="translate(36.433914 25.404611)scale(0.996264)" xlink:href="#CMSS17-98"/>
     <use transform="translate(84.638857 25.404611)scale(0.996264)" xlink:href="#CMSS17-41"/>
     <use transform="translate(152.301884 25.404611)scale(0.996264)" xlink:href="#CMMI12-80"/>
     <use transform="translate(215.179117 10.460696)scale(0.697382)" xlink:href="#CMMI12-82"/>
     <use transform="translate(267.154467 0)scale(0.498132)" xlink:href="#CMR17-49"/>
    </g>
   </g>
  </g>
  <g id="axes_3">
   <g id="patch_12">
    <path d="M 83.740286 486.317271 
L 542.824286 486.317271 
L 542.824286 295.918173 
L 83.740286 295.918173 
z
" style="fill:#ffffff;"/>
   </g>
   <g id="matplotlib.axis_5">
    <g id="xtick_9">
     <g id="line2d_28">
      <g>
       <use style="stroke:#000000;stroke-width:0.8;" x="104.60774" xlink:href="#m266c51556c" y="486.317271"/>
      </g>
     </g>
     <g id="text_26">
      <!-- $0$ -->
      <g transform="translate(100.495597 505.770572)scale(0.18 -0.18)">
       <use transform="scale(0.996264)" xlink:href="#CMR17-48"/>
      </g>
     </g>
    </g>
    <g id="xtick_10">
     <g id="line2d_29">
      <g>
       <use style="stroke:#000000;stroke-width:0.8;" x="243.724104" xlink:href="#m266c51556c" y="486.317271"/>
      </g>
     </g>
     <g id="text_27">
      <!-- $10$ -->
      <g transform="translate(235.499818 505.770572)scale(0.18 -0.18)">
       <use transform="scale(0.996264)" xlink:href="#CMR17-49"/>
       <use transform="translate(45.690477 0)scale(0.996264)" xlink:href="#CMR17-48"/>
      </g>
     </g>
    </g>
    <g id="xtick_11">
     <g id="line2d_30">
      <g>
       <use style="stroke:#000000;stroke-width:0.8;" x="382.840468" xlink:href="#m266c51556c" y="486.317271"/>
      </g>
     </g>
     <g id="text_28">
      <!-- $20$ -->
      <g transform="translate(374.616182 505.770572)scale(0.18 -0.18)">
       <use transform="scale(0.996264)" xlink:href="#CMR17-50"/>
       <use transform="translate(45.690477 0)scale(0.996264)" xlink:href="#CMR17-48"/>
      </g>
     </g>
    </g>
    <g id="xtick_12">
     <g id="line2d_31">
      <g>
       <use style="stroke:#000000;stroke-width:0.8;" x="521.956831" xlink:href="#m266c51556c" y="486.317271"/>
      </g>
     </g>
     <g id="text_29">
      <!-- $30$ -->
      <g transform="translate(513.732545 505.770572)scale(0.18 -0.18)">
       <use transform="scale(0.996264)" xlink:href="#CMR17-51"/>
       <use transform="translate(45.690477 0)scale(0.996264)" xlink:href="#CMR17-48"/>
      </g>
     </g>
    </g>
    <g id="text_30">
     <!-- time -->
     <g transform="translate(297.813066 525.711936)scale(0.18 -0.18)">
      <use transform="scale(0.996264)" xlink:href="#CMSS17-116"/>
      <use transform="translate(33.831567 0)scale(0.996264)" xlink:href="#CMSS17-105"/>
      <use transform="translate(56.01229 0)scale(0.996264)" xlink:href="#CMSS17-109"/>
      <use transform="translate(130.241544 0)scale(0.996264)" xlink:href="#CMSS17-101"/>
     </g>
    </g>
   </g>
   <g id="matplotlib.axis_6">
    <g id="ytick_12">
     <g id="line2d_32">
      <g>
       <use style="stroke:#000000;stroke-width:0.8;" x="83.740286" xlink:href="#m8550dcb52c" y="477.769361"/>
      </g>
     </g>
     <g id="text_31">
      <!-- $0.0000$ -->
      <g transform="translate(30.741364 483.996012)scale(0.18 -0.18)">
       <use transform="scale(0.996264)" xlink:href="#CMR17-48"/>
       <use transform="translate(45.690477 0)scale(0.996264)" xlink:href="#CMMI12-58"/>
       <use transform="translate(72.787654 0)scale(0.996264)" xlink:href="#CMR17-48"/>
       <use transform="translate(118.478131 0)scale(0.996264)" xlink:href="#CMR17-48"/>
       <use transform="translate(164.168608 0)scale(0.996264)" xlink:href="#CMR17-48"/>
       <use transform="translate(209.859086 0)scale(0.996264)" xlink:href="#CMR17-48"/>
      </g>
     </g>
    </g>
    <g id="ytick_13">
     <g id="line2d_33">
      <g>
       <use style="stroke:#000000;stroke-width:0.8;" x="83.740286" xlink:href="#m8550dcb52c" y="432.306564"/>
      </g>
     </g>
     <g id="text_32">
      <!-- $0.0025$ -->
      <g transform="translate(30.741364 438.533215)scale(0.18 -0.18)">
       <use transform="scale(0.996264)" xlink:href="#CMR17-48"/>
       <use transform="translate(45.690477 0)scale(0.996264)" xlink:href="#CMMI12-58"/>
       <use transform="translate(72.787654 0)scale(0.996264)" xlink:href="#CMR17-48"/>
       <use transform="translate(118.478131 0)scale(0.996264)" xlink:href="#CMR17-48"/>
       <use transform="translate(164.168608 0)scale(0.996264)" xlink:href="#CMR17-50"/>
       <use transform="translate(209.859086 0)scale(0.996264)" xlink:href="#CMR17-53"/>
      </g>
     </g>
    </g>
    <g id="ytick_14">
     <g id="line2d_34">
      <g>
       <use style="stroke:#000000;stroke-width:0.8;" x="83.740286" xlink:href="#m8550dcb52c" y="386.843767"/>
      </g>
     </g>
     <g id="text_33">
      <!-- $0.0050$ -->
      <g transform="translate(30.741364 393.070418)scale(0.18 -0.18)">
       <use transform="scale(0.996264)" xlink:href="#CMR17-48"/>
       <use transform="translate(45.690477 0)scale(0.996264)" xlink:href="#CMMI12-58"/>
       <use transform="translate(72.787654 0)scale(0.996264)" xlink:href="#CMR17-48"/>
       <use transform="translate(118.478131 0)scale(0.996264)" xlink:href="#CMR17-48"/>
       <use transform="translate(164.168608 0)scale(0.996264)" xlink:href="#CMR17-53"/>
       <use transform="translate(209.859086 0)scale(0.996264)" xlink:href="#CMR17-48"/>
      </g>
     </g>
    </g>
    <g id="ytick_15">
     <g id="line2d_35">
      <g>
       <use style="stroke:#000000;stroke-width:0.8;" x="83.740286" xlink:href="#m8550dcb52c" y="341.38097"/>
      </g>
     </g>
     <g id="text_34">
      <!-- $0.0075$ -->
      <g transform="translate(30.741364 347.60762)scale(0.18 -0.18)">
       <use transform="scale(0.996264)" xlink:href="#CMR17-48"/>
       <use transform="translate(45.690477 0)scale(0.996264)" xlink:href="#CMMI12-58"/>
       <use transform="translate(72.787654 0)scale(0.996264)" xlink:href="#CMR17-48"/>
       <use transform="translate(118.478131 0)scale(0.996264)" xlink:href="#CMR17-48"/>
       <use transform="translate(164.168608 0)scale(0.996264)" xlink:href="#CMR17-55"/>
       <use transform="translate(209.859086 0)scale(0.996264)" xlink:href="#CMR17-53"/>
      </g>
     </g>
    </g>
    <g id="ytick_16">
     <g id="line2d_36">
      <g>
       <use style="stroke:#000000;stroke-width:0.8;" x="83.740286" xlink:href="#m8550dcb52c" y="295.918173"/>
      </g>
     </g>
     <g id="text_35">
      <!-- $0.0100$ -->
      <g transform="translate(30.741364 302.144823)scale(0.18 -0.18)">
       <use transform="scale(0.996264)" xlink:href="#CMR17-48"/>
       <use transform="translate(45.690477 0)scale(0.996264)" xlink:href="#CMMI12-58"/>
       <use transform="translate(72.787654 0)scale(0.996264)" xlink:href="#CMR17-48"/>
       <use transform="translate(118.478131 0)scale(0.996264)" xlink:href="#CMR17-49"/>
       <use transform="translate(164.168608 0)scale(0.996264)" xlink:href="#CMR17-48"/>
       <use transform="translate(209.859086 0)scale(0.996264)" xlink:href="#CMR17-48"/>
      </g>
     </g>
    </g>
    <g id="text_36">
     <!-- $P_I$ -->
     <g transform="translate(23.2533 399.487178)rotate(-90)scale(0.18 -0.18)">
      <use transform="translate(0 14.943915)scale(0.996264)" xlink:href="#CMMI12-80"/>
      <use transform="translate(62.877232 0)scale(0.697382)" xlink:href="#CMMI12-73"/>
     </g>
    </g>
   </g>
   <g id="line2d_37">
    <path clip-path="url(#p347340c08d)" d="M 104.60774 475.95085 
L 111.745123 475.233899 
L 117.880769 474.399376 
L 123.306849 473.440405 
L 128.148583 472.363163 
L 132.572926 471.154356 
L 136.663356 469.8081 
L 140.461612 468.326688 
L 144.051174 466.690003 
L 147.473778 464.885488 
L 150.771166 462.893776 
L 153.943336 460.717306 
L 157.032028 458.328954 
L 160.078981 455.690858 
L 163.084195 452.795226 
L 166.089409 449.591646 
L 169.136362 446.016779 
L 172.266794 441.994541 
L 175.480703 437.498815 
L 178.903308 432.320327 
L 182.659825 426.218217 
L 187.084168 418.584738 
L 201.317196 393.655667 
L 204.28067 389.132911 
L 206.826754 385.643055 
L 209.080665 382.921183 
L 211.12588 380.790522 
L 213.004139 379.144866 
L 214.75718 377.895486 
L 216.426744 376.974756 
L 218.012829 376.350806 
L 219.557175 375.982372 
L 221.059782 375.852124 
L 222.562389 375.946658 
L 224.064996 376.263673 
L 225.609342 376.816891 
L 227.237166 377.642341 
L 228.948468 378.767522 
L 230.784988 380.252748 
L 232.746725 382.134519 
L 234.875418 384.490068 
L 237.254546 387.463104 
L 239.967586 391.222219 
L 243.181496 396.071206 
L 247.397143 402.861787 
L 261.504953 425.902732 
L 265.595383 431.978036 
L 269.310162 437.103236 
L 272.816245 441.568516 
L 276.19711 445.522063 
L 279.536237 449.08849 
L 282.833625 452.288945 
L 286.131012 455.18367 
L 289.470139 457.820997 
L 292.851005 460.210266 
L 296.315348 462.388156 
L 299.90491 464.381543 
L 303.619688 466.190043 
L 307.501423 467.83319 
L 311.633592 469.338244 
L 316.016196 470.695262 
L 320.732712 471.919934 
L 325.866619 473.019005 
L 331.501395 473.993547 
L 337.762258 474.847109 
L 344.899641 475.589897 
L 353.16398 476.219189 
L 362.972664 476.735948 
L 375.160476 477.145677 
L 391.146545 477.448131 
L 414.395214 477.647109 
L 456.092558 477.747773 
L 521.956831 477.767967 
L 521.956831 477.767967 
" style="fill:none;stroke:#1f77b4;stroke-linecap:square;"/>
   </g>
   <g id="line2d_38">
    <path clip-path="url(#p347340c08d)" d="M 104.60774 475.95085 
L 111.745123 475.233259 
L 117.880769 474.397531 
L 123.26511 473.444891 
L 128.106844 472.366639 
L 132.531187 471.155677 
L 136.579878 469.820768 
L 140.378134 468.336405 
L 143.967695 466.694482 
L 147.348561 464.905447 
L 150.60421 462.932091 
L 153.734641 460.7766 
L 156.781594 458.411262 
L 159.786808 455.797244 
L 162.750283 452.925461 
L 165.713758 449.743347 
L 168.718972 446.184246 
L 171.765925 442.223711 
L 174.896356 437.782258 
L 178.152004 432.770945 
L 181.658087 426.955294 
L 185.581561 420.002013 
L 190.63199 410.563074 
L 199.898067 393.177518 
L 203.237193 387.44164 
L 205.991973 383.139216 
L 208.371101 379.824844 
L 210.499794 377.23094 
L 212.419792 375.228904 
L 214.214572 373.67183 
L 215.884135 372.512792 
L 217.470221 371.681174 
L 218.972828 371.142436 
L 220.433696 370.854983 
L 221.852824 370.800439 
L 223.271953 370.966982 
L 224.732821 371.367041 
L 226.235428 372.015942 
L 227.779774 372.926619 
L 229.449337 374.178063 
L 231.202379 375.774758 
L 233.122377 377.832514 
L 235.209331 380.40213 
L 237.54672 383.642051 
L 240.218021 387.73686 
L 243.43193 393.089848 
L 247.772795 400.790213 
L 259.626694 422.035411 
L 263.675386 428.712273 
L 267.306686 434.282179 
L 270.729291 439.130976 
L 274.026678 443.419649 
L 277.240588 447.237363 
L 280.412758 450.662427 
L 283.584928 453.760305 
L 286.757098 456.548706 
L 289.971008 459.079 
L 293.268395 461.390225 
L 296.649261 463.486355 
L 300.155344 465.395647 
L 303.786644 467.119225 
L 307.62664 468.693328 
L 311.675331 470.111254 
L 316.016196 471.394017 
L 320.690973 472.542252 
L 325.82488 473.571186 
L 331.501395 474.478422 
L 337.887475 475.269637 
L 345.233554 475.94947 
L 353.831805 476.515521 
L 364.308315 476.973872 
L 377.664821 477.324482 
L 396.071757 477.569859 
L 425.414332 477.713867 
L 493.073386 477.766462 
L 521.956831 477.768539 
L 521.956831 477.768539 
" style="fill:none;stroke:#ff7f0e;stroke-linecap:square;"/>
   </g>
   <g id="line2d_39">
    <path clip-path="url(#p347340c08d)" d="M 104.60774 475.95085 
L 111.703384 475.236824 
L 117.839029 474.40013 
L 123.223371 473.445081 
L 128.023366 472.372794 
L 132.405969 471.169621 
L 136.45466 469.829171 
L 140.211178 468.353084 
L 143.759 466.720172 
L 147.098127 464.94036 
L 150.312036 462.975319 
L 153.400728 460.826071 
L 156.405942 458.463022 
L 159.327678 455.883562 
L 162.207675 453.04535 
L 165.087671 449.891592 
L 167.967668 446.402243 
L 170.847665 442.560477 
L 173.769401 438.290601 
L 176.774615 433.501737 
L 179.905046 428.090248 
L 183.244173 421.865682 
L 186.958951 414.453269 
L 191.466772 404.93178 
L 202.903281 380.514519 
L 205.908495 374.776041 
L 208.41284 370.457602 
L 210.583272 367.140747 
L 212.545009 364.538453 
L 214.29805 362.566909 
L 215.925875 361.059721 
L 217.428482 359.961252 
L 218.84761 359.192769 
L 220.183261 358.715083 
L 221.477173 358.483632 
L 222.771084 358.482026 
L 224.064996 358.710666 
L 225.358907 359.168175 
L 226.694558 359.877155 
L 228.113687 360.887933 
L 229.616294 362.237717 
L 231.244118 364.009464 
L 232.99716 366.255023 
L 234.917157 369.082661 
L 237.08759 372.690909 
L 239.550196 377.233383 
L 242.51367 383.194055 
L 246.437144 391.631677 
L 258.458 417.82129 
L 262.131039 425.109801 
L 265.470166 431.251215 
L 268.600597 436.550767 
L 271.605811 441.208049 
L 274.527547 445.333184 
L 277.407544 449.021081 
L 280.287541 452.349819 
L 283.167537 455.33998 
L 286.047534 458.014755 
L 289.011009 460.463674 
L 292.016223 462.660345 
L 295.146654 464.671249 
L 298.360564 466.472476 
L 301.741429 468.112483 
L 305.33099 469.603564 
L 309.129247 470.939026 
L 313.219677 472.140041 
L 317.685759 473.216272 
L 322.610971 474.169851 
L 328.12053 475.004703 
L 334.381392 475.722961 
L 341.685732 476.330071 
L 350.450939 476.826768 
L 361.386579 477.214004 
L 375.995258 477.495682 
L 397.866537 477.674584 
L 440.023011 477.757099 
L 521.956831 477.769131 
L 521.956831 477.769131 
" style="fill:none;stroke:#2ca02c;stroke-linecap:square;"/>
   </g>
   <g id="line2d_40">
    <path clip-path="url(#p347340c08d)" d="M 104.60774 475.95085 
L 111.661645 475.237952 
L 117.713812 474.408785 
L 123.056415 473.455777 
L 127.81467 472.384182 
L 132.113796 471.191927 
L 136.079009 469.863445 
L 139.752048 468.399382 
L 143.174653 466.797898 
L 146.430301 465.028315 
L 149.518993 463.094995 
L 152.482468 460.975367 
L 155.320726 458.671533 
L 158.075505 456.14908 
L 160.788546 453.358683 
L 163.418108 450.334307 
L 166.005931 447.021064 
L 168.593754 443.343984 
L 171.181578 439.273323 
L 173.769401 434.779939 
L 176.357224 429.836423 
L 178.986786 424.327196 
L 181.658087 418.208544 
L 184.412867 411.334709 
L 187.292864 403.536121 
L 190.339817 394.627681 
L 193.678943 384.159518 
L 197.685895 370.824588 
L 208.746752 333.529335 
L 211.292836 326.010067 
L 213.379791 320.51062 
L 215.174571 316.376757 
L 216.760656 313.256739 
L 218.179785 310.938172 
L 219.431958 309.294477 
L 220.558913 308.157202 
L 221.60239 307.40607 
L 222.562389 306.979826 
L 223.480649 306.815199 
L 224.357169 306.883389 
L 225.23369 307.173922 
L 226.15195 307.717882 
L 227.111949 308.54844 
L 228.155426 309.75254 
L 229.282381 311.399979 
L 230.534554 313.641982 
L 231.911943 316.588368 
L 233.41455 320.342759 
L 235.125853 325.247699 
L 237.045851 331.453758 
L 239.299761 339.524181 
L 242.138019 350.572669 
L 246.771057 369.662927 
L 252.030181 391.058488 
L 255.28583 403.372087 
L 258.124088 413.253427 
L 260.711911 421.478364 
L 263.174517 428.578929 
L 265.553644 434.765696 
L 267.849294 440.125592 
L 270.103204 444.832838 
L 272.315376 448.950911 
L 274.527547 452.608026 
L 276.739719 455.842303 
L 278.95189 458.692258 
L 281.2058 461.239754 
L 283.50145 463.504019 
L 285.880578 465.538864 
L 288.343184 467.351651 
L 290.931007 468.977067 
L 293.644047 470.416697 
L 296.524044 471.693419 
L 299.654475 472.835346 
L 303.07708 473.843063 
L 306.875336 474.724812 
L 311.174462 475.488224 
L 316.099674 476.131838 
L 321.943145 476.665142 
L 329.164007 477.091316 
L 338.555301 477.410044 
L 351.953546 477.624247 
L 374.951781 477.738779 
L 443.320399 477.769063 
L 521.956831 477.76936 
L 521.956831 477.76936 
" style="fill:none;stroke:#d62728;stroke-linecap:square;"/>
   </g>
   <g id="patch_13">
    <path d="M 83.740286 486.317271 
L 83.740286 295.918173 
" style="fill:none;stroke:#000000;stroke-linecap:square;stroke-linejoin:miter;stroke-width:0.8;"/>
   </g>
   <g id="patch_14">
    <path d="M 542.824286 486.317271 
L 542.824286 295.918173 
" style="fill:none;stroke:#000000;stroke-linecap:square;stroke-linejoin:miter;stroke-width:0.8;"/>
   </g>
   <g id="patch_15">
    <path d="M 83.740286 486.317271 
L 542.824286 486.317271 
" style="fill:none;stroke:#000000;stroke-linecap:square;stroke-linejoin:miter;stroke-width:0.8;"/>
   </g>
   <g id="patch_16">
    <path d="M 83.740286 295.918173 
L 542.824286 295.918173 
" style="fill:none;stroke:#000000;stroke-linecap:square;stroke-linejoin:miter;stroke-width:0.8;"/>
   </g>
   <g id="text_37">
    <!-- (c) $P_{I_2}$ -->
    <defs>
     <path d="M 38.5 39.6875 
C 38.5 40.390625 33.90625 42.390625 32.703125 42.796875 
C 29.40625 44 25.203125 44 24.09375 44 
C 11.09375 44 3.296875 32.6875 3.296875 21.296875 
C 3.296875 9.296875 12 -1 23.703125 -1 
C 30.40625 -1 35.203125 1.1875 39.09375 3.796875 
L 38.5 10.390625 
C 34.203125 7.09375 29.203125 5.296875 23.796875 5.296875 
C 16 5.296875 10.90625 12.09375 10.90625 21.390625 
C 10.90625 28.59375 14.203125 37.6875 24.203125 37.6875 
C 29.703125 37.6875 32.796875 36.59375 37.40625 33.484375 
z
" id="CMSS17-99"/>
    </defs>
    <g transform="translate(289.492781 289.918173)scale(0.18 -0.18)">
     <use transform="translate(0 25.404611)scale(0.996264)" xlink:href="#CMSS17-40"/>
     <use transform="translate(36.433914 25.404611)scale(0.996264)" xlink:href="#CMSS17-99"/>
     <use transform="translate(78.072736 25.404611)scale(0.996264)" xlink:href="#CMSS17-41"/>
     <use transform="translate(145.735763 25.404611)scale(0.996264)" xlink:href="#CMMI12-80"/>
     <use transform="translate(208.612995 10.460696)scale(0.697382)" xlink:href="#CMMI12-73"/>
     <use transform="translate(238.729779 0)scale(0.498132)" xlink:href="#CMR17-50"/>
    </g>
   </g>
  </g>
  <g id="axes_4">
   <g id="patch_17">
    <path d="M 610.116 486.317271 
L 1069.2 486.317271 
L 1069.2 295.918173 
L 610.116 295.918173 
z
" style="fill:#ffffff;"/>
   </g>
   <g id="matplotlib.axis_7">
    <g id="xtick_13">
     <g id="line2d_41">
      <g>
       <use style="stroke:#000000;stroke-width:0.8;" x="630.983454" xlink:href="#m266c51556c" y="486.317271"/>
      </g>
     </g>
     <g id="text_38">
      <!-- $0$ -->
      <g transform="translate(626.871311 505.770572)scale(0.18 -0.18)">
       <use transform="scale(0.996264)" xlink:href="#CMR17-48"/>
      </g>
     </g>
    </g>
    <g id="xtick_14">
     <g id="line2d_42">
      <g>
       <use style="stroke:#000000;stroke-width:0.8;" x="770.099818" xlink:href="#m266c51556c" y="486.317271"/>
      </g>
     </g>
     <g id="text_39">
      <!-- $10$ -->
      <g transform="translate(761.875532 505.770572)scale(0.18 -0.18)">
       <use transform="scale(0.996264)" xlink:href="#CMR17-49"/>
       <use transform="translate(45.690477 0)scale(0.996264)" xlink:href="#CMR17-48"/>
      </g>
     </g>
    </g>
    <g id="xtick_15">
     <g id="line2d_43">
      <g>
       <use style="stroke:#000000;stroke-width:0.8;" x="909.216182" xlink:href="#m266c51556c" y="486.317271"/>
      </g>
     </g>
     <g id="text_40">
      <!-- $20$ -->
      <g transform="translate(900.991896 505.770572)scale(0.18 -0.18)">
       <use transform="scale(0.996264)" xlink:href="#CMR17-50"/>
       <use transform="translate(45.690477 0)scale(0.996264)" xlink:href="#CMR17-48"/>
      </g>
     </g>
    </g>
    <g id="xtick_16">
     <g id="line2d_44">
      <g>
       <use style="stroke:#000000;stroke-width:0.8;" x="1048.332545" xlink:href="#m266c51556c" y="486.317271"/>
      </g>
     </g>
     <g id="text_41">
      <!-- $30$ -->
      <g transform="translate(1040.10826 505.770572)scale(0.18 -0.18)">
       <use transform="scale(0.996264)" xlink:href="#CMR17-51"/>
       <use transform="translate(45.690477 0)scale(0.996264)" xlink:href="#CMR17-48"/>
      </g>
     </g>
    </g>
    <g id="text_42">
     <!-- time -->
     <g transform="translate(824.18878 525.711936)scale(0.18 -0.18)">
      <use transform="scale(0.996264)" xlink:href="#CMSS17-116"/>
      <use transform="translate(33.831567 0)scale(0.996264)" xlink:href="#CMSS17-105"/>
      <use transform="translate(56.01229 0)scale(0.996264)" xlink:href="#CMSS17-109"/>
      <use transform="translate(130.241544 0)scale(0.996264)" xlink:href="#CMSS17-101"/>
     </g>
    </g>
   </g>
   <g id="matplotlib.axis_8">
    <g id="ytick_17">
     <g id="line2d_45">
      <g>
       <use style="stroke:#000000;stroke-width:0.8;" x="610.116" xlink:href="#m8550dcb52c" y="477.662767"/>
      </g>
     </g>
     <g id="text_43">
      <!-- $0.00$ -->
      <g transform="translate(573.56565 483.889417)scale(0.18 -0.18)">
       <use transform="scale(0.996264)" xlink:href="#CMR17-48"/>
       <use transform="translate(45.690477 0)scale(0.996264)" xlink:href="#CMMI12-58"/>
       <use transform="translate(72.787654 0)scale(0.996264)" xlink:href="#CMR17-48"/>
       <use transform="translate(118.478131 0)scale(0.996264)" xlink:href="#CMR17-48"/>
      </g>
     </g>
    </g>
    <g id="ytick_18">
     <g id="line2d_46">
      <g>
       <use style="stroke:#000000;stroke-width:0.8;" x="610.116" xlink:href="#m8550dcb52c" y="444.2316"/>
      </g>
     </g>
     <g id="text_44">
      <!-- $0.05$ -->
      <g transform="translate(573.56565 450.45825)scale(0.18 -0.18)">
       <use transform="scale(0.996264)" xlink:href="#CMR17-48"/>
       <use transform="translate(45.690477 0)scale(0.996264)" xlink:href="#CMMI12-58"/>
       <use transform="translate(72.787654 0)scale(0.996264)" xlink:href="#CMR17-48"/>
       <use transform="translate(118.478131 0)scale(0.996264)" xlink:href="#CMR17-53"/>
      </g>
     </g>
    </g>
    <g id="ytick_19">
     <g id="line2d_47">
      <g>
       <use style="stroke:#000000;stroke-width:0.8;" x="610.116" xlink:href="#m8550dcb52c" y="410.800432"/>
      </g>
     </g>
     <g id="text_45">
      <!-- $0.10$ -->
      <g transform="translate(573.56565 417.027083)scale(0.18 -0.18)">
       <use transform="scale(0.996264)" xlink:href="#CMR17-48"/>
       <use transform="translate(45.690477 0)scale(0.996264)" xlink:href="#CMMI12-58"/>
       <use transform="translate(72.787654 0)scale(0.996264)" xlink:href="#CMR17-49"/>
       <use transform="translate(118.478131 0)scale(0.996264)" xlink:href="#CMR17-48"/>
      </g>
     </g>
    </g>
    <g id="ytick_20">
     <g id="line2d_48">
      <g>
       <use style="stroke:#000000;stroke-width:0.8;" x="610.116" xlink:href="#m8550dcb52c" y="377.369265"/>
      </g>
     </g>
     <g id="text_46">
      <!-- $0.15$ -->
      <g transform="translate(573.56565 383.595915)scale(0.18 -0.18)">
       <use transform="scale(0.996264)" xlink:href="#CMR17-48"/>
       <use transform="translate(45.690477 0)scale(0.996264)" xlink:href="#CMMI12-58"/>
       <use transform="translate(72.787654 0)scale(0.996264)" xlink:href="#CMR17-49"/>
       <use transform="translate(118.478131 0)scale(0.996264)" xlink:href="#CMR17-53"/>
      </g>
     </g>
    </g>
    <g id="ytick_21">
     <g id="line2d_49">
      <g>
       <use style="stroke:#000000;stroke-width:0.8;" x="610.116" xlink:href="#m8550dcb52c" y="343.938098"/>
      </g>
     </g>
     <g id="text_47">
      <!-- $0.20$ -->
      <g transform="translate(573.56565 350.164748)scale(0.18 -0.18)">
       <use transform="scale(0.996264)" xlink:href="#CMR17-48"/>
       <use transform="translate(45.690477 0)scale(0.996264)" xlink:href="#CMMI12-58"/>
       <use transform="translate(72.787654 0)scale(0.996264)" xlink:href="#CMR17-50"/>
       <use transform="translate(118.478131 0)scale(0.996264)" xlink:href="#CMR17-48"/>
      </g>
     </g>
    </g>
    <g id="ytick_22">
     <g id="line2d_50">
      <g>
       <use style="stroke:#000000;stroke-width:0.8;" x="610.116" xlink:href="#m8550dcb52c" y="310.506931"/>
      </g>
     </g>
     <g id="text_48">
      <!-- $0.25$ -->
      <g transform="translate(573.56565 316.733581)scale(0.18 -0.18)">
       <use transform="scale(0.996264)" xlink:href="#CMR17-48"/>
       <use transform="translate(45.690477 0)scale(0.996264)" xlink:href="#CMMI12-58"/>
       <use transform="translate(72.787654 0)scale(0.996264)" xlink:href="#CMR17-50"/>
       <use transform="translate(118.478131 0)scale(0.996264)" xlink:href="#CMR17-53"/>
      </g>
     </g>
    </g>
    <g id="text_49">
     <!-- $P_R$ -->
     <g transform="translate(566.077586 401.454448)rotate(-90)scale(0.18 -0.18)">
      <use transform="translate(0 14.943915)scale(0.996264)" xlink:href="#CMMI12-80"/>
      <use transform="translate(62.877232 0)scale(0.697382)" xlink:href="#CMMI12-82"/>
     </g>
    </g>
   </g>
   <g id="line2d_51">
    <path clip-path="url(#pcb71bc4d7c)" d="M 630.983454 477.662767 
L 643.171266 477.22917 
L 652.604299 476.678467 
L 660.32603 476.012054 
L 666.920805 475.22574 
L 672.722537 474.313753 
L 677.898184 473.278477 
L 682.6147 472.110745 
L 686.955565 470.809537 
L 691.004256 469.366799 
L 694.844251 467.763851 
L 698.517291 465.989475 
L 702.065113 464.026968 
L 705.487717 461.880493 
L 708.868583 459.497111 
L 712.20771 456.870824 
L 715.546836 453.961961 
L 718.927702 450.721532 
L 722.392046 447.091763 
L 726.023346 442.9585 
L 729.863342 438.242647 
L 734.03725 432.756917 
L 738.878984 426.010619 
L 745.348542 416.580045 
L 757.578093 398.700453 
L 762.628522 391.761732 
L 766.969387 386.165296 
L 770.976339 381.35507 
L 774.774595 377.138433 
L 778.447635 373.390737 
L 782.037196 370.043813 
L 785.585018 367.037373 
L 789.13284 364.320449 
L 792.722401 361.851653 
L 796.353701 359.622884 
L 800.06848 357.601707 
L 803.908475 355.763904 
L 807.915427 354.09222 
L 812.131075 352.575026 
L 816.597156 351.204918 
L 821.397151 349.967495 
L 826.572797 348.864899 
L 832.249313 347.885392 
L 838.593653 347.021315 
L 845.731036 346.27813 
L 853.995375 345.646724 
L 863.845798 345.125197 
L 875.991872 344.714111 
L 891.936201 344.409435 
L 915.059653 344.208709 
L 956.297867 344.106661 
L 1048.332545 344.084742 
L 1048.332545 344.084742 
" style="fill:none;stroke:#1f77b4;stroke-linecap:square;"/>
   </g>
   <g id="line2d_52">
    <path clip-path="url(#pcb71bc4d7c)" d="M 630.983454 477.662767 
L 643.129527 477.231008 
L 652.56256 476.680925 
L 660.284291 476.014796 
L 666.879066 475.228161 
L 672.639059 474.322365 
L 677.814705 473.286414 
L 682.489483 472.127861 
L 686.830347 470.8246 
L 690.879038 469.377278 
L 694.677295 467.785287 
L 698.308595 466.02335 
L 701.814678 464.074204 
L 705.195544 461.941331 
L 708.534671 459.570475 
L 711.832058 456.95419 
L 715.129446 454.050593 
L 718.426833 450.850044 
L 721.807699 447.255914 
L 725.313782 443.197774 
L 728.986821 438.599618 
L 732.952034 433.270098 
L 737.376377 426.940592 
L 742.844197 418.707218 
L 760.541568 391.742108 
L 765.00765 385.528722 
L 769.014602 380.325557 
L 772.771119 375.805411 
L 776.36068 371.828511 
L 779.866763 368.273477 
L 783.289368 365.114895 
L 786.711973 362.256017 
L 790.134578 359.683842 
L 793.598922 357.355512 
L 797.146744 355.237964 
L 800.819783 353.306849 
L 804.61804 351.563094 
L 808.583253 349.98829 
L 812.757161 348.569693 
L 817.223243 347.287762 
L 822.064976 346.133327 
L 827.324101 345.111533 
L 833.125833 344.213635 
L 839.678869 343.429427 
L 847.191904 342.760557 
L 856.04059 342.203648 
L 866.809273 341.757508 
L 880.62491 341.418939 
L 899.908366 341.185194 
L 931.421374 341.052508 
L 1010.308241 341.008986 
L 1048.332545 341.007821 
L 1048.332545 341.007821 
" style="fill:none;stroke:#ff7f0e;stroke-linecap:square;"/>
   </g>
   <g id="line2d_53">
    <path clip-path="url(#pcb71bc4d7c)" d="M 630.983454 477.662767 
L 643.129527 477.230784 
L 652.520821 476.682771 
L 660.242551 476.015817 
L 666.795587 475.2326 
L 672.555581 474.32395 
L 677.689488 473.29169 
L 682.322526 472.137317 
L 686.579913 470.85191 
L 690.545126 469.426656 
L 694.301643 467.841631 
L 697.849465 466.105859 
L 701.27207 464.184645 
L 704.569458 462.08009 
L 707.783367 459.767081 
L 710.955537 457.21079 
L 714.127708 454.36534 
L 717.299878 451.216234 
L 720.513787 447.705602 
L 723.769436 443.816189 
L 727.150302 439.42548 
L 730.698124 434.44773 
L 734.538119 428.667535 
L 738.837245 421.783094 
L 744.179847 412.784425 
L 759.915482 386.001749 
L 764.214607 379.291152 
L 768.012864 373.762447 
L 771.560686 368.983317 
L 774.941552 364.797911 
L 778.1972 361.115931 
L 781.411109 357.814976 
L 784.58328 354.873726 
L 787.75545 352.233686 
L 790.969359 349.848362 
L 794.225008 347.708093 
L 797.564135 345.777616 
L 801.028479 344.031222 
L 804.659779 342.451113 
L 808.499774 341.025707 
L 812.590205 339.747913 
L 816.972808 338.613418 
L 821.772803 337.603327 
L 827.073666 336.718083 
L 833.042355 335.950379 
L 839.929304 335.294723 
L 848.068425 334.751111 
L 858.044066 334.3175 
L 870.941443 333.991861 
L 889.181422 333.771153 
L 919.943126 333.650639 
L 1005.758681 333.616196 
L 1048.332545 333.61572 
L 1048.332545 333.61572 
" style="fill:none;stroke:#2ca02c;stroke-linecap:square;"/>
   </g>
   <g id="line2d_54">
    <path clip-path="url(#pcb71bc4d7c)" d="M 630.983454 477.662767 
L 643.087788 477.232097 
L 652.437343 476.685538 
L 660.075595 476.02383 
L 666.586892 475.24164 
L 672.263407 474.339034 
L 677.272097 473.322091 
L 681.821657 472.174237 
L 685.953827 470.906328 
L 689.793822 469.498399 
L 693.383383 467.947441 
L 696.764249 466.24655 
L 699.978158 464.382967 
L 703.066851 462.336056 
L 706.072065 460.075165 
L 708.9938 457.594886 
L 711.832058 454.892987 
L 714.628577 451.924241 
L 717.425095 448.627728 
L 720.221614 444.981757 
L 723.018132 440.967524 
L 725.85639 436.502023 
L 728.778126 431.484369 
L 731.825079 425.79711 
L 734.997249 419.398058 
L 738.461593 411.893921 
L 742.385067 402.840087 
L 747.393757 390.677549 
L 758.579831 363.328936 
L 762.378088 354.749118 
L 765.633736 347.923614 
L 768.63895 342.13017 
L 771.435469 337.212011 
L 774.10677 332.953475 
L 776.694593 329.236964 
L 779.240677 325.963203 
L 781.745022 323.097094 
L 784.249367 320.560942 
L 786.795451 318.295744 
L 789.383274 316.288898 
L 792.054576 314.498662 
L 794.809355 312.918362 
L 797.731091 311.500408 
L 800.819783 310.250194 
L 804.15891 309.141619 
L 807.79021 308.173092 
L 811.838901 307.327885 
L 816.4302 306.602965 
L 821.731064 305.997184 
L 828.075404 305.503117 
L 836.00583 305.118042 
L 846.607557 304.839218 
L 862.551887 304.663329 
L 893.647504 304.583721 
L 1048.332545 304.572678 
L 1048.332545 304.572678 
" style="fill:none;stroke:#d62728;stroke-linecap:square;"/>
   </g>
   <g id="patch_18">
    <path d="M 610.116 486.317271 
L 610.116 295.918173 
" style="fill:none;stroke:#000000;stroke-linecap:square;stroke-linejoin:miter;stroke-width:0.8;"/>
   </g>
   <g id="patch_19">
    <path d="M 1069.2 486.317271 
L 1069.2 295.918173 
" style="fill:none;stroke:#000000;stroke-linecap:square;stroke-linejoin:miter;stroke-width:0.8;"/>
   </g>
   <g id="patch_20">
    <path d="M 610.116 486.317271 
L 1069.2 486.317271 
" style="fill:none;stroke:#000000;stroke-linecap:square;stroke-linejoin:miter;stroke-width:0.8;"/>
   </g>
   <g id="patch_21">
    <path d="M 610.116 295.918173 
L 1069.2 295.918173 
" style="fill:none;stroke:#000000;stroke-linecap:square;stroke-linejoin:miter;stroke-width:0.8;"/>
   </g>
   <g id="text_50">
    <!-- (d) $P_{R_2}$ -->
    <defs>
     <path d="M 40.796875 69 
L 33.40625 69 
L 33.40625 38.984375 
C 30.296875 41.59375 25.203125 44 19.59375 44 
C 10.5 44 3.296875 34.046875 3.296875 21.484375 
C 3.296875 8.9375 10.40625 -1 19.296875 -1 
C 26.203125 -1 30.796875 2.6875 33.203125 4.796875 
L 33.203125 -0.203125 
L 40.796875 -0.203125 
z
M 33.203125 13.296875 
C 33.203125 11.875 33.203125 10.359375 30.09375 7.625 
C 28.09375 5.90625 25.703125 5.09375 23.40625 5.09375 
C 18 5.09375 10.90625 9.140625 10.90625 21.390625 
C 10.90625 34.140625 18.90625 37.890625 24.40625 37.890625 
C 28.09375 37.890625 31.09375 36.0625 33.203125 33.03125 
z
" id="CMSS17-100"/>
    </defs>
    <g transform="translate(813.310271 289.918173)scale(0.18 -0.18)">
     <use transform="translate(0 25.404611)scale(0.996264)" xlink:href="#CMSS17-40"/>
     <use transform="translate(36.433914 25.404611)scale(0.996264)" xlink:href="#CMSS17-100"/>
     <use transform="translate(84.638857 25.404611)scale(0.996264)" xlink:href="#CMSS17-41"/>
     <use transform="translate(152.301884 25.404611)scale(0.996264)" xlink:href="#CMMI12-80"/>
     <use transform="translate(215.179117 10.460696)scale(0.697382)" xlink:href="#CMMI12-82"/>
     <use transform="translate(267.154467 0)scale(0.498132)" xlink:href="#CMR17-50"/>
    </g>
   </g>
  </g>
  <g id="legend_1">
   <g id="patch_22">
    <path d="M 942.8 216 
L 1048.775564 216 
Q 1051.975564 216 1051.975564 212.8 
L 1051.975564 118.639529 
Q 1051.975564 115.439529 1048.775564 115.439529 
L 942.8 115.439529 
Q 939.6 115.439529 939.6 118.639529 
L 939.6 212.8 
Q 939.6 216 942.8 216 
z
" style="fill:#ffffff;opacity:0.8;stroke:#cccccc;stroke-linejoin:miter;"/>
   </g>
   <g id="line2d_55">
    <path d="M 946 129.080171 
L 978 129.080171 
" style="fill:none;stroke:#1f77b4;stroke-linecap:square;"/>
   </g>
   <g id="line2d_56"/>
   <g id="text_51">
    <!-- $\beta_2'$=2 -->
    <defs>
     <path d="M 56.59375 58.421875 
C 56.59375 64.546875 51.5 71 42.40625 71 
C 29.5 71 21.296875 54.84375 18.703125 44.21875 
L 2.90625 -18 
C 2.703125 -18.8125 3.296875 -19 3.796875 -19 
C 4.5 -19 5 -18.90625 5.09375 -18.40625 
L 12.09375 9.25 
C 13.09375 3.609375 18.59375 -1 24.5 -1 
C 38.796875 -1 52.296875 10.265625 52.296875 25.28125 
C 52.296875 29.109375 51.40625 32.9375 49.296875 36.15625 
C 48.09375 38.078125 46.59375 39.484375 45 40.609375 
C 52.203125 44.109375 56.59375 50.34375 56.59375 58.421875 
z
M 39.203125 40.703125 
C 37.59375 40.171875 36 40 34.09375 40 
C 32.703125 40 31.40625 39.890625 29.59375 40.4375 
C 30.59375 41.046875 32.09375 41.234375 34.203125 41.234375 
C 36 41.234375 37.796875 41.046875 39.203125 40.703125 
z
M 51.40625 59.34375 
C 51.40625 53.71875 48.703125 45.546875 42.203125 41.9375 
C 40.296875 42.546875 37.703125 43 35.5 43 
C 33.40625 43 27.40625 43.203125 27.40625 40.34375 
C 27.40625 37.671875 32.90625 37.96875 34.59375 37.96875 
C 37.203125 37.96875 39.5 38.578125 41.90625 39.28125 
C 45.09375 36.671875 46.5 33.234375 46.5 28.203125 
C 46.5 22.359375 44.90625 17.625 43 13.28125 
C 39.703125 5.828125 31.90625 1 25 1 
C 17.703125 1 13.90625 6.84375 13.90625 13.6875 
C 13.90625 14.59375 13.90625 15.90625 14.296875 17.421875 
L 20.796875 43.5 
C 24.09375 56.890625 32.5 68.953125 42.203125 68.953125 
C 49.40625 68.953125 51.40625 63.84375 51.40625 59.34375 
z
" id="CMMI12-12"/>
     <path d="M 25.296875 47.625 
C 25.796875 48.828125 26.203125 49.71875 26.203125 50.71875 
C 26.203125 53.59375 23.59375 56 20.5 56 
C 17.703125 56 15.90625 54.09375 15.203125 51.515625 
L 3.296875 8.078125 
C 3.296875 7.890625 2.90625 6.796875 2.90625 6.6875 
C 2.90625 5.59375 5.5 4.890625 6.296875 4.890625 
C 6.90625 4.890625 7 5.1875 7.59375 6.484375 
z
" id="CMSY10-48"/>
     <path d="M 64.796875 32 
C 66.296875 32 67.796875 32 67.796875 33.6875 
C 67.796875 35.5 66.09375 35.5 64.40625 35.5 
L 8.59375 35.5 
C 6.90625 35.5 5.203125 35.5 5.203125 33.6875 
C 5.203125 32 6.703125 32 8.203125 32 
z
M 64.40625 14.484375 
C 66.09375 14.484375 67.796875 14.484375 67.796875 16.296875 
C 67.796875 18 66.296875 18 64.796875 18 
L 8.203125 18 
C 6.703125 18 5.203125 18 5.203125 16.296875 
C 5.203125 14.484375 6.90625 14.484375 8.59375 14.484375 
z
" id="CMSS17-61"/>
     <path d="M 25.796875 21.140625 
C 28.59375 24.03125 32.796875 27.515625 35.703125 31 
C 38.5 34.390625 42.203125 39.171875 42.203125 46.140625 
C 42.203125 57.109375 34.796875 67 22.203125 67 
C 12.296875 67 6.59375 60.796875 3.90625 51.125 
L 7.796875 45.75 
C 10 54.8125 13.09375 60.59375 20.90625 60.59375 
C 29.5 60.59375 34.296875 53.609375 34.296875 45.9375 
C 34.296875 36.78125 27.296875 29.703125 22 24.421875 
C 16.09375 18.546875 10.296875 12.578125 4.703125 6.390625 
L 4.703125 0 
L 42.203125 0 
L 42.203125 6.796875 
L 25.203125 6.796875 
C 24 6.796875 22.796875 6.6875 21.59375 6.6875 
L 11.59375 6.6875 
L 11.59375 6.796875 
z
" id="CMSS17-50"/>
    </defs>
    <g transform="translate(990.8 134.680171)scale(0.16 -0.16)">
     <use transform="translate(0 24.740171)scale(0.996264)" xlink:href="#CMMI12-12"/>
     <use transform="translate(60.594016 60.89381)scale(0.697382)" xlink:href="#CMSY10-48"/>
     <use transform="translate(55.070737 0)scale(0.697382)" xlink:href="#CMR17-50"/>
     <use transform="translate(87.552051 24.740171)scale(0.996264)" xlink:href="#CMSS17-61"/>
     <use transform="translate(160.419986 24.740171)scale(0.996264)" xlink:href="#CMSS17-50"/>
    </g>
   </g>
   <g id="line2d_57">
    <path d="M 946 153.020288 
L 978 153.020288 
" style="fill:none;stroke:#ff7f0e;stroke-linecap:square;"/>
   </g>
   <g id="line2d_58"/>
   <g id="text_52">
    <!-- $\beta_2'$=6.15 -->
    <defs>
     <path d="M 39 64.984375 
C 34.796875 66.6875 31.796875 67 29 67 
C 16 67 3.90625 53.25 3.90625 31.609375 
C 3.90625 4.1875 15.40625 -2 23.59375 -2 
C 28.09375 -2 32.59375 -0.609375 36.90625 4.390625 
C 41.296875 9.671875 43 14.0625 43 21.75 
C 43 34.109375 36.90625 45.09375 27.796875 45.09375 
C 21.203125 45.09375 15.5 41.59375 12 37.203125 
C 13 51.40625 19.59375 60.890625 29.09375 60.890625 
C 31.703125 60.890625 35.09375 60.484375 39 58.75 
z
M 12.09375 21.4375 
C 12.09375 22.234375 12.09375 22.734375 12.203125 24.234375 
C 12.203125 32.015625 16.703125 39 24 39 
C 28.703125 39 31.09375 36.5 32.90625 33.40625 
C 35 29.515625 35.09375 25.828125 35.09375 21.75 
C 35.09375 17.859375 35.09375 13.96875 32.796875 9.96875 
C 30.90625 6.890625 28.40625 4.1875 23.59375 4.1875 
C 14.09375 4.1875 12.5 17.453125 12.09375 21.4375 
z
" id="CMSS17-54"/>
     <path d="M 17 8 
L 9 8 
L 9 0 
L 17 0 
z
" id="CMSS17-46"/>
     <path d="M 28.40625 67 
L 26.5 67 
C 21.09375 61.703125 14.796875 60.96875 8.40625 60.796875 
L 8.40625 55 
C 11.296875 55.09375 16 55.296875 20.703125 57.390625 
L 20.703125 5.796875 
L 8.90625 5.796875 
L 8.90625 0 
L 40.203125 0 
L 40.203125 5.796875 
L 28.40625 5.796875 
z
" id="CMSS17-49"/>
     <path d="M 14.59375 59.59375 
L 39.09375 59.59375 
L 39.09375 66 
L 7.296875 66 
L 7.296875 28.59375 
L 14 28.59375 
C 15.796875 32.859375 19.5 36 24.296875 36 
C 28.796875 36 33.796875 31.9375 33.796875 20.296875 
C 33.796875 7.84375 26.703125 4.1875 21.5 4.1875 
C 15.09375 4.1875 9.203125 8.140625 6.59375 13.609375 
L 3.40625 7.9375 
C 8 0.796875 15.5 -2 21.5 -2 
C 33.09375 -2 42.203125 7.9375 42.203125 20.09375 
C 42.203125 32.546875 34.09375 42.09375 24.40625 42.09375 
C 20.90625 42.09375 17.5 40.890625 14.59375 38.5 
z
" id="CMSS17-53"/>
    </defs>
    <g transform="translate(990.8 158.620288)scale(0.16 -0.16)">
     <use transform="translate(0 24.740171)scale(0.996264)" xlink:href="#CMMI12-12"/>
     <use transform="translate(60.594016 60.89381)scale(0.697382)" xlink:href="#CMSY10-48"/>
     <use transform="translate(55.070737 0)scale(0.697382)" xlink:href="#CMR17-50"/>
     <use transform="translate(87.552051 24.740171)scale(0.996264)" xlink:href="#CMSS17-61"/>
     <use transform="translate(160.419986 24.740171)scale(0.996264)" xlink:href="#CMSS17-54"/>
     <use transform="translate(207.263609 24.740171)scale(0.996264)" xlink:href="#CMSS17-46"/>
     <use transform="translate(233.287814 24.740171)scale(0.996264)" xlink:href="#CMSS17-49"/>
     <use transform="translate(280.131438 24.740171)scale(0.996264)" xlink:href="#CMSS17-53"/>
    </g>
   </g>
   <g id="line2d_59">
    <path d="M 946 176.960406 
L 978 176.960406 
" style="fill:none;stroke:#2ca02c;stroke-linecap:square;"/>
   </g>
   <g id="line2d_60"/>
   <g id="text_53">
    <!-- $\beta_2'$=15 -->
    <g transform="translate(990.8 182.560406)scale(0.16 -0.16)">
     <use transform="translate(0 24.740171)scale(0.996264)" xlink:href="#CMMI12-12"/>
     <use transform="translate(60.594016 60.89381)scale(0.697382)" xlink:href="#CMSY10-48"/>
     <use transform="translate(55.070737 0)scale(0.697382)" xlink:href="#CMR17-50"/>
     <use transform="translate(87.552051 24.740171)scale(0.996264)" xlink:href="#CMSS17-61"/>
     <use transform="translate(160.419986 24.740171)scale(0.996264)" xlink:href="#CMSS17-49"/>
     <use transform="translate(207.263609 24.740171)scale(0.996264)" xlink:href="#CMSS17-53"/>
    </g>
   </g>
   <g id="line2d_61">
    <path d="M 946 200.900524 
L 978 200.900524 
" style="fill:none;stroke:#d62728;stroke-linecap:square;"/>
   </g>
   <g id="line2d_62"/>
   <g id="text_54">
    <!-- $\beta_2'$=40 -->
    <defs>
     <path d="M 35.203125 17 
L 44.296875 17 
L 44.296875 23.09375 
L 35.203125 23.09375 
L 35.203125 66 
L 26.40625 66 
L 2.59375 23.09375 
L 2.59375 17 
L 27.296875 17 
L 27.296875 0 
L 35.203125 0 
z
M 10.296875 23.09375 
C 16.09375 33.421875 27.59375 54.28125 27.59375 61.359375 
L 27.59375 23.09375 
z
" id="CMSS17-52"/>
     <path d="M 43.09375 32.390625 
C 43.09375 38.109375 43 48.75 38.90625 56.984375 
C 34.796875 64.890625 28.203125 67 23.5 67 
C 16.703125 67 10.90625 62.984375 7.90625 56.578125 
C 4.703125 49.859375 3.796875 42.9375 3.796875 32.390625 
C 3.796875 25.171875 4.09375 16.34375 7.703125 8.609375 
C 11.796875 0.09375 18.703125 -2 23.40625 -2 
C 29.59375 -2 35.59375 1.296875 39 8.203125 
C 42.5 15.4375 43.09375 23.359375 43.09375 32.390625 
z
M 23.40625 4.09375 
C 15.796875 4.09375 13.5 12.828125 12.796875 15.734375 
C 11.59375 20.75 11.40625 25.5625 11.40625 33.5 
C 11.40625 39.71875 11.40625 46.75 13.296875 52.265625 
C 15.59375 58.6875 19.59375 60.890625 23.40625 60.890625 
C 30.796875 60.890625 33.203125 53.46875 34 50.859375 
C 35.5 45.546875 35.5 39.3125 35.5 33.5 
C 35.5 24.15625 35.5 4.09375 23.40625 4.09375 
z
" id="CMSS17-48"/>
    </defs>
    <g transform="translate(990.8 206.500524)scale(0.16 -0.16)">
     <use transform="translate(0 24.740171)scale(0.996264)" xlink:href="#CMMI12-12"/>
     <use transform="translate(60.594016 60.89381)scale(0.697382)" xlink:href="#CMSY10-48"/>
     <use transform="translate(55.070737 0)scale(0.697382)" xlink:href="#CMR17-50"/>
     <use transform="translate(87.552051 24.740171)scale(0.996264)" xlink:href="#CMSS17-61"/>
     <use transform="translate(160.419986 24.740171)scale(0.996264)" xlink:href="#CMSS17-52"/>
     <use transform="translate(207.263609 24.740171)scale(0.996264)" xlink:href="#CMSS17-48"/>
    </g>
   </g>
  </g>
 </g>
 <defs>
  <clipPath id="pb8fe784dfc">
   <rect height="190.399098" width="459.084" x="83.740286" y="31.318173"/>
  </clipPath>
  <clipPath id="p7fe6bdb3a2">
   <rect height="190.399098" width="459.084" x="610.116" y="31.318173"/>
  </clipPath>
  <clipPath id="p347340c08d">
   <rect height="190.399098" width="459.084" x="83.740286" y="295.918173"/>
  </clipPath>
  <clipPath id="pcb71bc4d7c">
   <rect height="190.399098" width="459.084" x="610.116" y="295.918173"/>
  </clipPath>
 </defs>
</svg>
