<?xml version="1.0" encoding="utf-8" standalone="no"?>
<!DOCTYPE svg PUBLIC "-//W3C//DTD SVG 1.1//EN"
  "http://www.w3.org/Graphics/SVG/1.1/DTD/svg11.dtd">
<!-- Created with matplotlib (https://matplotlib.org/) -->
<svg height="540pt" version="1.1" viewBox="0 0 1080 540" width="1080pt" xmlns="http://www.w3.org/2000/svg" xmlns:xlink="http://www.w3.org/1999/xlink">
 <defs>
  <style type="text/css">
*{stroke-linecap:butt;stroke-linejoin:round;white-space:pre;}
  </style>
 </defs>
 <g id="figure_1">
  <g id="patch_1">
   <path d="M 0 540 
L 1080 540 
L 1080 0 
L 0 0 
z
" style="fill:#ffffff;"/>
  </g>
  <g id="axes_1">
   <g id="patch_2">
    <path d="M 83.740286 221.717271 
L 542.824286 221.717271 
L 542.824286 31.318173 
L 83.740286 31.318173 
z
" style="fill:#ffffff;"/>
   </g>
   <g id="matplotlib.axis_1">
    <g id="xtick_1">
     <g id="line2d_1">
      <defs>
       <path d="M 0 0 
L 0 3.5 
" id="mc2a2dad821" style="stroke:#000000;stroke-width:0.8;"/>
      </defs>
      <g>
       <use style="stroke:#000000;stroke-width:0.8;" x="104.60774" xlink:href="#mc2a2dad821" y="221.717271"/>
      </g>
     </g>
     <g id="text_1">
      <!-- $0$ -->
      <defs>
       <path d="M 42 31.84375 
C 42 37.96875 41.90625 48.421875 37.703125 56.453125 
C 34 63.484375 28.09375 66 22.90625 66 
C 18.09375 66 12 63.78125 8.203125 56.5625 
C 4.203125 49.015625 3.796875 39.671875 3.796875 31.84375 
C 3.796875 26.109375 3.90625 17.375 7 9.734375 
C 11.296875 -0.609375 19 -2 22.90625 -2 
C 27.5 -2 34.5 -0.109375 38.59375 9.4375 
C 41.59375 16.375 42 24.5 42 31.84375 
z
M 22.90625 -0.40625 
C 16.5 -0.40625 12.703125 5.125 11.296875 12.75 
C 10.203125 18.6875 10.203125 27.328125 10.203125 32.953125 
C 10.203125 40.6875 10.203125 47.109375 11.5 53.234375 
C 13.40625 61.78125 19 64.390625 22.90625 64.390625 
C 27 64.390625 32.296875 61.671875 34.203125 53.4375 
C 35.5 47.71875 35.59375 40.984375 35.59375 32.953125 
C 35.59375 26.421875 35.59375 18.375 34.40625 12.453125 
C 32.296875 1.5 26.40625 -0.40625 22.90625 -0.40625 
z
" id="CMR17-48"/>
      </defs>
      <g transform="translate(100.495597 241.170572)scale(0.18 -0.18)">
       <use transform="scale(0.996264)" xlink:href="#CMR17-48"/>
      </g>
     </g>
    </g>
    <g id="xtick_2">
     <g id="line2d_2">
      <g>
       <use style="stroke:#000000;stroke-width:0.8;" x="243.724104" xlink:href="#mc2a2dad821" y="221.717271"/>
      </g>
     </g>
     <g id="text_2">
      <!-- $10$ -->
      <defs>
       <path d="M 26.59375 63.796875 
C 26.59375 65.890625 26.5 66 25.09375 66 
C 21.203125 61.359375 15.296875 59.890625 9.703125 59.6875 
C 9.40625 59.6875 8.90625 59.6875 8.796875 59.5 
C 8.703125 59.296875 8.703125 59.09375 8.703125 57 
C 11.796875 57 17 57.59375 21 59.984375 
L 21 7.296875 
C 21 3.796875 20.796875 2.59375 12.203125 2.59375 
L 9.203125 2.59375 
L 9.203125 0 
C 14 0.09375 19 0.1875 23.796875 0.1875 
C 28.59375 0.1875 33.59375 0.09375 38.40625 0 
L 38.40625 2.59375 
L 35.40625 2.59375 
C 26.796875 2.59375 26.59375 3.6875 26.59375 7.296875 
z
" id="CMR17-49"/>
      </defs>
      <g transform="translate(235.499818 241.170572)scale(0.18 -0.18)">
       <use transform="scale(0.996264)" xlink:href="#CMR17-49"/>
       <use transform="translate(45.690477 0)scale(0.996264)" xlink:href="#CMR17-48"/>
      </g>
     </g>
    </g>
    <g id="xtick_3">
     <g id="line2d_3">
      <g>
       <use style="stroke:#000000;stroke-width:0.8;" x="382.840468" xlink:href="#mc2a2dad821" y="221.717271"/>
      </g>
     </g>
     <g id="text_3">
      <!-- $20$ -->
      <defs>
       <path d="M 41.703125 15.46875 
L 39.90625 15.46875 
C 38.90625 8.390625 38.09375 7.1875 37.703125 6.59375 
C 37.203125 5.796875 30 5.796875 28.59375 5.796875 
L 9.40625 5.796875 
C 13 9.6875 20 16.765625 28.5 24.9375 
C 34.59375 30.71875 41.703125 37.5 41.703125 47.390625 
C 41.703125 59.1875 32.296875 66 21.796875 66 
C 10.796875 66 4.09375 56.296875 4.09375 47.296875 
C 4.09375 43.390625 7 42.890625 8.203125 42.890625 
C 9.203125 42.890625 12.203125 43.484375 12.203125 46.984375 
C 12.203125 50.09375 9.59375 51 8.203125 51 
C 7.59375 51 7 50.890625 6.59375 50.6875 
C 8.5 59.1875 14.296875 63.390625 20.40625 63.390625 
C 29.09375 63.390625 34.796875 56.5 34.796875 47.390625 
C 34.796875 38.703125 29.703125 31.21875 24 24.734375 
L 4.09375 2.296875 
L 4.09375 0 
L 39.296875 0 
z
" id="CMR17-50"/>
      </defs>
      <g transform="translate(374.616182 241.170572)scale(0.18 -0.18)">
       <use transform="scale(0.996264)" xlink:href="#CMR17-50"/>
       <use transform="translate(45.690477 0)scale(0.996264)" xlink:href="#CMR17-48"/>
      </g>
     </g>
    </g>
    <g id="xtick_4">
     <g id="line2d_4">
      <g>
       <use style="stroke:#000000;stroke-width:0.8;" x="521.956831" xlink:href="#mc2a2dad821" y="221.717271"/>
      </g>
     </g>
     <g id="text_4">
      <!-- $30$ -->
      <defs>
       <path d="M 22.09375 34 
C 31 34 34.90625 26.140625 34.90625 17.09375 
C 34.90625 5.03125 28.5 0.390625 22.703125 0.390625 
C 17.40625 0.390625 8.796875 3.015625 6.09375 10.796875 
C 6.59375 10.59375 7.09375 10.59375 7.59375 10.59375 
C 10 10.59375 11.796875 12.1875 11.796875 14.796875 
C 11.796875 17.6875 9.59375 19 7.59375 19 
C 5.90625 19 3.296875 18.1875 3.296875 14.484375 
C 3.296875 5.234375 12.296875 -2 22.90625 -2 
C 34 -2 42.5 6.75 42.5 16.984375 
C 42.5 26.84375 34.5 34 25 35.09375 
C 32.59375 36.671875 39.90625 43.375 39.90625 52.390625 
C 39.90625 60.25 32 66 23 66 
C 13.90625 66 5.90625 60.34375 5.90625 52.296875 
C 5.90625 48.796875 8.5 48.1875 9.796875 48.1875 
C 11.90625 48.1875 13.703125 49.484375 13.703125 52.09375 
C 13.703125 54.6875 11.90625 56 9.796875 56 
C 9.40625 56 8.90625 56 8.5 55.796875 
C 11.40625 62.484375 19.296875 63.6875 22.796875 63.6875 
C 26.296875 63.6875 32.90625 61.96875 32.90625 52.296875 
C 32.90625 49.484375 32.5 44.546875 29.09375 40.21875 
C 26.09375 36.390625 22.703125 36.1875 19.40625 35.890625 
C 18.90625 35.890625 16.59375 35.6875 16.203125 35.6875 
C 15.5 35.59375 15.09375 35.5 15.09375 34.796875 
C 15.09375 34.09375 15.203125 34 17.203125 34 
z
" id="CMR17-51"/>
      </defs>
      <g transform="translate(513.732545 241.170572)scale(0.18 -0.18)">
       <use transform="scale(0.996264)" xlink:href="#CMR17-51"/>
       <use transform="translate(45.690477 0)scale(0.996264)" xlink:href="#CMR17-48"/>
      </g>
     </g>
    </g>
    <g id="text_5">
     <!-- time -->
     <defs>
      <path d="M 16.703125 37.1875 
L 29.703125 37.1875 
L 29.703125 43 
L 16.703125 43 
L 16.703125 55 
L 9.59375 55 
L 9.59375 43 
L 1.703125 43 
L 1.703125 37.1875 
L 9.40625 37.1875 
L 9.40625 11.734375 
C 9.40625 6 10.703125 -1 17.296875 -1 
C 22.296875 -1 26.90625 0.390625 31.296875 2.6875 
L 29.703125 8.609375 
C 27.296875 6.5 24.40625 5.296875 21.296875 5.296875 
C 16.90625 5.296875 16.703125 10.921875 16.703125 13.4375 
z
" id="CMSS17-116"/>
      <path d="M 15.296875 66 
L 6.90625 66 
L 6.90625 57.59375 
L 15.296875 57.59375 
z
M 14.796875 43 
L 7.40625 43 
L 7.40625 0 
L 14.796875 0 
z
" id="CMSS17-105"/>
      <path d="M 67 29.34375 
C 67 36.078125 65.296875 44 54.09375 44 
C 46.59375 44 42.09375 39.296875 40.09375 36.375 
C 38.296875 41.6875 34.09375 44 28.09375 44 
C 21.296875 44 17 40.09375 14.703125 37.28125 
L 14.703125 43.484375 
L 7.40625 43.484375 
L 7.40625 0 
L 15 0 
L 15 24.3125 
C 15 30.25 17.203125 37.890625 24.296875 37.890625 
C 33.40625 37.890625 33.40625 31.453125 33.40625 28.53125 
L 33.40625 0 
L 41 0 
L 41 24.3125 
C 41 30.25 43.203125 37.890625 50.296875 37.890625 
C 59.40625 37.890625 59.40625 31.453125 59.40625 28.53125 
L 59.40625 0 
L 67 0 
z
" id="CMSS17-109"/>
      <path d="M 39.09375 21.484375 
C 39.09375 24.796875 38.90625 31.265625 35.703125 36.671875 
C 32.203125 42.390625 26.5 44 22.203125 44 
C 11.796875 44 3 34.125 3 21.296875 
C 3 9.046875 12.09375 -1 23.59375 -1 
C 28.09375 -1 33.59375 0.296875 38.59375 3.890625 
C 38.59375 4.296875 38.40625 6.46875 38.296875 6.578125 
C 38.296875 6.765625 38 9.828125 38 10.234375 
C 33.203125 6.375 27.703125 5.09375 23.703125 5.09375 
C 17.296875 5.09375 10.40625 10.421875 10.09375 21.484375 
z
M 10.90625 27 
C 12.203125 32.59375 16.59375 37.890625 22.203125 37.890625 
C 23.703125 37.890625 30.703125 37.6875 32.5 27 
z
" id="CMSS17-101"/>
     </defs>
     <g transform="translate(297.813066 261.111936)scale(0.18 -0.18)">
      <use transform="scale(0.996264)" xlink:href="#CMSS17-116"/>
      <use transform="translate(33.831567 0)scale(0.996264)" xlink:href="#CMSS17-105"/>
      <use transform="translate(56.01229 0)scale(0.996264)" xlink:href="#CMSS17-109"/>
      <use transform="translate(130.241544 0)scale(0.996264)" xlink:href="#CMSS17-101"/>
     </g>
    </g>
   </g>
   <g id="matplotlib.axis_2">
    <g id="ytick_1">
     <g id="line2d_5">
      <defs>
       <path d="M 0 0 
L -3.5 0 
" id="m47bbb51d3b" style="stroke:#000000;stroke-width:0.8;"/>
      </defs>
      <g>
       <use style="stroke:#000000;stroke-width:0.8;" x="83.740286" xlink:href="#m47bbb51d3b" y="216.734032"/>
      </g>
     </g>
     <g id="text_6">
      <!-- $0.0000$ -->
      <defs>
       <path d="M 18.40625 4.796875 
C 18.40625 7.6875 16 9.6875 13.59375 9.6875 
C 10.703125 9.6875 8.703125 7.296875 8.703125 4.890625 
C 8.703125 2 11.09375 0 13.5 0 
C 16.40625 0 18.40625 2.390625 18.40625 4.796875 
z
" id="CMMI12-58"/>
      </defs>
      <g transform="translate(30.741364 222.960682)scale(0.18 -0.18)">
       <use transform="scale(0.996264)" xlink:href="#CMR17-48"/>
       <use transform="translate(45.690477 0)scale(0.996264)" xlink:href="#CMMI12-58"/>
       <use transform="translate(72.787654 0)scale(0.996264)" xlink:href="#CMR17-48"/>
       <use transform="translate(118.478131 0)scale(0.996264)" xlink:href="#CMR17-48"/>
       <use transform="translate(164.168608 0)scale(0.996264)" xlink:href="#CMR17-48"/>
       <use transform="translate(209.859086 0)scale(0.996264)" xlink:href="#CMR17-48"/>
      </g>
     </g>
    </g>
    <g id="ytick_2">
     <g id="line2d_6">
      <g>
       <use style="stroke:#000000;stroke-width:0.8;" x="83.740286" xlink:href="#m47bbb51d3b" y="170.380067"/>
      </g>
     </g>
     <g id="text_7">
      <!-- $0.0025$ -->
      <defs>
       <path d="M 11.40625 58.59375 
C 12.40625 58.1875 16.5 56.890625 20.703125 56.890625 
C 30 56.890625 35.09375 61.890625 38 64.6875 
C 38 65.484375 38 66 37.40625 66 
C 37.296875 66 37.09375 66 36.296875 65.59375 
C 32.796875 64.09375 28.703125 63 23.703125 63 
C 20.703125 63 16.203125 63.359375 11.296875 65.484375 
C 10.203125 66 10 66 9.90625 66 
C 9.40625 66 9.296875 65.890625 9.296875 63.90625 
L 9.296875 34.859375 
C 9.296875 33.015625 9.296875 32.5 10.296875 32.5 
C 10.796875 32.5 11 32.703125 11.5 33.421875 
C 14.703125 38.046875 19.09375 40 24.09375 40 
C 27.59375 40 35.09375 37.734375 35.09375 20.203125 
C 35.09375 16.984375 35.09375 11.1875 32.09375 6.59375 
C 29.59375 2.484375 25.703125 0.390625 21.40625 0.390625 
C 14.796875 0.390625 8.09375 4.984375 6.296875 12.6875 
C 6.703125 12.59375 7.5 12.390625 7.90625 12.390625 
C 9.203125 12.390625 11.703125 13.09375 11.703125 16.1875 
C 11.703125 18.890625 9.796875 20 7.90625 20 
C 5.59375 20 4.09375 18.59375 4.09375 15.796875 
C 4.09375 7.09375 11 -2 21.59375 -2 
C 31.90625 -2 41.703125 6.890625 41.703125 19.796875 
C 41.703125 32.09375 33.90625 41.59375 24.203125 41.59375 
C 19.09375 41.59375 14.796875 39.6875 11.40625 36 
z
" id="CMR17-53"/>
      </defs>
      <g transform="translate(30.741364 176.606717)scale(0.18 -0.18)">
       <use transform="scale(0.996264)" xlink:href="#CMR17-48"/>
       <use transform="translate(45.690477 0)scale(0.996264)" xlink:href="#CMMI12-58"/>
       <use transform="translate(72.787654 0)scale(0.996264)" xlink:href="#CMR17-48"/>
       <use transform="translate(118.478131 0)scale(0.996264)" xlink:href="#CMR17-48"/>
       <use transform="translate(164.168608 0)scale(0.996264)" xlink:href="#CMR17-50"/>
       <use transform="translate(209.859086 0)scale(0.996264)" xlink:href="#CMR17-53"/>
      </g>
     </g>
    </g>
    <g id="ytick_3">
     <g id="line2d_7">
      <g>
       <use style="stroke:#000000;stroke-width:0.8;" x="83.740286" xlink:href="#m47bbb51d3b" y="124.026103"/>
      </g>
     </g>
     <g id="text_8">
      <!-- $0.0050$ -->
      <g transform="translate(30.741364 130.252753)scale(0.18 -0.18)">
       <use transform="scale(0.996264)" xlink:href="#CMR17-48"/>
       <use transform="translate(45.690477 0)scale(0.996264)" xlink:href="#CMMI12-58"/>
       <use transform="translate(72.787654 0)scale(0.996264)" xlink:href="#CMR17-48"/>
       <use transform="translate(118.478131 0)scale(0.996264)" xlink:href="#CMR17-48"/>
       <use transform="translate(164.168608 0)scale(0.996264)" xlink:href="#CMR17-53"/>
       <use transform="translate(209.859086 0)scale(0.996264)" xlink:href="#CMR17-48"/>
      </g>
     </g>
    </g>
    <g id="ytick_4">
     <g id="line2d_8">
      <g>
       <use style="stroke:#000000;stroke-width:0.8;" x="83.740286" xlink:href="#m47bbb51d3b" y="77.672138"/>
      </g>
     </g>
     <g id="text_9">
      <!-- $0.0075$ -->
      <defs>
       <path d="M 45.09375 61.796875 
L 45.09375 64 
L 21.59375 64 
C 9.90625 64 9.703125 65.09375 9.296875 67 
L 7.5 67 
L 4.59375 48.5 
L 6.40625 48.5 
C 6.703125 50.40625 7.40625 55.5 8.59375 57.390625 
C 9.203125 58.1875 16.59375 58.1875 18.296875 58.1875 
L 40.296875 58.1875 
L 29.203125 41.71875 
C 21.796875 30.640625 16.703125 15.671875 16.703125 2.59375 
C 16.703125 1.390625 16.703125 -2 20.296875 -2 
C 23.90625 -2 23.90625 1.390625 23.90625 2.6875 
L 23.90625 7.28125 
C 23.90625 23.65625 26.703125 34.4375 31.296875 41.3125 
z
" id="CMR17-55"/>
      </defs>
      <g transform="translate(30.741364 83.898788)scale(0.18 -0.18)">
       <use transform="scale(0.996264)" xlink:href="#CMR17-48"/>
       <use transform="translate(45.690477 0)scale(0.996264)" xlink:href="#CMMI12-58"/>
       <use transform="translate(72.787654 0)scale(0.996264)" xlink:href="#CMR17-48"/>
       <use transform="translate(118.478131 0)scale(0.996264)" xlink:href="#CMR17-48"/>
       <use transform="translate(164.168608 0)scale(0.996264)" xlink:href="#CMR17-55"/>
       <use transform="translate(209.859086 0)scale(0.996264)" xlink:href="#CMR17-53"/>
      </g>
     </g>
    </g>
    <g id="ytick_5">
     <g id="line2d_9">
      <g>
       <use style="stroke:#000000;stroke-width:0.8;" x="83.740286" xlink:href="#m47bbb51d3b" y="31.318173"/>
      </g>
     </g>
     <g id="text_10">
      <!-- $0.0100$ -->
      <g transform="translate(30.741364 37.544823)scale(0.18 -0.18)">
       <use transform="scale(0.996264)" xlink:href="#CMR17-48"/>
       <use transform="translate(45.690477 0)scale(0.996264)" xlink:href="#CMMI12-58"/>
       <use transform="translate(72.787654 0)scale(0.996264)" xlink:href="#CMR17-48"/>
       <use transform="translate(118.478131 0)scale(0.996264)" xlink:href="#CMR17-49"/>
       <use transform="translate(164.168608 0)scale(0.996264)" xlink:href="#CMR17-48"/>
       <use transform="translate(209.859086 0)scale(0.996264)" xlink:href="#CMR17-48"/>
      </g>
     </g>
    </g>
    <g id="text_11">
     <!-- $P_I$ -->
     <defs>
      <path d="M 29.59375 31.59375 
L 46.40625 31.59375 
C 60.203125 31.59375 74 41.765625 74 53.125 
C 74 60.90625 67.40625 68 54.796875 68 
L 23.90625 68 
C 22 68 21.09375 68 21.09375 66.09375 
C 21.09375 65.09375 22 65.09375 23.5 65.09375 
C 29.59375 65.09375 29.59375 64.296875 29.59375 63.203125 
C 29.59375 63 29.59375 62.40625 29.203125 60.90625 
L 15.703125 7.359375 
C 14.796875 3.890625 14.59375 2.890625 7.59375 2.890625 
C 5.703125 2.890625 4.703125 2.890625 4.703125 1.09375 
C 4.703125 0 5.59375 0 6.203125 0 
C 8.09375 0 10.09375 0.1875 12 0.1875 
L 23.703125 0.1875 
C 25.59375 0.1875 27.703125 0 29.59375 0 
C 30.40625 0 31.5 0 31.5 1.890625 
C 31.5 2.890625 30.59375 2.890625 29.09375 2.890625 
C 23.09375 2.890625 23 3.59375 23 4.578125 
C 23 5.078125 23.09375 5.765625 23.203125 6.265625 
z
M 36.796875 61.203125 
C 37.703125 64.890625 38.09375 65.09375 42 65.09375 
L 51.90625 65.09375 
C 59.40625 65.09375 65.59375 62.703125 65.59375 55.21875 
C 65.59375 52.640625 64.296875 44.15625 59.703125 39.578125 
C 58 37.78125 53.203125 34 44.09375 34 
L 30 34 
z
" id="CMMI12-80"/>
      <path d="M 36.796875 60.609375 
C 37.703125 64.09375 37.90625 65.09375 45.203125 65.09375 
C 47.40625 65.09375 48.203125 65.09375 48.203125 66.984375 
C 48.203125 68 47.09375 68 46.796875 68 
C 45 68 42.796875 67.796875 41 67.796875 
L 28.703125 67.796875 
C 26.703125 67.796875 24.40625 68 22.40625 68 
C 21.59375 68 20.5 68 20.5 66.09375 
C 20.5 65.09375 21.296875 65.09375 23.296875 65.09375 
C 29.5 65.09375 29.5 64.296875 29.5 63.203125 
C 29.5 62.5 29.296875 61.90625 29.09375 61.015625 
L 15.59375 7.375 
C 14.703125 3.890625 14.5 2.890625 7.203125 2.890625 
C 5 2.890625 4.09375 2.890625 4.09375 1 
C 4.09375 0 5.09375 0 5.59375 0 
C 7.40625 0 9.59375 0.1875 11.40625 0.1875 
L 23.703125 0.1875 
C 25.703125 0.1875 27.90625 0 29.90625 0 
C 30.703125 0 31.90625 0 31.90625 1.796875 
C 31.90625 2.890625 31.296875 2.890625 29.09375 2.890625 
C 22.90625 2.890625 22.90625 3.6875 22.90625 4.875 
C 22.90625 5.078125 22.90625 5.578125 23.296875 7.171875 
z
" id="CMMI12-73"/>
     </defs>
     <g transform="translate(23.2533 134.887178)rotate(-90)scale(0.18 -0.18)">
      <use transform="translate(0 14.943915)scale(0.996264)" xlink:href="#CMMI12-80"/>
      <use transform="translate(62.877232 0)scale(0.697382)" xlink:href="#CMMI12-73"/>
     </g>
    </g>
   </g>
   <g id="line2d_10">
    <path clip-path="url(#p84854ef33a)" d="M 104.60774 214.879873 
L 111.703384 214.154471 
L 117.79729 213.312937 
L 123.181632 212.349123 
L 128.023366 211.259689 
L 132.447709 210.038026 
L 136.538139 208.678484 
L 140.336395 207.183711 
L 143.925956 205.533803 
L 147.348561 203.716589 
L 150.645949 201.713158 
L 153.818119 199.526652 
L 156.94855 197.096353 
L 159.995503 194.449961 
L 163.042456 191.50805 
L 166.089409 188.255554 
L 169.178102 184.630922 
L 172.350272 180.561026 
L 175.647659 175.963766 
L 179.195482 170.624268 
L 183.118955 164.304792 
L 188.044167 155.920775 
L 198.729372 137.593883 
L 202.068499 132.397327 
L 204.823278 128.504551 
L 207.244145 125.454419 
L 209.414578 123.063203 
L 211.418054 121.176533 
L 213.296312 119.709465 
L 215.049354 118.618263 
L 216.718917 117.838053 
L 218.305002 117.336441 
L 219.849348 117.075047 
L 221.393694 117.038129 
L 222.938041 117.22414 
L 224.524126 117.643523 
L 226.15195 118.308432 
L 227.863252 119.254329 
L 229.658033 120.505157 
L 231.578031 122.118149 
L 233.664985 124.167561 
L 235.960634 126.740758 
L 238.548458 129.9865 
L 241.553672 134.128464 
L 245.26845 139.651645 
L 250.861487 148.41952 
L 259.37626 161.727825 
L 263.92582 168.404401 
L 267.891033 173.838726 
L 271.605811 178.558527 
L 275.153633 182.711607 
L 278.617977 186.428041 
L 282.040582 189.77539 
L 285.463187 192.811233 
L 288.885792 195.550793 
L 292.350136 198.040583 
L 295.897958 200.316496 
L 299.529258 202.382688 
L 303.285775 204.265768 
L 307.209249 205.984589 
L 311.341418 207.551741 
L 315.724022 208.97503 
L 320.440538 210.269432 
L 325.532707 211.432089 
L 331.084005 212.46773 
L 337.21965 213.382586 
L 344.106599 214.180824 
L 351.995285 214.866497 
L 361.261362 215.44206 
L 372.489175 215.90823 
L 386.763941 216.26709 
L 406.297832 216.520271 
L 436.976058 216.671444 
L 504.635112 216.729869 
L 521.956831 216.731952 
L 521.956831 216.731952 
" style="fill:none;stroke:#1f77b4;stroke-linecap:square;"/>
   </g>
   <g id="line2d_11">
    <path clip-path="url(#p84854ef33a)" d="M 104.60774 214.879873 
L 111.703384 214.155101 
L 117.79729 213.314751 
L 123.181632 212.352889 
L 128.023366 211.266431 
L 132.447709 210.049086 
L 136.538139 208.695576 
L 140.378134 207.191245 
L 144.009435 205.52878 
L 147.432039 203.719679 
L 150.729427 201.72817 
L 153.943336 199.527972 
L 157.073767 197.116969 
L 160.16246 194.459392 
L 163.251152 191.508234 
L 166.381583 188.204518 
L 169.553753 184.527994 
L 172.809402 180.41114 
L 176.232007 175.721448 
L 179.988524 170.185394 
L 184.329389 163.374873 
L 191.216337 152.082798 
L 196.976331 142.813213 
L 200.524153 137.517646 
L 203.40415 133.60345 
L 205.908495 130.559222 
L 208.162405 128.15499 
L 210.249359 126.245556 
L 212.169357 124.779697 
L 214.005877 123.653073 
L 215.758918 122.838408 
L 217.428482 122.304739 
L 219.056306 122.014338 
L 220.68413 121.950974 
L 222.311954 122.112465 
L 223.981518 122.507178 
L 225.69282 123.145464 
L 227.487601 124.058792 
L 229.365859 125.267817 
L 231.369335 126.823411 
L 233.581507 128.83204 
L 236.002374 131.340583 
L 238.715414 134.480321 
L 241.887584 138.503692 
L 245.852797 143.912414 
L 252.322355 153.176866 
L 259.960607 164.010004 
L 264.677124 170.31161 
L 268.851032 175.523311 
L 272.732767 180.019051 
L 276.447545 183.986239 
L 280.078845 187.542913 
L 283.668406 190.750579 
L 287.257967 193.661964 
L 290.889268 196.320276 
L 294.562307 198.73349 
L 298.318824 200.935553 
L 302.200559 202.951851 
L 306.207511 204.782587 
L 310.423159 206.462273 
L 314.847501 207.984366 
L 319.564018 209.369584 
L 324.614447 210.618812 
L 330.082267 211.739999 
L 336.092695 212.741844 
L 342.770948 213.625015 
L 350.325722 214.393875 
L 359.007451 215.047753 
L 369.275266 215.590939 
L 381.880469 216.025659 
L 398.158711 216.352664 
L 421.156946 216.57523 
L 459.723859 216.697539 
L 521.956831 216.730634 
L 521.956831 216.730634 
" style="fill:none;stroke:#ff7f0e;stroke-linecap:square;"/>
   </g>
   <g id="line2d_12">
    <path clip-path="url(#p84854ef33a)" d="M 104.60774 214.879873 
L 111.745123 214.15146 
L 117.880769 213.305466 
L 123.306849 212.335796 
L 128.190322 211.239311 
L 132.656404 210.009785 
L 136.788573 208.642156 
L 140.628569 207.139851 
L 144.259869 205.484162 
L 147.765952 203.641037 
L 151.146818 201.610822 
L 154.444205 199.368587 
L 157.658115 196.914145 
L 160.872024 194.177486 
L 164.085933 191.146156 
L 167.341582 187.768372 
L 170.722448 183.935461 
L 174.27027 179.572845 
L 178.193744 174.385141 
L 182.868521 167.816639 
L 196.433723 148.501144 
L 199.647632 144.467827 
L 202.402412 141.358955 
L 204.865018 138.908672 
L 207.118928 136.974342 
L 209.205882 135.469204 
L 211.167619 134.319575 
L 213.045878 133.468365 
L 214.882397 132.876573 
L 216.677178 132.529153 
L 218.471959 132.408353 
L 220.266739 132.509951 
L 222.103259 132.83725 
L 224.023257 133.410884 
L 226.026733 134.247855 
L 228.155426 135.38518 
L 230.451075 136.872788 
L 232.95542 138.77023 
L 235.751939 141.179717 
L 238.924109 144.21602 
L 242.764105 148.215052 
L 247.939751 153.954633 
L 263.091038 170.94288 
L 268.141467 176.166145 
L 272.732767 180.599737 
L 277.073631 184.487411 
L 281.289279 187.96841 
L 285.463187 191.1273 
L 289.595356 193.977649 
L 293.769264 196.58699 
L 297.984912 198.960962 
L 302.284037 201.128287 
L 306.70838 203.111127 
L 311.299679 204.925876 
L 316.099674 206.584096 
L 321.150103 208.093542 
L 326.534445 209.469066 
L 332.294438 210.709288 
L 338.555301 211.82665 
L 345.40051 212.819014 
L 352.997023 213.692128 
L 361.595274 214.451566 
L 371.487437 215.096491 
L 383.216119 215.631214 
L 397.616103 216.056385 
L 416.356951 216.375089 
L 443.028225 216.588981 
L 488.77426 216.703427 
L 521.956831 216.724136 
L 521.956831 216.724136 
" style="fill:none;stroke:#2ca02c;stroke-linecap:square;"/>
   </g>
   <g id="line2d_13">
    <path clip-path="url(#p84854ef33a)" d="M 104.60774 214.879873 
L 111.828601 214.14536 
L 118.005986 213.296911 
L 123.473806 212.325614 
L 128.399017 211.229423 
L 132.948578 209.991143 
L 137.164225 208.615458 
L 141.129438 207.090318 
L 144.927694 205.391957 
L 148.600734 203.504747 
L 152.190295 201.40774 
L 155.738117 199.074139 
L 159.285939 196.471514 
L 162.917239 193.527875 
L 166.715496 190.15833 
L 170.889404 186.15119 
L 176.06505 180.854354 
L 186.958951 169.613608 
L 190.423295 166.418341 
L 193.345031 164.01565 
L 195.932854 162.165773 
L 198.311982 160.729446 
L 200.565892 159.623208 
L 202.736324 158.803798 
L 204.865018 158.23926 
L 206.951972 157.914509 
L 209.080665 157.809871 
L 211.251097 157.926519 
L 213.546747 158.276114 
L 216.009353 158.881563 
L 218.722393 159.783805 
L 221.852824 161.068993 
L 225.69282 162.898961 
L 231.452813 165.921295 
L 242.9728 171.98862 
L 249.525836 175.154585 
L 256.412785 178.229299 
L 264.468428 181.572733 
L 274.944938 185.666049 
L 288.05101 190.545229 
L 299.821431 194.701802 
L 309.630116 197.936101 
L 318.437062 200.609828 
L 326.784879 202.912815 
L 334.924 204.927418 
L 343.063121 206.711956 
L 351.32746 208.295692 
L 359.883972 209.708148 
L 368.899614 210.96873 
L 378.499603 212.083986 
L 388.892635 213.064867 
L 400.370882 213.920853 
L 413.268259 214.654858 
L 428.127373 215.271895 
L 445.783005 215.775251 
L 467.696023 216.168196 
L 496.746425 216.453812 
L 521.956831 216.582026 
L 521.956831 216.582026 
" style="fill:none;stroke:#d62728;stroke-linecap:square;"/>
   </g>
   <g id="patch_3">
    <path d="M 83.740286 221.717271 
L 83.740286 31.318173 
" style="fill:none;stroke:#000000;stroke-linecap:square;stroke-linejoin:miter;stroke-width:0.8;"/>
   </g>
   <g id="patch_4">
    <path d="M 542.824286 221.717271 
L 542.824286 31.318173 
" style="fill:none;stroke:#000000;stroke-linecap:square;stroke-linejoin:miter;stroke-width:0.8;"/>
   </g>
   <g id="patch_5">
    <path d="M 83.740286 221.717271 
L 542.824286 221.717271 
" style="fill:none;stroke:#000000;stroke-linecap:square;stroke-linejoin:miter;stroke-width:0.8;"/>
   </g>
   <g id="patch_6">
    <path d="M 83.740286 31.318173 
L 542.824286 31.318173 
" style="fill:none;stroke:#000000;stroke-linecap:square;stroke-linejoin:miter;stroke-width:0.8;"/>
   </g>
   <g id="text_12">
    <!-- (a) $P_{I_1}$ -->
    <defs>
     <path d="M 25.203125 75 
C 19.796875 69.484375 7.40625 56.671875 7.40625 25.046875 
C 7.40625 -6.6875 19.796875 -19.40625 25.203125 -25 
L 31.296875 -25 
C 19 -12.203125 15 5.71875 15 24.9375 
C 15 44.0625 18.796875 62.078125 31.296875 75 
z
" id="CMSS17-40"/>
     <path d="M 37.59375 27.953125 
C 37.59375 37.484375 30.90625 44 21.90625 44 
C 17.5 44 12.703125 43.1875 7.203125 39.984375 
L 7.796875 33.328125 
C 10.296875 35.15625 14.59375 38.09375 21.796875 38.09375 
C 26.90625 38.09375 30 34.140625 30 27.84375 
L 30 24 
C 14 23.5 4 18.890625 4 11.109375 
C 4 7.0625 6.5 -1 14.796875 -1 
C 16.296875 -1 24.40625 -0.8125 30.203125 3.5 
L 30.203125 -0.203125 
L 37.59375 -0.203125 
z
M 30 12.875 
C 30 11.109375 30 8.734375 27 6.96875 
C 24.40625 5.296875 21.09375 5.09375 19.703125 5.09375 
C 14.703125 5.09375 11.296875 7.859375 11.296875 11.296875 
C 11.296875 18.203125 26.90625 18.890625 30 19 
z
" id="CMSS17-97"/>
     <path d="M 11.296875 -25 
C 16.703125 -19.5 29.09375 -6.6875 29.09375 24.9375 
C 29.09375 56.671875 16.703125 69.375 11.296875 75 
L 5.203125 75 
C 17.5 62.171875 21.5 44.265625 21.5 25.046875 
C 21.5 5.921875 17.703125 -12.09375 5.203125 -25 
z
" id="CMSS17-41"/>
    </defs>
    <g transform="translate(289.197304 25.318173)scale(0.18 -0.18)">
     <use transform="translate(0 25.404611)scale(0.996264)" xlink:href="#CMSS17-40"/>
     <use transform="translate(36.433914 25.404611)scale(0.996264)" xlink:href="#CMSS17-97"/>
     <use transform="translate(81.355835 25.404611)scale(0.996264)" xlink:href="#CMSS17-41"/>
     <use transform="translate(149.018862 25.404611)scale(0.996264)" xlink:href="#CMMI12-80"/>
     <use transform="translate(211.896094 10.460696)scale(0.697382)" xlink:href="#CMMI12-73"/>
     <use transform="translate(242.012877 0)scale(0.498132)" xlink:href="#CMR17-49"/>
    </g>
   </g>
  </g>
  <g id="axes_2">
   <g id="patch_7">
    <path d="M 610.116 221.717271 
L 1069.2 221.717271 
L 1069.2 31.318173 
L 610.116 31.318173 
z
" style="fill:#ffffff;"/>
   </g>
   <g id="matplotlib.axis_3">
    <g id="xtick_5">
     <g id="line2d_14">
      <g>
       <use style="stroke:#000000;stroke-width:0.8;" x="630.983454" xlink:href="#mc2a2dad821" y="221.717271"/>
      </g>
     </g>
     <g id="text_13">
      <!-- $0$ -->
      <g transform="translate(626.871311 241.170572)scale(0.18 -0.18)">
       <use transform="scale(0.996264)" xlink:href="#CMR17-48"/>
      </g>
     </g>
    </g>
    <g id="xtick_6">
     <g id="line2d_15">
      <g>
       <use style="stroke:#000000;stroke-width:0.8;" x="770.099818" xlink:href="#mc2a2dad821" y="221.717271"/>
      </g>
     </g>
     <g id="text_14">
      <!-- $10$ -->
      <g transform="translate(761.875532 241.170572)scale(0.18 -0.18)">
       <use transform="scale(0.996264)" xlink:href="#CMR17-49"/>
       <use transform="translate(45.690477 0)scale(0.996264)" xlink:href="#CMR17-48"/>
      </g>
     </g>
    </g>
    <g id="xtick_7">
     <g id="line2d_16">
      <g>
       <use style="stroke:#000000;stroke-width:0.8;" x="909.216182" xlink:href="#mc2a2dad821" y="221.717271"/>
      </g>
     </g>
     <g id="text_15">
      <!-- $20$ -->
      <g transform="translate(900.991896 241.170572)scale(0.18 -0.18)">
       <use transform="scale(0.996264)" xlink:href="#CMR17-50"/>
       <use transform="translate(45.690477 0)scale(0.996264)" xlink:href="#CMR17-48"/>
      </g>
     </g>
    </g>
    <g id="xtick_8">
     <g id="line2d_17">
      <g>
       <use style="stroke:#000000;stroke-width:0.8;" x="1048.332545" xlink:href="#mc2a2dad821" y="221.717271"/>
      </g>
     </g>
     <g id="text_16">
      <!-- $30$ -->
      <g transform="translate(1040.10826 241.170572)scale(0.18 -0.18)">
       <use transform="scale(0.996264)" xlink:href="#CMR17-51"/>
       <use transform="translate(45.690477 0)scale(0.996264)" xlink:href="#CMR17-48"/>
      </g>
     </g>
    </g>
    <g id="text_17">
     <!-- time -->
     <g transform="translate(824.18878 261.111936)scale(0.18 -0.18)">
      <use transform="scale(0.996264)" xlink:href="#CMSS17-116"/>
      <use transform="translate(33.831567 0)scale(0.996264)" xlink:href="#CMSS17-105"/>
      <use transform="translate(56.01229 0)scale(0.996264)" xlink:href="#CMSS17-109"/>
      <use transform="translate(130.241544 0)scale(0.996264)" xlink:href="#CMSS17-101"/>
     </g>
    </g>
   </g>
   <g id="matplotlib.axis_4">
    <g id="ytick_6">
     <g id="line2d_18">
      <g>
       <use style="stroke:#000000;stroke-width:0.8;" x="610.116" xlink:href="#m47bbb51d3b" y="214.524191"/>
      </g>
     </g>
     <g id="text_18">
      <!-- $0.00$ -->
      <g transform="translate(573.56565 220.750841)scale(0.18 -0.18)">
       <use transform="scale(0.996264)" xlink:href="#CMR17-48"/>
       <use transform="translate(45.690477 0)scale(0.996264)" xlink:href="#CMMI12-58"/>
       <use transform="translate(72.787654 0)scale(0.996264)" xlink:href="#CMR17-48"/>
       <use transform="translate(118.478131 0)scale(0.996264)" xlink:href="#CMR17-48"/>
      </g>
     </g>
    </g>
    <g id="ytick_7">
     <g id="line2d_19">
      <g>
       <use style="stroke:#000000;stroke-width:0.8;" x="610.116" xlink:href="#m47bbb51d3b" y="177.882987"/>
      </g>
     </g>
     <g id="text_19">
      <!-- $0.05$ -->
      <g transform="translate(573.56565 184.109637)scale(0.18 -0.18)">
       <use transform="scale(0.996264)" xlink:href="#CMR17-48"/>
       <use transform="translate(45.690477 0)scale(0.996264)" xlink:href="#CMMI12-58"/>
       <use transform="translate(72.787654 0)scale(0.996264)" xlink:href="#CMR17-48"/>
       <use transform="translate(118.478131 0)scale(0.996264)" xlink:href="#CMR17-53"/>
      </g>
     </g>
    </g>
    <g id="ytick_8">
     <g id="line2d_20">
      <g>
       <use style="stroke:#000000;stroke-width:0.8;" x="610.116" xlink:href="#m47bbb51d3b" y="141.241784"/>
      </g>
     </g>
     <g id="text_20">
      <!-- $0.10$ -->
      <g transform="translate(573.56565 147.468434)scale(0.18 -0.18)">
       <use transform="scale(0.996264)" xlink:href="#CMR17-48"/>
       <use transform="translate(45.690477 0)scale(0.996264)" xlink:href="#CMMI12-58"/>
       <use transform="translate(72.787654 0)scale(0.996264)" xlink:href="#CMR17-49"/>
       <use transform="translate(118.478131 0)scale(0.996264)" xlink:href="#CMR17-48"/>
      </g>
     </g>
    </g>
    <g id="ytick_9">
     <g id="line2d_21">
      <g>
       <use style="stroke:#000000;stroke-width:0.8;" x="610.116" xlink:href="#m47bbb51d3b" y="104.60058"/>
      </g>
     </g>
     <g id="text_21">
      <!-- $0.15$ -->
      <g transform="translate(573.56565 110.82723)scale(0.18 -0.18)">
       <use transform="scale(0.996264)" xlink:href="#CMR17-48"/>
       <use transform="translate(45.690477 0)scale(0.996264)" xlink:href="#CMMI12-58"/>
       <use transform="translate(72.787654 0)scale(0.996264)" xlink:href="#CMR17-49"/>
       <use transform="translate(118.478131 0)scale(0.996264)" xlink:href="#CMR17-53"/>
      </g>
     </g>
    </g>
    <g id="ytick_10">
     <g id="line2d_22">
      <g>
       <use style="stroke:#000000;stroke-width:0.8;" x="610.116" xlink:href="#m47bbb51d3b" y="67.959377"/>
      </g>
     </g>
     <g id="text_22">
      <!-- $0.20$ -->
      <g transform="translate(573.56565 74.186027)scale(0.18 -0.18)">
       <use transform="scale(0.996264)" xlink:href="#CMR17-48"/>
       <use transform="translate(45.690477 0)scale(0.996264)" xlink:href="#CMMI12-58"/>
       <use transform="translate(72.787654 0)scale(0.996264)" xlink:href="#CMR17-50"/>
       <use transform="translate(118.478131 0)scale(0.996264)" xlink:href="#CMR17-48"/>
      </g>
     </g>
    </g>
    <g id="ytick_11">
     <g id="line2d_23">
      <g>
       <use style="stroke:#000000;stroke-width:0.8;" x="610.116" xlink:href="#m47bbb51d3b" y="31.318173"/>
      </g>
     </g>
     <g id="text_23">
      <!-- $0.25$ -->
      <g transform="translate(573.56565 37.544823)scale(0.18 -0.18)">
       <use transform="scale(0.996264)" xlink:href="#CMR17-48"/>
       <use transform="translate(45.690477 0)scale(0.996264)" xlink:href="#CMMI12-58"/>
       <use transform="translate(72.787654 0)scale(0.996264)" xlink:href="#CMR17-50"/>
       <use transform="translate(118.478131 0)scale(0.996264)" xlink:href="#CMR17-53"/>
      </g>
     </g>
    </g>
    <g id="text_24">
     <!-- $P_R$ -->
     <defs>
      <path d="M 36.796875 61.203125 
C 37.703125 64.890625 38.09375 65.09375 42 65.09375 
L 49.203125 65.09375 
C 57.796875 65.09375 64.203125 62.5 64.203125 54.734375 
C 64.203125 49.640625 61.59375 35 41.5 35 
L 30.203125 35 
z
M 50.703125 33.796875 
C 63.09375 36.484375 72.796875 44.46875 72.796875 53.03125 
C 72.796875 60.8125 64.90625 68 51 68 
L 23.90625 68 
C 21.90625 68 21 68 21 66.09375 
C 21 65.09375 21.703125 65.09375 23.59375 65.09375 
C 29.59375 65.09375 29.59375 64.296875 29.59375 63.203125 
C 29.59375 63 29.59375 62.40625 29.203125 60.90625 
L 15.703125 7.421875 
C 14.796875 3.953125 14.59375 2.96875 7.703125 2.96875 
C 5.40625 2.96875 4.703125 2.96875 4.703125 1.078125 
C 4.703125 0.09375 5.796875 0.09375 6.09375 0.09375 
C 7.90625 0.09375 10 0.296875 11.90625 0.296875 
L 23.703125 0.296875 
C 25.5 0.296875 27.59375 0.09375 29.40625 0.09375 
C 30.203125 0.09375 31.296875 0.09375 31.296875 1.96875 
C 31.296875 2.96875 30.40625 2.96875 28.90625 2.96875 
C 22.796875 2.96875 22.796875 3.765625 22.796875 4.75 
C 22.796875 4.84375 22.796875 5.546875 23 6.328125 
L 29.703125 33 
L 41.703125 33 
C 51.203125 33 53 27.046875 53 23.78125 
C 53 22.28125 52 18.421875 51.296875 15.84375 
C 50.203125 11.296875 49.90625 10.203125 49.90625 8.3125 
C 49.90625 1.28125 55.703125 -2 62.40625 -2 
C 70.5 -2 74 7.828125 74 9.203125 
C 74 9.90625 73.5 10.203125 72.90625 10.203125 
C 72.09375 10.203125 71.90625 9.609375 71.703125 8.8125 
C 69.296875 1.78125 65.203125 0 62.703125 0 
C 60.203125 0 58.59375 1.078125 58.59375 5.546875 
C 58.59375 7.921875 59.796875 16.9375 59.90625 17.4375 
C 60.40625 21.09375 60.40625 21.5 60.40625 22.28125 
C 60.40625 29.515625 54.5 32.59375 50.703125 33.796875 
z
" id="CMMI12-82"/>
     </defs>
     <g transform="translate(566.077586 136.854448)rotate(-90)scale(0.18 -0.18)">
      <use transform="translate(0 14.943915)scale(0.996264)" xlink:href="#CMMI12-80"/>
      <use transform="translate(62.877232 0)scale(0.697382)" xlink:href="#CMMI12-82"/>
     </g>
    </g>
   </g>
   <g id="line2d_24">
    <path clip-path="url(#p2d884f6ab7)" d="M 630.983454 214.524191 
L 642.670398 214.074247 
L 651.811257 213.507029 
L 659.366031 212.821155 
L 665.835589 212.014994 
L 671.512104 211.087573 
L 676.604272 210.033513 
L 681.23731 208.85041 
L 685.536436 207.52417 
L 689.543388 206.056494 
L 693.341644 204.428488 
L 696.972945 202.62886 
L 700.479027 200.64058 
L 703.859893 198.467843 
L 707.19902 196.05613 
L 710.496407 193.398743 
L 713.793795 190.454094 
L 717.132922 187.170457 
L 720.555526 183.486226 
L 724.061609 179.382119 
L 727.776388 174.684984 
L 731.78334 169.24994 
L 736.291161 162.745455 
L 741.80072 154.380818 
L 760.708524 125.320402 
L 765.258084 118.940891 
L 769.390254 113.521341 
L 773.271988 108.792106 
L 776.986767 104.612524 
L 780.618067 100.860242 
L 784.165889 97.510411 
L 787.713711 94.465047 
L 791.261533 91.711643 
L 794.851094 89.206857 
L 798.482394 86.941624 
L 802.238912 84.860822 
L 806.120647 82.966643 
L 810.169338 81.240955 
L 814.426724 79.671486 
L 818.934545 78.25042 
L 823.73454 76.972969 
L 828.910186 75.827627 
L 834.586701 74.802878 
L 840.847564 73.902032 
L 847.901469 73.116092 
L 855.998851 72.443421 
L 865.515362 71.882794 
L 877.118827 71.430951 
L 891.936201 71.087496 
L 912.513569 70.848728 
L 945.779618 70.711124 
L 1026.002136 70.663754 
L 1048.332545 70.662581 
L 1048.332545 70.662581 
" style="fill:none;stroke:#1f77b4;stroke-linecap:square;"/>
   </g>
   <g id="line2d_25">
    <path clip-path="url(#p2d884f6ab7)" d="M 630.983454 214.524191 
L 642.670398 214.074304 
L 651.811257 213.507413 
L 659.366031 212.822315 
L 665.835589 212.017599 
L 671.512104 211.092547 
L 676.604272 210.042095 
L 681.279049 208.852497 
L 685.578175 207.531241 
L 689.585127 206.070915 
L 693.383383 204.453296 
L 697.014684 202.667862 
L 700.520767 200.698537 
L 703.943371 198.522267 
L 707.324237 196.107743 
L 710.663364 193.449369 
L 714.00249 190.507498 
L 717.425095 187.190849 
L 720.931178 183.476372 
L 724.562478 179.299196 
L 728.402474 174.537751 
L 732.618121 168.946081 
L 737.459855 162.138863 
L 743.845935 152.743507 
L 757.369398 132.751145 
L 762.503305 125.628711 
L 766.969387 119.804877 
L 771.101556 114.776571 
L 775.02503 110.348952 
L 778.823286 106.396004 
L 782.538065 102.849045 
L 786.211104 99.64731 
L 789.884143 96.73931 
L 793.598922 94.083084 
L 797.355439 91.671147 
L 801.195435 89.4706 
L 805.160648 87.456817 
L 809.251078 85.6297 
L 813.550203 83.955509 
L 818.058024 82.44055 
L 822.858019 81.064403 
L 827.991926 79.825946 
L 833.584963 78.709553 
L 839.678869 77.7229 
L 846.48234 76.850972 
L 854.162331 76.096032 
L 863.011017 75.455062 
L 873.529266 74.923519 
L 886.468381 74.501527 
L 903.330971 74.186343 
L 927.456161 73.975569 
L 969.195244 73.864157 
L 1048.332545 73.837062 
L 1048.332545 73.837062 
" style="fill:none;stroke:#ff7f0e;stroke-linecap:square;"/>
   </g>
   <g id="line2d_26">
    <path clip-path="url(#p2d884f6ab7)" d="M 630.983454 214.524191 
L 642.670398 214.074424 
L 651.811257 213.508231 
L 659.40777 212.820326 
L 665.919067 212.011223 
L 671.637321 211.080169 
L 676.771228 210.022201 
L 681.446006 208.835518 
L 685.78687 207.506947 
L 689.8773 206.022887 
L 693.759035 204.377204 
L 697.473814 202.560124 
L 701.063375 200.556803 
L 704.569458 198.346057 
L 708.033802 195.89934 
L 711.498145 193.18008 
L 715.004228 190.143525 
L 718.59379 186.737375 
L 722.308568 182.903607 
L 726.273781 178.48578 
L 730.614645 173.306443 
L 735.623335 166.969398 
L 742.301589 158.130665 
L 755.866791 140.10576 
L 761.334611 133.267233 
L 766.134605 127.614693 
L 770.558948 122.741392 
L 774.816334 118.380224 
L 778.948504 114.464823 
L 782.997195 110.932782 
L 787.004147 107.72862 
L 791.011099 104.805052 
L 795.05979 102.123262 
L 799.191959 99.652605 
L 803.407606 97.391127 
L 807.748471 95.315288 
L 812.256292 93.408018 
L 816.931069 91.672118 
L 821.856281 90.081803 
L 827.073666 88.633196 
L 832.624964 87.324363 
L 838.635392 86.139175 
L 845.146689 85.084499 
L 852.325812 84.149572 
L 860.381455 83.329137 
L 869.564053 82.623166 
L 880.249258 82.030813 
L 893.104896 81.548325 
L 909.29966 81.173411 
L 931.1292 80.904746 
L 964.478728 80.738753 
L 1032.471694 80.667758 
L 1048.332545 80.664506 
L 1048.332545 80.664506 
" style="fill:none;stroke:#2ca02c;stroke-linecap:square;"/>
   </g>
   <g id="line2d_27">
    <path clip-path="url(#p2d884f6ab7)" d="M 630.983454 214.524191 
L 642.670398 214.074764 
L 651.852996 213.50739 
L 659.491248 212.818482 
L 666.044284 212.009329 
L 671.846017 211.072667 
L 677.063402 210.00894 
L 681.863396 208.806265 
L 686.329478 207.460756 
L 690.545126 205.961372 
L 694.593817 204.286921 
L 698.517291 202.424601 
L 702.399025 200.333895 
L 706.239021 198.012209 
L 710.120756 195.405242 
L 714.127708 192.445116 
L 718.385094 189.019186 
L 723.059871 184.965686 
L 728.652909 179.806911 
L 737.626811 171.173453 
L 746.976366 162.280917 
L 753.195489 156.676428 
L 758.830266 151.893852 
L 764.339825 147.508046 
L 769.849383 143.40519 
L 775.48416 139.485717 
L 781.285892 135.721179 
L 787.254581 132.113507 
L 793.390226 128.665786 
L 799.60935 125.425472 
L 805.911951 122.390956 
L 812.298031 119.562742 
L 818.72585 116.958183 
L 825.237147 114.558747 
L 831.873661 112.350479 
L 838.635392 110.334668 
L 845.605819 108.489005 
L 852.826681 106.807657 
L 860.381455 105.278062 
L 868.353619 103.892702 
L 876.826653 102.647615 
L 885.967512 101.531627 
L 895.943153 100.541237 
L 906.962271 99.674334 
L 919.400518 98.923844 
L 933.717023 98.288956 
L 950.663091 97.767145 
L 971.574372 97.354935 
L 998.95521 97.050189 
L 1038.607339 96.84985 
L 1048.332545 96.823795 
L 1048.332545 96.823795 
" style="fill:none;stroke:#d62728;stroke-linecap:square;"/>
   </g>
   <g id="patch_8">
    <path d="M 610.116 221.717271 
L 610.116 31.318173 
" style="fill:none;stroke:#000000;stroke-linecap:square;stroke-linejoin:miter;stroke-width:0.8;"/>
   </g>
   <g id="patch_9">
    <path d="M 1069.2 221.717271 
L 1069.2 31.318173 
" style="fill:none;stroke:#000000;stroke-linecap:square;stroke-linejoin:miter;stroke-width:0.8;"/>
   </g>
   <g id="patch_10">
    <path d="M 610.116 221.717271 
L 1069.2 221.717271 
" style="fill:none;stroke:#000000;stroke-linecap:square;stroke-linejoin:miter;stroke-width:0.8;"/>
   </g>
   <g id="patch_11">
    <path d="M 610.116 31.318173 
L 1069.2 31.318173 
" style="fill:none;stroke:#000000;stroke-linecap:square;stroke-linejoin:miter;stroke-width:0.8;"/>
   </g>
   <g id="text_25">
    <!-- (b) $P_{R_1}$ -->
    <defs>
     <path d="M 14.90625 69 
L 7.5 69 
L 7.5 -0.203125 
L 15.09375 -0.203125 
L 15.09375 4.296875 
C 18.90625 0.59375 23.5 -1 27.59375 -1 
C 37.203125 -1 45 8.734375 45 21.59375 
C 45 33.328125 39 44 30.09375 44 
C 23.796875 44 18.203125 41.390625 14.90625 38.6875 
z
M 15.09375 32.734375 
C 17.296875 35.5625 20.40625 37.890625 24.796875 37.890625 
C 30.703125 37.890625 37.40625 33.53125 37.40625 21.59375 
C 37.40625 8.84375 29.40625 5.09375 23.90625 5.09375 
C 21.90625 5.09375 19.796875 5.59375 17.796875 7.3125 
C 15.09375 9.75 15.09375 11.265625 15.09375 12.6875 
z
" id="CMSS17-98"/>
    </defs>
    <g transform="translate(813.310271 25.318173)scale(0.18 -0.18)">
     <use transform="translate(0 25.404611)scale(0.996264)" xlink:href="#CMSS17-40"/>
     <use transform="translate(36.433914 25.404611)scale(0.996264)" xlink:href="#CMSS17-98"/>
     <use transform="translate(84.638857 25.404611)scale(0.996264)" xlink:href="#CMSS17-41"/>
     <use transform="translate(152.301884 25.404611)scale(0.996264)" xlink:href="#CMMI12-80"/>
     <use transform="translate(215.179117 10.460696)scale(0.697382)" xlink:href="#CMMI12-82"/>
     <use transform="translate(267.154467 0)scale(0.498132)" xlink:href="#CMR17-49"/>
    </g>
   </g>
  </g>
  <g id="axes_3">
   <g id="patch_12">
    <path d="M 83.740286 486.317271 
L 542.824286 486.317271 
L 542.824286 295.918173 
L 83.740286 295.918173 
z
" style="fill:#ffffff;"/>
   </g>
   <g id="matplotlib.axis_5">
    <g id="xtick_9">
     <g id="line2d_28">
      <g>
       <use style="stroke:#000000;stroke-width:0.8;" x="104.60774" xlink:href="#mc2a2dad821" y="486.317271"/>
      </g>
     </g>
     <g id="text_26">
      <!-- $0$ -->
      <g transform="translate(100.495597 505.770572)scale(0.18 -0.18)">
       <use transform="scale(0.996264)" xlink:href="#CMR17-48"/>
      </g>
     </g>
    </g>
    <g id="xtick_10">
     <g id="line2d_29">
      <g>
       <use style="stroke:#000000;stroke-width:0.8;" x="243.724104" xlink:href="#mc2a2dad821" y="486.317271"/>
      </g>
     </g>
     <g id="text_27">
      <!-- $10$ -->
      <g transform="translate(235.499818 505.770572)scale(0.18 -0.18)">
       <use transform="scale(0.996264)" xlink:href="#CMR17-49"/>
       <use transform="translate(45.690477 0)scale(0.996264)" xlink:href="#CMR17-48"/>
      </g>
     </g>
    </g>
    <g id="xtick_11">
     <g id="line2d_30">
      <g>
       <use style="stroke:#000000;stroke-width:0.8;" x="382.840468" xlink:href="#mc2a2dad821" y="486.317271"/>
      </g>
     </g>
     <g id="text_28">
      <!-- $20$ -->
      <g transform="translate(374.616182 505.770572)scale(0.18 -0.18)">
       <use transform="scale(0.996264)" xlink:href="#CMR17-50"/>
       <use transform="translate(45.690477 0)scale(0.996264)" xlink:href="#CMR17-48"/>
      </g>
     </g>
    </g>
    <g id="xtick_12">
     <g id="line2d_31">
      <g>
       <use style="stroke:#000000;stroke-width:0.8;" x="521.956831" xlink:href="#mc2a2dad821" y="486.317271"/>
      </g>
     </g>
     <g id="text_29">
      <!-- $30$ -->
      <g transform="translate(513.732545 505.770572)scale(0.18 -0.18)">
       <use transform="scale(0.996264)" xlink:href="#CMR17-51"/>
       <use transform="translate(45.690477 0)scale(0.996264)" xlink:href="#CMR17-48"/>
      </g>
     </g>
    </g>
    <g id="text_30">
     <!-- time -->
     <g transform="translate(297.813066 525.711936)scale(0.18 -0.18)">
      <use transform="scale(0.996264)" xlink:href="#CMSS17-116"/>
      <use transform="translate(33.831567 0)scale(0.996264)" xlink:href="#CMSS17-105"/>
      <use transform="translate(56.01229 0)scale(0.996264)" xlink:href="#CMSS17-109"/>
      <use transform="translate(130.241544 0)scale(0.996264)" xlink:href="#CMSS17-101"/>
     </g>
    </g>
   </g>
   <g id="matplotlib.axis_6">
    <g id="ytick_12">
     <g id="line2d_32">
      <g>
       <use style="stroke:#000000;stroke-width:0.8;" x="83.740286" xlink:href="#m47bbb51d3b" y="479.545041"/>
      </g>
     </g>
     <g id="text_31">
      <!-- $0.0000$ -->
      <g transform="translate(30.741364 485.771691)scale(0.18 -0.18)">
       <use transform="scale(0.996264)" xlink:href="#CMR17-48"/>
       <use transform="translate(45.690477 0)scale(0.996264)" xlink:href="#CMMI12-58"/>
       <use transform="translate(72.787654 0)scale(0.996264)" xlink:href="#CMR17-48"/>
       <use transform="translate(118.478131 0)scale(0.996264)" xlink:href="#CMR17-48"/>
       <use transform="translate(164.168608 0)scale(0.996264)" xlink:href="#CMR17-48"/>
       <use transform="translate(209.859086 0)scale(0.996264)" xlink:href="#CMR17-48"/>
      </g>
     </g>
    </g>
    <g id="ytick_13">
     <g id="line2d_33">
      <g>
       <use style="stroke:#000000;stroke-width:0.8;" x="83.740286" xlink:href="#m47bbb51d3b" y="433.638324"/>
      </g>
     </g>
     <g id="text_32">
      <!-- $0.0025$ -->
      <g transform="translate(30.741364 439.864974)scale(0.18 -0.18)">
       <use transform="scale(0.996264)" xlink:href="#CMR17-48"/>
       <use transform="translate(45.690477 0)scale(0.996264)" xlink:href="#CMMI12-58"/>
       <use transform="translate(72.787654 0)scale(0.996264)" xlink:href="#CMR17-48"/>
       <use transform="translate(118.478131 0)scale(0.996264)" xlink:href="#CMR17-48"/>
       <use transform="translate(164.168608 0)scale(0.996264)" xlink:href="#CMR17-50"/>
       <use transform="translate(209.859086 0)scale(0.996264)" xlink:href="#CMR17-53"/>
      </g>
     </g>
    </g>
    <g id="ytick_14">
     <g id="line2d_34">
      <g>
       <use style="stroke:#000000;stroke-width:0.8;" x="83.740286" xlink:href="#m47bbb51d3b" y="387.731607"/>
      </g>
     </g>
     <g id="text_33">
      <!-- $0.0050$ -->
      <g transform="translate(30.741364 393.958257)scale(0.18 -0.18)">
       <use transform="scale(0.996264)" xlink:href="#CMR17-48"/>
       <use transform="translate(45.690477 0)scale(0.996264)" xlink:href="#CMMI12-58"/>
       <use transform="translate(72.787654 0)scale(0.996264)" xlink:href="#CMR17-48"/>
       <use transform="translate(118.478131 0)scale(0.996264)" xlink:href="#CMR17-48"/>
       <use transform="translate(164.168608 0)scale(0.996264)" xlink:href="#CMR17-53"/>
       <use transform="translate(209.859086 0)scale(0.996264)" xlink:href="#CMR17-48"/>
      </g>
     </g>
    </g>
    <g id="ytick_15">
     <g id="line2d_35">
      <g>
       <use style="stroke:#000000;stroke-width:0.8;" x="83.740286" xlink:href="#m47bbb51d3b" y="341.82489"/>
      </g>
     </g>
     <g id="text_34">
      <!-- $0.0075$ -->
      <g transform="translate(30.741364 348.05154)scale(0.18 -0.18)">
       <use transform="scale(0.996264)" xlink:href="#CMR17-48"/>
       <use transform="translate(45.690477 0)scale(0.996264)" xlink:href="#CMMI12-58"/>
       <use transform="translate(72.787654 0)scale(0.996264)" xlink:href="#CMR17-48"/>
       <use transform="translate(118.478131 0)scale(0.996264)" xlink:href="#CMR17-48"/>
       <use transform="translate(164.168608 0)scale(0.996264)" xlink:href="#CMR17-55"/>
       <use transform="translate(209.859086 0)scale(0.996264)" xlink:href="#CMR17-53"/>
      </g>
     </g>
    </g>
    <g id="ytick_16">
     <g id="line2d_36">
      <g>
       <use style="stroke:#000000;stroke-width:0.8;" x="83.740286" xlink:href="#m47bbb51d3b" y="295.918173"/>
      </g>
     </g>
     <g id="text_35">
      <!-- $0.0100$ -->
      <g transform="translate(30.741364 302.144823)scale(0.18 -0.18)">
       <use transform="scale(0.996264)" xlink:href="#CMR17-48"/>
       <use transform="translate(45.690477 0)scale(0.996264)" xlink:href="#CMMI12-58"/>
       <use transform="translate(72.787654 0)scale(0.996264)" xlink:href="#CMR17-48"/>
       <use transform="translate(118.478131 0)scale(0.996264)" xlink:href="#CMR17-49"/>
       <use transform="translate(164.168608 0)scale(0.996264)" xlink:href="#CMR17-48"/>
       <use transform="translate(209.859086 0)scale(0.996264)" xlink:href="#CMR17-48"/>
      </g>
     </g>
    </g>
    <g id="text_36">
     <!-- $P_I$ -->
     <g transform="translate(23.2533 399.487178)rotate(-90)scale(0.18 -0.18)">
      <use transform="translate(0 14.943915)scale(0.996264)" xlink:href="#CMMI12-80"/>
      <use transform="translate(62.877232 0)scale(0.697382)" xlink:href="#CMMI12-73"/>
     </g>
    </g>
   </g>
   <g id="line2d_37">
    <path clip-path="url(#p547a90be3b)" d="M 104.60774 477.708773 
L 111.703384 476.989783 
L 117.839029 476.148714 
L 123.223371 475.190574 
L 128.065105 474.106855 
L 132.489448 472.890715 
L 136.579878 471.536207 
L 140.378134 470.045607 
L 143.967695 468.398633 
L 147.3903 466.582598 
L 150.645949 464.605 
L 153.818119 462.417652 
L 156.906811 460.016869 
L 159.953764 457.364408 
L 162.958978 454.452192 
L 165.964192 451.229202 
L 169.011145 447.631256 
L 172.099837 443.63747 
L 175.313747 439.112697 
L 178.694613 433.962084 
L 182.367652 427.953566 
L 186.666777 420.47745 
L 193.762421 407.602056 
L 199.105024 398.121912 
L 202.527629 392.490488 
L 205.324147 388.304554 
L 207.745014 385.067905 
L 209.915447 382.525323 
L 211.877184 380.554484 
L 213.713703 379.014883 
L 215.425006 377.86202 
L 217.05283 377.028186 
L 218.597176 376.480458 
L 220.099783 376.178559 
L 221.60239 376.105883 
L 223.104997 376.261736 
L 224.607604 376.643426 
L 226.15195 377.26618 
L 227.779774 378.16778 
L 229.491077 379.375569 
L 231.327596 380.951608 
L 233.331072 382.977209 
L 235.501505 385.497856 
L 237.922371 388.659445 
L 240.71889 392.693652 
L 244.058017 397.919093 
L 248.649316 405.554441 
L 260.044085 424.661087 
L 264.259733 431.203583 
L 268.01625 436.6356 
L 271.564072 441.381567 
L 274.986677 445.590295 
L 278.325804 449.344317 
L 281.623191 452.716847 
L 284.87884 455.732866 
L 288.176227 458.486329 
L 291.515354 460.985588 
L 294.937959 463.268171 
L 298.444042 465.338373 
L 302.075342 467.223679 
L 305.873598 468.943356 
L 309.88055 470.510084 
L 314.096198 471.918718 
L 318.645758 473.20129 
L 323.57097 474.353917 
L 328.955311 475.380561 
L 334.924 476.286767 
L 341.643993 477.076036 
L 349.323984 477.748741 
L 358.381365 478.311949 
L 369.400483 478.765638 
L 383.508293 479.112309 
L 403.000445 479.353317 
L 434.346496 479.493322 
L 508.642064 479.542727 
L 521.956831 479.543715 
L 521.956831 479.543715 
" style="fill:none;stroke:#1f77b4;stroke-linecap:square;"/>
   </g>
   <g id="line2d_38">
    <path clip-path="url(#p547a90be3b)" d="M 104.60774 477.708773 
L 111.703384 476.989142 
L 117.79729 476.153427 
L 123.181632 475.195117 
L 128.023366 474.110405 
L 132.405969 472.904775 
L 136.45466 471.564186 
L 140.252917 470.073382 
L 143.800739 468.444822 
L 147.181605 466.650768 
L 150.437253 464.671566 
L 153.567685 462.509311 
L 156.614638 460.13609 
L 159.619852 457.512787 
L 162.583326 454.630094 
L 165.546801 451.435 
L 168.510276 447.912251 
L 171.51549 443.994644 
L 174.604182 439.602087 
L 177.859831 434.577352 
L 181.324175 428.811679 
L 185.205909 421.903478 
L 190.089382 412.72331 
L 200.231979 393.527172 
L 203.487628 387.922183 
L 206.200668 383.681149 
L 208.538057 380.425265 
L 210.625011 377.882871 
L 212.545009 375.883431 
L 214.29805 374.365725 
L 215.967614 373.20981 
L 217.51196 372.402518 
L 219.014567 371.865389 
L 220.475435 371.581887 
L 221.894563 371.533391 
L 223.313692 371.708101 
L 224.77456 372.118704 
L 226.277167 372.780605 
L 227.821513 373.706795 
L 229.491077 374.977287 
L 231.244118 376.596309 
L 233.164116 378.680949 
L 235.25107 381.282266 
L 237.588459 384.560203 
L 240.25976 388.700904 
L 243.473669 394.111306 
L 247.814534 401.890581 
L 259.584955 423.195075 
L 263.633646 429.941849 
L 267.264947 435.571045 
L 270.687551 440.472111 
L 273.984939 444.807491 
L 277.198848 448.667138 
L 280.371019 452.130096 
L 283.50145 455.22332 
L 286.67362 458.046918 
L 289.88753 460.60942 
L 293.143178 462.922371 
L 296.482305 465.024205 
L 299.946649 466.94284 
L 303.577949 468.697428 
L 307.376205 470.283948 
L 311.383157 471.716477 
L 315.682283 473.015763 
L 320.315321 474.181783 
L 325.36575 475.221768 
L 330.958787 476.143575 
L 337.261389 476.951821 
L 344.440511 477.643234 
L 352.871806 478.225122 
L 363.056142 478.696851 
L 375.953519 479.061068 
L 393.525673 479.319946 
L 420.823033 479.476581 
L 479.21601 479.539682 
L 521.956831 479.544211 
L 521.956831 479.544211 
" style="fill:none;stroke:#ff7f0e;stroke-linecap:square;"/>
   </g>
   <g id="line2d_39">
    <path clip-path="url(#p547a90be3b)" d="M 104.60774 477.708773 
L 111.703384 476.987776 
L 117.79729 476.149505 
L 123.139893 475.195387 
L 127.939888 474.116746 
L 132.322491 472.906435 
L 136.329443 471.573198 
L 140.085961 470.091074 
L 143.633783 468.451488 
L 146.972909 466.664438 
L 150.186819 464.691494 
L 153.275511 462.533763 
L 156.280725 460.161663 
L 159.202461 457.572756 
L 162.082457 454.724809 
L 164.962454 451.561244 
L 167.842451 448.062556 
L 170.722448 444.212725 
L 173.685923 439.873346 
L 176.732876 435.008076 
L 179.905046 429.516251 
L 183.327651 423.132861 
L 187.167646 415.481003 
L 192.092858 405.132343 
L 200.899805 386.56309 
L 204.155453 380.277667 
L 206.785015 375.666015 
L 209.038926 372.139441 
L 211.084141 369.341597 
L 212.920661 367.195781 
L 214.590224 365.57249 
L 216.13457 364.365932 
L 217.595438 363.497029 
L 218.972828 362.927693 
L 220.308478 362.611686 
L 221.60239 362.529376 
L 222.896301 362.667684 
L 224.231952 363.040415 
L 225.609342 363.665954 
L 227.028471 364.560603 
L 228.531078 365.775365 
L 230.158902 367.387648 
L 231.911943 369.44749 
L 233.831941 372.057285 
L 235.960634 375.336757 
L 238.381501 379.488511 
L 241.219759 384.81347 
L 244.851059 392.128737 
L 252.07192 407.322514 
L 257.331045 418.098172 
L 261.254519 425.642308 
L 264.760602 431.910209 
L 268.01625 437.283236 
L 271.146681 442.02539 
L 274.193634 446.239595 
L 277.157109 449.966064 
L 280.120584 453.339509 
L 283.084059 456.378434 
L 286.047534 459.104257 
L 289.094487 461.604669 
L 292.183179 463.852752 
L 295.35535 465.88907 
L 298.652737 467.7427 
L 302.117081 469.433306 
L 305.748381 470.956947 
L 309.630116 472.341545 
L 313.762285 473.578101 
L 318.270106 474.691917 
L 323.195318 475.677017 
L 328.704877 476.547436 
L 334.924 477.299559 
L 342.103123 477.938156 
L 350.617895 478.465789 
L 361.136144 478.885757 
L 374.868303 479.199039 
L 394.56915 479.408015 
L 428.836937 479.517725 
L 521.956831 479.544701 
L 521.956831 479.544701 
" style="fill:none;stroke:#2ca02c;stroke-linecap:square;"/>
   </g>
   <g id="line2d_40">
    <path clip-path="url(#p547a90be3b)" d="M 104.60774 477.708773 
L 111.661645 476.988919 
L 117.713812 476.1517 
L 123.014676 475.198004 
L 127.772931 474.118355 
L 132.072057 472.917412 
L 136.03727 471.579694 
L 139.710309 470.106133 
L 143.132914 468.495255 
L 146.388562 466.716742 
L 149.477254 464.775713 
L 152.440729 462.650492 
L 155.320726 460.308441 
L 158.117245 457.743968 
L 160.830285 454.954557 
L 163.501586 451.890852 
L 166.172888 448.485958 
L 168.844189 444.714586 
L 171.51549 440.553767 
L 174.228531 435.909819 
L 176.98331 430.749655 
L 179.863307 424.871424 
L 182.868521 418.222739 
L 186.124169 410.469618 
L 189.880687 400.927847 
L 195.473724 386.02456 
L 200.941544 371.646434 
L 203.988497 364.244918 
L 206.451103 358.826525 
L 208.538057 354.748797 
L 210.374577 351.622948 
L 212.04414 349.20385 
L 213.546747 347.400683 
L 214.924137 346.078129 
L 216.218048 345.135845 
L 217.428482 344.525125 
L 218.555437 344.196001 
L 219.682392 344.099882 
L 220.767608 344.227868 
L 221.894563 344.58855 
L 223.063258 345.204623 
L 224.273691 346.09716 
L 225.567603 347.329094 
L 226.986732 348.996844 
L 228.531078 351.167208 
L 230.24238 353.972711 
L 232.162378 357.5716 
L 234.33281 362.137105 
L 236.878894 368.039478 
L 240.051065 375.990973 
L 245.101494 389.345131 
L 251.571051 406.312902 
L 255.369308 415.643786 
L 258.708435 423.268694 
L 261.797127 429.774248 
L 264.718863 435.418703 
L 267.55712 440.423582 
L 270.3119 444.838794 
L 273.02494 448.776917 
L 275.737981 452.328814 
L 278.451021 455.518639 
L 281.2058 458.41391 
L 283.96058 460.990934 
L 286.798838 463.342814 
L 289.720573 465.473497 
L 292.725787 467.389956 
L 295.856219 469.123138 
L 299.153606 470.693766 
L 302.659689 472.11469 
L 306.416207 473.393074 
L 310.464898 474.532463 
L 314.88924 475.54325 
L 319.814452 476.435213 
L 325.36575 477.208331 
L 331.75183 477.866086 
L 339.264865 478.409342 
L 348.489202 478.843964 
L 360.384841 479.169841 
L 377.163952 479.390364 
L 405.421312 479.510515 
L 484.516874 479.544533 
L 521.956831 479.544972 
L 521.956831 479.544972 
" style="fill:none;stroke:#d62728;stroke-linecap:square;"/>
   </g>
   <g id="patch_13">
    <path d="M 83.740286 486.317271 
L 83.740286 295.918173 
" style="fill:none;stroke:#000000;stroke-linecap:square;stroke-linejoin:miter;stroke-width:0.8;"/>
   </g>
   <g id="patch_14">
    <path d="M 542.824286 486.317271 
L 542.824286 295.918173 
" style="fill:none;stroke:#000000;stroke-linecap:square;stroke-linejoin:miter;stroke-width:0.8;"/>
   </g>
   <g id="patch_15">
    <path d="M 83.740286 486.317271 
L 542.824286 486.317271 
" style="fill:none;stroke:#000000;stroke-linecap:square;stroke-linejoin:miter;stroke-width:0.8;"/>
   </g>
   <g id="patch_16">
    <path d="M 83.740286 295.918173 
L 542.824286 295.918173 
" style="fill:none;stroke:#000000;stroke-linecap:square;stroke-linejoin:miter;stroke-width:0.8;"/>
   </g>
   <g id="text_37">
    <!-- (c) $P_{I_2}$ -->
    <defs>
     <path d="M 38.5 39.6875 
C 38.5 40.390625 33.90625 42.390625 32.703125 42.796875 
C 29.40625 44 25.203125 44 24.09375 44 
C 11.09375 44 3.296875 32.6875 3.296875 21.296875 
C 3.296875 9.296875 12 -1 23.703125 -1 
C 30.40625 -1 35.203125 1.1875 39.09375 3.796875 
L 38.5 10.390625 
C 34.203125 7.09375 29.203125 5.296875 23.796875 5.296875 
C 16 5.296875 10.90625 12.09375 10.90625 21.390625 
C 10.90625 28.59375 14.203125 37.6875 24.203125 37.6875 
C 29.703125 37.6875 32.796875 36.59375 37.40625 33.484375 
z
" id="CMSS17-99"/>
    </defs>
    <g transform="translate(289.492781 289.918173)scale(0.18 -0.18)">
     <use transform="translate(0 25.404611)scale(0.996264)" xlink:href="#CMSS17-40"/>
     <use transform="translate(36.433914 25.404611)scale(0.996264)" xlink:href="#CMSS17-99"/>
     <use transform="translate(78.072736 25.404611)scale(0.996264)" xlink:href="#CMSS17-41"/>
     <use transform="translate(145.735763 25.404611)scale(0.996264)" xlink:href="#CMMI12-80"/>
     <use transform="translate(208.612995 10.460696)scale(0.697382)" xlink:href="#CMMI12-73"/>
     <use transform="translate(238.729779 0)scale(0.498132)" xlink:href="#CMR17-50"/>
    </g>
   </g>
  </g>
  <g id="axes_4">
   <g id="patch_17">
    <path d="M 610.116 486.317271 
L 1069.2 486.317271 
L 1069.2 295.918173 
L 610.116 295.918173 
z
" style="fill:#ffffff;"/>
   </g>
   <g id="matplotlib.axis_7">
    <g id="xtick_13">
     <g id="line2d_41">
      <g>
       <use style="stroke:#000000;stroke-width:0.8;" x="630.983454" xlink:href="#mc2a2dad821" y="486.317271"/>
      </g>
     </g>
     <g id="text_38">
      <!-- $0$ -->
      <g transform="translate(626.871311 505.770572)scale(0.18 -0.18)">
       <use transform="scale(0.996264)" xlink:href="#CMR17-48"/>
      </g>
     </g>
    </g>
    <g id="xtick_14">
     <g id="line2d_42">
      <g>
       <use style="stroke:#000000;stroke-width:0.8;" x="770.099818" xlink:href="#mc2a2dad821" y="486.317271"/>
      </g>
     </g>
     <g id="text_39">
      <!-- $10$ -->
      <g transform="translate(761.875532 505.770572)scale(0.18 -0.18)">
       <use transform="scale(0.996264)" xlink:href="#CMR17-49"/>
       <use transform="translate(45.690477 0)scale(0.996264)" xlink:href="#CMR17-48"/>
      </g>
     </g>
    </g>
    <g id="xtick_15">
     <g id="line2d_43">
      <g>
       <use style="stroke:#000000;stroke-width:0.8;" x="909.216182" xlink:href="#mc2a2dad821" y="486.317271"/>
      </g>
     </g>
     <g id="text_40">
      <!-- $20$ -->
      <g transform="translate(900.991896 505.770572)scale(0.18 -0.18)">
       <use transform="scale(0.996264)" xlink:href="#CMR17-50"/>
       <use transform="translate(45.690477 0)scale(0.996264)" xlink:href="#CMR17-48"/>
      </g>
     </g>
    </g>
    <g id="xtick_16">
     <g id="line2d_44">
      <g>
       <use style="stroke:#000000;stroke-width:0.8;" x="1048.332545" xlink:href="#mc2a2dad821" y="486.317271"/>
      </g>
     </g>
     <g id="text_41">
      <!-- $30$ -->
      <g transform="translate(1040.10826 505.770572)scale(0.18 -0.18)">
       <use transform="scale(0.996264)" xlink:href="#CMR17-51"/>
       <use transform="translate(45.690477 0)scale(0.996264)" xlink:href="#CMR17-48"/>
      </g>
     </g>
    </g>
    <g id="text_42">
     <!-- time -->
     <g transform="translate(824.18878 525.711936)scale(0.18 -0.18)">
      <use transform="scale(0.996264)" xlink:href="#CMSS17-116"/>
      <use transform="translate(33.831567 0)scale(0.996264)" xlink:href="#CMSS17-105"/>
      <use transform="translate(56.01229 0)scale(0.996264)" xlink:href="#CMSS17-109"/>
      <use transform="translate(130.241544 0)scale(0.996264)" xlink:href="#CMSS17-101"/>
     </g>
    </g>
   </g>
   <g id="matplotlib.axis_8">
    <g id="ytick_17">
     <g id="line2d_45">
      <g>
       <use style="stroke:#000000;stroke-width:0.8;" x="610.116" xlink:href="#m47bbb51d3b" y="478.063226"/>
      </g>
     </g>
     <g id="text_43">
      <!-- $0.00$ -->
      <g transform="translate(573.56565 484.289876)scale(0.18 -0.18)">
       <use transform="scale(0.996264)" xlink:href="#CMR17-48"/>
       <use transform="translate(45.690477 0)scale(0.996264)" xlink:href="#CMMI12-58"/>
       <use transform="translate(72.787654 0)scale(0.996264)" xlink:href="#CMR17-48"/>
       <use transform="translate(118.478131 0)scale(0.996264)" xlink:href="#CMR17-48"/>
      </g>
     </g>
    </g>
    <g id="ytick_18">
     <g id="line2d_46">
      <g>
       <use style="stroke:#000000;stroke-width:0.8;" x="610.116" xlink:href="#m47bbb51d3b" y="441.634215"/>
      </g>
     </g>
     <g id="text_44">
      <!-- $0.05$ -->
      <g transform="translate(573.56565 447.860865)scale(0.18 -0.18)">
       <use transform="scale(0.996264)" xlink:href="#CMR17-48"/>
       <use transform="translate(45.690477 0)scale(0.996264)" xlink:href="#CMMI12-58"/>
       <use transform="translate(72.787654 0)scale(0.996264)" xlink:href="#CMR17-48"/>
       <use transform="translate(118.478131 0)scale(0.996264)" xlink:href="#CMR17-53"/>
      </g>
     </g>
    </g>
    <g id="ytick_19">
     <g id="line2d_47">
      <g>
       <use style="stroke:#000000;stroke-width:0.8;" x="610.116" xlink:href="#m47bbb51d3b" y="405.205205"/>
      </g>
     </g>
     <g id="text_45">
      <!-- $0.10$ -->
      <g transform="translate(573.56565 411.431855)scale(0.18 -0.18)">
       <use transform="scale(0.996264)" xlink:href="#CMR17-48"/>
       <use transform="translate(45.690477 0)scale(0.996264)" xlink:href="#CMMI12-58"/>
       <use transform="translate(72.787654 0)scale(0.996264)" xlink:href="#CMR17-49"/>
       <use transform="translate(118.478131 0)scale(0.996264)" xlink:href="#CMR17-48"/>
      </g>
     </g>
    </g>
    <g id="ytick_20">
     <g id="line2d_48">
      <g>
       <use style="stroke:#000000;stroke-width:0.8;" x="610.116" xlink:href="#m47bbb51d3b" y="368.776194"/>
      </g>
     </g>
     <g id="text_46">
      <!-- $0.15$ -->
      <g transform="translate(573.56565 375.002844)scale(0.18 -0.18)">
       <use transform="scale(0.996264)" xlink:href="#CMR17-48"/>
       <use transform="translate(45.690477 0)scale(0.996264)" xlink:href="#CMMI12-58"/>
       <use transform="translate(72.787654 0)scale(0.996264)" xlink:href="#CMR17-49"/>
       <use transform="translate(118.478131 0)scale(0.996264)" xlink:href="#CMR17-53"/>
      </g>
     </g>
    </g>
    <g id="ytick_21">
     <g id="line2d_49">
      <g>
       <use style="stroke:#000000;stroke-width:0.8;" x="610.116" xlink:href="#m47bbb51d3b" y="332.347184"/>
      </g>
     </g>
     <g id="text_47">
      <!-- $0.20$ -->
      <g transform="translate(573.56565 338.573834)scale(0.18 -0.18)">
       <use transform="scale(0.996264)" xlink:href="#CMR17-48"/>
       <use transform="translate(45.690477 0)scale(0.996264)" xlink:href="#CMMI12-58"/>
       <use transform="translate(72.787654 0)scale(0.996264)" xlink:href="#CMR17-50"/>
       <use transform="translate(118.478131 0)scale(0.996264)" xlink:href="#CMR17-48"/>
      </g>
     </g>
    </g>
    <g id="ytick_22">
     <g id="line2d_50">
      <g>
       <use style="stroke:#000000;stroke-width:0.8;" x="610.116" xlink:href="#m47bbb51d3b" y="295.918173"/>
      </g>
     </g>
     <g id="text_48">
      <!-- $0.25$ -->
      <g transform="translate(573.56565 302.144823)scale(0.18 -0.18)">
       <use transform="scale(0.996264)" xlink:href="#CMR17-48"/>
       <use transform="translate(45.690477 0)scale(0.996264)" xlink:href="#CMMI12-58"/>
       <use transform="translate(72.787654 0)scale(0.996264)" xlink:href="#CMR17-50"/>
       <use transform="translate(118.478131 0)scale(0.996264)" xlink:href="#CMR17-53"/>
      </g>
     </g>
    </g>
    <g id="text_49">
     <!-- $P_R$ -->
     <g transform="translate(566.077586 401.454448)rotate(-90)scale(0.18 -0.18)">
      <use transform="translate(0 14.943915)scale(0.996264)" xlink:href="#CMMI12-80"/>
      <use transform="translate(62.877232 0)scale(0.697382)" xlink:href="#CMMI12-82"/>
     </g>
    </g>
   </g>
   <g id="line2d_51">
    <path clip-path="url(#p22f7737fb3)" d="M 630.983454 478.063226 
L 642.670398 477.615881 
L 651.811257 477.051734 
L 659.366031 476.369268 
L 665.835589 475.566685 
L 671.512104 474.642808 
L 676.604272 473.592035 
L 681.23731 472.411684 
L 685.494697 471.101393 
L 689.501649 469.636901 
L 693.258166 468.029828 
L 696.847727 466.254864 
L 700.312071 464.294869 
L 703.692937 462.125281 
L 706.990324 459.744553 
L 710.245973 457.119976 
L 713.501621 454.208739 
L 716.799009 450.957275 
L 720.138136 447.348367 
L 723.56074 443.320128 
L 727.150302 438.74842 
L 730.990297 433.490674 
L 735.247684 427.27084 
L 740.214635 419.60333 
L 747.435496 407.997274 
L 757.035485 392.629821 
L 762.127653 384.911615 
L 766.468518 378.725781 
L 770.433731 373.454228 
L 774.190248 368.826349 
L 777.779809 364.75212 
L 781.285892 361.104881 
L 784.750236 357.81981 
L 788.172841 354.876192 
L 791.637185 352.188569 
L 795.143268 349.750325 
L 798.69109 347.551592 
L 802.364129 345.537007 
L 806.162386 343.708323 
L 810.127599 342.047232 
L 814.301507 340.541334 
L 818.72585 339.182652 
L 823.484105 337.95636 
L 828.659751 336.856292 
L 834.336267 335.881735 
L 840.638868 335.029355 
L 847.776251 334.292776 
L 856.04059 333.668754 
L 865.891014 333.154864 
L 878.120565 332.748982 
L 894.231851 332.449707 
L 917.730955 332.254391 
L 960.388298 332.157009 
L 1048.332545 332.137832 
L 1048.332545 332.137832 
" style="fill:none;stroke:#1f77b4;stroke-linecap:square;"/>
   </g>
   <g id="line2d_52">
    <path clip-path="url(#p22f7737fb3)" d="M 630.983454 478.063226 
L 642.670398 477.615778 
L 651.811257 477.051205 
L 659.366031 476.367787 
L 665.835589 475.563476 
L 671.512104 474.6368 
L 676.562533 473.591441 
L 681.153832 472.41893 
L 685.411219 471.104967 
L 689.376431 469.6509 
L 693.132949 468.037276 
L 696.72251 466.252015 
L 700.145115 464.302354 
L 703.484241 462.143759 
L 706.73989 459.773983 
L 709.953799 457.159088 
L 713.167709 454.254497 
L 716.381618 451.04781 
L 719.637267 447.483617 
L 722.976393 443.496035 
L 726.440737 439.010388 
L 730.113776 433.886685 
L 734.120728 427.906999 
L 738.712028 420.639187 
L 744.638977 410.80679 
L 758.412875 387.807828 
L 763.129391 380.461087 
L 767.26156 374.427373 
L 771.059817 369.267349 
L 774.649378 364.758375 
L 778.113722 360.757306 
L 781.494588 357.186369 
L 784.833714 353.977606 
L 788.172841 351.074135 
L 791.511968 348.461138 
L 794.934572 346.065799 
L 798.398916 343.911768 
L 801.988477 341.942877 
L 805.703256 340.160455 
L 809.584991 338.545855 
L 813.675421 337.086446 
L 818.058024 335.762502 
L 822.774541 334.574727 
L 827.866709 333.524053 
L 833.501485 332.591849 
L 839.804087 331.778756 
L 846.983209 331.081315 
L 855.372765 330.495417 
L 865.515362 330.018263 
L 878.32926 329.649207 
L 895.692719 329.386455 
L 922.48921 329.226175 
L 978.711755 329.160071 
L 1048.332545 329.154144 
L 1048.332545 329.154144 
" style="fill:none;stroke:#ff7f0e;stroke-linecap:square;"/>
   </g>
   <g id="line2d_53">
    <path clip-path="url(#p22f7737fb3)" d="M 630.983454 478.063226 
L 642.670398 477.615557 
L 651.811257 477.050078 
L 659.324292 476.369106 
L 665.75211 475.568643 
L 671.386887 474.64723 
L 676.437316 473.598802 
L 681.028615 472.420046 
L 685.244262 471.109808 
L 689.167736 469.659294 
L 692.840775 468.067752 
L 696.346858 466.308569 
L 699.727724 464.362938 
L 702.983372 462.232957 
L 706.155543 459.892689 
L 709.285974 457.306051 
L 712.374666 454.465769 
L 715.463358 451.323939 
L 718.59379 447.820217 
L 721.76596 443.935001 
L 725.063347 439.539435 
L 728.485952 434.602596 
L 732.158992 428.907273 
L 736.207683 422.208596 
L 740.965938 413.889128 
L 748.061582 400.974156 
L 756.618094 385.498631 
L 761.37635 377.356648 
L 765.425041 370.854188 
L 769.139819 365.300163 
L 772.604163 360.510537 
L 775.94329 356.266148 
L 779.198938 352.483448 
L 782.412847 349.089162 
L 785.585018 346.059737 
L 788.757188 343.334201 
L 791.971097 340.864328 
L 795.226746 338.640333 
L 798.565873 336.626124 
L 802.030216 334.795526 
L 805.661517 333.130617 
L 809.459773 331.635183 
L 813.508464 330.282729 
L 817.849329 329.070451 
L 822.565845 327.988387 
L 827.741492 327.033519 
L 833.501485 326.200953 
L 840.054521 325.48346 
L 847.692773 324.877961 
L 856.833633 324.38463 
L 868.270141 324.000144 
L 883.588385 323.721731 
L 906.628359 323.54668 
L 951.748307 323.467812 
L 1048.332545 323.457212 
L 1048.332545 323.457212 
" style="fill:none;stroke:#2ca02c;stroke-linecap:square;"/>
   </g>
   <g id="line2d_54">
    <path clip-path="url(#p22f7737fb3)" d="M 630.983454 478.063226 
L 642.628658 477.61701 
L 651.727779 477.053252 
L 659.199074 476.373752 
L 665.543415 475.579775 
L 671.094713 474.666357 
L 676.061664 473.626825 
L 680.527746 472.46898 
L 684.618176 471.183474 
L 688.416432 469.760751 
L 692.005994 468.179266 
L 695.386859 466.447262 
L 698.600769 464.553017 
L 701.689461 462.47727 
L 704.694675 460.191286 
L 707.65815 457.654888 
L 710.579886 454.856649 
L 713.459882 451.788423 
L 716.339879 448.394648 
L 719.261615 444.604946 
L 722.22509 440.39568 
L 725.313782 435.615975 
L 728.527691 430.228112 
L 731.992035 423.97775 
L 735.832031 416.57894 
L 740.465069 407.142815 
L 748.478973 390.202733 
L 754.781575 377.126302 
L 759.122439 368.622906 
L 762.837218 361.81949 
L 766.259822 356.004985 
L 769.473732 350.974181 
L 772.562424 346.544528 
L 775.567638 342.616806 
L 778.531113 339.105481 
L 781.452849 335.982286 
L 784.374584 333.178096 
L 787.338059 330.639017 
L 790.343273 328.354621 
L 793.431965 326.285587 
L 796.604136 324.426811 
L 799.901523 322.750414 
L 803.365867 321.23736 
L 807.038906 319.875454 
L 811.004119 318.645609 
L 815.303245 317.550071 
L 820.019761 316.583263 
L 825.237147 315.744643 
L 831.164096 315.021816 
L 838.051045 314.412463 
L 846.273645 313.915875 
L 856.541459 313.528554 
L 870.231878 313.24848 
L 890.725768 313.072459 
L 930.628331 312.993113 
L 1048.332545 312.982311 
L 1048.332545 312.982311 
" style="fill:none;stroke:#d62728;stroke-linecap:square;"/>
   </g>
   <g id="patch_18">
    <path d="M 610.116 486.317271 
L 610.116 295.918173 
" style="fill:none;stroke:#000000;stroke-linecap:square;stroke-linejoin:miter;stroke-width:0.8;"/>
   </g>
   <g id="patch_19">
    <path d="M 1069.2 486.317271 
L 1069.2 295.918173 
" style="fill:none;stroke:#000000;stroke-linecap:square;stroke-linejoin:miter;stroke-width:0.8;"/>
   </g>
   <g id="patch_20">
    <path d="M 610.116 486.317271 
L 1069.2 486.317271 
" style="fill:none;stroke:#000000;stroke-linecap:square;stroke-linejoin:miter;stroke-width:0.8;"/>
   </g>
   <g id="patch_21">
    <path d="M 610.116 295.918173 
L 1069.2 295.918173 
" style="fill:none;stroke:#000000;stroke-linecap:square;stroke-linejoin:miter;stroke-width:0.8;"/>
   </g>
   <g id="text_50">
    <!-- (d) $P_{R_2}$ -->
    <defs>
     <path d="M 40.796875 69 
L 33.40625 69 
L 33.40625 38.984375 
C 30.296875 41.59375 25.203125 44 19.59375 44 
C 10.5 44 3.296875 34.046875 3.296875 21.484375 
C 3.296875 8.9375 10.40625 -1 19.296875 -1 
C 26.203125 -1 30.796875 2.6875 33.203125 4.796875 
L 33.203125 -0.203125 
L 40.796875 -0.203125 
z
M 33.203125 13.296875 
C 33.203125 11.875 33.203125 10.359375 30.09375 7.625 
C 28.09375 5.90625 25.703125 5.09375 23.40625 5.09375 
C 18 5.09375 10.90625 9.140625 10.90625 21.390625 
C 10.90625 34.140625 18.90625 37.890625 24.40625 37.890625 
C 28.09375 37.890625 31.09375 36.0625 33.203125 33.03125 
z
" id="CMSS17-100"/>
    </defs>
    <g transform="translate(813.310271 289.918173)scale(0.18 -0.18)">
     <use transform="translate(0 25.404611)scale(0.996264)" xlink:href="#CMSS17-40"/>
     <use transform="translate(36.433914 25.404611)scale(0.996264)" xlink:href="#CMSS17-100"/>
     <use transform="translate(84.638857 25.404611)scale(0.996264)" xlink:href="#CMSS17-41"/>
     <use transform="translate(152.301884 25.404611)scale(0.996264)" xlink:href="#CMMI12-80"/>
     <use transform="translate(215.179117 10.460696)scale(0.697382)" xlink:href="#CMMI12-82"/>
     <use transform="translate(267.154467 0)scale(0.498132)" xlink:href="#CMR17-50"/>
    </g>
   </g>
  </g>
  <g id="legend_1">
   <g id="patch_22">
    <path d="M 942.8 216 
L 1048.775564 216 
Q 1051.975564 216 1051.975564 212.8 
L 1051.975564 118.639529 
Q 1051.975564 115.439529 1048.775564 115.439529 
L 942.8 115.439529 
Q 939.6 115.439529 939.6 118.639529 
L 939.6 212.8 
Q 939.6 216 942.8 216 
z
" style="fill:#ffffff;opacity:0.8;stroke:#cccccc;stroke-linejoin:miter;"/>
   </g>
   <g id="line2d_55">
    <path d="M 946 129.080171 
L 978 129.080171 
" style="fill:none;stroke:#1f77b4;stroke-linecap:square;"/>
   </g>
   <g id="line2d_56"/>
   <g id="text_51">
    <!-- $\beta_2'$=2 -->
    <defs>
     <path d="M 56.59375 58.421875 
C 56.59375 64.546875 51.5 71 42.40625 71 
C 29.5 71 21.296875 54.84375 18.703125 44.21875 
L 2.90625 -18 
C 2.703125 -18.8125 3.296875 -19 3.796875 -19 
C 4.5 -19 5 -18.90625 5.09375 -18.40625 
L 12.09375 9.25 
C 13.09375 3.609375 18.59375 -1 24.5 -1 
C 38.796875 -1 52.296875 10.265625 52.296875 25.28125 
C 52.296875 29.109375 51.40625 32.9375 49.296875 36.15625 
C 48.09375 38.078125 46.59375 39.484375 45 40.609375 
C 52.203125 44.109375 56.59375 50.34375 56.59375 58.421875 
z
M 39.203125 40.703125 
C 37.59375 40.171875 36 40 34.09375 40 
C 32.703125 40 31.40625 39.890625 29.59375 40.4375 
C 30.59375 41.046875 32.09375 41.234375 34.203125 41.234375 
C 36 41.234375 37.796875 41.046875 39.203125 40.703125 
z
M 51.40625 59.34375 
C 51.40625 53.71875 48.703125 45.546875 42.203125 41.9375 
C 40.296875 42.546875 37.703125 43 35.5 43 
C 33.40625 43 27.40625 43.203125 27.40625 40.34375 
C 27.40625 37.671875 32.90625 37.96875 34.59375 37.96875 
C 37.203125 37.96875 39.5 38.578125 41.90625 39.28125 
C 45.09375 36.671875 46.5 33.234375 46.5 28.203125 
C 46.5 22.359375 44.90625 17.625 43 13.28125 
C 39.703125 5.828125 31.90625 1 25 1 
C 17.703125 1 13.90625 6.84375 13.90625 13.6875 
C 13.90625 14.59375 13.90625 15.90625 14.296875 17.421875 
L 20.796875 43.5 
C 24.09375 56.890625 32.5 68.953125 42.203125 68.953125 
C 49.40625 68.953125 51.40625 63.84375 51.40625 59.34375 
z
" id="CMMI12-12"/>
     <path d="M 25.296875 47.625 
C 25.796875 48.828125 26.203125 49.71875 26.203125 50.71875 
C 26.203125 53.59375 23.59375 56 20.5 56 
C 17.703125 56 15.90625 54.09375 15.203125 51.515625 
L 3.296875 8.078125 
C 3.296875 7.890625 2.90625 6.796875 2.90625 6.6875 
C 2.90625 5.59375 5.5 4.890625 6.296875 4.890625 
C 6.90625 4.890625 7 5.1875 7.59375 6.484375 
z
" id="CMSY10-48"/>
     <path d="M 64.796875 32 
C 66.296875 32 67.796875 32 67.796875 33.6875 
C 67.796875 35.5 66.09375 35.5 64.40625 35.5 
L 8.59375 35.5 
C 6.90625 35.5 5.203125 35.5 5.203125 33.6875 
C 5.203125 32 6.703125 32 8.203125 32 
z
M 64.40625 14.484375 
C 66.09375 14.484375 67.796875 14.484375 67.796875 16.296875 
C 67.796875 18 66.296875 18 64.796875 18 
L 8.203125 18 
C 6.703125 18 5.203125 18 5.203125 16.296875 
C 5.203125 14.484375 6.90625 14.484375 8.59375 14.484375 
z
" id="CMSS17-61"/>
     <path d="M 25.796875 21.140625 
C 28.59375 24.03125 32.796875 27.515625 35.703125 31 
C 38.5 34.390625 42.203125 39.171875 42.203125 46.140625 
C 42.203125 57.109375 34.796875 67 22.203125 67 
C 12.296875 67 6.59375 60.796875 3.90625 51.125 
L 7.796875 45.75 
C 10 54.8125 13.09375 60.59375 20.90625 60.59375 
C 29.5 60.59375 34.296875 53.609375 34.296875 45.9375 
C 34.296875 36.78125 27.296875 29.703125 22 24.421875 
C 16.09375 18.546875 10.296875 12.578125 4.703125 6.390625 
L 4.703125 0 
L 42.203125 0 
L 42.203125 6.796875 
L 25.203125 6.796875 
C 24 6.796875 22.796875 6.6875 21.59375 6.6875 
L 11.59375 6.6875 
L 11.59375 6.796875 
z
" id="CMSS17-50"/>
    </defs>
    <g transform="translate(990.8 134.680171)scale(0.16 -0.16)">
     <use transform="translate(0 24.740171)scale(0.996264)" xlink:href="#CMMI12-12"/>
     <use transform="translate(60.594016 60.89381)scale(0.697382)" xlink:href="#CMSY10-48"/>
     <use transform="translate(55.070737 0)scale(0.697382)" xlink:href="#CMR17-50"/>
     <use transform="translate(87.552051 24.740171)scale(0.996264)" xlink:href="#CMSS17-61"/>
     <use transform="translate(160.419986 24.740171)scale(0.996264)" xlink:href="#CMSS17-50"/>
    </g>
   </g>
   <g id="line2d_57">
    <path d="M 946 153.020288 
L 978 153.020288 
" style="fill:none;stroke:#ff7f0e;stroke-linecap:square;"/>
   </g>
   <g id="line2d_58"/>
   <g id="text_52">
    <!-- $\beta_2'$=6.15 -->
    <defs>
     <path d="M 39 64.984375 
C 34.796875 66.6875 31.796875 67 29 67 
C 16 67 3.90625 53.25 3.90625 31.609375 
C 3.90625 4.1875 15.40625 -2 23.59375 -2 
C 28.09375 -2 32.59375 -0.609375 36.90625 4.390625 
C 41.296875 9.671875 43 14.0625 43 21.75 
C 43 34.109375 36.90625 45.09375 27.796875 45.09375 
C 21.203125 45.09375 15.5 41.59375 12 37.203125 
C 13 51.40625 19.59375 60.890625 29.09375 60.890625 
C 31.703125 60.890625 35.09375 60.484375 39 58.75 
z
M 12.09375 21.4375 
C 12.09375 22.234375 12.09375 22.734375 12.203125 24.234375 
C 12.203125 32.015625 16.703125 39 24 39 
C 28.703125 39 31.09375 36.5 32.90625 33.40625 
C 35 29.515625 35.09375 25.828125 35.09375 21.75 
C 35.09375 17.859375 35.09375 13.96875 32.796875 9.96875 
C 30.90625 6.890625 28.40625 4.1875 23.59375 4.1875 
C 14.09375 4.1875 12.5 17.453125 12.09375 21.4375 
z
" id="CMSS17-54"/>
     <path d="M 17 8 
L 9 8 
L 9 0 
L 17 0 
z
" id="CMSS17-46"/>
     <path d="M 28.40625 67 
L 26.5 67 
C 21.09375 61.703125 14.796875 60.96875 8.40625 60.796875 
L 8.40625 55 
C 11.296875 55.09375 16 55.296875 20.703125 57.390625 
L 20.703125 5.796875 
L 8.90625 5.796875 
L 8.90625 0 
L 40.203125 0 
L 40.203125 5.796875 
L 28.40625 5.796875 
z
" id="CMSS17-49"/>
     <path d="M 14.59375 59.59375 
L 39.09375 59.59375 
L 39.09375 66 
L 7.296875 66 
L 7.296875 28.59375 
L 14 28.59375 
C 15.796875 32.859375 19.5 36 24.296875 36 
C 28.796875 36 33.796875 31.9375 33.796875 20.296875 
C 33.796875 7.84375 26.703125 4.1875 21.5 4.1875 
C 15.09375 4.1875 9.203125 8.140625 6.59375 13.609375 
L 3.40625 7.9375 
C 8 0.796875 15.5 -2 21.5 -2 
C 33.09375 -2 42.203125 7.9375 42.203125 20.09375 
C 42.203125 32.546875 34.09375 42.09375 24.40625 42.09375 
C 20.90625 42.09375 17.5 40.890625 14.59375 38.5 
z
" id="CMSS17-53"/>
    </defs>
    <g transform="translate(990.8 158.620288)scale(0.16 -0.16)">
     <use transform="translate(0 24.740171)scale(0.996264)" xlink:href="#CMMI12-12"/>
     <use transform="translate(60.594016 60.89381)scale(0.697382)" xlink:href="#CMSY10-48"/>
     <use transform="translate(55.070737 0)scale(0.697382)" xlink:href="#CMR17-50"/>
     <use transform="translate(87.552051 24.740171)scale(0.996264)" xlink:href="#CMSS17-61"/>
     <use transform="translate(160.419986 24.740171)scale(0.996264)" xlink:href="#CMSS17-54"/>
     <use transform="translate(207.263609 24.740171)scale(0.996264)" xlink:href="#CMSS17-46"/>
     <use transform="translate(233.287814 24.740171)scale(0.996264)" xlink:href="#CMSS17-49"/>
     <use transform="translate(280.131438 24.740171)scale(0.996264)" xlink:href="#CMSS17-53"/>
    </g>
   </g>
   <g id="line2d_59">
    <path d="M 946 176.960406 
L 978 176.960406 
" style="fill:none;stroke:#2ca02c;stroke-linecap:square;"/>
   </g>
   <g id="line2d_60"/>
   <g id="text_53">
    <!-- $\beta_2'$=15 -->
    <g transform="translate(990.8 182.560406)scale(0.16 -0.16)">
     <use transform="translate(0 24.740171)scale(0.996264)" xlink:href="#CMMI12-12"/>
     <use transform="translate(60.594016 60.89381)scale(0.697382)" xlink:href="#CMSY10-48"/>
     <use transform="translate(55.070737 0)scale(0.697382)" xlink:href="#CMR17-50"/>
     <use transform="translate(87.552051 24.740171)scale(0.996264)" xlink:href="#CMSS17-61"/>
     <use transform="translate(160.419986 24.740171)scale(0.996264)" xlink:href="#CMSS17-49"/>
     <use transform="translate(207.263609 24.740171)scale(0.996264)" xlink:href="#CMSS17-53"/>
    </g>
   </g>
   <g id="line2d_61">
    <path d="M 946 200.900524 
L 978 200.900524 
" style="fill:none;stroke:#d62728;stroke-linecap:square;"/>
   </g>
   <g id="line2d_62"/>
   <g id="text_54">
    <!-- $\beta_2'$=40 -->
    <defs>
     <path d="M 35.203125 17 
L 44.296875 17 
L 44.296875 23.09375 
L 35.203125 23.09375 
L 35.203125 66 
L 26.40625 66 
L 2.59375 23.09375 
L 2.59375 17 
L 27.296875 17 
L 27.296875 0 
L 35.203125 0 
z
M 10.296875 23.09375 
C 16.09375 33.421875 27.59375 54.28125 27.59375 61.359375 
L 27.59375 23.09375 
z
" id="CMSS17-52"/>
     <path d="M 43.09375 32.390625 
C 43.09375 38.109375 43 48.75 38.90625 56.984375 
C 34.796875 64.890625 28.203125 67 23.5 67 
C 16.703125 67 10.90625 62.984375 7.90625 56.578125 
C 4.703125 49.859375 3.796875 42.9375 3.796875 32.390625 
C 3.796875 25.171875 4.09375 16.34375 7.703125 8.609375 
C 11.796875 0.09375 18.703125 -2 23.40625 -2 
C 29.59375 -2 35.59375 1.296875 39 8.203125 
C 42.5 15.4375 43.09375 23.359375 43.09375 32.390625 
z
M 23.40625 4.09375 
C 15.796875 4.09375 13.5 12.828125 12.796875 15.734375 
C 11.59375 20.75 11.40625 25.5625 11.40625 33.5 
C 11.40625 39.71875 11.40625 46.75 13.296875 52.265625 
C 15.59375 58.6875 19.59375 60.890625 23.40625 60.890625 
C 30.796875 60.890625 33.203125 53.46875 34 50.859375 
C 35.5 45.546875 35.5 39.3125 35.5 33.5 
C 35.5 24.15625 35.5 4.09375 23.40625 4.09375 
z
" id="CMSS17-48"/>
    </defs>
    <g transform="translate(990.8 206.500524)scale(0.16 -0.16)">
     <use transform="translate(0 24.740171)scale(0.996264)" xlink:href="#CMMI12-12"/>
     <use transform="translate(60.594016 60.89381)scale(0.697382)" xlink:href="#CMSY10-48"/>
     <use transform="translate(55.070737 0)scale(0.697382)" xlink:href="#CMR17-50"/>
     <use transform="translate(87.552051 24.740171)scale(0.996264)" xlink:href="#CMSS17-61"/>
     <use transform="translate(160.419986 24.740171)scale(0.996264)" xlink:href="#CMSS17-52"/>
     <use transform="translate(207.263609 24.740171)scale(0.996264)" xlink:href="#CMSS17-48"/>
    </g>
   </g>
  </g>
 </g>
 <defs>
  <clipPath id="p84854ef33a">
   <rect height="190.399098" width="459.084" x="83.740286" y="31.318173"/>
  </clipPath>
  <clipPath id="p2d884f6ab7">
   <rect height="190.399098" width="459.084" x="610.116" y="31.318173"/>
  </clipPath>
  <clipPath id="p547a90be3b">
   <rect height="190.399098" width="459.084" x="83.740286" y="295.918173"/>
  </clipPath>
  <clipPath id="p22f7737fb3">
   <rect height="190.399098" width="459.084" x="610.116" y="295.918173"/>
  </clipPath>
 </defs>
</svg>
