<?xml version="1.0" encoding="utf-8" standalone="no"?>
<!DOCTYPE svg PUBLIC "-//W3C//DTD SVG 1.1//EN"
  "http://www.w3.org/Graphics/SVG/1.1/DTD/svg11.dtd">
<!-- Created with matplotlib (https://matplotlib.org/) -->
<svg height="540pt" version="1.1" viewBox="0 0 1080 540" width="1080pt" xmlns="http://www.w3.org/2000/svg" xmlns:xlink="http://www.w3.org/1999/xlink">
 <defs>
  <style type="text/css">
*{stroke-linecap:butt;stroke-linejoin:round;white-space:pre;}
  </style>
 </defs>
 <g id="figure_1">
  <g id="patch_1">
   <path d="M 0 540 
L 1080 540 
L 1080 0 
L 0 0 
z
" style="fill:#ffffff;"/>
  </g>
  <g id="axes_1">
   <g id="patch_2">
    <path d="M 83.740286 221.717271 
L 542.824286 221.717271 
L 542.824286 31.318173 
L 83.740286 31.318173 
z
" style="fill:#ffffff;"/>
   </g>
   <g id="matplotlib.axis_1">
    <g id="xtick_1">
     <g id="line2d_1">
      <defs>
       <path d="M 0 0 
L 0 3.5 
" id="m0596f6a695" style="stroke:#000000;stroke-width:0.8;"/>
      </defs>
      <g>
       <use style="stroke:#000000;stroke-width:0.8;" x="104.60774" xlink:href="#m0596f6a695" y="221.717271"/>
      </g>
     </g>
     <g id="text_1">
      <!-- $0$ -->
      <defs>
       <path d="M 42 31.84375 
C 42 37.96875 41.90625 48.421875 37.703125 56.453125 
C 34 63.484375 28.09375 66 22.90625 66 
C 18.09375 66 12 63.78125 8.203125 56.5625 
C 4.203125 49.015625 3.796875 39.671875 3.796875 31.84375 
C 3.796875 26.109375 3.90625 17.375 7 9.734375 
C 11.296875 -0.609375 19 -2 22.90625 -2 
C 27.5 -2 34.5 -0.109375 38.59375 9.4375 
C 41.59375 16.375 42 24.5 42 31.84375 
z
M 22.90625 -0.40625 
C 16.5 -0.40625 12.703125 5.125 11.296875 12.75 
C 10.203125 18.6875 10.203125 27.328125 10.203125 32.953125 
C 10.203125 40.6875 10.203125 47.109375 11.5 53.234375 
C 13.40625 61.78125 19 64.390625 22.90625 64.390625 
C 27 64.390625 32.296875 61.671875 34.203125 53.4375 
C 35.5 47.71875 35.59375 40.984375 35.59375 32.953125 
C 35.59375 26.421875 35.59375 18.375 34.40625 12.453125 
C 32.296875 1.5 26.40625 -0.40625 22.90625 -0.40625 
z
" id="CMR17-48"/>
      </defs>
      <g transform="translate(100.495597 241.170572)scale(0.18 -0.18)">
       <use transform="scale(0.996264)" xlink:href="#CMR17-48"/>
      </g>
     </g>
    </g>
    <g id="xtick_2">
     <g id="line2d_2">
      <g>
       <use style="stroke:#000000;stroke-width:0.8;" x="243.724104" xlink:href="#m0596f6a695" y="221.717271"/>
      </g>
     </g>
     <g id="text_2">
      <!-- $10$ -->
      <defs>
       <path d="M 26.59375 63.796875 
C 26.59375 65.890625 26.5 66 25.09375 66 
C 21.203125 61.359375 15.296875 59.890625 9.703125 59.6875 
C 9.40625 59.6875 8.90625 59.6875 8.796875 59.5 
C 8.703125 59.296875 8.703125 59.09375 8.703125 57 
C 11.796875 57 17 57.59375 21 59.984375 
L 21 7.296875 
C 21 3.796875 20.796875 2.59375 12.203125 2.59375 
L 9.203125 2.59375 
L 9.203125 0 
C 14 0.09375 19 0.1875 23.796875 0.1875 
C 28.59375 0.1875 33.59375 0.09375 38.40625 0 
L 38.40625 2.59375 
L 35.40625 2.59375 
C 26.796875 2.59375 26.59375 3.6875 26.59375 7.296875 
z
" id="CMR17-49"/>
      </defs>
      <g transform="translate(235.499818 241.170572)scale(0.18 -0.18)">
       <use transform="scale(0.996264)" xlink:href="#CMR17-49"/>
       <use transform="translate(45.690477 0)scale(0.996264)" xlink:href="#CMR17-48"/>
      </g>
     </g>
    </g>
    <g id="xtick_3">
     <g id="line2d_3">
      <g>
       <use style="stroke:#000000;stroke-width:0.8;" x="382.840468" xlink:href="#m0596f6a695" y="221.717271"/>
      </g>
     </g>
     <g id="text_3">
      <!-- $20$ -->
      <defs>
       <path d="M 41.703125 15.46875 
L 39.90625 15.46875 
C 38.90625 8.390625 38.09375 7.1875 37.703125 6.59375 
C 37.203125 5.796875 30 5.796875 28.59375 5.796875 
L 9.40625 5.796875 
C 13 9.6875 20 16.765625 28.5 24.9375 
C 34.59375 30.71875 41.703125 37.5 41.703125 47.390625 
C 41.703125 59.1875 32.296875 66 21.796875 66 
C 10.796875 66 4.09375 56.296875 4.09375 47.296875 
C 4.09375 43.390625 7 42.890625 8.203125 42.890625 
C 9.203125 42.890625 12.203125 43.484375 12.203125 46.984375 
C 12.203125 50.09375 9.59375 51 8.203125 51 
C 7.59375 51 7 50.890625 6.59375 50.6875 
C 8.5 59.1875 14.296875 63.390625 20.40625 63.390625 
C 29.09375 63.390625 34.796875 56.5 34.796875 47.390625 
C 34.796875 38.703125 29.703125 31.21875 24 24.734375 
L 4.09375 2.296875 
L 4.09375 0 
L 39.296875 0 
z
" id="CMR17-50"/>
      </defs>
      <g transform="translate(374.616182 241.170572)scale(0.18 -0.18)">
       <use transform="scale(0.996264)" xlink:href="#CMR17-50"/>
       <use transform="translate(45.690477 0)scale(0.996264)" xlink:href="#CMR17-48"/>
      </g>
     </g>
    </g>
    <g id="xtick_4">
     <g id="line2d_4">
      <g>
       <use style="stroke:#000000;stroke-width:0.8;" x="521.956831" xlink:href="#m0596f6a695" y="221.717271"/>
      </g>
     </g>
     <g id="text_4">
      <!-- $30$ -->
      <defs>
       <path d="M 22.09375 34 
C 31 34 34.90625 26.140625 34.90625 17.09375 
C 34.90625 5.03125 28.5 0.390625 22.703125 0.390625 
C 17.40625 0.390625 8.796875 3.015625 6.09375 10.796875 
C 6.59375 10.59375 7.09375 10.59375 7.59375 10.59375 
C 10 10.59375 11.796875 12.1875 11.796875 14.796875 
C 11.796875 17.6875 9.59375 19 7.59375 19 
C 5.90625 19 3.296875 18.1875 3.296875 14.484375 
C 3.296875 5.234375 12.296875 -2 22.90625 -2 
C 34 -2 42.5 6.75 42.5 16.984375 
C 42.5 26.84375 34.5 34 25 35.09375 
C 32.59375 36.671875 39.90625 43.375 39.90625 52.390625 
C 39.90625 60.25 32 66 23 66 
C 13.90625 66 5.90625 60.34375 5.90625 52.296875 
C 5.90625 48.796875 8.5 48.1875 9.796875 48.1875 
C 11.90625 48.1875 13.703125 49.484375 13.703125 52.09375 
C 13.703125 54.6875 11.90625 56 9.796875 56 
C 9.40625 56 8.90625 56 8.5 55.796875 
C 11.40625 62.484375 19.296875 63.6875 22.796875 63.6875 
C 26.296875 63.6875 32.90625 61.96875 32.90625 52.296875 
C 32.90625 49.484375 32.5 44.546875 29.09375 40.21875 
C 26.09375 36.390625 22.703125 36.1875 19.40625 35.890625 
C 18.90625 35.890625 16.59375 35.6875 16.203125 35.6875 
C 15.5 35.59375 15.09375 35.5 15.09375 34.796875 
C 15.09375 34.09375 15.203125 34 17.203125 34 
z
" id="CMR17-51"/>
      </defs>
      <g transform="translate(513.732545 241.170572)scale(0.18 -0.18)">
       <use transform="scale(0.996264)" xlink:href="#CMR17-51"/>
       <use transform="translate(45.690477 0)scale(0.996264)" xlink:href="#CMR17-48"/>
      </g>
     </g>
    </g>
    <g id="text_5">
     <!-- time -->
     <defs>
      <path d="M 16.703125 37.1875 
L 29.703125 37.1875 
L 29.703125 43 
L 16.703125 43 
L 16.703125 55 
L 9.59375 55 
L 9.59375 43 
L 1.703125 43 
L 1.703125 37.1875 
L 9.40625 37.1875 
L 9.40625 11.734375 
C 9.40625 6 10.703125 -1 17.296875 -1 
C 22.296875 -1 26.90625 0.390625 31.296875 2.6875 
L 29.703125 8.609375 
C 27.296875 6.5 24.40625 5.296875 21.296875 5.296875 
C 16.90625 5.296875 16.703125 10.921875 16.703125 13.4375 
z
" id="CMSS17-116"/>
      <path d="M 15.296875 66 
L 6.90625 66 
L 6.90625 57.59375 
L 15.296875 57.59375 
z
M 14.796875 43 
L 7.40625 43 
L 7.40625 0 
L 14.796875 0 
z
" id="CMSS17-105"/>
      <path d="M 67 29.34375 
C 67 36.078125 65.296875 44 54.09375 44 
C 46.59375 44 42.09375 39.296875 40.09375 36.375 
C 38.296875 41.6875 34.09375 44 28.09375 44 
C 21.296875 44 17 40.09375 14.703125 37.28125 
L 14.703125 43.484375 
L 7.40625 43.484375 
L 7.40625 0 
L 15 0 
L 15 24.3125 
C 15 30.25 17.203125 37.890625 24.296875 37.890625 
C 33.40625 37.890625 33.40625 31.453125 33.40625 28.53125 
L 33.40625 0 
L 41 0 
L 41 24.3125 
C 41 30.25 43.203125 37.890625 50.296875 37.890625 
C 59.40625 37.890625 59.40625 31.453125 59.40625 28.53125 
L 59.40625 0 
L 67 0 
z
" id="CMSS17-109"/>
      <path d="M 39.09375 21.484375 
C 39.09375 24.796875 38.90625 31.265625 35.703125 36.671875 
C 32.203125 42.390625 26.5 44 22.203125 44 
C 11.796875 44 3 34.125 3 21.296875 
C 3 9.046875 12.09375 -1 23.59375 -1 
C 28.09375 -1 33.59375 0.296875 38.59375 3.890625 
C 38.59375 4.296875 38.40625 6.46875 38.296875 6.578125 
C 38.296875 6.765625 38 9.828125 38 10.234375 
C 33.203125 6.375 27.703125 5.09375 23.703125 5.09375 
C 17.296875 5.09375 10.40625 10.421875 10.09375 21.484375 
z
M 10.90625 27 
C 12.203125 32.59375 16.59375 37.890625 22.203125 37.890625 
C 23.703125 37.890625 30.703125 37.6875 32.5 27 
z
" id="CMSS17-101"/>
     </defs>
     <g transform="translate(297.813066 261.111936)scale(0.18 -0.18)">
      <use transform="scale(0.996264)" xlink:href="#CMSS17-116"/>
      <use transform="translate(33.831567 0)scale(0.996264)" xlink:href="#CMSS17-105"/>
      <use transform="translate(56.01229 0)scale(0.996264)" xlink:href="#CMSS17-109"/>
      <use transform="translate(130.241544 0)scale(0.996264)" xlink:href="#CMSS17-101"/>
     </g>
    </g>
   </g>
   <g id="matplotlib.axis_2">
    <g id="ytick_1">
     <g id="line2d_5">
      <defs>
       <path d="M 0 0 
L -3.5 0 
" id="m1746a4187c" style="stroke:#000000;stroke-width:0.8;"/>
      </defs>
      <g>
       <use style="stroke:#000000;stroke-width:0.8;" x="83.740286" xlink:href="#m1746a4187c" y="216.277915"/>
      </g>
     </g>
     <g id="text_6">
      <!-- $0.0000$ -->
      <defs>
       <path d="M 18.40625 4.796875 
C 18.40625 7.6875 16 9.6875 13.59375 9.6875 
C 10.703125 9.6875 8.703125 7.296875 8.703125 4.890625 
C 8.703125 2 11.09375 0 13.5 0 
C 16.40625 0 18.40625 2.390625 18.40625 4.796875 
z
" id="CMMI12-58"/>
      </defs>
      <g transform="translate(30.741364 222.504565)scale(0.18 -0.18)">
       <use transform="scale(0.996264)" xlink:href="#CMR17-48"/>
       <use transform="translate(45.690477 0)scale(0.996264)" xlink:href="#CMMI12-58"/>
       <use transform="translate(72.787654 0)scale(0.996264)" xlink:href="#CMR17-48"/>
       <use transform="translate(118.478131 0)scale(0.996264)" xlink:href="#CMR17-48"/>
       <use transform="translate(164.168608 0)scale(0.996264)" xlink:href="#CMR17-48"/>
       <use transform="translate(209.859086 0)scale(0.996264)" xlink:href="#CMR17-48"/>
      </g>
     </g>
    </g>
    <g id="ytick_2">
     <g id="line2d_6">
      <g>
       <use style="stroke:#000000;stroke-width:0.8;" x="83.740286" xlink:href="#m1746a4187c" y="170.03798"/>
      </g>
     </g>
     <g id="text_7">
      <!-- $0.0025$ -->
      <defs>
       <path d="M 11.40625 58.59375 
C 12.40625 58.1875 16.5 56.890625 20.703125 56.890625 
C 30 56.890625 35.09375 61.890625 38 64.6875 
C 38 65.484375 38 66 37.40625 66 
C 37.296875 66 37.09375 66 36.296875 65.59375 
C 32.796875 64.09375 28.703125 63 23.703125 63 
C 20.703125 63 16.203125 63.359375 11.296875 65.484375 
C 10.203125 66 10 66 9.90625 66 
C 9.40625 66 9.296875 65.890625 9.296875 63.90625 
L 9.296875 34.859375 
C 9.296875 33.015625 9.296875 32.5 10.296875 32.5 
C 10.796875 32.5 11 32.703125 11.5 33.421875 
C 14.703125 38.046875 19.09375 40 24.09375 40 
C 27.59375 40 35.09375 37.734375 35.09375 20.203125 
C 35.09375 16.984375 35.09375 11.1875 32.09375 6.59375 
C 29.59375 2.484375 25.703125 0.390625 21.40625 0.390625 
C 14.796875 0.390625 8.09375 4.984375 6.296875 12.6875 
C 6.703125 12.59375 7.5 12.390625 7.90625 12.390625 
C 9.203125 12.390625 11.703125 13.09375 11.703125 16.1875 
C 11.703125 18.890625 9.796875 20 7.90625 20 
C 5.59375 20 4.09375 18.59375 4.09375 15.796875 
C 4.09375 7.09375 11 -2 21.59375 -2 
C 31.90625 -2 41.703125 6.890625 41.703125 19.796875 
C 41.703125 32.09375 33.90625 41.59375 24.203125 41.59375 
C 19.09375 41.59375 14.796875 39.6875 11.40625 36 
z
" id="CMR17-53"/>
      </defs>
      <g transform="translate(30.741364 176.26463)scale(0.18 -0.18)">
       <use transform="scale(0.996264)" xlink:href="#CMR17-48"/>
       <use transform="translate(45.690477 0)scale(0.996264)" xlink:href="#CMMI12-58"/>
       <use transform="translate(72.787654 0)scale(0.996264)" xlink:href="#CMR17-48"/>
       <use transform="translate(118.478131 0)scale(0.996264)" xlink:href="#CMR17-48"/>
       <use transform="translate(164.168608 0)scale(0.996264)" xlink:href="#CMR17-50"/>
       <use transform="translate(209.859086 0)scale(0.996264)" xlink:href="#CMR17-53"/>
      </g>
     </g>
    </g>
    <g id="ytick_3">
     <g id="line2d_7">
      <g>
       <use style="stroke:#000000;stroke-width:0.8;" x="83.740286" xlink:href="#m1746a4187c" y="123.798044"/>
      </g>
     </g>
     <g id="text_8">
      <!-- $0.0050$ -->
      <g transform="translate(30.741364 130.024694)scale(0.18 -0.18)">
       <use transform="scale(0.996264)" xlink:href="#CMR17-48"/>
       <use transform="translate(45.690477 0)scale(0.996264)" xlink:href="#CMMI12-58"/>
       <use transform="translate(72.787654 0)scale(0.996264)" xlink:href="#CMR17-48"/>
       <use transform="translate(118.478131 0)scale(0.996264)" xlink:href="#CMR17-48"/>
       <use transform="translate(164.168608 0)scale(0.996264)" xlink:href="#CMR17-53"/>
       <use transform="translate(209.859086 0)scale(0.996264)" xlink:href="#CMR17-48"/>
      </g>
     </g>
    </g>
    <g id="ytick_4">
     <g id="line2d_8">
      <g>
       <use style="stroke:#000000;stroke-width:0.8;" x="83.740286" xlink:href="#m1746a4187c" y="77.558109"/>
      </g>
     </g>
     <g id="text_9">
      <!-- $0.0075$ -->
      <defs>
       <path d="M 45.09375 61.796875 
L 45.09375 64 
L 21.59375 64 
C 9.90625 64 9.703125 65.09375 9.296875 67 
L 7.5 67 
L 4.59375 48.5 
L 6.40625 48.5 
C 6.703125 50.40625 7.40625 55.5 8.59375 57.390625 
C 9.203125 58.1875 16.59375 58.1875 18.296875 58.1875 
L 40.296875 58.1875 
L 29.203125 41.71875 
C 21.796875 30.640625 16.703125 15.671875 16.703125 2.59375 
C 16.703125 1.390625 16.703125 -2 20.296875 -2 
C 23.90625 -2 23.90625 1.390625 23.90625 2.6875 
L 23.90625 7.28125 
C 23.90625 23.65625 26.703125 34.4375 31.296875 41.3125 
z
" id="CMR17-55"/>
      </defs>
      <g transform="translate(30.741364 83.784759)scale(0.18 -0.18)">
       <use transform="scale(0.996264)" xlink:href="#CMR17-48"/>
       <use transform="translate(45.690477 0)scale(0.996264)" xlink:href="#CMMI12-58"/>
       <use transform="translate(72.787654 0)scale(0.996264)" xlink:href="#CMR17-48"/>
       <use transform="translate(118.478131 0)scale(0.996264)" xlink:href="#CMR17-48"/>
       <use transform="translate(164.168608 0)scale(0.996264)" xlink:href="#CMR17-55"/>
       <use transform="translate(209.859086 0)scale(0.996264)" xlink:href="#CMR17-53"/>
      </g>
     </g>
    </g>
    <g id="ytick_5">
     <g id="line2d_9">
      <g>
       <use style="stroke:#000000;stroke-width:0.8;" x="83.740286" xlink:href="#m1746a4187c" y="31.318173"/>
      </g>
     </g>
     <g id="text_10">
      <!-- $0.0100$ -->
      <g transform="translate(30.741364 37.544823)scale(0.18 -0.18)">
       <use transform="scale(0.996264)" xlink:href="#CMR17-48"/>
       <use transform="translate(45.690477 0)scale(0.996264)" xlink:href="#CMMI12-58"/>
       <use transform="translate(72.787654 0)scale(0.996264)" xlink:href="#CMR17-48"/>
       <use transform="translate(118.478131 0)scale(0.996264)" xlink:href="#CMR17-49"/>
       <use transform="translate(164.168608 0)scale(0.996264)" xlink:href="#CMR17-48"/>
       <use transform="translate(209.859086 0)scale(0.996264)" xlink:href="#CMR17-48"/>
      </g>
     </g>
    </g>
    <g id="text_11">
     <!-- $P_I$ -->
     <defs>
      <path d="M 29.59375 31.59375 
L 46.40625 31.59375 
C 60.203125 31.59375 74 41.765625 74 53.125 
C 74 60.90625 67.40625 68 54.796875 68 
L 23.90625 68 
C 22 68 21.09375 68 21.09375 66.09375 
C 21.09375 65.09375 22 65.09375 23.5 65.09375 
C 29.59375 65.09375 29.59375 64.296875 29.59375 63.203125 
C 29.59375 63 29.59375 62.40625 29.203125 60.90625 
L 15.703125 7.359375 
C 14.796875 3.890625 14.59375 2.890625 7.59375 2.890625 
C 5.703125 2.890625 4.703125 2.890625 4.703125 1.09375 
C 4.703125 0 5.59375 0 6.203125 0 
C 8.09375 0 10.09375 0.1875 12 0.1875 
L 23.703125 0.1875 
C 25.59375 0.1875 27.703125 0 29.59375 0 
C 30.40625 0 31.5 0 31.5 1.890625 
C 31.5 2.890625 30.59375 2.890625 29.09375 2.890625 
C 23.09375 2.890625 23 3.59375 23 4.578125 
C 23 5.078125 23.09375 5.765625 23.203125 6.265625 
z
M 36.796875 61.203125 
C 37.703125 64.890625 38.09375 65.09375 42 65.09375 
L 51.90625 65.09375 
C 59.40625 65.09375 65.59375 62.703125 65.59375 55.21875 
C 65.59375 52.640625 64.296875 44.15625 59.703125 39.578125 
C 58 37.78125 53.203125 34 44.09375 34 
L 30 34 
z
" id="CMMI12-80"/>
      <path d="M 36.796875 60.609375 
C 37.703125 64.09375 37.90625 65.09375 45.203125 65.09375 
C 47.40625 65.09375 48.203125 65.09375 48.203125 66.984375 
C 48.203125 68 47.09375 68 46.796875 68 
C 45 68 42.796875 67.796875 41 67.796875 
L 28.703125 67.796875 
C 26.703125 67.796875 24.40625 68 22.40625 68 
C 21.59375 68 20.5 68 20.5 66.09375 
C 20.5 65.09375 21.296875 65.09375 23.296875 65.09375 
C 29.5 65.09375 29.5 64.296875 29.5 63.203125 
C 29.5 62.5 29.296875 61.90625 29.09375 61.015625 
L 15.59375 7.375 
C 14.703125 3.890625 14.5 2.890625 7.203125 2.890625 
C 5 2.890625 4.09375 2.890625 4.09375 1 
C 4.09375 0 5.09375 0 5.59375 0 
C 7.40625 0 9.59375 0.1875 11.40625 0.1875 
L 23.703125 0.1875 
C 25.703125 0.1875 27.90625 0 29.90625 0 
C 30.703125 0 31.90625 0 31.90625 1.796875 
C 31.90625 2.890625 31.296875 2.890625 29.09375 2.890625 
C 22.90625 2.890625 22.90625 3.6875 22.90625 4.875 
C 22.90625 5.078125 22.90625 5.578125 23.296875 7.171875 
z
" id="CMMI12-73"/>
     </defs>
     <g transform="translate(23.2533 134.887178)rotate(-90)scale(0.18 -0.18)">
      <use transform="translate(0 14.943915)scale(0.996264)" xlink:href="#CMMI12-80"/>
      <use transform="translate(62.877232 0)scale(0.697382)" xlink:href="#CMMI12-73"/>
     </g>
    </g>
   </g>
   <g id="line2d_10">
    <path clip-path="url(#p676aca1130)" d="M 104.60774 214.428318 
L 111.661645 213.708457 
L 117.755551 212.868282 
L 123.139893 211.90484 
L 127.939888 210.824745 
L 132.322491 209.614848 
L 136.371182 208.269447 
L 140.169439 206.773206 
L 143.717261 205.138606 
L 147.098127 203.337772 
L 150.353775 201.350936 
L 153.484206 199.180153 
L 156.531159 196.797341 
L 159.536373 194.16315 
L 162.499848 191.268138 
L 165.463323 188.058945 
L 168.426798 184.520093 
L 171.432012 180.583864 
L 174.520704 176.169497 
L 177.776353 171.118545 
L 181.240697 165.321008 
L 185.080692 158.44882 
L 189.880687 149.373652 
L 200.398936 129.33502 
L 203.612845 123.783207 
L 206.284146 119.594224 
L 208.621535 116.329264 
L 210.708489 113.783209 
L 212.628487 111.784192 
L 214.381528 110.270054 
L 216.009353 109.145487 
L 217.553699 108.3393 
L 219.056306 107.805196 
L 220.475435 107.531097 
L 221.894563 107.482249 
L 223.313692 107.658227 
L 224.732821 108.056757 
L 226.235428 108.71675 
L 227.779774 109.642995 
L 229.407598 110.880683 
L 231.16064 112.497877 
L 233.080638 114.583956 
L 235.167592 117.190822 
L 237.50498 120.479683 
L 240.176282 124.638514 
L 243.390191 130.077796 
L 247.689317 137.82915 
L 259.710173 159.735778 
L 263.758864 166.517238 
L 267.390164 172.172464 
L 270.812769 177.094221 
L 274.068417 181.393783 
L 277.282327 185.272068 
L 280.454497 188.7512 
L 283.584928 191.85845 
L 286.757098 194.694516 
L 289.971008 197.268063 
L 293.226656 199.590769 
L 296.565783 201.701295 
L 300.030127 203.627722 
L 303.619688 205.370457 
L 307.417945 206.965856 
L 311.424897 208.406363 
L 315.724022 209.712856 
L 320.35706 210.885318 
L 325.407489 211.931029 
L 331.000526 212.857897 
L 337.261389 213.665872 
L 344.440511 214.362303 
L 352.830067 214.946005 
L 362.972664 215.420463 
L 375.786563 215.786873 
L 393.19176 216.047862 
L 420.155208 216.20692 
L 477.087317 216.271991 
L 521.956831 216.277079 
L 521.956831 216.277079 
" style="fill:none;stroke:#1f77b4;stroke-linecap:square;"/>
   </g>
   <g id="line2d_11">
    <path clip-path="url(#p676aca1130)" d="M 104.60774 214.428318 
L 111.661645 213.708457 
L 117.755551 212.868282 
L 123.139893 211.90484 
L 127.939888 210.824745 
L 132.322491 209.614848 
L 136.371182 208.269447 
L 140.169439 206.773206 
L 143.717261 205.138606 
L 147.098127 203.337772 
L 150.353775 201.350936 
L 153.484206 199.180153 
L 156.531159 196.797341 
L 159.536373 194.16315 
L 162.499848 191.268138 
L 165.463323 188.058945 
L 168.426798 184.520093 
L 171.432012 180.583864 
L 174.520704 176.169497 
L 177.776353 171.118545 
L 181.240697 165.321008 
L 185.080692 158.448821 
L 189.880687 149.373653 
L 200.398936 129.33502 
L 203.612845 123.783207 
L 206.284146 119.594223 
L 208.621535 116.329263 
L 210.708489 113.783209 
L 212.628487 111.784191 
L 214.381528 110.270053 
L 216.009353 109.145486 
L 217.553699 108.3393 
L 219.056306 107.805195 
L 220.475435 107.531096 
L 221.894563 107.482248 
L 223.313692 107.658226 
L 224.732821 108.056756 
L 226.235428 108.716749 
L 227.779774 109.642993 
L 229.407598 110.880682 
L 231.16064 112.497876 
L 233.080638 114.583954 
L 235.167592 117.190821 
L 237.50498 120.479681 
L 240.176282 124.638512 
L 243.390191 130.077794 
L 247.689317 137.829148 
L 259.710173 159.735776 
L 263.758864 166.517236 
L 267.390164 172.172463 
L 270.812769 177.09422 
L 274.068417 181.393783 
L 277.282327 185.272068 
L 280.454497 188.7512 
L 283.584928 191.85845 
L 286.757098 194.694516 
L 289.971008 197.268062 
L 293.226656 199.590768 
L 296.565783 201.701295 
L 300.030127 203.627722 
L 303.619688 205.370457 
L 307.417945 206.965856 
L 311.424897 208.406363 
L 315.724022 209.712856 
L 320.35706 210.885318 
L 325.407489 211.931029 
L 331.000526 212.857897 
L 337.261389 213.665872 
L 344.440511 214.362303 
L 352.830067 214.946005 
L 362.972664 215.420463 
L 375.786563 215.786873 
L 393.19176 216.047862 
L 420.155208 216.20692 
L 477.087317 216.271991 
L 521.956831 216.277079 
L 521.956831 216.277079 
" style="fill:none;stroke:#ff7f0e;stroke-linecap:square;"/>
   </g>
   <g id="line2d_12">
    <path clip-path="url(#p676aca1130)" d="M 104.60774 214.428318 
L 111.661645 213.708457 
L 117.755551 212.868282 
L 123.139893 211.90484 
L 127.939888 210.824745 
L 132.322491 209.614848 
L 136.371182 208.269447 
L 140.169439 206.773206 
L 143.717261 205.138606 
L 147.098127 203.337772 
L 150.353775 201.350936 
L 153.484206 199.180153 
L 156.531159 196.797341 
L 159.536373 194.16315 
L 162.499848 191.268138 
L 165.463323 188.058945 
L 168.426798 184.520093 
L 171.432012 180.583865 
L 174.520704 176.169497 
L 177.776353 171.118545 
L 181.240697 165.321008 
L 185.080692 158.44882 
L 189.880687 149.373653 
L 200.398936 129.335021 
L 203.612845 123.783209 
L 206.284146 119.594225 
L 208.621535 116.329265 
L 210.708489 113.78321 
L 212.628487 111.784193 
L 214.381528 110.270055 
L 216.009353 109.145488 
L 217.553699 108.339302 
L 219.056306 107.805197 
L 220.475435 107.531098 
L 221.894563 107.48225 
L 223.313692 107.658228 
L 224.732821 108.056758 
L 226.235428 108.716751 
L 227.779774 109.642995 
L 229.407598 110.880683 
L 231.16064 112.497877 
L 233.080638 114.583956 
L 235.167592 117.190822 
L 237.50498 120.479682 
L 240.176282 124.638513 
L 243.390191 130.077795 
L 247.689317 137.829148 
L 259.710173 159.735776 
L 263.758864 166.517236 
L 267.390164 172.172463 
L 270.812769 177.09422 
L 274.068417 181.393782 
L 277.282327 185.272067 
L 280.454497 188.7512 
L 283.584928 191.858449 
L 286.757098 194.694515 
L 289.971008 197.268062 
L 293.226656 199.590768 
L 296.565783 201.701294 
L 300.030127 203.627721 
L 303.619688 205.370457 
L 307.417945 206.965856 
L 311.424897 208.406363 
L 315.724022 209.712856 
L 320.35706 210.885318 
L 325.407489 211.931029 
L 331.000526 212.857897 
L 337.261389 213.665871 
L 344.440511 214.362303 
L 352.830067 214.946005 
L 362.972664 215.420463 
L 375.786563 215.786873 
L 393.19176 216.047862 
L 420.155208 216.20692 
L 477.087317 216.271991 
L 521.956831 216.277079 
L 521.956831 216.277079 
" style="fill:none;stroke:#2ca02c;stroke-linecap:square;"/>
   </g>
   <g id="line2d_13">
    <path clip-path="url(#p676aca1130)" d="M 104.60774 214.428318 
L 111.661645 213.708457 
L 117.755551 212.868282 
L 123.139893 211.90484 
L 127.939888 210.824745 
L 132.322491 209.614848 
L 136.371182 208.269447 
L 140.169439 206.773206 
L 143.717261 205.138606 
L 147.098127 203.337772 
L 150.353775 201.350936 
L 153.484206 199.180153 
L 156.531159 196.797341 
L 159.536373 194.16315 
L 162.499848 191.268138 
L 165.463323 188.058945 
L 168.426798 184.520093 
L 171.432012 180.583864 
L 174.520704 176.169497 
L 177.776353 171.118545 
L 181.240697 165.321008 
L 185.080692 158.44882 
L 189.880687 149.373653 
L 200.398936 129.335021 
L 203.612845 123.783209 
L 206.284146 119.594225 
L 208.621535 116.329265 
L 210.708489 113.78321 
L 212.628487 111.784193 
L 214.381528 110.270055 
L 216.009353 109.145488 
L 217.553699 108.339302 
L 219.056306 107.805197 
L 220.475435 107.531098 
L 221.894563 107.48225 
L 223.313692 107.658228 
L 224.732821 108.056758 
L 226.235428 108.716751 
L 227.779774 109.642995 
L 229.407598 110.880683 
L 231.16064 112.497877 
L 233.080638 114.583955 
L 235.167592 117.190821 
L 237.50498 120.47968 
L 240.176282 124.638512 
L 243.390191 130.077793 
L 247.689317 137.829146 
L 259.710173 159.735775 
L 263.758864 166.517235 
L 267.390164 172.172462 
L 270.812769 177.094219 
L 274.068417 181.393782 
L 277.282327 185.272067 
L 280.454497 188.751199 
L 283.584928 191.85845 
L 286.757098 194.694515 
L 289.971008 197.268062 
L 293.226656 199.590768 
L 296.565783 201.701294 
L 300.030127 203.627721 
L 303.619688 205.370457 
L 307.417945 206.965856 
L 311.424897 208.406363 
L 315.724022 209.712856 
L 320.35706 210.885318 
L 325.407489 211.931029 
L 331.000526 212.857897 
L 337.261389 213.665872 
L 344.440511 214.362303 
L 352.830067 214.946005 
L 362.972664 215.420463 
L 375.786563 215.786873 
L 393.19176 216.047862 
L 420.155208 216.20692 
L 477.087317 216.271991 
L 521.956831 216.277079 
L 521.956831 216.277079 
" style="fill:none;stroke:#d62728;stroke-linecap:square;"/>
   </g>
   <g id="patch_3">
    <path d="M 83.740286 221.717271 
L 83.740286 31.318173 
" style="fill:none;stroke:#000000;stroke-linecap:square;stroke-linejoin:miter;stroke-width:0.8;"/>
   </g>
   <g id="patch_4">
    <path d="M 542.824286 221.717271 
L 542.824286 31.318173 
" style="fill:none;stroke:#000000;stroke-linecap:square;stroke-linejoin:miter;stroke-width:0.8;"/>
   </g>
   <g id="patch_5">
    <path d="M 83.740286 221.717271 
L 542.824286 221.717271 
" style="fill:none;stroke:#000000;stroke-linecap:square;stroke-linejoin:miter;stroke-width:0.8;"/>
   </g>
   <g id="patch_6">
    <path d="M 83.740286 31.318173 
L 542.824286 31.318173 
" style="fill:none;stroke:#000000;stroke-linecap:square;stroke-linejoin:miter;stroke-width:0.8;"/>
   </g>
   <g id="text_12">
    <!-- (a) $P_{I_1}$ -->
    <defs>
     <path d="M 25.203125 75 
C 19.796875 69.484375 7.40625 56.671875 7.40625 25.046875 
C 7.40625 -6.6875 19.796875 -19.40625 25.203125 -25 
L 31.296875 -25 
C 19 -12.203125 15 5.71875 15 24.9375 
C 15 44.0625 18.796875 62.078125 31.296875 75 
z
" id="CMSS17-40"/>
     <path d="M 37.59375 27.953125 
C 37.59375 37.484375 30.90625 44 21.90625 44 
C 17.5 44 12.703125 43.1875 7.203125 39.984375 
L 7.796875 33.328125 
C 10.296875 35.15625 14.59375 38.09375 21.796875 38.09375 
C 26.90625 38.09375 30 34.140625 30 27.84375 
L 30 24 
C 14 23.5 4 18.890625 4 11.109375 
C 4 7.0625 6.5 -1 14.796875 -1 
C 16.296875 -1 24.40625 -0.8125 30.203125 3.5 
L 30.203125 -0.203125 
L 37.59375 -0.203125 
z
M 30 12.875 
C 30 11.109375 30 8.734375 27 6.96875 
C 24.40625 5.296875 21.09375 5.09375 19.703125 5.09375 
C 14.703125 5.09375 11.296875 7.859375 11.296875 11.296875 
C 11.296875 18.203125 26.90625 18.890625 30 19 
z
" id="CMSS17-97"/>
     <path d="M 11.296875 -25 
C 16.703125 -19.5 29.09375 -6.6875 29.09375 24.9375 
C 29.09375 56.671875 16.703125 69.375 11.296875 75 
L 5.203125 75 
C 17.5 62.171875 21.5 44.265625 21.5 25.046875 
C 21.5 5.921875 17.703125 -12.09375 5.203125 -25 
z
" id="CMSS17-41"/>
    </defs>
    <g transform="translate(289.197304 25.318173)scale(0.18 -0.18)">
     <use transform="translate(0 25.404611)scale(0.996264)" xlink:href="#CMSS17-40"/>
     <use transform="translate(36.433914 25.404611)scale(0.996264)" xlink:href="#CMSS17-97"/>
     <use transform="translate(81.355835 25.404611)scale(0.996264)" xlink:href="#CMSS17-41"/>
     <use transform="translate(149.018862 25.404611)scale(0.996264)" xlink:href="#CMMI12-80"/>
     <use transform="translate(211.896094 10.460696)scale(0.697382)" xlink:href="#CMMI12-73"/>
     <use transform="translate(242.012877 0)scale(0.498132)" xlink:href="#CMR17-49"/>
    </g>
   </g>
  </g>
  <g id="axes_2">
   <g id="patch_7">
    <path d="M 610.116 221.717271 
L 1069.2 221.717271 
L 1069.2 31.318173 
L 610.116 31.318173 
z
" style="fill:#ffffff;"/>
   </g>
   <g id="matplotlib.axis_3">
    <g id="xtick_5">
     <g id="line2d_14">
      <g>
       <use style="stroke:#000000;stroke-width:0.8;" x="630.983454" xlink:href="#m0596f6a695" y="221.717271"/>
      </g>
     </g>
     <g id="text_13">
      <!-- $0$ -->
      <g transform="translate(626.871311 241.170572)scale(0.18 -0.18)">
       <use transform="scale(0.996264)" xlink:href="#CMR17-48"/>
      </g>
     </g>
    </g>
    <g id="xtick_6">
     <g id="line2d_15">
      <g>
       <use style="stroke:#000000;stroke-width:0.8;" x="770.099818" xlink:href="#m0596f6a695" y="221.717271"/>
      </g>
     </g>
     <g id="text_14">
      <!-- $10$ -->
      <g transform="translate(761.875532 241.170572)scale(0.18 -0.18)">
       <use transform="scale(0.996264)" xlink:href="#CMR17-49"/>
       <use transform="translate(45.690477 0)scale(0.996264)" xlink:href="#CMR17-48"/>
      </g>
     </g>
    </g>
    <g id="xtick_7">
     <g id="line2d_16">
      <g>
       <use style="stroke:#000000;stroke-width:0.8;" x="909.216182" xlink:href="#m0596f6a695" y="221.717271"/>
      </g>
     </g>
     <g id="text_15">
      <!-- $20$ -->
      <g transform="translate(900.991896 241.170572)scale(0.18 -0.18)">
       <use transform="scale(0.996264)" xlink:href="#CMR17-50"/>
       <use transform="translate(45.690477 0)scale(0.996264)" xlink:href="#CMR17-48"/>
      </g>
     </g>
    </g>
    <g id="xtick_8">
     <g id="line2d_17">
      <g>
       <use style="stroke:#000000;stroke-width:0.8;" x="1048.332545" xlink:href="#m0596f6a695" y="221.717271"/>
      </g>
     </g>
     <g id="text_16">
      <!-- $30$ -->
      <g transform="translate(1040.10826 241.170572)scale(0.18 -0.18)">
       <use transform="scale(0.996264)" xlink:href="#CMR17-51"/>
       <use transform="translate(45.690477 0)scale(0.996264)" xlink:href="#CMR17-48"/>
      </g>
     </g>
    </g>
    <g id="text_17">
     <!-- time -->
     <g transform="translate(824.18878 261.111936)scale(0.18 -0.18)">
      <use transform="scale(0.996264)" xlink:href="#CMSS17-116"/>
      <use transform="translate(33.831567 0)scale(0.996264)" xlink:href="#CMSS17-105"/>
      <use transform="translate(56.01229 0)scale(0.996264)" xlink:href="#CMSS17-109"/>
      <use transform="translate(130.241544 0)scale(0.996264)" xlink:href="#CMSS17-101"/>
     </g>
    </g>
   </g>
   <g id="matplotlib.axis_4">
    <g id="ytick_6">
     <g id="line2d_18">
      <g>
       <use style="stroke:#000000;stroke-width:0.8;" x="610.116" xlink:href="#m1746a4187c" y="214.240063"/>
      </g>
     </g>
     <g id="text_18">
      <!-- $0.00$ -->
      <g transform="translate(573.56565 220.466713)scale(0.18 -0.18)">
       <use transform="scale(0.996264)" xlink:href="#CMR17-48"/>
       <use transform="translate(45.690477 0)scale(0.996264)" xlink:href="#CMMI12-58"/>
       <use transform="translate(72.787654 0)scale(0.996264)" xlink:href="#CMR17-48"/>
       <use transform="translate(118.478131 0)scale(0.996264)" xlink:href="#CMR17-48"/>
      </g>
     </g>
    </g>
    <g id="ytick_7">
     <g id="line2d_19">
      <g>
       <use style="stroke:#000000;stroke-width:0.8;" x="610.116" xlink:href="#m1746a4187c" y="177.655685"/>
      </g>
     </g>
     <g id="text_19">
      <!-- $0.05$ -->
      <g transform="translate(573.56565 183.882335)scale(0.18 -0.18)">
       <use transform="scale(0.996264)" xlink:href="#CMR17-48"/>
       <use transform="translate(45.690477 0)scale(0.996264)" xlink:href="#CMMI12-58"/>
       <use transform="translate(72.787654 0)scale(0.996264)" xlink:href="#CMR17-48"/>
       <use transform="translate(118.478131 0)scale(0.996264)" xlink:href="#CMR17-53"/>
      </g>
     </g>
    </g>
    <g id="ytick_8">
     <g id="line2d_20">
      <g>
       <use style="stroke:#000000;stroke-width:0.8;" x="610.116" xlink:href="#m1746a4187c" y="141.071307"/>
      </g>
     </g>
     <g id="text_20">
      <!-- $0.10$ -->
      <g transform="translate(573.56565 147.297957)scale(0.18 -0.18)">
       <use transform="scale(0.996264)" xlink:href="#CMR17-48"/>
       <use transform="translate(45.690477 0)scale(0.996264)" xlink:href="#CMMI12-58"/>
       <use transform="translate(72.787654 0)scale(0.996264)" xlink:href="#CMR17-49"/>
       <use transform="translate(118.478131 0)scale(0.996264)" xlink:href="#CMR17-48"/>
      </g>
     </g>
    </g>
    <g id="ytick_9">
     <g id="line2d_21">
      <g>
       <use style="stroke:#000000;stroke-width:0.8;" x="610.116" xlink:href="#m1746a4187c" y="104.486929"/>
      </g>
     </g>
     <g id="text_21">
      <!-- $0.15$ -->
      <g transform="translate(573.56565 110.713579)scale(0.18 -0.18)">
       <use transform="scale(0.996264)" xlink:href="#CMR17-48"/>
       <use transform="translate(45.690477 0)scale(0.996264)" xlink:href="#CMMI12-58"/>
       <use transform="translate(72.787654 0)scale(0.996264)" xlink:href="#CMR17-49"/>
       <use transform="translate(118.478131 0)scale(0.996264)" xlink:href="#CMR17-53"/>
      </g>
     </g>
    </g>
    <g id="ytick_10">
     <g id="line2d_22">
      <g>
       <use style="stroke:#000000;stroke-width:0.8;" x="610.116" xlink:href="#m1746a4187c" y="67.902551"/>
      </g>
     </g>
     <g id="text_22">
      <!-- $0.20$ -->
      <g transform="translate(573.56565 74.129201)scale(0.18 -0.18)">
       <use transform="scale(0.996264)" xlink:href="#CMR17-48"/>
       <use transform="translate(45.690477 0)scale(0.996264)" xlink:href="#CMMI12-58"/>
       <use transform="translate(72.787654 0)scale(0.996264)" xlink:href="#CMR17-50"/>
       <use transform="translate(118.478131 0)scale(0.996264)" xlink:href="#CMR17-48"/>
      </g>
     </g>
    </g>
    <g id="ytick_11">
     <g id="line2d_23">
      <g>
       <use style="stroke:#000000;stroke-width:0.8;" x="610.116" xlink:href="#m1746a4187c" y="31.318173"/>
      </g>
     </g>
     <g id="text_23">
      <!-- $0.25$ -->
      <g transform="translate(573.56565 37.544823)scale(0.18 -0.18)">
       <use transform="scale(0.996264)" xlink:href="#CMR17-48"/>
       <use transform="translate(45.690477 0)scale(0.996264)" xlink:href="#CMMI12-58"/>
       <use transform="translate(72.787654 0)scale(0.996264)" xlink:href="#CMR17-50"/>
       <use transform="translate(118.478131 0)scale(0.996264)" xlink:href="#CMR17-53"/>
      </g>
     </g>
    </g>
    <g id="text_24">
     <!-- $P_R$ -->
     <defs>
      <path d="M 36.796875 61.203125 
C 37.703125 64.890625 38.09375 65.09375 42 65.09375 
L 49.203125 65.09375 
C 57.796875 65.09375 64.203125 62.5 64.203125 54.734375 
C 64.203125 49.640625 61.59375 35 41.5 35 
L 30.203125 35 
z
M 50.703125 33.796875 
C 63.09375 36.484375 72.796875 44.46875 72.796875 53.03125 
C 72.796875 60.8125 64.90625 68 51 68 
L 23.90625 68 
C 21.90625 68 21 68 21 66.09375 
C 21 65.09375 21.703125 65.09375 23.59375 65.09375 
C 29.59375 65.09375 29.59375 64.296875 29.59375 63.203125 
C 29.59375 63 29.59375 62.40625 29.203125 60.90625 
L 15.703125 7.421875 
C 14.796875 3.953125 14.59375 2.96875 7.703125 2.96875 
C 5.40625 2.96875 4.703125 2.96875 4.703125 1.078125 
C 4.703125 0.09375 5.796875 0.09375 6.09375 0.09375 
C 7.90625 0.09375 10 0.296875 11.90625 0.296875 
L 23.703125 0.296875 
C 25.5 0.296875 27.59375 0.09375 29.40625 0.09375 
C 30.203125 0.09375 31.296875 0.09375 31.296875 1.96875 
C 31.296875 2.96875 30.40625 2.96875 28.90625 2.96875 
C 22.796875 2.96875 22.796875 3.765625 22.796875 4.75 
C 22.796875 4.84375 22.796875 5.546875 23 6.328125 
L 29.703125 33 
L 41.703125 33 
C 51.203125 33 53 27.046875 53 23.78125 
C 53 22.28125 52 18.421875 51.296875 15.84375 
C 50.203125 11.296875 49.90625 10.203125 49.90625 8.3125 
C 49.90625 1.28125 55.703125 -2 62.40625 -2 
C 70.5 -2 74 7.828125 74 9.203125 
C 74 9.90625 73.5 10.203125 72.90625 10.203125 
C 72.09375 10.203125 71.90625 9.609375 71.703125 8.8125 
C 69.296875 1.78125 65.203125 0 62.703125 0 
C 60.203125 0 58.59375 1.078125 58.59375 5.546875 
C 58.59375 7.921875 59.796875 16.9375 59.90625 17.4375 
C 60.40625 21.09375 60.40625 21.5 60.40625 22.28125 
C 60.40625 29.515625 54.5 32.59375 50.703125 33.796875 
z
" id="CMMI12-82"/>
     </defs>
     <g transform="translate(566.077586 136.854448)rotate(-90)scale(0.18 -0.18)">
      <use transform="translate(0 14.943915)scale(0.996264)" xlink:href="#CMMI12-80"/>
      <use transform="translate(62.877232 0)scale(0.697382)" xlink:href="#CMMI12-82"/>
     </g>
    </g>
   </g>
   <g id="line2d_24">
    <path clip-path="url(#p9c65378640)" d="M 630.983454 214.240063 
L 642.670398 213.790706 
L 651.811257 213.223726 
L 659.324292 212.541873 
L 665.75211 211.741649 
L 671.428626 210.814485 
L 676.479055 209.768518 
L 681.070354 208.595252 
L 685.32774 207.280351 
L 689.292953 205.825133 
L 693.049471 204.210094 
L 696.597293 202.445355 
L 700.019898 200.4967 
L 703.359024 198.338852 
L 706.614673 195.969453 
L 709.828582 193.354436 
L 713.042491 190.449052 
L 716.256401 187.240688 
L 719.512049 183.673649 
L 722.851176 179.681663 
L 726.31552 175.189532 
L 729.988559 170.056453 
L 733.995511 164.063187 
L 738.545071 156.843014 
L 744.388543 147.12048 
L 758.62157 123.264345 
L 763.296347 115.968961 
L 767.386778 109.985228 
L 771.185034 104.816068 
L 774.774595 100.300678 
L 778.238939 96.295131 
L 781.619805 92.721156 
L 784.958932 89.510429 
L 788.298058 86.605805 
L 791.637185 83.992272 
L 795.018051 81.624424 
L 798.482394 79.467517 
L 802.071956 77.496183 
L 805.786734 75.711703 
L 809.668469 74.095364 
L 813.758899 72.634486 
L 818.099763 71.320855 
L 822.774541 70.139594 
L 827.866709 69.08444 
L 833.501485 68.148259 
L 839.804087 67.331699 
L 846.983209 66.631283 
L 855.372765 66.042887 
L 865.473623 65.565271 
L 878.204043 65.195784 
L 895.442284 64.931757 
L 921.988341 64.769835 
L 977.209148 64.702269 
L 1048.332545 64.695892 
L 1048.332545 64.695892 
" style="fill:none;stroke:#1f77b4;stroke-linecap:square;"/>
   </g>
   <g id="line2d_25">
    <path clip-path="url(#p9c65378640)" d="M 630.983454 214.240063 
L 642.670398 213.790706 
L 651.811257 213.223726 
L 659.324292 212.541873 
L 665.75211 211.741649 
L 671.428626 210.814485 
L 676.479055 209.768518 
L 681.070354 208.595252 
L 685.32774 207.280351 
L 689.292953 205.825133 
L 693.049471 204.210094 
L 696.597293 202.445355 
L 700.019898 200.4967 
L 703.359024 198.338853 
L 706.614673 195.969453 
L 709.828582 193.354436 
L 713.042491 190.449052 
L 716.256401 187.240688 
L 719.512049 183.67365 
L 722.851176 179.681664 
L 726.31552 175.189533 
L 729.988559 170.056453 
L 733.995511 164.063188 
L 738.545071 156.843015 
L 744.388543 147.12048 
L 758.62157 123.264346 
L 763.296347 115.968961 
L 767.386778 109.985228 
L 771.185034 104.816068 
L 774.774595 100.300678 
L 778.238939 96.295131 
L 781.619805 92.721156 
L 784.958932 89.510429 
L 788.298058 86.605804 
L 791.637185 83.992271 
L 795.018051 81.624424 
L 798.482394 79.467516 
L 802.071956 77.496182 
L 805.786734 75.711702 
L 809.668469 74.095363 
L 813.758899 72.634486 
L 818.099763 71.320855 
L 822.774541 70.139594 
L 827.866709 69.084439 
L 833.501485 68.148259 
L 839.804087 67.331698 
L 846.983209 66.631282 
L 855.372765 66.042886 
L 865.473623 65.565271 
L 878.204043 65.195783 
L 895.442284 64.931756 
L 921.988341 64.769835 
L 977.209148 64.702268 
L 1048.332545 64.695892 
L 1048.332545 64.695892 
" style="fill:none;stroke:#ff7f0e;stroke-linecap:square;"/>
   </g>
   <g id="line2d_26">
    <path clip-path="url(#p9c65378640)" d="M 630.983454 214.240063 
L 642.670398 213.790706 
L 651.811257 213.223726 
L 659.324292 212.541873 
L 665.75211 211.741649 
L 671.428626 210.814485 
L 676.479055 209.768518 
L 681.070354 208.595252 
L 685.32774 207.280351 
L 689.292953 205.825133 
L 693.049471 204.210094 
L 696.597293 202.445355 
L 700.019898 200.4967 
L 703.359024 198.338853 
L 706.614673 195.969453 
L 709.828582 193.354436 
L 713.042491 190.449052 
L 716.256401 187.240688 
L 719.512049 183.673649 
L 722.851176 179.681663 
L 726.31552 175.189532 
L 729.988559 170.056453 
L 733.995511 164.063188 
L 738.545071 156.843015 
L 744.388543 147.12048 
L 758.62157 123.264346 
L 763.296347 115.968962 
L 767.386778 109.985229 
L 771.185034 104.816068 
L 774.774595 100.300678 
L 778.238939 96.295131 
L 781.619805 92.721156 
L 784.958932 89.51043 
L 788.298058 86.605805 
L 791.637185 83.992272 
L 795.018051 81.624424 
L 798.482394 79.467517 
L 802.071956 77.496183 
L 805.786734 75.711703 
L 809.668469 74.095364 
L 813.758899 72.634486 
L 818.099763 71.320855 
L 822.774541 70.139594 
L 827.866709 69.08444 
L 833.501485 68.148259 
L 839.804087 67.331699 
L 846.983209 66.631283 
L 855.372765 66.042886 
L 865.473623 65.565271 
L 878.204043 65.195784 
L 895.442284 64.931757 
L 921.988341 64.769835 
L 977.209148 64.702268 
L 1048.332545 64.695892 
L 1048.332545 64.695892 
" style="fill:none;stroke:#2ca02c;stroke-linecap:square;"/>
   </g>
   <g id="line2d_27">
    <path clip-path="url(#p9c65378640)" d="M 630.983454 214.240063 
L 642.670398 213.790706 
L 651.811257 213.223726 
L 659.324292 212.541873 
L 665.75211 211.741649 
L 671.428626 210.814485 
L 676.479055 209.768518 
L 681.070354 208.595252 
L 685.32774 207.280351 
L 689.292953 205.825133 
L 693.049471 204.210094 
L 696.597293 202.445355 
L 700.019898 200.4967 
L 703.359024 198.338852 
L 706.614673 195.969453 
L 709.828582 193.354436 
L 713.042491 190.449052 
L 716.256401 187.240688 
L 719.512049 183.673649 
L 722.851176 179.681663 
L 726.31552 175.189532 
L 729.988559 170.056453 
L 733.995511 164.063187 
L 738.545071 156.843014 
L 744.388543 147.12048 
L 758.62157 123.264346 
L 763.296347 115.968962 
L 767.386778 109.985229 
L 771.185034 104.816068 
L 774.774595 100.300678 
L 778.238939 96.295131 
L 781.619805 92.721156 
L 784.958932 89.510429 
L 788.298058 86.605805 
L 791.637185 83.992272 
L 795.018051 81.624424 
L 798.482394 79.467516 
L 802.071956 77.496182 
L 805.786734 75.711702 
L 809.668469 74.095363 
L 813.758899 72.634486 
L 818.099763 71.320855 
L 822.774541 70.139593 
L 827.866709 69.084439 
L 833.501485 68.148259 
L 839.804087 67.331698 
L 846.983209 66.631282 
L 855.372765 66.042886 
L 865.473623 65.565271 
L 878.204043 65.195783 
L 895.442284 64.931756 
L 921.988341 64.769835 
L 977.209148 64.702268 
L 1048.332545 64.695892 
L 1048.332545 64.695892 
" style="fill:none;stroke:#d62728;stroke-linecap:square;"/>
   </g>
   <g id="patch_8">
    <path d="M 610.116 221.717271 
L 610.116 31.318173 
" style="fill:none;stroke:#000000;stroke-linecap:square;stroke-linejoin:miter;stroke-width:0.8;"/>
   </g>
   <g id="patch_9">
    <path d="M 1069.2 221.717271 
L 1069.2 31.318173 
" style="fill:none;stroke:#000000;stroke-linecap:square;stroke-linejoin:miter;stroke-width:0.8;"/>
   </g>
   <g id="patch_10">
    <path d="M 610.116 221.717271 
L 1069.2 221.717271 
" style="fill:none;stroke:#000000;stroke-linecap:square;stroke-linejoin:miter;stroke-width:0.8;"/>
   </g>
   <g id="patch_11">
    <path d="M 610.116 31.318173 
L 1069.2 31.318173 
" style="fill:none;stroke:#000000;stroke-linecap:square;stroke-linejoin:miter;stroke-width:0.8;"/>
   </g>
   <g id="text_25">
    <!-- (b) $P_{R_1}$ -->
    <defs>
     <path d="M 14.90625 69 
L 7.5 69 
L 7.5 -0.203125 
L 15.09375 -0.203125 
L 15.09375 4.296875 
C 18.90625 0.59375 23.5 -1 27.59375 -1 
C 37.203125 -1 45 8.734375 45 21.59375 
C 45 33.328125 39 44 30.09375 44 
C 23.796875 44 18.203125 41.390625 14.90625 38.6875 
z
M 15.09375 32.734375 
C 17.296875 35.5625 20.40625 37.890625 24.796875 37.890625 
C 30.703125 37.890625 37.40625 33.53125 37.40625 21.59375 
C 37.40625 8.84375 29.40625 5.09375 23.90625 5.09375 
C 21.90625 5.09375 19.796875 5.59375 17.796875 7.3125 
C 15.09375 9.75 15.09375 11.265625 15.09375 12.6875 
z
" id="CMSS17-98"/>
    </defs>
    <g transform="translate(813.310271 25.318173)scale(0.18 -0.18)">
     <use transform="translate(0 25.404611)scale(0.996264)" xlink:href="#CMSS17-40"/>
     <use transform="translate(36.433914 25.404611)scale(0.996264)" xlink:href="#CMSS17-98"/>
     <use transform="translate(84.638857 25.404611)scale(0.996264)" xlink:href="#CMSS17-41"/>
     <use transform="translate(152.301884 25.404611)scale(0.996264)" xlink:href="#CMMI12-80"/>
     <use transform="translate(215.179117 10.460696)scale(0.697382)" xlink:href="#CMMI12-82"/>
     <use transform="translate(267.154467 0)scale(0.498132)" xlink:href="#CMR17-49"/>
    </g>
   </g>
  </g>
  <g id="axes_3">
   <g id="patch_12">
    <path d="M 83.740286 486.317271 
L 542.824286 486.317271 
L 542.824286 295.918173 
L 83.740286 295.918173 
z
" style="fill:#ffffff;"/>
   </g>
   <g id="matplotlib.axis_5">
    <g id="xtick_9">
     <g id="line2d_28">
      <g>
       <use style="stroke:#000000;stroke-width:0.8;" x="104.60774" xlink:href="#m0596f6a695" y="486.317271"/>
      </g>
     </g>
     <g id="text_26">
      <!-- $0$ -->
      <g transform="translate(100.495597 505.770572)scale(0.18 -0.18)">
       <use transform="scale(0.996264)" xlink:href="#CMR17-48"/>
      </g>
     </g>
    </g>
    <g id="xtick_10">
     <g id="line2d_29">
      <g>
       <use style="stroke:#000000;stroke-width:0.8;" x="243.724104" xlink:href="#m0596f6a695" y="486.317271"/>
      </g>
     </g>
     <g id="text_27">
      <!-- $10$ -->
      <g transform="translate(235.499818 505.770572)scale(0.18 -0.18)">
       <use transform="scale(0.996264)" xlink:href="#CMR17-49"/>
       <use transform="translate(45.690477 0)scale(0.996264)" xlink:href="#CMR17-48"/>
      </g>
     </g>
    </g>
    <g id="xtick_11">
     <g id="line2d_30">
      <g>
       <use style="stroke:#000000;stroke-width:0.8;" x="382.840468" xlink:href="#m0596f6a695" y="486.317271"/>
      </g>
     </g>
     <g id="text_28">
      <!-- $20$ -->
      <g transform="translate(374.616182 505.770572)scale(0.18 -0.18)">
       <use transform="scale(0.996264)" xlink:href="#CMR17-50"/>
       <use transform="translate(45.690477 0)scale(0.996264)" xlink:href="#CMR17-48"/>
      </g>
     </g>
    </g>
    <g id="xtick_12">
     <g id="line2d_31">
      <g>
       <use style="stroke:#000000;stroke-width:0.8;" x="521.956831" xlink:href="#m0596f6a695" y="486.317271"/>
      </g>
     </g>
     <g id="text_29">
      <!-- $30$ -->
      <g transform="translate(513.732545 505.770572)scale(0.18 -0.18)">
       <use transform="scale(0.996264)" xlink:href="#CMR17-51"/>
       <use transform="translate(45.690477 0)scale(0.996264)" xlink:href="#CMR17-48"/>
      </g>
     </g>
    </g>
    <g id="text_30">
     <!-- time -->
     <g transform="translate(297.813066 525.711936)scale(0.18 -0.18)">
      <use transform="scale(0.996264)" xlink:href="#CMSS17-116"/>
      <use transform="translate(33.831567 0)scale(0.996264)" xlink:href="#CMSS17-105"/>
      <use transform="translate(56.01229 0)scale(0.996264)" xlink:href="#CMSS17-109"/>
      <use transform="translate(130.241544 0)scale(0.996264)" xlink:href="#CMSS17-101"/>
     </g>
    </g>
   </g>
   <g id="matplotlib.axis_6">
    <g id="ytick_12">
     <g id="line2d_32">
      <g>
       <use style="stroke:#000000;stroke-width:0.8;" x="83.740286" xlink:href="#m1746a4187c" y="478.812907"/>
      </g>
     </g>
     <g id="text_31">
      <!-- $0.0000$ -->
      <g transform="translate(30.741364 485.039557)scale(0.18 -0.18)">
       <use transform="scale(0.996264)" xlink:href="#CMR17-48"/>
       <use transform="translate(45.690477 0)scale(0.996264)" xlink:href="#CMMI12-58"/>
       <use transform="translate(72.787654 0)scale(0.996264)" xlink:href="#CMR17-48"/>
       <use transform="translate(118.478131 0)scale(0.996264)" xlink:href="#CMR17-48"/>
       <use transform="translate(164.168608 0)scale(0.996264)" xlink:href="#CMR17-48"/>
       <use transform="translate(209.859086 0)scale(0.996264)" xlink:href="#CMR17-48"/>
      </g>
     </g>
    </g>
    <g id="ytick_13">
     <g id="line2d_33">
      <g>
       <use style="stroke:#000000;stroke-width:0.8;" x="83.740286" xlink:href="#m1746a4187c" y="433.089223"/>
      </g>
     </g>
     <g id="text_32">
      <!-- $0.0025$ -->
      <g transform="translate(30.741364 439.315873)scale(0.18 -0.18)">
       <use transform="scale(0.996264)" xlink:href="#CMR17-48"/>
       <use transform="translate(45.690477 0)scale(0.996264)" xlink:href="#CMMI12-58"/>
       <use transform="translate(72.787654 0)scale(0.996264)" xlink:href="#CMR17-48"/>
       <use transform="translate(118.478131 0)scale(0.996264)" xlink:href="#CMR17-48"/>
       <use transform="translate(164.168608 0)scale(0.996264)" xlink:href="#CMR17-50"/>
       <use transform="translate(209.859086 0)scale(0.996264)" xlink:href="#CMR17-53"/>
      </g>
     </g>
    </g>
    <g id="ytick_14">
     <g id="line2d_34">
      <g>
       <use style="stroke:#000000;stroke-width:0.8;" x="83.740286" xlink:href="#m1746a4187c" y="387.36554"/>
      </g>
     </g>
     <g id="text_33">
      <!-- $0.0050$ -->
      <g transform="translate(30.741364 393.59219)scale(0.18 -0.18)">
       <use transform="scale(0.996264)" xlink:href="#CMR17-48"/>
       <use transform="translate(45.690477 0)scale(0.996264)" xlink:href="#CMMI12-58"/>
       <use transform="translate(72.787654 0)scale(0.996264)" xlink:href="#CMR17-48"/>
       <use transform="translate(118.478131 0)scale(0.996264)" xlink:href="#CMR17-48"/>
       <use transform="translate(164.168608 0)scale(0.996264)" xlink:href="#CMR17-53"/>
       <use transform="translate(209.859086 0)scale(0.996264)" xlink:href="#CMR17-48"/>
      </g>
     </g>
    </g>
    <g id="ytick_15">
     <g id="line2d_35">
      <g>
       <use style="stroke:#000000;stroke-width:0.8;" x="83.740286" xlink:href="#m1746a4187c" y="341.641857"/>
      </g>
     </g>
     <g id="text_34">
      <!-- $0.0075$ -->
      <g transform="translate(30.741364 347.868507)scale(0.18 -0.18)">
       <use transform="scale(0.996264)" xlink:href="#CMR17-48"/>
       <use transform="translate(45.690477 0)scale(0.996264)" xlink:href="#CMMI12-58"/>
       <use transform="translate(72.787654 0)scale(0.996264)" xlink:href="#CMR17-48"/>
       <use transform="translate(118.478131 0)scale(0.996264)" xlink:href="#CMR17-48"/>
       <use transform="translate(164.168608 0)scale(0.996264)" xlink:href="#CMR17-55"/>
       <use transform="translate(209.859086 0)scale(0.996264)" xlink:href="#CMR17-53"/>
      </g>
     </g>
    </g>
    <g id="ytick_16">
     <g id="line2d_36">
      <g>
       <use style="stroke:#000000;stroke-width:0.8;" x="83.740286" xlink:href="#m1746a4187c" y="295.918173"/>
      </g>
     </g>
     <g id="text_35">
      <!-- $0.0100$ -->
      <g transform="translate(30.741364 302.144823)scale(0.18 -0.18)">
       <use transform="scale(0.996264)" xlink:href="#CMR17-48"/>
       <use transform="translate(45.690477 0)scale(0.996264)" xlink:href="#CMMI12-58"/>
       <use transform="translate(72.787654 0)scale(0.996264)" xlink:href="#CMR17-48"/>
       <use transform="translate(118.478131 0)scale(0.996264)" xlink:href="#CMR17-49"/>
       <use transform="translate(164.168608 0)scale(0.996264)" xlink:href="#CMR17-48"/>
       <use transform="translate(209.859086 0)scale(0.996264)" xlink:href="#CMR17-48"/>
      </g>
     </g>
    </g>
    <g id="text_36">
     <!-- $P_I$ -->
     <g transform="translate(23.2533 399.487178)rotate(-90)scale(0.18 -0.18)">
      <use transform="translate(0 14.943915)scale(0.996264)" xlink:href="#CMMI12-80"/>
      <use transform="translate(62.877232 0)scale(0.697382)" xlink:href="#CMMI12-73"/>
     </g>
    </g>
   </g>
   <g id="line2d_37">
    <path clip-path="url(#pdcd329f9da)" d="M 104.60774 476.983959 
L 111.703384 476.267836 
L 117.839029 475.430121 
L 123.223371 474.475803 
L 128.065105 473.39641 
L 132.489448 472.185127 
L 136.579878 470.836035 
L 140.378134 469.351405 
L 143.967695 467.711041 
L 147.3903 465.902316 
L 150.645949 463.932708 
L 153.818119 461.75424 
L 156.906811 459.363267 
L 159.953764 456.721732 
L 162.958978 453.821639 
L 165.964192 450.612245 
L 169.011145 447.029736 
L 172.099837 443.053465 
L 175.313747 438.549103 
L 178.694613 433.422598 
L 182.409391 427.373484 
L 186.750256 419.858893 
L 194.346769 406.155477 
L 199.31372 397.443309 
L 202.652846 392.017764 
L 205.407626 387.949329 
L 207.828492 384.760907 
L 209.998925 382.262868 
L 211.960662 380.332699 
L 213.797181 378.830944 
L 215.508484 377.712641 
L 217.136308 376.910606 
L 218.680654 376.391691 
L 220.183261 376.116223 
L 221.685868 376.068081 
L 223.188475 376.246281 
L 224.691082 376.647863 
L 226.277167 377.308706 
L 227.904991 378.231832 
L 229.658033 379.49112 
L 231.536292 381.127618 
L 233.539768 383.175703 
L 235.751939 385.763783 
L 238.214545 388.995522 
L 241.052803 393.097809 
L 244.517146 398.515216 
L 249.442358 406.673961 
L 259.37626 423.192289 
L 263.717125 429.924743 
L 267.55712 435.478557 
L 271.146681 440.28425 
L 274.569286 444.500988 
L 277.908413 448.267496 
L 281.2058 451.655696 
L 284.503188 454.726398 
L 287.800576 457.495564 
L 291.139702 460.011742 
L 294.562307 462.312131 
L 298.06839 464.400561 
L 301.69969 466.304311 
L 305.497947 468.042471 
L 309.46316 469.612232 
L 313.678807 471.040976 
L 318.186628 472.332187 
L 323.070101 473.496454 
L 328.412703 474.537008 
L 334.297914 475.452964 
L 340.934428 476.255594 
L 348.530941 476.943922 
L 357.421366 477.519438 
L 368.190049 477.985612 
L 381.880469 478.344713 
L 400.579578 478.597996 
L 429.963892 478.74976 
L 494.575993 478.808639 
L 521.956831 478.811544 
L 521.956831 478.811544 
" style="fill:none;stroke:#1f77b4;stroke-linecap:square;"/>
   </g>
   <g id="line2d_38">
    <path clip-path="url(#pdcd329f9da)" d="M 104.60774 476.983959 
L 111.703384 476.267198 
L 117.839029 475.428278 
L 123.223371 474.471981 
L 128.065105 473.38957 
L 132.489448 472.173909 
L 136.538139 470.833785 
L 140.336395 469.343582 
L 143.884217 467.715781 
L 147.265083 465.92269 
L 150.520731 463.944703 
L 153.651163 461.783965 
L 156.698116 459.412639 
L 159.70333 456.791716 
L 162.666805 453.911993 
L 165.63028 450.720634 
L 168.593754 447.202561 
L 171.640707 443.23407 
L 174.771139 438.782253 
L 178.026787 433.757318 
L 181.491131 427.994972 
L 185.372866 421.096196 
L 190.298078 411.859184 
L 200.106762 393.361642 
L 203.40415 387.692145 
L 206.11719 383.454277 
L 208.454579 380.197057 
L 210.583272 377.603075 
L 212.50327 375.604242 
L 214.256311 374.085392 
L 215.925875 372.92689 
L 217.470221 372.115934 
L 218.972828 371.574104 
L 220.433696 371.285001 
L 221.852824 371.230145 
L 223.271953 371.397643 
L 224.732821 371.799998 
L 226.235428 372.452622 
L 227.779774 373.368525 
L 229.449337 374.62715 
L 231.202379 376.233009 
L 233.122377 378.302574 
L 235.209331 380.886936 
L 237.54672 384.14545 
L 240.218021 388.263757 
L 243.43193 393.647464 
L 247.772795 401.392018 
L 259.626694 422.759131 
L 263.675386 429.474307 
L 267.306686 435.076176 
L 270.729291 439.952798 
L 274.026678 444.266081 
L 277.240588 448.105702 
L 280.412758 451.550421 
L 283.584928 454.666076 
L 286.757098 457.470478 
L 289.971008 460.015292 
L 293.226656 462.312066 
L 296.607522 464.423503 
L 300.071866 466.325395 
L 303.703166 468.064501 
L 307.501423 469.636884 
L 311.550114 471.070149 
L 315.890978 472.366881 
L 320.565756 473.527692 
L 325.657924 474.560365 
L 331.2927 475.473264 
L 337.637041 476.271533 
L 344.899641 476.955935 
L 353.414414 477.52883 
L 363.765707 477.993757 
L 376.913518 478.350596 
L 394.944802 478.602157 
L 423.327378 478.751775 
L 486.52035 478.809025 
L 521.956831 478.81208 
L 521.956831 478.81208 
" style="fill:none;stroke:#ff7f0e;stroke-linecap:square;"/>
   </g>
   <g id="line2d_39">
    <path clip-path="url(#pdcd329f9da)" d="M 104.60774 476.983959 
L 111.703384 476.265836 
L 117.79729 475.430905 
L 123.181632 474.472209 
L 127.981627 473.395818 
L 132.36423 472.188033 
L 136.412921 470.842443 
L 140.169439 469.360699 
L 143.717261 467.721546 
L 147.056388 465.934969 
L 150.270297 463.962521 
L 153.358989 461.805276 
L 156.364203 459.433596 
L 159.285939 456.844959 
L 162.165936 453.997009 
L 165.045932 450.83297 
L 167.925929 447.333041 
L 170.805926 443.480779 
L 173.727662 439.200926 
L 176.732876 434.403385 
L 179.905046 428.910856 
L 183.285912 422.5993 
L 187.042429 415.100125 
L 191.758945 405.150619 
L 201.859804 383.685041 
L 204.990235 377.658365 
L 207.536319 373.215325 
L 209.74849 369.778758 
L 211.751966 367.064977 
L 213.546747 364.993981 
L 215.21631 363.399152 
L 216.760656 362.226022 
L 218.179785 361.415098 
L 219.557175 360.879928 
L 220.892825 360.602417 
L 222.186737 360.562483 
L 223.480649 360.748158 
L 224.77456 361.158028 
L 226.110211 361.812955 
L 227.52934 362.760974 
L 229.031947 364.038545 
L 230.659771 365.72578 
L 232.412812 367.873707 
L 234.33281 370.587656 
L 236.461503 373.990265 
L 238.88237 378.289062 
L 241.762367 383.875197 
L 245.477145 391.598748 
L 259.584955 421.425255 
L 263.174517 428.229652 
L 266.471904 434.015862 
L 269.602335 439.068554 
L 272.607549 443.507199 
L 275.571024 447.493019 
L 278.49276 451.054256 
L 281.414496 454.266864 
L 284.336232 457.151659 
L 287.299707 459.766429 
L 290.304921 462.123581 
L 293.393613 464.264811 
L 296.607522 466.21979 
L 299.946649 467.987731 
L 303.452732 469.589301 
L 307.16751 471.037881 
L 311.132723 472.341531 
L 315.390109 473.504858 
L 320.064887 474.547485 
L 325.240533 475.468282 
L 331.042266 476.269012 
L 337.67878 476.954682 
L 345.483988 477.529912 
L 354.917021 477.993784 
L 366.937877 478.350999 
L 383.383076 478.602177 
L 409.303046 478.751806 
L 466.986459 478.809026 
L 521.956831 478.812626 
L 521.956831 478.812626 
" style="fill:none;stroke:#2ca02c;stroke-linecap:square;"/>
   </g>
   <g id="line2d_40">
    <path clip-path="url(#pdcd329f9da)" d="M 104.60774 476.983959 
L 111.661645 476.266972 
L 117.713812 475.433064 
L 123.014676 474.48309 
L 127.772931 473.40756 
L 132.072057 472.211039 
L 136.03727 470.877996 
L 139.710309 469.409199 
L 143.132914 467.802974 
L 146.388562 466.028794 
L 149.477254 464.091366 
L 152.440729 461.968521 
L 155.278987 459.662957 
L 158.033766 457.141039 
L 160.746807 454.354604 
L 163.418108 451.28854 
L 166.04767 447.929475 
L 168.677233 444.204333 
L 171.306795 440.086361 
L 173.936357 435.551027 
L 176.607658 430.495105 
L 179.320699 424.881744 
L 182.158956 418.486481 
L 185.122431 411.24773 
L 188.336341 402.788785 
L 191.967641 392.577035 
L 196.892853 377.992438 
L 203.529367 358.407699 
L 206.534581 350.25331 
L 208.913709 344.40979 
L 210.958924 339.953765 
L 212.753704 336.558672 
L 214.339789 334.011683 
L 215.800657 332.076845 
L 217.094569 330.713954 
L 218.305002 329.751392 
L 219.431958 329.135595 
L 220.475435 328.811813 
L 221.477173 328.726894 
L 222.478911 328.86471 
L 223.480649 329.225312 
L 224.524126 329.836417 
L 225.651081 330.762802 
L 226.861514 332.059369 
L 228.155426 333.779808 
L 229.574555 336.046423 
L 231.16064 339.02082 
L 232.913681 342.804413 
L 234.875418 347.584996 
L 237.171068 353.794913 
L 239.967586 362.046581 
L 243.849321 374.267154 
L 252.572789 401.912279 
L 256.037133 412.033657 
L 259.084086 420.272235 
L 261.922344 427.321869 
L 264.635384 433.472981 
L 267.223208 438.803642 
L 269.769292 443.548882 
L 272.273637 447.753044 
L 274.736243 451.463822 
L 277.198848 454.782637 
L 279.703193 457.786214 
L 282.207538 460.446817 
L 284.753622 462.832669 
L 287.383185 464.992828 
L 290.096225 466.932916 
L 292.892744 468.661618 
L 295.856219 470.230917 
L 298.98665 471.634934 
L 302.325776 472.887562 
L 305.957077 474.008826 
L 309.92229 474.996948 
L 314.346632 475.865204 
L 319.355322 476.615003 
L 325.115316 477.246692 
L 331.960525 477.767269 
L 340.433559 478.179688 
L 351.536155 478.485241 
L 367.605702 478.686867 
L 396.196974 478.789932 
L 494.24208 478.81284 
L 521.956831 478.812894 
L 521.956831 478.812894 
" style="fill:none;stroke:#d62728;stroke-linecap:square;"/>
   </g>
   <g id="patch_13">
    <path d="M 83.740286 486.317271 
L 83.740286 295.918173 
" style="fill:none;stroke:#000000;stroke-linecap:square;stroke-linejoin:miter;stroke-width:0.8;"/>
   </g>
   <g id="patch_14">
    <path d="M 542.824286 486.317271 
L 542.824286 295.918173 
" style="fill:none;stroke:#000000;stroke-linecap:square;stroke-linejoin:miter;stroke-width:0.8;"/>
   </g>
   <g id="patch_15">
    <path d="M 83.740286 486.317271 
L 542.824286 486.317271 
" style="fill:none;stroke:#000000;stroke-linecap:square;stroke-linejoin:miter;stroke-width:0.8;"/>
   </g>
   <g id="patch_16">
    <path d="M 83.740286 295.918173 
L 542.824286 295.918173 
" style="fill:none;stroke:#000000;stroke-linecap:square;stroke-linejoin:miter;stroke-width:0.8;"/>
   </g>
   <g id="text_37">
    <!-- (c) $P_{I_2}$ -->
    <defs>
     <path d="M 38.5 39.6875 
C 38.5 40.390625 33.90625 42.390625 32.703125 42.796875 
C 29.40625 44 25.203125 44 24.09375 44 
C 11.09375 44 3.296875 32.6875 3.296875 21.296875 
C 3.296875 9.296875 12 -1 23.703125 -1 
C 30.40625 -1 35.203125 1.1875 39.09375 3.796875 
L 38.5 10.390625 
C 34.203125 7.09375 29.203125 5.296875 23.796875 5.296875 
C 16 5.296875 10.90625 12.09375 10.90625 21.390625 
C 10.90625 28.59375 14.203125 37.6875 24.203125 37.6875 
C 29.703125 37.6875 32.796875 36.59375 37.40625 33.484375 
z
" id="CMSS17-99"/>
    </defs>
    <g transform="translate(289.492781 289.918173)scale(0.18 -0.18)">
     <use transform="translate(0 25.404611)scale(0.996264)" xlink:href="#CMSS17-40"/>
     <use transform="translate(36.433914 25.404611)scale(0.996264)" xlink:href="#CMSS17-99"/>
     <use transform="translate(78.072736 25.404611)scale(0.996264)" xlink:href="#CMSS17-41"/>
     <use transform="translate(145.735763 25.404611)scale(0.996264)" xlink:href="#CMMI12-80"/>
     <use transform="translate(208.612995 10.460696)scale(0.697382)" xlink:href="#CMMI12-73"/>
     <use transform="translate(238.729779 0)scale(0.498132)" xlink:href="#CMR17-50"/>
    </g>
   </g>
  </g>
  <g id="axes_4">
   <g id="patch_17">
    <path d="M 610.116 486.317271 
L 1069.2 486.317271 
L 1069.2 295.918173 
L 610.116 295.918173 
z
" style="fill:#ffffff;"/>
   </g>
   <g id="matplotlib.axis_7">
    <g id="xtick_13">
     <g id="line2d_41">
      <g>
       <use style="stroke:#000000;stroke-width:0.8;" x="630.983454" xlink:href="#m0596f6a695" y="486.317271"/>
      </g>
     </g>
     <g id="text_38">
      <!-- $0$ -->
      <g transform="translate(626.871311 505.770572)scale(0.18 -0.18)">
       <use transform="scale(0.996264)" xlink:href="#CMR17-48"/>
      </g>
     </g>
    </g>
    <g id="xtick_14">
     <g id="line2d_42">
      <g>
       <use style="stroke:#000000;stroke-width:0.8;" x="770.099818" xlink:href="#m0596f6a695" y="486.317271"/>
      </g>
     </g>
     <g id="text_39">
      <!-- $10$ -->
      <g transform="translate(761.875532 505.770572)scale(0.18 -0.18)">
       <use transform="scale(0.996264)" xlink:href="#CMR17-49"/>
       <use transform="translate(45.690477 0)scale(0.996264)" xlink:href="#CMR17-48"/>
      </g>
     </g>
    </g>
    <g id="xtick_15">
     <g id="line2d_43">
      <g>
       <use style="stroke:#000000;stroke-width:0.8;" x="909.216182" xlink:href="#m0596f6a695" y="486.317271"/>
      </g>
     </g>
     <g id="text_40">
      <!-- $20$ -->
      <g transform="translate(900.991896 505.770572)scale(0.18 -0.18)">
       <use transform="scale(0.996264)" xlink:href="#CMR17-50"/>
       <use transform="translate(45.690477 0)scale(0.996264)" xlink:href="#CMR17-48"/>
      </g>
     </g>
    </g>
    <g id="xtick_16">
     <g id="line2d_44">
      <g>
       <use style="stroke:#000000;stroke-width:0.8;" x="1048.332545" xlink:href="#m0596f6a695" y="486.317271"/>
      </g>
     </g>
     <g id="text_41">
      <!-- $30$ -->
      <g transform="translate(1040.10826 505.770572)scale(0.18 -0.18)">
       <use transform="scale(0.996264)" xlink:href="#CMR17-51"/>
       <use transform="translate(45.690477 0)scale(0.996264)" xlink:href="#CMR17-48"/>
      </g>
     </g>
    </g>
    <g id="text_42">
     <!-- time -->
     <g transform="translate(824.18878 525.711936)scale(0.18 -0.18)">
      <use transform="scale(0.996264)" xlink:href="#CMSS17-116"/>
      <use transform="translate(33.831567 0)scale(0.996264)" xlink:href="#CMSS17-105"/>
      <use transform="translate(56.01229 0)scale(0.996264)" xlink:href="#CMSS17-109"/>
      <use transform="translate(130.241544 0)scale(0.996264)" xlink:href="#CMSS17-101"/>
     </g>
    </g>
   </g>
   <g id="matplotlib.axis_8">
    <g id="ytick_17">
     <g id="line2d_45">
      <g>
       <use style="stroke:#000000;stroke-width:0.8;" x="610.116" xlink:href="#m1746a4187c" y="477.662767"/>
      </g>
     </g>
     <g id="text_43">
      <!-- $0.00$ -->
      <g transform="translate(573.56565 483.889417)scale(0.18 -0.18)">
       <use transform="scale(0.996264)" xlink:href="#CMR17-48"/>
       <use transform="translate(45.690477 0)scale(0.996264)" xlink:href="#CMMI12-58"/>
       <use transform="translate(72.787654 0)scale(0.996264)" xlink:href="#CMR17-48"/>
       <use transform="translate(118.478131 0)scale(0.996264)" xlink:href="#CMR17-48"/>
      </g>
     </g>
    </g>
    <g id="ytick_18">
     <g id="line2d_46">
      <g>
       <use style="stroke:#000000;stroke-width:0.8;" x="610.116" xlink:href="#m1746a4187c" y="441.6735"/>
      </g>
     </g>
     <g id="text_44">
      <!-- $0.05$ -->
      <g transform="translate(573.56565 447.90015)scale(0.18 -0.18)">
       <use transform="scale(0.996264)" xlink:href="#CMR17-48"/>
       <use transform="translate(45.690477 0)scale(0.996264)" xlink:href="#CMMI12-58"/>
       <use transform="translate(72.787654 0)scale(0.996264)" xlink:href="#CMR17-48"/>
       <use transform="translate(118.478131 0)scale(0.996264)" xlink:href="#CMR17-53"/>
      </g>
     </g>
    </g>
    <g id="ytick_19">
     <g id="line2d_47">
      <g>
       <use style="stroke:#000000;stroke-width:0.8;" x="610.116" xlink:href="#m1746a4187c" y="405.684233"/>
      </g>
     </g>
     <g id="text_45">
      <!-- $0.10$ -->
      <g transform="translate(573.56565 411.910883)scale(0.18 -0.18)">
       <use transform="scale(0.996264)" xlink:href="#CMR17-48"/>
       <use transform="translate(45.690477 0)scale(0.996264)" xlink:href="#CMMI12-58"/>
       <use transform="translate(72.787654 0)scale(0.996264)" xlink:href="#CMR17-49"/>
       <use transform="translate(118.478131 0)scale(0.996264)" xlink:href="#CMR17-48"/>
      </g>
     </g>
    </g>
    <g id="ytick_20">
     <g id="line2d_48">
      <g>
       <use style="stroke:#000000;stroke-width:0.8;" x="610.116" xlink:href="#m1746a4187c" y="369.694967"/>
      </g>
     </g>
     <g id="text_46">
      <!-- $0.15$ -->
      <g transform="translate(573.56565 375.921617)scale(0.18 -0.18)">
       <use transform="scale(0.996264)" xlink:href="#CMR17-48"/>
       <use transform="translate(45.690477 0)scale(0.996264)" xlink:href="#CMMI12-58"/>
       <use transform="translate(72.787654 0)scale(0.996264)" xlink:href="#CMR17-49"/>
       <use transform="translate(118.478131 0)scale(0.996264)" xlink:href="#CMR17-53"/>
      </g>
     </g>
    </g>
    <g id="ytick_21">
     <g id="line2d_49">
      <g>
       <use style="stroke:#000000;stroke-width:0.8;" x="610.116" xlink:href="#m1746a4187c" y="333.7057"/>
      </g>
     </g>
     <g id="text_47">
      <!-- $0.20$ -->
      <g transform="translate(573.56565 339.93235)scale(0.18 -0.18)">
       <use transform="scale(0.996264)" xlink:href="#CMR17-48"/>
       <use transform="translate(45.690477 0)scale(0.996264)" xlink:href="#CMMI12-58"/>
       <use transform="translate(72.787654 0)scale(0.996264)" xlink:href="#CMR17-50"/>
       <use transform="translate(118.478131 0)scale(0.996264)" xlink:href="#CMR17-48"/>
      </g>
     </g>
    </g>
    <g id="ytick_22">
     <g id="line2d_50">
      <g>
       <use style="stroke:#000000;stroke-width:0.8;" x="610.116" xlink:href="#m1746a4187c" y="297.716433"/>
      </g>
     </g>
     <g id="text_48">
      <!-- $0.25$ -->
      <g transform="translate(573.56565 303.943083)scale(0.18 -0.18)">
       <use transform="scale(0.996264)" xlink:href="#CMR17-48"/>
       <use transform="translate(45.690477 0)scale(0.996264)" xlink:href="#CMMI12-58"/>
       <use transform="translate(72.787654 0)scale(0.996264)" xlink:href="#CMR17-50"/>
       <use transform="translate(118.478131 0)scale(0.996264)" xlink:href="#CMR17-53"/>
      </g>
     </g>
    </g>
    <g id="text_49">
     <!-- $P_R$ -->
     <g transform="translate(566.077586 401.454448)rotate(-90)scale(0.18 -0.18)">
      <use transform="translate(0 14.943915)scale(0.996264)" xlink:href="#CMMI12-80"/>
      <use transform="translate(62.877232 0)scale(0.697382)" xlink:href="#CMMI12-82"/>
     </g>
    </g>
   </g>
   <g id="line2d_51">
    <path clip-path="url(#pbb0b7030a8)" d="M 630.983454 477.662767 
L 642.753876 477.216724 
L 651.936474 476.654104 
L 659.532987 475.971578 
L 666.002545 475.172691 
L 671.67906 474.253167 
L 676.771228 473.207476 
L 681.404267 472.033002 
L 685.703392 470.71548 
L 689.710344 469.256283 
L 693.508601 467.636258 
L 697.098162 465.86579 
L 700.562506 463.911478 
L 703.943371 461.74907 
L 707.240759 459.377306 
L 710.538147 456.728617 
L 713.793795 453.827746 
L 717.091183 450.590212 
L 720.472048 446.952821 
L 723.936392 442.893939 
L 727.567692 438.291635 
L 731.449427 433.006857 
L 735.748553 426.770061 
L 740.88246 418.912714 
L 749.021581 405.980718 
L 757.202441 393.12331 
L 762.25287 385.597962 
L 766.593735 379.518901 
L 770.558948 374.340151 
L 774.315465 369.79466 
L 777.905027 365.793295 
L 781.411109 362.211229 
L 784.875453 358.984538 
L 788.339797 356.059233 
L 791.804141 353.421664 
L 795.310224 351.028254 
L 798.899785 348.845399 
L 802.614564 346.848351 
L 806.454559 345.038299 
L 810.461511 343.396768 
L 814.677159 341.911094 
L 819.18498 340.561487 
L 824.026713 339.348318 
L 829.285838 338.26455 
L 835.045831 337.308439 
L 841.47365 336.470921 
L 848.777989 335.748447 
L 857.251023 335.139435 
L 867.393621 334.640378 
L 880.082302 334.248723 
L 896.944891 333.963958 
L 922.071819 333.782203 
L 969.946548 333.697235 
L 1048.332545 333.684384 
L 1048.332545 333.684384 
" style="fill:none;stroke:#1f77b4;stroke-linecap:square;"/>
   </g>
   <g id="line2d_52">
    <path clip-path="url(#pbb0b7030a8)" d="M 630.983454 477.662767 
L 642.753876 477.21662 
L 651.936474 476.653572 
L 659.491248 475.974523 
L 665.960806 475.175406 
L 671.637321 474.254781 
L 676.729489 473.206758 
L 681.362527 472.028306 
L 685.619914 470.718666 
L 689.585127 469.269664 
L 693.341644 467.662008 
L 696.931205 465.883773 
L 700.35381 463.942291 
L 703.692937 461.793365 
L 706.948585 459.434945 
L 710.162495 456.833476 
L 713.376404 453.944895 
L 716.590314 450.757218 
L 719.887701 447.16833 
L 723.268567 443.152479 
L 726.77465 438.636231 
L 730.489428 433.481948 
L 734.538119 427.475867 
L 739.212897 420.126983 
L 745.390281 409.965804 
L 757.828528 389.424475 
L 762.670261 381.925572 
L 766.84417 375.861144 
L 770.684165 370.667095 
L 774.315465 366.124715 
L 777.821548 362.093006 
L 781.244153 358.495283 
L 784.625019 355.264172 
L 787.964146 352.377293 
L 791.345011 349.747655 
L 794.767616 347.367885 
L 798.273699 345.20317 
L 801.86326 343.249234 
L 805.578039 341.480122 
L 809.459773 339.877391 
L 813.550203 338.428557 
L 817.932807 337.114081 
L 822.649324 335.934698 
L 827.783231 334.883687 
L 833.459746 333.953469 
L 839.804087 333.144133 
L 847.066687 332.44827 
L 855.539721 331.866745 
L 865.765796 331.39566 
L 878.704912 331.032358 
L 896.318805 330.774526 
L 923.741383 330.618567 
L 982.59349 330.5561 
L 1048.332545 330.551202 
L 1048.332545 330.551202 
" style="fill:none;stroke:#ff7f0e;stroke-linecap:square;"/>
   </g>
   <g id="line2d_53">
    <path clip-path="url(#pbb0b7030a8)" d="M 630.983454 477.662767 
L 642.753876 477.216397 
L 651.936474 476.652435 
L 659.491248 475.971347 
L 665.919067 475.174495 
L 671.553843 474.257297 
L 676.604272 473.213729 
L 681.195571 472.040509 
L 685.411219 470.736495 
L 689.334692 469.292936 
L 693.049471 467.689663 
L 696.555554 465.936041 
L 699.936419 463.99663 
L 703.192068 461.873485 
L 706.364238 459.540684 
L 709.494669 456.962157 
L 712.583362 454.130494 
L 715.672054 450.997714 
L 718.802485 447.503317 
L 721.974655 443.627296 
L 725.272043 439.240445 
L 728.694648 434.310991 
L 732.367687 428.620747 
L 736.416378 421.923085 
L 741.132894 413.672107 
L 748.019843 401.118917 
L 756.910268 384.991547 
L 761.668523 376.835035 
L 765.717214 370.327651 
L 769.390254 364.836802 
L 772.854597 360.052823 
L 776.151985 355.871249 
L 779.365894 352.148254 
L 782.538065 348.81046 
L 785.668496 345.834179 
L 788.840666 343.124827 
L 792.012837 340.705497 
L 795.268485 338.502231 
L 798.607612 336.512217 
L 802.071956 334.708892 
L 805.661517 333.091361 
L 809.459773 331.625175 
L 813.508464 330.303895 
L 817.849329 329.124104 
L 822.565845 328.075401 
L 827.783231 327.147551 
L 833.626702 326.339677 
L 840.304956 325.647429 
L 848.110164 325.069182 
L 857.543197 324.601724 
L 869.522314 324.241965 
L 885.884034 323.988318 
L 911.55357 323.836703 
L 968.02655 323.777943 
L 1048.332545 323.773794 
L 1048.332545 323.773794 
" style="fill:none;stroke:#2ca02c;stroke-linecap:square;"/>
   </g>
   <g id="line2d_54">
    <path clip-path="url(#pbb0b7030a8)" d="M 630.983454 477.662767 
L 642.712137 477.217829 
L 651.852996 476.655538 
L 659.366031 475.9758 
L 665.75211 475.179176 
L 671.303408 474.267759 
L 676.270359 473.230302 
L 680.736441 472.074418 
L 684.826871 470.790537 
L 688.625128 469.368778 
L 692.17295 467.806991 
L 695.553816 466.076204 
L 698.767725 464.180849 
L 701.856417 462.100582 
L 704.861631 459.805165 
L 707.783367 457.29035 
L 710.663364 454.512972 
L 713.501621 451.462417 
L 716.339879 448.07919 
L 719.178137 444.344656 
L 722.058133 440.181327 
L 724.979869 435.563814 
L 728.026822 430.325191 
L 731.240732 424.343946 
L 734.663336 417.4946 
L 738.503332 409.297115 
L 743.178109 398.764017 
L 758.830266 363.032633 
L 762.586783 355.286813 
L 765.92591 348.899342 
L 769.014602 343.456074 
L 771.978077 338.676013 
L 774.816334 334.510423 
L 777.612853 330.796459 
L 780.367632 327.505024 
L 783.080673 324.60284 
L 785.835452 321.979758 
L 788.590232 319.659312 
L 791.428489 317.558572 
L 794.350225 315.674413 
L 797.355439 313.999906 
L 800.52761 312.488271 
L 803.866736 311.144272 
L 807.456297 309.941673 
L 811.338032 308.878687 
L 815.595418 307.946248 
L 820.353674 307.135564 
L 825.779755 306.442005 
L 832.124095 305.862355 
L 839.762348 305.395644 
L 849.445815 305.037135 
L 862.677104 304.784642 
L 883.463167 304.634279 
L 929.543115 304.576636 
L 1048.332545 304.572678 
L 1048.332545 304.572678 
" style="fill:none;stroke:#d62728;stroke-linecap:square;"/>
   </g>
   <g id="patch_18">
    <path d="M 610.116 486.317271 
L 610.116 295.918173 
" style="fill:none;stroke:#000000;stroke-linecap:square;stroke-linejoin:miter;stroke-width:0.8;"/>
   </g>
   <g id="patch_19">
    <path d="M 1069.2 486.317271 
L 1069.2 295.918173 
" style="fill:none;stroke:#000000;stroke-linecap:square;stroke-linejoin:miter;stroke-width:0.8;"/>
   </g>
   <g id="patch_20">
    <path d="M 610.116 486.317271 
L 1069.2 486.317271 
" style="fill:none;stroke:#000000;stroke-linecap:square;stroke-linejoin:miter;stroke-width:0.8;"/>
   </g>
   <g id="patch_21">
    <path d="M 610.116 295.918173 
L 1069.2 295.918173 
" style="fill:none;stroke:#000000;stroke-linecap:square;stroke-linejoin:miter;stroke-width:0.8;"/>
   </g>
   <g id="text_50">
    <!-- (d) $P_{R_2}$ -->
    <defs>
     <path d="M 40.796875 69 
L 33.40625 69 
L 33.40625 38.984375 
C 30.296875 41.59375 25.203125 44 19.59375 44 
C 10.5 44 3.296875 34.046875 3.296875 21.484375 
C 3.296875 8.9375 10.40625 -1 19.296875 -1 
C 26.203125 -1 30.796875 2.6875 33.203125 4.796875 
L 33.203125 -0.203125 
L 40.796875 -0.203125 
z
M 33.203125 13.296875 
C 33.203125 11.875 33.203125 10.359375 30.09375 7.625 
C 28.09375 5.90625 25.703125 5.09375 23.40625 5.09375 
C 18 5.09375 10.90625 9.140625 10.90625 21.390625 
C 10.90625 34.140625 18.90625 37.890625 24.40625 37.890625 
C 28.09375 37.890625 31.09375 36.0625 33.203125 33.03125 
z
" id="CMSS17-100"/>
    </defs>
    <g transform="translate(813.310271 289.918173)scale(0.18 -0.18)">
     <use transform="translate(0 25.404611)scale(0.996264)" xlink:href="#CMSS17-40"/>
     <use transform="translate(36.433914 25.404611)scale(0.996264)" xlink:href="#CMSS17-100"/>
     <use transform="translate(84.638857 25.404611)scale(0.996264)" xlink:href="#CMSS17-41"/>
     <use transform="translate(152.301884 25.404611)scale(0.996264)" xlink:href="#CMMI12-80"/>
     <use transform="translate(215.179117 10.460696)scale(0.697382)" xlink:href="#CMMI12-82"/>
     <use transform="translate(267.154467 0)scale(0.498132)" xlink:href="#CMR17-50"/>
    </g>
   </g>
  </g>
  <g id="legend_1">
   <g id="patch_22">
    <path d="M 942.8 216 
L 1048.775564 216 
Q 1051.975564 216 1051.975564 212.8 
L 1051.975564 118.639529 
Q 1051.975564 115.439529 1048.775564 115.439529 
L 942.8 115.439529 
Q 939.6 115.439529 939.6 118.639529 
L 939.6 212.8 
Q 939.6 216 942.8 216 
z
" style="fill:#ffffff;opacity:0.8;stroke:#cccccc;stroke-linejoin:miter;"/>
   </g>
   <g id="line2d_55">
    <path d="M 946 129.080171 
L 978 129.080171 
" style="fill:none;stroke:#1f77b4;stroke-linecap:square;"/>
   </g>
   <g id="line2d_56"/>
   <g id="text_51">
    <!-- $\beta_2'$=2 -->
    <defs>
     <path d="M 56.59375 58.421875 
C 56.59375 64.546875 51.5 71 42.40625 71 
C 29.5 71 21.296875 54.84375 18.703125 44.21875 
L 2.90625 -18 
C 2.703125 -18.8125 3.296875 -19 3.796875 -19 
C 4.5 -19 5 -18.90625 5.09375 -18.40625 
L 12.09375 9.25 
C 13.09375 3.609375 18.59375 -1 24.5 -1 
C 38.796875 -1 52.296875 10.265625 52.296875 25.28125 
C 52.296875 29.109375 51.40625 32.9375 49.296875 36.15625 
C 48.09375 38.078125 46.59375 39.484375 45 40.609375 
C 52.203125 44.109375 56.59375 50.34375 56.59375 58.421875 
z
M 39.203125 40.703125 
C 37.59375 40.171875 36 40 34.09375 40 
C 32.703125 40 31.40625 39.890625 29.59375 40.4375 
C 30.59375 41.046875 32.09375 41.234375 34.203125 41.234375 
C 36 41.234375 37.796875 41.046875 39.203125 40.703125 
z
M 51.40625 59.34375 
C 51.40625 53.71875 48.703125 45.546875 42.203125 41.9375 
C 40.296875 42.546875 37.703125 43 35.5 43 
C 33.40625 43 27.40625 43.203125 27.40625 40.34375 
C 27.40625 37.671875 32.90625 37.96875 34.59375 37.96875 
C 37.203125 37.96875 39.5 38.578125 41.90625 39.28125 
C 45.09375 36.671875 46.5 33.234375 46.5 28.203125 
C 46.5 22.359375 44.90625 17.625 43 13.28125 
C 39.703125 5.828125 31.90625 1 25 1 
C 17.703125 1 13.90625 6.84375 13.90625 13.6875 
C 13.90625 14.59375 13.90625 15.90625 14.296875 17.421875 
L 20.796875 43.5 
C 24.09375 56.890625 32.5 68.953125 42.203125 68.953125 
C 49.40625 68.953125 51.40625 63.84375 51.40625 59.34375 
z
" id="CMMI12-12"/>
     <path d="M 25.296875 47.625 
C 25.796875 48.828125 26.203125 49.71875 26.203125 50.71875 
C 26.203125 53.59375 23.59375 56 20.5 56 
C 17.703125 56 15.90625 54.09375 15.203125 51.515625 
L 3.296875 8.078125 
C 3.296875 7.890625 2.90625 6.796875 2.90625 6.6875 
C 2.90625 5.59375 5.5 4.890625 6.296875 4.890625 
C 6.90625 4.890625 7 5.1875 7.59375 6.484375 
z
" id="CMSY10-48"/>
     <path d="M 64.796875 32 
C 66.296875 32 67.796875 32 67.796875 33.6875 
C 67.796875 35.5 66.09375 35.5 64.40625 35.5 
L 8.59375 35.5 
C 6.90625 35.5 5.203125 35.5 5.203125 33.6875 
C 5.203125 32 6.703125 32 8.203125 32 
z
M 64.40625 14.484375 
C 66.09375 14.484375 67.796875 14.484375 67.796875 16.296875 
C 67.796875 18 66.296875 18 64.796875 18 
L 8.203125 18 
C 6.703125 18 5.203125 18 5.203125 16.296875 
C 5.203125 14.484375 6.90625 14.484375 8.59375 14.484375 
z
" id="CMSS17-61"/>
     <path d="M 25.796875 21.140625 
C 28.59375 24.03125 32.796875 27.515625 35.703125 31 
C 38.5 34.390625 42.203125 39.171875 42.203125 46.140625 
C 42.203125 57.109375 34.796875 67 22.203125 67 
C 12.296875 67 6.59375 60.796875 3.90625 51.125 
L 7.796875 45.75 
C 10 54.8125 13.09375 60.59375 20.90625 60.59375 
C 29.5 60.59375 34.296875 53.609375 34.296875 45.9375 
C 34.296875 36.78125 27.296875 29.703125 22 24.421875 
C 16.09375 18.546875 10.296875 12.578125 4.703125 6.390625 
L 4.703125 0 
L 42.203125 0 
L 42.203125 6.796875 
L 25.203125 6.796875 
C 24 6.796875 22.796875 6.6875 21.59375 6.6875 
L 11.59375 6.6875 
L 11.59375 6.796875 
z
" id="CMSS17-50"/>
    </defs>
    <g transform="translate(990.8 134.680171)scale(0.16 -0.16)">
     <use transform="translate(0 24.740171)scale(0.996264)" xlink:href="#CMMI12-12"/>
     <use transform="translate(60.594016 60.89381)scale(0.697382)" xlink:href="#CMSY10-48"/>
     <use transform="translate(55.070737 0)scale(0.697382)" xlink:href="#CMR17-50"/>
     <use transform="translate(87.552051 24.740171)scale(0.996264)" xlink:href="#CMSS17-61"/>
     <use transform="translate(160.419986 24.740171)scale(0.996264)" xlink:href="#CMSS17-50"/>
    </g>
   </g>
   <g id="line2d_57">
    <path d="M 946 153.020288 
L 978 153.020288 
" style="fill:none;stroke:#ff7f0e;stroke-linecap:square;"/>
   </g>
   <g id="line2d_58"/>
   <g id="text_52">
    <!-- $\beta_2'$=6.15 -->
    <defs>
     <path d="M 39 64.984375 
C 34.796875 66.6875 31.796875 67 29 67 
C 16 67 3.90625 53.25 3.90625 31.609375 
C 3.90625 4.1875 15.40625 -2 23.59375 -2 
C 28.09375 -2 32.59375 -0.609375 36.90625 4.390625 
C 41.296875 9.671875 43 14.0625 43 21.75 
C 43 34.109375 36.90625 45.09375 27.796875 45.09375 
C 21.203125 45.09375 15.5 41.59375 12 37.203125 
C 13 51.40625 19.59375 60.890625 29.09375 60.890625 
C 31.703125 60.890625 35.09375 60.484375 39 58.75 
z
M 12.09375 21.4375 
C 12.09375 22.234375 12.09375 22.734375 12.203125 24.234375 
C 12.203125 32.015625 16.703125 39 24 39 
C 28.703125 39 31.09375 36.5 32.90625 33.40625 
C 35 29.515625 35.09375 25.828125 35.09375 21.75 
C 35.09375 17.859375 35.09375 13.96875 32.796875 9.96875 
C 30.90625 6.890625 28.40625 4.1875 23.59375 4.1875 
C 14.09375 4.1875 12.5 17.453125 12.09375 21.4375 
z
" id="CMSS17-54"/>
     <path d="M 17 8 
L 9 8 
L 9 0 
L 17 0 
z
" id="CMSS17-46"/>
     <path d="M 28.40625 67 
L 26.5 67 
C 21.09375 61.703125 14.796875 60.96875 8.40625 60.796875 
L 8.40625 55 
C 11.296875 55.09375 16 55.296875 20.703125 57.390625 
L 20.703125 5.796875 
L 8.90625 5.796875 
L 8.90625 0 
L 40.203125 0 
L 40.203125 5.796875 
L 28.40625 5.796875 
z
" id="CMSS17-49"/>
     <path d="M 14.59375 59.59375 
L 39.09375 59.59375 
L 39.09375 66 
L 7.296875 66 
L 7.296875 28.59375 
L 14 28.59375 
C 15.796875 32.859375 19.5 36 24.296875 36 
C 28.796875 36 33.796875 31.9375 33.796875 20.296875 
C 33.796875 7.84375 26.703125 4.1875 21.5 4.1875 
C 15.09375 4.1875 9.203125 8.140625 6.59375 13.609375 
L 3.40625 7.9375 
C 8 0.796875 15.5 -2 21.5 -2 
C 33.09375 -2 42.203125 7.9375 42.203125 20.09375 
C 42.203125 32.546875 34.09375 42.09375 24.40625 42.09375 
C 20.90625 42.09375 17.5 40.890625 14.59375 38.5 
z
" id="CMSS17-53"/>
    </defs>
    <g transform="translate(990.8 158.620288)scale(0.16 -0.16)">
     <use transform="translate(0 24.740171)scale(0.996264)" xlink:href="#CMMI12-12"/>
     <use transform="translate(60.594016 60.89381)scale(0.697382)" xlink:href="#CMSY10-48"/>
     <use transform="translate(55.070737 0)scale(0.697382)" xlink:href="#CMR17-50"/>
     <use transform="translate(87.552051 24.740171)scale(0.996264)" xlink:href="#CMSS17-61"/>
     <use transform="translate(160.419986 24.740171)scale(0.996264)" xlink:href="#CMSS17-54"/>
     <use transform="translate(207.263609 24.740171)scale(0.996264)" xlink:href="#CMSS17-46"/>
     <use transform="translate(233.287814 24.740171)scale(0.996264)" xlink:href="#CMSS17-49"/>
     <use transform="translate(280.131438 24.740171)scale(0.996264)" xlink:href="#CMSS17-53"/>
    </g>
   </g>
   <g id="line2d_59">
    <path d="M 946 176.960406 
L 978 176.960406 
" style="fill:none;stroke:#2ca02c;stroke-linecap:square;"/>
   </g>
   <g id="line2d_60"/>
   <g id="text_53">
    <!-- $\beta_2'$=15 -->
    <g transform="translate(990.8 182.560406)scale(0.16 -0.16)">
     <use transform="translate(0 24.740171)scale(0.996264)" xlink:href="#CMMI12-12"/>
     <use transform="translate(60.594016 60.89381)scale(0.697382)" xlink:href="#CMSY10-48"/>
     <use transform="translate(55.070737 0)scale(0.697382)" xlink:href="#CMR17-50"/>
     <use transform="translate(87.552051 24.740171)scale(0.996264)" xlink:href="#CMSS17-61"/>
     <use transform="translate(160.419986 24.740171)scale(0.996264)" xlink:href="#CMSS17-49"/>
     <use transform="translate(207.263609 24.740171)scale(0.996264)" xlink:href="#CMSS17-53"/>
    </g>
   </g>
   <g id="line2d_61">
    <path d="M 946 200.900524 
L 978 200.900524 
" style="fill:none;stroke:#d62728;stroke-linecap:square;"/>
   </g>
   <g id="line2d_62"/>
   <g id="text_54">
    <!-- $\beta_2'$=40 -->
    <defs>
     <path d="M 35.203125 17 
L 44.296875 17 
L 44.296875 23.09375 
L 35.203125 23.09375 
L 35.203125 66 
L 26.40625 66 
L 2.59375 23.09375 
L 2.59375 17 
L 27.296875 17 
L 27.296875 0 
L 35.203125 0 
z
M 10.296875 23.09375 
C 16.09375 33.421875 27.59375 54.28125 27.59375 61.359375 
L 27.59375 23.09375 
z
" id="CMSS17-52"/>
     <path d="M 43.09375 32.390625 
C 43.09375 38.109375 43 48.75 38.90625 56.984375 
C 34.796875 64.890625 28.203125 67 23.5 67 
C 16.703125 67 10.90625 62.984375 7.90625 56.578125 
C 4.703125 49.859375 3.796875 42.9375 3.796875 32.390625 
C 3.796875 25.171875 4.09375 16.34375 7.703125 8.609375 
C 11.796875 0.09375 18.703125 -2 23.40625 -2 
C 29.59375 -2 35.59375 1.296875 39 8.203125 
C 42.5 15.4375 43.09375 23.359375 43.09375 32.390625 
z
M 23.40625 4.09375 
C 15.796875 4.09375 13.5 12.828125 12.796875 15.734375 
C 11.59375 20.75 11.40625 25.5625 11.40625 33.5 
C 11.40625 39.71875 11.40625 46.75 13.296875 52.265625 
C 15.59375 58.6875 19.59375 60.890625 23.40625 60.890625 
C 30.796875 60.890625 33.203125 53.46875 34 50.859375 
C 35.5 45.546875 35.5 39.3125 35.5 33.5 
C 35.5 24.15625 35.5 4.09375 23.40625 4.09375 
z
" id="CMSS17-48"/>
    </defs>
    <g transform="translate(990.8 206.500524)scale(0.16 -0.16)">
     <use transform="translate(0 24.740171)scale(0.996264)" xlink:href="#CMMI12-12"/>
     <use transform="translate(60.594016 60.89381)scale(0.697382)" xlink:href="#CMSY10-48"/>
     <use transform="translate(55.070737 0)scale(0.697382)" xlink:href="#CMR17-50"/>
     <use transform="translate(87.552051 24.740171)scale(0.996264)" xlink:href="#CMSS17-61"/>
     <use transform="translate(160.419986 24.740171)scale(0.996264)" xlink:href="#CMSS17-52"/>
     <use transform="translate(207.263609 24.740171)scale(0.996264)" xlink:href="#CMSS17-48"/>
    </g>
   </g>
  </g>
 </g>
 <defs>
  <clipPath id="p676aca1130">
   <rect height="190.399098" width="459.084" x="83.740286" y="31.318173"/>
  </clipPath>
  <clipPath id="p9c65378640">
   <rect height="190.399098" width="459.084" x="610.116" y="31.318173"/>
  </clipPath>
  <clipPath id="pdcd329f9da">
   <rect height="190.399098" width="459.084" x="83.740286" y="295.918173"/>
  </clipPath>
  <clipPath id="pbb0b7030a8">
   <rect height="190.399098" width="459.084" x="610.116" y="295.918173"/>
  </clipPath>
 </defs>
</svg>
