<?xml version="1.0" encoding="utf-8" standalone="no"?>
<!DOCTYPE svg PUBLIC "-//W3C//DTD SVG 1.1//EN"
  "http://www.w3.org/Graphics/SVG/1.1/DTD/svg11.dtd">
<!-- Created with matplotlib (https://matplotlib.org/) -->
<svg height="360pt" version="1.1" viewBox="0 0 864 360" width="864pt" xmlns="http://www.w3.org/2000/svg" xmlns:xlink="http://www.w3.org/1999/xlink">
 <defs>
  <style type="text/css">
*{stroke-linecap:butt;stroke-linejoin:round;white-space:pre;}
  </style>
 </defs>
 <g id="figure_1">
  <g id="patch_1">
   <path d="M 0 360 
L 864 360 
L 864 0 
L 0 0 
z
" style="fill:#ffffff;"/>
  </g>
  <g id="axes_1">
   <g id="patch_2">
    <path d="M 81.982336 133.489571 
L 427.303987 133.489571 
L 427.303987 10.8 
L 81.982336 10.8 
z
" style="fill:#ffffff;"/>
   </g>
   <g id="patch_3">
    <path clip-path="url(#p4d5bd8683d)" d="M 135.350228 94.45198 
L 166.743105 94.45198 
L 166.743105 44.260792 
L 135.350228 44.260792 
L 135.350228 94.45198 
z
" style="fill:none;stroke:#808080;stroke-linejoin:miter;"/>
   </g>
   <g id="matplotlib.axis_1">
    <g id="xtick_1">
     <g id="line2d_1">
      <defs>
       <path d="M 0 0 
L 0 3.5 
" id="m4cd47eed91" style="stroke:#000000;stroke-width:0.8;"/>
      </defs>
      <g>
       <use style="stroke:#000000;stroke-width:0.8;" x="97.678775" xlink:href="#m4cd47eed91" y="133.489571"/>
      </g>
     </g>
     <g id="text_1">
      <!-- $0$ -->
      <defs>
       <path d="M 42 31.84375 
C 42 37.96875 41.90625 48.421875 37.703125 56.453125 
C 34 63.484375 28.09375 66 22.90625 66 
C 18.09375 66 12 63.78125 8.203125 56.5625 
C 4.203125 49.015625 3.796875 39.671875 3.796875 31.84375 
C 3.796875 26.109375 3.90625 17.375 7 9.734375 
C 11.296875 -0.609375 19 -2 22.90625 -2 
C 27.5 -2 34.5 -0.109375 38.59375 9.4375 
C 41.59375 16.375 42 24.5 42 31.84375 
z
M 22.90625 -0.40625 
C 16.5 -0.40625 12.703125 5.125 11.296875 12.75 
C 10.203125 18.6875 10.203125 27.328125 10.203125 32.953125 
C 10.203125 40.6875 10.203125 47.109375 11.5 53.234375 
C 13.40625 61.78125 19 64.390625 22.90625 64.390625 
C 27 64.390625 32.296875 61.671875 34.203125 53.4375 
C 35.5 47.71875 35.59375 40.984375 35.59375 32.953125 
C 35.59375 26.421875 35.59375 18.375 34.40625 12.453125 
C 32.296875 1.5 26.40625 -0.40625 22.90625 -0.40625 
z
" id="CMR17-48"/>
      </defs>
      <g transform="translate(93.776781 151.559159)scale(0.16 -0.16)">
       <use transform="scale(0.996264)" xlink:href="#CMR17-48"/>
      </g>
     </g>
    </g>
    <g id="xtick_2">
     <g id="line2d_2">
      <g>
       <use style="stroke:#000000;stroke-width:0.8;" x="160.46453" xlink:href="#m4cd47eed91" y="133.489571"/>
      </g>
     </g>
     <g id="text_2">
      <!-- $10$ -->
      <defs>
       <path d="M 26.59375 63.796875 
C 26.59375 65.890625 26.5 66 25.09375 66 
C 21.203125 61.359375 15.296875 59.890625 9.703125 59.6875 
C 9.40625 59.6875 8.90625 59.6875 8.796875 59.5 
C 8.703125 59.296875 8.703125 59.09375 8.703125 57 
C 11.796875 57 17 57.59375 21 59.984375 
L 21 7.296875 
C 21 3.796875 20.796875 2.59375 12.203125 2.59375 
L 9.203125 2.59375 
L 9.203125 0 
C 14 0.09375 19 0.1875 23.796875 0.1875 
C 28.59375 0.1875 33.59375 0.09375 38.40625 0 
L 38.40625 2.59375 
L 35.40625 2.59375 
C 26.796875 2.59375 26.59375 3.6875 26.59375 7.296875 
z
" id="CMR17-49"/>
      </defs>
      <g transform="translate(152.660543 151.559159)scale(0.16 -0.16)">
       <use transform="scale(0.996264)" xlink:href="#CMR17-49"/>
       <use transform="translate(45.690477 0)scale(0.996264)" xlink:href="#CMR17-48"/>
      </g>
     </g>
    </g>
    <g id="xtick_3">
     <g id="line2d_3">
      <g>
       <use style="stroke:#000000;stroke-width:0.8;" x="223.250284" xlink:href="#m4cd47eed91" y="133.489571"/>
      </g>
     </g>
     <g id="text_3">
      <!-- $20$ -->
      <defs>
       <path d="M 41.703125 15.46875 
L 39.90625 15.46875 
C 38.90625 8.390625 38.09375 7.1875 37.703125 6.59375 
C 37.203125 5.796875 30 5.796875 28.59375 5.796875 
L 9.40625 5.796875 
C 13 9.6875 20 16.765625 28.5 24.9375 
C 34.59375 30.71875 41.703125 37.5 41.703125 47.390625 
C 41.703125 59.1875 32.296875 66 21.796875 66 
C 10.796875 66 4.09375 56.296875 4.09375 47.296875 
C 4.09375 43.390625 7 42.890625 8.203125 42.890625 
C 9.203125 42.890625 12.203125 43.484375 12.203125 46.984375 
C 12.203125 50.09375 9.59375 51 8.203125 51 
C 7.59375 51 7 50.890625 6.59375 50.6875 
C 8.5 59.1875 14.296875 63.390625 20.40625 63.390625 
C 29.09375 63.390625 34.796875 56.5 34.796875 47.390625 
C 34.796875 38.703125 29.703125 31.21875 24 24.734375 
L 4.09375 2.296875 
L 4.09375 0 
L 39.296875 0 
z
" id="CMR17-50"/>
      </defs>
      <g transform="translate(215.446297 151.559159)scale(0.16 -0.16)">
       <use transform="scale(0.996264)" xlink:href="#CMR17-50"/>
       <use transform="translate(45.690477 0)scale(0.996264)" xlink:href="#CMR17-48"/>
      </g>
     </g>
    </g>
    <g id="xtick_4">
     <g id="line2d_4">
      <g>
       <use style="stroke:#000000;stroke-width:0.8;" x="286.036039" xlink:href="#m4cd47eed91" y="133.489571"/>
      </g>
     </g>
     <g id="text_4">
      <!-- $30$ -->
      <defs>
       <path d="M 22.09375 34 
C 31 34 34.90625 26.140625 34.90625 17.09375 
C 34.90625 5.03125 28.5 0.390625 22.703125 0.390625 
C 17.40625 0.390625 8.796875 3.015625 6.09375 10.796875 
C 6.59375 10.59375 7.09375 10.59375 7.59375 10.59375 
C 10 10.59375 11.796875 12.1875 11.796875 14.796875 
C 11.796875 17.6875 9.59375 19 7.59375 19 
C 5.90625 19 3.296875 18.1875 3.296875 14.484375 
C 3.296875 5.234375 12.296875 -2 22.90625 -2 
C 34 -2 42.5 6.75 42.5 16.984375 
C 42.5 26.84375 34.5 34 25 35.09375 
C 32.59375 36.671875 39.90625 43.375 39.90625 52.390625 
C 39.90625 60.25 32 66 23 66 
C 13.90625 66 5.90625 60.34375 5.90625 52.296875 
C 5.90625 48.796875 8.5 48.1875 9.796875 48.1875 
C 11.90625 48.1875 13.703125 49.484375 13.703125 52.09375 
C 13.703125 54.6875 11.90625 56 9.796875 56 
C 9.40625 56 8.90625 56 8.5 55.796875 
C 11.40625 62.484375 19.296875 63.6875 22.796875 63.6875 
C 26.296875 63.6875 32.90625 61.96875 32.90625 52.296875 
C 32.90625 49.484375 32.5 44.546875 29.09375 40.21875 
C 26.09375 36.390625 22.703125 36.1875 19.40625 35.890625 
C 18.90625 35.890625 16.59375 35.6875 16.203125 35.6875 
C 15.5 35.59375 15.09375 35.5 15.09375 34.796875 
C 15.09375 34.09375 15.203125 34 17.203125 34 
z
" id="CMR17-51"/>
      </defs>
      <g transform="translate(278.232052 151.559159)scale(0.16 -0.16)">
       <use transform="scale(0.996264)" xlink:href="#CMR17-51"/>
       <use transform="translate(45.690477 0)scale(0.996264)" xlink:href="#CMR17-48"/>
      </g>
     </g>
    </g>
    <g id="text_5">
     <!-- time -->
     <defs>
      <path d="M 15.09375 40.390625 
L 29.09375 40.390625 
L 29.09375 43 
L 15.09375 43 
L 15.09375 62 
L 13.296875 62 
C 13.09375 51.4375 9.59375 42.1875 1.09375 41.984375 
L 1.09375 40.390625 
L 9.796875 40.390625 
L 9.796875 12.15625 
C 9.796875 10.234375 9.796875 -1 21.40625 -1 
C 27.296875 -1 30.703125 4.8125 30.703125 12.25 
L 30.703125 17.984375 
L 28.90625 17.984375 
L 28.90625 12.34375 
C 28.90625 5.421875 26.203125 0.796875 22 0.796875 
C 19.09375 0.796875 15.09375 2.796875 15.09375 11.953125 
z
" id="CMR17-116"/>
      <path d="M 15.5 61.890625 
C 15.5 64.09375 13.703125 66 11.40625 66 
C 9.203125 66 7.296875 64.1875 7.296875 61.890625 
C 7.296875 59.6875 9.09375 57.796875 11.40625 57.796875 
C 13.59375 57.796875 15.5 59.59375 15.5 61.890625 
z
M 3.796875 42.890625 
L 3.796875 40.296875 
C 9.40625 40.296875 10.203125 39.6875 10.203125 34.859375 
L 10.203125 6.921875 
C 10.203125 3.09375 9.796875 2.59375 3.40625 2.59375 
L 3.40625 0 
C 5.796875 0.1875 10.09375 0.1875 12.59375 0.1875 
C 15 0.1875 19.09375 0.1875 21.40625 0 
L 21.40625 2.59375 
C 15.5 2.59375 15.296875 3.203125 15.296875 6.8125 
L 15.296875 44 
z
" id="CMR17-105"/>
      <path d="M 67.59375 30.53125 
C 67.59375 35.5625 66.703125 44 54.796875 44 
C 48 44 43.296875 39.375 41.5 33.953125 
L 41.40625 33.953125 
C 40.203125 42.1875 34.296875 44 28.703125 44 
C 20.796875 44 16.703125 37.875 15.203125 33.84375 
L 15.09375 33.84375 
L 15.09375 44 
L 3.296875 42.890625 
L 3.296875 40.28125 
C 9.203125 40.28125 10.09375 39.6875 10.09375 34.859375 
L 10.09375 6.921875 
C 10.09375 3.09375 9.703125 2.59375 3.296875 2.59375 
L 3.296875 0 
C 5.703125 0.1875 10.09375 0.1875 12.703125 0.1875 
C 15.296875 0.1875 19.796875 0.1875 22.203125 0 
L 22.203125 2.59375 
C 15.796875 2.59375 15.40625 3 15.40625 6.921875 
L 15.40625 26.21875 
C 15.40625 35.453125 21 42.390625 28 42.390625 
C 35.40625 42.390625 36.203125 35.765625 36.203125 30.9375 
L 36.203125 6.921875 
C 36.203125 3.09375 35.796875 2.59375 29.40625 2.59375 
L 29.40625 0 
C 31.796875 0.1875 36.203125 0.1875 38.796875 0.1875 
C 41.40625 0.1875 45.90625 0.1875 48.296875 0 
L 48.296875 2.59375 
C 41.90625 2.59375 41.5 3 41.5 6.921875 
L 41.5 26.21875 
C 41.5 35.453125 47.09375 42.390625 54.09375 42.390625 
C 61.5 42.390625 62.296875 35.765625 62.296875 30.9375 
L 62.296875 6.921875 
C 62.296875 3.09375 61.90625 2.59375 55.5 2.59375 
L 55.5 0 
C 57.90625 0.1875 62.296875 0.1875 64.90625 0.1875 
C 67.5 0.1875 72 0.1875 74.40625 0 
L 74.40625 2.59375 
C 68 2.59375 67.59375 3 67.59375 6.921875 
z
" id="CMR17-109"/>
      <path d="M 38.09375 23.484375 
C 38.5 23.890625 38.5 24.09375 38.5 25.09375 
C 38.5 35.171875 33.09375 44 21.703125 44 
C 11.09375 44 2.703125 33.984375 2.703125 21.78125 
C 2.703125 8.65625 12.203125 -1 22.796875 -1 
C 34 -1 38.40625 9.671875 38.40625 11.796875 
C 38.40625 12.5 37.796875 12.5 37.59375 12.5 
C 36.90625 12.5 36.796875 12.296875 36.40625 11.078125 
C 34.203125 4.21875 28.703125 0.796875 23.5 0.796875 
C 19.203125 0.796875 14.90625 3.21875 12.203125 7.65625 
C 9.09375 12.796875 9.09375 18.75 9.09375 23.484375 
z
M 9.203125 25 
C 9.90625 39.234375 17.59375 42.390625 21.59375 42.390625 
C 28.40625 42.390625 33 36.0625 33.09375 25 
z
" id="CMR17-101"/>
     </defs>
     <g transform="translate(238.663033 171.111936)scale(0.18 -0.18)">
      <use transform="scale(0.996264)" xlink:href="#CMR17-116"/>
      <use transform="translate(35.280768 0)scale(0.996264)" xlink:href="#CMR17-105"/>
      <use transform="translate(60.151826 0)scale(0.996264)" xlink:href="#CMR17-109"/>
      <use transform="translate(137.071416 0)scale(0.996264)" xlink:href="#CMR17-101"/>
     </g>
    </g>
   </g>
   <g id="matplotlib.axis_2">
    <g id="ytick_1">
     <g id="line2d_5">
      <defs>
       <path d="M 0 0 
L -3.5 0 
" id="m99ce82cdcb" style="stroke:#000000;stroke-width:0.8;"/>
      </defs>
      <g>
       <use style="stroke:#000000;stroke-width:0.8;" x="81.982336" xlink:href="#m99ce82cdcb" y="133.489571"/>
      </g>
     </g>
     <g id="text_6">
      <!-- $0.0000$ -->
      <defs>
       <path d="M 18.40625 4.796875 
C 18.40625 7.6875 16 9.6875 13.59375 9.6875 
C 10.703125 9.6875 8.703125 7.296875 8.703125 4.890625 
C 8.703125 2 11.09375 0 13.5 0 
C 16.40625 0 18.40625 2.390625 18.40625 4.796875 
z
" id="CMMI12-58"/>
      </defs>
      <g transform="translate(31.626853 139.024365)scale(0.16 -0.16)">
       <use transform="scale(0.996264)" xlink:href="#CMR17-48"/>
       <use transform="translate(45.690477 0)scale(0.996264)" xlink:href="#CMMI12-58"/>
       <use transform="translate(72.787654 0)scale(0.996264)" xlink:href="#CMR17-48"/>
       <use transform="translate(118.478131 0)scale(0.996264)" xlink:href="#CMR17-48"/>
       <use transform="translate(164.168608 0)scale(0.996264)" xlink:href="#CMR17-48"/>
       <use transform="translate(209.859086 0)scale(0.996264)" xlink:href="#CMR17-48"/>
      </g>
     </g>
    </g>
    <g id="ytick_2">
     <g id="line2d_6">
      <g>
       <use style="stroke:#000000;stroke-width:0.8;" x="81.982336" xlink:href="#m99ce82cdcb" y="105.605578"/>
      </g>
     </g>
     <g id="text_7">
      <!-- $0.0025$ -->
      <defs>
       <path d="M 11.40625 58.59375 
C 12.40625 58.1875 16.5 56.890625 20.703125 56.890625 
C 30 56.890625 35.09375 61.890625 38 64.6875 
C 38 65.484375 38 66 37.40625 66 
C 37.296875 66 37.09375 66 36.296875 65.59375 
C 32.796875 64.09375 28.703125 63 23.703125 63 
C 20.703125 63 16.203125 63.359375 11.296875 65.484375 
C 10.203125 66 10 66 9.90625 66 
C 9.40625 66 9.296875 65.890625 9.296875 63.90625 
L 9.296875 34.859375 
C 9.296875 33.015625 9.296875 32.5 10.296875 32.5 
C 10.796875 32.5 11 32.703125 11.5 33.421875 
C 14.703125 38.046875 19.09375 40 24.09375 40 
C 27.59375 40 35.09375 37.734375 35.09375 20.203125 
C 35.09375 16.984375 35.09375 11.1875 32.09375 6.59375 
C 29.59375 2.484375 25.703125 0.390625 21.40625 0.390625 
C 14.796875 0.390625 8.09375 4.984375 6.296875 12.6875 
C 6.703125 12.59375 7.5 12.390625 7.90625 12.390625 
C 9.203125 12.390625 11.703125 13.09375 11.703125 16.1875 
C 11.703125 18.890625 9.796875 20 7.90625 20 
C 5.59375 20 4.09375 18.59375 4.09375 15.796875 
C 4.09375 7.09375 11 -2 21.59375 -2 
C 31.90625 -2 41.703125 6.890625 41.703125 19.796875 
C 41.703125 32.09375 33.90625 41.59375 24.203125 41.59375 
C 19.09375 41.59375 14.796875 39.6875 11.40625 36 
z
" id="CMR17-53"/>
      </defs>
      <g transform="translate(31.626853 111.140372)scale(0.16 -0.16)">
       <use transform="scale(0.996264)" xlink:href="#CMR17-48"/>
       <use transform="translate(45.690477 0)scale(0.996264)" xlink:href="#CMMI12-58"/>
       <use transform="translate(72.787654 0)scale(0.996264)" xlink:href="#CMR17-48"/>
       <use transform="translate(118.478131 0)scale(0.996264)" xlink:href="#CMR17-48"/>
       <use transform="translate(164.168608 0)scale(0.996264)" xlink:href="#CMR17-50"/>
       <use transform="translate(209.859086 0)scale(0.996264)" xlink:href="#CMR17-53"/>
      </g>
     </g>
    </g>
    <g id="ytick_3">
     <g id="line2d_7">
      <g>
       <use style="stroke:#000000;stroke-width:0.8;" x="81.982336" xlink:href="#m99ce82cdcb" y="77.721584"/>
      </g>
     </g>
     <g id="text_8">
      <!-- $0.0050$ -->
      <g transform="translate(31.626853 83.256378)scale(0.16 -0.16)">
       <use transform="scale(0.996264)" xlink:href="#CMR17-48"/>
       <use transform="translate(45.690477 0)scale(0.996264)" xlink:href="#CMMI12-58"/>
       <use transform="translate(72.787654 0)scale(0.996264)" xlink:href="#CMR17-48"/>
       <use transform="translate(118.478131 0)scale(0.996264)" xlink:href="#CMR17-48"/>
       <use transform="translate(164.168608 0)scale(0.996264)" xlink:href="#CMR17-53"/>
       <use transform="translate(209.859086 0)scale(0.996264)" xlink:href="#CMR17-48"/>
      </g>
     </g>
    </g>
    <g id="ytick_4">
     <g id="line2d_8">
      <g>
       <use style="stroke:#000000;stroke-width:0.8;" x="81.982336" xlink:href="#m99ce82cdcb" y="49.837591"/>
      </g>
     </g>
     <g id="text_9">
      <!-- $0.0075$ -->
      <defs>
       <path d="M 45.09375 61.796875 
L 45.09375 64 
L 21.59375 64 
C 9.90625 64 9.703125 65.09375 9.296875 67 
L 7.5 67 
L 4.59375 48.5 
L 6.40625 48.5 
C 6.703125 50.40625 7.40625 55.5 8.59375 57.390625 
C 9.203125 58.1875 16.59375 58.1875 18.296875 58.1875 
L 40.296875 58.1875 
L 29.203125 41.71875 
C 21.796875 30.640625 16.703125 15.671875 16.703125 2.59375 
C 16.703125 1.390625 16.703125 -2 20.296875 -2 
C 23.90625 -2 23.90625 1.390625 23.90625 2.6875 
L 23.90625 7.28125 
C 23.90625 23.65625 26.703125 34.4375 31.296875 41.3125 
z
" id="CMR17-55"/>
      </defs>
      <g transform="translate(31.626853 55.372385)scale(0.16 -0.16)">
       <use transform="scale(0.996264)" xlink:href="#CMR17-48"/>
       <use transform="translate(45.690477 0)scale(0.996264)" xlink:href="#CMMI12-58"/>
       <use transform="translate(72.787654 0)scale(0.996264)" xlink:href="#CMR17-48"/>
       <use transform="translate(118.478131 0)scale(0.996264)" xlink:href="#CMR17-48"/>
       <use transform="translate(164.168608 0)scale(0.996264)" xlink:href="#CMR17-55"/>
       <use transform="translate(209.859086 0)scale(0.996264)" xlink:href="#CMR17-53"/>
      </g>
     </g>
    </g>
    <g id="ytick_5">
     <g id="line2d_9">
      <g>
       <use style="stroke:#000000;stroke-width:0.8;" x="81.982336" xlink:href="#m99ce82cdcb" y="21.953597"/>
      </g>
     </g>
     <g id="text_10">
      <!-- $0.0100$ -->
      <g transform="translate(31.626853 27.488392)scale(0.16 -0.16)">
       <use transform="scale(0.996264)" xlink:href="#CMR17-48"/>
       <use transform="translate(45.690477 0)scale(0.996264)" xlink:href="#CMMI12-58"/>
       <use transform="translate(72.787654 0)scale(0.996264)" xlink:href="#CMR17-48"/>
       <use transform="translate(118.478131 0)scale(0.996264)" xlink:href="#CMR17-49"/>
       <use transform="translate(164.168608 0)scale(0.996264)" xlink:href="#CMR17-48"/>
       <use transform="translate(209.859086 0)scale(0.996264)" xlink:href="#CMR17-48"/>
      </g>
     </g>
    </g>
    <g id="text_11">
     <!-- $P_{I_1}$ -->
     <defs>
      <path d="M 29.59375 31.59375 
L 46.40625 31.59375 
C 60.203125 31.59375 74 41.765625 74 53.125 
C 74 60.90625 67.40625 68 54.796875 68 
L 23.90625 68 
C 22 68 21.09375 68 21.09375 66.09375 
C 21.09375 65.09375 22 65.09375 23.5 65.09375 
C 29.59375 65.09375 29.59375 64.296875 29.59375 63.203125 
C 29.59375 63 29.59375 62.40625 29.203125 60.90625 
L 15.703125 7.359375 
C 14.796875 3.890625 14.59375 2.890625 7.59375 2.890625 
C 5.703125 2.890625 4.703125 2.890625 4.703125 1.09375 
C 4.703125 0 5.59375 0 6.203125 0 
C 8.09375 0 10.09375 0.1875 12 0.1875 
L 23.703125 0.1875 
C 25.59375 0.1875 27.703125 0 29.59375 0 
C 30.40625 0 31.5 0 31.5 1.890625 
C 31.5 2.890625 30.59375 2.890625 29.09375 2.890625 
C 23.09375 2.890625 23 3.59375 23 4.578125 
C 23 5.078125 23.09375 5.765625 23.203125 6.265625 
z
M 36.796875 61.203125 
C 37.703125 64.890625 38.09375 65.09375 42 65.09375 
L 51.90625 65.09375 
C 59.40625 65.09375 65.59375 62.703125 65.59375 55.21875 
C 65.59375 52.640625 64.296875 44.15625 59.703125 39.578125 
C 58 37.78125 53.203125 34 44.09375 34 
L 30 34 
z
" id="CMMI12-80"/>
      <path d="M 36.796875 60.609375 
C 37.703125 64.09375 37.90625 65.09375 45.203125 65.09375 
C 47.40625 65.09375 48.203125 65.09375 48.203125 66.984375 
C 48.203125 68 47.09375 68 46.796875 68 
C 45 68 42.796875 67.796875 41 67.796875 
L 28.703125 67.796875 
C 26.703125 67.796875 24.40625 68 22.40625 68 
C 21.59375 68 20.5 68 20.5 66.09375 
C 20.5 65.09375 21.296875 65.09375 23.296875 65.09375 
C 29.5 65.09375 29.5 64.296875 29.5 63.203125 
C 29.5 62.5 29.296875 61.90625 29.09375 61.015625 
L 15.59375 7.375 
C 14.703125 3.890625 14.5 2.890625 7.203125 2.890625 
C 5 2.890625 4.09375 2.890625 4.09375 1 
C 4.09375 0 5.09375 0 5.59375 0 
C 7.40625 0 9.59375 0.1875 11.40625 0.1875 
L 23.703125 0.1875 
C 25.703125 0.1875 27.90625 0 29.90625 0 
C 30.703125 0 31.90625 0 31.90625 1.796875 
C 31.90625 2.890625 31.296875 2.890625 29.09375 2.890625 
C 22.90625 2.890625 22.90625 3.6875 22.90625 4.875 
C 22.90625 5.078125 22.90625 5.578125 23.296875 7.171875 
z
" id="CMMI12-73"/>
     </defs>
     <g transform="translate(24.138789 82.818086)rotate(-90)scale(0.18 -0.18)">
      <use transform="translate(0 25.404611)scale(0.996264)" xlink:href="#CMMI12-80"/>
      <use transform="translate(62.877232 10.460696)scale(0.697382)" xlink:href="#CMMI12-73"/>
      <use transform="translate(92.994015 0)scale(0.498132)" xlink:href="#CMR17-49"/>
     </g>
    </g>
   </g>
   <g id="line2d_10">
    <path clip-path="url(#p4d5bd8683d)" d="M 97.678775 132.374211 
L 101.728861 131.794747 
L 105.088235 131.095213 
L 107.976668 130.27217 
L 110.551142 129.310058 
L 112.874447 128.206649 
L 115.009376 126.950148 
L 117.018721 125.512384 
L 118.933878 123.87083 
L 120.786243 121.992007 
L 122.607212 119.828023 
L 124.428181 117.313085 
L 126.24915 114.413865 
L 128.101515 111.043203 
L 130.048068 107.02711 
L 132.120206 102.22592 
L 134.443511 96.261706 
L 137.551716 87.608011 
L 142.009951 75.231622 
L 143.893712 70.672971 
L 145.400721 67.580176 
L 146.656561 65.481768 
L 147.755422 64.058035 
L 148.728698 63.148345 
L 149.576391 62.639839 
L 150.361291 62.411769 
L 151.114796 62.41527 
L 151.8683 62.636533 
L 152.684597 63.118635 
L 153.563685 63.911776 
L 154.536962 65.105659 
L 155.635822 66.823555 
L 156.891663 69.215573 
L 158.398672 72.591956 
L 160.282433 77.392716 
L 163.233658 85.61344 
L 167.629101 97.776689 
L 170.07799 103.876371 
L 172.212919 108.618212 
L 174.222264 112.553768 
L 176.137421 115.831985 
L 178.021182 118.628587 
L 179.904943 121.033737 
L 181.788704 123.085823 
L 183.735257 124.878177 
L 185.744602 126.424266 
L 187.848136 127.76024 
L 190.077253 128.911506 
L 192.494746 129.907527 
L 195.163408 130.762743 
L 198.177425 131.489568 
L 201.662383 132.094597 
L 205.838053 132.585305 
L 211.049792 132.964133 
L 218.051104 133.236652 
L 228.694354 133.406505 
L 250.012249 133.48066 
L 378.798711 133.489571 
L 411.607548 133.489571 
L 411.607548 133.489571 
" style="fill:none;stroke:#1f77b4;stroke-linecap:square;stroke-width:1.5;"/>
   </g>
   <g id="line2d_11">
    <path clip-path="url(#p4d5bd8683d)" d="M 97.678775 132.374211 
L 101.728861 131.794388 
L 105.088235 131.093942 
L 107.976668 130.269247 
L 110.551142 129.304408 
L 112.874447 128.196809 
L 115.009376 126.934143 
L 117.018721 125.48749 
L 118.933878 123.833372 
L 120.786243 121.936968 
L 122.607212 119.748448 
L 124.396785 117.246351 
L 126.186358 114.360889 
L 128.007327 111.001111 
L 129.891088 107.054872 
L 131.900433 102.31615 
L 134.129551 96.462223 
L 136.861004 88.614293 
L 142.920435 70.963618 
L 144.647216 66.740984 
L 146.060037 63.845913 
L 147.253086 61.885118 
L 148.289154 60.590832 
L 149.199639 59.792778 
L 150.015935 59.360408 
L 150.76944 59.205194 
L 151.491548 59.278459 
L 152.245052 59.585983 
L 153.029953 60.153443 
L 153.909041 61.079274 
L 154.882318 62.444206 
L 155.981178 64.381544 
L 157.268415 67.123702 
L 158.80682 70.952404 
L 160.816165 76.601414 
L 164.646479 88.213259 
L 167.848873 97.570153 
L 170.172178 103.688567 
L 172.244315 108.53656 
L 174.190868 112.537213 
L 176.074629 115.906428 
L 177.895598 118.72005 
L 179.716567 121.13392 
L 181.568932 123.221275 
L 183.452693 125.008649 
L 185.399246 126.548107 
L 187.439987 127.876521 
L 189.606313 129.019537 
L 191.961014 130.006795 
L 194.566883 130.852495 
L 197.486713 131.562275 
L 200.877483 132.152935 
L 204.958965 132.630742 
L 210.107912 132.998942 
L 217.077827 133.26007 
L 227.878057 133.419002 
L 250.702962 133.483747 
L 411.607548 133.489571 
L 411.607548 133.489571 
" style="fill:none;stroke:#ff7f0e;stroke-linecap:square;stroke-width:1.5;"/>
   </g>
   <g id="line2d_12">
    <path clip-path="url(#p4d5bd8683d)" d="M 97.678775 132.374211 
L 101.697465 131.799116 
L 105.056839 131.098967 
L 107.945272 130.273361 
L 110.48835 129.319078 
L 112.780259 128.226126 
L 114.915188 126.961815 
L 116.893137 125.533997 
L 118.776898 123.901984 
L 120.597867 122.029909 
L 122.38744 119.865914 
L 124.145617 117.385354 
L 125.903794 114.512851 
L 127.661971 111.211051 
L 129.48294 107.306365 
L 131.366701 102.72709 
L 133.376046 97.241508 
L 135.636559 90.393044 
L 138.556389 80.771774 
L 143.234396 65.333623 
L 145.023968 60.235867 
L 146.436789 56.843227 
L 147.629838 54.531303 
L 148.63451 53.038484 
L 149.513599 52.105292 
L 150.298499 51.583407 
L 150.989212 51.375348 
L 151.648528 51.399912 
L 152.307844 51.643482 
L 153.029953 52.159884 
L 153.814853 53.011439 
L 154.693942 54.311051 
L 155.698614 56.217096 
L 156.860267 58.928216 
L 158.241692 62.757977 
L 159.968473 68.257551 
L 162.51155 77.20258 
L 167.220952 93.808467 
L 169.45007 100.79938 
L 171.428019 106.297067 
L 173.280384 110.80395 
L 175.038561 114.515285 
L 176.765342 117.653617 
L 178.460727 120.287102 
L 180.156111 122.522762 
L 181.882892 124.439697 
L 183.672465 126.09434 
L 185.52483 127.504046 
L 187.471383 128.707553 
L 189.574917 129.745413 
L 191.866826 130.627148 
L 194.441299 131.37647 
L 197.423921 132.005678 
L 200.940275 132.513187 
L 205.304321 132.909849 
L 211.081188 133.199365 
L 219.620905 133.385433 
L 235.632873 133.474363 
L 304.861091 133.489568 
L 411.607548 133.489571 
L 411.607548 133.489571 
" style="fill:none;stroke:#2ca02c;stroke-linecap:square;stroke-width:1.5;"/>
   </g>
   <g id="line2d_13">
    <path clip-path="url(#p4d5bd8683d)" d="M 97.678775 132.374211 
L 101.666069 131.80249 
L 104.994047 131.106909 
L 107.851084 130.287091 
L 110.362766 129.339208 
L 112.623279 128.252222 
L 114.695416 127.012406 
L 116.641969 125.588188 
L 118.462938 123.982206 
L 120.221115 122.134035 
L 121.9165 120.027683 
L 123.580489 117.601617 
L 125.213082 114.825082 
L 126.845675 111.602619 
L 128.478268 107.87889 
L 130.142256 103.510648 
L 131.837641 98.409565 
L 133.564422 92.491897 
L 135.385391 85.433323 
L 137.331944 76.975145 
L 139.592458 66.109135 
L 143.297188 46.96629 
L 145.840265 34.410593 
L 147.410066 27.727758 
L 148.63451 23.43528 
L 149.639183 20.679967 
L 150.455479 19.029977 
L 151.146192 18.085675 
L 151.742716 17.623379 
L 152.245052 17.497388 
L 152.715993 17.60275 
L 153.218329 17.956389 
L 153.783457 18.652965 
L 154.442774 19.862607 
L 155.196278 21.756746 
L 156.075366 24.624737 
L 157.080039 28.700697 
L 158.304484 34.664323 
L 159.842888 43.354436 
L 162.228986 58.300732 
L 165.74534 80.142501 
L 167.691893 90.797265 
L 169.387278 98.873611 
L 170.957078 105.294892 
L 172.432691 110.430154 
L 173.876908 114.672002 
L 175.289729 118.146301 
L 176.671154 120.97516 
L 178.052578 123.318022 
L 179.465399 125.285811 
L 180.909616 126.921503 
L 182.416625 128.293548 
L 184.017822 129.447092 
L 185.744602 130.411687 
L 187.628363 131.207451 
L 189.794689 131.874455 
L 192.337766 132.415 
L 195.445972 132.837612 
L 199.496058 133.150173 
L 205.304321 133.356722 
L 215.47663 133.46392 
L 248.473844 133.489448 
L 411.607548 133.489571 
L 411.607548 133.489571 
" style="fill:none;stroke:#d62728;stroke-linecap:square;stroke-width:1.5;"/>
   </g>
   <g id="patch_4">
    <path d="M 81.982336 133.489571 
L 81.982336 10.8 
" style="fill:none;stroke:#000000;stroke-linecap:square;stroke-linejoin:miter;stroke-width:0.8;"/>
   </g>
   <g id="patch_5">
    <path d="M 427.303987 133.489571 
L 427.303987 10.8 
" style="fill:none;stroke:#000000;stroke-linecap:square;stroke-linejoin:miter;stroke-width:0.8;"/>
   </g>
   <g id="patch_6">
    <path d="M 81.982336 133.489571 
L 427.303987 133.489571 
" style="fill:none;stroke:#000000;stroke-linecap:square;stroke-linejoin:miter;stroke-width:0.8;"/>
   </g>
   <g id="patch_7">
    <path d="M 81.982336 10.8 
L 427.303987 10.8 
" style="fill:none;stroke:#000000;stroke-linecap:square;stroke-linejoin:miter;stroke-width:0.8;"/>
   </g>
   <g id="text_12">
    <!-- \textbf{(a)} -->
    <defs>
     <path d="M 37.40625 -23.90625 
C 37.40625 -23.515625 37.40625 -23.3125 35.5 -21.5 
C 24.296875 -10.3125 20 7.296875 20 24.890625 
C 20 44.59375 24.90625 60.796875 36.09375 72.09375 
C 37.296875 73.296875 37.40625 73.390625 37.40625 73.796875 
C 37.40625 75 36.203125 75 35.703125 75 
C 34.796875 75 34.59375 75 32 72.890625 
C 17.59375 61.390625 10.796875 43 10.796875 25 
C 10.796875 6.59375 17.703125 -11.3125 31.90625 -22.90625 
C 34.5 -25.109375 34.703125 -25.109375 35.703125 -25.109375 
C 36.203125 -25.109375 37.40625 -25.109375 37.40625 -23.90625 
z
" id="CMBX12-40"/>
     <path d="M 46 29.59375 
C 46 38.796875 38.703125 45 24.59375 45 
C 19 45 7.203125 44.484375 7.203125 36.09375 
C 7.203125 31.890625 10.40625 30.09375 13.09375 30.09375 
C 16.09375 30.09375 19 32.1875 19 35.984375 
C 19 37.890625 18.296875 39.6875 16.59375 40.796875 
C 19.90625 41.6875 22.296875 41.6875 24.203125 41.6875 
C 31 41.6875 35.09375 37.890625 35.09375 29.6875 
L 35.09375 25.6875 
C 19.296875 25.6875 3.40625 21.28125 3.40625 10.125 
C 3.40625 1 15 -1 21.90625 -1 
C 29.59375 -1 34.5 3.203125 36.5 7.625 
C 36.5 3.90625 36.5 -0.40625 46.59375 -0.40625 
L 51.703125 -0.40625 
C 53.796875 -0.40625 54.59375 -0.40625 54.59375 1.796875 
C 54.59375 3.90625 53.703125 3.90625 52.296875 3.90625 
C 46 4 46 5.609375 46 7.921875 
z
M 35.09375 13.546875 
C 35.09375 4.09375 26.703125 2.296875 23.5 2.296875 
C 18.59375 2.296875 14.5 5.609375 14.5 10.234375 
C 14.5 19.375 25.296875 22.484375 35.09375 23 
z
" id="CMBX12-97"/>
     <path d="M 32.796875 24.890625 
C 32.796875 43.296875 25.90625 61.203125 11.703125 72.796875 
C 9.09375 75 8.90625 75 7.90625 75 
C 7.40625 75 6.203125 75 6.203125 73.796875 
C 6.203125 73.390625 6.203125 73.1875 8.09375 71.390625 
C 19.296875 60.203125 23.59375 42.59375 23.59375 25 
C 23.59375 5.296875 18.703125 -10.90625 7.5 -22.203125 
C 6.296875 -23.40625 6.203125 -23.515625 6.203125 -23.90625 
C 6.203125 -25.109375 7.40625 -25.109375 7.90625 -25.109375 
C 8.796875 -25.109375 9 -25.109375 11.59375 -23 
C 26 -11.5 32.796875 6.890625 32.796875 24.890625 
z
" id="CMBX12-41"/>
    </defs>
    <g transform="translate(99.248419 41.472393)scale(0.18 -0.18)">
     <use transform="scale(0.996264)" xlink:href="#CMBX12-40"/>
     <use transform="translate(43.58655 0)scale(0.996264)" xlink:href="#CMBX12-97"/>
     <use transform="translate(98.069738 0)scale(0.996264)" xlink:href="#CMBX12-41"/>
    </g>
   </g>
  </g>
  <g id="axes_2">
   <g id="patch_8">
    <path d="M 507.878349 133.489571 
L 853.2 133.489571 
L 853.2 10.8 
L 507.878349 10.8 
z
" style="fill:#ffffff;"/>
   </g>
   <g id="matplotlib.axis_3">
    <g id="xtick_5">
     <g id="line2d_14">
      <g>
       <use style="stroke:#000000;stroke-width:0.8;" x="523.574788" xlink:href="#m4cd47eed91" y="133.489571"/>
      </g>
     </g>
     <g id="text_13">
      <!-- $0$ -->
      <g transform="translate(519.672794 151.559159)scale(0.16 -0.16)">
       <use transform="scale(0.996264)" xlink:href="#CMR17-48"/>
      </g>
     </g>
    </g>
    <g id="xtick_6">
     <g id="line2d_15">
      <g>
       <use style="stroke:#000000;stroke-width:0.8;" x="586.360543" xlink:href="#m4cd47eed91" y="133.489571"/>
      </g>
     </g>
     <g id="text_14">
      <!-- $10$ -->
      <g transform="translate(578.556556 151.559159)scale(0.16 -0.16)">
       <use transform="scale(0.996264)" xlink:href="#CMR17-49"/>
       <use transform="translate(45.690477 0)scale(0.996264)" xlink:href="#CMR17-48"/>
      </g>
     </g>
    </g>
    <g id="xtick_7">
     <g id="line2d_16">
      <g>
       <use style="stroke:#000000;stroke-width:0.8;" x="649.146297" xlink:href="#m4cd47eed91" y="133.489571"/>
      </g>
     </g>
     <g id="text_15">
      <!-- $20$ -->
      <g transform="translate(641.34231 151.559159)scale(0.16 -0.16)">
       <use transform="scale(0.996264)" xlink:href="#CMR17-50"/>
       <use transform="translate(45.690477 0)scale(0.996264)" xlink:href="#CMR17-48"/>
      </g>
     </g>
    </g>
    <g id="xtick_8">
     <g id="line2d_17">
      <g>
       <use style="stroke:#000000;stroke-width:0.8;" x="711.932052" xlink:href="#m4cd47eed91" y="133.489571"/>
      </g>
     </g>
     <g id="text_16">
      <!-- $30$ -->
      <g transform="translate(704.128065 151.559159)scale(0.16 -0.16)">
       <use transform="scale(0.996264)" xlink:href="#CMR17-51"/>
       <use transform="translate(45.690477 0)scale(0.996264)" xlink:href="#CMR17-48"/>
      </g>
     </g>
    </g>
    <g id="text_17">
     <!-- time -->
     <g transform="translate(664.559046 171.111936)scale(0.18 -0.18)">
      <use transform="scale(0.996264)" xlink:href="#CMR17-116"/>
      <use transform="translate(35.280768 0)scale(0.996264)" xlink:href="#CMR17-105"/>
      <use transform="translate(60.151826 0)scale(0.996264)" xlink:href="#CMR17-109"/>
      <use transform="translate(137.071416 0)scale(0.996264)" xlink:href="#CMR17-101"/>
     </g>
    </g>
   </g>
   <g id="matplotlib.axis_4">
    <g id="ytick_6">
     <g id="line2d_18">
      <g>
       <use style="stroke:#000000;stroke-width:0.8;" x="507.878349" xlink:href="#m99ce82cdcb" y="127.912773"/>
      </g>
     </g>
     <g id="text_18">
      <!-- $0.00$ -->
      <g transform="translate(473.13084 133.447567)scale(0.16 -0.16)">
       <use transform="scale(0.996264)" xlink:href="#CMR17-48"/>
       <use transform="translate(45.690477 0)scale(0.996264)" xlink:href="#CMMI12-58"/>
       <use transform="translate(72.787654 0)scale(0.996264)" xlink:href="#CMR17-48"/>
       <use transform="translate(118.478131 0)scale(0.996264)" xlink:href="#CMR17-48"/>
      </g>
     </g>
    </g>
    <g id="ytick_7">
     <g id="line2d_19">
      <g>
       <use style="stroke:#000000;stroke-width:0.8;" x="507.878349" xlink:href="#m99ce82cdcb" y="107.321902"/>
      </g>
     </g>
     <g id="text_19">
      <!-- $0.05$ -->
      <g transform="translate(473.13084 112.856696)scale(0.16 -0.16)">
       <use transform="scale(0.996264)" xlink:href="#CMR17-48"/>
       <use transform="translate(45.690477 0)scale(0.996264)" xlink:href="#CMMI12-58"/>
       <use transform="translate(72.787654 0)scale(0.996264)" xlink:href="#CMR17-48"/>
       <use transform="translate(118.478131 0)scale(0.996264)" xlink:href="#CMR17-53"/>
      </g>
     </g>
    </g>
    <g id="ytick_8">
     <g id="line2d_20">
      <g>
       <use style="stroke:#000000;stroke-width:0.8;" x="507.878349" xlink:href="#m99ce82cdcb" y="86.731031"/>
      </g>
     </g>
     <g id="text_20">
      <!-- $0.10$ -->
      <g transform="translate(473.13084 92.265825)scale(0.16 -0.16)">
       <use transform="scale(0.996264)" xlink:href="#CMR17-48"/>
       <use transform="translate(45.690477 0)scale(0.996264)" xlink:href="#CMMI12-58"/>
       <use transform="translate(72.787654 0)scale(0.996264)" xlink:href="#CMR17-49"/>
       <use transform="translate(118.478131 0)scale(0.996264)" xlink:href="#CMR17-48"/>
      </g>
     </g>
    </g>
    <g id="ytick_9">
     <g id="line2d_21">
      <g>
       <use style="stroke:#000000;stroke-width:0.8;" x="507.878349" xlink:href="#m99ce82cdcb" y="66.14016"/>
      </g>
     </g>
     <g id="text_21">
      <!-- $0.15$ -->
      <g transform="translate(473.13084 71.674955)scale(0.16 -0.16)">
       <use transform="scale(0.996264)" xlink:href="#CMR17-48"/>
       <use transform="translate(45.690477 0)scale(0.996264)" xlink:href="#CMMI12-58"/>
       <use transform="translate(72.787654 0)scale(0.996264)" xlink:href="#CMR17-49"/>
       <use transform="translate(118.478131 0)scale(0.996264)" xlink:href="#CMR17-53"/>
      </g>
     </g>
    </g>
    <g id="ytick_10">
     <g id="line2d_22">
      <g>
       <use style="stroke:#000000;stroke-width:0.8;" x="507.878349" xlink:href="#m99ce82cdcb" y="45.54929"/>
      </g>
     </g>
     <g id="text_22">
      <!-- $0.20$ -->
      <g transform="translate(473.13084 51.084084)scale(0.16 -0.16)">
       <use transform="scale(0.996264)" xlink:href="#CMR17-48"/>
       <use transform="translate(45.690477 0)scale(0.996264)" xlink:href="#CMMI12-58"/>
       <use transform="translate(72.787654 0)scale(0.996264)" xlink:href="#CMR17-50"/>
       <use transform="translate(118.478131 0)scale(0.996264)" xlink:href="#CMR17-48"/>
      </g>
     </g>
    </g>
    <g id="ytick_11">
     <g id="line2d_23">
      <g>
       <use style="stroke:#000000;stroke-width:0.8;" x="507.878349" xlink:href="#m99ce82cdcb" y="24.958419"/>
      </g>
     </g>
     <g id="text_23">
      <!-- $0.25$ -->
      <g transform="translate(473.13084 30.493213)scale(0.16 -0.16)">
       <use transform="scale(0.996264)" xlink:href="#CMR17-48"/>
       <use transform="translate(45.690477 0)scale(0.996264)" xlink:href="#CMMI12-58"/>
       <use transform="translate(72.787654 0)scale(0.996264)" xlink:href="#CMR17-50"/>
       <use transform="translate(118.478131 0)scale(0.996264)" xlink:href="#CMR17-53"/>
      </g>
     </g>
    </g>
    <g id="text_24">
     <!-- $P_{R_1}$ -->
     <defs>
      <path d="M 36.796875 61.203125 
C 37.703125 64.890625 38.09375 65.09375 42 65.09375 
L 49.203125 65.09375 
C 57.796875 65.09375 64.203125 62.5 64.203125 54.734375 
C 64.203125 49.640625 61.59375 35 41.5 35 
L 30.203125 35 
z
M 50.703125 33.796875 
C 63.09375 36.484375 72.796875 44.46875 72.796875 53.03125 
C 72.796875 60.8125 64.90625 68 51 68 
L 23.90625 68 
C 21.90625 68 21 68 21 66.09375 
C 21 65.09375 21.703125 65.09375 23.59375 65.09375 
C 29.59375 65.09375 29.59375 64.296875 29.59375 63.203125 
C 29.59375 63 29.59375 62.40625 29.203125 60.90625 
L 15.703125 7.421875 
C 14.796875 3.953125 14.59375 2.96875 7.703125 2.96875 
C 5.40625 2.96875 4.703125 2.96875 4.703125 1.078125 
C 4.703125 0.09375 5.796875 0.09375 6.09375 0.09375 
C 7.90625 0.09375 10 0.296875 11.90625 0.296875 
L 23.703125 0.296875 
C 25.5 0.296875 27.59375 0.09375 29.40625 0.09375 
C 30.203125 0.09375 31.296875 0.09375 31.296875 1.96875 
C 31.296875 2.96875 30.40625 2.96875 28.90625 2.96875 
C 22.796875 2.96875 22.796875 3.765625 22.796875 4.75 
C 22.796875 4.84375 22.796875 5.546875 23 6.328125 
L 29.703125 33 
L 41.703125 33 
C 51.203125 33 53 27.046875 53 23.78125 
C 53 22.28125 52 18.421875 51.296875 15.84375 
C 50.203125 11.296875 49.90625 10.203125 49.90625 8.3125 
C 49.90625 1.28125 55.703125 -2 62.40625 -2 
C 70.5 -2 74 7.828125 74 9.203125 
C 74 9.90625 73.5 10.203125 72.90625 10.203125 
C 72.09375 10.203125 71.90625 9.609375 71.703125 8.8125 
C 69.296875 1.78125 65.203125 0 62.703125 0 
C 60.203125 0 58.59375 1.078125 58.59375 5.546875 
C 58.59375 7.921875 59.796875 16.9375 59.90625 17.4375 
C 60.40625 21.09375 60.40625 21.5 60.40625 22.28125 
C 60.40625 29.515625 54.5 32.59375 50.703125 33.796875 
z
" id="CMMI12-82"/>
     </defs>
     <g transform="translate(465.642776 84.785356)rotate(-90)scale(0.18 -0.18)">
      <use transform="translate(0 25.404611)scale(0.996264)" xlink:href="#CMMI12-80"/>
      <use transform="translate(62.877232 10.460696)scale(0.697382)" xlink:href="#CMMI12-82"/>
      <use transform="translate(114.852582 0)scale(0.498132)" xlink:href="#CMR17-49"/>
     </g>
    </g>
   </g>
   <g id="line2d_24">
    <path clip-path="url(#p1e05d13a83)" d="M 523.574788 127.912773 
L 530.387724 127.556197 
L 535.37969 127.081756 
L 539.366984 126.486275 
L 542.694962 125.770953 
L 545.583396 124.92897 
L 548.189265 123.939779 
L 550.543966 122.811801 
L 552.741688 121.516274 
L 554.845221 120.017668 
L 556.885962 118.285589 
L 558.863911 116.312613 
L 560.84186 114.021284 
L 562.851205 111.344289 
L 564.923342 108.200371 
L 567.089667 104.498123 
L 569.444369 100.020728 
L 572.175822 94.325297 
L 575.943344 85.898642 
L 581.877191 72.640339 
L 584.671437 66.969858 
L 587.08893 62.551264 
L 589.318047 58.931084 
L 591.421581 55.928086 
L 593.462322 53.390783 
L 595.503063 51.203627 
L 597.543804 49.338265 
L 599.647337 47.717516 
L 601.813662 46.32941 
L 604.105571 45.126972 
L 606.554461 44.095376 
L 609.223122 43.213974 
L 612.205744 42.465427 
L 615.62791 41.839791 
L 619.709392 41.327656 
L 624.764151 40.928409 
L 631.420106 40.638729 
L 641.247059 40.452883 
L 659.676521 40.364253 
L 739.767761 40.349193 
L 837.503561 40.34919 
L 837.503561 40.34919 
" style="fill:none;stroke:#1f77b4;stroke-linecap:square;stroke-width:1.5;"/>
   </g>
   <g id="line2d_25">
    <path clip-path="url(#p1e05d13a83)" d="M 523.574788 127.912773 
L 530.387724 127.556151 
L 535.37969 127.081403 
L 539.366984 126.485129 
L 542.694962 125.768257 
L 545.583396 124.923622 
L 548.157869 123.943679 
L 550.51257 122.812687 
L 552.710292 121.511666 
L 554.782429 120.028613 
L 556.791774 118.316238 
L 558.769723 116.332754 
L 560.716276 114.061999 
L 562.694225 111.405272 
L 564.70357 108.328451 
L 566.807103 104.694998 
L 569.099012 100.275699 
L 571.673486 94.808559 
L 575.001464 87.174454 
L 582.630696 69.490435 
L 585.267961 64.052442 
L 587.591266 59.758234 
L 589.726196 56.265045 
L 591.766937 53.33944 
L 593.776282 50.842408 
L 595.754231 48.733181 
L 597.763576 46.913853 
L 599.804317 45.363486 
L 601.939246 44.021095 
L 604.199759 42.86513 
L 606.617253 41.879884 
L 609.285914 41.035536 
L 612.299932 40.321277 
L 615.78489 39.731332 
L 619.96056 39.2584 
L 625.235091 38.896109 
L 632.393383 38.641866 
L 643.601761 38.489714 
L 668.184842 38.430576 
L 837.503561 38.426253 
L 837.503561 38.426253 
" style="fill:none;stroke:#ff7f0e;stroke-linecap:square;stroke-width:1.5;"/>
   </g>
   <g id="line2d_26">
    <path clip-path="url(#p1e05d13a83)" d="M 523.574788 127.912773 
L 530.387724 127.556053 
L 535.37969 127.080648 
L 539.335588 126.48839 
L 542.663566 125.770456 
L 545.552 124.922744 
L 548.126473 123.936768 
L 550.449778 122.812487 
L 552.616104 121.519884 
L 554.656845 120.046193 
L 556.634794 118.342471 
L 558.549951 116.398831 
L 560.465108 114.132327 
L 562.380265 111.513059 
L 564.326818 108.465413 
L 566.336163 104.898042 
L 568.471092 100.642594 
L 570.825793 95.432577 
L 573.588643 88.75124 
L 577.984085 77.437043 
L 582.191152 66.827524 
L 584.828417 60.766782 
L 587.08893 56.107464 
L 589.161067 52.328991 
L 591.139016 49.176674 
L 593.054173 46.538501 
L 594.937934 44.31816 
L 596.821695 42.437826 
L 598.736852 40.837366 
L 600.714802 39.471893 
L 602.818335 38.292927 
L 605.047452 37.299135 
L 607.496341 36.45228 
L 610.259191 35.737106 
L 613.461584 35.145822 
L 617.291898 34.673791 
L 622.126885 34.3135 
L 628.720049 34.060937 
L 639.080734 33.911199 
L 662.156807 33.854262 
L 837.503561 33.850467 
L 837.503561 33.850467 
" style="fill:none;stroke:#2ca02c;stroke-linecap:square;stroke-width:1.5;"/>
   </g>
   <g id="line2d_27">
    <path clip-path="url(#p1e05d13a83)" d="M 523.574788 127.912773 
L 530.387724 127.555776 
L 535.348294 127.082342 
L 539.272796 126.492962 
L 542.569378 125.778226 
L 545.39502 124.943692 
L 547.906701 123.974753 
L 550.19861 122.853353 
L 552.302143 121.577929 
L 554.280092 120.119111 
L 556.163854 118.452888 
L 557.984822 116.543253 
L 559.774395 114.338175 
L 561.532572 111.813703 
L 563.290749 108.894673 
L 565.080322 105.481162 
L 566.901291 101.518691 
L 568.816448 96.799592 
L 570.857189 91.153516 
L 573.117703 84.213516 
L 575.880552 74.958944 
L 583.917932 47.528672 
L 586.021466 41.417313 
L 587.873831 36.685808 
L 589.600612 32.862841 
L 591.233204 29.768444 
L 592.834401 27.200398 
L 594.404202 25.094699 
L 595.974003 23.352856 
L 597.5752 21.902275 
L 599.239189 20.69107 
L 600.997366 19.682821 
L 602.912523 18.839695 
L 605.078848 18.134401 
L 607.559133 17.566154 
L 610.541755 17.117276 
L 614.372069 16.777961 
L 619.677996 16.547643 
L 628.406088 16.418546 
L 650.948429 16.377889 
L 837.503561 16.376799 
L 837.503561 16.376799 
" style="fill:none;stroke:#d62728;stroke-linecap:square;stroke-width:1.5;"/>
   </g>
   <g id="patch_9">
    <path d="M 507.878349 133.489571 
L 507.878349 10.8 
" style="fill:none;stroke:#000000;stroke-linecap:square;stroke-linejoin:miter;stroke-width:0.8;"/>
   </g>
   <g id="patch_10">
    <path d="M 853.2 133.489571 
L 853.2 10.8 
" style="fill:none;stroke:#000000;stroke-linecap:square;stroke-linejoin:miter;stroke-width:0.8;"/>
   </g>
   <g id="patch_11">
    <path d="M 507.878349 133.489571 
L 853.2 133.489571 
" style="fill:none;stroke:#000000;stroke-linecap:square;stroke-linejoin:miter;stroke-width:0.8;"/>
   </g>
   <g id="patch_12">
    <path d="M 507.878349 10.8 
L 853.2 10.8 
" style="fill:none;stroke:#000000;stroke-linecap:square;stroke-linejoin:miter;stroke-width:0.8;"/>
   </g>
   <g id="text_25">
    <!-- \textbf{(b)} -->
    <defs>
     <path d="M 20.796875 70 
L 3.5 69.1875 
L 3.5 64.890625 
C 9.703125 64.890625 10.40625 64.890625 10.40625 60.875 
L 10.40625 -0.40625 
L 14.59375 -0.40625 
C 16.296875 1.5 18 3.40625 19.59375 5.421875 
C 24.703125 0.09375 30.203125 -1 34.203125 -1 
C 48 -1 58.59375 7.4375 58.59375 22.09375 
C 58.59375 35.9375 49.203125 45 35.5 45 
C 29.59375 45 24.90625 43.09375 20.796875 39.875 
z
M 21.296875 35.03125 
C 24.796875 39.875 30 41.6875 34.203125 41.6875 
C 46.59375 41.6875 46.59375 28.859375 46.59375 22.1875 
C 46.59375 17.65625 46.59375 11.890625 44.203125 8.15625 
C 41.09375 3.296875 36.40625 2.296875 33.203125 2.296875 
C 26.40625 2.296875 22.703125 7.140625 21.296875 9.359375 
z
" id="CMBX12-98"/>
    </defs>
    <g transform="translate(525.144432 41.472393)scale(0.18 -0.18)">
     <use transform="scale(0.996264)" xlink:href="#CMBX12-40"/>
     <use transform="translate(43.58655 0)scale(0.996264)" xlink:href="#CMBX12-98"/>
     <use transform="translate(105.853051 0)scale(0.996264)" xlink:href="#CMBX12-41"/>
    </g>
   </g>
  </g>
  <g id="axes_3">
   <g id="patch_13">
    <path d="M 81.982336 308.089571 
L 427.303987 308.089571 
L 427.303987 185.4 
L 81.982336 185.4 
z
" style="fill:#ffffff;"/>
   </g>
   <g id="matplotlib.axis_5">
    <g id="xtick_9">
     <g id="line2d_28">
      <g>
       <use style="stroke:#000000;stroke-width:0.8;" x="97.678775" xlink:href="#m4cd47eed91" y="308.089571"/>
      </g>
     </g>
     <g id="text_26">
      <!-- $0$ -->
      <g transform="translate(93.776781 326.159159)scale(0.16 -0.16)">
       <use transform="scale(0.996264)" xlink:href="#CMR17-48"/>
      </g>
     </g>
    </g>
    <g id="xtick_10">
     <g id="line2d_29">
      <g>
       <use style="stroke:#000000;stroke-width:0.8;" x="160.46453" xlink:href="#m4cd47eed91" y="308.089571"/>
      </g>
     </g>
     <g id="text_27">
      <!-- $10$ -->
      <g transform="translate(152.660543 326.159159)scale(0.16 -0.16)">
       <use transform="scale(0.996264)" xlink:href="#CMR17-49"/>
       <use transform="translate(45.690477 0)scale(0.996264)" xlink:href="#CMR17-48"/>
      </g>
     </g>
    </g>
    <g id="xtick_11">
     <g id="line2d_30">
      <g>
       <use style="stroke:#000000;stroke-width:0.8;" x="223.250284" xlink:href="#m4cd47eed91" y="308.089571"/>
      </g>
     </g>
     <g id="text_28">
      <!-- $20$ -->
      <g transform="translate(215.446297 326.159159)scale(0.16 -0.16)">
       <use transform="scale(0.996264)" xlink:href="#CMR17-50"/>
       <use transform="translate(45.690477 0)scale(0.996264)" xlink:href="#CMR17-48"/>
      </g>
     </g>
    </g>
    <g id="xtick_12">
     <g id="line2d_31">
      <g>
       <use style="stroke:#000000;stroke-width:0.8;" x="286.036039" xlink:href="#m4cd47eed91" y="308.089571"/>
      </g>
     </g>
     <g id="text_29">
      <!-- $30$ -->
      <g transform="translate(278.232052 326.159159)scale(0.16 -0.16)">
       <use transform="scale(0.996264)" xlink:href="#CMR17-51"/>
       <use transform="translate(45.690477 0)scale(0.996264)" xlink:href="#CMR17-48"/>
      </g>
     </g>
    </g>
    <g id="text_30">
     <!-- time -->
     <g transform="translate(238.663033 345.711936)scale(0.18 -0.18)">
      <use transform="scale(0.996264)" xlink:href="#CMR17-116"/>
      <use transform="translate(35.280768 0)scale(0.996264)" xlink:href="#CMR17-105"/>
      <use transform="translate(60.151826 0)scale(0.996264)" xlink:href="#CMR17-109"/>
      <use transform="translate(137.071416 0)scale(0.996264)" xlink:href="#CMR17-101"/>
     </g>
    </g>
   </g>
   <g id="matplotlib.axis_6">
    <g id="ytick_12">
     <g id="line2d_32">
      <g>
       <use style="stroke:#000000;stroke-width:0.8;" x="81.982336" xlink:href="#m99ce82cdcb" y="308.089571"/>
      </g>
     </g>
     <g id="text_31">
      <!-- $0.0000$ -->
      <g transform="translate(31.626853 313.624365)scale(0.16 -0.16)">
       <use transform="scale(0.996264)" xlink:href="#CMR17-48"/>
       <use transform="translate(45.690477 0)scale(0.996264)" xlink:href="#CMMI12-58"/>
       <use transform="translate(72.787654 0)scale(0.996264)" xlink:href="#CMR17-48"/>
       <use transform="translate(118.478131 0)scale(0.996264)" xlink:href="#CMR17-48"/>
       <use transform="translate(164.168608 0)scale(0.996264)" xlink:href="#CMR17-48"/>
       <use transform="translate(209.859086 0)scale(0.996264)" xlink:href="#CMR17-48"/>
      </g>
     </g>
    </g>
    <g id="ytick_13">
     <g id="line2d_33">
      <g>
       <use style="stroke:#000000;stroke-width:0.8;" x="81.982336" xlink:href="#m99ce82cdcb" y="280.205578"/>
      </g>
     </g>
     <g id="text_32">
      <!-- $0.0025$ -->
      <g transform="translate(31.626853 285.740372)scale(0.16 -0.16)">
       <use transform="scale(0.996264)" xlink:href="#CMR17-48"/>
       <use transform="translate(45.690477 0)scale(0.996264)" xlink:href="#CMMI12-58"/>
       <use transform="translate(72.787654 0)scale(0.996264)" xlink:href="#CMR17-48"/>
       <use transform="translate(118.478131 0)scale(0.996264)" xlink:href="#CMR17-48"/>
       <use transform="translate(164.168608 0)scale(0.996264)" xlink:href="#CMR17-50"/>
       <use transform="translate(209.859086 0)scale(0.996264)" xlink:href="#CMR17-53"/>
      </g>
     </g>
    </g>
    <g id="ytick_14">
     <g id="line2d_34">
      <g>
       <use style="stroke:#000000;stroke-width:0.8;" x="81.982336" xlink:href="#m99ce82cdcb" y="252.321584"/>
      </g>
     </g>
     <g id="text_33">
      <!-- $0.0050$ -->
      <g transform="translate(31.626853 257.856378)scale(0.16 -0.16)">
       <use transform="scale(0.996264)" xlink:href="#CMR17-48"/>
       <use transform="translate(45.690477 0)scale(0.996264)" xlink:href="#CMMI12-58"/>
       <use transform="translate(72.787654 0)scale(0.996264)" xlink:href="#CMR17-48"/>
       <use transform="translate(118.478131 0)scale(0.996264)" xlink:href="#CMR17-48"/>
       <use transform="translate(164.168608 0)scale(0.996264)" xlink:href="#CMR17-53"/>
       <use transform="translate(209.859086 0)scale(0.996264)" xlink:href="#CMR17-48"/>
      </g>
     </g>
    </g>
    <g id="ytick_15">
     <g id="line2d_35">
      <g>
       <use style="stroke:#000000;stroke-width:0.8;" x="81.982336" xlink:href="#m99ce82cdcb" y="224.437591"/>
      </g>
     </g>
     <g id="text_34">
      <!-- $0.0075$ -->
      <g transform="translate(31.626853 229.972385)scale(0.16 -0.16)">
       <use transform="scale(0.996264)" xlink:href="#CMR17-48"/>
       <use transform="translate(45.690477 0)scale(0.996264)" xlink:href="#CMMI12-58"/>
       <use transform="translate(72.787654 0)scale(0.996264)" xlink:href="#CMR17-48"/>
       <use transform="translate(118.478131 0)scale(0.996264)" xlink:href="#CMR17-48"/>
       <use transform="translate(164.168608 0)scale(0.996264)" xlink:href="#CMR17-55"/>
       <use transform="translate(209.859086 0)scale(0.996264)" xlink:href="#CMR17-53"/>
      </g>
     </g>
    </g>
    <g id="ytick_16">
     <g id="line2d_36">
      <g>
       <use style="stroke:#000000;stroke-width:0.8;" x="81.982336" xlink:href="#m99ce82cdcb" y="196.553597"/>
      </g>
     </g>
     <g id="text_35">
      <!-- $0.0100$ -->
      <g transform="translate(31.626853 202.088392)scale(0.16 -0.16)">
       <use transform="scale(0.996264)" xlink:href="#CMR17-48"/>
       <use transform="translate(45.690477 0)scale(0.996264)" xlink:href="#CMMI12-58"/>
       <use transform="translate(72.787654 0)scale(0.996264)" xlink:href="#CMR17-48"/>
       <use transform="translate(118.478131 0)scale(0.996264)" xlink:href="#CMR17-49"/>
       <use transform="translate(164.168608 0)scale(0.996264)" xlink:href="#CMR17-48"/>
       <use transform="translate(209.859086 0)scale(0.996264)" xlink:href="#CMR17-48"/>
      </g>
     </g>
    </g>
    <g id="text_36">
     <!-- $P_{I_2}$ -->
     <g transform="translate(24.138789 257.418086)rotate(-90)scale(0.18 -0.18)">
      <use transform="translate(0 25.404611)scale(0.996264)" xlink:href="#CMMI12-80"/>
      <use transform="translate(62.877232 10.460696)scale(0.697382)" xlink:href="#CMMI12-73"/>
      <use transform="translate(92.994015 0)scale(0.498132)" xlink:href="#CMR17-50"/>
     </g>
    </g>
   </g>
   <g id="line2d_37">
    <path clip-path="url(#p780c3b4fa8)" d="M 97.678775 306.974211 
L 101.728861 306.396014 
L 105.119631 305.691778 
L 108.039461 304.86127 
L 110.613934 303.902087 
L 112.968635 302.789012 
L 115.13496 301.521008 
L 117.175701 300.070938 
L 119.153651 298.388924 
L 121.068808 296.463172 
L 122.952569 294.248854 
L 124.83633 291.685991 
L 126.751487 288.698258 
L 128.729436 285.194521 
L 130.864365 280.944633 
L 133.250462 275.680172 
L 136.484252 267.948565 
L 140.942486 257.340197 
L 142.920435 253.224673 
L 144.490236 250.44672 
L 145.808869 248.535778 
L 146.970522 247.219075 
L 148.00659 246.359779 
L 148.948471 245.849355 
L 149.827559 245.611529 
L 150.706648 245.605707 
L 151.585736 245.830007 
L 152.496221 246.299316 
L 153.469497 247.057131 
L 154.568358 248.211595 
L 155.792802 249.838329 
L 157.205623 252.103748 
L 158.901008 255.267655 
L 161.098729 259.877658 
L 165.525568 269.837387 
L 168.916337 277.162461 
L 171.459415 282.138337 
L 173.751324 286.145565 
L 175.917649 289.494073 
L 178.021182 292.342923 
L 180.093319 294.781989 
L 182.165457 296.88535 
L 184.300386 298.736154 
L 186.498107 300.345161 
L 188.790016 301.745577 
L 191.207509 302.961347 
L 193.813379 304.021195 
L 196.670416 304.939752 
L 199.87281 305.729899 
L 203.514748 306.393791 
L 207.816002 306.943809 
L 213.059137 307.380442 
L 219.809281 307.707925 
L 229.322274 307.930478 
L 245.302847 308.053059 
L 289.037498 308.088923 
L 411.607548 308.089571 
L 411.607548 308.089571 
" style="fill:none;stroke:#1f77b4;stroke-linecap:square;stroke-width:1.5;"/>
   </g>
   <g id="line2d_38">
    <path clip-path="url(#p780c3b4fa8)" d="M 97.678775 306.974211 
L 101.728861 306.395452 
L 105.088235 305.697706 
L 108.008065 304.86763 
L 110.582538 303.907897 
L 112.937239 302.792757 
L 115.103564 301.520518 
L 117.144305 300.063119 
L 119.090858 298.3985 
L 120.974619 296.494249 
L 122.826984 294.304514 
L 124.679349 291.767178 
L 126.563111 288.801859 
L 128.509664 285.310103 
L 130.550405 281.180614 
L 132.810918 276.082822 
L 135.542371 269.338774 
L 142.104139 252.88485 
L 143.862316 249.211189 
L 145.306533 246.679634 
L 146.530977 244.950766 
L 147.629838 243.766417 
L 148.603114 243.029344 
L 149.482203 242.62636 
L 150.329895 242.47894 
L 151.146192 242.561761 
L 151.993884 242.878872 
L 152.872973 243.450385 
L 153.846249 244.359367 
L 154.913714 245.669034 
L 156.138158 247.536533 
L 157.582375 250.171805 
L 159.340552 253.880164 
L 161.695253 259.413999 
L 169.198902 277.413916 
L 171.584999 282.362215 
L 173.751324 286.355917 
L 175.823461 289.718113 
L 177.832806 292.562922 
L 179.842151 295.024367 
L 181.851496 297.135809 
L 183.892237 298.959954 
L 185.995771 300.543626 
L 188.193492 301.920751 
L 190.516797 303.115388 
L 193.028478 304.156229 
L 195.791328 305.057404 
L 198.899534 305.831188 
L 202.447283 306.479082 
L 206.65435 307.012971 
L 211.803297 307.433074 
L 218.522044 307.74589 
L 228.160621 307.954003 
L 244.988886 308.062903 
L 298.456303 308.089419 
L 411.607548 308.089571 
L 411.607548 308.089571 
" style="fill:none;stroke:#ff7f0e;stroke-linecap:square;stroke-width:1.5;"/>
   </g>
   <g id="line2d_39">
    <path clip-path="url(#p780c3b4fa8)" d="M 97.678775 306.974211 
L 101.728861 306.394251 
L 105.088235 305.693958 
L 107.976668 304.86961 
L 110.551142 303.9054 
L 112.874447 302.798821 
L 115.009376 301.537703 
L 117.018721 300.093331 
L 118.933878 298.442483 
L 120.786243 296.550701 
L 122.607212 294.368673 
L 124.396785 291.875529 
L 126.217754 288.948451 
L 128.070119 285.536764 
L 129.985276 281.529052 
L 132.026017 276.722332 
L 134.286531 270.802468 
L 137.112172 262.733387 
L 142.543683 247.098944 
L 144.333256 242.706018 
L 145.777473 239.724477 
L 146.970522 237.736772 
L 148.00659 236.410045 
L 148.917075 235.57752 
L 149.733371 235.110336 
L 150.486875 234.920394 
L 151.208984 234.958629 
L 151.962488 235.228365 
L 152.747389 235.755735 
L 153.595081 236.599905 
L 154.568358 237.904365 
L 155.667218 239.776234 
L 156.923059 242.376006 
L 158.430068 246.034374 
L 160.376621 251.394102 
L 163.735995 261.43371 
L 167.283744 271.792689 
L 169.638446 277.99418 
L 171.710583 282.850152 
L 173.657136 286.863828 
L 175.540897 290.248455 
L 177.393262 293.123536 
L 179.214231 295.547773 
L 181.066596 297.646575 
L 182.950357 299.446185 
L 184.89691 300.99861 
L 186.937651 302.340667 
L 189.103976 303.497905 
L 191.458678 304.499992 
L 194.033151 305.351958 
L 196.95298 306.07963 
L 200.34375 306.687922 
L 204.393837 307.179737 
L 209.448595 307.559847 
L 216.230135 307.833589 
L 226.496632 308.004579 
L 246.966835 308.080154 
L 366.208908 308.089571 
L 411.607548 308.089571 
L 411.607548 308.089571 
" style="fill:none;stroke:#2ca02c;stroke-linecap:square;stroke-width:1.5;"/>
   </g>
   <g id="line2d_40">
    <path clip-path="url(#p780c3b4fa8)" d="M 97.678775 306.974211 
L 101.697465 306.396381 
L 105.025443 305.698923 
L 107.88248 304.877423 
L 110.394162 303.92829 
L 112.654675 302.840797 
L 114.726812 301.601626 
L 116.673365 300.179776 
L 118.52573 298.548399 
L 120.283907 296.702979 
L 122.010688 294.561498 
L 123.674677 292.141689 
L 125.338666 289.322383 
L 127.002655 286.051666 
L 128.666644 282.277046 
L 130.362029 277.861398 
L 132.088809 272.726987 
L 133.878382 266.695659 
L 135.793539 259.439855 
L 137.959865 250.315975 
L 140.816902 237.220839 
L 144.678612 219.621896 
L 146.311205 213.226409 
L 147.567046 209.138025 
L 148.603114 206.469044 
L 149.482203 204.787489 
L 150.204311 203.847853 
L 150.832232 203.37528 
L 151.365964 203.23528 
L 151.8683 203.328166 
L 152.402032 203.668315 
L 152.998557 204.34347 
L 153.657873 205.448482 
L 154.411378 207.160787 
L 155.290466 209.734555 
L 156.326535 213.496672 
L 157.582375 218.96358 
L 159.183572 227.026002 
L 161.789442 241.500057 
L 165.023231 259.142227 
L 167.00118 268.689674 
L 168.727961 275.956069 
L 170.329158 281.75587 
L 171.836167 286.414413 
L 173.31178 290.27896 
L 174.755997 293.460265 
L 176.200213 296.118196 
L 177.64443 298.323329 
L 179.120043 300.178046 
L 180.627052 301.723208 
L 182.228249 303.045561 
L 183.923633 304.154446 
L 185.744602 305.080145 
L 187.785344 305.864594 
L 190.108649 306.514078 
L 192.840102 307.040971 
L 196.199476 307.454805 
L 200.594918 307.760834 
L 206.96831 307.96311 
L 218.302272 308.066472 
L 257.076353 308.089503 
L 411.607548 308.089571 
L 411.607548 308.089571 
" style="fill:none;stroke:#d62728;stroke-linecap:square;stroke-width:1.5;"/>
   </g>
   <g id="patch_14">
    <path d="M 81.982336 308.089571 
L 81.982336 185.4 
" style="fill:none;stroke:#000000;stroke-linecap:square;stroke-linejoin:miter;stroke-width:0.8;"/>
   </g>
   <g id="patch_15">
    <path d="M 427.303987 308.089571 
L 427.303987 185.4 
" style="fill:none;stroke:#000000;stroke-linecap:square;stroke-linejoin:miter;stroke-width:0.8;"/>
   </g>
   <g id="patch_16">
    <path d="M 81.982336 308.089571 
L 427.303987 308.089571 
" style="fill:none;stroke:#000000;stroke-linecap:square;stroke-linejoin:miter;stroke-width:0.8;"/>
   </g>
   <g id="patch_17">
    <path d="M 81.982336 185.4 
L 427.303987 185.4 
" style="fill:none;stroke:#000000;stroke-linecap:square;stroke-linejoin:miter;stroke-width:0.8;"/>
   </g>
   <g id="text_37">
    <!-- \textbf{(c)} -->
    <defs>
     <path d="M 46.796875 11.3125 
C 46.796875 12.515625 45.703125 12.515625 44.703125 12.515625 
C 43.09375 12.515625 43 12.421875 42.5 11.21875 
C 41.796875 9.3125 39.09375 2.59375 29.90625 2.59375 
C 15.796875 2.59375 15.796875 17.828125 15.796875 22.34375 
C 15.796875 28.25 15.90625 41.390625 29 41.390625 
C 29.703125 41.390625 35.59375 41.1875 35.59375 40.6875 
C 35.59375 40.59375 35.5 40.484375 35.296875 40.390625 
C 35 40.09375 33.703125 38.578125 33.703125 36.078125 
C 33.703125 31.859375 37.09375 30.15625 39.59375 30.15625 
C 41.703125 30.15625 45.5 31.46875 45.5 36.171875 
C 45.5 44.390625 34 45 28.59375 45 
C 10.796875 45 3.796875 33.375 3.796875 21.84375 
C 3.796875 8.203125 13.296875 -1 28 -1 
C 43.703125 -1 46.796875 10.609375 46.796875 11.3125 
z
" id="CMBX12-99"/>
    </defs>
    <g transform="translate(99.248419 216.072393)scale(0.18 -0.18)">
     <use transform="scale(0.996264)" xlink:href="#CMBX12-40"/>
     <use transform="translate(43.58655 0)scale(0.996264)" xlink:href="#CMBX12-99"/>
     <use transform="translate(93.399751 0)scale(0.996264)" xlink:href="#CMBX12-41"/>
    </g>
   </g>
  </g>
  <g id="axes_4">
   <g id="patch_18">
    <path d="M 507.878349 308.089571 
L 853.2 308.089571 
L 853.2 185.4 
L 507.878349 185.4 
z
" style="fill:#ffffff;"/>
   </g>
   <g id="matplotlib.axis_7">
    <g id="xtick_13">
     <g id="line2d_41">
      <g>
       <use style="stroke:#000000;stroke-width:0.8;" x="523.574788" xlink:href="#m4cd47eed91" y="308.089571"/>
      </g>
     </g>
     <g id="text_38">
      <!-- $0$ -->
      <g transform="translate(519.672794 326.159159)scale(0.16 -0.16)">
       <use transform="scale(0.996264)" xlink:href="#CMR17-48"/>
      </g>
     </g>
    </g>
    <g id="xtick_14">
     <g id="line2d_42">
      <g>
       <use style="stroke:#000000;stroke-width:0.8;" x="586.360543" xlink:href="#m4cd47eed91" y="308.089571"/>
      </g>
     </g>
     <g id="text_39">
      <!-- $10$ -->
      <g transform="translate(578.556556 326.159159)scale(0.16 -0.16)">
       <use transform="scale(0.996264)" xlink:href="#CMR17-49"/>
       <use transform="translate(45.690477 0)scale(0.996264)" xlink:href="#CMR17-48"/>
      </g>
     </g>
    </g>
    <g id="xtick_15">
     <g id="line2d_43">
      <g>
       <use style="stroke:#000000;stroke-width:0.8;" x="649.146297" xlink:href="#m4cd47eed91" y="308.089571"/>
      </g>
     </g>
     <g id="text_40">
      <!-- $20$ -->
      <g transform="translate(641.34231 326.159159)scale(0.16 -0.16)">
       <use transform="scale(0.996264)" xlink:href="#CMR17-50"/>
       <use transform="translate(45.690477 0)scale(0.996264)" xlink:href="#CMR17-48"/>
      </g>
     </g>
    </g>
    <g id="xtick_16">
     <g id="line2d_44">
      <g>
       <use style="stroke:#000000;stroke-width:0.8;" x="711.932052" xlink:href="#m4cd47eed91" y="308.089571"/>
      </g>
     </g>
     <g id="text_41">
      <!-- $30$ -->
      <g transform="translate(704.128065 326.159159)scale(0.16 -0.16)">
       <use transform="scale(0.996264)" xlink:href="#CMR17-51"/>
       <use transform="translate(45.690477 0)scale(0.996264)" xlink:href="#CMR17-48"/>
      </g>
     </g>
    </g>
    <g id="text_42">
     <!-- time -->
     <g transform="translate(664.559046 345.711936)scale(0.18 -0.18)">
      <use transform="scale(0.996264)" xlink:href="#CMR17-116"/>
      <use transform="translate(35.280768 0)scale(0.996264)" xlink:href="#CMR17-105"/>
      <use transform="translate(60.151826 0)scale(0.996264)" xlink:href="#CMR17-109"/>
      <use transform="translate(137.071416 0)scale(0.996264)" xlink:href="#CMR17-101"/>
     </g>
    </g>
   </g>
   <g id="matplotlib.axis_8">
    <g id="ytick_17">
     <g id="line2d_45">
      <g>
       <use style="stroke:#000000;stroke-width:0.8;" x="507.878349" xlink:href="#m99ce82cdcb" y="302.512773"/>
      </g>
     </g>
     <g id="text_43">
      <!-- $0.00$ -->
      <g transform="translate(473.13084 308.047567)scale(0.16 -0.16)">
       <use transform="scale(0.996264)" xlink:href="#CMR17-48"/>
       <use transform="translate(45.690477 0)scale(0.996264)" xlink:href="#CMMI12-58"/>
       <use transform="translate(72.787654 0)scale(0.996264)" xlink:href="#CMR17-48"/>
       <use transform="translate(118.478131 0)scale(0.996264)" xlink:href="#CMR17-48"/>
      </g>
     </g>
    </g>
    <g id="ytick_18">
     <g id="line2d_46">
      <g>
       <use style="stroke:#000000;stroke-width:0.8;" x="507.878349" xlink:href="#m99ce82cdcb" y="280.970362"/>
      </g>
     </g>
     <g id="text_44">
      <!-- $0.05$ -->
      <g transform="translate(473.13084 286.505156)scale(0.16 -0.16)">
       <use transform="scale(0.996264)" xlink:href="#CMR17-48"/>
       <use transform="translate(45.690477 0)scale(0.996264)" xlink:href="#CMMI12-58"/>
       <use transform="translate(72.787654 0)scale(0.996264)" xlink:href="#CMR17-48"/>
       <use transform="translate(118.478131 0)scale(0.996264)" xlink:href="#CMR17-53"/>
      </g>
     </g>
    </g>
    <g id="ytick_19">
     <g id="line2d_47">
      <g>
       <use style="stroke:#000000;stroke-width:0.8;" x="507.878349" xlink:href="#m99ce82cdcb" y="259.427951"/>
      </g>
     </g>
     <g id="text_45">
      <!-- $0.10$ -->
      <g transform="translate(473.13084 264.962745)scale(0.16 -0.16)">
       <use transform="scale(0.996264)" xlink:href="#CMR17-48"/>
       <use transform="translate(45.690477 0)scale(0.996264)" xlink:href="#CMMI12-58"/>
       <use transform="translate(72.787654 0)scale(0.996264)" xlink:href="#CMR17-49"/>
       <use transform="translate(118.478131 0)scale(0.996264)" xlink:href="#CMR17-48"/>
      </g>
     </g>
    </g>
    <g id="ytick_20">
     <g id="line2d_48">
      <g>
       <use style="stroke:#000000;stroke-width:0.8;" x="507.878349" xlink:href="#m99ce82cdcb" y="237.88554"/>
      </g>
     </g>
     <g id="text_46">
      <!-- $0.15$ -->
      <g transform="translate(473.13084 243.420335)scale(0.16 -0.16)">
       <use transform="scale(0.996264)" xlink:href="#CMR17-48"/>
       <use transform="translate(45.690477 0)scale(0.996264)" xlink:href="#CMMI12-58"/>
       <use transform="translate(72.787654 0)scale(0.996264)" xlink:href="#CMR17-49"/>
       <use transform="translate(118.478131 0)scale(0.996264)" xlink:href="#CMR17-53"/>
      </g>
     </g>
    </g>
    <g id="ytick_21">
     <g id="line2d_49">
      <g>
       <use style="stroke:#000000;stroke-width:0.8;" x="507.878349" xlink:href="#m99ce82cdcb" y="216.34313"/>
      </g>
     </g>
     <g id="text_47">
      <!-- $0.20$ -->
      <g transform="translate(473.13084 221.877924)scale(0.16 -0.16)">
       <use transform="scale(0.996264)" xlink:href="#CMR17-48"/>
       <use transform="translate(45.690477 0)scale(0.996264)" xlink:href="#CMMI12-58"/>
       <use transform="translate(72.787654 0)scale(0.996264)" xlink:href="#CMR17-50"/>
       <use transform="translate(118.478131 0)scale(0.996264)" xlink:href="#CMR17-48"/>
      </g>
     </g>
    </g>
    <g id="ytick_22">
     <g id="line2d_50">
      <g>
       <use style="stroke:#000000;stroke-width:0.8;" x="507.878349" xlink:href="#m99ce82cdcb" y="194.800719"/>
      </g>
     </g>
     <g id="text_48">
      <!-- $0.25$ -->
      <g transform="translate(473.13084 200.335513)scale(0.16 -0.16)">
       <use transform="scale(0.996264)" xlink:href="#CMR17-48"/>
       <use transform="translate(45.690477 0)scale(0.996264)" xlink:href="#CMMI12-58"/>
       <use transform="translate(72.787654 0)scale(0.996264)" xlink:href="#CMR17-50"/>
       <use transform="translate(118.478131 0)scale(0.996264)" xlink:href="#CMR17-53"/>
      </g>
     </g>
    </g>
    <g id="text_49">
     <!-- $P_{R_2}$ -->
     <g transform="translate(465.642776 259.385356)rotate(-90)scale(0.18 -0.18)">
      <use transform="translate(0 25.404611)scale(0.996264)" xlink:href="#CMMI12-80"/>
      <use transform="translate(62.877232 10.460696)scale(0.697382)" xlink:href="#CMMI12-82"/>
      <use transform="translate(114.852582 0)scale(0.498132)" xlink:href="#CMR17-50"/>
     </g>
    </g>
   </g>
   <g id="line2d_51">
    <path clip-path="url(#p9fea46eca7)" d="M 523.574788 302.512773 
L 530.26214 302.149429 
L 535.191314 301.668331 
L 539.147212 301.065626 
L 542.47519 300.338703 
L 545.363624 299.485476 
L 547.969493 298.486349 
L 550.35559 297.334442 
L 552.584708 296.012146 
L 554.719637 294.485047 
L 556.791774 292.724748 
L 558.832515 290.693139 
L 560.873256 288.340806 
L 562.945393 285.606563 
L 565.111718 282.369416 
L 567.403628 278.536633 
L 569.978101 273.782401 
L 573.117703 267.488248 
L 583.85514 245.53484 
L 586.492406 240.891358 
L 588.909899 237.075945 
L 591.201808 233.870071 
L 593.39953 231.170148 
L 595.565855 228.852051 
L 597.763576 226.824265 
L 599.992693 225.070156 
L 602.284602 223.54908 
L 604.6707 222.230526 
L 607.213777 221.079099 
L 609.976627 220.075512 
L 613.02204 219.211116 
L 616.444206 218.476907 
L 620.400104 217.863142 
L 625.109507 217.366018 
L 630.980562 216.980151 
L 638.829566 216.701429 
L 650.603072 216.526715 
L 673.679145 216.447978 
L 797.724808 216.43731 
L 837.503561 216.43731 
L 837.503561 216.43731 
" style="fill:none;stroke:#1f77b4;stroke-linecap:square;stroke-width:1.5;"/>
   </g>
   <g id="line2d_52">
    <path clip-path="url(#p9fea46eca7)" d="M 523.574788 302.512773 
L 530.26214 302.149314 
L 535.191314 301.667707 
L 539.147212 301.063798 
L 542.47519 300.334586 
L 545.363624 299.477515 
L 547.938097 298.485949 
L 550.292798 297.345223 
L 552.521916 296.017197 
L 554.625449 294.504286 
L 556.66619 292.760474 
L 558.675535 290.746285 
L 560.68488 288.409936 
L 562.725621 285.686379 
L 564.829154 282.498274 
L 567.058271 278.704161 
L 569.507161 274.080927 
L 572.395594 268.126717 
L 576.822433 258.410754 
L 581.688815 247.883819 
L 584.577249 242.164148 
L 587.057534 237.727239 
L 589.349443 234.069113 
L 591.547165 230.973894 
L 593.682094 228.347036 
L 595.785627 226.10579 
L 597.920556 224.155639 
L 600.086881 222.47772 
L 602.315998 221.030092 
L 604.6707 219.766233 
L 607.182381 218.671923 
L 609.913835 217.726865 
L 612.959248 216.913917 
L 616.41281 216.22887 
L 620.4315 215.664981 
L 625.297883 215.214424 
L 631.514294 214.87277 
L 640.148199 214.636626 
L 654.182218 214.501643 
L 688.717837 214.456403 
L 837.503561 214.454738 
L 837.503561 214.454738 
" style="fill:none;stroke:#ff7f0e;stroke-linecap:square;stroke-width:1.5;"/>
   </g>
   <g id="line2d_53">
    <path clip-path="url(#p9fea46eca7)" d="M 523.574788 302.512773 
L 530.26214 302.149067 
L 535.191314 301.666375 
L 539.115816 301.065713 
L 542.412398 300.341973 
L 545.269436 299.492631 
L 547.843909 298.497151 
L 550.19861 297.347283 
L 552.364935 296.04413 
L 554.437073 294.537452 
L 556.415022 292.825021 
L 558.361575 290.843816 
L 560.308128 288.537277 
L 562.254681 285.878323 
L 564.23263 282.79585 
L 566.304767 279.147268 
L 568.533884 274.756988 
L 571.01417 269.362622 
L 574.090979 262.101419 
L 583.22722 240.160784 
L 585.738901 234.925612 
L 587.968019 230.778076 
L 590.071552 227.325349 
L 592.080897 224.446078 
L 594.058846 221.995125 
L 596.036795 219.897416 
L 598.014744 218.119518 
L 600.055485 216.581912 
L 602.190414 215.252843 
L 604.450928 214.109548 
L 606.899817 213.124242 
L 609.599874 212.283152 
L 612.645288 211.573941 
L 616.161642 210.989471 
L 620.400104 210.518584 
L 625.768823 210.15768 
L 633.084095 209.904416 
L 644.575037 209.75353 
L 669.974415 209.695584 
L 837.503561 209.691541 
L 837.503561 209.691541 
" style="fill:none;stroke:#2ca02c;stroke-linecap:square;stroke-width:1.5;"/>
   </g>
   <g id="line2d_54">
    <path clip-path="url(#p9fea46eca7)" d="M 523.574788 302.512773 
L 530.230744 302.150737 
L 535.128522 301.670462 
L 539.021628 301.072278 
L 542.286814 300.34988 
L 545.112456 299.498995 
L 547.592741 298.524267 
L 549.853254 297.400048 
L 551.956787 296.104293 
L 553.934736 294.620617 
L 555.818497 292.924051 
L 557.639466 290.977303 
L 559.397643 288.769223 
L 561.15582 286.196282 
L 562.913997 283.217459 
L 564.672174 279.795475 
L 566.493143 275.752945 
L 568.376904 271.019507 
L 570.417645 265.267325 
L 572.678158 258.205531 
L 575.535196 248.49258 
L 582.505112 224.471143 
L 584.702833 217.894331 
L 586.61799 212.84621 
L 588.376167 208.821149 
L 590.040156 205.550471 
L 591.641353 202.87501 
L 593.24255 200.625253 
L 594.843746 198.756055 
L 596.476339 197.191697 
L 598.171724 195.877827 
L 599.961297 194.77624 
L 601.876454 193.859996 
L 604.011383 193.089589 
L 606.428877 192.458066 
L 609.285914 191.947507 
L 612.833664 191.549483 
L 617.511671 191.261572 
L 624.45019 191.077547 
L 637.573725 190.990874 
L 696.974989 190.976801 
L 837.503561 190.976799 
L 837.503561 190.976799 
" style="fill:none;stroke:#d62728;stroke-linecap:square;stroke-width:1.5;"/>
   </g>
   <g id="patch_19">
    <path d="M 507.878349 308.089571 
L 507.878349 185.4 
" style="fill:none;stroke:#000000;stroke-linecap:square;stroke-linejoin:miter;stroke-width:0.8;"/>
   </g>
   <g id="patch_20">
    <path d="M 853.2 308.089571 
L 853.2 185.4 
" style="fill:none;stroke:#000000;stroke-linecap:square;stroke-linejoin:miter;stroke-width:0.8;"/>
   </g>
   <g id="patch_21">
    <path d="M 507.878349 308.089571 
L 853.2 308.089571 
" style="fill:none;stroke:#000000;stroke-linecap:square;stroke-linejoin:miter;stroke-width:0.8;"/>
   </g>
   <g id="patch_22">
    <path d="M 507.878349 185.4 
L 853.2 185.4 
" style="fill:none;stroke:#000000;stroke-linecap:square;stroke-linejoin:miter;stroke-width:0.8;"/>
   </g>
   <g id="text_50">
    <!-- \textbf{(d)} -->
    <defs>
     <path d="M 34.703125 69.1875 
L 34.703125 64.890625 
C 40.90625 64.890625 41.59375 64.890625 41.59375 60.875 
L 41.59375 40.171875 
C 39.40625 42.09375 35 45 28.09375 45 
C 13.90625 45 3.796875 36.140625 3.796875 22 
C 3.796875 7.546875 13.703125 -1 27 -1 
C 32.5 -1 37.203125 0.890625 41.09375 4.21875 
L 41.09375 -1 
L 58.90625 -0.40625 
L 58.90625 3.90625 
C 52.703125 3.90625 52 3.90625 52 7.84375 
L 52 70 
z
M 41.09375 9.765625 
C 36.90625 3.609375 31.796875 2.296875 28.203125 2.296875 
C 15.796875 2.296875 15.796875 15.125 15.796875 21.796875 
C 15.796875 26.546875 15.796875 31.59375 18 35.4375 
C 21.09375 41.09375 27 41.6875 29.296875 41.6875 
C 33.40625 41.6875 37.796875 39.875 41.09375 35.4375 
z
" id="CMBX12-100"/>
    </defs>
    <g transform="translate(525.144432 216.072393)scale(0.18 -0.18)">
     <use transform="scale(0.996264)" xlink:href="#CMBX12-40"/>
     <use transform="translate(43.58655 0)scale(0.996264)" xlink:href="#CMBX12-100"/>
     <use transform="translate(105.853051 0)scale(0.996264)" xlink:href="#CMBX12-41"/>
    </g>
   </g>
  </g>
  <g id="axes_5">
   <g id="patch_23">
    <path d="M 361.796808 110.144139 
L 418.303987 110.144139 
L 418.303987 19.8 
L 361.796808 19.8 
z
" style="fill:#ffffff;"/>
   </g>
   <g id="patch_24">
    <path d="M 361.796808 19.8 
L 135.350228 44.260792 
" style="fill:none;stroke:#808080;stroke-linejoin:miter;"/>
   </g>
   <g id="patch_25">
    <path d="M 361.796808 110.144139 
L 135.350228 94.45198 
" style="fill:none;stroke:#808080;stroke-linejoin:miter;"/>
   </g>
   <g id="matplotlib.axis_9">
    <g id="xtick_17">
     <g id="line2d_55">
      <g>
       <use style="stroke:#000000;stroke-width:0.8;" x="361.796808" xlink:href="#m4cd47eed91" y="110.144139"/>
      </g>
     </g>
     <g id="text_51">
      <!-- $6$ -->
      <defs>
       <path d="M 10.59375 34.34375 
C 10.59375 58 21.796875 63.6875 28.296875 63.6875 
C 30.40625 63.6875 35.5 63.265625 37.5 59.09375 
C 35.90625 59.09375 32.90625 59.09375 32.90625 55.59375 
C 32.90625 52.890625 35.09375 52 36.5 52 
C 37.40625 52 40.09375 52.390625 40.09375 55.796875 
C 40.09375 62.296875 35.09375 66 28.203125 66 
C 16.296875 66 3.796875 53.296875 3.796875 31.421875 
C 3.796875 4.015625 15.09375 -2 23.09375 -2 
C 32.796875 -2 42 6.734375 42 20.234375 
C 42 32.828125 33.90625 42 23.703125 42 
C 17.59375 42 13.09375 37.96875 10.59375 30.921875 
z
M 23.09375 0.390625 
C 10.796875 0.390625 10.796875 18.9375 10.796875 22.65625 
C 10.796875 29.90625 14.203125 40.390625 23.5 40.390625 
C 25.203125 40.390625 30.09375 40.390625 33.40625 33.4375 
C 35.203125 29.515625 35.203125 25.375 35.203125 20.34375 
C 35.203125 14.90625 35.203125 10.875 33.09375 6.84375 
C 30.90625 2.703125 27.703125 0.390625 23.09375 0.390625 
z
" id="CMR17-54"/>
      </defs>
      <g transform="translate(359.057074 124.754485)scale(0.11 -0.11)">
       <use transform="scale(0.996264)" xlink:href="#CMR17-54"/>
      </g>
     </g>
    </g>
    <g id="xtick_18">
     <g id="line2d_56">
      <g>
       <use style="stroke:#000000;stroke-width:0.8;" x="418.303987" xlink:href="#m4cd47eed91" y="110.144139"/>
      </g>
     </g>
     <g id="text_52">
      <!-- $11$ -->
      <g transform="translate(412.82452 124.754485)scale(0.11 -0.11)">
       <use transform="scale(0.996264)" xlink:href="#CMR17-49"/>
       <use transform="translate(45.690477 0)scale(0.996264)" xlink:href="#CMR17-49"/>
      </g>
     </g>
    </g>
   </g>
   <g id="matplotlib.axis_10">
    <g id="ytick_23">
     <g id="line2d_57">
      <g>
       <use style="stroke:#000000;stroke-width:0.8;" x="361.796808" xlink:href="#m99ce82cdcb" y="110.144139"/>
      </g>
     </g>
     <g id="text_53">
      <!-- $0.0035$ -->
      <g transform="translate(324.35533 113.949312)scale(0.11 -0.11)">
       <use transform="scale(0.996264)" xlink:href="#CMR17-48"/>
       <use transform="translate(45.690477 0)scale(0.996264)" xlink:href="#CMMI12-58"/>
       <use transform="translate(72.787654 0)scale(0.996264)" xlink:href="#CMR17-48"/>
       <use transform="translate(118.478131 0)scale(0.996264)" xlink:href="#CMR17-48"/>
       <use transform="translate(164.168608 0)scale(0.996264)" xlink:href="#CMR17-51"/>
       <use transform="translate(209.859086 0)scale(0.996264)" xlink:href="#CMR17-53"/>
      </g>
     </g>
    </g>
    <g id="ytick_24">
     <g id="line2d_58">
      <g>
       <use style="stroke:#000000;stroke-width:0.8;" x="361.796808" xlink:href="#m99ce82cdcb" y="19.8"/>
      </g>
     </g>
     <g id="text_54">
      <!-- $0.0080$ -->
      <defs>
       <path d="M 27.203125 35.765625 
C 33.5 38.96875 39.90625 43.796875 39.90625 51.53125 
C 39.90625 60.6875 31.09375 66 23 66 
C 13.90625 66 5.90625 59.375 5.90625 50.234375 
C 5.90625 47.71875 6.5 43.390625 10.40625 39.578125 
C 11.40625 38.578125 15.59375 35.5625 18.296875 33.65625 
C 13.796875 31.34375 3.296875 25.8125 3.296875 14.765625 
C 3.296875 4.40625 13.09375 -2 22.796875 -2 
C 33.5 -2 42.5 5.71875 42.5 15.96875 
C 42.5 25.109375 36.40625 29.328125 32.40625 32.046875 
z
M 14.09375 44.609375 
C 13.296875 45.109375 9.296875 48.21875 9.296875 52.9375 
C 9.296875 59.078125 15.59375 63.6875 22.796875 63.6875 
C 30.703125 63.6875 36.5 58.0625 36.5 51.53125 
C 36.5 42.1875 26.09375 36.859375 25.59375 36.859375 
C 25.5 36.859375 25.40625 36.859375 24.59375 37.46875 
z
M 32.5 24 
C 34 22.90625 38.796875 19.578125 38.796875 13.453125 
C 38.796875 6.015625 31.40625 0.390625 23 0.390625 
C 13.90625 0.390625 7 6.921875 7 14.859375 
C 7 22.796875 13.09375 29.4375 20 32.546875 
z
" id="CMR17-56"/>
      </defs>
      <g transform="translate(324.35533 23.605173)scale(0.11 -0.11)">
       <use transform="scale(0.996264)" xlink:href="#CMR17-48"/>
       <use transform="translate(45.690477 0)scale(0.996264)" xlink:href="#CMMI12-58"/>
       <use transform="translate(72.787654 0)scale(0.996264)" xlink:href="#CMR17-48"/>
       <use transform="translate(118.478131 0)scale(0.996264)" xlink:href="#CMR17-48"/>
       <use transform="translate(164.168608 0)scale(0.996264)" xlink:href="#CMR17-56"/>
       <use transform="translate(209.859086 0)scale(0.996264)" xlink:href="#CMR17-48"/>
      </g>
     </g>
    </g>
   </g>
   <g id="line2d_59">
    <path clip-path="url(#p25b08af592)" d="M 361.747076 109.102448 
L 366.60718 95.40652 
L 372.428001 79.117515 
L 375.310156 71.710521 
L 377.627182 66.344478 
L 379.605131 62.305362 
L 381.357029 59.221866 
L 382.882875 56.960897 
L 384.295696 55.249933 
L 385.595491 54.019923 
L 386.78226 53.196615 
L 387.912517 52.68567 
L 388.986261 52.451054 
L 390.003492 52.455784 
L 391.020723 52.681267 
L 392.094466 53.156922 
L 393.224723 53.917197 
L 394.411493 54.994972 
L 395.711288 56.492155 
L 397.124108 58.476475 
L 398.649955 61.009002 
L 400.401853 64.369741 
L 402.379802 68.673166 
L 404.696828 74.279608 
L 407.578982 81.881411 
L 411.93047 94.074142 
L 418.31642 111.921916 
L 418.31642 111.921916 
" style="fill:none;stroke:#1f77b4;stroke-linecap:square;stroke-width:1.5;"/>
   </g>
   <g id="line2d_60">
    <path clip-path="url(#p25b08af592)" d="M 361.747076 107.725681 
L 366.042052 95.081501 
L 373.38872 73.39202 
L 376.157848 65.965472 
L 378.418361 60.518984 
L 380.339798 56.451324 
L 382.035183 53.368002 
L 383.561029 51.047311 
L 384.917337 49.375931 
L 386.160619 48.186288 
L 387.290876 47.400312 
L 388.36462 46.921187 
L 389.381851 46.711591 
L 390.342569 46.733573 
L 391.303287 46.969317 
L 392.320518 47.450487 
L 393.394262 48.213307 
L 394.524518 49.292903 
L 395.7678 50.797516 
L 397.124108 52.800397 
L 398.649955 55.475753 
L 400.34534 58.926627 
L 402.266776 63.372606 
L 404.470776 69.054377 
L 407.183392 76.689505 
L 411.13929 88.56125 
L 418.31642 110.154501 
L 418.31642 110.154501 
" style="fill:none;stroke:#ff7f0e;stroke-linecap:square;stroke-width:1.5;"/>
   </g>
   <g id="line2d_61">
    <path clip-path="url(#p25b08af592)" d="M 361.747076 104.618636 
L 365.363898 92.917263 
L 376.779489 55.354953 
L 379.096515 48.852435 
L 381.017952 44.091089 
L 382.713337 40.464011 
L 384.18267 37.815554 
L 385.538978 35.817834 
L 386.725748 34.445376 
L 387.799491 33.519832 
L 388.816722 32.92901 
L 389.77744 32.632013 
L 390.681646 32.587094 
L 391.585851 32.770992 
L 392.490056 33.183567 
L 393.450774 33.870731 
L 394.468005 34.873747 
L 395.598262 36.312732 
L 396.841544 38.276353 
L 398.197852 40.850524 
L 399.723699 44.247329 
L 401.419084 48.582827 
L 403.397033 54.284935 
L 405.714059 61.671908 
L 408.765751 72.202421 
L 418.31642 106.156695 
L 418.31642 106.156695 
" style="fill:none;stroke:#2ca02c;stroke-linecap:square;stroke-width:1.5;"/>
   </g>
   <g id="line2d_62">
    <path clip-path="url(#p25b08af592)" d="M 361.747076 94.373871 
L 364.346667 83.273858 
L 367.172308 70.215147 
L 370.506565 53.699822 
L 381.300516 -0.744533 
L 381.35789 -1 
M 402.429176 -1 
L 404.244725 8.666283 
L 406.561751 22.266832 
L 410.065547 44.347128 
L 415.377753 77.708259 
L 418.203394 93.976708 
L 418.31642 94.596095 
L 418.31642 94.596095 
" style="fill:none;stroke:#d62728;stroke-linecap:square;stroke-width:1.5;"/>
   </g>
   <g id="patch_26">
    <path d="M 361.796808 110.144139 
L 361.796808 19.8 
" style="fill:none;stroke:#000000;stroke-linecap:square;stroke-linejoin:miter;stroke-width:0.8;"/>
   </g>
   <g id="patch_27">
    <path d="M 418.303987 110.144139 
L 418.303987 19.8 
" style="fill:none;stroke:#000000;stroke-linecap:square;stroke-linejoin:miter;stroke-width:0.8;"/>
   </g>
   <g id="patch_28">
    <path d="M 361.796808 110.144139 
L 418.303987 110.144139 
" style="fill:none;stroke:#000000;stroke-linecap:square;stroke-linejoin:miter;stroke-width:0.8;"/>
   </g>
   <g id="patch_29">
    <path d="M 361.796808 19.8 
L 418.303987 19.8 
" style="fill:none;stroke:#000000;stroke-linecap:square;stroke-linejoin:miter;stroke-width:0.8;"/>
   </g>
  </g>
  <g id="legend_1">
   <g id="patch_30">
    <path d="M 762.72 122.4 
L 842.376087 122.4 
Q 844.776087 122.4 844.776087 120 
L 844.776087 50.312778 
Q 844.776087 47.912778 842.376087 47.912778 
L 762.72 47.912778 
Q 760.32 47.912778 760.32 50.312778 
L 760.32 120 
Q 760.32 122.4 762.72 122.4 
z
" style="fill:#ffffff;opacity:0.8;stroke:#cccccc;stroke-linejoin:miter;"/>
   </g>
   <g id="line2d_63">
    <path d="M 765.12 57.909988 
L 789.12 57.909988 
" style="fill:none;stroke:#1f77b4;stroke-linecap:square;stroke-width:1.5;"/>
   </g>
   <g id="line2d_64"/>
   <g id="text_55">
    <!-- $\beta_2'$=2 -->
    <defs>
     <path d="M 56.59375 58.421875 
C 56.59375 64.546875 51.5 71 42.40625 71 
C 29.5 71 21.296875 54.84375 18.703125 44.21875 
L 2.90625 -18 
C 2.703125 -18.8125 3.296875 -19 3.796875 -19 
C 4.5 -19 5 -18.90625 5.09375 -18.40625 
L 12.09375 9.25 
C 13.09375 3.609375 18.59375 -1 24.5 -1 
C 38.796875 -1 52.296875 10.265625 52.296875 25.28125 
C 52.296875 29.109375 51.40625 32.9375 49.296875 36.15625 
C 48.09375 38.078125 46.59375 39.484375 45 40.609375 
C 52.203125 44.109375 56.59375 50.34375 56.59375 58.421875 
z
M 39.203125 40.703125 
C 37.59375 40.171875 36 40 34.09375 40 
C 32.703125 40 31.40625 39.890625 29.59375 40.4375 
C 30.59375 41.046875 32.09375 41.234375 34.203125 41.234375 
C 36 41.234375 37.796875 41.046875 39.203125 40.703125 
z
M 51.40625 59.34375 
C 51.40625 53.71875 48.703125 45.546875 42.203125 41.9375 
C 40.296875 42.546875 37.703125 43 35.5 43 
C 33.40625 43 27.40625 43.203125 27.40625 40.34375 
C 27.40625 37.671875 32.90625 37.96875 34.59375 37.96875 
C 37.203125 37.96875 39.5 38.578125 41.90625 39.28125 
C 45.09375 36.671875 46.5 33.234375 46.5 28.203125 
C 46.5 22.359375 44.90625 17.625 43 13.28125 
C 39.703125 5.828125 31.90625 1 25 1 
C 17.703125 1 13.90625 6.84375 13.90625 13.6875 
C 13.90625 14.59375 13.90625 15.90625 14.296875 17.421875 
L 20.796875 43.5 
C 24.09375 56.890625 32.5 68.953125 42.203125 68.953125 
C 49.40625 68.953125 51.40625 63.84375 51.40625 59.34375 
z
" id="CMMI12-12"/>
     <path d="M 25.296875 47.625 
C 25.796875 48.828125 26.203125 49.71875 26.203125 50.71875 
C 26.203125 53.59375 23.59375 56 20.5 56 
C 17.703125 56 15.90625 54.09375 15.203125 51.515625 
L 3.296875 8.078125 
C 3.296875 7.890625 2.90625 6.796875 2.90625 6.6875 
C 2.90625 5.59375 5.5 4.890625 6.296875 4.890625 
C 6.90625 4.890625 7 5.1875 7.59375 6.484375 
z
" id="CMSY10-48"/>
     <path d="M 64.296875 32 
C 65.796875 32 67.296875 32 67.296875 33.6875 
C 67.296875 35.5 65.59375 35.5 63.90625 35.5 
L 8 35.5 
C 6.296875 35.5 4.59375 35.5 4.59375 33.6875 
C 4.59375 32 6.09375 32 7.59375 32 
z
M 63.90625 14.484375 
C 65.59375 14.484375 67.296875 14.484375 67.296875 16.296875 
C 67.296875 18 65.796875 18 64.296875 18 
L 7.59375 18 
C 6.09375 18 4.59375 18 4.59375 16.296875 
C 4.59375 14.484375 6.296875 14.484375 8 14.484375 
z
" id="CMR17-61"/>
    </defs>
    <g transform="translate(798.72 62.109988)scale(0.12 -0.12)">
     <use transform="translate(0 24.740171)scale(0.996264)" xlink:href="#CMMI12-12"/>
     <use transform="translate(60.594016 60.89381)scale(0.697382)" xlink:href="#CMSY10-48"/>
     <use transform="translate(55.070737 0)scale(0.697382)" xlink:href="#CMR17-50"/>
     <use transform="translate(87.552051 24.740171)scale(0.996264)" xlink:href="#CMR17-61"/>
     <use transform="translate(159.266839 24.740171)scale(0.996264)" xlink:href="#CMR17-50"/>
    </g>
   </g>
   <g id="line2d_65">
    <path d="M 765.12 75.631793 
L 789.12 75.631793 
" style="fill:none;stroke:#ff7f0e;stroke-linecap:square;stroke-width:1.5;"/>
   </g>
   <g id="line2d_66"/>
   <g id="text_56">
    <!-- $\beta_2'$=6.15 -->
    <defs>
     <path d="M 16.59375 4.09375 
C 16.59375 6.59375 14.59375 8.1875 12.5 8.1875 
C 10.5 8.1875 8.40625 6.59375 8.40625 4.09375 
C 8.40625 1.59375 10.40625 0 12.5 0 
C 14.5 0 16.59375 1.59375 16.59375 4.09375 
z
" id="CMR17-46"/>
    </defs>
    <g transform="translate(798.72 79.831793)scale(0.12 -0.12)">
     <use transform="translate(0 24.740171)scale(0.996264)" xlink:href="#CMMI12-12"/>
     <use transform="translate(60.594016 60.89381)scale(0.697382)" xlink:href="#CMSY10-48"/>
     <use transform="translate(55.070737 0)scale(0.697382)" xlink:href="#CMR17-50"/>
     <use transform="translate(87.552051 24.740171)scale(0.996264)" xlink:href="#CMR17-61"/>
     <use transform="translate(159.266839 24.740171)scale(0.996264)" xlink:href="#CMR17-54"/>
     <use transform="translate(204.957316 24.740171)scale(0.996264)" xlink:href="#CMR17-46"/>
     <use transform="translate(229.828375 24.740171)scale(0.996264)" xlink:href="#CMR17-49"/>
     <use transform="translate(275.518852 24.740171)scale(0.996264)" xlink:href="#CMR17-53"/>
    </g>
   </g>
   <g id="line2d_67">
    <path d="M 765.12 93.353599 
L 789.12 93.353599 
" style="fill:none;stroke:#2ca02c;stroke-linecap:square;stroke-width:1.5;"/>
   </g>
   <g id="line2d_68"/>
   <g id="text_57">
    <!-- $\beta_2'$=15 -->
    <g transform="translate(798.72 97.553599)scale(0.12 -0.12)">
     <use transform="translate(0 24.740171)scale(0.996264)" xlink:href="#CMMI12-12"/>
     <use transform="translate(60.594016 60.89381)scale(0.697382)" xlink:href="#CMSY10-48"/>
     <use transform="translate(55.070737 0)scale(0.697382)" xlink:href="#CMR17-50"/>
     <use transform="translate(87.552051 24.740171)scale(0.996264)" xlink:href="#CMR17-61"/>
     <use transform="translate(159.266839 24.740171)scale(0.996264)" xlink:href="#CMR17-49"/>
     <use transform="translate(204.957316 24.740171)scale(0.996264)" xlink:href="#CMR17-53"/>
    </g>
   </g>
   <g id="line2d_69">
    <path d="M 765.12 111.075404 
L 789.12 111.075404 
" style="fill:none;stroke:#d62728;stroke-linecap:square;stroke-width:1.5;"/>
   </g>
   <g id="line2d_70"/>
   <g id="text_58">
    <!-- $\beta_2'$=40 -->
    <defs>
     <path d="M 33.59375 64.796875 
C 33.59375 66.890625 33.5 67 31.703125 67 
L 2 19.59375 
L 2 17 
L 27.796875 17 
L 27.796875 7.1875 
C 27.796875 3.59375 27.59375 2.59375 20.59375 2.59375 
L 18.703125 2.59375 
L 18.703125 0 
C 21.90625 0.1875 27.296875 0.1875 30.703125 0.1875 
C 34.09375 0.1875 39.5 0.1875 42.703125 0 
L 42.703125 2.59375 
L 40.796875 2.59375 
C 33.796875 2.59375 33.59375 3.59375 33.59375 7.1875 
L 33.59375 17 
L 43.796875 17 
L 43.796875 19.59375 
L 33.59375 19.59375 
z
M 28.09375 58.171875 
L 28.09375 19.59375 
L 4 19.59375 
z
" id="CMR17-52"/>
    </defs>
    <g transform="translate(798.72 115.275404)scale(0.12 -0.12)">
     <use transform="translate(0 24.740171)scale(0.996264)" xlink:href="#CMMI12-12"/>
     <use transform="translate(60.594016 60.89381)scale(0.697382)" xlink:href="#CMSY10-48"/>
     <use transform="translate(55.070737 0)scale(0.697382)" xlink:href="#CMR17-50"/>
     <use transform="translate(87.552051 24.740171)scale(0.996264)" xlink:href="#CMR17-61"/>
     <use transform="translate(159.266839 24.740171)scale(0.996264)" xlink:href="#CMR17-52"/>
     <use transform="translate(204.957316 24.740171)scale(0.996264)" xlink:href="#CMR17-48"/>
    </g>
   </g>
  </g>
 </g>
 <defs>
  <clipPath id="p4d5bd8683d">
   <rect height="122.689571" width="345.321651" x="81.982336" y="10.8"/>
  </clipPath>
  <clipPath id="p1e05d13a83">
   <rect height="122.689571" width="345.321651" x="507.878349" y="10.8"/>
  </clipPath>
  <clipPath id="p780c3b4fa8">
   <rect height="122.689571" width="345.321651" x="81.982336" y="185.4"/>
  </clipPath>
  <clipPath id="p9fea46eca7">
   <rect height="122.689571" width="345.321651" x="507.878349" y="185.4"/>
  </clipPath>
  <clipPath id="p25b08af592">
   <rect height="90.344139" width="56.507179" x="361.796808" y="19.8"/>
  </clipPath>
 </defs>
</svg>
