<?xml version="1.0" encoding="utf-8" standalone="no"?>
<!DOCTYPE svg PUBLIC "-//W3C//DTD SVG 1.1//EN"
  "http://www.w3.org/Graphics/SVG/1.1/DTD/svg11.dtd">
<!-- Created with matplotlib (https://matplotlib.org/) -->
<svg height="360pt" version="1.1" viewBox="0 0 864 360" width="864pt" xmlns="http://www.w3.org/2000/svg" xmlns:xlink="http://www.w3.org/1999/xlink">
 <defs>
  <style type="text/css">
*{stroke-linecap:butt;stroke-linejoin:round;white-space:pre;}
  </style>
 </defs>
 <g id="figure_1">
  <g id="patch_1">
   <path d="M 0 360 
L 864 360 
L 864 0 
L 0 0 
z
" style="fill:#ffffff;"/>
  </g>
  <g id="axes_1">
   <g id="patch_2">
    <path d="M 81.982336 133.489571 
L 427.303987 133.489571 
L 427.303987 16.334794 
L 81.982336 16.334794 
z
" style="fill:#ffffff;"/>
   </g>
   <g id="patch_3">
    <path clip-path="url(#p46dac68c34)" d="M 135.350228 96.213051 
L 166.743105 96.213051 
L 166.743105 48.286097 
L 135.350228 48.286097 
L 135.350228 96.213051 
z
" style="fill:none;stroke:#808080;stroke-linejoin:miter;"/>
   </g>
   <g id="matplotlib.axis_1">
    <g id="xtick_1">
     <g id="line2d_1">
      <defs>
       <path d="M 0 0 
L 0 3.5 
" id="m8bcf7bcae4" style="stroke:#000000;stroke-width:0.8;"/>
      </defs>
      <g>
       <use style="stroke:#000000;stroke-width:0.8;" x="97.678775" xlink:href="#m8bcf7bcae4" y="133.489571"/>
      </g>
     </g>
     <g id="text_1">
      <!-- $0$ -->
      <defs>
       <path d="M 42 31.84375 
C 42 37.96875 41.90625 48.421875 37.703125 56.453125 
C 34 63.484375 28.09375 66 22.90625 66 
C 18.09375 66 12 63.78125 8.203125 56.5625 
C 4.203125 49.015625 3.796875 39.671875 3.796875 31.84375 
C 3.796875 26.109375 3.90625 17.375 7 9.734375 
C 11.296875 -0.609375 19 -2 22.90625 -2 
C 27.5 -2 34.5 -0.109375 38.59375 9.4375 
C 41.59375 16.375 42 24.5 42 31.84375 
z
M 22.90625 -0.40625 
C 16.5 -0.40625 12.703125 5.125 11.296875 12.75 
C 10.203125 18.6875 10.203125 27.328125 10.203125 32.953125 
C 10.203125 40.6875 10.203125 47.109375 11.5 53.234375 
C 13.40625 61.78125 19 64.390625 22.90625 64.390625 
C 27 64.390625 32.296875 61.671875 34.203125 53.4375 
C 35.5 47.71875 35.59375 40.984375 35.59375 32.953125 
C 35.59375 26.421875 35.59375 18.375 34.40625 12.453125 
C 32.296875 1.5 26.40625 -0.40625 22.90625 -0.40625 
z
" id="CMR17-48"/>
      </defs>
      <g transform="translate(93.776781 151.559159)scale(0.16 -0.16)">
       <use transform="scale(0.996264)" xlink:href="#CMR17-48"/>
      </g>
     </g>
    </g>
    <g id="xtick_2">
     <g id="line2d_2">
      <g>
       <use style="stroke:#000000;stroke-width:0.8;" x="160.46453" xlink:href="#m8bcf7bcae4" y="133.489571"/>
      </g>
     </g>
     <g id="text_2">
      <!-- $10$ -->
      <defs>
       <path d="M 26.59375 63.796875 
C 26.59375 65.890625 26.5 66 25.09375 66 
C 21.203125 61.359375 15.296875 59.890625 9.703125 59.6875 
C 9.40625 59.6875 8.90625 59.6875 8.796875 59.5 
C 8.703125 59.296875 8.703125 59.09375 8.703125 57 
C 11.796875 57 17 57.59375 21 59.984375 
L 21 7.296875 
C 21 3.796875 20.796875 2.59375 12.203125 2.59375 
L 9.203125 2.59375 
L 9.203125 0 
C 14 0.09375 19 0.1875 23.796875 0.1875 
C 28.59375 0.1875 33.59375 0.09375 38.40625 0 
L 38.40625 2.59375 
L 35.40625 2.59375 
C 26.796875 2.59375 26.59375 3.6875 26.59375 7.296875 
z
" id="CMR17-49"/>
      </defs>
      <g transform="translate(152.660543 151.559159)scale(0.16 -0.16)">
       <use transform="scale(0.996264)" xlink:href="#CMR17-49"/>
       <use transform="translate(45.690477 0)scale(0.996264)" xlink:href="#CMR17-48"/>
      </g>
     </g>
    </g>
    <g id="xtick_3">
     <g id="line2d_3">
      <g>
       <use style="stroke:#000000;stroke-width:0.8;" x="223.250284" xlink:href="#m8bcf7bcae4" y="133.489571"/>
      </g>
     </g>
     <g id="text_3">
      <!-- $20$ -->
      <defs>
       <path d="M 41.703125 15.46875 
L 39.90625 15.46875 
C 38.90625 8.390625 38.09375 7.1875 37.703125 6.59375 
C 37.203125 5.796875 30 5.796875 28.59375 5.796875 
L 9.40625 5.796875 
C 13 9.6875 20 16.765625 28.5 24.9375 
C 34.59375 30.71875 41.703125 37.5 41.703125 47.390625 
C 41.703125 59.1875 32.296875 66 21.796875 66 
C 10.796875 66 4.09375 56.296875 4.09375 47.296875 
C 4.09375 43.390625 7 42.890625 8.203125 42.890625 
C 9.203125 42.890625 12.203125 43.484375 12.203125 46.984375 
C 12.203125 50.09375 9.59375 51 8.203125 51 
C 7.59375 51 7 50.890625 6.59375 50.6875 
C 8.5 59.1875 14.296875 63.390625 20.40625 63.390625 
C 29.09375 63.390625 34.796875 56.5 34.796875 47.390625 
C 34.796875 38.703125 29.703125 31.21875 24 24.734375 
L 4.09375 2.296875 
L 4.09375 0 
L 39.296875 0 
z
" id="CMR17-50"/>
      </defs>
      <g transform="translate(215.446297 151.559159)scale(0.16 -0.16)">
       <use transform="scale(0.996264)" xlink:href="#CMR17-50"/>
       <use transform="translate(45.690477 0)scale(0.996264)" xlink:href="#CMR17-48"/>
      </g>
     </g>
    </g>
    <g id="xtick_4">
     <g id="line2d_4">
      <g>
       <use style="stroke:#000000;stroke-width:0.8;" x="286.036039" xlink:href="#m8bcf7bcae4" y="133.489571"/>
      </g>
     </g>
     <g id="text_4">
      <!-- $30$ -->
      <defs>
       <path d="M 22.09375 34 
C 31 34 34.90625 26.140625 34.90625 17.09375 
C 34.90625 5.03125 28.5 0.390625 22.703125 0.390625 
C 17.40625 0.390625 8.796875 3.015625 6.09375 10.796875 
C 6.59375 10.59375 7.09375 10.59375 7.59375 10.59375 
C 10 10.59375 11.796875 12.1875 11.796875 14.796875 
C 11.796875 17.6875 9.59375 19 7.59375 19 
C 5.90625 19 3.296875 18.1875 3.296875 14.484375 
C 3.296875 5.234375 12.296875 -2 22.90625 -2 
C 34 -2 42.5 6.75 42.5 16.984375 
C 42.5 26.84375 34.5 34 25 35.09375 
C 32.59375 36.671875 39.90625 43.375 39.90625 52.390625 
C 39.90625 60.25 32 66 23 66 
C 13.90625 66 5.90625 60.34375 5.90625 52.296875 
C 5.90625 48.796875 8.5 48.1875 9.796875 48.1875 
C 11.90625 48.1875 13.703125 49.484375 13.703125 52.09375 
C 13.703125 54.6875 11.90625 56 9.796875 56 
C 9.40625 56 8.90625 56 8.5 55.796875 
C 11.40625 62.484375 19.296875 63.6875 22.796875 63.6875 
C 26.296875 63.6875 32.90625 61.96875 32.90625 52.296875 
C 32.90625 49.484375 32.5 44.546875 29.09375 40.21875 
C 26.09375 36.390625 22.703125 36.1875 19.40625 35.890625 
C 18.90625 35.890625 16.59375 35.6875 16.203125 35.6875 
C 15.5 35.59375 15.09375 35.5 15.09375 34.796875 
C 15.09375 34.09375 15.203125 34 17.203125 34 
z
" id="CMR17-51"/>
      </defs>
      <g transform="translate(278.232052 151.559159)scale(0.16 -0.16)">
       <use transform="scale(0.996264)" xlink:href="#CMR17-51"/>
       <use transform="translate(45.690477 0)scale(0.996264)" xlink:href="#CMR17-48"/>
      </g>
     </g>
    </g>
    <g id="text_5">
     <!-- time -->
     <defs>
      <path d="M 15.09375 40.390625 
L 29.09375 40.390625 
L 29.09375 43 
L 15.09375 43 
L 15.09375 62 
L 13.296875 62 
C 13.09375 51.4375 9.59375 42.1875 1.09375 41.984375 
L 1.09375 40.390625 
L 9.796875 40.390625 
L 9.796875 12.15625 
C 9.796875 10.234375 9.796875 -1 21.40625 -1 
C 27.296875 -1 30.703125 4.8125 30.703125 12.25 
L 30.703125 17.984375 
L 28.90625 17.984375 
L 28.90625 12.34375 
C 28.90625 5.421875 26.203125 0.796875 22 0.796875 
C 19.09375 0.796875 15.09375 2.796875 15.09375 11.953125 
z
" id="CMR17-116"/>
      <path d="M 15.5 61.890625 
C 15.5 64.09375 13.703125 66 11.40625 66 
C 9.203125 66 7.296875 64.1875 7.296875 61.890625 
C 7.296875 59.6875 9.09375 57.796875 11.40625 57.796875 
C 13.59375 57.796875 15.5 59.59375 15.5 61.890625 
z
M 3.796875 42.890625 
L 3.796875 40.296875 
C 9.40625 40.296875 10.203125 39.6875 10.203125 34.859375 
L 10.203125 6.921875 
C 10.203125 3.09375 9.796875 2.59375 3.40625 2.59375 
L 3.40625 0 
C 5.796875 0.1875 10.09375 0.1875 12.59375 0.1875 
C 15 0.1875 19.09375 0.1875 21.40625 0 
L 21.40625 2.59375 
C 15.5 2.59375 15.296875 3.203125 15.296875 6.8125 
L 15.296875 44 
z
" id="CMR17-105"/>
      <path d="M 67.59375 30.53125 
C 67.59375 35.5625 66.703125 44 54.796875 44 
C 48 44 43.296875 39.375 41.5 33.953125 
L 41.40625 33.953125 
C 40.203125 42.1875 34.296875 44 28.703125 44 
C 20.796875 44 16.703125 37.875 15.203125 33.84375 
L 15.09375 33.84375 
L 15.09375 44 
L 3.296875 42.890625 
L 3.296875 40.28125 
C 9.203125 40.28125 10.09375 39.6875 10.09375 34.859375 
L 10.09375 6.921875 
C 10.09375 3.09375 9.703125 2.59375 3.296875 2.59375 
L 3.296875 0 
C 5.703125 0.1875 10.09375 0.1875 12.703125 0.1875 
C 15.296875 0.1875 19.796875 0.1875 22.203125 0 
L 22.203125 2.59375 
C 15.796875 2.59375 15.40625 3 15.40625 6.921875 
L 15.40625 26.21875 
C 15.40625 35.453125 21 42.390625 28 42.390625 
C 35.40625 42.390625 36.203125 35.765625 36.203125 30.9375 
L 36.203125 6.921875 
C 36.203125 3.09375 35.796875 2.59375 29.40625 2.59375 
L 29.40625 0 
C 31.796875 0.1875 36.203125 0.1875 38.796875 0.1875 
C 41.40625 0.1875 45.90625 0.1875 48.296875 0 
L 48.296875 2.59375 
C 41.90625 2.59375 41.5 3 41.5 6.921875 
L 41.5 26.21875 
C 41.5 35.453125 47.09375 42.390625 54.09375 42.390625 
C 61.5 42.390625 62.296875 35.765625 62.296875 30.9375 
L 62.296875 6.921875 
C 62.296875 3.09375 61.90625 2.59375 55.5 2.59375 
L 55.5 0 
C 57.90625 0.1875 62.296875 0.1875 64.90625 0.1875 
C 67.5 0.1875 72 0.1875 74.40625 0 
L 74.40625 2.59375 
C 68 2.59375 67.59375 3 67.59375 6.921875 
z
" id="CMR17-109"/>
      <path d="M 38.09375 23.484375 
C 38.5 23.890625 38.5 24.09375 38.5 25.09375 
C 38.5 35.171875 33.09375 44 21.703125 44 
C 11.09375 44 2.703125 33.984375 2.703125 21.78125 
C 2.703125 8.65625 12.203125 -1 22.796875 -1 
C 34 -1 38.40625 9.671875 38.40625 11.796875 
C 38.40625 12.5 37.796875 12.5 37.59375 12.5 
C 36.90625 12.5 36.796875 12.296875 36.40625 11.078125 
C 34.203125 4.21875 28.703125 0.796875 23.5 0.796875 
C 19.203125 0.796875 14.90625 3.21875 12.203125 7.65625 
C 9.09375 12.796875 9.09375 18.75 9.09375 23.484375 
z
M 9.203125 25 
C 9.90625 39.234375 17.59375 42.390625 21.59375 42.390625 
C 28.40625 42.390625 33 36.0625 33.09375 25 
z
" id="CMR17-101"/>
     </defs>
     <g transform="translate(238.663033 171.111936)scale(0.18 -0.18)">
      <use transform="scale(0.996264)" xlink:href="#CMR17-116"/>
      <use transform="translate(35.280768 0)scale(0.996264)" xlink:href="#CMR17-105"/>
      <use transform="translate(60.151826 0)scale(0.996264)" xlink:href="#CMR17-109"/>
      <use transform="translate(137.071416 0)scale(0.996264)" xlink:href="#CMR17-101"/>
     </g>
    </g>
   </g>
   <g id="matplotlib.axis_2">
    <g id="ytick_1">
     <g id="line2d_5">
      <defs>
       <path d="M 0 0 
L -3.5 0 
" id="mbb424f472b" style="stroke:#000000;stroke-width:0.8;"/>
      </defs>
      <g>
       <use style="stroke:#000000;stroke-width:0.8;" x="81.982336" xlink:href="#mbb424f472b" y="133.489571"/>
      </g>
     </g>
     <g id="text_6">
      <!-- $0.0000$ -->
      <defs>
       <path d="M 18.40625 4.796875 
C 18.40625 7.6875 16 9.6875 13.59375 9.6875 
C 10.703125 9.6875 8.703125 7.296875 8.703125 4.890625 
C 8.703125 2 11.09375 0 13.5 0 
C 16.40625 0 18.40625 2.390625 18.40625 4.796875 
z
" id="CMMI12-58"/>
      </defs>
      <g transform="translate(31.626853 139.024365)scale(0.16 -0.16)">
       <use transform="scale(0.996264)" xlink:href="#CMR17-48"/>
       <use transform="translate(45.690477 0)scale(0.996264)" xlink:href="#CMMI12-58"/>
       <use transform="translate(72.787654 0)scale(0.996264)" xlink:href="#CMR17-48"/>
       <use transform="translate(118.478131 0)scale(0.996264)" xlink:href="#CMR17-48"/>
       <use transform="translate(164.168608 0)scale(0.996264)" xlink:href="#CMR17-48"/>
       <use transform="translate(209.859086 0)scale(0.996264)" xlink:href="#CMR17-48"/>
      </g>
     </g>
    </g>
    <g id="ytick_2">
     <g id="line2d_6">
      <g>
       <use style="stroke:#000000;stroke-width:0.8;" x="81.982336" xlink:href="#mbb424f472b" y="106.863486"/>
      </g>
     </g>
     <g id="text_7">
      <!-- $0.0025$ -->
      <defs>
       <path d="M 11.40625 58.59375 
C 12.40625 58.1875 16.5 56.890625 20.703125 56.890625 
C 30 56.890625 35.09375 61.890625 38 64.6875 
C 38 65.484375 38 66 37.40625 66 
C 37.296875 66 37.09375 66 36.296875 65.59375 
C 32.796875 64.09375 28.703125 63 23.703125 63 
C 20.703125 63 16.203125 63.359375 11.296875 65.484375 
C 10.203125 66 10 66 9.90625 66 
C 9.40625 66 9.296875 65.890625 9.296875 63.90625 
L 9.296875 34.859375 
C 9.296875 33.015625 9.296875 32.5 10.296875 32.5 
C 10.796875 32.5 11 32.703125 11.5 33.421875 
C 14.703125 38.046875 19.09375 40 24.09375 40 
C 27.59375 40 35.09375 37.734375 35.09375 20.203125 
C 35.09375 16.984375 35.09375 11.1875 32.09375 6.59375 
C 29.59375 2.484375 25.703125 0.390625 21.40625 0.390625 
C 14.796875 0.390625 8.09375 4.984375 6.296875 12.6875 
C 6.703125 12.59375 7.5 12.390625 7.90625 12.390625 
C 9.203125 12.390625 11.703125 13.09375 11.703125 16.1875 
C 11.703125 18.890625 9.796875 20 7.90625 20 
C 5.59375 20 4.09375 18.59375 4.09375 15.796875 
C 4.09375 7.09375 11 -2 21.59375 -2 
C 31.90625 -2 41.703125 6.890625 41.703125 19.796875 
C 41.703125 32.09375 33.90625 41.59375 24.203125 41.59375 
C 19.09375 41.59375 14.796875 39.6875 11.40625 36 
z
" id="CMR17-53"/>
      </defs>
      <g transform="translate(31.626853 112.39828)scale(0.16 -0.16)">
       <use transform="scale(0.996264)" xlink:href="#CMR17-48"/>
       <use transform="translate(45.690477 0)scale(0.996264)" xlink:href="#CMMI12-58"/>
       <use transform="translate(72.787654 0)scale(0.996264)" xlink:href="#CMR17-48"/>
       <use transform="translate(118.478131 0)scale(0.996264)" xlink:href="#CMR17-48"/>
       <use transform="translate(164.168608 0)scale(0.996264)" xlink:href="#CMR17-50"/>
       <use transform="translate(209.859086 0)scale(0.996264)" xlink:href="#CMR17-53"/>
      </g>
     </g>
    </g>
    <g id="ytick_3">
     <g id="line2d_7">
      <g>
       <use style="stroke:#000000;stroke-width:0.8;" x="81.982336" xlink:href="#mbb424f472b" y="80.2374"/>
      </g>
     </g>
     <g id="text_8">
      <!-- $0.0050$ -->
      <g transform="translate(31.626853 85.772194)scale(0.16 -0.16)">
       <use transform="scale(0.996264)" xlink:href="#CMR17-48"/>
       <use transform="translate(45.690477 0)scale(0.996264)" xlink:href="#CMMI12-58"/>
       <use transform="translate(72.787654 0)scale(0.996264)" xlink:href="#CMR17-48"/>
       <use transform="translate(118.478131 0)scale(0.996264)" xlink:href="#CMR17-48"/>
       <use transform="translate(164.168608 0)scale(0.996264)" xlink:href="#CMR17-53"/>
       <use transform="translate(209.859086 0)scale(0.996264)" xlink:href="#CMR17-48"/>
      </g>
     </g>
    </g>
    <g id="ytick_4">
     <g id="line2d_8">
      <g>
       <use style="stroke:#000000;stroke-width:0.8;" x="81.982336" xlink:href="#mbb424f472b" y="53.611314"/>
      </g>
     </g>
     <g id="text_9">
      <!-- $0.0075$ -->
      <defs>
       <path d="M 45.09375 61.796875 
L 45.09375 64 
L 21.59375 64 
C 9.90625 64 9.703125 65.09375 9.296875 67 
L 7.5 67 
L 4.59375 48.5 
L 6.40625 48.5 
C 6.703125 50.40625 7.40625 55.5 8.59375 57.390625 
C 9.203125 58.1875 16.59375 58.1875 18.296875 58.1875 
L 40.296875 58.1875 
L 29.203125 41.71875 
C 21.796875 30.640625 16.703125 15.671875 16.703125 2.59375 
C 16.703125 1.390625 16.703125 -2 20.296875 -2 
C 23.90625 -2 23.90625 1.390625 23.90625 2.6875 
L 23.90625 7.28125 
C 23.90625 23.65625 26.703125 34.4375 31.296875 41.3125 
z
" id="CMR17-55"/>
      </defs>
      <g transform="translate(31.626853 59.146108)scale(0.16 -0.16)">
       <use transform="scale(0.996264)" xlink:href="#CMR17-48"/>
       <use transform="translate(45.690477 0)scale(0.996264)" xlink:href="#CMMI12-58"/>
       <use transform="translate(72.787654 0)scale(0.996264)" xlink:href="#CMR17-48"/>
       <use transform="translate(118.478131 0)scale(0.996264)" xlink:href="#CMR17-48"/>
       <use transform="translate(164.168608 0)scale(0.996264)" xlink:href="#CMR17-55"/>
       <use transform="translate(209.859086 0)scale(0.996264)" xlink:href="#CMR17-53"/>
      </g>
     </g>
    </g>
    <g id="ytick_5">
     <g id="line2d_9">
      <g>
       <use style="stroke:#000000;stroke-width:0.8;" x="81.982336" xlink:href="#mbb424f472b" y="26.985228"/>
      </g>
     </g>
     <g id="text_10">
      <!-- $0.0100$ -->
      <g transform="translate(31.626853 32.520023)scale(0.16 -0.16)">
       <use transform="scale(0.996264)" xlink:href="#CMR17-48"/>
       <use transform="translate(45.690477 0)scale(0.996264)" xlink:href="#CMMI12-58"/>
       <use transform="translate(72.787654 0)scale(0.996264)" xlink:href="#CMR17-48"/>
       <use transform="translate(118.478131 0)scale(0.996264)" xlink:href="#CMR17-49"/>
       <use transform="translate(164.168608 0)scale(0.996264)" xlink:href="#CMR17-48"/>
       <use transform="translate(209.859086 0)scale(0.996264)" xlink:href="#CMR17-48"/>
      </g>
     </g>
    </g>
    <g id="text_11">
     <!-- $P_{I_1}$ -->
     <defs>
      <path d="M 29.59375 31.59375 
L 46.40625 31.59375 
C 60.203125 31.59375 74 41.765625 74 53.125 
C 74 60.90625 67.40625 68 54.796875 68 
L 23.90625 68 
C 22 68 21.09375 68 21.09375 66.09375 
C 21.09375 65.09375 22 65.09375 23.5 65.09375 
C 29.59375 65.09375 29.59375 64.296875 29.59375 63.203125 
C 29.59375 63 29.59375 62.40625 29.203125 60.90625 
L 15.703125 7.359375 
C 14.796875 3.890625 14.59375 2.890625 7.59375 2.890625 
C 5.703125 2.890625 4.703125 2.890625 4.703125 1.09375 
C 4.703125 0 5.59375 0 6.203125 0 
C 8.09375 0 10.09375 0.1875 12 0.1875 
L 23.703125 0.1875 
C 25.59375 0.1875 27.703125 0 29.59375 0 
C 30.40625 0 31.5 0 31.5 1.890625 
C 31.5 2.890625 30.59375 2.890625 29.09375 2.890625 
C 23.09375 2.890625 23 3.59375 23 4.578125 
C 23 5.078125 23.09375 5.765625 23.203125 6.265625 
z
M 36.796875 61.203125 
C 37.703125 64.890625 38.09375 65.09375 42 65.09375 
L 51.90625 65.09375 
C 59.40625 65.09375 65.59375 62.703125 65.59375 55.21875 
C 65.59375 52.640625 64.296875 44.15625 59.703125 39.578125 
C 58 37.78125 53.203125 34 44.09375 34 
L 30 34 
z
" id="CMMI12-80"/>
      <path d="M 36.796875 60.609375 
C 37.703125 64.09375 37.90625 65.09375 45.203125 65.09375 
C 47.40625 65.09375 48.203125 65.09375 48.203125 66.984375 
C 48.203125 68 47.09375 68 46.796875 68 
C 45 68 42.796875 67.796875 41 67.796875 
L 28.703125 67.796875 
C 26.703125 67.796875 24.40625 68 22.40625 68 
C 21.59375 68 20.5 68 20.5 66.09375 
C 20.5 65.09375 21.296875 65.09375 23.296875 65.09375 
C 29.5 65.09375 29.5 64.296875 29.5 63.203125 
C 29.5 62.5 29.296875 61.90625 29.09375 61.015625 
L 15.59375 7.375 
C 14.703125 3.890625 14.5 2.890625 7.203125 2.890625 
C 5 2.890625 4.09375 2.890625 4.09375 1 
C 4.09375 0 5.09375 0 5.59375 0 
C 7.40625 0 9.59375 0.1875 11.40625 0.1875 
L 23.703125 0.1875 
C 25.703125 0.1875 27.90625 0 29.90625 0 
C 30.703125 0 31.90625 0 31.90625 1.796875 
C 31.90625 2.890625 31.296875 2.890625 29.09375 2.890625 
C 22.90625 2.890625 22.90625 3.6875 22.90625 4.875 
C 22.90625 5.078125 22.90625 5.578125 23.296875 7.171875 
z
" id="CMMI12-73"/>
     </defs>
     <g transform="translate(24.138789 85.585483)rotate(-90)scale(0.18 -0.18)">
      <use transform="translate(0 25.404611)scale(0.996264)" xlink:href="#CMMI12-80"/>
      <use transform="translate(62.877232 10.460696)scale(0.697382)" xlink:href="#CMMI12-73"/>
      <use transform="translate(92.994015 0)scale(0.498132)" xlink:href="#CMR17-49"/>
     </g>
    </g>
   </g>
   <g id="line2d_10">
    <path clip-path="url(#p46dac68c34)" d="M 97.678775 132.424528 
L 101.823049 131.857185 
L 105.276611 131.164544 
L 108.227837 130.351056 
L 110.865102 129.395651 
L 113.251199 128.295811 
L 115.448921 127.040238 
L 117.521058 125.602411 
L 119.530403 123.933953 
L 121.476956 122.024294 
L 123.392113 119.831554 
L 125.338666 117.256209 
L 127.316615 114.262124 
L 129.388752 110.713664 
L 131.649265 106.389672 
L 134.349323 100.720514 
L 141.727387 84.927522 
L 143.485564 81.85636 
L 144.961176 79.708816 
L 146.248413 78.217369 
L 147.37867 77.233706 
L 148.414738 76.616817 
L 149.388015 76.29375 
L 150.298499 76.219039 
L 151.208984 76.363024 
L 152.150864 76.73724 
L 153.155537 77.379327 
L 154.254397 78.352012 
L 155.478842 79.740437 
L 156.891663 81.692705 
L 158.555652 84.38787 
L 160.690581 88.301538 
L 164.144143 95.175389 
L 168.570981 103.87097 
L 171.271039 108.680972 
L 173.657136 112.492454 
L 175.917649 115.693287 
L 178.11537 118.424008 
L 180.281696 120.765145 
L 182.448021 122.784445 
L 184.677138 124.55888 
L 186.969047 126.099403 
L 189.38654 127.45379 
L 191.929618 128.623541 
L 194.692467 129.647804 
L 197.737881 130.53538 
L 201.160047 131.295161 
L 205.084549 131.932312 
L 209.731159 132.454113 
L 215.47663 132.865642 
L 223.011675 133.169125 
L 233.937488 133.367874 
L 253.559999 133.468231 
L 323.541721 133.489528 
L 411.607548 133.489571 
L 411.607548 133.489571 
" style="fill:none;stroke:#1f77b4;stroke-linecap:square;stroke-width:1.5;"/>
   </g>
   <g id="line2d_11">
    <path clip-path="url(#p46dac68c34)" d="M 97.678775 132.424528 
L 101.823049 131.857729 
L 105.276611 131.166273 
L 108.259233 130.344951 
L 110.896498 129.390171 
L 113.282595 128.292511 
L 115.511713 127.021605 
L 117.615246 125.563612 
L 119.624591 123.898625 
L 121.60254 121.965011 
L 123.549093 119.746257 
L 125.527042 117.146165 
L 127.567783 114.084066 
L 129.734108 110.417203 
L 132.151602 105.868846 
L 135.322599 99.385295 
L 140.220378 89.374711 
L 142.229723 85.80052 
L 143.83092 83.378146 
L 145.212345 81.668469 
L 146.436789 80.488511 
L 147.53565 79.719519 
L 148.571718 79.256648 
L 149.544995 79.057841 
L 150.518271 79.087361 
L 151.491548 79.341022 
L 152.527617 79.848581 
L 153.626477 80.639885 
L 154.850922 81.803986 
L 156.232347 83.434483 
L 157.864939 85.7251 
L 159.874284 88.95578 
L 162.699926 93.963712 
L 169.387278 105.938331 
L 172.118731 110.295362 
L 174.599016 113.839413 
L 176.953718 116.818972 
L 179.245627 119.363012 
L 181.50614 121.545735 
L 183.798049 123.453586 
L 186.152751 125.125335 
L 188.60164 126.590339 
L 191.176113 127.870275 
L 193.938963 128.992589 
L 196.921584 129.962474 
L 200.249562 130.806143 
L 203.985688 131.519718 
L 208.349735 132.119762 
L 213.561473 132.603845 
L 220.123241 132.97913 
L 228.945522 133.246807 
L 242.445809 133.411894 
L 270.1057 133.482068 
L 411.607548 133.489571 
L 411.607548 133.489571 
" style="fill:none;stroke:#ff7f0e;stroke-linecap:square;stroke-width:1.5;"/>
   </g>
   <g id="line2d_12">
    <path clip-path="url(#p46dac68c34)" d="M 97.678775 132.424528 
L 101.854445 131.853638 
L 105.308007 131.162549 
L 108.290629 130.343313 
L 110.927894 129.393236 
L 113.345387 128.288052 
L 115.574505 127.027557 
L 117.709434 125.563752 
L 119.750175 123.894624 
L 121.75952 121.962278 
L 123.768865 119.717671 
L 125.809606 117.10158 
L 127.975931 113.952243 
L 130.362029 110.072349 
L 133.313254 104.815054 
L 139.466873 93.72478 
L 141.413427 90.747923 
L 143.014623 88.68311 
L 144.427444 87.210769 
L 145.683285 86.208846 
L 146.844937 85.554794 
L 147.943798 85.183434 
L 149.011263 85.052891 
L 150.078727 85.14443 
L 151.177588 85.461244 
L 152.370636 86.04512 
L 153.657873 86.93093 
L 155.10209 88.203211 
L 156.766079 89.974662 
L 158.80682 92.490658 
L 161.538273 96.240954 
L 171.302435 109.954654 
L 174.222264 113.511974 
L 176.953718 116.493555 
L 179.590983 119.044689 
L 182.196853 121.256326 
L 184.802722 123.17786 
L 187.471383 124.869323 
L 190.234233 126.355806 
L 193.122666 127.656795 
L 196.199476 128.797971 
L 199.527454 129.793751 
L 203.200788 130.657806 
L 207.345062 131.398779 
L 212.117257 132.019438 
L 217.799936 132.525785 
L 224.832644 132.919667 
L 234.157261 133.206429 
L 248.002904 133.389661 
L 274.218578 133.475716 
L 393.994383 133.48957 
L 411.607548 133.489571 
L 411.607548 133.489571 
" style="fill:none;stroke:#2ca02c;stroke-linecap:square;stroke-width:1.5;"/>
   </g>
   <g id="line2d_13">
    <path clip-path="url(#p46dac68c34)" d="M 97.678775 132.424528 
L 101.885841 131.851732 
L 105.370799 131.158363 
L 108.384817 130.337531 
L 111.084874 129.375585 
L 113.56516 128.257526 
L 115.888465 126.966917 
L 118.117582 125.473447 
L 120.315303 123.728782 
L 122.513024 121.695661 
L 124.804934 119.265655 
L 127.348011 116.230858 
L 130.707385 111.839187 
L 135.259807 105.919101 
L 137.331944 103.603096 
L 138.995933 102.061518 
L 140.471546 100.98797 
L 141.821575 100.274519 
L 143.108811 99.843577 
L 144.364652 99.656084 
L 145.651889 99.690993 
L 147.001918 99.952108 
L 148.508926 100.476565 
L 150.267103 101.333269 
L 152.559013 102.715799 
L 157.048643 105.753769 
L 161.632461 108.731968 
L 165.713944 111.109533 
L 170.611722 113.69216 
L 177.550242 117.079774 
L 185.179474 120.570843 
L 191.144717 123.065548 
L 196.356456 125.007052 
L 201.285631 126.606499 
L 206.152013 127.952518 
L 211.175376 129.109395 
L 216.481303 130.099475 
L 222.226774 130.941025 
L 228.631562 131.648905 
L 235.97823 132.230991 
L 244.769114 132.696238 
L 255.851908 133.049045 
L 271.016184 133.293858 
L 295.159721 133.436141 
L 351.484176 133.487005 
L 411.607548 133.489471 
L 411.607548 133.489471 
" style="fill:none;stroke:#d62728;stroke-linecap:square;stroke-width:1.5;"/>
   </g>
   <g id="patch_4">
    <path d="M 81.982336 133.489571 
L 81.982336 16.334794 
" style="fill:none;stroke:#000000;stroke-linecap:square;stroke-linejoin:miter;stroke-width:0.8;"/>
   </g>
   <g id="patch_5">
    <path d="M 427.303987 133.489571 
L 427.303987 16.334794 
" style="fill:none;stroke:#000000;stroke-linecap:square;stroke-linejoin:miter;stroke-width:0.8;"/>
   </g>
   <g id="patch_6">
    <path d="M 81.982336 133.489571 
L 427.303987 133.489571 
" style="fill:none;stroke:#000000;stroke-linecap:square;stroke-linejoin:miter;stroke-width:0.8;"/>
   </g>
   <g id="patch_7">
    <path d="M 81.982336 16.334794 
L 427.303987 16.334794 
" style="fill:none;stroke:#000000;stroke-linecap:square;stroke-linejoin:miter;stroke-width:0.8;"/>
   </g>
   <g id="text_12">
    <!-- \textbf{(a)} -->
    <defs>
     <path d="M 37.40625 -23.90625 
C 37.40625 -23.515625 37.40625 -23.3125 35.5 -21.5 
C 24.296875 -10.3125 20 7.296875 20 24.890625 
C 20 44.59375 24.90625 60.796875 36.09375 72.09375 
C 37.296875 73.296875 37.40625 73.390625 37.40625 73.796875 
C 37.40625 75 36.203125 75 35.703125 75 
C 34.796875 75 34.59375 75 32 72.890625 
C 17.59375 61.390625 10.796875 43 10.796875 25 
C 10.796875 6.59375 17.703125 -11.3125 31.90625 -22.90625 
C 34.5 -25.109375 34.703125 -25.109375 35.703125 -25.109375 
C 36.203125 -25.109375 37.40625 -25.109375 37.40625 -23.90625 
z
" id="CMBX12-40"/>
     <path d="M 46 29.59375 
C 46 38.796875 38.703125 45 24.59375 45 
C 19 45 7.203125 44.484375 7.203125 36.09375 
C 7.203125 31.890625 10.40625 30.09375 13.09375 30.09375 
C 16.09375 30.09375 19 32.1875 19 35.984375 
C 19 37.890625 18.296875 39.6875 16.59375 40.796875 
C 19.90625 41.6875 22.296875 41.6875 24.203125 41.6875 
C 31 41.6875 35.09375 37.890625 35.09375 29.6875 
L 35.09375 25.6875 
C 19.296875 25.6875 3.40625 21.28125 3.40625 10.125 
C 3.40625 1 15 -1 21.90625 -1 
C 29.59375 -1 34.5 3.203125 36.5 7.625 
C 36.5 3.90625 36.5 -0.40625 46.59375 -0.40625 
L 51.703125 -0.40625 
C 53.796875 -0.40625 54.59375 -0.40625 54.59375 1.796875 
C 54.59375 3.90625 53.703125 3.90625 52.296875 3.90625 
C 46 4 46 5.609375 46 7.921875 
z
M 35.09375 13.546875 
C 35.09375 4.09375 26.703125 2.296875 23.5 2.296875 
C 18.59375 2.296875 14.5 5.609375 14.5 10.234375 
C 14.5 19.375 25.296875 22.484375 35.09375 23 
z
" id="CMBX12-97"/>
     <path d="M 32.796875 24.890625 
C 32.796875 43.296875 25.90625 61.203125 11.703125 72.796875 
C 9.09375 75 8.90625 75 7.90625 75 
C 7.40625 75 6.203125 75 6.203125 73.796875 
C 6.203125 73.390625 6.203125 73.1875 8.09375 71.390625 
C 19.296875 60.203125 23.59375 42.59375 23.59375 25 
C 23.59375 5.296875 18.703125 -10.90625 7.5 -22.203125 
C 6.296875 -23.40625 6.203125 -23.515625 6.203125 -23.90625 
C 6.203125 -25.109375 7.40625 -25.109375 7.90625 -25.109375 
C 8.796875 -25.109375 9 -25.109375 11.59375 -23 
C 26 -11.5 32.796875 6.890625 32.796875 24.890625 
z
" id="CMBX12-41"/>
    </defs>
    <g transform="translate(99.248419 45.623488)scale(0.18 -0.18)">
     <use transform="scale(0.996264)" xlink:href="#CMBX12-40"/>
     <use transform="translate(43.58655 0)scale(0.996264)" xlink:href="#CMBX12-97"/>
     <use transform="translate(98.069738 0)scale(0.996264)" xlink:href="#CMBX12-41"/>
    </g>
   </g>
  </g>
  <g id="axes_2">
   <g id="patch_8">
    <path d="M 507.878349 133.489571 
L 853.2 133.489571 
L 853.2 16.334794 
L 507.878349 16.334794 
z
" style="fill:#ffffff;"/>
   </g>
   <g id="matplotlib.axis_3">
    <g id="xtick_5">
     <g id="line2d_14">
      <g>
       <use style="stroke:#000000;stroke-width:0.8;" x="523.574788" xlink:href="#m8bcf7bcae4" y="133.489571"/>
      </g>
     </g>
     <g id="text_13">
      <!-- $0$ -->
      <g transform="translate(519.672794 151.559159)scale(0.16 -0.16)">
       <use transform="scale(0.996264)" xlink:href="#CMR17-48"/>
      </g>
     </g>
    </g>
    <g id="xtick_6">
     <g id="line2d_15">
      <g>
       <use style="stroke:#000000;stroke-width:0.8;" x="586.360543" xlink:href="#m8bcf7bcae4" y="133.489571"/>
      </g>
     </g>
     <g id="text_14">
      <!-- $10$ -->
      <g transform="translate(578.556556 151.559159)scale(0.16 -0.16)">
       <use transform="scale(0.996264)" xlink:href="#CMR17-49"/>
       <use transform="translate(45.690477 0)scale(0.996264)" xlink:href="#CMR17-48"/>
      </g>
     </g>
    </g>
    <g id="xtick_7">
     <g id="line2d_16">
      <g>
       <use style="stroke:#000000;stroke-width:0.8;" x="649.146297" xlink:href="#m8bcf7bcae4" y="133.489571"/>
      </g>
     </g>
     <g id="text_15">
      <!-- $20$ -->
      <g transform="translate(641.34231 151.559159)scale(0.16 -0.16)">
       <use transform="scale(0.996264)" xlink:href="#CMR17-50"/>
       <use transform="translate(45.690477 0)scale(0.996264)" xlink:href="#CMR17-48"/>
      </g>
     </g>
    </g>
    <g id="xtick_8">
     <g id="line2d_17">
      <g>
       <use style="stroke:#000000;stroke-width:0.8;" x="711.932052" xlink:href="#m8bcf7bcae4" y="133.489571"/>
      </g>
     </g>
     <g id="text_16">
      <!-- $30$ -->
      <g transform="translate(704.128065 151.559159)scale(0.16 -0.16)">
       <use transform="scale(0.996264)" xlink:href="#CMR17-51"/>
       <use transform="translate(45.690477 0)scale(0.996264)" xlink:href="#CMR17-48"/>
      </g>
     </g>
    </g>
    <g id="text_17">
     <!-- time -->
     <g transform="translate(664.559046 171.111936)scale(0.18 -0.18)">
      <use transform="scale(0.996264)" xlink:href="#CMR17-116"/>
      <use transform="translate(35.280768 0)scale(0.996264)" xlink:href="#CMR17-105"/>
      <use transform="translate(60.151826 0)scale(0.996264)" xlink:href="#CMR17-109"/>
      <use transform="translate(137.071416 0)scale(0.996264)" xlink:href="#CMR17-101"/>
     </g>
    </g>
   </g>
   <g id="matplotlib.axis_4">
    <g id="ytick_6">
     <g id="line2d_18">
      <g>
       <use style="stroke:#000000;stroke-width:0.8;" x="507.878349" xlink:href="#mbb424f472b" y="129.063561"/>
      </g>
     </g>
     <g id="text_18">
      <!-- $0.00$ -->
      <g transform="translate(473.13084 134.598355)scale(0.16 -0.16)">
       <use transform="scale(0.996264)" xlink:href="#CMR17-48"/>
       <use transform="translate(45.690477 0)scale(0.996264)" xlink:href="#CMMI12-58"/>
       <use transform="translate(72.787654 0)scale(0.996264)" xlink:href="#CMR17-48"/>
       <use transform="translate(118.478131 0)scale(0.996264)" xlink:href="#CMR17-48"/>
      </g>
     </g>
    </g>
    <g id="ytick_7">
     <g id="line2d_19">
      <g>
       <use style="stroke:#000000;stroke-width:0.8;" x="507.878349" xlink:href="#mbb424f472b" y="106.517808"/>
      </g>
     </g>
     <g id="text_19">
      <!-- $0.05$ -->
      <g transform="translate(473.13084 112.052602)scale(0.16 -0.16)">
       <use transform="scale(0.996264)" xlink:href="#CMR17-48"/>
       <use transform="translate(45.690477 0)scale(0.996264)" xlink:href="#CMMI12-58"/>
       <use transform="translate(72.787654 0)scale(0.996264)" xlink:href="#CMR17-48"/>
       <use transform="translate(118.478131 0)scale(0.996264)" xlink:href="#CMR17-53"/>
      </g>
     </g>
    </g>
    <g id="ytick_8">
     <g id="line2d_20">
      <g>
       <use style="stroke:#000000;stroke-width:0.8;" x="507.878349" xlink:href="#mbb424f472b" y="83.972054"/>
      </g>
     </g>
     <g id="text_20">
      <!-- $0.10$ -->
      <g transform="translate(473.13084 89.506848)scale(0.16 -0.16)">
       <use transform="scale(0.996264)" xlink:href="#CMR17-48"/>
       <use transform="translate(45.690477 0)scale(0.996264)" xlink:href="#CMMI12-58"/>
       <use transform="translate(72.787654 0)scale(0.996264)" xlink:href="#CMR17-49"/>
       <use transform="translate(118.478131 0)scale(0.996264)" xlink:href="#CMR17-48"/>
      </g>
     </g>
    </g>
    <g id="ytick_9">
     <g id="line2d_21">
      <g>
       <use style="stroke:#000000;stroke-width:0.8;" x="507.878349" xlink:href="#mbb424f472b" y="61.426301"/>
      </g>
     </g>
     <g id="text_21">
      <!-- $0.15$ -->
      <g transform="translate(473.13084 66.961095)scale(0.16 -0.16)">
       <use transform="scale(0.996264)" xlink:href="#CMR17-48"/>
       <use transform="translate(45.690477 0)scale(0.996264)" xlink:href="#CMMI12-58"/>
       <use transform="translate(72.787654 0)scale(0.996264)" xlink:href="#CMR17-49"/>
       <use transform="translate(118.478131 0)scale(0.996264)" xlink:href="#CMR17-53"/>
      </g>
     </g>
    </g>
    <g id="ytick_10">
     <g id="line2d_22">
      <g>
       <use style="stroke:#000000;stroke-width:0.8;" x="507.878349" xlink:href="#mbb424f472b" y="38.880548"/>
      </g>
     </g>
     <g id="text_22">
      <!-- $0.20$ -->
      <g transform="translate(473.13084 44.415342)scale(0.16 -0.16)">
       <use transform="scale(0.996264)" xlink:href="#CMR17-48"/>
       <use transform="translate(45.690477 0)scale(0.996264)" xlink:href="#CMMI12-58"/>
       <use transform="translate(72.787654 0)scale(0.996264)" xlink:href="#CMR17-50"/>
       <use transform="translate(118.478131 0)scale(0.996264)" xlink:href="#CMR17-48"/>
      </g>
     </g>
    </g>
    <g id="ytick_11">
     <g id="line2d_23">
      <g>
       <use style="stroke:#000000;stroke-width:0.8;" x="507.878349" xlink:href="#mbb424f472b" y="16.334794"/>
      </g>
     </g>
     <g id="text_23">
      <!-- $0.25$ -->
      <g transform="translate(473.13084 21.869588)scale(0.16 -0.16)">
       <use transform="scale(0.996264)" xlink:href="#CMR17-48"/>
       <use transform="translate(45.690477 0)scale(0.996264)" xlink:href="#CMMI12-58"/>
       <use transform="translate(72.787654 0)scale(0.996264)" xlink:href="#CMR17-50"/>
       <use transform="translate(118.478131 0)scale(0.996264)" xlink:href="#CMR17-53"/>
      </g>
     </g>
    </g>
    <g id="text_24">
     <!-- $P_{R_1}$ -->
     <defs>
      <path d="M 36.796875 61.203125 
C 37.703125 64.890625 38.09375 65.09375 42 65.09375 
L 49.203125 65.09375 
C 57.796875 65.09375 64.203125 62.5 64.203125 54.734375 
C 64.203125 49.640625 61.59375 35 41.5 35 
L 30.203125 35 
z
M 50.703125 33.796875 
C 63.09375 36.484375 72.796875 44.46875 72.796875 53.03125 
C 72.796875 60.8125 64.90625 68 51 68 
L 23.90625 68 
C 21.90625 68 21 68 21 66.09375 
C 21 65.09375 21.703125 65.09375 23.59375 65.09375 
C 29.59375 65.09375 29.59375 64.296875 29.59375 63.203125 
C 29.59375 63 29.59375 62.40625 29.203125 60.90625 
L 15.703125 7.421875 
C 14.796875 3.953125 14.59375 2.96875 7.703125 2.96875 
C 5.40625 2.96875 4.703125 2.96875 4.703125 1.078125 
C 4.703125 0.09375 5.796875 0.09375 6.09375 0.09375 
C 7.90625 0.09375 10 0.296875 11.90625 0.296875 
L 23.703125 0.296875 
C 25.5 0.296875 27.59375 0.09375 29.40625 0.09375 
C 30.203125 0.09375 31.296875 0.09375 31.296875 1.96875 
C 31.296875 2.96875 30.40625 2.96875 28.90625 2.96875 
C 22.796875 2.96875 22.796875 3.765625 22.796875 4.75 
C 22.796875 4.84375 22.796875 5.546875 23 6.328125 
L 29.703125 33 
L 41.703125 33 
C 51.203125 33 53 27.046875 53 23.78125 
C 53 22.28125 52 18.421875 51.296875 15.84375 
C 50.203125 11.296875 49.90625 10.203125 49.90625 8.3125 
C 49.90625 1.28125 55.703125 -2 62.40625 -2 
C 70.5 -2 74 7.828125 74 9.203125 
C 74 9.90625 73.5 10.203125 72.90625 10.203125 
C 72.09375 10.203125 71.90625 9.609375 71.703125 8.8125 
C 69.296875 1.78125 65.203125 0 62.703125 0 
C 60.203125 0 58.59375 1.078125 58.59375 5.546875 
C 58.59375 7.921875 59.796875 16.9375 59.90625 17.4375 
C 60.40625 21.09375 60.40625 21.5 60.40625 22.28125 
C 60.40625 29.515625 54.5 32.59375 50.703125 33.796875 
z
" id="CMMI12-82"/>
     </defs>
     <g transform="translate(465.642776 87.552754)rotate(-90)scale(0.18 -0.18)">
      <use transform="translate(0 25.404611)scale(0.996264)" xlink:href="#CMMI12-80"/>
      <use transform="translate(62.877232 10.460696)scale(0.697382)" xlink:href="#CMMI12-82"/>
      <use transform="translate(114.852582 0)scale(0.498132)" xlink:href="#CMR17-49"/>
     </g>
    </g>
   </g>
   <g id="line2d_24">
    <path clip-path="url(#p8ed282a53e)" d="M 523.574788 129.063561 
L 530.136555 128.69313 
L 535.002938 128.204319 
L 538.92744 127.592025 
L 542.224022 126.857215 
L 545.112456 125.988129 
L 547.686929 124.984668 
L 550.073026 123.815795 
L 552.302143 122.474635 
L 554.405677 120.951336 
L 556.477814 119.172227 
L 558.518555 117.119789 
L 560.559296 114.744375 
L 562.631433 111.984471 
L 564.797758 108.718171 
L 567.089667 104.851896 
L 569.664141 100.056299 
L 572.772346 93.769939 
L 584.043517 70.494547 
L 586.680782 65.825657 
L 589.098275 61.983713 
L 591.390185 58.747215 
L 593.619302 55.975579 
L 595.817023 53.590442 
L 598.014744 51.526422 
L 600.275257 49.708185 
L 602.598563 48.126426 
L 605.016056 46.750347 
L 607.590529 45.543931 
L 610.353379 44.498153 
L 613.367396 43.597344 
L 616.758166 42.821154 
L 620.619876 42.170576 
L 625.172299 41.635407 
L 630.76079 41.211113 
L 638.01327 40.895227 
L 648.373955 40.683924 
L 666.269685 40.572099 
L 721.087131 40.543581 
L 837.503561 40.54336 
L 837.503561 40.54336 
" style="fill:none;stroke:#1f77b4;stroke-linecap:square;stroke-width:1.5;"/>
   </g>
   <g id="line2d_25">
    <path clip-path="url(#p8ed282a53e)" d="M 523.574788 129.063561 
L 530.136555 128.693202 
L 535.002938 128.204787 
L 538.92744 127.593475 
L 542.224022 126.860553 
L 545.112456 125.994691 
L 547.718325 124.982576 
L 550.104422 123.818078 
L 552.333539 122.484425 
L 554.468469 120.948242 
L 556.540606 119.182704 
L 558.581347 117.151805 
L 560.653484 114.77044 
L 562.757017 112.009565 
L 564.954738 108.753747 
L 567.340836 104.809661 
L 570.040893 99.897785 
L 573.463059 93.175288 
L 582.630696 74.920506 
L 585.519129 69.810024 
L 588.093603 65.695534 
L 590.511096 62.242367 
L 592.834401 59.303221 
L 595.126311 56.757592 
L 597.41822 54.542891 
L 599.710129 52.632522 
L 602.06483 50.955416 
L 604.51372 49.482746 
L 607.088193 48.193478 
L 609.851042 47.060719 
L 612.833664 46.079941 
L 616.130246 45.232332 
L 619.866372 44.50645 
L 624.199022 43.898817 
L 629.347969 43.408523 
L 635.815548 43.026465 
L 644.480849 42.751906 
L 657.572988 42.580976 
L 683.663078 42.505639 
L 836.436097 42.496298 
L 837.503561 42.496298 
L 837.503561 42.496298 
" style="fill:none;stroke:#ff7f0e;stroke-linecap:square;stroke-width:1.5;"/>
   </g>
   <g id="line2d_26">
    <path clip-path="url(#p8ed282a53e)" d="M 523.574788 129.063561 
L 530.136555 128.693354 
L 535.002938 128.205786 
L 538.92744 127.596569 
L 542.255418 126.85955 
L 545.175248 125.98729 
L 547.781117 124.980327 
L 550.19861 123.809019 
L 552.459124 122.468349 
L 554.625449 120.926802 
L 556.760378 119.131822 
L 558.863911 117.071262 
L 560.99884 114.666661 
L 563.227957 111.812969 
L 565.582659 108.429695 
L 568.219924 104.236331 
L 571.390922 98.754056 
L 577.575937 87.483827 
L 581.720211 80.208278 
L 584.828417 75.188943 
L 587.622662 71.090198 
L 590.228532 67.652039 
L 592.771609 64.659704 
L 595.251895 62.077762 
L 597.73218 59.810593 
L 600.243861 57.812061 
L 602.818335 56.046043 
L 605.486996 54.485212 
L 608.281242 53.109426 
L 611.232467 51.903933 
L 614.434861 50.838829 
L 617.919819 49.916669 
L 621.812925 49.120304 
L 626.239763 48.446321 
L 631.420106 47.888222 
L 637.730706 47.440657 
L 645.799482 47.102675 
L 657.039256 46.870401 
L 675.468718 46.739052 
L 722.123199 46.696661 
L 837.503561 46.695364 
L 837.503561 46.695364 
" style="fill:none;stroke:#2ca02c;stroke-linecap:square;stroke-width:1.5;"/>
   </g>
   <g id="line2d_27">
    <path clip-path="url(#p8ed282a53e)" d="M 523.574788 129.063561 
L 530.136555 128.693785 
L 535.034334 128.20465 
L 538.990232 127.593653 
L 542.349606 126.855765 
L 545.300832 125.985381 
L 548.000889 124.958829 
L 550.51257 123.765088 
L 552.898668 122.383258 
L 555.221973 120.778284 
L 557.545278 118.898087 
L 559.931376 116.673244 
L 562.443057 114.021467 
L 565.300094 110.668404 
L 569.004824 105.947078 
L 578.015481 94.32978 
L 581.563231 90.203802 
L 584.985397 86.56335 
L 588.438959 83.215194 
L 591.986709 80.0856 
L 595.660043 77.142959 
L 599.396169 74.433905 
L 603.195087 71.953796 
L 606.994005 69.73688 
L 610.824319 67.756185 
L 614.717425 65.991556 
L 618.704719 64.427169 
L 622.848993 63.04022 
L 627.21304 61.815874 
L 631.85965 60.744938 
L 636.914409 59.811175 
L 642.5029 59.008856 
L 648.844896 58.328687 
L 656.22296 57.767822 
L 665.139428 57.321106 
L 676.536182 56.983897 
L 692.391171 56.753118 
L 718.449865 56.623354 
L 785.260589 56.582193 
L 837.503561 56.581108 
L 837.503561 56.581108 
" style="fill:none;stroke:#d62728;stroke-linecap:square;stroke-width:1.5;"/>
   </g>
   <g id="patch_9">
    <path d="M 507.878349 133.489571 
L 507.878349 16.334794 
" style="fill:none;stroke:#000000;stroke-linecap:square;stroke-linejoin:miter;stroke-width:0.8;"/>
   </g>
   <g id="patch_10">
    <path d="M 853.2 133.489571 
L 853.2 16.334794 
" style="fill:none;stroke:#000000;stroke-linecap:square;stroke-linejoin:miter;stroke-width:0.8;"/>
   </g>
   <g id="patch_11">
    <path d="M 507.878349 133.489571 
L 853.2 133.489571 
" style="fill:none;stroke:#000000;stroke-linecap:square;stroke-linejoin:miter;stroke-width:0.8;"/>
   </g>
   <g id="patch_12">
    <path d="M 507.878349 16.334794 
L 853.2 16.334794 
" style="fill:none;stroke:#000000;stroke-linecap:square;stroke-linejoin:miter;stroke-width:0.8;"/>
   </g>
   <g id="text_25">
    <!-- \textbf{(b)} -->
    <defs>
     <path d="M 20.796875 70 
L 3.5 69.1875 
L 3.5 64.890625 
C 9.703125 64.890625 10.40625 64.890625 10.40625 60.875 
L 10.40625 -0.40625 
L 14.59375 -0.40625 
C 16.296875 1.5 18 3.40625 19.59375 5.421875 
C 24.703125 0.09375 30.203125 -1 34.203125 -1 
C 48 -1 58.59375 7.4375 58.59375 22.09375 
C 58.59375 35.9375 49.203125 45 35.5 45 
C 29.59375 45 24.90625 43.09375 20.796875 39.875 
z
M 21.296875 35.03125 
C 24.796875 39.875 30 41.6875 34.203125 41.6875 
C 46.59375 41.6875 46.59375 28.859375 46.59375 22.1875 
C 46.59375 17.65625 46.59375 11.890625 44.203125 8.15625 
C 41.09375 3.296875 36.40625 2.296875 33.203125 2.296875 
C 26.40625 2.296875 22.703125 7.140625 21.296875 9.359375 
z
" id="CMBX12-98"/>
    </defs>
    <g transform="translate(525.144432 45.623488)scale(0.18 -0.18)">
     <use transform="scale(0.996264)" xlink:href="#CMBX12-40"/>
     <use transform="translate(43.58655 0)scale(0.996264)" xlink:href="#CMBX12-98"/>
     <use transform="translate(105.853051 0)scale(0.996264)" xlink:href="#CMBX12-41"/>
    </g>
   </g>
  </g>
  <g id="axes_3">
   <g id="patch_13">
    <path d="M 81.982336 308.089571 
L 427.303987 308.089571 
L 427.303987 190.934794 
L 81.982336 190.934794 
z
" style="fill:#ffffff;"/>
   </g>
   <g id="matplotlib.axis_5">
    <g id="xtick_9">
     <g id="line2d_28">
      <g>
       <use style="stroke:#000000;stroke-width:0.8;" x="97.678775" xlink:href="#m8bcf7bcae4" y="308.089571"/>
      </g>
     </g>
     <g id="text_26">
      <!-- $0$ -->
      <g transform="translate(93.776781 326.159159)scale(0.16 -0.16)">
       <use transform="scale(0.996264)" xlink:href="#CMR17-48"/>
      </g>
     </g>
    </g>
    <g id="xtick_10">
     <g id="line2d_29">
      <g>
       <use style="stroke:#000000;stroke-width:0.8;" x="160.46453" xlink:href="#m8bcf7bcae4" y="308.089571"/>
      </g>
     </g>
     <g id="text_27">
      <!-- $10$ -->
      <g transform="translate(152.660543 326.159159)scale(0.16 -0.16)">
       <use transform="scale(0.996264)" xlink:href="#CMR17-49"/>
       <use transform="translate(45.690477 0)scale(0.996264)" xlink:href="#CMR17-48"/>
      </g>
     </g>
    </g>
    <g id="xtick_11">
     <g id="line2d_30">
      <g>
       <use style="stroke:#000000;stroke-width:0.8;" x="223.250284" xlink:href="#m8bcf7bcae4" y="308.089571"/>
      </g>
     </g>
     <g id="text_28">
      <!-- $20$ -->
      <g transform="translate(215.446297 326.159159)scale(0.16 -0.16)">
       <use transform="scale(0.996264)" xlink:href="#CMR17-50"/>
       <use transform="translate(45.690477 0)scale(0.996264)" xlink:href="#CMR17-48"/>
      </g>
     </g>
    </g>
    <g id="xtick_12">
     <g id="line2d_31">
      <g>
       <use style="stroke:#000000;stroke-width:0.8;" x="286.036039" xlink:href="#m8bcf7bcae4" y="308.089571"/>
      </g>
     </g>
     <g id="text_29">
      <!-- $30$ -->
      <g transform="translate(278.232052 326.159159)scale(0.16 -0.16)">
       <use transform="scale(0.996264)" xlink:href="#CMR17-51"/>
       <use transform="translate(45.690477 0)scale(0.996264)" xlink:href="#CMR17-48"/>
      </g>
     </g>
    </g>
    <g id="text_30">
     <!-- time -->
     <g transform="translate(238.663033 345.711936)scale(0.18 -0.18)">
      <use transform="scale(0.996264)" xlink:href="#CMR17-116"/>
      <use transform="translate(35.280768 0)scale(0.996264)" xlink:href="#CMR17-105"/>
      <use transform="translate(60.151826 0)scale(0.996264)" xlink:href="#CMR17-109"/>
      <use transform="translate(137.071416 0)scale(0.996264)" xlink:href="#CMR17-101"/>
     </g>
    </g>
   </g>
   <g id="matplotlib.axis_6">
    <g id="ytick_12">
     <g id="line2d_32">
      <g>
       <use style="stroke:#000000;stroke-width:0.8;" x="81.982336" xlink:href="#mbb424f472b" y="308.089571"/>
      </g>
     </g>
     <g id="text_31">
      <!-- $0.0000$ -->
      <g transform="translate(31.626853 313.624365)scale(0.16 -0.16)">
       <use transform="scale(0.996264)" xlink:href="#CMR17-48"/>
       <use transform="translate(45.690477 0)scale(0.996264)" xlink:href="#CMMI12-58"/>
       <use transform="translate(72.787654 0)scale(0.996264)" xlink:href="#CMR17-48"/>
       <use transform="translate(118.478131 0)scale(0.996264)" xlink:href="#CMR17-48"/>
       <use transform="translate(164.168608 0)scale(0.996264)" xlink:href="#CMR17-48"/>
       <use transform="translate(209.859086 0)scale(0.996264)" xlink:href="#CMR17-48"/>
      </g>
     </g>
    </g>
    <g id="ytick_13">
     <g id="line2d_33">
      <g>
       <use style="stroke:#000000;stroke-width:0.8;" x="81.982336" xlink:href="#mbb424f472b" y="281.463486"/>
      </g>
     </g>
     <g id="text_32">
      <!-- $0.0025$ -->
      <g transform="translate(31.626853 286.99828)scale(0.16 -0.16)">
       <use transform="scale(0.996264)" xlink:href="#CMR17-48"/>
       <use transform="translate(45.690477 0)scale(0.996264)" xlink:href="#CMMI12-58"/>
       <use transform="translate(72.787654 0)scale(0.996264)" xlink:href="#CMR17-48"/>
       <use transform="translate(118.478131 0)scale(0.996264)" xlink:href="#CMR17-48"/>
       <use transform="translate(164.168608 0)scale(0.996264)" xlink:href="#CMR17-50"/>
       <use transform="translate(209.859086 0)scale(0.996264)" xlink:href="#CMR17-53"/>
      </g>
     </g>
    </g>
    <g id="ytick_14">
     <g id="line2d_34">
      <g>
       <use style="stroke:#000000;stroke-width:0.8;" x="81.982336" xlink:href="#mbb424f472b" y="254.8374"/>
      </g>
     </g>
     <g id="text_33">
      <!-- $0.0050$ -->
      <g transform="translate(31.626853 260.372194)scale(0.16 -0.16)">
       <use transform="scale(0.996264)" xlink:href="#CMR17-48"/>
       <use transform="translate(45.690477 0)scale(0.996264)" xlink:href="#CMMI12-58"/>
       <use transform="translate(72.787654 0)scale(0.996264)" xlink:href="#CMR17-48"/>
       <use transform="translate(118.478131 0)scale(0.996264)" xlink:href="#CMR17-48"/>
       <use transform="translate(164.168608 0)scale(0.996264)" xlink:href="#CMR17-53"/>
       <use transform="translate(209.859086 0)scale(0.996264)" xlink:href="#CMR17-48"/>
      </g>
     </g>
    </g>
    <g id="ytick_15">
     <g id="line2d_35">
      <g>
       <use style="stroke:#000000;stroke-width:0.8;" x="81.982336" xlink:href="#mbb424f472b" y="228.211314"/>
      </g>
     </g>
     <g id="text_34">
      <!-- $0.0075$ -->
      <g transform="translate(31.626853 233.746108)scale(0.16 -0.16)">
       <use transform="scale(0.996264)" xlink:href="#CMR17-48"/>
       <use transform="translate(45.690477 0)scale(0.996264)" xlink:href="#CMMI12-58"/>
       <use transform="translate(72.787654 0)scale(0.996264)" xlink:href="#CMR17-48"/>
       <use transform="translate(118.478131 0)scale(0.996264)" xlink:href="#CMR17-48"/>
       <use transform="translate(164.168608 0)scale(0.996264)" xlink:href="#CMR17-55"/>
       <use transform="translate(209.859086 0)scale(0.996264)" xlink:href="#CMR17-53"/>
      </g>
     </g>
    </g>
    <g id="ytick_16">
     <g id="line2d_36">
      <g>
       <use style="stroke:#000000;stroke-width:0.8;" x="81.982336" xlink:href="#mbb424f472b" y="201.585228"/>
      </g>
     </g>
     <g id="text_35">
      <!-- $0.0100$ -->
      <g transform="translate(31.626853 207.120023)scale(0.16 -0.16)">
       <use transform="scale(0.996264)" xlink:href="#CMR17-48"/>
       <use transform="translate(45.690477 0)scale(0.996264)" xlink:href="#CMMI12-58"/>
       <use transform="translate(72.787654 0)scale(0.996264)" xlink:href="#CMR17-48"/>
       <use transform="translate(118.478131 0)scale(0.996264)" xlink:href="#CMR17-49"/>
       <use transform="translate(164.168608 0)scale(0.996264)" xlink:href="#CMR17-48"/>
       <use transform="translate(209.859086 0)scale(0.996264)" xlink:href="#CMR17-48"/>
      </g>
     </g>
    </g>
    <g id="text_36">
     <!-- $P_{I_2}$ -->
     <g transform="translate(24.138789 260.185483)rotate(-90)scale(0.18 -0.18)">
      <use transform="translate(0 25.404611)scale(0.996264)" xlink:href="#CMMI12-80"/>
      <use transform="translate(62.877232 10.460696)scale(0.697382)" xlink:href="#CMMI12-73"/>
      <use transform="translate(92.994015 0)scale(0.498132)" xlink:href="#CMR17-50"/>
     </g>
    </g>
   </g>
   <g id="line2d_37">
    <path clip-path="url(#pf19f8af63a)" d="M 97.678775 307.024528 
L 101.823049 306.456674 
L 105.245215 305.77037 
L 108.196441 304.957417 
L 110.80231 304.01451 
L 113.188407 302.916164 
L 115.386128 301.660399 
L 117.458266 300.219833 
L 119.436215 298.573249 
L 121.351372 296.689885 
L 123.266529 294.487906 
L 125.181686 291.93698 
L 127.128239 288.963189 
L 129.137584 285.479736 
L 131.303909 281.267194 
L 133.784194 275.936242 
L 137.457528 267.434961 
L 141.036674 259.329433 
L 143.014623 255.38811 
L 144.584424 252.72936 
L 145.934453 250.863433 
L 147.096106 249.615309 
L 148.16357 248.785584 
L 149.136847 248.307237 
L 150.047331 248.10602 
L 150.92642 248.139003 
L 151.805508 248.3931 
L 152.747389 248.904562 
L 153.752061 249.711282 
L 154.882318 250.920054 
L 156.138158 252.601597 
L 157.613771 254.969341 
L 159.403344 258.291179 
L 161.789442 263.23057 
L 169.795426 280.17211 
L 172.212919 284.579172 
L 174.442036 288.195588 
L 176.576966 291.246175 
L 178.680499 293.868483 
L 180.752636 296.103325 
L 182.856169 298.04955 
L 185.022494 299.750713 
L 187.251611 301.220015 
L 189.606313 302.505994 
L 192.117994 303.623871 
L 194.849447 304.594646 
L 197.894861 305.435875 
L 201.317027 306.145941 
L 205.304321 306.739956 
L 210.076516 307.218988 
L 216.104551 307.590118 
L 224.267515 307.854663 
L 236.825922 308.016108 
L 263.041596 308.083095 
L 411.607548 308.089571 
L 411.607548 308.089571 
" style="fill:none;stroke:#1f77b4;stroke-linecap:square;stroke-width:1.5;"/>
   </g>
   <g id="line2d_38">
    <path clip-path="url(#pf19f8af63a)" d="M 97.678775 307.024528 
L 101.823049 306.456116 
L 105.245215 305.768617 
L 108.196441 304.953507 
L 110.80231 304.007087 
L 113.157011 302.919494 
L 115.354732 301.65937 
L 117.395474 300.235313 
L 119.373423 298.58138 
L 121.28858 296.684992 
L 123.172341 294.500721 
L 125.056102 291.967603 
L 126.971259 289.007619 
L 128.949208 285.526743 
L 131.052741 281.355996 
L 133.376046 276.237278 
L 136.358668 269.085208 
L 141.539011 256.608094 
L 143.422772 252.691846 
L 144.961176 249.984437 
L 146.248413 248.144854 
L 147.37867 246.895925 
L 148.383342 246.098076 
L 149.293827 245.64164 
L 150.172915 245.4477 
L 151.020608 245.492041 
L 151.8683 245.761798 
L 152.778785 246.2969 
L 153.752061 247.138693 
L 154.819526 248.362713 
L 156.04397 250.118842 
L 157.456791 252.550121 
L 159.183572 255.99218 
L 161.475481 261.099685 
L 169.544258 279.513758 
L 171.898959 284.104348 
L 174.065284 287.850202 
L 176.137421 290.996577 
L 178.146766 293.653998 
L 180.156111 295.949954 
L 182.196853 297.94538 
L 184.26899 299.662655 
L 186.435315 301.167369 
L 188.695828 302.465901 
L 191.113321 303.596578 
L 193.750587 304.57999 
L 196.670416 305.425203 
L 199.966998 306.141319 
L 203.797312 306.737928 
L 208.381131 307.218529 
L 214.157998 307.589822 
L 221.975606 307.854377 
L 234.00028 308.015929 
L 259.085698 308.083052 
L 411.607548 308.089571 
L 411.607548 308.089571 
" style="fill:none;stroke:#ff7f0e;stroke-linecap:square;stroke-width:1.5;"/>
   </g>
   <g id="line2d_39">
    <path clip-path="url(#pf19f8af63a)" d="M 97.678775 307.024528 
L 101.823049 306.454926 
L 105.245215 305.764878 
L 108.165045 304.955225 
L 110.770914 304.004271 
L 113.125615 302.908561 
L 115.29194 301.655264 
L 117.332682 300.215345 
L 119.279235 298.565184 
L 121.162996 296.670279 
L 122.983965 294.521808 
L 124.804934 292.025973 
L 126.625903 289.150744 
L 128.509664 285.751227 
L 130.456217 281.771544 
L 132.55975 276.952237 
L 134.977243 270.832862 
L 138.681973 260.746154 
L 141.884367 252.266554 
L 143.736732 247.960085 
L 145.212345 245.058287 
L 146.468185 243.057223 
L 147.53565 241.746214 
L 148.47753 240.913741 
L 149.356619 240.425612 
L 150.141519 240.232133 
L 150.92642 240.269716 
L 151.71132 240.537426 
L 152.527617 241.055556 
L 153.438101 241.911946 
L 154.442774 243.17903 
L 155.57303 244.974845 
L 156.891663 247.5044 
L 158.49286 251.087636 
L 160.596393 256.391168 
L 169.261694 278.8943 
L 171.459415 283.641312 
L 173.500156 287.528414 
L 175.446709 290.768785 
L 177.361866 293.532405 
L 179.277023 295.907109 
L 181.19218 297.930931 
L 183.138733 299.669722 
L 185.148078 301.171858 
L 187.283007 302.489413 
L 189.543521 303.622297 
L 191.99241 304.599995 
L 194.723863 305.445809 
L 197.800673 306.159588 
L 201.379819 306.753884 
L 205.681073 307.233053 
L 211.081188 307.600259 
L 218.39646 307.860863 
L 229.730422 308.019343 
L 253.748375 308.083835 
L 411.607548 308.089571 
L 411.607548 308.089571 
" style="fill:none;stroke:#2ca02c;stroke-linecap:square;stroke-width:1.5;"/>
   </g>
   <g id="line2d_40">
    <path clip-path="url(#pf19f8af63a)" d="M 97.678775 307.024528 
L 101.791653 306.456893 
L 105.182423 305.769444 
L 108.070857 304.962396 
L 110.613934 304.025988 
L 112.905843 302.94891 
L 115.009376 301.717416 
L 116.987325 300.300591 
L 118.83969 298.701508 
L 120.629263 296.862327 
L 122.38744 294.728788 
L 124.114221 292.273028 
L 125.809606 289.470912 
L 127.536387 286.176731 
L 129.294564 282.329672 
L 131.115533 277.796565 
L 133.062086 272.336747 
L 135.259807 265.483015 
L 138.305221 255.170541 
L 141.915763 243.089293 
L 143.642544 238.07233 
L 144.992572 234.780901 
L 146.122829 232.566181 
L 147.096106 231.112789 
L 147.943798 230.21874 
L 148.697302 229.729081 
L 149.388015 229.538874 
L 150.047331 229.590091 
L 150.706648 229.867638 
L 151.428756 230.426819 
L 152.213656 231.327518 
L 153.124141 232.734481 
L 154.160209 234.770498 
L 155.384654 237.700516 
L 156.860267 241.844898 
L 158.80682 248.027783 
L 166.875596 274.447996 
L 168.916337 279.980205 
L 170.831494 284.545452 
L 172.652463 288.326299 
L 174.442036 291.537345 
L 176.200213 294.24365 
L 177.95839 296.54989 
L 179.747963 298.534061 
L 181.568932 300.225676 
L 183.452693 301.677768 
L 185.462038 302.945128 
L 187.596967 304.028063 
L 189.920273 304.95658 
L 192.526142 305.753632 
L 195.477368 306.418687 
L 198.962326 306.967897 
L 203.200788 307.401054 
L 208.663695 307.724034 
L 216.387115 307.94109 
L 229.51065 308.057756 
L 267.625415 308.089218 
L 411.607548 308.089571 
L 411.607548 308.089571 
" style="fill:none;stroke:#d62728;stroke-linecap:square;stroke-width:1.5;"/>
   </g>
   <g id="patch_14">
    <path d="M 81.982336 308.089571 
L 81.982336 190.934794 
" style="fill:none;stroke:#000000;stroke-linecap:square;stroke-linejoin:miter;stroke-width:0.8;"/>
   </g>
   <g id="patch_15">
    <path d="M 427.303987 308.089571 
L 427.303987 190.934794 
" style="fill:none;stroke:#000000;stroke-linecap:square;stroke-linejoin:miter;stroke-width:0.8;"/>
   </g>
   <g id="patch_16">
    <path d="M 81.982336 308.089571 
L 427.303987 308.089571 
" style="fill:none;stroke:#000000;stroke-linecap:square;stroke-linejoin:miter;stroke-width:0.8;"/>
   </g>
   <g id="patch_17">
    <path d="M 81.982336 190.934794 
L 427.303987 190.934794 
" style="fill:none;stroke:#000000;stroke-linecap:square;stroke-linejoin:miter;stroke-width:0.8;"/>
   </g>
   <g id="text_37">
    <!-- \textbf{(c)} -->
    <defs>
     <path d="M 46.796875 11.3125 
C 46.796875 12.515625 45.703125 12.515625 44.703125 12.515625 
C 43.09375 12.515625 43 12.421875 42.5 11.21875 
C 41.796875 9.3125 39.09375 2.59375 29.90625 2.59375 
C 15.796875 2.59375 15.796875 17.828125 15.796875 22.34375 
C 15.796875 28.25 15.90625 41.390625 29 41.390625 
C 29.703125 41.390625 35.59375 41.1875 35.59375 40.6875 
C 35.59375 40.59375 35.5 40.484375 35.296875 40.390625 
C 35 40.09375 33.703125 38.578125 33.703125 36.078125 
C 33.703125 31.859375 37.09375 30.15625 39.59375 30.15625 
C 41.703125 30.15625 45.5 31.46875 45.5 36.171875 
C 45.5 44.390625 34 45 28.59375 45 
C 10.796875 45 3.796875 33.375 3.796875 21.84375 
C 3.796875 8.203125 13.296875 -1 28 -1 
C 43.703125 -1 46.796875 10.609375 46.796875 11.3125 
z
" id="CMBX12-99"/>
    </defs>
    <g transform="translate(99.248419 220.223488)scale(0.18 -0.18)">
     <use transform="scale(0.996264)" xlink:href="#CMBX12-40"/>
     <use transform="translate(43.58655 0)scale(0.996264)" xlink:href="#CMBX12-99"/>
     <use transform="translate(93.399751 0)scale(0.996264)" xlink:href="#CMBX12-41"/>
    </g>
   </g>
  </g>
  <g id="axes_4">
   <g id="patch_18">
    <path d="M 507.878349 308.089571 
L 853.2 308.089571 
L 853.2 190.934794 
L 507.878349 190.934794 
z
" style="fill:#ffffff;"/>
   </g>
   <g id="matplotlib.axis_7">
    <g id="xtick_13">
     <g id="line2d_41">
      <g>
       <use style="stroke:#000000;stroke-width:0.8;" x="523.574788" xlink:href="#m8bcf7bcae4" y="308.089571"/>
      </g>
     </g>
     <g id="text_38">
      <!-- $0$ -->
      <g transform="translate(519.672794 326.159159)scale(0.16 -0.16)">
       <use transform="scale(0.996264)" xlink:href="#CMR17-48"/>
      </g>
     </g>
    </g>
    <g id="xtick_14">
     <g id="line2d_42">
      <g>
       <use style="stroke:#000000;stroke-width:0.8;" x="586.360543" xlink:href="#m8bcf7bcae4" y="308.089571"/>
      </g>
     </g>
     <g id="text_39">
      <!-- $10$ -->
      <g transform="translate(578.556556 326.159159)scale(0.16 -0.16)">
       <use transform="scale(0.996264)" xlink:href="#CMR17-49"/>
       <use transform="translate(45.690477 0)scale(0.996264)" xlink:href="#CMR17-48"/>
      </g>
     </g>
    </g>
    <g id="xtick_15">
     <g id="line2d_43">
      <g>
       <use style="stroke:#000000;stroke-width:0.8;" x="649.146297" xlink:href="#m8bcf7bcae4" y="308.089571"/>
      </g>
     </g>
     <g id="text_40">
      <!-- $20$ -->
      <g transform="translate(641.34231 326.159159)scale(0.16 -0.16)">
       <use transform="scale(0.996264)" xlink:href="#CMR17-50"/>
       <use transform="translate(45.690477 0)scale(0.996264)" xlink:href="#CMR17-48"/>
      </g>
     </g>
    </g>
    <g id="xtick_16">
     <g id="line2d_44">
      <g>
       <use style="stroke:#000000;stroke-width:0.8;" x="711.932052" xlink:href="#m8bcf7bcae4" y="308.089571"/>
      </g>
     </g>
     <g id="text_41">
      <!-- $30$ -->
      <g transform="translate(704.128065 326.159159)scale(0.16 -0.16)">
       <use transform="scale(0.996264)" xlink:href="#CMR17-51"/>
       <use transform="translate(45.690477 0)scale(0.996264)" xlink:href="#CMR17-48"/>
      </g>
     </g>
    </g>
    <g id="text_42">
     <!-- time -->
     <g transform="translate(664.559046 345.711936)scale(0.18 -0.18)">
      <use transform="scale(0.996264)" xlink:href="#CMR17-116"/>
      <use transform="translate(35.280768 0)scale(0.996264)" xlink:href="#CMR17-105"/>
      <use transform="translate(60.151826 0)scale(0.996264)" xlink:href="#CMR17-109"/>
      <use transform="translate(137.071416 0)scale(0.996264)" xlink:href="#CMR17-101"/>
     </g>
    </g>
   </g>
   <g id="matplotlib.axis_8">
    <g id="ytick_17">
     <g id="line2d_45">
      <g>
       <use style="stroke:#000000;stroke-width:0.8;" x="507.878349" xlink:href="#mbb424f472b" y="303.01076"/>
      </g>
     </g>
     <g id="text_43">
      <!-- $0.00$ -->
      <g transform="translate(473.13084 308.545554)scale(0.16 -0.16)">
       <use transform="scale(0.996264)" xlink:href="#CMR17-48"/>
       <use transform="translate(45.690477 0)scale(0.996264)" xlink:href="#CMMI12-58"/>
       <use transform="translate(72.787654 0)scale(0.996264)" xlink:href="#CMR17-48"/>
       <use transform="translate(118.478131 0)scale(0.996264)" xlink:href="#CMR17-48"/>
      </g>
     </g>
    </g>
    <g id="ytick_18">
     <g id="line2d_46">
      <g>
       <use style="stroke:#000000;stroke-width:0.8;" x="507.878349" xlink:href="#mbb424f472b" y="280.595567"/>
      </g>
     </g>
     <g id="text_44">
      <!-- $0.05$ -->
      <g transform="translate(473.13084 286.130361)scale(0.16 -0.16)">
       <use transform="scale(0.996264)" xlink:href="#CMR17-48"/>
       <use transform="translate(45.690477 0)scale(0.996264)" xlink:href="#CMMI12-58"/>
       <use transform="translate(72.787654 0)scale(0.996264)" xlink:href="#CMR17-48"/>
       <use transform="translate(118.478131 0)scale(0.996264)" xlink:href="#CMR17-53"/>
      </g>
     </g>
    </g>
    <g id="ytick_19">
     <g id="line2d_47">
      <g>
       <use style="stroke:#000000;stroke-width:0.8;" x="507.878349" xlink:href="#mbb424f472b" y="258.180374"/>
      </g>
     </g>
     <g id="text_45">
      <!-- $0.10$ -->
      <g transform="translate(473.13084 263.715168)scale(0.16 -0.16)">
       <use transform="scale(0.996264)" xlink:href="#CMR17-48"/>
       <use transform="translate(45.690477 0)scale(0.996264)" xlink:href="#CMMI12-58"/>
       <use transform="translate(72.787654 0)scale(0.996264)" xlink:href="#CMR17-49"/>
       <use transform="translate(118.478131 0)scale(0.996264)" xlink:href="#CMR17-48"/>
      </g>
     </g>
    </g>
    <g id="ytick_20">
     <g id="line2d_48">
      <g>
       <use style="stroke:#000000;stroke-width:0.8;" x="507.878349" xlink:href="#mbb424f472b" y="235.765181"/>
      </g>
     </g>
     <g id="text_46">
      <!-- $0.15$ -->
      <g transform="translate(473.13084 241.299975)scale(0.16 -0.16)">
       <use transform="scale(0.996264)" xlink:href="#CMR17-48"/>
       <use transform="translate(45.690477 0)scale(0.996264)" xlink:href="#CMMI12-58"/>
       <use transform="translate(72.787654 0)scale(0.996264)" xlink:href="#CMR17-49"/>
       <use transform="translate(118.478131 0)scale(0.996264)" xlink:href="#CMR17-53"/>
      </g>
     </g>
    </g>
    <g id="ytick_21">
     <g id="line2d_49">
      <g>
       <use style="stroke:#000000;stroke-width:0.8;" x="507.878349" xlink:href="#mbb424f472b" y="213.349987"/>
      </g>
     </g>
     <g id="text_47">
      <!-- $0.20$ -->
      <g transform="translate(473.13084 218.884782)scale(0.16 -0.16)">
       <use transform="scale(0.996264)" xlink:href="#CMR17-48"/>
       <use transform="translate(45.690477 0)scale(0.996264)" xlink:href="#CMMI12-58"/>
       <use transform="translate(72.787654 0)scale(0.996264)" xlink:href="#CMR17-50"/>
       <use transform="translate(118.478131 0)scale(0.996264)" xlink:href="#CMR17-48"/>
      </g>
     </g>
    </g>
    <g id="ytick_22">
     <g id="line2d_50">
      <g>
       <use style="stroke:#000000;stroke-width:0.8;" x="507.878349" xlink:href="#mbb424f472b" y="190.934794"/>
      </g>
     </g>
     <g id="text_48">
      <!-- $0.25$ -->
      <g transform="translate(473.13084 196.469588)scale(0.16 -0.16)">
       <use transform="scale(0.996264)" xlink:href="#CMR17-48"/>
       <use transform="translate(45.690477 0)scale(0.996264)" xlink:href="#CMMI12-58"/>
       <use transform="translate(72.787654 0)scale(0.996264)" xlink:href="#CMR17-50"/>
       <use transform="translate(118.478131 0)scale(0.996264)" xlink:href="#CMR17-53"/>
      </g>
     </g>
    </g>
    <g id="text_49">
     <!-- $P_{R_2}$ -->
     <g transform="translate(465.642776 262.152754)rotate(-90)scale(0.18 -0.18)">
      <use transform="translate(0 25.404611)scale(0.996264)" xlink:href="#CMMI12-80"/>
      <use transform="translate(62.877232 10.460696)scale(0.697382)" xlink:href="#CMMI12-82"/>
      <use transform="translate(114.852582 0)scale(0.498132)" xlink:href="#CMR17-50"/>
     </g>
    </g>
   </g>
   <g id="line2d_51">
    <path clip-path="url(#p9a4284237f)" d="M 523.574788 303.01076 
L 530.136555 302.642449 
L 535.002938 302.156192 
L 538.92744 301.546707 
L 542.224022 300.814698 
L 545.112456 299.948119 
L 547.686929 298.946473 
L 550.04163 297.795333 
L 552.270747 296.456721 
L 554.374281 294.933678 
L 556.415022 293.180602 
L 558.424367 291.158727 
L 560.433712 288.817191 
L 562.474453 286.09214 
L 564.577986 282.907696 
L 566.807103 279.124178 
L 569.287389 274.458779 
L 572.207218 268.463786 
L 576.634057 258.787163 
L 581.657419 247.943562 
L 584.608645 242.09992 
L 587.151722 237.541382 
L 589.506424 233.767882 
L 591.735541 230.606847 
L 593.901866 227.912254 
L 596.036795 225.602733 
L 598.20312 223.584136 
L 600.400841 221.838786 
L 602.661355 220.325244 
L 605.047452 218.99677 
L 607.590529 217.839643 
L 610.321983 216.84382 
L 613.336 215.985075 
L 616.72677 215.254711 
L 620.651272 214.643334 
L 625.329279 214.147541 
L 631.168938 213.76234 
L 638.95515 213.484758 
L 650.697261 213.309917 
L 673.710541 213.231429 
L 798.164352 213.220864 
L 837.503561 213.220864 
L 837.503561 213.220864 
" style="fill:none;stroke:#1f77b4;stroke-linecap:square;stroke-width:1.5;"/>
   </g>
   <g id="line2d_52">
    <path clip-path="url(#p9a4284237f)" d="M 523.574788 303.01076 
L 530.136555 302.642335 
L 535.002938 302.155579 
L 538.896044 301.550814 
L 542.192626 300.818853 
L 545.049664 299.961946 
L 547.624137 298.960415 
L 549.978838 297.807267 
L 552.176559 296.484323 
L 554.280092 294.955907 
L 556.289438 293.221204 
L 558.267387 291.21956 
L 560.245336 288.898195 
L 562.254681 286.190051 
L 564.326818 283.014155 
L 566.493143 279.279246 
L 568.847844 274.767059 
L 571.579298 269.029568 
L 575.252632 260.74583 
L 581.877191 245.764177 
L 584.734229 239.910459 
L 587.214514 235.325329 
L 589.475027 231.598764 
L 591.641353 228.444825 
L 593.744886 225.76555 
L 595.848419 223.443799 
L 597.951952 221.451552 
L 600.086881 219.733119 
L 602.284602 218.246196 
L 604.607908 216.943538 
L 607.088193 215.811476 
L 609.756854 214.840033 
L 612.70808 214.00513 
L 616.036058 213.298252 
L 619.897768 212.710155 
L 624.544378 212.234771 
L 630.415434 211.86857 
L 638.390022 211.609329 
L 650.760053 211.453018 
L 677.258291 211.390335 
L 837.503561 211.385089 
L 837.503561 211.385089 
" style="fill:none;stroke:#ff7f0e;stroke-linecap:square;stroke-width:1.5;"/>
   </g>
   <g id="line2d_53">
    <path clip-path="url(#p9a4284237f)" d="M 523.574788 303.01076 
L 530.136555 302.642092 
L 535.002938 302.154272 
L 538.896044 301.547018 
L 542.16123 300.818553 
L 545.018267 299.956435 
L 547.561345 298.959504 
L 549.88465 297.81219 
L 552.050975 296.495535 
L 554.091716 294.997629 
L 556.069665 293.270212 
L 558.016219 291.270432 
L 559.931376 288.981252 
L 561.877929 286.300376 
L 563.855878 283.190629 
L 565.928015 279.507993 
L 568.157132 275.075253 
L 570.637417 269.627762 
L 573.714227 262.294303 
L 583.07024 239.598086 
L 585.581921 234.309093 
L 587.842435 230.04955 
L 589.977364 226.49199 
L 592.018105 223.514406 
L 594.02745 220.970417 
L 596.036795 218.784594 
L 598.04614 216.924074 
L 600.118277 215.308257 
L 602.253206 213.923748 
L 604.51372 212.722453 
L 606.931213 211.689299 
L 609.599874 210.794397 
L 612.582496 210.034558 
L 616.004662 209.399294 
L 620.054748 208.882065 
L 625.046715 208.478276 
L 631.608482 208.182815 
L 641.247059 207.990969 
L 658.954413 207.897366 
L 729.344283 207.879827 
L 837.503561 207.879816 
L 837.503561 207.879816 
" style="fill:none;stroke:#2ca02c;stroke-linecap:square;stroke-width:1.5;"/>
   </g>
   <g id="line2d_54">
    <path clip-path="url(#p9a4284237f)" d="M 523.574788 303.01076 
L 530.105159 302.643837 
L 534.940146 302.15861 
L 538.801856 301.554236 
L 542.035646 300.827987 
L 544.829891 299.976943 
L 547.310177 298.993313 
L 549.57069 297.860199 
L 551.674223 296.556566 
L 553.652172 295.067753 
L 555.535933 293.371426 
L 557.388298 291.398169 
L 559.209267 289.124877 
L 561.030236 286.485294 
L 562.851205 283.449594 
L 564.734966 279.871541 
L 566.744311 275.559864 
L 568.910636 270.36702 
L 571.422318 263.74187 
L 574.938672 253.764069 
L 580.307391 238.565668 
L 582.91326 231.894187 
L 585.142377 226.778125 
L 587.183118 222.630349 
L 589.129671 219.163063 
L 591.013432 216.249912 
L 592.865797 213.783782 
L 594.718162 211.679113 
L 596.601923 209.870531 
L 598.548476 208.309929 
L 600.557821 206.981747 
L 602.692751 205.83596 
L 605.016056 204.845186 
L 607.559133 204.006145 
L 610.416171 203.300925 
L 613.744149 202.714841 
L 617.731443 202.246385 
L 622.786201 201.888075 
L 629.661929 201.638706 
L 640.524951 201.491852 
L 665.139428 201.437696 
L 837.503561 201.434542 
L 837.503561 201.434542 
" style="fill:none;stroke:#d62728;stroke-linecap:square;stroke-width:1.5;"/>
   </g>
   <g id="patch_19">
    <path d="M 507.878349 308.089571 
L 507.878349 190.934794 
" style="fill:none;stroke:#000000;stroke-linecap:square;stroke-linejoin:miter;stroke-width:0.8;"/>
   </g>
   <g id="patch_20">
    <path d="M 853.2 308.089571 
L 853.2 190.934794 
" style="fill:none;stroke:#000000;stroke-linecap:square;stroke-linejoin:miter;stroke-width:0.8;"/>
   </g>
   <g id="patch_21">
    <path d="M 507.878349 308.089571 
L 853.2 308.089571 
" style="fill:none;stroke:#000000;stroke-linecap:square;stroke-linejoin:miter;stroke-width:0.8;"/>
   </g>
   <g id="patch_22">
    <path d="M 507.878349 190.934794 
L 853.2 190.934794 
" style="fill:none;stroke:#000000;stroke-linecap:square;stroke-linejoin:miter;stroke-width:0.8;"/>
   </g>
   <g id="text_50">
    <!-- \textbf{(d)} -->
    <defs>
     <path d="M 34.703125 69.1875 
L 34.703125 64.890625 
C 40.90625 64.890625 41.59375 64.890625 41.59375 60.875 
L 41.59375 40.171875 
C 39.40625 42.09375 35 45 28.09375 45 
C 13.90625 45 3.796875 36.140625 3.796875 22 
C 3.796875 7.546875 13.703125 -1 27 -1 
C 32.5 -1 37.203125 0.890625 41.09375 4.21875 
L 41.09375 -1 
L 58.90625 -0.40625 
L 58.90625 3.90625 
C 52.703125 3.90625 52 3.90625 52 7.84375 
L 52 70 
z
M 41.09375 9.765625 
C 36.90625 3.609375 31.796875 2.296875 28.203125 2.296875 
C 15.796875 2.296875 15.796875 15.125 15.796875 21.796875 
C 15.796875 26.546875 15.796875 31.59375 18 35.4375 
C 21.09375 41.09375 27 41.6875 29.296875 41.6875 
C 33.40625 41.6875 37.796875 39.875 41.09375 35.4375 
z
" id="CMBX12-100"/>
    </defs>
    <g transform="translate(525.144432 220.223488)scale(0.18 -0.18)">
     <use transform="scale(0.996264)" xlink:href="#CMBX12-40"/>
     <use transform="translate(43.58655 0)scale(0.996264)" xlink:href="#CMBX12-100"/>
     <use transform="translate(105.853051 0)scale(0.996264)" xlink:href="#CMBX12-41"/>
    </g>
   </g>
  </g>
  <g id="axes_5">
   <g id="patch_23">
    <path d="M 361.796808 111.603312 
L 418.303987 111.603312 
L 418.303987 25.334794 
L 361.796808 25.334794 
z
" style="fill:#ffffff;"/>
   </g>
   <g id="patch_24">
    <path d="M 361.796808 25.334794 
L 135.350228 48.286097 
" style="fill:none;stroke:#808080;stroke-linejoin:miter;"/>
   </g>
   <g id="patch_25">
    <path d="M 361.796808 111.603312 
L 135.350228 96.213051 
" style="fill:none;stroke:#808080;stroke-linejoin:miter;"/>
   </g>
   <g id="matplotlib.axis_9">
    <g id="xtick_17">
     <g id="line2d_55">
      <g>
       <use style="stroke:#000000;stroke-width:0.8;" x="361.796808" xlink:href="#m8bcf7bcae4" y="111.603312"/>
      </g>
     </g>
     <g id="text_51">
      <!-- $6$ -->
      <defs>
       <path d="M 10.59375 34.34375 
C 10.59375 58 21.796875 63.6875 28.296875 63.6875 
C 30.40625 63.6875 35.5 63.265625 37.5 59.09375 
C 35.90625 59.09375 32.90625 59.09375 32.90625 55.59375 
C 32.90625 52.890625 35.09375 52 36.5 52 
C 37.40625 52 40.09375 52.390625 40.09375 55.796875 
C 40.09375 62.296875 35.09375 66 28.203125 66 
C 16.296875 66 3.796875 53.296875 3.796875 31.421875 
C 3.796875 4.015625 15.09375 -2 23.09375 -2 
C 32.796875 -2 42 6.734375 42 20.234375 
C 42 32.828125 33.90625 42 23.703125 42 
C 17.59375 42 13.09375 37.96875 10.59375 30.921875 
z
M 23.09375 0.390625 
C 10.796875 0.390625 10.796875 18.9375 10.796875 22.65625 
C 10.796875 29.90625 14.203125 40.390625 23.5 40.390625 
C 25.203125 40.390625 30.09375 40.390625 33.40625 33.4375 
C 35.203125 29.515625 35.203125 25.375 35.203125 20.34375 
C 35.203125 14.90625 35.203125 10.875 33.09375 6.84375 
C 30.90625 2.703125 27.703125 0.390625 23.09375 0.390625 
z
" id="CMR17-54"/>
      </defs>
      <g transform="translate(359.057074 126.213659)scale(0.11 -0.11)">
       <use transform="scale(0.996264)" xlink:href="#CMR17-54"/>
      </g>
     </g>
    </g>
    <g id="xtick_18">
     <g id="line2d_56">
      <g>
       <use style="stroke:#000000;stroke-width:0.8;" x="418.303987" xlink:href="#m8bcf7bcae4" y="111.603312"/>
      </g>
     </g>
     <g id="text_52">
      <!-- $11$ -->
      <g transform="translate(412.82452 126.213659)scale(0.11 -0.11)">
       <use transform="scale(0.996264)" xlink:href="#CMR17-49"/>
       <use transform="translate(45.690477 0)scale(0.996264)" xlink:href="#CMR17-49"/>
      </g>
     </g>
    </g>
   </g>
   <g id="matplotlib.axis_10">
    <g id="ytick_23">
     <g id="line2d_57">
      <g>
       <use style="stroke:#000000;stroke-width:0.8;" x="361.796808" xlink:href="#mbb424f472b" y="111.603312"/>
      </g>
     </g>
     <g id="text_53">
      <!-- $0.0035$ -->
      <g transform="translate(324.35533 115.408485)scale(0.11 -0.11)">
       <use transform="scale(0.996264)" xlink:href="#CMR17-48"/>
       <use transform="translate(45.690477 0)scale(0.996264)" xlink:href="#CMMI12-58"/>
       <use transform="translate(72.787654 0)scale(0.996264)" xlink:href="#CMR17-48"/>
       <use transform="translate(118.478131 0)scale(0.996264)" xlink:href="#CMR17-48"/>
       <use transform="translate(164.168608 0)scale(0.996264)" xlink:href="#CMR17-51"/>
       <use transform="translate(209.859086 0)scale(0.996264)" xlink:href="#CMR17-53"/>
      </g>
     </g>
    </g>
    <g id="ytick_24">
     <g id="line2d_58">
      <g>
       <use style="stroke:#000000;stroke-width:0.8;" x="361.796808" xlink:href="#mbb424f472b" y="25.334794"/>
      </g>
     </g>
     <g id="text_54">
      <!-- $0.0080$ -->
      <defs>
       <path d="M 27.203125 35.765625 
C 33.5 38.96875 39.90625 43.796875 39.90625 51.53125 
C 39.90625 60.6875 31.09375 66 23 66 
C 13.90625 66 5.90625 59.375 5.90625 50.234375 
C 5.90625 47.71875 6.5 43.390625 10.40625 39.578125 
C 11.40625 38.578125 15.59375 35.5625 18.296875 33.65625 
C 13.796875 31.34375 3.296875 25.8125 3.296875 14.765625 
C 3.296875 4.40625 13.09375 -2 22.796875 -2 
C 33.5 -2 42.5 5.71875 42.5 15.96875 
C 42.5 25.109375 36.40625 29.328125 32.40625 32.046875 
z
M 14.09375 44.609375 
C 13.296875 45.109375 9.296875 48.21875 9.296875 52.9375 
C 9.296875 59.078125 15.59375 63.6875 22.796875 63.6875 
C 30.703125 63.6875 36.5 58.0625 36.5 51.53125 
C 36.5 42.1875 26.09375 36.859375 25.59375 36.859375 
C 25.5 36.859375 25.40625 36.859375 24.59375 37.46875 
z
M 32.5 24 
C 34 22.90625 38.796875 19.578125 38.796875 13.453125 
C 38.796875 6.015625 31.40625 0.390625 23 0.390625 
C 13.90625 0.390625 7 6.921875 7 14.859375 
C 7 22.796875 13.09375 29.4375 20 32.546875 
z
" id="CMR17-56"/>
      </defs>
      <g transform="translate(324.35533 29.139967)scale(0.11 -0.11)">
       <use transform="scale(0.996264)" xlink:href="#CMR17-48"/>
       <use transform="translate(45.690477 0)scale(0.996264)" xlink:href="#CMMI12-58"/>
       <use transform="translate(72.787654 0)scale(0.996264)" xlink:href="#CMR17-48"/>
       <use transform="translate(118.478131 0)scale(0.996264)" xlink:href="#CMR17-48"/>
       <use transform="translate(164.168608 0)scale(0.996264)" xlink:href="#CMR17-56"/>
       <use transform="translate(209.859086 0)scale(0.996264)" xlink:href="#CMR17-48"/>
      </g>
     </g>
    </g>
   </g>
   <g id="line2d_59">
    <path clip-path="url(#p84f9d89dc2)" d="M 361.747076 115.874066 
L 370.676104 96.410688 
L 373.558258 90.760942 
L 375.931797 86.58756 
L 377.966259 83.444168 
L 379.774669 81.039783 
L 381.413542 79.211083 
L 382.939388 77.829457 
L 384.352209 76.839575 
L 385.708517 76.159369 
L 387.008312 75.760274 
L 388.251594 75.611661 
L 389.494876 75.69043 
L 390.738159 75.994004 
L 392.037954 76.546851 
L 393.394262 77.372604 
L 394.863595 78.541871 
L 396.445954 80.102414 
L 398.141339 82.095173 
L 400.062776 84.714955 
L 402.210263 88.037266 
L 404.696828 92.310047 
L 407.748521 98.015836 
L 412.269547 106.995544 
L 418.31642 119.106092 
L 418.31642 119.106092 
" style="fill:none;stroke:#1f77b4;stroke-linecap:square;stroke-width:1.5;"/>
   </g>
   <g id="line2d_60">
    <path clip-path="url(#p84f9d89dc2)" d="M 361.747076 117.31335 
L 369.319796 101.693668 
L 372.314976 96.063723 
L 374.745028 91.945524 
L 376.836002 88.813396 
L 378.757438 86.327266 
L 380.452823 84.479906 
L 382.035183 83.070502 
L 383.504516 82.047346 
L 384.917337 81.33102 
L 386.273645 80.89431 
L 387.57344 80.707788 
L 388.873235 80.747317 
L 390.17303 81.009809 
L 391.529338 81.515933 
L 392.942159 82.286911 
L 394.468005 83.386169 
L 396.106877 84.856517 
L 397.858775 86.733803 
L 399.836724 89.193597 
L 402.040725 92.301902 
L 404.640315 96.373541 
L 407.805033 101.765279 
L 412.552111 110.349222 
L 418.31642 120.864034 
L 418.31642 120.864034 
" style="fill:none;stroke:#ff7f0e;stroke-linecap:square;stroke-width:1.5;"/>
   </g>
   <g id="line2d_61">
    <path clip-path="url(#p84f9d89dc2)" d="M 361.747076 120.384124 
L 367.059283 110.755368 
L 370.167488 105.577022 
L 372.654053 101.84576 
L 374.858053 98.929017 
L 376.836002 96.674965 
L 378.644413 94.946619 
L 380.283285 93.672995 
L 381.865644 92.718203 
L 383.391491 92.058944 
L 384.860824 91.668407 
L 386.273645 91.517658 
L 387.686466 91.58358 
L 389.155799 91.875677 
L 390.681646 92.410869 
L 392.264005 93.202546 
L 393.95939 94.300509 
L 395.824313 95.781558 
L 397.858775 97.688787 
L 400.175801 100.180142 
L 402.831904 103.378338 
L 406.053136 107.624858 
L 410.461136 113.840138 
L 418.31642 125.198902 
L 418.31642 125.198902 
" style="fill:none;stroke:#2ca02c;stroke-linecap:square;stroke-width:1.5;"/>
   </g>
   <g id="line2d_62">
    <path clip-path="url(#p84f9d89dc2)" d="M 361.747076 128.938537 
L 364.516205 125.791058 
L 366.889744 123.418744 
L 368.980719 121.631075 
L 370.902155 120.269405 
L 372.710566 119.251789 
L 374.462463 118.519192 
L 376.157848 118.049666 
L 377.853233 117.812069 
L 379.548618 117.797616 
L 381.300516 118.002787 
L 383.165439 118.445624 
L 385.199901 119.161158 
L 387.516927 120.223145 
L 390.229543 121.724504 
L 393.733339 123.936527 
L 400.74093 128.699825 
L 407.070367 132.868519 
L 412.439085 136.135848 
L 418.146881 139.345181 
L 418.31642 139.436959 
L 418.31642 139.436959 
" style="fill:none;stroke:#d62728;stroke-linecap:square;stroke-width:1.5;"/>
   </g>
   <g id="patch_26">
    <path d="M 361.796808 111.603312 
L 361.796808 25.334794 
" style="fill:none;stroke:#000000;stroke-linecap:square;stroke-linejoin:miter;stroke-width:0.8;"/>
   </g>
   <g id="patch_27">
    <path d="M 418.303987 111.603312 
L 418.303987 25.334794 
" style="fill:none;stroke:#000000;stroke-linecap:square;stroke-linejoin:miter;stroke-width:0.8;"/>
   </g>
   <g id="patch_28">
    <path d="M 361.796808 111.603312 
L 418.303987 111.603312 
" style="fill:none;stroke:#000000;stroke-linecap:square;stroke-linejoin:miter;stroke-width:0.8;"/>
   </g>
   <g id="patch_29">
    <path d="M 361.796808 25.334794 
L 418.303987 25.334794 
" style="fill:none;stroke:#000000;stroke-linecap:square;stroke-linejoin:miter;stroke-width:0.8;"/>
   </g>
  </g>
  <g id="legend_1">
   <g id="patch_30">
    <path d="M 762.72 122.4 
L 842.376087 122.4 
Q 844.776087 122.4 844.776087 120 
L 844.776087 50.312778 
Q 844.776087 47.912778 842.376087 47.912778 
L 762.72 47.912778 
Q 760.32 47.912778 760.32 50.312778 
L 760.32 120 
Q 760.32 122.4 762.72 122.4 
z
" style="fill:#ffffff;opacity:0.8;stroke:#cccccc;stroke-linejoin:miter;"/>
   </g>
   <g id="line2d_63">
    <path d="M 765.12 57.909988 
L 789.12 57.909988 
" style="fill:none;stroke:#1f77b4;stroke-linecap:square;stroke-width:1.5;"/>
   </g>
   <g id="line2d_64"/>
   <g id="text_55">
    <!-- $\beta_2'$=2 -->
    <defs>
     <path d="M 56.59375 58.421875 
C 56.59375 64.546875 51.5 71 42.40625 71 
C 29.5 71 21.296875 54.84375 18.703125 44.21875 
L 2.90625 -18 
C 2.703125 -18.8125 3.296875 -19 3.796875 -19 
C 4.5 -19 5 -18.90625 5.09375 -18.40625 
L 12.09375 9.25 
C 13.09375 3.609375 18.59375 -1 24.5 -1 
C 38.796875 -1 52.296875 10.265625 52.296875 25.28125 
C 52.296875 29.109375 51.40625 32.9375 49.296875 36.15625 
C 48.09375 38.078125 46.59375 39.484375 45 40.609375 
C 52.203125 44.109375 56.59375 50.34375 56.59375 58.421875 
z
M 39.203125 40.703125 
C 37.59375 40.171875 36 40 34.09375 40 
C 32.703125 40 31.40625 39.890625 29.59375 40.4375 
C 30.59375 41.046875 32.09375 41.234375 34.203125 41.234375 
C 36 41.234375 37.796875 41.046875 39.203125 40.703125 
z
M 51.40625 59.34375 
C 51.40625 53.71875 48.703125 45.546875 42.203125 41.9375 
C 40.296875 42.546875 37.703125 43 35.5 43 
C 33.40625 43 27.40625 43.203125 27.40625 40.34375 
C 27.40625 37.671875 32.90625 37.96875 34.59375 37.96875 
C 37.203125 37.96875 39.5 38.578125 41.90625 39.28125 
C 45.09375 36.671875 46.5 33.234375 46.5 28.203125 
C 46.5 22.359375 44.90625 17.625 43 13.28125 
C 39.703125 5.828125 31.90625 1 25 1 
C 17.703125 1 13.90625 6.84375 13.90625 13.6875 
C 13.90625 14.59375 13.90625 15.90625 14.296875 17.421875 
L 20.796875 43.5 
C 24.09375 56.890625 32.5 68.953125 42.203125 68.953125 
C 49.40625 68.953125 51.40625 63.84375 51.40625 59.34375 
z
" id="CMMI12-12"/>
     <path d="M 25.296875 47.625 
C 25.796875 48.828125 26.203125 49.71875 26.203125 50.71875 
C 26.203125 53.59375 23.59375 56 20.5 56 
C 17.703125 56 15.90625 54.09375 15.203125 51.515625 
L 3.296875 8.078125 
C 3.296875 7.890625 2.90625 6.796875 2.90625 6.6875 
C 2.90625 5.59375 5.5 4.890625 6.296875 4.890625 
C 6.90625 4.890625 7 5.1875 7.59375 6.484375 
z
" id="CMSY10-48"/>
     <path d="M 64.296875 32 
C 65.796875 32 67.296875 32 67.296875 33.6875 
C 67.296875 35.5 65.59375 35.5 63.90625 35.5 
L 8 35.5 
C 6.296875 35.5 4.59375 35.5 4.59375 33.6875 
C 4.59375 32 6.09375 32 7.59375 32 
z
M 63.90625 14.484375 
C 65.59375 14.484375 67.296875 14.484375 67.296875 16.296875 
C 67.296875 18 65.796875 18 64.296875 18 
L 7.59375 18 
C 6.09375 18 4.59375 18 4.59375 16.296875 
C 4.59375 14.484375 6.296875 14.484375 8 14.484375 
z
" id="CMR17-61"/>
    </defs>
    <g transform="translate(798.72 62.109988)scale(0.12 -0.12)">
     <use transform="translate(0 24.740171)scale(0.996264)" xlink:href="#CMMI12-12"/>
     <use transform="translate(60.594016 60.89381)scale(0.697382)" xlink:href="#CMSY10-48"/>
     <use transform="translate(55.070737 0)scale(0.697382)" xlink:href="#CMR17-50"/>
     <use transform="translate(87.552051 24.740171)scale(0.996264)" xlink:href="#CMR17-61"/>
     <use transform="translate(159.266839 24.740171)scale(0.996264)" xlink:href="#CMR17-50"/>
    </g>
   </g>
   <g id="line2d_65">
    <path d="M 765.12 75.631793 
L 789.12 75.631793 
" style="fill:none;stroke:#ff7f0e;stroke-linecap:square;stroke-width:1.5;"/>
   </g>
   <g id="line2d_66"/>
   <g id="text_56">
    <!-- $\beta_2'$=6.15 -->
    <defs>
     <path d="M 16.59375 4.09375 
C 16.59375 6.59375 14.59375 8.1875 12.5 8.1875 
C 10.5 8.1875 8.40625 6.59375 8.40625 4.09375 
C 8.40625 1.59375 10.40625 0 12.5 0 
C 14.5 0 16.59375 1.59375 16.59375 4.09375 
z
" id="CMR17-46"/>
    </defs>
    <g transform="translate(798.72 79.831793)scale(0.12 -0.12)">
     <use transform="translate(0 24.740171)scale(0.996264)" xlink:href="#CMMI12-12"/>
     <use transform="translate(60.594016 60.89381)scale(0.697382)" xlink:href="#CMSY10-48"/>
     <use transform="translate(55.070737 0)scale(0.697382)" xlink:href="#CMR17-50"/>
     <use transform="translate(87.552051 24.740171)scale(0.996264)" xlink:href="#CMR17-61"/>
     <use transform="translate(159.266839 24.740171)scale(0.996264)" xlink:href="#CMR17-54"/>
     <use transform="translate(204.957316 24.740171)scale(0.996264)" xlink:href="#CMR17-46"/>
     <use transform="translate(229.828375 24.740171)scale(0.996264)" xlink:href="#CMR17-49"/>
     <use transform="translate(275.518852 24.740171)scale(0.996264)" xlink:href="#CMR17-53"/>
    </g>
   </g>
   <g id="line2d_67">
    <path d="M 765.12 93.353599 
L 789.12 93.353599 
" style="fill:none;stroke:#2ca02c;stroke-linecap:square;stroke-width:1.5;"/>
   </g>
   <g id="line2d_68"/>
   <g id="text_57">
    <!-- $\beta_2'$=15 -->
    <g transform="translate(798.72 97.553599)scale(0.12 -0.12)">
     <use transform="translate(0 24.740171)scale(0.996264)" xlink:href="#CMMI12-12"/>
     <use transform="translate(60.594016 60.89381)scale(0.697382)" xlink:href="#CMSY10-48"/>
     <use transform="translate(55.070737 0)scale(0.697382)" xlink:href="#CMR17-50"/>
     <use transform="translate(87.552051 24.740171)scale(0.996264)" xlink:href="#CMR17-61"/>
     <use transform="translate(159.266839 24.740171)scale(0.996264)" xlink:href="#CMR17-49"/>
     <use transform="translate(204.957316 24.740171)scale(0.996264)" xlink:href="#CMR17-53"/>
    </g>
   </g>
   <g id="line2d_69">
    <path d="M 765.12 111.075404 
L 789.12 111.075404 
" style="fill:none;stroke:#d62728;stroke-linecap:square;stroke-width:1.5;"/>
   </g>
   <g id="line2d_70"/>
   <g id="text_58">
    <!-- $\beta_2'$=40 -->
    <defs>
     <path d="M 33.59375 64.796875 
C 33.59375 66.890625 33.5 67 31.703125 67 
L 2 19.59375 
L 2 17 
L 27.796875 17 
L 27.796875 7.1875 
C 27.796875 3.59375 27.59375 2.59375 20.59375 2.59375 
L 18.703125 2.59375 
L 18.703125 0 
C 21.90625 0.1875 27.296875 0.1875 30.703125 0.1875 
C 34.09375 0.1875 39.5 0.1875 42.703125 0 
L 42.703125 2.59375 
L 40.796875 2.59375 
C 33.796875 2.59375 33.59375 3.59375 33.59375 7.1875 
L 33.59375 17 
L 43.796875 17 
L 43.796875 19.59375 
L 33.59375 19.59375 
z
M 28.09375 58.171875 
L 28.09375 19.59375 
L 4 19.59375 
z
" id="CMR17-52"/>
    </defs>
    <g transform="translate(798.72 115.275404)scale(0.12 -0.12)">
     <use transform="translate(0 24.740171)scale(0.996264)" xlink:href="#CMMI12-12"/>
     <use transform="translate(60.594016 60.89381)scale(0.697382)" xlink:href="#CMSY10-48"/>
     <use transform="translate(55.070737 0)scale(0.697382)" xlink:href="#CMR17-50"/>
     <use transform="translate(87.552051 24.740171)scale(0.996264)" xlink:href="#CMR17-61"/>
     <use transform="translate(159.266839 24.740171)scale(0.996264)" xlink:href="#CMR17-52"/>
     <use transform="translate(204.957316 24.740171)scale(0.996264)" xlink:href="#CMR17-48"/>
    </g>
   </g>
  </g>
 </g>
 <defs>
  <clipPath id="p46dac68c34">
   <rect height="117.154777" width="345.321651" x="81.982336" y="16.334794"/>
  </clipPath>
  <clipPath id="p8ed282a53e">
   <rect height="117.154777" width="345.321651" x="507.878349" y="16.334794"/>
  </clipPath>
  <clipPath id="pf19f8af63a">
   <rect height="117.154777" width="345.321651" x="81.982336" y="190.934794"/>
  </clipPath>
  <clipPath id="p9a4284237f">
   <rect height="117.154777" width="345.321651" x="507.878349" y="190.934794"/>
  </clipPath>
  <clipPath id="p84f9d89dc2">
   <rect height="86.268518" width="56.507179" x="361.796808" y="25.334794"/>
  </clipPath>
 </defs>
</svg>
