<?xml version="1.0" encoding="utf-8" standalone="no"?>
<!DOCTYPE svg PUBLIC "-//W3C//DTD SVG 1.1//EN"
  "http://www.w3.org/Graphics/SVG/1.1/DTD/svg11.dtd">
<!-- Created with matplotlib (https://matplotlib.org/) -->
<svg height="360pt" version="1.1" viewBox="0 0 864 360" width="864pt" xmlns="http://www.w3.org/2000/svg" xmlns:xlink="http://www.w3.org/1999/xlink">
 <defs>
  <style type="text/css">
*{stroke-linecap:butt;stroke-linejoin:round;white-space:pre;}
  </style>
 </defs>
 <g id="figure_1">
  <g id="patch_1">
   <path d="M 0 360 
L 864 360 
L 864 0 
L 0 0 
z
" style="fill:#ffffff;"/>
  </g>
  <g id="axes_1">
   <g id="patch_2">
    <path d="M 81.982336 134.072996 
L 427.303987 134.072996 
L 427.303987 16.334794 
L 81.982336 16.334794 
z
" style="fill:#ffffff;"/>
   </g>
   <g id="patch_3">
    <path clip-path="url(#pdfe1e2e230)" d="M 135.350228 96.610841 
L 166.743105 96.610841 
L 166.743105 48.445213 
L 135.350228 48.445213 
L 135.350228 96.610841 
z
" style="fill:none;stroke:#808080;stroke-linejoin:miter;"/>
   </g>
   <g id="matplotlib.axis_1">
    <g id="xtick_1">
     <g id="line2d_1">
      <defs>
       <path d="M 0 0 
L 0 3.5 
" id="m3d9acf6d00" style="stroke:#000000;stroke-width:0.8;"/>
      </defs>
      <g>
       <use style="stroke:#000000;stroke-width:0.8;" x="97.678775" xlink:href="#m3d9acf6d00" y="134.072996"/>
      </g>
     </g>
     <g id="text_1">
      <!-- $0$ -->
      <defs>
       <path d="M 42 31.84375 
C 42 37.96875 41.90625 48.421875 37.703125 56.453125 
C 34 63.484375 28.09375 66 22.90625 66 
C 18.09375 66 12 63.78125 8.203125 56.5625 
C 4.203125 49.015625 3.796875 39.671875 3.796875 31.84375 
C 3.796875 26.109375 3.90625 17.375 7 9.734375 
C 11.296875 -0.609375 19 -2 22.90625 -2 
C 27.5 -2 34.5 -0.109375 38.59375 9.4375 
C 41.59375 16.375 42 24.5 42 31.84375 
z
M 22.90625 -0.40625 
C 16.5 -0.40625 12.703125 5.125 11.296875 12.75 
C 10.203125 18.6875 10.203125 27.328125 10.203125 32.953125 
C 10.203125 40.6875 10.203125 47.109375 11.5 53.234375 
C 13.40625 61.78125 19 64.390625 22.90625 64.390625 
C 27 64.390625 32.296875 61.671875 34.203125 53.4375 
C 35.5 47.71875 35.59375 40.984375 35.59375 32.953125 
C 35.59375 26.421875 35.59375 18.375 34.40625 12.453125 
C 32.296875 1.5 26.40625 -0.40625 22.90625 -0.40625 
z
" id="CMR17-48"/>
      </defs>
      <g transform="translate(93.776781 152.142585)scale(0.16 -0.16)">
       <use transform="scale(0.996264)" xlink:href="#CMR17-48"/>
      </g>
     </g>
    </g>
    <g id="xtick_2">
     <g id="line2d_2">
      <g>
       <use style="stroke:#000000;stroke-width:0.8;" x="160.46453" xlink:href="#m3d9acf6d00" y="134.072996"/>
      </g>
     </g>
     <g id="text_2">
      <!-- $10$ -->
      <defs>
       <path d="M 26.59375 63.796875 
C 26.59375 65.890625 26.5 66 25.09375 66 
C 21.203125 61.359375 15.296875 59.890625 9.703125 59.6875 
C 9.40625 59.6875 8.90625 59.6875 8.796875 59.5 
C 8.703125 59.296875 8.703125 59.09375 8.703125 57 
C 11.796875 57 17 57.59375 21 59.984375 
L 21 7.296875 
C 21 3.796875 20.796875 2.59375 12.203125 2.59375 
L 9.203125 2.59375 
L 9.203125 0 
C 14 0.09375 19 0.1875 23.796875 0.1875 
C 28.59375 0.1875 33.59375 0.09375 38.40625 0 
L 38.40625 2.59375 
L 35.40625 2.59375 
C 26.796875 2.59375 26.59375 3.6875 26.59375 7.296875 
z
" id="CMR17-49"/>
      </defs>
      <g transform="translate(152.660543 152.142585)scale(0.16 -0.16)">
       <use transform="scale(0.996264)" xlink:href="#CMR17-49"/>
       <use transform="translate(45.690477 0)scale(0.996264)" xlink:href="#CMR17-48"/>
      </g>
     </g>
    </g>
    <g id="xtick_3">
     <g id="line2d_3">
      <g>
       <use style="stroke:#000000;stroke-width:0.8;" x="223.250284" xlink:href="#m3d9acf6d00" y="134.072996"/>
      </g>
     </g>
     <g id="text_3">
      <!-- $20$ -->
      <defs>
       <path d="M 41.703125 15.46875 
L 39.90625 15.46875 
C 38.90625 8.390625 38.09375 7.1875 37.703125 6.59375 
C 37.203125 5.796875 30 5.796875 28.59375 5.796875 
L 9.40625 5.796875 
C 13 9.6875 20 16.765625 28.5 24.9375 
C 34.59375 30.71875 41.703125 37.5 41.703125 47.390625 
C 41.703125 59.1875 32.296875 66 21.796875 66 
C 10.796875 66 4.09375 56.296875 4.09375 47.296875 
C 4.09375 43.390625 7 42.890625 8.203125 42.890625 
C 9.203125 42.890625 12.203125 43.484375 12.203125 46.984375 
C 12.203125 50.09375 9.59375 51 8.203125 51 
C 7.59375 51 7 50.890625 6.59375 50.6875 
C 8.5 59.1875 14.296875 63.390625 20.40625 63.390625 
C 29.09375 63.390625 34.796875 56.5 34.796875 47.390625 
C 34.796875 38.703125 29.703125 31.21875 24 24.734375 
L 4.09375 2.296875 
L 4.09375 0 
L 39.296875 0 
z
" id="CMR17-50"/>
      </defs>
      <g transform="translate(215.446297 152.142585)scale(0.16 -0.16)">
       <use transform="scale(0.996264)" xlink:href="#CMR17-50"/>
       <use transform="translate(45.690477 0)scale(0.996264)" xlink:href="#CMR17-48"/>
      </g>
     </g>
    </g>
    <g id="xtick_4">
     <g id="line2d_4">
      <g>
       <use style="stroke:#000000;stroke-width:0.8;" x="286.036039" xlink:href="#m3d9acf6d00" y="134.072996"/>
      </g>
     </g>
     <g id="text_4">
      <!-- $30$ -->
      <defs>
       <path d="M 22.09375 34 
C 31 34 34.90625 26.140625 34.90625 17.09375 
C 34.90625 5.03125 28.5 0.390625 22.703125 0.390625 
C 17.40625 0.390625 8.796875 3.015625 6.09375 10.796875 
C 6.59375 10.59375 7.09375 10.59375 7.59375 10.59375 
C 10 10.59375 11.796875 12.1875 11.796875 14.796875 
C 11.796875 17.6875 9.59375 19 7.59375 19 
C 5.90625 19 3.296875 18.1875 3.296875 14.484375 
C 3.296875 5.234375 12.296875 -2 22.90625 -2 
C 34 -2 42.5 6.75 42.5 16.984375 
C 42.5 26.84375 34.5 34 25 35.09375 
C 32.59375 36.671875 39.90625 43.375 39.90625 52.390625 
C 39.90625 60.25 32 66 23 66 
C 13.90625 66 5.90625 60.34375 5.90625 52.296875 
C 5.90625 48.796875 8.5 48.1875 9.796875 48.1875 
C 11.90625 48.1875 13.703125 49.484375 13.703125 52.09375 
C 13.703125 54.6875 11.90625 56 9.796875 56 
C 9.40625 56 8.90625 56 8.5 55.796875 
C 11.40625 62.484375 19.296875 63.6875 22.796875 63.6875 
C 26.296875 63.6875 32.90625 61.96875 32.90625 52.296875 
C 32.90625 49.484375 32.5 44.546875 29.09375 40.21875 
C 26.09375 36.390625 22.703125 36.1875 19.40625 35.890625 
C 18.90625 35.890625 16.59375 35.6875 16.203125 35.6875 
C 15.5 35.59375 15.09375 35.5 15.09375 34.796875 
C 15.09375 34.09375 15.203125 34 17.203125 34 
z
" id="CMR17-51"/>
      </defs>
      <g transform="translate(278.232052 152.142585)scale(0.16 -0.16)">
       <use transform="scale(0.996264)" xlink:href="#CMR17-51"/>
       <use transform="translate(45.690477 0)scale(0.996264)" xlink:href="#CMR17-48"/>
      </g>
     </g>
    </g>
    <g id="text_5">
     <!-- time -->
     <defs>
      <path d="M 15.09375 40.390625 
L 29.09375 40.390625 
L 29.09375 43 
L 15.09375 43 
L 15.09375 62 
L 13.296875 62 
C 13.09375 51.4375 9.59375 42.1875 1.09375 41.984375 
L 1.09375 40.390625 
L 9.796875 40.390625 
L 9.796875 12.15625 
C 9.796875 10.234375 9.796875 -1 21.40625 -1 
C 27.296875 -1 30.703125 4.8125 30.703125 12.25 
L 30.703125 17.984375 
L 28.90625 17.984375 
L 28.90625 12.34375 
C 28.90625 5.421875 26.203125 0.796875 22 0.796875 
C 19.09375 0.796875 15.09375 2.796875 15.09375 11.953125 
z
" id="CMR17-116"/>
      <path d="M 15.5 61.890625 
C 15.5 64.09375 13.703125 66 11.40625 66 
C 9.203125 66 7.296875 64.1875 7.296875 61.890625 
C 7.296875 59.6875 9.09375 57.796875 11.40625 57.796875 
C 13.59375 57.796875 15.5 59.59375 15.5 61.890625 
z
M 3.796875 42.890625 
L 3.796875 40.296875 
C 9.40625 40.296875 10.203125 39.6875 10.203125 34.859375 
L 10.203125 6.921875 
C 10.203125 3.09375 9.796875 2.59375 3.40625 2.59375 
L 3.40625 0 
C 5.796875 0.1875 10.09375 0.1875 12.59375 0.1875 
C 15 0.1875 19.09375 0.1875 21.40625 0 
L 21.40625 2.59375 
C 15.5 2.59375 15.296875 3.203125 15.296875 6.8125 
L 15.296875 44 
z
" id="CMR17-105"/>
      <path d="M 67.59375 30.53125 
C 67.59375 35.5625 66.703125 44 54.796875 44 
C 48 44 43.296875 39.375 41.5 33.953125 
L 41.40625 33.953125 
C 40.203125 42.1875 34.296875 44 28.703125 44 
C 20.796875 44 16.703125 37.875 15.203125 33.84375 
L 15.09375 33.84375 
L 15.09375 44 
L 3.296875 42.890625 
L 3.296875 40.28125 
C 9.203125 40.28125 10.09375 39.6875 10.09375 34.859375 
L 10.09375 6.921875 
C 10.09375 3.09375 9.703125 2.59375 3.296875 2.59375 
L 3.296875 0 
C 5.703125 0.1875 10.09375 0.1875 12.703125 0.1875 
C 15.296875 0.1875 19.796875 0.1875 22.203125 0 
L 22.203125 2.59375 
C 15.796875 2.59375 15.40625 3 15.40625 6.921875 
L 15.40625 26.21875 
C 15.40625 35.453125 21 42.390625 28 42.390625 
C 35.40625 42.390625 36.203125 35.765625 36.203125 30.9375 
L 36.203125 6.921875 
C 36.203125 3.09375 35.796875 2.59375 29.40625 2.59375 
L 29.40625 0 
C 31.796875 0.1875 36.203125 0.1875 38.796875 0.1875 
C 41.40625 0.1875 45.90625 0.1875 48.296875 0 
L 48.296875 2.59375 
C 41.90625 2.59375 41.5 3 41.5 6.921875 
L 41.5 26.21875 
C 41.5 35.453125 47.09375 42.390625 54.09375 42.390625 
C 61.5 42.390625 62.296875 35.765625 62.296875 30.9375 
L 62.296875 6.921875 
C 62.296875 3.09375 61.90625 2.59375 55.5 2.59375 
L 55.5 0 
C 57.90625 0.1875 62.296875 0.1875 64.90625 0.1875 
C 67.5 0.1875 72 0.1875 74.40625 0 
L 74.40625 2.59375 
C 68 2.59375 67.59375 3 67.59375 6.921875 
z
" id="CMR17-109"/>
      <path d="M 38.09375 23.484375 
C 38.5 23.890625 38.5 24.09375 38.5 25.09375 
C 38.5 35.171875 33.09375 44 21.703125 44 
C 11.09375 44 2.703125 33.984375 2.703125 21.78125 
C 2.703125 8.65625 12.203125 -1 22.796875 -1 
C 34 -1 38.40625 9.671875 38.40625 11.796875 
C 38.40625 12.5 37.796875 12.5 37.59375 12.5 
C 36.90625 12.5 36.796875 12.296875 36.40625 11.078125 
C 34.203125 4.21875 28.703125 0.796875 23.5 0.796875 
C 19.203125 0.796875 14.90625 3.21875 12.203125 7.65625 
C 9.09375 12.796875 9.09375 18.75 9.09375 23.484375 
z
M 9.203125 25 
C 9.90625 39.234375 17.59375 42.390625 21.59375 42.390625 
C 28.40625 42.390625 33 36.0625 33.09375 25 
z
" id="CMR17-101"/>
     </defs>
     <g transform="translate(238.663033 171.695361)scale(0.18 -0.18)">
      <use transform="scale(0.996264)" xlink:href="#CMR17-116"/>
      <use transform="translate(35.280768 0)scale(0.996264)" xlink:href="#CMR17-105"/>
      <use transform="translate(60.151826 0)scale(0.996264)" xlink:href="#CMR17-109"/>
      <use transform="translate(137.071416 0)scale(0.996264)" xlink:href="#CMR17-101"/>
     </g>
    </g>
   </g>
   <g id="matplotlib.axis_2">
    <g id="ytick_1">
     <g id="line2d_5">
      <defs>
       <path d="M 0 0 
L -3.5 0 
" id="m2ee61b7ca1" style="stroke:#000000;stroke-width:0.8;"/>
      </defs>
      <g>
       <use style="stroke:#000000;stroke-width:0.8;" x="81.982336" xlink:href="#m2ee61b7ca1" y="134.072996"/>
      </g>
     </g>
     <g id="text_6">
      <!-- $0.0000$ -->
      <defs>
       <path d="M 18.40625 4.796875 
C 18.40625 7.6875 16 9.6875 13.59375 9.6875 
C 10.703125 9.6875 8.703125 7.296875 8.703125 4.890625 
C 8.703125 2 11.09375 0 13.5 0 
C 16.40625 0 18.40625 2.390625 18.40625 4.796875 
z
" id="CMMI12-58"/>
      </defs>
      <g transform="translate(31.626853 139.60779)scale(0.16 -0.16)">
       <use transform="scale(0.996264)" xlink:href="#CMR17-48"/>
       <use transform="translate(45.690477 0)scale(0.996264)" xlink:href="#CMMI12-58"/>
       <use transform="translate(72.787654 0)scale(0.996264)" xlink:href="#CMR17-48"/>
       <use transform="translate(118.478131 0)scale(0.996264)" xlink:href="#CMR17-48"/>
       <use transform="translate(164.168608 0)scale(0.996264)" xlink:href="#CMR17-48"/>
       <use transform="translate(209.859086 0)scale(0.996264)" xlink:href="#CMR17-48"/>
      </g>
     </g>
    </g>
    <g id="ytick_2">
     <g id="line2d_6">
      <g>
       <use style="stroke:#000000;stroke-width:0.8;" x="81.982336" xlink:href="#m2ee61b7ca1" y="107.314314"/>
      </g>
     </g>
     <g id="text_7">
      <!-- $0.0025$ -->
      <defs>
       <path d="M 11.40625 58.59375 
C 12.40625 58.1875 16.5 56.890625 20.703125 56.890625 
C 30 56.890625 35.09375 61.890625 38 64.6875 
C 38 65.484375 38 66 37.40625 66 
C 37.296875 66 37.09375 66 36.296875 65.59375 
C 32.796875 64.09375 28.703125 63 23.703125 63 
C 20.703125 63 16.203125 63.359375 11.296875 65.484375 
C 10.203125 66 10 66 9.90625 66 
C 9.40625 66 9.296875 65.890625 9.296875 63.90625 
L 9.296875 34.859375 
C 9.296875 33.015625 9.296875 32.5 10.296875 32.5 
C 10.796875 32.5 11 32.703125 11.5 33.421875 
C 14.703125 38.046875 19.09375 40 24.09375 40 
C 27.59375 40 35.09375 37.734375 35.09375 20.203125 
C 35.09375 16.984375 35.09375 11.1875 32.09375 6.59375 
C 29.59375 2.484375 25.703125 0.390625 21.40625 0.390625 
C 14.796875 0.390625 8.09375 4.984375 6.296875 12.6875 
C 6.703125 12.59375 7.5 12.390625 7.90625 12.390625 
C 9.203125 12.390625 11.703125 13.09375 11.703125 16.1875 
C 11.703125 18.890625 9.796875 20 7.90625 20 
C 5.59375 20 4.09375 18.59375 4.09375 15.796875 
C 4.09375 7.09375 11 -2 21.59375 -2 
C 31.90625 -2 41.703125 6.890625 41.703125 19.796875 
C 41.703125 32.09375 33.90625 41.59375 24.203125 41.59375 
C 19.09375 41.59375 14.796875 39.6875 11.40625 36 
z
" id="CMR17-53"/>
      </defs>
      <g transform="translate(31.626853 112.849108)scale(0.16 -0.16)">
       <use transform="scale(0.996264)" xlink:href="#CMR17-48"/>
       <use transform="translate(45.690477 0)scale(0.996264)" xlink:href="#CMMI12-58"/>
       <use transform="translate(72.787654 0)scale(0.996264)" xlink:href="#CMR17-48"/>
       <use transform="translate(118.478131 0)scale(0.996264)" xlink:href="#CMR17-48"/>
       <use transform="translate(164.168608 0)scale(0.996264)" xlink:href="#CMR17-50"/>
       <use transform="translate(209.859086 0)scale(0.996264)" xlink:href="#CMR17-53"/>
      </g>
     </g>
    </g>
    <g id="ytick_3">
     <g id="line2d_7">
      <g>
       <use style="stroke:#000000;stroke-width:0.8;" x="81.982336" xlink:href="#m2ee61b7ca1" y="80.555632"/>
      </g>
     </g>
     <g id="text_8">
      <!-- $0.0050$ -->
      <g transform="translate(31.626853 86.090426)scale(0.16 -0.16)">
       <use transform="scale(0.996264)" xlink:href="#CMR17-48"/>
       <use transform="translate(45.690477 0)scale(0.996264)" xlink:href="#CMMI12-58"/>
       <use transform="translate(72.787654 0)scale(0.996264)" xlink:href="#CMR17-48"/>
       <use transform="translate(118.478131 0)scale(0.996264)" xlink:href="#CMR17-48"/>
       <use transform="translate(164.168608 0)scale(0.996264)" xlink:href="#CMR17-53"/>
       <use transform="translate(209.859086 0)scale(0.996264)" xlink:href="#CMR17-48"/>
      </g>
     </g>
    </g>
    <g id="ytick_4">
     <g id="line2d_8">
      <g>
       <use style="stroke:#000000;stroke-width:0.8;" x="81.982336" xlink:href="#m2ee61b7ca1" y="53.796949"/>
      </g>
     </g>
     <g id="text_9">
      <!-- $0.0075$ -->
      <defs>
       <path d="M 45.09375 61.796875 
L 45.09375 64 
L 21.59375 64 
C 9.90625 64 9.703125 65.09375 9.296875 67 
L 7.5 67 
L 4.59375 48.5 
L 6.40625 48.5 
C 6.703125 50.40625 7.40625 55.5 8.59375 57.390625 
C 9.203125 58.1875 16.59375 58.1875 18.296875 58.1875 
L 40.296875 58.1875 
L 29.203125 41.71875 
C 21.796875 30.640625 16.703125 15.671875 16.703125 2.59375 
C 16.703125 1.390625 16.703125 -2 20.296875 -2 
C 23.90625 -2 23.90625 1.390625 23.90625 2.6875 
L 23.90625 7.28125 
C 23.90625 23.65625 26.703125 34.4375 31.296875 41.3125 
z
" id="CMR17-55"/>
      </defs>
      <g transform="translate(31.626853 59.331744)scale(0.16 -0.16)">
       <use transform="scale(0.996264)" xlink:href="#CMR17-48"/>
       <use transform="translate(45.690477 0)scale(0.996264)" xlink:href="#CMMI12-58"/>
       <use transform="translate(72.787654 0)scale(0.996264)" xlink:href="#CMR17-48"/>
       <use transform="translate(118.478131 0)scale(0.996264)" xlink:href="#CMR17-48"/>
       <use transform="translate(164.168608 0)scale(0.996264)" xlink:href="#CMR17-55"/>
       <use transform="translate(209.859086 0)scale(0.996264)" xlink:href="#CMR17-53"/>
      </g>
     </g>
    </g>
    <g id="ytick_5">
     <g id="line2d_9">
      <g>
       <use style="stroke:#000000;stroke-width:0.8;" x="81.982336" xlink:href="#m2ee61b7ca1" y="27.038267"/>
      </g>
     </g>
     <g id="text_10">
      <!-- $0.0100$ -->
      <g transform="translate(31.626853 32.573061)scale(0.16 -0.16)">
       <use transform="scale(0.996264)" xlink:href="#CMR17-48"/>
       <use transform="translate(45.690477 0)scale(0.996264)" xlink:href="#CMMI12-58"/>
       <use transform="translate(72.787654 0)scale(0.996264)" xlink:href="#CMR17-48"/>
       <use transform="translate(118.478131 0)scale(0.996264)" xlink:href="#CMR17-49"/>
       <use transform="translate(164.168608 0)scale(0.996264)" xlink:href="#CMR17-48"/>
       <use transform="translate(209.859086 0)scale(0.996264)" xlink:href="#CMR17-48"/>
      </g>
     </g>
    </g>
    <g id="text_11">
     <!-- $P_{I_1}$ -->
     <defs>
      <path d="M 29.59375 31.59375 
L 46.40625 31.59375 
C 60.203125 31.59375 74 41.765625 74 53.125 
C 74 60.90625 67.40625 68 54.796875 68 
L 23.90625 68 
C 22 68 21.09375 68 21.09375 66.09375 
C 21.09375 65.09375 22 65.09375 23.5 65.09375 
C 29.59375 65.09375 29.59375 64.296875 29.59375 63.203125 
C 29.59375 63 29.59375 62.40625 29.203125 60.90625 
L 15.703125 7.359375 
C 14.796875 3.890625 14.59375 2.890625 7.59375 2.890625 
C 5.703125 2.890625 4.703125 2.890625 4.703125 1.09375 
C 4.703125 0 5.59375 0 6.203125 0 
C 8.09375 0 10.09375 0.1875 12 0.1875 
L 23.703125 0.1875 
C 25.59375 0.1875 27.703125 0 29.59375 0 
C 30.40625 0 31.5 0 31.5 1.890625 
C 31.5 2.890625 30.59375 2.890625 29.09375 2.890625 
C 23.09375 2.890625 23 3.59375 23 4.578125 
C 23 5.078125 23.09375 5.765625 23.203125 6.265625 
z
M 36.796875 61.203125 
C 37.703125 64.890625 38.09375 65.09375 42 65.09375 
L 51.90625 65.09375 
C 59.40625 65.09375 65.59375 62.703125 65.59375 55.21875 
C 65.59375 52.640625 64.296875 44.15625 59.703125 39.578125 
C 58 37.78125 53.203125 34 44.09375 34 
L 30 34 
z
" id="CMMI12-80"/>
      <path d="M 36.796875 60.609375 
C 37.703125 64.09375 37.90625 65.09375 45.203125 65.09375 
C 47.40625 65.09375 48.203125 65.09375 48.203125 66.984375 
C 48.203125 68 47.09375 68 46.796875 68 
C 45 68 42.796875 67.796875 41 67.796875 
L 28.703125 67.796875 
C 26.703125 67.796875 24.40625 68 22.40625 68 
C 21.59375 68 20.5 68 20.5 66.09375 
C 20.5 65.09375 21.296875 65.09375 23.296875 65.09375 
C 29.5 65.09375 29.5 64.296875 29.5 63.203125 
C 29.5 62.5 29.296875 61.90625 29.09375 61.015625 
L 15.59375 7.375 
C 14.703125 3.890625 14.5 2.890625 7.203125 2.890625 
C 5 2.890625 4.09375 2.890625 4.09375 1 
C 4.09375 0 5.09375 0 5.59375 0 
C 7.40625 0 9.59375 0.1875 11.40625 0.1875 
L 23.703125 0.1875 
C 25.703125 0.1875 27.90625 0 29.90625 0 
C 30.703125 0 31.90625 0 31.90625 1.796875 
C 31.90625 2.890625 31.296875 2.890625 29.09375 2.890625 
C 22.90625 2.890625 22.90625 3.6875 22.90625 4.875 
C 22.90625 5.078125 22.90625 5.578125 23.296875 7.171875 
z
" id="CMMI12-73"/>
     </defs>
     <g transform="translate(24.138789 85.877196)rotate(-90)scale(0.18 -0.18)">
      <use transform="translate(0 25.404611)scale(0.996264)" xlink:href="#CMMI12-80"/>
      <use transform="translate(62.877232 10.460696)scale(0.697382)" xlink:href="#CMMI12-73"/>
      <use transform="translate(92.994015 0)scale(0.498132)" xlink:href="#CMR17-49"/>
     </g>
    </g>
   </g>
   <g id="line2d_10">
    <path clip-path="url(#pdfe1e2e230)" d="M 97.678775 133.002649 
L 101.823049 132.431407 
L 105.245215 131.740484 
L 108.196441 130.921315 
L 110.80231 129.970182 
L 113.157011 128.877172 
L 115.354732 127.610772 
L 117.395474 126.179624 
L 119.373423 124.517455 
L 121.28858 122.611623 
L 123.172341 120.416474 
L 125.056102 117.870741 
L 126.971259 114.896017 
L 128.949208 111.397806 
L 131.052741 107.206289 
L 133.376046 102.06208 
L 136.358668 94.874393 
L 141.539011 82.335143 
L 143.422772 78.399392 
L 144.961176 75.6785 
L 146.248413 73.829756 
L 147.37867 72.574607 
L 148.383342 71.772784 
L 149.293827 71.314075 
L 150.141519 71.121901 
L 150.989212 71.158019 
L 151.836904 71.420798 
L 152.715993 71.927491 
L 153.689269 72.755845 
L 154.756734 73.968042 
L 155.981178 75.71458 
L 157.393999 78.140183 
L 159.089384 81.516522 
L 161.349897 86.557276 
L 169.76403 105.807319 
L 172.087335 110.314307 
L 174.222264 113.987325 
L 176.294401 117.117268 
L 178.303746 119.758488 
L 180.313092 122.03882 
L 182.353833 124.019491 
L 184.42597 125.723221 
L 186.592295 127.215441 
L 188.852808 128.502729 
L 191.270301 129.623278 
L 193.907567 130.597627 
L 196.827396 131.434866 
L 200.123978 132.144093 
L 203.954292 132.73487 
L 208.569507 133.213309 
L 214.37777 133.581276 
L 222.25817 133.842989 
L 234.439825 134.002065 
L 260.153163 134.067087 
L 411.607548 134.072996 
L 411.607548 134.072996 
" style="fill:none;stroke:#1f77b4;stroke-linecap:square;stroke-width:1.5;"/>
   </g>
   <g id="line2d_11">
    <path clip-path="url(#pdfe1e2e230)" d="M 97.678775 133.002649 
L 101.823049 132.431407 
L 105.245215 131.740484 
L 108.196441 130.921315 
L 110.80231 129.970182 
L 113.157011 128.877172 
L 115.354732 127.610772 
L 117.395474 126.179624 
L 119.373423 124.517455 
L 121.28858 122.611623 
L 123.172341 120.416474 
L 125.056102 117.870741 
L 126.971259 114.896017 
L 128.949208 111.397806 
L 131.052741 107.20629 
L 133.376046 102.062081 
L 136.358668 94.874393 
L 141.539011 82.335143 
L 143.422772 78.399392 
L 144.961176 75.6785 
L 146.248413 73.829755 
L 147.37867 72.574607 
L 148.383342 71.772784 
L 149.293827 71.314075 
L 150.141519 71.121901 
L 150.989212 71.158018 
L 151.836904 71.420797 
L 152.715993 71.927491 
L 153.689269 72.755844 
L 154.756734 73.968041 
L 155.981178 75.714579 
L 157.393999 78.140182 
L 159.089384 81.51652 
L 161.349897 86.557275 
L 169.76403 105.807319 
L 172.087335 110.314306 
L 174.222264 113.987325 
L 176.294401 117.117267 
L 178.303746 119.758487 
L 180.313092 122.03882 
L 182.353833 124.019491 
L 184.42597 125.723221 
L 186.592295 127.215441 
L 188.852808 128.502729 
L 191.270301 129.623278 
L 193.907567 130.597627 
L 196.827396 131.434866 
L 200.123978 132.144093 
L 203.954292 132.73487 
L 208.569507 133.213309 
L 214.37777 133.581276 
L 222.25817 133.842989 
L 234.439825 134.002065 
L 260.153163 134.067087 
L 411.607548 134.072996 
L 411.607548 134.072996 
" style="fill:none;stroke:#ff7f0e;stroke-linecap:square;stroke-width:1.5;"/>
   </g>
   <g id="line2d_12">
    <path clip-path="url(#pdfe1e2e230)" d="M 97.678775 133.002649 
L 101.823049 132.431407 
L 105.245215 131.740484 
L 108.196441 130.921315 
L 110.80231 129.970182 
L 113.157011 128.877172 
L 115.354732 127.610772 
L 117.395474 126.179624 
L 119.373423 124.517455 
L 121.28858 122.611623 
L 123.172341 120.416474 
L 125.056102 117.870741 
L 126.971259 114.896017 
L 128.949208 111.397806 
L 131.052741 107.206289 
L 133.376046 102.06208 
L 136.358668 94.874393 
L 141.539011 82.335144 
L 143.422772 78.399393 
L 144.961176 75.678501 
L 146.248413 73.829756 
L 147.37867 72.574608 
L 148.383342 71.772785 
L 149.293827 71.314076 
L 150.141519 71.121902 
L 150.989212 71.158019 
L 151.836904 71.420798 
L 152.715993 71.927492 
L 153.689269 72.755845 
L 154.756734 73.968042 
L 155.981178 75.71458 
L 157.393999 78.140182 
L 159.089384 81.516521 
L 161.349897 86.557275 
L 169.76403 105.807319 
L 172.087335 110.314306 
L 174.222264 113.987325 
L 176.294401 117.117267 
L 178.303746 119.758487 
L 180.313092 122.03882 
L 182.353833 124.01949 
L 184.42597 125.723221 
L 186.592295 127.21544 
L 188.852808 128.502729 
L 191.270301 129.623278 
L 193.907567 130.597627 
L 196.827396 131.434866 
L 200.123978 132.144093 
L 203.954292 132.73487 
L 208.569507 133.213309 
L 214.37777 133.581276 
L 222.25817 133.842989 
L 234.439825 134.002065 
L 260.153163 134.067087 
L 411.607548 134.072996 
L 411.607548 134.072996 
" style="fill:none;stroke:#2ca02c;stroke-linecap:square;stroke-width:1.5;"/>
   </g>
   <g id="line2d_13">
    <path clip-path="url(#pdfe1e2e230)" d="M 97.678775 133.002649 
L 101.823049 132.431407 
L 105.245215 131.740484 
L 108.196441 130.921315 
L 110.80231 129.970182 
L 113.157011 128.877172 
L 115.354732 127.610772 
L 117.395474 126.179624 
L 119.373423 124.517455 
L 121.28858 122.611623 
L 123.172341 120.416474 
L 125.056102 117.870741 
L 126.971259 114.896017 
L 128.949208 111.397806 
L 131.052741 107.206289 
L 133.376046 102.06208 
L 136.358668 94.874393 
L 141.539011 82.335143 
L 143.422772 78.399393 
L 144.961176 75.678501 
L 146.248413 73.829756 
L 147.37867 72.574608 
L 148.383342 71.772785 
L 149.293827 71.314076 
L 150.141519 71.121902 
L 150.989212 71.158019 
L 151.836904 71.420798 
L 152.715993 71.927492 
L 153.689269 72.755845 
L 154.756734 73.968042 
L 155.981178 75.71458 
L 157.393999 78.140182 
L 159.089384 81.51652 
L 161.349897 86.557274 
L 169.76403 105.807318 
L 172.087335 110.314306 
L 174.222264 113.987325 
L 176.294401 117.117267 
L 178.303746 119.758487 
L 180.313092 122.03882 
L 182.353833 124.019491 
L 184.42597 125.723221 
L 186.592295 127.21544 
L 188.852808 128.502729 
L 191.270301 129.623278 
L 193.907567 130.597627 
L 196.827396 131.434866 
L 200.123978 132.144093 
L 203.954292 132.73487 
L 208.569507 133.213309 
L 214.37777 133.581276 
L 222.25817 133.842989 
L 234.439825 134.002065 
L 260.153163 134.067087 
L 411.607548 134.072996 
L 411.607548 134.072996 
" style="fill:none;stroke:#d62728;stroke-linecap:square;stroke-width:1.5;"/>
   </g>
   <g id="patch_4">
    <path d="M 81.982336 134.072996 
L 81.982336 16.334794 
" style="fill:none;stroke:#000000;stroke-linecap:square;stroke-linejoin:miter;stroke-width:0.8;"/>
   </g>
   <g id="patch_5">
    <path d="M 427.303987 134.072996 
L 427.303987 16.334794 
" style="fill:none;stroke:#000000;stroke-linecap:square;stroke-linejoin:miter;stroke-width:0.8;"/>
   </g>
   <g id="patch_6">
    <path d="M 81.982336 134.072996 
L 427.303987 134.072996 
" style="fill:none;stroke:#000000;stroke-linecap:square;stroke-linejoin:miter;stroke-width:0.8;"/>
   </g>
   <g id="patch_7">
    <path d="M 81.982336 16.334794 
L 427.303987 16.334794 
" style="fill:none;stroke:#000000;stroke-linecap:square;stroke-linejoin:miter;stroke-width:0.8;"/>
   </g>
   <g id="text_12">
    <!-- \textbf{(a)} -->
    <defs>
     <path d="M 37.40625 -23.90625 
C 37.40625 -23.515625 37.40625 -23.3125 35.5 -21.5 
C 24.296875 -10.3125 20 7.296875 20 24.890625 
C 20 44.59375 24.90625 60.796875 36.09375 72.09375 
C 37.296875 73.296875 37.40625 73.390625 37.40625 73.796875 
C 37.40625 75 36.203125 75 35.703125 75 
C 34.796875 75 34.59375 75 32 72.890625 
C 17.59375 61.390625 10.796875 43 10.796875 25 
C 10.796875 6.59375 17.703125 -11.3125 31.90625 -22.90625 
C 34.5 -25.109375 34.703125 -25.109375 35.703125 -25.109375 
C 36.203125 -25.109375 37.40625 -25.109375 37.40625 -23.90625 
z
" id="CMBX12-40"/>
     <path d="M 46 29.59375 
C 46 38.796875 38.703125 45 24.59375 45 
C 19 45 7.203125 44.484375 7.203125 36.09375 
C 7.203125 31.890625 10.40625 30.09375 13.09375 30.09375 
C 16.09375 30.09375 19 32.1875 19 35.984375 
C 19 37.890625 18.296875 39.6875 16.59375 40.796875 
C 19.90625 41.6875 22.296875 41.6875 24.203125 41.6875 
C 31 41.6875 35.09375 37.890625 35.09375 29.6875 
L 35.09375 25.6875 
C 19.296875 25.6875 3.40625 21.28125 3.40625 10.125 
C 3.40625 1 15 -1 21.90625 -1 
C 29.59375 -1 34.5 3.203125 36.5 7.625 
C 36.5 3.90625 36.5 -0.40625 46.59375 -0.40625 
L 51.703125 -0.40625 
C 53.796875 -0.40625 54.59375 -0.40625 54.59375 1.796875 
C 54.59375 3.90625 53.703125 3.90625 52.296875 3.90625 
C 46 4 46 5.609375 46 7.921875 
z
M 35.09375 13.546875 
C 35.09375 4.09375 26.703125 2.296875 23.5 2.296875 
C 18.59375 2.296875 14.5 5.609375 14.5 10.234375 
C 14.5 19.375 25.296875 22.484375 35.09375 23 
z
" id="CMBX12-97"/>
     <path d="M 32.796875 24.890625 
C 32.796875 43.296875 25.90625 61.203125 11.703125 72.796875 
C 9.09375 75 8.90625 75 7.90625 75 
C 7.40625 75 6.203125 75 6.203125 73.796875 
C 6.203125 73.390625 6.203125 73.1875 8.09375 71.390625 
C 19.296875 60.203125 23.59375 42.59375 23.59375 25 
C 23.59375 5.296875 18.703125 -10.90625 7.5 -22.203125 
C 6.296875 -23.40625 6.203125 -23.515625 6.203125 -23.90625 
C 6.203125 -25.109375 7.40625 -25.109375 7.90625 -25.109375 
C 8.796875 -25.109375 9 -25.109375 11.59375 -23 
C 26 -11.5 32.796875 6.890625 32.796875 24.890625 
z
" id="CMBX12-41"/>
    </defs>
    <g transform="translate(99.248419 45.769345)scale(0.18 -0.18)">
     <use transform="scale(0.996264)" xlink:href="#CMBX12-40"/>
     <use transform="translate(43.58655 0)scale(0.996264)" xlink:href="#CMBX12-97"/>
     <use transform="translate(98.069738 0)scale(0.996264)" xlink:href="#CMBX12-41"/>
    </g>
   </g>
  </g>
  <g id="axes_2">
   <g id="patch_8">
    <path d="M 507.878349 134.072996 
L 853.2 134.072996 
L 853.2 16.334794 
L 507.878349 16.334794 
z
" style="fill:#ffffff;"/>
   </g>
   <g id="matplotlib.axis_3">
    <g id="xtick_5">
     <g id="line2d_14">
      <g>
       <use style="stroke:#000000;stroke-width:0.8;" x="523.574788" xlink:href="#m3d9acf6d00" y="134.072996"/>
      </g>
     </g>
     <g id="text_13">
      <!-- $0$ -->
      <g transform="translate(519.672794 152.142585)scale(0.16 -0.16)">
       <use transform="scale(0.996264)" xlink:href="#CMR17-48"/>
      </g>
     </g>
    </g>
    <g id="xtick_6">
     <g id="line2d_15">
      <g>
       <use style="stroke:#000000;stroke-width:0.8;" x="586.360543" xlink:href="#m3d9acf6d00" y="134.072996"/>
      </g>
     </g>
     <g id="text_14">
      <!-- $10$ -->
      <g transform="translate(578.556556 152.142585)scale(0.16 -0.16)">
       <use transform="scale(0.996264)" xlink:href="#CMR17-49"/>
       <use transform="translate(45.690477 0)scale(0.996264)" xlink:href="#CMR17-48"/>
      </g>
     </g>
    </g>
    <g id="xtick_7">
     <g id="line2d_16">
      <g>
       <use style="stroke:#000000;stroke-width:0.8;" x="649.146297" xlink:href="#m3d9acf6d00" y="134.072996"/>
      </g>
     </g>
     <g id="text_15">
      <!-- $20$ -->
      <g transform="translate(641.34231 152.142585)scale(0.16 -0.16)">
       <use transform="scale(0.996264)" xlink:href="#CMR17-50"/>
       <use transform="translate(45.690477 0)scale(0.996264)" xlink:href="#CMR17-48"/>
      </g>
     </g>
    </g>
    <g id="xtick_8">
     <g id="line2d_17">
      <g>
       <use style="stroke:#000000;stroke-width:0.8;" x="711.932052" xlink:href="#m3d9acf6d00" y="134.072996"/>
      </g>
     </g>
     <g id="text_16">
      <!-- $30$ -->
      <g transform="translate(704.128065 152.142585)scale(0.16 -0.16)">
       <use transform="scale(0.996264)" xlink:href="#CMR17-51"/>
       <use transform="translate(45.690477 0)scale(0.996264)" xlink:href="#CMR17-48"/>
      </g>
     </g>
    </g>
    <g id="text_17">
     <!-- time -->
     <g transform="translate(664.559046 171.695361)scale(0.18 -0.18)">
      <use transform="scale(0.996264)" xlink:href="#CMR17-116"/>
      <use transform="translate(35.280768 0)scale(0.996264)" xlink:href="#CMR17-105"/>
      <use transform="translate(60.151826 0)scale(0.996264)" xlink:href="#CMR17-109"/>
      <use transform="translate(137.071416 0)scale(0.996264)" xlink:href="#CMR17-101"/>
     </g>
    </g>
   </g>
   <g id="matplotlib.axis_4">
    <g id="ytick_6">
     <g id="line2d_18">
      <g>
       <use style="stroke:#000000;stroke-width:0.8;" x="507.878349" xlink:href="#m2ee61b7ca1" y="129.449262"/>
      </g>
     </g>
     <g id="text_18">
      <!-- $0.00$ -->
      <g transform="translate(473.13084 134.984056)scale(0.16 -0.16)">
       <use transform="scale(0.996264)" xlink:href="#CMR17-48"/>
       <use transform="translate(45.690477 0)scale(0.996264)" xlink:href="#CMMI12-58"/>
       <use transform="translate(72.787654 0)scale(0.996264)" xlink:href="#CMR17-48"/>
       <use transform="translate(118.478131 0)scale(0.996264)" xlink:href="#CMR17-48"/>
      </g>
     </g>
    </g>
    <g id="ytick_7">
     <g id="line2d_19">
      <g>
       <use style="stroke:#000000;stroke-width:0.8;" x="507.878349" xlink:href="#m2ee61b7ca1" y="106.826369"/>
      </g>
     </g>
     <g id="text_19">
      <!-- $0.05$ -->
      <g transform="translate(473.13084 112.361163)scale(0.16 -0.16)">
       <use transform="scale(0.996264)" xlink:href="#CMR17-48"/>
       <use transform="translate(45.690477 0)scale(0.996264)" xlink:href="#CMMI12-58"/>
       <use transform="translate(72.787654 0)scale(0.996264)" xlink:href="#CMR17-48"/>
       <use transform="translate(118.478131 0)scale(0.996264)" xlink:href="#CMR17-53"/>
      </g>
     </g>
    </g>
    <g id="ytick_8">
     <g id="line2d_20">
      <g>
       <use style="stroke:#000000;stroke-width:0.8;" x="507.878349" xlink:href="#m2ee61b7ca1" y="84.203475"/>
      </g>
     </g>
     <g id="text_20">
      <!-- $0.10$ -->
      <g transform="translate(473.13084 89.738269)scale(0.16 -0.16)">
       <use transform="scale(0.996264)" xlink:href="#CMR17-48"/>
       <use transform="translate(45.690477 0)scale(0.996264)" xlink:href="#CMMI12-58"/>
       <use transform="translate(72.787654 0)scale(0.996264)" xlink:href="#CMR17-49"/>
       <use transform="translate(118.478131 0)scale(0.996264)" xlink:href="#CMR17-48"/>
      </g>
     </g>
    </g>
    <g id="ytick_9">
     <g id="line2d_21">
      <g>
       <use style="stroke:#000000;stroke-width:0.8;" x="507.878349" xlink:href="#m2ee61b7ca1" y="61.580581"/>
      </g>
     </g>
     <g id="text_21">
      <!-- $0.15$ -->
      <g transform="translate(473.13084 67.115376)scale(0.16 -0.16)">
       <use transform="scale(0.996264)" xlink:href="#CMR17-48"/>
       <use transform="translate(45.690477 0)scale(0.996264)" xlink:href="#CMMI12-58"/>
       <use transform="translate(72.787654 0)scale(0.996264)" xlink:href="#CMR17-49"/>
       <use transform="translate(118.478131 0)scale(0.996264)" xlink:href="#CMR17-53"/>
      </g>
     </g>
    </g>
    <g id="ytick_10">
     <g id="line2d_22">
      <g>
       <use style="stroke:#000000;stroke-width:0.8;" x="507.878349" xlink:href="#m2ee61b7ca1" y="38.957688"/>
      </g>
     </g>
     <g id="text_22">
      <!-- $0.20$ -->
      <g transform="translate(473.13084 44.492482)scale(0.16 -0.16)">
       <use transform="scale(0.996264)" xlink:href="#CMR17-48"/>
       <use transform="translate(45.690477 0)scale(0.996264)" xlink:href="#CMMI12-58"/>
       <use transform="translate(72.787654 0)scale(0.996264)" xlink:href="#CMR17-50"/>
       <use transform="translate(118.478131 0)scale(0.996264)" xlink:href="#CMR17-48"/>
      </g>
     </g>
    </g>
    <g id="ytick_11">
     <g id="line2d_23">
      <g>
       <use style="stroke:#000000;stroke-width:0.8;" x="507.878349" xlink:href="#m2ee61b7ca1" y="16.334794"/>
      </g>
     </g>
     <g id="text_23">
      <!-- $0.25$ -->
      <g transform="translate(473.13084 21.869588)scale(0.16 -0.16)">
       <use transform="scale(0.996264)" xlink:href="#CMR17-48"/>
       <use transform="translate(45.690477 0)scale(0.996264)" xlink:href="#CMMI12-58"/>
       <use transform="translate(72.787654 0)scale(0.996264)" xlink:href="#CMR17-50"/>
       <use transform="translate(118.478131 0)scale(0.996264)" xlink:href="#CMR17-53"/>
      </g>
     </g>
    </g>
    <g id="text_24">
     <!-- $P_{R_1}$ -->
     <defs>
      <path d="M 36.796875 61.203125 
C 37.703125 64.890625 38.09375 65.09375 42 65.09375 
L 49.203125 65.09375 
C 57.796875 65.09375 64.203125 62.5 64.203125 54.734375 
C 64.203125 49.640625 61.59375 35 41.5 35 
L 30.203125 35 
z
M 50.703125 33.796875 
C 63.09375 36.484375 72.796875 44.46875 72.796875 53.03125 
C 72.796875 60.8125 64.90625 68 51 68 
L 23.90625 68 
C 21.90625 68 21 68 21 66.09375 
C 21 65.09375 21.703125 65.09375 23.59375 65.09375 
C 29.59375 65.09375 29.59375 64.296875 29.59375 63.203125 
C 29.59375 63 29.59375 62.40625 29.203125 60.90625 
L 15.703125 7.421875 
C 14.796875 3.953125 14.59375 2.96875 7.703125 2.96875 
C 5.40625 2.96875 4.703125 2.96875 4.703125 1.078125 
C 4.703125 0.09375 5.796875 0.09375 6.09375 0.09375 
C 7.90625 0.09375 10 0.296875 11.90625 0.296875 
L 23.703125 0.296875 
C 25.5 0.296875 27.59375 0.09375 29.40625 0.09375 
C 30.203125 0.09375 31.296875 0.09375 31.296875 1.96875 
C 31.296875 2.96875 30.40625 2.96875 28.90625 2.96875 
C 22.796875 2.96875 22.796875 3.765625 22.796875 4.75 
C 22.796875 4.84375 22.796875 5.546875 23 6.328125 
L 29.703125 33 
L 41.703125 33 
C 51.203125 33 53 27.046875 53 23.78125 
C 53 22.28125 52 18.421875 51.296875 15.84375 
C 50.203125 11.296875 49.90625 10.203125 49.90625 8.3125 
C 49.90625 1.28125 55.703125 -2 62.40625 -2 
C 70.5 -2 74 7.828125 74 9.203125 
C 74 9.90625 73.5 10.203125 72.90625 10.203125 
C 72.09375 10.203125 71.90625 9.609375 71.703125 8.8125 
C 69.296875 1.78125 65.203125 0 62.703125 0 
C 60.203125 0 58.59375 1.078125 58.59375 5.546875 
C 58.59375 7.921875 59.796875 16.9375 59.90625 17.4375 
C 60.40625 21.09375 60.40625 21.5 60.40625 22.28125 
C 60.40625 29.515625 54.5 32.59375 50.703125 33.796875 
z
" id="CMMI12-82"/>
     </defs>
     <g transform="translate(465.642776 87.844466)rotate(-90)scale(0.18 -0.18)">
      <use transform="translate(0 25.404611)scale(0.996264)" xlink:href="#CMMI12-80"/>
      <use transform="translate(62.877232 10.460696)scale(0.697382)" xlink:href="#CMMI12-82"/>
      <use transform="translate(114.852582 0)scale(0.498132)" xlink:href="#CMR17-49"/>
     </g>
    </g>
   </g>
   <g id="line2d_24">
    <path clip-path="url(#pfd049db82d)" d="M 523.574788 129.449262 
L 530.105159 129.079866 
L 534.971542 128.590169 
L 538.864648 127.981726 
L 542.16123 127.245275 
L 545.018267 126.383059 
L 547.592741 125.375252 
L 549.947442 124.214783 
L 552.145163 122.883316 
L 554.2173 121.369937 
L 556.226646 119.628145 
L 558.204595 117.617759 
L 560.182544 115.285509 
L 562.191889 112.563655 
L 564.264026 109.370302 
L 566.430351 105.612973 
L 568.785052 101.070998 
L 571.48511 95.360431 
L 575.095652 87.157484 
L 581.939983 71.536647 
L 584.765625 65.702591 
L 587.214514 61.136652 
L 589.475027 57.375557 
L 591.641353 54.192393 
L 593.744886 51.488292 
L 595.817023 49.177479 
L 597.920556 47.162042 
L 600.055485 45.423405 
L 602.253206 43.918848 
L 604.545116 42.616764 
L 606.994005 41.481005 
L 609.662666 40.492314 
L 612.582496 39.650336 
L 615.879078 38.934421 
L 619.709392 38.336169 
L 624.29321 37.85303 
L 630.038681 37.480551 
L 637.793498 37.214303 
L 649.692588 37.050588 
L 674.244273 36.981668 
L 837.503561 36.974582 
L 837.503561 36.974582 
" style="fill:none;stroke:#1f77b4;stroke-linecap:square;stroke-width:1.5;"/>
   </g>
   <g id="line2d_25">
    <path clip-path="url(#pfd049db82d)" d="M 523.574788 129.449262 
L 530.105159 129.079866 
L 534.971542 128.590169 
L 538.864648 127.981726 
L 542.16123 127.245275 
L 545.018267 126.383059 
L 547.592741 125.375252 
L 549.947442 124.214783 
L 552.145163 122.883316 
L 554.2173 121.369937 
L 556.226646 119.628145 
L 558.204595 117.61776 
L 560.182544 115.28551 
L 562.191889 112.563655 
L 564.264026 109.370302 
L 566.430351 105.612973 
L 568.785052 101.070999 
L 571.48511 95.360432 
L 575.095652 87.157485 
L 581.939983 71.536647 
L 584.765625 65.702591 
L 587.214514 61.136652 
L 589.475027 57.375557 
L 591.641353 54.192393 
L 593.744886 51.488292 
L 595.817023 49.177479 
L 597.920556 47.162042 
L 600.055485 45.423405 
L 602.253206 43.918848 
L 604.545116 42.616764 
L 606.994005 41.481005 
L 609.662666 40.492314 
L 612.582496 39.650336 
L 615.879078 38.934421 
L 619.709392 38.336169 
L 624.29321 37.853029 
L 630.038681 37.480551 
L 637.793498 37.214302 
L 649.692588 37.050588 
L 674.244273 36.981667 
L 837.503561 36.974582 
L 837.503561 36.974582 
" style="fill:none;stroke:#ff7f0e;stroke-linecap:square;stroke-width:1.5;"/>
   </g>
   <g id="line2d_26">
    <path clip-path="url(#pfd049db82d)" d="M 523.574788 129.449262 
L 530.105159 129.079866 
L 534.971542 128.590169 
L 538.864648 127.981726 
L 542.16123 127.245275 
L 545.018267 126.383059 
L 547.592741 125.375252 
L 549.947442 124.214783 
L 552.145163 122.883316 
L 554.2173 121.369937 
L 556.226646 119.628145 
L 558.204595 117.617759 
L 560.182544 115.285509 
L 562.191889 112.563655 
L 564.264026 109.370302 
L 566.430351 105.612973 
L 568.785052 101.070999 
L 571.48511 95.360432 
L 575.095652 87.157485 
L 581.939983 71.536648 
L 584.765625 65.702591 
L 587.214514 61.136652 
L 589.475027 57.375557 
L 591.641353 54.192393 
L 593.744886 51.488292 
L 595.817023 49.177479 
L 597.920556 47.162043 
L 600.055485 45.423405 
L 602.253206 43.918848 
L 604.545116 42.616764 
L 606.994005 41.481005 
L 609.662666 40.492314 
L 612.582496 39.650336 
L 615.879078 38.934421 
L 619.709392 38.336169 
L 624.29321 37.85303 
L 630.038681 37.480551 
L 637.793498 37.214302 
L 649.692588 37.050588 
L 674.244273 36.981668 
L 837.503561 36.974582 
L 837.503561 36.974582 
" style="fill:none;stroke:#2ca02c;stroke-linecap:square;stroke-width:1.5;"/>
   </g>
   <g id="line2d_27">
    <path clip-path="url(#pfd049db82d)" d="M 523.574788 129.449262 
L 530.105159 129.079866 
L 534.971542 128.590169 
L 538.864648 127.981726 
L 542.16123 127.245275 
L 545.018267 126.383059 
L 547.592741 125.375252 
L 549.947442 124.214783 
L 552.145163 122.883316 
L 554.2173 121.369937 
L 556.226646 119.628145 
L 558.204595 117.617759 
L 560.182544 115.285509 
L 562.191889 112.563655 
L 564.264026 109.370302 
L 566.430351 105.612973 
L 568.785052 101.070998 
L 571.48511 95.360432 
L 575.095652 87.157485 
L 581.939983 71.536648 
L 584.765625 65.702591 
L 587.214514 61.136652 
L 589.475027 57.375557 
L 591.641353 54.192393 
L 593.744886 51.488292 
L 595.817023 49.177479 
L 597.920556 47.162042 
L 600.055485 45.423405 
L 602.253206 43.918848 
L 604.545116 42.616764 
L 606.994005 41.481005 
L 609.662666 40.492314 
L 612.582496 39.650336 
L 615.879078 38.934421 
L 619.709392 38.336169 
L 624.29321 37.853029 
L 630.038681 37.48055 
L 637.793498 37.214302 
L 649.692588 37.050588 
L 674.244273 36.981667 
L 837.503561 36.974582 
L 837.503561 36.974582 
" style="fill:none;stroke:#d62728;stroke-linecap:square;stroke-width:1.5;"/>
   </g>
   <g id="patch_9">
    <path d="M 507.878349 134.072996 
L 507.878349 16.334794 
" style="fill:none;stroke:#000000;stroke-linecap:square;stroke-linejoin:miter;stroke-width:0.8;"/>
   </g>
   <g id="patch_10">
    <path d="M 853.2 134.072996 
L 853.2 16.334794 
" style="fill:none;stroke:#000000;stroke-linecap:square;stroke-linejoin:miter;stroke-width:0.8;"/>
   </g>
   <g id="patch_11">
    <path d="M 507.878349 134.072996 
L 853.2 134.072996 
" style="fill:none;stroke:#000000;stroke-linecap:square;stroke-linejoin:miter;stroke-width:0.8;"/>
   </g>
   <g id="patch_12">
    <path d="M 507.878349 16.334794 
L 853.2 16.334794 
" style="fill:none;stroke:#000000;stroke-linecap:square;stroke-linejoin:miter;stroke-width:0.8;"/>
   </g>
   <g id="text_25">
    <!-- \textbf{(b)} -->
    <defs>
     <path d="M 20.796875 70 
L 3.5 69.1875 
L 3.5 64.890625 
C 9.703125 64.890625 10.40625 64.890625 10.40625 60.875 
L 10.40625 -0.40625 
L 14.59375 -0.40625 
C 16.296875 1.5 18 3.40625 19.59375 5.421875 
C 24.703125 0.09375 30.203125 -1 34.203125 -1 
C 48 -1 58.59375 7.4375 58.59375 22.09375 
C 58.59375 35.9375 49.203125 45 35.5 45 
C 29.59375 45 24.90625 43.09375 20.796875 39.875 
z
M 21.296875 35.03125 
C 24.796875 39.875 30 41.6875 34.203125 41.6875 
C 46.59375 41.6875 46.59375 28.859375 46.59375 22.1875 
C 46.59375 17.65625 46.59375 11.890625 44.203125 8.15625 
C 41.09375 3.296875 36.40625 2.296875 33.203125 2.296875 
C 26.40625 2.296875 22.703125 7.140625 21.296875 9.359375 
z
" id="CMBX12-98"/>
    </defs>
    <g transform="translate(525.144432 45.769345)scale(0.18 -0.18)">
     <use transform="scale(0.996264)" xlink:href="#CMBX12-40"/>
     <use transform="translate(43.58655 0)scale(0.996264)" xlink:href="#CMBX12-98"/>
     <use transform="translate(105.853051 0)scale(0.996264)" xlink:href="#CMBX12-41"/>
    </g>
   </g>
  </g>
  <g id="axes_3">
   <g id="patch_13">
    <path d="M 81.982336 308.089571 
L 427.303987 308.089571 
L 427.303987 190.351369 
L 81.982336 190.351369 
z
" style="fill:#ffffff;"/>
   </g>
   <g id="matplotlib.axis_5">
    <g id="xtick_9">
     <g id="line2d_28">
      <g>
       <use style="stroke:#000000;stroke-width:0.8;" x="97.678775" xlink:href="#m3d9acf6d00" y="308.089571"/>
      </g>
     </g>
     <g id="text_26">
      <!-- $0$ -->
      <g transform="translate(93.776781 326.159159)scale(0.16 -0.16)">
       <use transform="scale(0.996264)" xlink:href="#CMR17-48"/>
      </g>
     </g>
    </g>
    <g id="xtick_10">
     <g id="line2d_29">
      <g>
       <use style="stroke:#000000;stroke-width:0.8;" x="160.46453" xlink:href="#m3d9acf6d00" y="308.089571"/>
      </g>
     </g>
     <g id="text_27">
      <!-- $10$ -->
      <g transform="translate(152.660543 326.159159)scale(0.16 -0.16)">
       <use transform="scale(0.996264)" xlink:href="#CMR17-49"/>
       <use transform="translate(45.690477 0)scale(0.996264)" xlink:href="#CMR17-48"/>
      </g>
     </g>
    </g>
    <g id="xtick_11">
     <g id="line2d_30">
      <g>
       <use style="stroke:#000000;stroke-width:0.8;" x="223.250284" xlink:href="#m3d9acf6d00" y="308.089571"/>
      </g>
     </g>
     <g id="text_28">
      <!-- $20$ -->
      <g transform="translate(215.446297 326.159159)scale(0.16 -0.16)">
       <use transform="scale(0.996264)" xlink:href="#CMR17-50"/>
       <use transform="translate(45.690477 0)scale(0.996264)" xlink:href="#CMR17-48"/>
      </g>
     </g>
    </g>
    <g id="xtick_12">
     <g id="line2d_31">
      <g>
       <use style="stroke:#000000;stroke-width:0.8;" x="286.036039" xlink:href="#m3d9acf6d00" y="308.089571"/>
      </g>
     </g>
     <g id="text_29">
      <!-- $30$ -->
      <g transform="translate(278.232052 326.159159)scale(0.16 -0.16)">
       <use transform="scale(0.996264)" xlink:href="#CMR17-51"/>
       <use transform="translate(45.690477 0)scale(0.996264)" xlink:href="#CMR17-48"/>
      </g>
     </g>
    </g>
    <g id="text_30">
     <!-- time -->
     <g transform="translate(238.663033 345.711936)scale(0.18 -0.18)">
      <use transform="scale(0.996264)" xlink:href="#CMR17-116"/>
      <use transform="translate(35.280768 0)scale(0.996264)" xlink:href="#CMR17-105"/>
      <use transform="translate(60.151826 0)scale(0.996264)" xlink:href="#CMR17-109"/>
      <use transform="translate(137.071416 0)scale(0.996264)" xlink:href="#CMR17-101"/>
     </g>
    </g>
   </g>
   <g id="matplotlib.axis_6">
    <g id="ytick_12">
     <g id="line2d_32">
      <g>
       <use style="stroke:#000000;stroke-width:0.8;" x="81.982336" xlink:href="#m2ee61b7ca1" y="308.089571"/>
      </g>
     </g>
     <g id="text_31">
      <!-- $0.0000$ -->
      <g transform="translate(31.626853 313.624365)scale(0.16 -0.16)">
       <use transform="scale(0.996264)" xlink:href="#CMR17-48"/>
       <use transform="translate(45.690477 0)scale(0.996264)" xlink:href="#CMMI12-58"/>
       <use transform="translate(72.787654 0)scale(0.996264)" xlink:href="#CMR17-48"/>
       <use transform="translate(118.478131 0)scale(0.996264)" xlink:href="#CMR17-48"/>
       <use transform="translate(164.168608 0)scale(0.996264)" xlink:href="#CMR17-48"/>
       <use transform="translate(209.859086 0)scale(0.996264)" xlink:href="#CMR17-48"/>
      </g>
     </g>
    </g>
    <g id="ytick_13">
     <g id="line2d_33">
      <g>
       <use style="stroke:#000000;stroke-width:0.8;" x="81.982336" xlink:href="#m2ee61b7ca1" y="281.330889"/>
      </g>
     </g>
     <g id="text_32">
      <!-- $0.0025$ -->
      <g transform="translate(31.626853 286.865683)scale(0.16 -0.16)">
       <use transform="scale(0.996264)" xlink:href="#CMR17-48"/>
       <use transform="translate(45.690477 0)scale(0.996264)" xlink:href="#CMMI12-58"/>
       <use transform="translate(72.787654 0)scale(0.996264)" xlink:href="#CMR17-48"/>
       <use transform="translate(118.478131 0)scale(0.996264)" xlink:href="#CMR17-48"/>
       <use transform="translate(164.168608 0)scale(0.996264)" xlink:href="#CMR17-50"/>
       <use transform="translate(209.859086 0)scale(0.996264)" xlink:href="#CMR17-53"/>
      </g>
     </g>
    </g>
    <g id="ytick_14">
     <g id="line2d_34">
      <g>
       <use style="stroke:#000000;stroke-width:0.8;" x="81.982336" xlink:href="#m2ee61b7ca1" y="254.572207"/>
      </g>
     </g>
     <g id="text_33">
      <!-- $0.0050$ -->
      <g transform="translate(31.626853 260.107001)scale(0.16 -0.16)">
       <use transform="scale(0.996264)" xlink:href="#CMR17-48"/>
       <use transform="translate(45.690477 0)scale(0.996264)" xlink:href="#CMMI12-58"/>
       <use transform="translate(72.787654 0)scale(0.996264)" xlink:href="#CMR17-48"/>
       <use transform="translate(118.478131 0)scale(0.996264)" xlink:href="#CMR17-48"/>
       <use transform="translate(164.168608 0)scale(0.996264)" xlink:href="#CMR17-53"/>
       <use transform="translate(209.859086 0)scale(0.996264)" xlink:href="#CMR17-48"/>
      </g>
     </g>
    </g>
    <g id="ytick_15">
     <g id="line2d_35">
      <g>
       <use style="stroke:#000000;stroke-width:0.8;" x="81.982336" xlink:href="#m2ee61b7ca1" y="227.813524"/>
      </g>
     </g>
     <g id="text_34">
      <!-- $0.0075$ -->
      <g transform="translate(31.626853 233.348318)scale(0.16 -0.16)">
       <use transform="scale(0.996264)" xlink:href="#CMR17-48"/>
       <use transform="translate(45.690477 0)scale(0.996264)" xlink:href="#CMMI12-58"/>
       <use transform="translate(72.787654 0)scale(0.996264)" xlink:href="#CMR17-48"/>
       <use transform="translate(118.478131 0)scale(0.996264)" xlink:href="#CMR17-48"/>
       <use transform="translate(164.168608 0)scale(0.996264)" xlink:href="#CMR17-55"/>
       <use transform="translate(209.859086 0)scale(0.996264)" xlink:href="#CMR17-53"/>
      </g>
     </g>
    </g>
    <g id="ytick_16">
     <g id="line2d_36">
      <g>
       <use style="stroke:#000000;stroke-width:0.8;" x="81.982336" xlink:href="#m2ee61b7ca1" y="201.054842"/>
      </g>
     </g>
     <g id="text_35">
      <!-- $0.0100$ -->
      <g transform="translate(31.626853 206.589636)scale(0.16 -0.16)">
       <use transform="scale(0.996264)" xlink:href="#CMR17-48"/>
       <use transform="translate(45.690477 0)scale(0.996264)" xlink:href="#CMMI12-58"/>
       <use transform="translate(72.787654 0)scale(0.996264)" xlink:href="#CMR17-48"/>
       <use transform="translate(118.478131 0)scale(0.996264)" xlink:href="#CMR17-49"/>
       <use transform="translate(164.168608 0)scale(0.996264)" xlink:href="#CMR17-48"/>
       <use transform="translate(209.859086 0)scale(0.996264)" xlink:href="#CMR17-48"/>
      </g>
     </g>
    </g>
    <g id="text_36">
     <!-- $P_{I_2}$ -->
     <g transform="translate(24.138789 259.893771)rotate(-90)scale(0.18 -0.18)">
      <use transform="translate(0 25.404611)scale(0.996264)" xlink:href="#CMMI12-80"/>
      <use transform="translate(62.877232 10.460696)scale(0.697382)" xlink:href="#CMMI12-73"/>
      <use transform="translate(92.994015 0)scale(0.498132)" xlink:href="#CMR17-50"/>
     </g>
    </g>
   </g>
   <g id="line2d_37">
    <path clip-path="url(#p5c916855d6)" d="M 97.678775 307.019224 
L 101.823049 306.448542 
L 105.245215 305.758821 
L 108.196441 304.941823 
L 110.80231 303.994228 
L 113.188407 302.890427 
L 115.386128 301.62844 
L 117.458266 300.180758 
L 119.436215 298.526078 
L 121.351372 296.633517 
L 123.235133 294.459913 
L 125.15029 291.902783 
L 127.096843 288.921462 
L 129.106188 285.42884 
L 131.272513 281.204818 
L 133.752798 275.858967 
L 137.426132 267.334024 
L 140.973882 259.274805 
L 142.951831 255.316193 
L 144.521632 252.643273 
L 145.871661 250.765121 
L 147.033314 249.506583 
L 148.100778 248.667436 
L 149.074055 248.180647 
L 149.984539 247.971668 
L 150.863628 247.997281 
L 151.742716 248.244127 
L 152.684597 248.747952 
L 153.689269 249.546683 
L 154.819526 250.746688 
L 156.075366 252.41883 
L 157.550979 254.77615 
L 159.340552 258.086622 
L 161.726649 263.013952 
L 169.858218 280.193634 
L 172.275711 284.586263 
L 174.504828 288.191156 
L 176.639758 291.232942 
L 178.743291 293.848834 
L 180.846824 296.110708 
L 182.950357 298.049819 
L 185.116682 299.74573 
L 187.345799 301.211424 
L 189.700501 302.495136 
L 192.212182 303.611882 
L 194.943635 304.582469 
L 197.989049 305.42429 
L 201.411215 306.135561 
L 205.398509 306.731241 
L 210.170704 307.212226 
L 216.198739 307.585428 
L 224.330307 307.851261 
L 236.794526 308.01415 
L 262.602052 308.082621 
L 411.607548 308.089571 
L 411.607548 308.089571 
" style="fill:none;stroke:#1f77b4;stroke-linecap:square;stroke-width:1.5;"/>
   </g>
   <g id="line2d_38">
    <path clip-path="url(#p5c916855d6)" d="M 97.678775 307.019224 
L 101.823049 306.447982 
L 105.245215 305.757058 
L 108.196441 304.937889 
L 110.80231 303.986757 
L 113.157011 302.893747 
L 115.354732 301.627347 
L 117.395474 300.196199 
L 119.373423 298.53403 
L 121.28858 296.628198 
L 123.172341 294.433049 
L 125.056102 291.887316 
L 126.971259 288.912592 
L 128.949208 285.414381 
L 131.052741 281.222865 
L 133.376046 276.078656 
L 136.358668 268.890968 
L 141.539011 256.351718 
L 143.422772 252.415967 
L 144.961176 249.695075 
L 146.248413 247.84633 
L 147.37867 246.591182 
L 148.383342 245.789359 
L 149.293827 245.33065 
L 150.141519 245.138476 
L 150.989212 245.174593 
L 151.836904 245.437372 
L 152.715993 245.944065 
L 153.689269 246.772419 
L 154.756734 247.984616 
L 155.981178 249.731154 
L 157.393999 252.156757 
L 159.089384 255.533095 
L 161.349897 260.57385 
L 169.76403 279.823894 
L 172.087335 284.330881 
L 174.222264 288.0039 
L 176.294401 291.133842 
L 178.303746 293.775062 
L 180.313092 296.055395 
L 182.353833 298.036066 
L 184.42597 299.739796 
L 186.592295 301.232015 
L 188.852808 302.519304 
L 191.270301 303.639853 
L 193.907567 304.614202 
L 196.827396 305.451441 
L 200.123978 306.160668 
L 203.954292 306.751445 
L 208.569507 307.229884 
L 214.37777 307.597851 
L 222.25817 307.859564 
L 234.439825 308.01864 
L 260.153163 308.083662 
L 411.607548 308.089571 
L 411.607548 308.089571 
" style="fill:none;stroke:#ff7f0e;stroke-linecap:square;stroke-width:1.5;"/>
   </g>
   <g id="line2d_39">
    <path clip-path="url(#p5c916855d6)" d="M 97.678775 307.019224 
L 101.791653 306.452097 
L 105.213819 305.760812 
L 108.133649 304.949669 
L 110.739518 303.996905 
L 113.094219 302.899015 
L 115.260544 301.643083 
L 117.301286 300.199921 
L 119.247839 298.545716 
L 121.100204 296.679972 
L 122.921173 294.53064 
L 124.742142 292.032331 
L 126.563111 289.152012 
L 128.446872 285.74291 
L 130.393425 281.746273 
L 132.465562 276.972813 
L 134.820263 270.970374 
L 138.116845 261.884409 
L 141.978555 251.368153 
L 143.862316 246.876686 
L 145.337929 243.895343 
L 146.593769 241.833174 
L 147.661234 240.477511 
L 148.603114 239.612928 
L 149.450807 239.115459 
L 150.235707 238.899297 
L 150.989212 238.915882 
L 151.742716 239.151826 
L 152.559013 239.651436 
L 153.438101 240.464857 
L 154.411378 241.682088 
L 155.510238 243.42601 
L 156.797475 245.910589 
L 158.33588 249.396874 
L 160.313829 254.477714 
L 163.798787 264.177756 
L 167.315141 273.716783 
L 169.701238 279.558876 
L 171.804771 284.143804 
L 173.78272 287.939323 
L 175.697877 291.143708 
L 177.581638 293.868223 
L 179.465399 296.203581 
L 181.34916 298.189537 
L 183.295713 299.918403 
L 185.305058 301.404757 
L 187.408591 302.68479 
L 189.669105 303.797885 
L 192.117994 304.753406 
L 194.849447 305.575361 
L 197.926257 306.264766 
L 201.536799 306.839037 
L 205.900845 307.299003 
L 211.45794 307.649469 
L 219.118568 307.893652 
L 231.363015 308.035935 
L 259.964787 308.086975 
L 411.607548 308.089571 
L 411.607548 308.089571 
" style="fill:none;stroke:#2ca02c;stroke-linecap:square;stroke-width:1.5;"/>
   </g>
   <g id="line2d_40">
    <path clip-path="url(#p5c916855d6)" d="M 97.678775 307.019224 
L 101.760257 306.454094 
L 105.151027 305.765411 
L 108.039461 304.95682 
L 110.582538 304.018437 
L 112.874447 302.938759 
L 114.97798 301.703737 
L 116.955929 300.281933 
L 118.808294 298.675784 
L 120.597867 296.826186 
L 122.324648 294.718451 
L 124.020033 292.294386 
L 125.715418 289.471808 
L 127.410803 286.203689 
L 129.106188 282.446192 
L 130.864365 277.994701 
L 132.685334 272.765873 
L 134.663283 266.38492 
L 136.923796 258.303086 
L 140.502942 244.519661 
L 143.265792 234.265188 
L 144.92978 228.910929 
L 146.217017 225.467174 
L 147.284482 223.195087 
L 148.194966 221.736991 
L 148.979867 220.865835 
L 149.670579 220.410226 
L 150.298499 220.256104 
L 150.895024 220.3422 
L 151.491548 220.655165 
L 152.150864 221.262393 
L 152.904369 222.284371 
L 153.752061 223.834412 
L 154.725338 226.100362 
L 155.88699 229.410742 
L 157.268415 234.058631 
L 159.089384 241.032645 
L 162.794114 256.380235 
L 165.556964 267.293896 
L 167.629101 274.605198 
L 169.481466 280.356793 
L 171.208247 285.024099 
L 172.872236 288.905605 
L 174.504828 292.165237 
L 176.106025 294.88269 
L 177.707222 297.177589 
L 179.339815 299.136922 
L 181.003804 300.793474 
L 182.730585 302.204518 
L 184.551554 303.409158 
L 186.529503 304.448296 
L 188.695828 305.329742 
L 191.113321 306.068318 
L 193.907567 306.682432 
L 197.235545 307.17748 
L 201.379819 307.559262 
L 206.936914 307.833945 
L 215.351046 308.005155 
L 232.116519 308.080327 
L 330.951181 308.089571 
L 411.607548 308.089571 
L 411.607548 308.089571 
" style="fill:none;stroke:#d62728;stroke-linecap:square;stroke-width:1.5;"/>
   </g>
   <g id="patch_14">
    <path d="M 81.982336 308.089571 
L 81.982336 190.351369 
" style="fill:none;stroke:#000000;stroke-linecap:square;stroke-linejoin:miter;stroke-width:0.8;"/>
   </g>
   <g id="patch_15">
    <path d="M 427.303987 308.089571 
L 427.303987 190.351369 
" style="fill:none;stroke:#000000;stroke-linecap:square;stroke-linejoin:miter;stroke-width:0.8;"/>
   </g>
   <g id="patch_16">
    <path d="M 81.982336 308.089571 
L 427.303987 308.089571 
" style="fill:none;stroke:#000000;stroke-linecap:square;stroke-linejoin:miter;stroke-width:0.8;"/>
   </g>
   <g id="patch_17">
    <path d="M 81.982336 190.351369 
L 427.303987 190.351369 
" style="fill:none;stroke:#000000;stroke-linecap:square;stroke-linejoin:miter;stroke-width:0.8;"/>
   </g>
   <g id="text_37">
    <!-- \textbf{(c)} -->
    <defs>
     <path d="M 46.796875 11.3125 
C 46.796875 12.515625 45.703125 12.515625 44.703125 12.515625 
C 43.09375 12.515625 43 12.421875 42.5 11.21875 
C 41.796875 9.3125 39.09375 2.59375 29.90625 2.59375 
C 15.796875 2.59375 15.796875 17.828125 15.796875 22.34375 
C 15.796875 28.25 15.90625 41.390625 29 41.390625 
C 29.703125 41.390625 35.59375 41.1875 35.59375 40.6875 
C 35.59375 40.59375 35.5 40.484375 35.296875 40.390625 
C 35 40.09375 33.703125 38.578125 33.703125 36.078125 
C 33.703125 31.859375 37.09375 30.15625 39.59375 30.15625 
C 41.703125 30.15625 45.5 31.46875 45.5 36.171875 
C 45.5 44.390625 34 45 28.59375 45 
C 10.796875 45 3.796875 33.375 3.796875 21.84375 
C 3.796875 8.203125 13.296875 -1 28 -1 
C 43.703125 -1 46.796875 10.609375 46.796875 11.3125 
z
" id="CMBX12-99"/>
    </defs>
    <g transform="translate(99.248419 219.78592)scale(0.18 -0.18)">
     <use transform="scale(0.996264)" xlink:href="#CMBX12-40"/>
     <use transform="translate(43.58655 0)scale(0.996264)" xlink:href="#CMBX12-99"/>
     <use transform="translate(93.399751 0)scale(0.996264)" xlink:href="#CMBX12-41"/>
    </g>
   </g>
  </g>
  <g id="axes_4">
   <g id="patch_18">
    <path d="M 507.878349 308.089571 
L 853.2 308.089571 
L 853.2 190.351369 
L 507.878349 190.351369 
z
" style="fill:#ffffff;"/>
   </g>
   <g id="matplotlib.axis_7">
    <g id="xtick_13">
     <g id="line2d_41">
      <g>
       <use style="stroke:#000000;stroke-width:0.8;" x="523.574788" xlink:href="#m3d9acf6d00" y="308.089571"/>
      </g>
     </g>
     <g id="text_38">
      <!-- $0$ -->
      <g transform="translate(519.672794 326.159159)scale(0.16 -0.16)">
       <use transform="scale(0.996264)" xlink:href="#CMR17-48"/>
      </g>
     </g>
    </g>
    <g id="xtick_14">
     <g id="line2d_42">
      <g>
       <use style="stroke:#000000;stroke-width:0.8;" x="586.360543" xlink:href="#m3d9acf6d00" y="308.089571"/>
      </g>
     </g>
     <g id="text_39">
      <!-- $10$ -->
      <g transform="translate(578.556556 326.159159)scale(0.16 -0.16)">
       <use transform="scale(0.996264)" xlink:href="#CMR17-49"/>
       <use transform="translate(45.690477 0)scale(0.996264)" xlink:href="#CMR17-48"/>
      </g>
     </g>
    </g>
    <g id="xtick_15">
     <g id="line2d_43">
      <g>
       <use style="stroke:#000000;stroke-width:0.8;" x="649.146297" xlink:href="#m3d9acf6d00" y="308.089571"/>
      </g>
     </g>
     <g id="text_40">
      <!-- $20$ -->
      <g transform="translate(641.34231 326.159159)scale(0.16 -0.16)">
       <use transform="scale(0.996264)" xlink:href="#CMR17-50"/>
       <use transform="translate(45.690477 0)scale(0.996264)" xlink:href="#CMR17-48"/>
      </g>
     </g>
    </g>
    <g id="xtick_16">
     <g id="line2d_44">
      <g>
       <use style="stroke:#000000;stroke-width:0.8;" x="711.932052" xlink:href="#m3d9acf6d00" y="308.089571"/>
      </g>
     </g>
     <g id="text_41">
      <!-- $30$ -->
      <g transform="translate(704.128065 326.159159)scale(0.16 -0.16)">
       <use transform="scale(0.996264)" xlink:href="#CMR17-51"/>
       <use transform="translate(45.690477 0)scale(0.996264)" xlink:href="#CMR17-48"/>
      </g>
     </g>
    </g>
    <g id="text_42">
     <!-- time -->
     <g transform="translate(664.559046 345.711936)scale(0.18 -0.18)">
      <use transform="scale(0.996264)" xlink:href="#CMR17-116"/>
      <use transform="translate(35.280768 0)scale(0.996264)" xlink:href="#CMR17-105"/>
      <use transform="translate(60.151826 0)scale(0.996264)" xlink:href="#CMR17-109"/>
      <use transform="translate(137.071416 0)scale(0.996264)" xlink:href="#CMR17-101"/>
     </g>
    </g>
   </g>
   <g id="matplotlib.axis_8">
    <g id="ytick_17">
     <g id="line2d_45">
      <g>
       <use style="stroke:#000000;stroke-width:0.8;" x="507.878349" xlink:href="#m2ee61b7ca1" y="302.737835"/>
      </g>
     </g>
     <g id="text_43">
      <!-- $0.00$ -->
      <g transform="translate(473.13084 308.272629)scale(0.16 -0.16)">
       <use transform="scale(0.996264)" xlink:href="#CMR17-48"/>
       <use transform="translate(45.690477 0)scale(0.996264)" xlink:href="#CMMI12-58"/>
       <use transform="translate(72.787654 0)scale(0.996264)" xlink:href="#CMR17-48"/>
       <use transform="translate(118.478131 0)scale(0.996264)" xlink:href="#CMR17-48"/>
      </g>
     </g>
    </g>
    <g id="ytick_18">
     <g id="line2d_46">
      <g>
       <use style="stroke:#000000;stroke-width:0.8;" x="507.878349" xlink:href="#m2ee61b7ca1" y="280.482942"/>
      </g>
     </g>
     <g id="text_44">
      <!-- $0.05$ -->
      <g transform="translate(473.13084 286.017736)scale(0.16 -0.16)">
       <use transform="scale(0.996264)" xlink:href="#CMR17-48"/>
       <use transform="translate(45.690477 0)scale(0.996264)" xlink:href="#CMMI12-58"/>
       <use transform="translate(72.787654 0)scale(0.996264)" xlink:href="#CMR17-48"/>
       <use transform="translate(118.478131 0)scale(0.996264)" xlink:href="#CMR17-53"/>
      </g>
     </g>
    </g>
    <g id="ytick_19">
     <g id="line2d_47">
      <g>
       <use style="stroke:#000000;stroke-width:0.8;" x="507.878349" xlink:href="#m2ee61b7ca1" y="258.228049"/>
      </g>
     </g>
     <g id="text_45">
      <!-- $0.10$ -->
      <g transform="translate(473.13084 263.762844)scale(0.16 -0.16)">
       <use transform="scale(0.996264)" xlink:href="#CMR17-48"/>
       <use transform="translate(45.690477 0)scale(0.996264)" xlink:href="#CMMI12-58"/>
       <use transform="translate(72.787654 0)scale(0.996264)" xlink:href="#CMR17-49"/>
       <use transform="translate(118.478131 0)scale(0.996264)" xlink:href="#CMR17-48"/>
      </g>
     </g>
    </g>
    <g id="ytick_20">
     <g id="line2d_48">
      <g>
       <use style="stroke:#000000;stroke-width:0.8;" x="507.878349" xlink:href="#m2ee61b7ca1" y="235.973157"/>
      </g>
     </g>
     <g id="text_46">
      <!-- $0.15$ -->
      <g transform="translate(473.13084 241.507951)scale(0.16 -0.16)">
       <use transform="scale(0.996264)" xlink:href="#CMR17-48"/>
       <use transform="translate(45.690477 0)scale(0.996264)" xlink:href="#CMMI12-58"/>
       <use transform="translate(72.787654 0)scale(0.996264)" xlink:href="#CMR17-49"/>
       <use transform="translate(118.478131 0)scale(0.996264)" xlink:href="#CMR17-53"/>
      </g>
     </g>
    </g>
    <g id="ytick_21">
     <g id="line2d_49">
      <g>
       <use style="stroke:#000000;stroke-width:0.8;" x="507.878349" xlink:href="#m2ee61b7ca1" y="213.718264"/>
      </g>
     </g>
     <g id="text_47">
      <!-- $0.20$ -->
      <g transform="translate(473.13084 219.253058)scale(0.16 -0.16)">
       <use transform="scale(0.996264)" xlink:href="#CMR17-48"/>
       <use transform="translate(45.690477 0)scale(0.996264)" xlink:href="#CMMI12-58"/>
       <use transform="translate(72.787654 0)scale(0.996264)" xlink:href="#CMR17-50"/>
       <use transform="translate(118.478131 0)scale(0.996264)" xlink:href="#CMR17-48"/>
      </g>
     </g>
    </g>
    <g id="ytick_22">
     <g id="line2d_50">
      <g>
       <use style="stroke:#000000;stroke-width:0.8;" x="507.878349" xlink:href="#m2ee61b7ca1" y="191.463371"/>
      </g>
     </g>
     <g id="text_48">
      <!-- $0.25$ -->
      <g transform="translate(473.13084 196.998166)scale(0.16 -0.16)">
       <use transform="scale(0.996264)" xlink:href="#CMR17-48"/>
       <use transform="translate(45.690477 0)scale(0.996264)" xlink:href="#CMMI12-58"/>
       <use transform="translate(72.787654 0)scale(0.996264)" xlink:href="#CMR17-50"/>
       <use transform="translate(118.478131 0)scale(0.996264)" xlink:href="#CMR17-53"/>
      </g>
     </g>
    </g>
    <g id="text_49">
     <!-- $P_{R_2}$ -->
     <g transform="translate(465.642776 261.861041)rotate(-90)scale(0.18 -0.18)">
      <use transform="translate(0 25.404611)scale(0.996264)" xlink:href="#CMMI12-80"/>
      <use transform="translate(62.877232 10.460696)scale(0.697382)" xlink:href="#CMMI12-82"/>
      <use transform="translate(114.852582 0)scale(0.498132)" xlink:href="#CMR17-50"/>
     </g>
    </g>
   </g>
   <g id="line2d_51">
    <path clip-path="url(#p7932e595ce)" d="M 523.574788 302.737835 
L 530.167951 302.369748 
L 535.06573 301.881457 
L 538.990232 301.272509 
L 542.286814 300.541228 
L 545.175248 299.675631 
L 547.749721 298.675287 
L 550.104422 297.525866 
L 552.333539 296.189561 
L 554.437073 294.669555 
L 556.477814 292.920533 
L 558.487159 290.904095 
L 560.496504 288.569903 
L 562.537245 285.854854 
L 564.672174 282.633958 
L 566.932687 278.808024 
L 569.412973 274.159665 
L 572.364198 268.13212 
L 577.042205 257.985525 
L 581.751607 247.953394 
L 584.702833 242.187923 
L 587.24591 237.694543 
L 589.600612 233.976977 
L 591.829729 230.863617 
L 593.996054 228.209806 
L 596.162379 225.903935 
L 598.328704 223.919622 
L 600.526425 222.203482 
L 602.818335 220.695846 
L 605.204432 219.391808 
L 607.747509 218.255395 
L 610.510359 217.266824 
L 613.555772 216.416956 
L 616.977938 215.696398 
L 620.965232 215.091153 
L 625.706031 214.603817 
L 631.671274 214.224834 
L 639.677259 213.953629 
L 651.858913 213.785645 
L 676.47339 213.713092 
L 831.977862 213.704769 
L 837.503561 213.704769 
L 837.503561 213.704769 
" style="fill:none;stroke:#1f77b4;stroke-linecap:square;stroke-width:1.5;"/>
   </g>
   <g id="line2d_52">
    <path clip-path="url(#p7932e595ce)" d="M 523.574788 302.737835 
L 530.167951 302.369634 
L 535.034334 301.884809 
L 538.958836 301.276593 
L 542.255418 300.545336 
L 545.112456 299.689358 
L 547.686929 298.689055 
L 550.04163 297.537509 
L 552.239351 296.216652 
L 554.342885 294.690976 
L 556.35223 292.959809 
L 558.330179 290.962803 
L 560.308128 288.647566 
L 562.317473 285.947578 
L 564.38961 282.782619 
L 566.587331 279.005531 
L 568.973428 274.445096 
L 571.736278 268.658872 
L 575.535196 260.12849 
L 581.751607 246.168067 
L 584.640041 240.271256 
L 587.120326 235.700102 
L 589.412235 231.933349 
L 591.578561 228.790245 
L 593.682094 226.11918 
L 595.785627 223.803809 
L 597.88916 221.816497 
L 600.024089 220.101922 
L 602.22181 218.618038 
L 604.545116 217.317819 
L 607.025401 216.187704 
L 609.694062 215.217807 
L 612.645288 214.384139 
L 615.973266 213.67824 
L 619.866372 213.086952 
L 624.544378 212.611022 
L 630.415434 212.24744 
L 638.421418 211.98938 
L 650.885637 211.834047 
L 677.760627 211.772379 
L 837.503561 211.767417 
L 837.503561 211.767417 
" style="fill:none;stroke:#ff7f0e;stroke-linecap:square;stroke-width:1.5;"/>
   </g>
   <g id="line2d_53">
    <path clip-path="url(#p7932e595ce)" d="M 523.574788 302.737835 
L 530.167951 302.369389 
L 535.034334 301.883497 
L 538.92744 301.278658 
L 542.192626 300.553102 
L 545.049664 299.694433 
L 547.592741 298.701479 
L 549.916046 297.558699 
L 552.082371 296.247148 
L 554.154508 294.729753 
L 556.132457 293.003903 
L 558.079011 291.005632 
L 559.994168 288.717624 
L 561.940721 286.037145 
L 563.91867 282.926245 
L 565.990807 279.239609 
L 568.188528 274.863589 
L 570.637417 269.476494 
L 573.651435 262.271876 
L 583.478388 238.321158 
L 585.958674 233.130081 
L 588.187791 228.969007 
L 590.291324 225.506002 
L 592.300669 222.616296 
L 594.278618 220.153048 
L 596.256567 218.040584 
L 598.265912 216.219546 
L 600.306653 214.666918 
L 602.441582 213.320425 
L 604.702096 212.157798 
L 607.150985 211.151615 
L 609.819646 210.29741 
L 612.833664 209.570039 
L 616.318622 208.964165 
L 620.462896 208.47612 
L 625.674635 208.096774 
L 632.675947 207.82517 
L 643.319197 207.657258 
L 664.825468 207.584841 
L 801.17837 207.576557 
L 837.503561 207.576557 
L 837.503561 207.576557 
" style="fill:none;stroke:#2ca02c;stroke-linecap:square;stroke-width:1.5;"/>
   </g>
   <g id="line2d_54">
    <path clip-path="url(#p7932e595ce)" d="M 523.574788 302.737835 
L 530.136555 302.371119 
L 534.971542 301.887778 
L 538.833252 301.285703 
L 542.067042 300.562082 
L 544.861287 299.713836 
L 547.341573 298.732919 
L 549.602086 297.602029 
L 551.705619 296.299474 
L 553.683568 294.809551 
L 555.567329 293.108379 
L 557.388298 291.160394 
L 559.177871 288.91464 
L 560.967444 286.30096 
L 562.757017 283.283198 
L 564.577986 279.76767 
L 566.461747 275.639969 
L 568.471092 270.689159 
L 570.700209 264.58202 
L 573.368871 256.581806 
L 583.101636 226.705685 
L 585.267961 221.168075 
L 587.214514 216.77855 
L 589.066879 213.135312 
L 590.856452 210.099246 
L 592.614629 207.551953 
L 594.34141 205.434168 
L 596.099587 203.626819 
L 597.88916 202.103194 
L 599.741525 200.813587 
L 601.719474 199.707063 
L 603.854403 198.769009 
L 606.209105 197.97921 
L 608.877766 197.321505 
L 612.017368 196.782831 
L 615.847682 196.359663 
L 620.808252 196.046476 
L 627.903752 195.838361 
L 640.273783 195.729612 
L 679.675784 195.703252 
L 837.503561 195.703106 
L 837.503561 195.703106 
" style="fill:none;stroke:#d62728;stroke-linecap:square;stroke-width:1.5;"/>
   </g>
   <g id="patch_19">
    <path d="M 507.878349 308.089571 
L 507.878349 190.351369 
" style="fill:none;stroke:#000000;stroke-linecap:square;stroke-linejoin:miter;stroke-width:0.8;"/>
   </g>
   <g id="patch_20">
    <path d="M 853.2 308.089571 
L 853.2 190.351369 
" style="fill:none;stroke:#000000;stroke-linecap:square;stroke-linejoin:miter;stroke-width:0.8;"/>
   </g>
   <g id="patch_21">
    <path d="M 507.878349 308.089571 
L 853.2 308.089571 
" style="fill:none;stroke:#000000;stroke-linecap:square;stroke-linejoin:miter;stroke-width:0.8;"/>
   </g>
   <g id="patch_22">
    <path d="M 507.878349 190.351369 
L 853.2 190.351369 
" style="fill:none;stroke:#000000;stroke-linecap:square;stroke-linejoin:miter;stroke-width:0.8;"/>
   </g>
   <g id="text_50">
    <!-- \textbf{(d)} -->
    <defs>
     <path d="M 34.703125 69.1875 
L 34.703125 64.890625 
C 40.90625 64.890625 41.59375 64.890625 41.59375 60.875 
L 41.59375 40.171875 
C 39.40625 42.09375 35 45 28.09375 45 
C 13.90625 45 3.796875 36.140625 3.796875 22 
C 3.796875 7.546875 13.703125 -1 27 -1 
C 32.5 -1 37.203125 0.890625 41.09375 4.21875 
L 41.09375 -1 
L 58.90625 -0.40625 
L 58.90625 3.90625 
C 52.703125 3.90625 52 3.90625 52 7.84375 
L 52 70 
z
M 41.09375 9.765625 
C 36.90625 3.609375 31.796875 2.296875 28.203125 2.296875 
C 15.796875 2.296875 15.796875 15.125 15.796875 21.796875 
C 15.796875 26.546875 15.796875 31.59375 18 35.4375 
C 21.09375 41.09375 27 41.6875 29.296875 41.6875 
C 33.40625 41.6875 37.796875 39.875 41.09375 35.4375 
z
" id="CMBX12-100"/>
    </defs>
    <g transform="translate(525.144432 219.78592)scale(0.18 -0.18)">
     <use transform="scale(0.996264)" xlink:href="#CMBX12-40"/>
     <use transform="translate(43.58655 0)scale(0.996264)" xlink:href="#CMBX12-100"/>
     <use transform="translate(105.853051 0)scale(0.996264)" xlink:href="#CMBX12-41"/>
    </g>
   </g>
  </g>
  <g id="axes_5">
   <g id="patch_23">
    <path d="M 361.796808 112.032925 
L 418.303987 112.032925 
L 418.303987 25.334794 
L 361.796808 25.334794 
z
" style="fill:#ffffff;"/>
   </g>
   <g id="patch_24">
    <path d="M 361.796808 25.334794 
L 135.350228 48.445213 
" style="fill:none;stroke:#808080;stroke-linejoin:miter;"/>
   </g>
   <g id="patch_25">
    <path d="M 361.796808 112.032925 
L 135.350228 96.610841 
" style="fill:none;stroke:#808080;stroke-linejoin:miter;"/>
   </g>
   <g id="matplotlib.axis_9">
    <g id="xtick_17">
     <g id="line2d_55">
      <g>
       <use style="stroke:#000000;stroke-width:0.8;" x="361.796808" xlink:href="#m3d9acf6d00" y="112.032925"/>
      </g>
     </g>
     <g id="text_51">
      <!-- $6$ -->
      <defs>
       <path d="M 10.59375 34.34375 
C 10.59375 58 21.796875 63.6875 28.296875 63.6875 
C 30.40625 63.6875 35.5 63.265625 37.5 59.09375 
C 35.90625 59.09375 32.90625 59.09375 32.90625 55.59375 
C 32.90625 52.890625 35.09375 52 36.5 52 
C 37.40625 52 40.09375 52.390625 40.09375 55.796875 
C 40.09375 62.296875 35.09375 66 28.203125 66 
C 16.296875 66 3.796875 53.296875 3.796875 31.421875 
C 3.796875 4.015625 15.09375 -2 23.09375 -2 
C 32.796875 -2 42 6.734375 42 20.234375 
C 42 32.828125 33.90625 42 23.703125 42 
C 17.59375 42 13.09375 37.96875 10.59375 30.921875 
z
M 23.09375 0.390625 
C 10.796875 0.390625 10.796875 18.9375 10.796875 22.65625 
C 10.796875 29.90625 14.203125 40.390625 23.5 40.390625 
C 25.203125 40.390625 30.09375 40.390625 33.40625 33.4375 
C 35.203125 29.515625 35.203125 25.375 35.203125 20.34375 
C 35.203125 14.90625 35.203125 10.875 33.09375 6.84375 
C 30.90625 2.703125 27.703125 0.390625 23.09375 0.390625 
z
" id="CMR17-54"/>
      </defs>
      <g transform="translate(359.057074 126.643272)scale(0.11 -0.11)">
       <use transform="scale(0.996264)" xlink:href="#CMR17-54"/>
      </g>
     </g>
    </g>
    <g id="xtick_18">
     <g id="line2d_56">
      <g>
       <use style="stroke:#000000;stroke-width:0.8;" x="418.303987" xlink:href="#m3d9acf6d00" y="112.032925"/>
      </g>
     </g>
     <g id="text_52">
      <!-- $11$ -->
      <g transform="translate(412.82452 126.643272)scale(0.11 -0.11)">
       <use transform="scale(0.996264)" xlink:href="#CMR17-49"/>
       <use transform="translate(45.690477 0)scale(0.996264)" xlink:href="#CMR17-49"/>
      </g>
     </g>
    </g>
   </g>
   <g id="matplotlib.axis_10">
    <g id="ytick_23">
     <g id="line2d_57">
      <g>
       <use style="stroke:#000000;stroke-width:0.8;" x="361.796808" xlink:href="#m2ee61b7ca1" y="112.032925"/>
      </g>
     </g>
     <g id="text_53">
      <!-- $0.0035$ -->
      <g transform="translate(324.35533 115.838098)scale(0.11 -0.11)">
       <use transform="scale(0.996264)" xlink:href="#CMR17-48"/>
       <use transform="translate(45.690477 0)scale(0.996264)" xlink:href="#CMMI12-58"/>
       <use transform="translate(72.787654 0)scale(0.996264)" xlink:href="#CMR17-48"/>
       <use transform="translate(118.478131 0)scale(0.996264)" xlink:href="#CMR17-48"/>
       <use transform="translate(164.168608 0)scale(0.996264)" xlink:href="#CMR17-51"/>
       <use transform="translate(209.859086 0)scale(0.996264)" xlink:href="#CMR17-53"/>
      </g>
     </g>
    </g>
    <g id="ytick_24">
     <g id="line2d_58">
      <g>
       <use style="stroke:#000000;stroke-width:0.8;" x="361.796808" xlink:href="#m2ee61b7ca1" y="25.334794"/>
      </g>
     </g>
     <g id="text_54">
      <!-- $0.0080$ -->
      <defs>
       <path d="M 27.203125 35.765625 
C 33.5 38.96875 39.90625 43.796875 39.90625 51.53125 
C 39.90625 60.6875 31.09375 66 23 66 
C 13.90625 66 5.90625 59.375 5.90625 50.234375 
C 5.90625 47.71875 6.5 43.390625 10.40625 39.578125 
C 11.40625 38.578125 15.59375 35.5625 18.296875 33.65625 
C 13.796875 31.34375 3.296875 25.8125 3.296875 14.765625 
C 3.296875 4.40625 13.09375 -2 22.796875 -2 
C 33.5 -2 42.5 5.71875 42.5 15.96875 
C 42.5 25.109375 36.40625 29.328125 32.40625 32.046875 
z
M 14.09375 44.609375 
C 13.296875 45.109375 9.296875 48.21875 9.296875 52.9375 
C 9.296875 59.078125 15.59375 63.6875 22.796875 63.6875 
C 30.703125 63.6875 36.5 58.0625 36.5 51.53125 
C 36.5 42.1875 26.09375 36.859375 25.59375 36.859375 
C 25.5 36.859375 25.40625 36.859375 24.59375 37.46875 
z
M 32.5 24 
C 34 22.90625 38.796875 19.578125 38.796875 13.453125 
C 38.796875 6.015625 31.40625 0.390625 23 0.390625 
C 13.90625 0.390625 7 6.921875 7 14.859375 
C 7 22.796875 13.09375 29.4375 20 32.546875 
z
" id="CMR17-56"/>
      </defs>
      <g transform="translate(324.35533 29.139967)scale(0.11 -0.11)">
       <use transform="scale(0.996264)" xlink:href="#CMR17-48"/>
       <use transform="translate(45.690477 0)scale(0.996264)" xlink:href="#CMMI12-58"/>
       <use transform="translate(72.787654 0)scale(0.996264)" xlink:href="#CMR17-48"/>
       <use transform="translate(118.478131 0)scale(0.996264)" xlink:href="#CMR17-48"/>
       <use transform="translate(164.168608 0)scale(0.996264)" xlink:href="#CMR17-56"/>
       <use transform="translate(209.859086 0)scale(0.996264)" xlink:href="#CMR17-48"/>
      </g>
     </g>
    </g>
   </g>
   <g id="line2d_59">
    <path clip-path="url(#pd8cf5634a7)" d="M 361.747076 113.495427 
L 373.501745 85.087837 
L 375.98831 79.912218 
L 378.079285 76.046129 
L 379.944208 73.049386 
L 381.58308 70.814107 
L 383.108926 69.098624 
L 384.465234 67.888357 
L 385.765029 67.018358 
L 386.951799 66.478624 
L 388.082056 66.194204 
L 389.212312 66.135295 
L 390.342569 66.301551 
L 391.472825 66.690847 
L 392.659595 67.335404 
L 393.902877 68.262776 
L 395.259185 69.557458 
L 396.728519 71.275886 
L 398.367391 73.552659 
L 400.175801 76.463665 
L 402.210263 80.174226 
L 404.583802 84.982712 
L 407.522469 91.465469 
L 411.93047 101.798037 
L 418.31642 116.804371 
L 418.31642 116.804371 
" style="fill:none;stroke:#1f77b4;stroke-linecap:square;stroke-width:1.5;"/>
   </g>
   <g id="line2d_60">
    <path clip-path="url(#pd8cf5634a7)" d="M 361.747076 113.495428 
L 373.501745 85.087837 
L 375.98831 79.912218 
L 378.079285 76.046128 
L 379.944208 73.049385 
L 381.58308 70.814106 
L 383.108926 69.098623 
L 384.465234 67.888357 
L 385.765029 67.018357 
L 386.951799 66.478623 
L 388.082056 66.194203 
L 389.212312 66.135294 
L 390.342569 66.30155 
L 391.472825 66.690846 
L 392.659595 67.335403 
L 393.902877 68.262775 
L 395.259185 69.557457 
L 396.728519 71.275885 
L 398.367391 73.552658 
L 400.175801 76.463663 
L 402.210263 80.174224 
L 404.583802 84.98271 
L 407.522469 91.465467 
L 411.93047 101.798035 
L 418.31642 116.80437 
L 418.31642 116.80437 
" style="fill:none;stroke:#ff7f0e;stroke-linecap:square;stroke-width:1.5;"/>
   </g>
   <g id="line2d_61">
    <path clip-path="url(#pd8cf5634a7)" d="M 361.747076 113.495427 
L 373.501745 85.087839 
L 375.98831 79.912219 
L 378.079285 76.04613 
L 379.944208 73.049387 
L 381.58308 70.814108 
L 383.108926 69.098625 
L 384.465234 67.888359 
L 385.765029 67.018359 
L 386.951799 66.478625 
L 388.082056 66.194205 
L 389.212312 66.135296 
L 390.342569 66.301552 
L 391.472825 66.690848 
L 392.659595 67.335405 
L 393.902877 68.262777 
L 395.259185 69.557458 
L 396.728519 71.275886 
L 398.367391 73.552659 
L 400.175801 76.463664 
L 402.210263 80.174225 
L 404.583802 84.982711 
L 407.522469 91.465468 
L 411.93047 101.798035 
L 418.31642 116.80437 
L 418.31642 116.80437 
" style="fill:none;stroke:#2ca02c;stroke-linecap:square;stroke-width:1.5;"/>
   </g>
   <g id="line2d_62">
    <path clip-path="url(#pd8cf5634a7)" d="M 361.747076 113.495427 
L 373.501745 85.087838 
L 375.98831 79.912219 
L 378.079285 76.046129 
L 379.944208 73.049387 
L 381.58308 70.814108 
L 383.108926 69.098625 
L 384.465234 67.888359 
L 385.765029 67.018359 
L 386.951799 66.478625 
L 388.082056 66.194205 
L 389.212312 66.135296 
L 390.342569 66.301552 
L 391.472825 66.690848 
L 392.659595 67.335405 
L 393.902877 68.262777 
L 395.259185 69.557458 
L 396.728519 71.275886 
L 398.367391 73.552658 
L 400.175801 76.463663 
L 402.210263 80.174223 
L 404.583802 84.982709 
L 407.522469 91.465466 
L 411.93047 101.798033 
L 418.31642 116.804369 
L 418.31642 116.804369 
" style="fill:none;stroke:#d62728;stroke-linecap:square;stroke-width:1.5;"/>
   </g>
   <g id="patch_26">
    <path d="M 361.796808 112.032925 
L 361.796808 25.334794 
" style="fill:none;stroke:#000000;stroke-linecap:square;stroke-linejoin:miter;stroke-width:0.8;"/>
   </g>
   <g id="patch_27">
    <path d="M 418.303987 112.032925 
L 418.303987 25.334794 
" style="fill:none;stroke:#000000;stroke-linecap:square;stroke-linejoin:miter;stroke-width:0.8;"/>
   </g>
   <g id="patch_28">
    <path d="M 361.796808 112.032925 
L 418.303987 112.032925 
" style="fill:none;stroke:#000000;stroke-linecap:square;stroke-linejoin:miter;stroke-width:0.8;"/>
   </g>
   <g id="patch_29">
    <path d="M 361.796808 25.334794 
L 418.303987 25.334794 
" style="fill:none;stroke:#000000;stroke-linecap:square;stroke-linejoin:miter;stroke-width:0.8;"/>
   </g>
  </g>
  <g id="legend_1">
   <g id="patch_30">
    <path d="M 762.72 122.4 
L 842.376087 122.4 
Q 844.776087 122.4 844.776087 120 
L 844.776087 50.312778 
Q 844.776087 47.912778 842.376087 47.912778 
L 762.72 47.912778 
Q 760.32 47.912778 760.32 50.312778 
L 760.32 120 
Q 760.32 122.4 762.72 122.4 
z
" style="fill:#ffffff;opacity:0.8;stroke:#cccccc;stroke-linejoin:miter;"/>
   </g>
   <g id="line2d_63">
    <path d="M 765.12 57.909988 
L 789.12 57.909988 
" style="fill:none;stroke:#1f77b4;stroke-linecap:square;stroke-width:1.5;"/>
   </g>
   <g id="line2d_64"/>
   <g id="text_55">
    <!-- $\beta_2'$=2 -->
    <defs>
     <path d="M 56.59375 58.421875 
C 56.59375 64.546875 51.5 71 42.40625 71 
C 29.5 71 21.296875 54.84375 18.703125 44.21875 
L 2.90625 -18 
C 2.703125 -18.8125 3.296875 -19 3.796875 -19 
C 4.5 -19 5 -18.90625 5.09375 -18.40625 
L 12.09375 9.25 
C 13.09375 3.609375 18.59375 -1 24.5 -1 
C 38.796875 -1 52.296875 10.265625 52.296875 25.28125 
C 52.296875 29.109375 51.40625 32.9375 49.296875 36.15625 
C 48.09375 38.078125 46.59375 39.484375 45 40.609375 
C 52.203125 44.109375 56.59375 50.34375 56.59375 58.421875 
z
M 39.203125 40.703125 
C 37.59375 40.171875 36 40 34.09375 40 
C 32.703125 40 31.40625 39.890625 29.59375 40.4375 
C 30.59375 41.046875 32.09375 41.234375 34.203125 41.234375 
C 36 41.234375 37.796875 41.046875 39.203125 40.703125 
z
M 51.40625 59.34375 
C 51.40625 53.71875 48.703125 45.546875 42.203125 41.9375 
C 40.296875 42.546875 37.703125 43 35.5 43 
C 33.40625 43 27.40625 43.203125 27.40625 40.34375 
C 27.40625 37.671875 32.90625 37.96875 34.59375 37.96875 
C 37.203125 37.96875 39.5 38.578125 41.90625 39.28125 
C 45.09375 36.671875 46.5 33.234375 46.5 28.203125 
C 46.5 22.359375 44.90625 17.625 43 13.28125 
C 39.703125 5.828125 31.90625 1 25 1 
C 17.703125 1 13.90625 6.84375 13.90625 13.6875 
C 13.90625 14.59375 13.90625 15.90625 14.296875 17.421875 
L 20.796875 43.5 
C 24.09375 56.890625 32.5 68.953125 42.203125 68.953125 
C 49.40625 68.953125 51.40625 63.84375 51.40625 59.34375 
z
" id="CMMI12-12"/>
     <path d="M 25.296875 47.625 
C 25.796875 48.828125 26.203125 49.71875 26.203125 50.71875 
C 26.203125 53.59375 23.59375 56 20.5 56 
C 17.703125 56 15.90625 54.09375 15.203125 51.515625 
L 3.296875 8.078125 
C 3.296875 7.890625 2.90625 6.796875 2.90625 6.6875 
C 2.90625 5.59375 5.5 4.890625 6.296875 4.890625 
C 6.90625 4.890625 7 5.1875 7.59375 6.484375 
z
" id="CMSY10-48"/>
     <path d="M 64.296875 32 
C 65.796875 32 67.296875 32 67.296875 33.6875 
C 67.296875 35.5 65.59375 35.5 63.90625 35.5 
L 8 35.5 
C 6.296875 35.5 4.59375 35.5 4.59375 33.6875 
C 4.59375 32 6.09375 32 7.59375 32 
z
M 63.90625 14.484375 
C 65.59375 14.484375 67.296875 14.484375 67.296875 16.296875 
C 67.296875 18 65.796875 18 64.296875 18 
L 7.59375 18 
C 6.09375 18 4.59375 18 4.59375 16.296875 
C 4.59375 14.484375 6.296875 14.484375 8 14.484375 
z
" id="CMR17-61"/>
    </defs>
    <g transform="translate(798.72 62.109988)scale(0.12 -0.12)">
     <use transform="translate(0 24.740171)scale(0.996264)" xlink:href="#CMMI12-12"/>
     <use transform="translate(60.594016 60.89381)scale(0.697382)" xlink:href="#CMSY10-48"/>
     <use transform="translate(55.070737 0)scale(0.697382)" xlink:href="#CMR17-50"/>
     <use transform="translate(87.552051 24.740171)scale(0.996264)" xlink:href="#CMR17-61"/>
     <use transform="translate(159.266839 24.740171)scale(0.996264)" xlink:href="#CMR17-50"/>
    </g>
   </g>
   <g id="line2d_65">
    <path d="M 765.12 75.631793 
L 789.12 75.631793 
" style="fill:none;stroke:#ff7f0e;stroke-linecap:square;stroke-width:1.5;"/>
   </g>
   <g id="line2d_66"/>
   <g id="text_56">
    <!-- $\beta_2'$=6.15 -->
    <defs>
     <path d="M 16.59375 4.09375 
C 16.59375 6.59375 14.59375 8.1875 12.5 8.1875 
C 10.5 8.1875 8.40625 6.59375 8.40625 4.09375 
C 8.40625 1.59375 10.40625 0 12.5 0 
C 14.5 0 16.59375 1.59375 16.59375 4.09375 
z
" id="CMR17-46"/>
    </defs>
    <g transform="translate(798.72 79.831793)scale(0.12 -0.12)">
     <use transform="translate(0 24.740171)scale(0.996264)" xlink:href="#CMMI12-12"/>
     <use transform="translate(60.594016 60.89381)scale(0.697382)" xlink:href="#CMSY10-48"/>
     <use transform="translate(55.070737 0)scale(0.697382)" xlink:href="#CMR17-50"/>
     <use transform="translate(87.552051 24.740171)scale(0.996264)" xlink:href="#CMR17-61"/>
     <use transform="translate(159.266839 24.740171)scale(0.996264)" xlink:href="#CMR17-54"/>
     <use transform="translate(204.957316 24.740171)scale(0.996264)" xlink:href="#CMR17-46"/>
     <use transform="translate(229.828375 24.740171)scale(0.996264)" xlink:href="#CMR17-49"/>
     <use transform="translate(275.518852 24.740171)scale(0.996264)" xlink:href="#CMR17-53"/>
    </g>
   </g>
   <g id="line2d_67">
    <path d="M 765.12 93.353599 
L 789.12 93.353599 
" style="fill:none;stroke:#2ca02c;stroke-linecap:square;stroke-width:1.5;"/>
   </g>
   <g id="line2d_68"/>
   <g id="text_57">
    <!-- $\beta_2'$=15 -->
    <g transform="translate(798.72 97.553599)scale(0.12 -0.12)">
     <use transform="translate(0 24.740171)scale(0.996264)" xlink:href="#CMMI12-12"/>
     <use transform="translate(60.594016 60.89381)scale(0.697382)" xlink:href="#CMSY10-48"/>
     <use transform="translate(55.070737 0)scale(0.697382)" xlink:href="#CMR17-50"/>
     <use transform="translate(87.552051 24.740171)scale(0.996264)" xlink:href="#CMR17-61"/>
     <use transform="translate(159.266839 24.740171)scale(0.996264)" xlink:href="#CMR17-49"/>
     <use transform="translate(204.957316 24.740171)scale(0.996264)" xlink:href="#CMR17-53"/>
    </g>
   </g>
   <g id="line2d_69">
    <path d="M 765.12 111.075404 
L 789.12 111.075404 
" style="fill:none;stroke:#d62728;stroke-linecap:square;stroke-width:1.5;"/>
   </g>
   <g id="line2d_70"/>
   <g id="text_58">
    <!-- $\beta_2'$=40 -->
    <defs>
     <path d="M 33.59375 64.796875 
C 33.59375 66.890625 33.5 67 31.703125 67 
L 2 19.59375 
L 2 17 
L 27.796875 17 
L 27.796875 7.1875 
C 27.796875 3.59375 27.59375 2.59375 20.59375 2.59375 
L 18.703125 2.59375 
L 18.703125 0 
C 21.90625 0.1875 27.296875 0.1875 30.703125 0.1875 
C 34.09375 0.1875 39.5 0.1875 42.703125 0 
L 42.703125 2.59375 
L 40.796875 2.59375 
C 33.796875 2.59375 33.59375 3.59375 33.59375 7.1875 
L 33.59375 17 
L 43.796875 17 
L 43.796875 19.59375 
L 33.59375 19.59375 
z
M 28.09375 58.171875 
L 28.09375 19.59375 
L 4 19.59375 
z
" id="CMR17-52"/>
    </defs>
    <g transform="translate(798.72 115.275404)scale(0.12 -0.12)">
     <use transform="translate(0 24.740171)scale(0.996264)" xlink:href="#CMMI12-12"/>
     <use transform="translate(60.594016 60.89381)scale(0.697382)" xlink:href="#CMSY10-48"/>
     <use transform="translate(55.070737 0)scale(0.697382)" xlink:href="#CMR17-50"/>
     <use transform="translate(87.552051 24.740171)scale(0.996264)" xlink:href="#CMR17-61"/>
     <use transform="translate(159.266839 24.740171)scale(0.996264)" xlink:href="#CMR17-52"/>
     <use transform="translate(204.957316 24.740171)scale(0.996264)" xlink:href="#CMR17-48"/>
    </g>
   </g>
  </g>
 </g>
 <defs>
  <clipPath id="pdfe1e2e230">
   <rect height="117.738202" width="345.321651" x="81.982336" y="16.334794"/>
  </clipPath>
  <clipPath id="pfd049db82d">
   <rect height="117.738202" width="345.321651" x="507.878349" y="16.334794"/>
  </clipPath>
  <clipPath id="p5c916855d6">
   <rect height="117.738202" width="345.321651" x="81.982336" y="190.351369"/>
  </clipPath>
  <clipPath id="p7932e595ce">
   <rect height="117.738202" width="345.321651" x="507.878349" y="190.351369"/>
  </clipPath>
  <clipPath id="pd8cf5634a7">
   <rect height="86.698131" width="56.507179" x="361.796808" y="25.334794"/>
  </clipPath>
 </defs>
</svg>
