<?xml version="1.0" encoding="utf-8" standalone="no"?>
<!DOCTYPE svg PUBLIC "-//W3C//DTD SVG 1.1//EN"
  "http://www.w3.org/Graphics/SVG/1.1/DTD/svg11.dtd">
<!-- Created with matplotlib (https://matplotlib.org/) -->
<svg height="360pt" version="1.1" viewBox="0 0 576 360" width="576pt" xmlns="http://www.w3.org/2000/svg" xmlns:xlink="http://www.w3.org/1999/xlink">
 <defs>
  <style type="text/css">
*{stroke-linecap:butt;stroke-linejoin:round;}
  </style>
 </defs>
 <g id="figure_1">
  <g id="patch_1">
   <path d="M 0 360 
L 576 360 
L 576 0 
L 0 0 
z
" style="fill:#ffffff;"/>
  </g>
  <g id="axes_1">
   <g id="patch_2">
    <path d="M 41.797103 141.292664 
L 563.499396 141.292664 
L 563.499396 33.702065 
L 41.797103 33.702065 
z
" style="fill:#ffffff;"/>
   </g>
   <g id="matplotlib.axis_1">
    <g id="xtick_1">
     <g id="line2d_1">
      <defs>
       <path d="M 0 0 
L 0 3.5 
" id="mde6f8833ad" style="stroke:#000000;stroke-width:0.8;"/>
      </defs>
      <g>
       <use style="stroke:#000000;stroke-width:0.8;" x="290.576748" xlink:href="#mde6f8833ad" y="141.292664"/>
      </g>
     </g>
     <g id="text_1">
      <!-- $\tau_{2}^\mathrm{^0}$ -->
      <defs>
       <path d="M 28.703125 37.59375 
L 45.296875 37.59375 
C 46.59375 37.59375 49.90625 37.59375 49.90625 40.796875 
C 49.90625 43 48 43 46.203125 43 
L 18.703125 43 
C 16.40625 43 13 43 8.40625 38.09375 
C 5.796875 35.203125 2.59375 29.9375 2.59375 29.34375 
C 2.59375 28.734375 3.09375 28.546875 3.703125 28.546875 
C 4.40625 28.546875 4.5 28.84375 5 29.4375 
C 10.203125 37.59375 15.40625 37.59375 17.90625 37.59375 
L 26.203125 37.59375 
L 15.796875 3.484375 
C 15.296875 1.984375 15.296875 1.78125 15.296875 1.484375 
C 15.296875 0.390625 16 -1 18 -1 
C 21.09375 -1 21.59375 1.6875 21.90625 3.1875 
z
" id="CMMI12-28"/>
       <path d="M 42 31.84375 
C 42 37.96875 41.90625 48.421875 37.703125 56.453125 
C 34 63.484375 28.09375 66 22.90625 66 
C 18.09375 66 12 63.78125 8.203125 56.5625 
C 4.203125 49.015625 3.796875 39.671875 3.796875 31.84375 
C 3.796875 26.109375 3.90625 17.375 7 9.734375 
C 11.296875 -0.609375 19 -2 22.90625 -2 
C 27.5 -2 34.5 -0.109375 38.59375 9.4375 
C 41.59375 16.375 42 24.5 42 31.84375 
z
M 22.90625 -0.40625 
C 16.5 -0.40625 12.703125 5.125 11.296875 12.75 
C 10.203125 18.6875 10.203125 27.328125 10.203125 32.953125 
C 10.203125 40.6875 10.203125 47.109375 11.5 53.234375 
C 13.40625 61.78125 19 64.390625 22.90625 64.390625 
C 27 64.390625 32.296875 61.671875 34.203125 53.4375 
C 35.5 47.71875 35.59375 40.984375 35.59375 32.953125 
C 35.59375 26.421875 35.59375 18.375 34.40625 12.453125 
C 32.296875 1.5 26.40625 -0.40625 22.90625 -0.40625 
z
" id="CMR17-48"/>
       <path d="M 41.703125 15.46875 
L 39.90625 15.46875 
C 38.90625 8.390625 38.09375 7.1875 37.703125 6.59375 
C 37.203125 5.796875 30 5.796875 28.59375 5.796875 
L 9.40625 5.796875 
C 13 9.6875 20 16.765625 28.5 24.9375 
C 34.59375 30.71875 41.703125 37.5 41.703125 47.390625 
C 41.703125 59.1875 32.296875 66 21.796875 66 
C 10.796875 66 4.09375 56.296875 4.09375 47.296875 
C 4.09375 43.390625 7 42.890625 8.203125 42.890625 
C 9.203125 42.890625 12.203125 43.484375 12.203125 46.984375 
C 12.203125 50.09375 9.59375 51 8.203125 51 
C 7.59375 51 7 50.890625 6.59375 50.6875 
C 8.5 59.1875 14.296875 63.390625 20.40625 63.390625 
C 29.09375 63.390625 34.796875 56.5 34.796875 47.390625 
C 34.796875 38.703125 29.703125 31.21875 24 24.734375 
L 4.09375 2.296875 
L 4.09375 0 
L 39.296875 0 
z
" id="CMR17-50"/>
      </defs>
      <g transform="translate(281.561005 171.042663)scale(0.23 -0.23)">
       <use transform="translate(0 24.740171)scale(0.996264)" xlink:href="#CMMI12-28"/>
       <use transform="translate(53.491165 86.201236)scale(0.498132)" xlink:href="#CMR17-48"/>
       <use transform="translate(42.363841 0)scale(0.697382)" xlink:href="#CMR17-50"/>
      </g>
     </g>
    </g>
    <g id="xtick_2">
     <g id="line2d_2">
      <g>
       <use style="stroke:#000000;stroke-width:0.8;" x="184.992617" xlink:href="#mde6f8833ad" y="141.292664"/>
      </g>
     </g>
     <g id="text_2">
      <!-- $\tau_{1}^\mathrm{^0}$ -->
      <defs>
       <path d="M 26.59375 63.796875 
C 26.59375 65.890625 26.5 66 25.09375 66 
C 21.203125 61.359375 15.296875 59.890625 9.703125 59.6875 
C 9.40625 59.6875 8.90625 59.6875 8.796875 59.5 
C 8.703125 59.296875 8.703125 59.09375 8.703125 57 
C 11.796875 57 17 57.59375 21 59.984375 
L 21 7.296875 
C 21 3.796875 20.796875 2.59375 12.203125 2.59375 
L 9.203125 2.59375 
L 9.203125 0 
C 14 0.09375 19 0.1875 23.796875 0.1875 
C 28.59375 0.1875 33.59375 0.09375 38.40625 0 
L 38.40625 2.59375 
L 35.40625 2.59375 
C 26.796875 2.59375 26.59375 3.6875 26.59375 7.296875 
z
" id="CMR17-49"/>
      </defs>
      <g transform="translate(175.976873 171.042663)scale(0.23 -0.23)">
       <use transform="translate(0 24.740171)scale(0.996264)" xlink:href="#CMMI12-28"/>
       <use transform="translate(53.491165 86.201236)scale(0.498132)" xlink:href="#CMR17-48"/>
       <use transform="translate(42.363841 0)scale(0.697382)" xlink:href="#CMR17-49"/>
      </g>
     </g>
    </g>
    <g id="xtick_3">
     <g id="line2d_3">
      <g>
       <use style="stroke:#000000;stroke-width:0.8;" x="317.085433" xlink:href="#mde6f8833ad" y="141.292664"/>
      </g>
     </g>
     <g id="text_3">
      <!-- $\tau_2$ -->
      <g transform="translate(308.287234 164.205206)scale(0.23 -0.23)">
       <use transform="translate(0 14.943915)scale(0.996264)" xlink:href="#CMMI12-28"/>
       <use transform="translate(42.363841 0)scale(0.697382)" xlink:href="#CMR17-50"/>
      </g>
     </g>
    </g>
    <g id="text_4">
     <!-- $t$ -->
     <defs>
      <path d="M 20.09375 40.09375 
L 29.296875 40.09375 
C 31.203125 40.09375 32.203125 40.09375 32.203125 41.890625 
C 32.203125 43 31.59375 43 29.59375 43 
L 20.796875 43 
L 24.5 57.25 
C 24.90625 58.625 24.90625 58.8125 24.90625 59.5 
C 24.90625 61.09375 23.59375 62 22.296875 62 
C 21.5 62 19.203125 61.6875 18.40625 58.53125 
L 14.5 43 
L 5.09375 43 
C 3.09375 43 2.203125 43 2.203125 41.09375 
C 2.203125 40.09375 2.90625 40.09375 4.796875 40.09375 
L 13.703125 40.09375 
L 7.09375 13.765625 
C 6.296875 10.265625 6 9.265625 6 7.96875 
C 6 3.28125 9.296875 -1 14.90625 -1 
C 25 -1 30.40625 13.5625 30.40625 14.265625 
C 30.40625 14.859375 30 15.15625 29.40625 15.15625 
C 29.203125 15.15625 28.796875 15.15625 28.59375 14.75 
C 28.5 14.65625 28.40625 14.5625 27.703125 12.96875 
C 25.59375 7.96875 21 1 15.203125 1 
C 12.203125 1 12 3.484375 12 5.6875 
C 12 5.78125 12 7.671875 12.296875 8.875 
z
" id="CMMI12-116"/>
     </defs>
     <g transform="translate(552.117769 166.583322)scale(0.35 -0.35)">
      <use transform="scale(0.996264)" xlink:href="#CMMI12-116"/>
     </g>
    </g>
   </g>
   <g id="matplotlib.axis_2">
    <g id="text_5">
     <!-- $P_I$ -->
     <defs>
      <path d="M 29.59375 31.59375 
L 46.40625 31.59375 
C 60.203125 31.59375 74 41.765625 74 53.125 
C 74 60.90625 67.40625 68 54.796875 68 
L 23.90625 68 
C 22 68 21.09375 68 21.09375 66.09375 
C 21.09375 65.09375 22 65.09375 23.5 65.09375 
C 29.59375 65.09375 29.59375 64.296875 29.59375 63.203125 
C 29.59375 63 29.59375 62.40625 29.203125 60.90625 
L 15.703125 7.359375 
C 14.796875 3.890625 14.59375 2.890625 7.59375 2.890625 
C 5.703125 2.890625 4.703125 2.890625 4.703125 1.09375 
C 4.703125 0 5.59375 0 6.203125 0 
C 8.09375 0 10.09375 0.1875 12 0.1875 
L 23.703125 0.1875 
C 25.59375 0.1875 27.703125 0 29.59375 0 
C 30.40625 0 31.5 0 31.5 1.890625 
C 31.5 2.890625 30.59375 2.890625 29.09375 2.890625 
C 23.09375 2.890625 23 3.59375 23 4.578125 
C 23 5.078125 23.09375 5.765625 23.203125 6.265625 
z
M 36.796875 61.203125 
C 37.703125 64.890625 38.09375 65.09375 42 65.09375 
L 51.90625 65.09375 
C 59.40625 65.09375 65.59375 62.703125 65.59375 55.21875 
C 65.59375 52.640625 64.296875 44.15625 59.703125 39.578125 
C 58 37.78125 53.203125 34 44.09375 34 
L 30 34 
z
" id="CMMI12-80"/>
      <path d="M 36.796875 60.609375 
C 37.703125 64.09375 37.90625 65.09375 45.203125 65.09375 
C 47.40625 65.09375 48.203125 65.09375 48.203125 66.984375 
C 48.203125 68 47.09375 68 46.796875 68 
C 45 68 42.796875 67.796875 41 67.796875 
L 28.703125 67.796875 
C 26.703125 67.796875 24.40625 68 22.40625 68 
C 21.59375 68 20.5 68 20.5 66.09375 
C 20.5 65.09375 21.296875 65.09375 23.296875 65.09375 
C 29.5 65.09375 29.5 64.296875 29.5 63.203125 
C 29.5 62.5 29.296875 61.90625 29.09375 61.015625 
L 15.59375 7.375 
C 14.703125 3.890625 14.5 2.890625 7.203125 2.890625 
C 5 2.890625 4.09375 2.890625 4.09375 1 
C 4.09375 0 5.09375 0 5.59375 0 
C 7.40625 0 9.59375 0.1875 11.40625 0.1875 
L 23.703125 0.1875 
C 25.703125 0.1875 27.90625 0 29.90625 0 
C 30.703125 0 31.90625 0 31.90625 1.796875 
C 31.90625 2.890625 31.296875 2.890625 29.09375 2.890625 
C 22.90625 2.890625 22.90625 3.6875 22.90625 4.875 
C 22.90625 5.078125 22.90625 5.578125 23.296875 7.171875 
z
" id="CMMI12-73"/>
     </defs>
     <g transform="translate(35.014752 51.05192)rotate(-90)scale(0.35 -0.35)">
      <use transform="translate(0 14.943915)scale(0.996264)" xlink:href="#CMMI12-80"/>
      <use transform="translate(62.877232 0)scale(0.697382)" xlink:href="#CMMI12-73"/>
     </g>
    </g>
   </g>
   <g id="LineCollection_1">
    <path clip-path="url(#p8fa296d294)" d="M 185.519589 141.292664 
L 185.519589 39.482285 
" style="fill:none;stroke:#008000;stroke-dasharray:7.4,3.2;stroke-dashoffset:0;stroke-width:2;"/>
   </g>
   <g id="LineCollection_2">
    <path clip-path="url(#p8fa296d294)" d="M 291.10372 141.292664 
L 291.10372 72.821772 
" style="fill:none;stroke:#0000ff;stroke-dasharray:7.4,3.2;stroke-dashoffset:0;stroke-width:2;"/>
   </g>
   <g id="LineCollection_3">
    <path clip-path="url(#p8fa296d294)" d="M 317.612405 141.292664 
L 317.612405 79.691757 
" style="fill:none;stroke:#000000;stroke-dasharray:7.4,3.2;stroke-dashoffset:0;stroke-width:2;"/>
   </g>
   <g id="line2d_4">
    <path clip-path="url(#p8fa296d294)" d="M 65.510844 140.160131 
L 73.906347 139.5781 
L 80.831452 138.881552 
L 86.76048 138.068024 
L 91.978025 137.1328 
L 96.673815 136.067672 
L 100.942715 134.872552 
L 104.87959 133.539618 
L 108.531871 132.069288 
L 111.946991 130.458389 
L 115.219815 128.670127 
L 118.350342 126.707343 
L 121.386004 124.541832 
L 124.326802 122.173275 
L 127.220168 119.560403 
L 130.113533 116.646766 
L 133.006899 113.414576 
L 135.947697 109.788976 
L 138.935927 105.745337 
L 142.019022 101.19461 
L 145.291845 95.959453 
L 148.896694 89.757452 
L 153.165594 81.942797 
L 166.588914 56.993688 
L 169.387415 52.472501 
L 171.806459 48.9722 
L 173.940909 46.262364 
L 175.88563 44.144916 
L 177.640622 42.549077 
L 179.30075 41.332981 
L 180.866013 40.459847 
L 182.336412 39.888891 
L 183.759379 39.570487 
L 185.134914 39.483335 
L 186.510448 39.612823 
L 187.933415 39.97249 
L 189.403814 40.580695 
L 190.921645 41.453362 
L 192.534341 42.642017 
L 194.289333 44.224825 
L 196.186622 46.250382 
L 198.27364 48.819385 
L 200.597819 52.046879 
L 203.301456 56.202565 
L 206.574279 61.665997 
L 211.222637 69.905383 
L 220.614217 86.616838 
L 224.740821 93.444409 
L 228.34567 98.990567 
L 231.713358 103.774916 
L 234.938749 107.980408 
L 238.116708 111.76121 
L 241.247235 115.140558 
L 244.33033 118.147183 
L 247.460857 120.891311 
L 250.638816 123.380029 
L 253.864207 125.623759 
L 257.184463 127.662724 
L 260.647015 129.525161 
L 264.251864 131.208834 
L 268.046442 132.733203 
L 272.078181 134.110491 
L 276.394513 135.347708 
L 281.090304 136.458731 
L 286.212984 137.439831 
L 291.952283 138.307943 
L 298.450498 139.059733 
L 305.944789 139.696616 
L 314.862047 140.223492 
L 325.866323 140.641265 
L 340.238287 140.952015 
L 360.918737 141.15879 
L 397.156957 141.266637 
L 513.697932 141.29253 
L 539.785655 141.292623 
L 539.785655 141.292623 
" style="fill:none;stroke:#008000;stroke-linecap:square;stroke-width:1.5;"/>
   </g>
   <g id="line2d_5">
    <path clip-path="url(#p8fa296d294)" d="M 65.510844 140.160131 
L 82.539012 139.57896 
L 96.673815 138.879903 
L 108.816465 138.061244 
L 119.488715 137.122703 
L 129.022592 136.065509 
L 137.702689 134.883603 
L 145.718735 133.57113 
L 153.213027 132.120737 
L 160.280428 130.527308 
L 166.968372 128.793366 
L 173.419154 126.891411 
L 179.632776 124.828482 
L 185.7041 122.579639 
L 191.727993 120.11012 
L 197.704453 117.419816 
L 203.775778 114.442191 
L 210.036831 111.12243 
L 216.724775 107.320573 
L 224.266499 102.769978 
L 234.74902 96.156842 
L 247.555721 88.121486 
L 253.959071 84.372677 
L 259.224048 81.540908 
L 263.872406 79.287931 
L 268.141306 77.463635 
L 272.125613 76.001652 
L 275.872759 74.859854 
L 279.477608 73.990027 
L 282.987593 73.369395 
L 286.450145 72.983225 
L 289.865265 72.826316 
L 293.280385 72.89285 
L 296.695505 73.180919 
L 300.20549 73.702832 
L 303.762907 74.457136 
L 307.46262 75.470114 
L 311.352063 76.769243 
L 315.478666 78.386758 
L 319.937295 80.379204 
L 324.870247 82.834842 
L 330.514681 85.901564 
L 337.534651 89.982456 
L 350.10419 97.604186 
L 361.061034 104.130908 
L 368.839919 108.506833 
L 375.765023 112.151239 
L 382.31067 115.348047 
L 388.714021 118.228494 
L 395.022507 120.82388 
L 401.378425 123.198824 
L 407.829207 125.371656 
L 414.422286 127.35825 
L 421.252527 129.183766 
L 428.36736 130.85455 
L 435.861652 132.384432 
L 443.830265 133.78105 
L 452.320634 135.041027 
L 461.522485 136.178589 
L 471.578117 137.193787 
L 482.724689 138.091022 
L 495.246797 138.871114 
L 509.618761 139.538125 
L 526.552065 140.09436 
L 539.785655 140.403955 
L 539.785655 140.403955 
" style="fill:none;stroke:#0000ff;stroke-linecap:square;stroke-width:1.5;"/>
   </g>
   <g id="line2d_6">
    <path clip-path="url(#p8fa296d294)" d="M 65.510844 140.160131 
L 82.681309 139.575821 
L 97.005841 138.871471 
L 109.480516 138.039831 
L 120.721953 137.070187 
L 131.157042 135.948287 
L 141.165242 134.648884 
L 151.078577 133.137311 
L 161.229073 131.363083 
L 171.521865 129.338631 
L 181.292903 127.19457 
L 189.973001 125.067793 
L 197.704453 122.948184 
L 204.819287 120.768334 
L 211.554663 118.473033 
L 218.147742 115.991204 
L 224.788253 113.252308 
L 231.713358 110.15121 
L 239.255082 106.524205 
L 248.504365 101.815225 
L 269.137383 91.223253 
L 275.493301 88.269291 
L 280.900575 85.995171 
L 285.738662 84.195975 
L 290.244723 82.754878 
L 294.466191 81.634787 
L 298.545362 80.781932 
L 302.482237 80.185497 
L 306.324247 79.826518 
L 310.118825 79.692955 
L 313.913403 79.780327 
L 317.755413 80.091904 
L 321.644855 80.630597 
L 325.629162 81.406241 
L 329.803198 82.448085 
L 334.166963 83.769 
L 338.815321 85.410382 
L 343.890569 87.442013 
L 349.582436 89.96514 
L 356.365244 93.225007 
L 365.709392 97.985386 
L 385.678358 108.212953 
L 394.073862 112.219694 
L 401.615586 115.574212 
L 408.777852 118.517282 
L 415.750389 121.143445 
L 422.722926 123.531846 
L 429.742895 125.701267 
L 436.905161 127.681858 
L 444.304588 129.496249 
L 451.988608 131.150524 
L 460.052086 132.658156 
L 468.637319 134.034325 
L 477.791738 135.274034 
L 487.705073 136.389132 
L 498.567052 137.383127 
L 510.614837 138.257761 
L 524.180454 139.015084 
L 539.785655 139.658712 
L 539.785655 139.658712 
" style="fill:none;stroke:#000000;stroke-linecap:square;stroke-width:1.5;"/>
   </g>
   <g id="patch_3">
    <path d="M 41.797103 141.292664 
L 41.797103 33.702065 
" style="fill:none;stroke:#000000;stroke-linecap:square;stroke-linejoin:miter;stroke-width:0.8;"/>
   </g>
   <g id="patch_4">
    <path d="M 41.797103 141.292664 
L 563.499396 141.292664 
" style="fill:none;stroke:#000000;stroke-linecap:square;stroke-linejoin:miter;stroke-width:0.8;"/>
   </g>
   <g id="PathCollection_1">
    <defs>
     <path d="M 0 3 
C 0.795609 3 1.55874 2.683901 2.12132 2.12132 
C 2.683901 1.55874 3 0.795609 3 0 
C 3 -0.795609 2.683901 -1.55874 2.12132 -2.12132 
C 1.55874 -2.683901 0.795609 -3 0 -3 
C -0.795609 -3 -1.55874 -2.683901 -2.12132 -2.12132 
C -2.683901 -1.55874 -3 -0.795609 -3 0 
C -3 0.795609 -2.683901 1.55874 -2.12132 2.12132 
C -1.55874 2.683901 -0.795609 3 0 3 
z
" id="m961cc07cae" style="stroke:#ff0000;"/>
    </defs>
    <g clip-path="url(#p8fa296d294)">
     <use style="fill:#ff0000;stroke:#ff0000;" x="184.992617" xlink:href="#m961cc07cae" y="39.482285"/>
    </g>
   </g>
   <g id="PathCollection_2">
    <g clip-path="url(#p8fa296d294)">
     <use style="fill:#ff0000;stroke:#ff0000;" x="290.576748" xlink:href="#m961cc07cae" y="72.821772"/>
    </g>
   </g>
   <g id="PathCollection_3">
    <g clip-path="url(#p8fa296d294)">
     <use style="fill:#ff0000;stroke:#ff0000;" x="317.085433" xlink:href="#m961cc07cae" y="79.691757"/>
    </g>
   </g>
   <g id="text_6">
    <!-- $P_{I_{2},\mathrm{max}}^\mathrm{^0}$ -->
    <defs>
     <path d="M 19.5 -0.40625 
C 19.5 5.390625 17.59375 9.6875 13.5 9.6875 
C 10.296875 9.6875 8.703125 7.09375 8.703125 4.890625 
C 8.703125 2.6875 10.203125 0 13.59375 0 
C 14.90625 0 16 0.390625 16.90625 1.296875 
C 17.09375 1.5 17.203125 1.5 17.296875 1.5 
C 17.5 1.5 17.5 0.09375 17.5 -0.40625 
C 17.5 -3.640625 16.90625 -10.03125 11.09375 -16.421875 
C 10 -17.609375 10 -17.8125 10 -18 
C 10 -18.5 10.5 -19 11 -19 
C 11.796875 -19 19.5 -11.703125 19.5 -0.40625 
z
" id="CMMI12-59"/>
     <path d="M 67.59375 30.53125 
C 67.59375 35.5625 66.703125 44 54.796875 44 
C 48 44 43.296875 39.375 41.5 33.953125 
L 41.40625 33.953125 
C 40.203125 42.1875 34.296875 44 28.703125 44 
C 20.796875 44 16.703125 37.875 15.203125 33.84375 
L 15.09375 33.84375 
L 15.09375 44 
L 3.296875 42.890625 
L 3.296875 40.28125 
C 9.203125 40.28125 10.09375 39.6875 10.09375 34.859375 
L 10.09375 6.921875 
C 10.09375 3.09375 9.703125 2.59375 3.296875 2.59375 
L 3.296875 0 
C 5.703125 0.1875 10.09375 0.1875 12.703125 0.1875 
C 15.296875 0.1875 19.796875 0.1875 22.203125 0 
L 22.203125 2.59375 
C 15.796875 2.59375 15.40625 3 15.40625 6.921875 
L 15.40625 26.21875 
C 15.40625 35.453125 21 42.390625 28 42.390625 
C 35.40625 42.390625 36.203125 35.765625 36.203125 30.9375 
L 36.203125 6.921875 
C 36.203125 3.09375 35.796875 2.59375 29.40625 2.59375 
L 29.40625 0 
C 31.796875 0.1875 36.203125 0.1875 38.796875 0.1875 
C 41.40625 0.1875 45.90625 0.1875 48.296875 0 
L 48.296875 2.59375 
C 41.90625 2.59375 41.5 3 41.5 6.921875 
L 41.5 26.21875 
C 41.5 35.453125 47.09375 42.390625 54.09375 42.390625 
C 61.5 42.390625 62.296875 35.765625 62.296875 30.9375 
L 62.296875 6.921875 
C 62.296875 3.09375 61.90625 2.59375 55.5 2.59375 
L 55.5 0 
C 57.90625 0.1875 62.296875 0.1875 64.90625 0.1875 
C 67.5 0.1875 72 0.1875 74.40625 0 
L 74.40625 2.59375 
C 68 2.59375 67.59375 3 67.59375 6.921875 
z
" id="CMR17-109"/>
     <path d="M 36 25.875 
C 36 32 36 35.546875 31.796875 39.59375 
C 28.09375 42.984375 23.796875 44 20.40625 44 
C 12.5 44 6.796875 37.625 6.796875 30.890625 
C 6.796875 27.1875 9.796875 27 10.40625 27 
C 11.703125 27 14 27.796875 14 30.59375 
C 14 33.09375 12.09375 34.1875 10.40625 34.1875 
C 10 34.1875 9.5 34.09375 9.203125 34 
C 11.296875 40.53125 16.703125 42.390625 20.203125 42.390625 
C 25.203125 42.390625 30.703125 37.828125 30.703125 29.296875 
L 30.703125 25.5 
C 24.796875 25.296875 17.703125 24.5 12.09375 21.453125 
C 5.796875 17.921875 4 12.84375 4 9 
C 4 1.203125 13 -1 18.296875 -1 
C 23.796875 -1 28.90625 2.109375 31.09375 7.890625 
C 31.296875 3.421875 34.09375 -0.609375 38.5 -0.609375 
C 40.59375 -0.609375 45.90625 0.796875 45.90625 8.796875 
L 45.90625 14.46875 
L 44.09375 14.46875 
L 44.09375 8.703125 
C 44.09375 2.515625 41.40625 1.703125 40.09375 1.703125 
C 36 1.703125 36 6.96875 36 11.4375 
z
M 30.703125 13.859375 
C 30.703125 5.046875 24.5 0.59375 19 0.59375 
C 14 0.59375 10.09375 4.34375 10.09375 9 
C 10.09375 12.046875 11.40625 17.40625 17.203125 20.65625 
C 22 23.390625 27.5 23.796875 30.703125 24 
z
" id="CMR17-97"/>
     <path d="M 26 23.296875 
C 29 27.1875 32.40625 31.59375 35.203125 34.890625 
C 38.5 38.6875 42.296875 40.296875 46.703125 40.390625 
L 46.703125 43 
C 45 42.890625 41.5 42.796875 39.703125 42.796875 
C 37 42.796875 33.90625 42.796875 31.59375 43 
L 31.59375 40.390625 
C 33 40.1875 33.796875 39.1875 33.796875 37.796875 
C 33.796875 36 32.796875 34.890625 32.296875 34.1875 
L 24.90625 24.796875 
L 16.09375 36.296875 
C 15.203125 37.390625 15.203125 37.59375 15.203125 38.09375 
C 15.203125 39.296875 16.203125 40.296875 17.90625 40.390625 
L 17.90625 43 
C 15.5 42.796875 11.203125 42.796875 8.703125 42.796875 
C 6 42.796875 2.796875 42.796875 0.59375 43 
L 0.59375 40.390625 
C 6 40.390625 7.203125 40 9.59375 37 
L 21.09375 22.09375 
C 21.296875 21.890625 21.796875 21.296875 21.796875 21 
C 21.796875 20.59375 13.09375 9.890625 12 8.5 
C 7.5 3.09375 2.796875 2.6875 0.09375 2.59375 
L 0.09375 0 
C 1.796875 0.09375 5.296875 0.1875 7.09375 0.1875 
C 9.09375 0.1875 13.5 0.1875 15.296875 0 
L 15.296875 2.59375 
C 14.703125 2.6875 13.09375 2.890625 13.09375 5.1875 
C 13.09375 7 13.90625 8.09375 14.796875 9.296875 
L 23.09375 19.5 
L 31.796875 8.1875 
C 32.59375 7.09375 33.796875 5.59375 33.796875 4.890625 
C 33.796875 3.5 32.59375 2.6875 31 2.59375 
L 31 0 
C 33.40625 0.1875 37.703125 0.1875 40.203125 0.1875 
C 42.90625 0.1875 46.09375 0.1875 48.296875 0 
L 48.296875 2.59375 
C 43.296875 2.59375 41.796875 2.796875 39.40625 5.890625 
z
" id="CMR17-120"/>
    </defs>
    <g transform="translate(243.149267 67.159108)scale(0.2 -0.2)">
     <use transform="translate(0 37.901266)scale(0.996264)" xlink:href="#CMMI12-80"/>
     <use transform="translate(76.425821 99.362331)scale(0.498132)" xlink:href="#CMR17-48"/>
     <use transform="translate(62.877232 10.460696)scale(0.697382)" xlink:href="#CMMI12-73"/>
     <use transform="translate(92.994015 0)scale(0.498132)" xlink:href="#CMR17-50"/>
     <use transform="translate(116.337386 10.460696)scale(0.697382)" xlink:href="#CMMI12-59"/>
     <use transform="translate(135.305319 10.460696)scale(0.697382)" xlink:href="#CMR17-109"/>
     <use transform="translate(189.148785 10.460696)scale(0.697382)" xlink:href="#CMR17-97"/>
     <use transform="translate(221.131967 10.460696)scale(0.697382)" xlink:href="#CMR17-120"/>
    </g>
   </g>
   <g id="text_7">
    <!-- $P_{I_{1},\mathrm{max}}^\mathrm{^0}$ -->
    <g transform="translate(145.469716 33.819622)scale(0.2 -0.2)">
     <use transform="translate(0 37.901266)scale(0.996264)" xlink:href="#CMMI12-80"/>
     <use transform="translate(76.425821 99.362331)scale(0.498132)" xlink:href="#CMR17-48"/>
     <use transform="translate(62.877232 10.460696)scale(0.697382)" xlink:href="#CMMI12-73"/>
     <use transform="translate(92.994015 0)scale(0.498132)" xlink:href="#CMR17-49"/>
     <use transform="translate(116.337386 10.460696)scale(0.697382)" xlink:href="#CMMI12-59"/>
     <use transform="translate(135.305319 10.460696)scale(0.697382)" xlink:href="#CMR17-109"/>
     <use transform="translate(189.148785 10.460696)scale(0.697382)" xlink:href="#CMR17-97"/>
     <use transform="translate(221.131967 10.460696)scale(0.697382)" xlink:href="#CMR17-120"/>
    </g>
   </g>
   <g id="text_8">
    <!-- $P_{I_{2},\mathrm{max}}$ -->
    <g transform="translate(303.911133 74.029094)scale(0.2 -0.2)">
     <use transform="translate(0 25.404611)scale(0.996264)" xlink:href="#CMMI12-80"/>
     <use transform="translate(62.877232 10.460696)scale(0.697382)" xlink:href="#CMMI12-73"/>
     <use transform="translate(92.994015 0)scale(0.498132)" xlink:href="#CMR17-50"/>
     <use transform="translate(116.337386 10.460696)scale(0.697382)" xlink:href="#CMMI12-59"/>
     <use transform="translate(135.305319 10.460696)scale(0.697382)" xlink:href="#CMR17-109"/>
     <use transform="translate(189.148785 10.460696)scale(0.697382)" xlink:href="#CMR17-97"/>
     <use transform="translate(221.131967 10.460696)scale(0.697382)" xlink:href="#CMR17-120"/>
    </g>
   </g>
   <g id="legend_1">
    <g id="patch_5">
     <path d="M 410.988708 114.395014 
L 520.722678 114.395014 
Q 524.722678 114.395014 524.722678 110.395014 
L 524.722678 9.802505 
Q 524.722678 5.802505 520.722678 5.802505 
L 410.988708 5.802505 
Q 406.988708 5.802505 406.988708 9.802505 
L 406.988708 110.395014 
Q 406.988708 114.395014 410.988708 114.395014 
z
" style="fill:#ffffff;opacity:0.8;stroke:#cccccc;stroke-linejoin:miter;"/>
    </g>
    <g id="line2d_7">
     <path d="M 414.988708 29.219662 
L 454.988708 29.219662 
" style="fill:none;stroke:#008000;stroke-linecap:square;stroke-width:1.5;"/>
    </g>
    <g id="line2d_8"/>
    <g id="text_9">
     <!-- $P_{I_1}^\mathrm{^0} (t)$ -->
     <defs>
      <path d="M 30.59375 -24.40625 
C 30.59375 -24.3125 30.59375 -24.109375 30.296875 -23.8125 
C 25.703125 -19.109375 13.40625 -6.296875 13.40625 24.9375 
C 13.40625 56.171875 25.5 68.875 30.40625 73.890625 
C 30.40625 73.984375 30.59375 74.1875 30.59375 74.484375 
C 30.59375 74.796875 30.296875 75 29.90625 75 
C 28.796875 75 20.296875 67.578125 15.40625 56.5625 
C 10.40625 45.453125 9 34.65625 9 25.046875 
C 9 17.828125 9.703125 5.625 15.703125 -7.296875 
C 20.5 -17.703125 28.703125 -25 29.90625 -25 
C 30.40625 -25 30.59375 -24.8125 30.59375 -24.40625 
z
" id="CMR17-40"/>
      <path d="M 26.296875 24.9375 
C 26.296875 32.140625 25.59375 44.359375 19.59375 57.265625 
C 14.796875 67.6875 6.59375 75 5.40625 75 
C 5.09375 75 4.703125 74.890625 4.703125 74.390625 
C 4.703125 74.1875 4.796875 74.09375 4.90625 73.890625 
C 9.703125 68.875 21.90625 56.171875 21.90625 25.046875 
C 21.90625 -6.1875 9.796875 -18.90625 4.90625 -23.90625 
C 4.796875 -24.109375 4.703125 -24.203125 4.703125 -24.40625 
C 4.703125 -24.90625 5.09375 -25 5.40625 -25 
C 6.5 -25 15 -17.609375 19.90625 -6.59375 
C 24.90625 4.515625 26.296875 15.328125 26.296875 24.9375 
z
" id="CMR17-41"/>
     </defs>
     <g transform="translate(470.988708 36.219662)scale(0.2 -0.2)">
      <use transform="translate(0 37.901266)scale(0.996264)" xlink:href="#CMMI12-80"/>
      <use transform="translate(76.425821 99.362331)scale(0.498132)" xlink:href="#CMR17-48"/>
      <use transform="translate(62.877232 10.460696)scale(0.697382)" xlink:href="#CMMI12-73"/>
      <use transform="translate(92.994015 0)scale(0.498132)" xlink:href="#CMR17-49"/>
      <use transform="translate(116.835518 37.901266)scale(0.996264)" xlink:href="#CMR17-40"/>
      <use transform="translate(152.116286 37.901266)scale(0.996264)" xlink:href="#CMMI12-116"/>
      <use transform="translate(187.342616 37.901266)scale(0.996264)" xlink:href="#CMR17-41"/>
     </g>
    </g>
    <g id="line2d_9">
     <path d="M 414.988708 65.512452 
L 454.988708 65.512452 
" style="fill:none;stroke:#0000ff;stroke-linecap:square;stroke-width:1.5;"/>
    </g>
    <g id="line2d_10"/>
    <g id="text_10">
     <!-- $P_{I_2}^\mathrm{^0} (t)$ -->
     <g transform="translate(470.988708 72.512452)scale(0.2 -0.2)">
      <use transform="translate(0 37.901266)scale(0.996264)" xlink:href="#CMMI12-80"/>
      <use transform="translate(76.425821 99.362331)scale(0.498132)" xlink:href="#CMR17-48"/>
      <use transform="translate(62.877232 10.460696)scale(0.697382)" xlink:href="#CMMI12-73"/>
      <use transform="translate(92.994015 0)scale(0.498132)" xlink:href="#CMR17-50"/>
      <use transform="translate(116.835518 37.901266)scale(0.996264)" xlink:href="#CMR17-40"/>
      <use transform="translate(152.116286 37.901266)scale(0.996264)" xlink:href="#CMMI12-116"/>
      <use transform="translate(187.342616 37.901266)scale(0.996264)" xlink:href="#CMR17-41"/>
     </g>
    </g>
    <g id="line2d_11">
     <path d="M 414.988708 95.519381 
L 454.988708 95.519381 
" style="fill:none;stroke:#000000;stroke-linecap:square;stroke-width:1.5;"/>
    </g>
    <g id="line2d_12"/>
    <g id="text_11">
     <!-- $P_{I_2} (t)$ -->
     <g transform="translate(470.988708 102.519381)scale(0.2 -0.2)">
      <use transform="translate(0 25.404611)scale(0.996264)" xlink:href="#CMMI12-80"/>
      <use transform="translate(62.877232 10.460696)scale(0.697382)" xlink:href="#CMMI12-73"/>
      <use transform="translate(92.994015 0)scale(0.498132)" xlink:href="#CMR17-50"/>
      <use transform="translate(116.835518 25.404611)scale(0.996264)" xlink:href="#CMR17-40"/>
      <use transform="translate(152.116286 25.404611)scale(0.996264)" xlink:href="#CMMI12-116"/>
      <use transform="translate(187.342616 25.404611)scale(0.996264)" xlink:href="#CMR17-41"/>
     </g>
    </g>
   </g>
  </g>
  <g id="axes_2">
   <g id="patch_6">
    <path d="M 41.797103 316.967442 
L 563.499396 316.967442 
L 563.499396 209.376843 
L 41.797103 209.376843 
z
" style="fill:#ffffff;"/>
   </g>
   <g id="matplotlib.axis_3">
    <g id="text_12">
     <!-- $t$ -->
     <g transform="translate(552.117769 342.2581)scale(0.35 -0.35)">
      <use transform="scale(0.996264)" xlink:href="#CMMI12-116"/>
     </g>
    </g>
   </g>
   <g id="matplotlib.axis_4">
    <g id="text_13">
     <!-- $P_R$ -->
     <defs>
      <path d="M 36.796875 61.203125 
C 37.703125 64.890625 38.09375 65.09375 42 65.09375 
L 49.203125 65.09375 
C 57.796875 65.09375 64.203125 62.5 64.203125 54.734375 
C 64.203125 49.640625 61.59375 35 41.5 35 
L 30.203125 35 
z
M 50.703125 33.796875 
C 63.09375 36.484375 72.796875 44.46875 72.796875 53.03125 
C 72.796875 60.8125 64.90625 68 51 68 
L 23.90625 68 
C 21.90625 68 21 68 21 66.09375 
C 21 65.09375 21.703125 65.09375 23.59375 65.09375 
C 29.59375 65.09375 29.59375 64.296875 29.59375 63.203125 
C 29.59375 63 29.59375 62.40625 29.203125 60.90625 
L 15.703125 7.421875 
C 14.796875 3.953125 14.59375 2.96875 7.703125 2.96875 
C 5.40625 2.96875 4.703125 2.96875 4.703125 1.078125 
C 4.703125 0.09375 5.796875 0.09375 6.09375 0.09375 
C 7.90625 0.09375 10 0.296875 11.90625 0.296875 
L 23.703125 0.296875 
C 25.5 0.296875 27.59375 0.09375 29.40625 0.09375 
C 30.203125 0.09375 31.296875 0.09375 31.296875 1.96875 
C 31.296875 2.96875 30.40625 2.96875 28.90625 2.96875 
C 22.796875 2.96875 22.796875 3.765625 22.796875 4.75 
C 22.796875 4.84375 22.796875 5.546875 23 6.328125 
L 29.703125 33 
L 41.703125 33 
C 51.203125 33 53 27.046875 53 23.78125 
C 53 22.28125 52 18.421875 51.296875 15.84375 
C 50.203125 11.296875 49.90625 10.203125 49.90625 8.3125 
C 49.90625 1.28125 55.703125 -2 62.40625 -2 
C 70.5 -2 74 7.828125 74 9.203125 
C 74 9.90625 73.5 10.203125 72.90625 10.203125 
C 72.09375 10.203125 71.90625 9.609375 71.703125 8.8125 
C 69.296875 1.78125 65.203125 0 62.703125 0 
C 60.203125 0 58.59375 1.078125 58.59375 5.546875 
C 58.59375 7.921875 59.796875 16.9375 59.90625 17.4375 
C 60.40625 21.09375 60.40625 21.5 60.40625 22.28125 
C 60.40625 29.515625 54.5 32.59375 50.703125 33.796875 
z
" id="CMMI12-82"/>
     </defs>
     <g transform="translate(35.014752 230.551946)rotate(-90)scale(0.35 -0.35)">
      <use transform="translate(0 14.943915)scale(0.996264)" xlink:href="#CMMI12-80"/>
      <use transform="translate(62.877232 0)scale(0.697382)" xlink:href="#CMMI12-82"/>
     </g>
    </g>
   </g>
   <g id="LineCollection_4">
    <path clip-path="url(#pe63a8147d5)" d="M 65.510844 231.131037 
L 539.785655 231.131037 
" style="fill:none;stroke:#ff0000;stroke-dasharray:5.55,2.4;stroke-dashoffset:0;stroke-width:1.5;"/>
   </g>
   <g id="LineCollection_5">
    <path clip-path="url(#pe63a8147d5)" d="M 65.510844 214.267325 
L 539.785655 214.267325 
" style="fill:none;stroke:#ff0000;stroke-dasharray:5.55,2.4;stroke-dashoffset:0;stroke-width:1.5;"/>
   </g>
   <g id="line2d_13">
    <path clip-path="url(#pe63a8147d5)" d="M 65.510844 312.076961 
L 95.345713 311.729146 
L 117.022239 311.263206 
L 134.192705 310.67913 
L 148.517236 309.975497 
L 160.897047 309.149674 
L 171.853891 308.200339 
L 181.767226 307.121873 
L 190.874213 305.910653 
L 199.364581 304.559949 
L 207.380627 303.062084 
L 215.064647 301.401287 
L 222.511506 299.564061 
L 229.768637 297.545272 
L 236.978335 295.308917 
L 244.235465 292.824154 
L 251.682324 290.03712 
L 259.508641 286.866591 
L 268.046442 283.161467 
L 278.054641 278.565472 
L 294.181598 270.871359 
L 308.980452 263.905494 
L 318.609193 259.617657 
L 327.004697 256.117658 
L 334.831014 253.092844 
L 342.372738 250.414943 
L 349.772165 248.022069 
L 357.171592 245.861909 
L 364.665883 243.905309 
L 372.349903 242.129334 
L 380.318517 240.517134 
L 388.666589 239.057259 
L 397.488982 237.742589 
L 406.927995 236.563626 
L 417.173355 235.512045 
L 428.414793 234.586214 
L 440.9369 233.7823 
L 455.213999 233.093899 
L 471.86271 232.519946 
L 492.021405 232.055924 
L 517.587374 231.700919 
L 539.785655 231.521415 
L 539.785655 231.521415 
" style="fill:none;stroke:#0000ff;stroke-linecap:square;stroke-width:1.5;"/>
   </g>
   <g id="line2d_14">
    <path clip-path="url(#pe63a8147d5)" d="M 65.510844 312.076961 
L 81.732664 311.756665 
L 93.163831 311.317432 
L 102.033657 310.761999 
L 109.385651 310.084095 
L 115.646705 309.288911 
L 121.148843 308.371798 
L 126.129227 307.319462 
L 130.68272 306.132183 
L 134.904188 304.803992 
L 138.888495 303.31849 
L 142.683073 301.667126 
L 146.335354 299.836328 
L 149.892771 297.806055 
L 153.402756 295.548687 
L 156.91274 293.028426 
L 160.517589 290.161903 
L 164.217303 286.930778 
L 168.106745 283.23442 
L 172.375645 278.861428 
L 177.308597 273.476486 
L 184.281134 265.499249 
L 194.336765 254.025437 
L 199.412013 248.58982 
L 203.775778 244.235476 
L 207.807517 240.522995 
L 211.649527 237.285961 
L 215.349241 234.454624 
L 219.048954 231.902486 
L 222.748668 229.621195 
L 226.495813 227.572762 
L 230.337823 225.727603 
L 234.32213 224.06381 
L 238.448734 222.581728 
L 242.812499 221.250451 
L 247.508289 220.052977 
L 252.583537 218.991521 
L 258.133107 218.060376 
L 264.346728 217.247142 
L 271.41413 216.551427 
L 279.667337 215.968884 
L 289.628104 215.497197 
L 302.197643 215.134901 
L 319.320676 214.878269 
L 346.025019 214.723744 
L 403.797468 214.662544 
L 539.785655 214.657703 
L 539.785655 214.657703 
" style="fill:none;stroke:#008000;stroke-linecap:square;stroke-width:1.5;"/>
   </g>
   <g id="line2d_15">
    <path clip-path="url(#pe63a8147d5)" d="M 65.510844 312.076961 
L 95.393145 311.728838 
L 117.259401 311.26051 
L 134.809324 310.669078 
L 149.845339 309.944525 
L 163.31609 309.076019 
L 175.790765 308.051488 
L 187.506525 306.868721 
L 198.463369 305.542127 
L 208.661297 304.086045 
L 218.147742 302.508982 
L 227.017568 300.811862 
L 235.460504 298.972523 
L 243.618846 296.968971 
L 251.634892 294.77096 
L 259.603506 292.354528 
L 267.666984 289.676573 
L 276.062488 286.652539 
L 285.122043 283.149322 
L 295.604564 278.848871 
L 310.925173 272.292231 
L 329.518605 264.384814 
L 339.953694 260.195237 
L 349.013249 256.79374 
L 357.456185 253.859662 
L 365.567095 251.275249 
L 373.535709 248.968171 
L 381.551755 246.879518 
L 389.662665 244.996664 
L 398.010737 243.28863 
L 406.643402 241.750132 
L 415.750389 240.355306 
L 425.37913 239.107347 
L 435.766787 237.988379 
L 447.055657 236.999378 
L 459.530332 236.133339 
L 473.57027 235.38587 
L 489.744659 234.753087 
L 508.907277 234.232966 
L 532.575957 233.8224 
L 539.785655 233.733157 
L 539.785655 233.733157 
" style="fill:none;stroke:#000000;stroke-linecap:square;stroke-width:1.5;"/>
   </g>
   <g id="patch_7">
    <path d="M 41.797103 316.967442 
L 41.797103 209.376843 
" style="fill:none;stroke:#000000;stroke-linecap:square;stroke-linejoin:miter;stroke-width:0.8;"/>
   </g>
   <g id="patch_8">
    <path d="M 41.797103 316.967442 
L 563.499396 316.967442 
" style="fill:none;stroke:#000000;stroke-linecap:square;stroke-linejoin:miter;stroke-width:0.8;"/>
   </g>
   <g id="text_14">
    <!-- $P_{R_2}^\mathrm{^0} (\infty) $ -->
    <defs>
     <path d="M 50.796875 27.125 
C 45.40625 33.90625 44.203125 35.40625 41.09375 37.90625 
C 35.5 42.390625 29.90625 44.1875 24.796875 44.1875 
C 13.09375 44.1875 5.5 33.21875 5.5 21.546875 
C 5.5 10.078125 12.90625 -1 24.40625 -1 
C 35.90625 -1 44.203125 8.078125 49.09375 16.0625 
C 54.5 9.28125 55.703125 7.78125 58.796875 5.28125 
C 64.40625 0.796875 70 -1 75.09375 -1 
C 86.796875 -1 94.40625 9.96875 94.40625 21.640625 
C 94.40625 33.109375 87 44.1875 75.5 44.1875 
C 64 44.1875 55.703125 35.109375 50.796875 27.125 
z
M 53.40625 23.734375 
C 57.5 30.921875 64.90625 41 76.203125 41 
C 86.796875 41 92.203125 30.625 92.203125 21.640625 
C 92.203125 11.875 85.5 3.78125 76.703125 3.78125 
C 70.90625 3.78125 66.40625 7.984375 64.296875 10.078125 
C 61.796875 12.765625 59.5 15.859375 53.40625 23.734375 
z
M 46.5 19.453125 
C 42.40625 12.265625 35 2.1875 23.703125 2.1875 
C 13.09375 2.1875 7.703125 12.5625 7.703125 21.546875 
C 7.703125 31.3125 14.40625 39.390625 23.203125 39.390625 
C 29 39.390625 33.5 35.203125 35.59375 33.109375 
C 38.09375 30.421875 40.40625 27.328125 46.5 19.453125 
z
" id="CMSY10-49"/>
    </defs>
    <g transform="translate(65.510844 262.751622)scale(0.2 -0.2)">
     <use transform="translate(0 37.901266)scale(0.996264)" xlink:href="#CMMI12-80"/>
     <use transform="translate(76.425821 99.362331)scale(0.498132)" xlink:href="#CMR17-48"/>
     <use transform="translate(62.877232 10.460696)scale(0.697382)" xlink:href="#CMMI12-82"/>
     <use transform="translate(114.852582 0)scale(0.498132)" xlink:href="#CMR17-50"/>
     <use transform="translate(138.694085 37.901266)scale(0.996264)" xlink:href="#CMR17-40"/>
     <use transform="translate(173.974853 37.901266)scale(0.996264)" xlink:href="#CMSY10-49"/>
     <use transform="translate(273.601527 37.901266)scale(0.996264)" xlink:href="#CMR17-41"/>
    </g>
   </g>
   <g id="text_15">
    <!-- $P_{R_1}^\mathrm{^0} (\infty) $ -->
    <g transform="translate(65.510844 208.802039)scale(0.2 -0.2)">
     <use transform="translate(0 37.901266)scale(0.996264)" xlink:href="#CMMI12-80"/>
     <use transform="translate(76.425821 99.362331)scale(0.498132)" xlink:href="#CMR17-48"/>
     <use transform="translate(62.877232 10.460696)scale(0.697382)" xlink:href="#CMMI12-82"/>
     <use transform="translate(114.852582 0)scale(0.498132)" xlink:href="#CMR17-49"/>
     <use transform="translate(138.694085 37.901266)scale(0.996264)" xlink:href="#CMR17-40"/>
     <use transform="translate(173.974853 37.901266)scale(0.996264)" xlink:href="#CMSY10-49"/>
     <use transform="translate(273.601527 37.901266)scale(0.996264)" xlink:href="#CMR17-41"/>
    </g>
   </g>
  </g>
 </g>
 <defs>
  <clipPath id="p8fa296d294">
   <rect height="107.590599" width="521.702293" x="41.797103" y="33.702065"/>
  </clipPath>
  <clipPath id="pe63a8147d5">
   <rect height="107.590599" width="521.702293" x="41.797103" y="209.376843"/>
  </clipPath>
 </defs>
</svg>
