<?xml version="1.0" encoding="utf-8" standalone="no"?>
<!DOCTYPE svg PUBLIC "-//W3C//DTD SVG 1.1//EN"
  "http://www.w3.org/Graphics/SVG/1.1/DTD/svg11.dtd">
<!-- Created with matplotlib (https://matplotlib.org/) -->
<svg height="360pt" version="1.1" viewBox="0 0 864 360" width="864pt" xmlns="http://www.w3.org/2000/svg" xmlns:xlink="http://www.w3.org/1999/xlink">
 <defs>
  <style type="text/css">
*{stroke-linecap:butt;stroke-linejoin:round;white-space:pre;}
  </style>
 </defs>
 <g id="figure_1">
  <g id="patch_1">
   <path d="M 0 360 
L 864 360 
L 864 0 
L 0 0 
z
" style="fill:#ffffff;"/>
  </g>
  <g id="axes_1">
   <g id="patch_2">
    <path d="M 14.3 324.48737 
L 419.5 324.48737 
L 419.5 30.636997 
L 14.3 30.636997 
z
" style="fill:#ffffff;"/>
   </g>
   <g id="PathCollection_1">
    <defs>
     <path d="M 0 3 
C 0.795609 3 1.55874 2.683901 2.12132 2.12132 
C 2.683901 1.55874 3 0.795609 3 0 
C 3 -0.795609 2.683901 -1.55874 2.12132 -2.12132 
C 1.55874 -2.683901 0.795609 -3 0 -3 
C -0.795609 -3 -1.55874 -2.683901 -2.12132 -2.12132 
C -2.683901 -1.55874 -3 -0.795609 -3 0 
C -3 0.795609 -2.683901 1.55874 -2.12132 2.12132 
C -1.55874 2.683901 -0.795609 3 0 3 
z
" id="m547a41fa58" style="stroke:#ff0000;"/>
    </defs>
    <g clip-path="url(#pce7419a6a1)">
     <use style="fill:#ff0000;stroke:#ff0000;" x="242.46285" xlink:href="#m547a41fa58" y="48.046137"/>
    </g>
   </g>
   <g id="PathCollection_2">
    <g clip-path="url(#pce7419a6a1)">
     <use style="fill:#ff0000;stroke:#ff0000;" x="137.592358" xlink:href="#m547a41fa58" y="48.046152"/>
    </g>
   </g>
   <g id="matplotlib.axis_1">
    <g id="xtick_1">
     <g id="line2d_1">
      <defs>
       <path d="M 0 0 
L 0 3.5 
" id="m7e210ec10a" style="stroke:#000000;stroke-width:0.8;"/>
      </defs>
      <g>
       <use style="stroke:#000000;stroke-width:0.8;" x="242.46285" xlink:href="#m7e210ec10a" y="324.48737"/>
      </g>
     </g>
     <g id="text_1">
      <!-- $\tau_2$ -->
      <defs>
       <path d="M 28.703125 37.59375 
L 45.296875 37.59375 
C 46.59375 37.59375 49.90625 37.59375 49.90625 40.796875 
C 49.90625 43 48 43 46.203125 43 
L 18.703125 43 
C 16.40625 43 13 43 8.40625 38.09375 
C 5.796875 35.203125 2.59375 29.9375 2.59375 29.34375 
C 2.59375 28.734375 3.09375 28.546875 3.703125 28.546875 
C 4.40625 28.546875 4.5 28.84375 5 29.4375 
C 10.203125 37.59375 15.40625 37.59375 17.90625 37.59375 
L 26.203125 37.59375 
L 15.796875 3.484375 
C 15.296875 1.984375 15.296875 1.78125 15.296875 1.484375 
C 15.296875 0.390625 16 -1 18 -1 
C 21.09375 -1 21.59375 1.6875 21.90625 3.1875 
z
" id="CMMI12-28"/>
       <path d="M 41.703125 15.46875 
L 39.90625 15.46875 
C 38.90625 8.390625 38.09375 7.1875 37.703125 6.59375 
C 37.203125 5.796875 30 5.796875 28.59375 5.796875 
L 9.40625 5.796875 
C 13 9.6875 20 16.765625 28.5 24.9375 
C 34.59375 30.71875 41.703125 37.5 41.703125 47.390625 
C 41.703125 59.1875 32.296875 66 21.796875 66 
C 10.796875 66 4.09375 56.296875 4.09375 47.296875 
C 4.09375 43.390625 7 42.890625 8.203125 42.890625 
C 9.203125 42.890625 12.203125 43.484375 12.203125 46.984375 
C 12.203125 50.09375 9.59375 51 8.203125 51 
C 7.59375 51 7 50.890625 6.59375 50.6875 
C 8.5 59.1875 14.296875 63.390625 20.40625 63.390625 
C 29.09375 63.390625 34.796875 56.5 34.796875 47.390625 
C 34.796875 38.703125 29.703125 31.21875 24 24.734375 
L 4.09375 2.296875 
L 4.09375 0 
L 39.296875 0 
z
" id="CMR17-50"/>
      </defs>
      <g transform="translate(234.812242 345.324366)scale(0.2 -0.2)">
       <use transform="translate(0 14.943915)scale(0.996264)" xlink:href="#CMMI12-28"/>
       <use transform="translate(42.363841 0)scale(0.697382)" xlink:href="#CMR17-50"/>
      </g>
     </g>
    </g>
    <g id="xtick_2">
     <g id="line2d_2">
      <g>
       <use style="stroke:#000000;stroke-width:0.8;" x="137.592358" xlink:href="#m7e210ec10a" y="324.48737"/>
      </g>
     </g>
     <g id="text_2">
      <!-- $\tau_1$ -->
      <defs>
       <path d="M 26.59375 63.796875 
C 26.59375 65.890625 26.5 66 25.09375 66 
C 21.203125 61.359375 15.296875 59.890625 9.703125 59.6875 
C 9.40625 59.6875 8.90625 59.6875 8.796875 59.5 
C 8.703125 59.296875 8.703125 59.09375 8.703125 57 
C 11.796875 57 17 57.59375 21 59.984375 
L 21 7.296875 
C 21 3.796875 20.796875 2.59375 12.203125 2.59375 
L 9.203125 2.59375 
L 9.203125 0 
C 14 0.09375 19 0.1875 23.796875 0.1875 
C 28.59375 0.1875 33.59375 0.09375 38.40625 0 
L 38.40625 2.59375 
L 35.40625 2.59375 
C 26.796875 2.59375 26.59375 3.6875 26.59375 7.296875 
z
" id="CMR17-49"/>
      </defs>
      <g transform="translate(129.941749 345.324366)scale(0.2 -0.2)">
       <use transform="translate(0 14.943915)scale(0.996264)" xlink:href="#CMMI12-28"/>
       <use transform="translate(42.363841 0)scale(0.697382)" xlink:href="#CMR17-49"/>
      </g>
     </g>
    </g>
   </g>
   <g id="matplotlib.axis_2"/>
   <g id="LineCollection_1">
    <path clip-path="url(#pce7419a6a1)" d="M 242.46285 311.130534 
L 242.46285 48.046137 
" style="fill:none;stroke:#ff0000;stroke-dasharray:7.4,3.2;stroke-dashoffset:0;stroke-width:2;"/>
   </g>
   <g id="LineCollection_2">
    <path clip-path="url(#pce7419a6a1)" d="M 137.592358 311.130534 
L 137.592358 48.046152 
" style="fill:none;stroke:#ff0000;stroke-dasharray:7.4,3.2;stroke-dashoffset:0;stroke-width:2;"/>
   </g>
   <g id="line2d_3">
    <path clip-path="url(#pce7419a6a1)" d="M 32.718182 306.779026 
L 41.116957 305.711326 
L 48.709007 304.525375 
L 55.649047 303.219165 
L 62.051272 301.790548 
L 68.004087 300.236817 
L 73.581169 298.553459 
L 78.83777 296.736432 
L 83.82178 294.779987 
L 88.573719 292.677055 
L 93.126739 290.419937 
L 97.51031 287.999173 
L 101.746534 285.406116 
L 105.861197 282.626667 
L 109.869033 279.650856 
L 113.792145 276.460435 
L 117.645267 273.039342 
L 121.443135 269.368591 
L 125.196798 265.429921 
L 128.924675 261.194024 
L 132.634134 256.640403 
L 136.343593 251.732008 
L 140.064103 246.436857 
L 143.806715 240.720077 
L 147.589847 234.5317 
L 151.431918 227.81628 
L 155.35503 220.50648 
L 159.388652 212.514673 
L 163.573305 203.722841 
L 167.964243 193.971585 
L 172.660927 182.988509 
L 177.843855 170.287318 
L 183.995589 154.595493 
L 195.551272 124.337162 
L 202.285027 107.090953 
L 207.014863 95.569351 
L 210.95271 86.544489 
L 214.404311 79.174422 
L 217.509648 73.054106 
L 220.346076 67.942339 
L 222.965168 63.668754 
L 225.400076 60.110152 
L 227.68027 57.161794 
L 229.824167 54.744747 
L 231.846504 52.791975 
L 233.765698 51.241101 
L 235.596483 50.042077 
L 237.349912 49.154569 
L 239.044401 48.542125 
L 240.698371 48.178407 
L 242.326554 48.046943 
L 243.94737 48.139265 
L 245.579238 48.456329 
L 247.236891 49.006965 
L 248.938748 49.809323 
L 250.703227 50.891007 
L 252.545064 52.286139 
L 254.475308 54.032688 
L 256.51238 56.181981 
L 258.671012 58.789634 
L 260.973308 61.927879 
L 263.437685 65.672367 
L 266.08993 70.116644 
L 268.970563 75.388793 
L 272.12747 81.64251 
L 275.645378 89.118872 
L 279.667949 98.208031 
L 284.489878 109.677882 
L 291.068918 125.950515 
L 306.684009 164.758357 
L 312.489478 178.467997 
L 317.602416 189.983783 
L 322.328569 200.090209 
L 326.807915 209.151763 
L 331.110446 217.360868 
L 335.287731 224.858235 
L 339.372925 231.738943 
L 343.391812 238.077218 
L 347.366496 243.93443 
L 351.31171 249.355531 
L 355.242189 254.381427 
L 359.172668 259.048835 
L 363.114199 263.386434 
L 367.081515 267.423722 
L 371.085667 271.183075 
L 375.145075 274.69054 
L 379.270789 277.962306 
L 383.477544 281.015255 
L 387.783758 283.866042 
L 392.207849 286.528254 
L 396.768237 289.012875 
L 401.081818 291.140954 
L 401.081818 291.140954 
" style="fill:none;stroke:#000000;stroke-linecap:square;stroke-width:1.5;"/>
   </g>
   <g id="line2d_4">
    <path clip-path="url(#pce7419a6a1)" d="M 32.718182 306.779026 
L 36.954406 305.700897 
L 40.800161 304.495537 
L 44.332803 303.157636 
L 47.614956 301.678548 
L 50.690823 300.049887 
L 53.600925 298.25821 
L 56.374731 296.289677 
L 59.041711 294.123644 
L 61.620282 291.741496 
L 64.12518 289.123182 
L 66.578506 286.234573 
L 68.987628 283.051711 
L 71.370965 279.530374 
L 73.732199 275.640673 
L 76.086066 271.32939 
L 78.439934 266.547977 
L 80.804852 261.233169 
L 83.188188 255.321497 
L 85.600994 248.732458 
L 88.054321 241.375627 
L 90.566586 233.126284 
L 93.152524 223.857758 
L 95.845289 213.361545 
L 98.681718 201.390822 
L 101.74285 187.481193 
L 105.183401 170.775456 
L 109.530135 148.487772 
L 118.669329 101.322271 
L 121.572063 87.716342 
L 123.948032 77.601807 
L 125.996155 69.817333 
L 127.804838 63.782784 
L 129.421971 59.130581 
L 130.877022 55.592598 
L 132.192093 52.953101 
L 133.381919 51.039894 
L 134.461236 49.70537 
L 135.444776 48.827449 
L 136.347276 48.308684 
L 137.190837 48.07335 
L 138.004929 48.075149 
L 138.819021 48.301246 
L 139.666266 48.77332 
L 140.568766 49.5392 
L 141.548623 50.673445 
L 142.620572 52.267836 
L 143.799347 54.435541 
L 145.099684 57.311184 
L 146.536316 61.049231 
L 148.131347 65.843317 
L 149.914245 71.933487 
L 151.932898 79.651967 
L 154.268346 89.499095 
L 157.082673 102.378161 
L 160.869489 120.835207 
L 171.927876 175.331025 
L 175.489988 191.426095 
L 178.676365 204.819725 
L 181.649089 216.375403 
L 184.47815 226.498727 
L 187.207752 235.456404 
L 189.867364 243.434876 
L 192.471721 250.556523 
L 195.039241 256.940151 
L 197.577292 262.664215 
L 200.100608 267.814677 
L 202.616557 272.451878 
L 205.13619 276.635592 
L 207.666873 280.411959 
L 210.219659 283.826473 
L 212.805597 286.917812 
L 215.439424 289.722481 
L 218.132189 292.267021 
L 220.902311 294.579759 
L 223.764525 296.680376 
L 226.744617 298.591595 
L 229.864688 300.327917 
L 233.157892 301.905048 
L 236.661065 303.334534 
L 240.418412 304.625519 
L 244.48887 305.786402 
L 248.946115 306.823263 
L 253.889604 307.74116 
L 259.455635 308.543853 
L 265.835757 309.233769 
L 273.324664 309.813233 
L 282.393868 310.283771 
L 293.894295 310.647249 
L 309.568325 310.905594 
L 333.946874 311.062099 
L 386.085585 311.125166 
L 401.081818 311.127953 
L 401.081818 311.127953 
" style="fill:none;stroke:#000000;stroke-linecap:square;stroke-width:1.5;"/>
   </g>
   <g id="patch_3">
    <path d="M 14.3 324.48737 
L 14.3 30.636997 
" style="fill:none;stroke:#000000;stroke-linecap:square;stroke-linejoin:miter;stroke-width:0.8;"/>
   </g>
   <g id="patch_4">
    <path d="M 14.3 324.48737 
L 419.5 324.48737 
" style="fill:none;stroke:#000000;stroke-linecap:square;stroke-linejoin:miter;stroke-width:0.8;"/>
   </g>
   <g id="text_3">
    <!-- $P_{I_2 \textrm{max}}$ -->
    <defs>
     <path d="M 29.59375 31.59375 
L 46.40625 31.59375 
C 60.203125 31.59375 74 41.765625 74 53.125 
C 74 60.90625 67.40625 68 54.796875 68 
L 23.90625 68 
C 22 68 21.09375 68 21.09375 66.09375 
C 21.09375 65.09375 22 65.09375 23.5 65.09375 
C 29.59375 65.09375 29.59375 64.296875 29.59375 63.203125 
C 29.59375 63 29.59375 62.40625 29.203125 60.90625 
L 15.703125 7.359375 
C 14.796875 3.890625 14.59375 2.890625 7.59375 2.890625 
C 5.703125 2.890625 4.703125 2.890625 4.703125 1.09375 
C 4.703125 0 5.59375 0 6.203125 0 
C 8.09375 0 10.09375 0.1875 12 0.1875 
L 23.703125 0.1875 
C 25.59375 0.1875 27.703125 0 29.59375 0 
C 30.40625 0 31.5 0 31.5 1.890625 
C 31.5 2.890625 30.59375 2.890625 29.09375 2.890625 
C 23.09375 2.890625 23 3.59375 23 4.578125 
C 23 5.078125 23.09375 5.765625 23.203125 6.265625 
z
M 36.796875 61.203125 
C 37.703125 64.890625 38.09375 65.09375 42 65.09375 
L 51.90625 65.09375 
C 59.40625 65.09375 65.59375 62.703125 65.59375 55.21875 
C 65.59375 52.640625 64.296875 44.15625 59.703125 39.578125 
C 58 37.78125 53.203125 34 44.09375 34 
L 30 34 
z
" id="CMMI12-80"/>
     <path d="M 36.796875 60.609375 
C 37.703125 64.09375 37.90625 65.09375 45.203125 65.09375 
C 47.40625 65.09375 48.203125 65.09375 48.203125 66.984375 
C 48.203125 68 47.09375 68 46.796875 68 
C 45 68 42.796875 67.796875 41 67.796875 
L 28.703125 67.796875 
C 26.703125 67.796875 24.40625 68 22.40625 68 
C 21.59375 68 20.5 68 20.5 66.09375 
C 20.5 65.09375 21.296875 65.09375 23.296875 65.09375 
C 29.5 65.09375 29.5 64.296875 29.5 63.203125 
C 29.5 62.5 29.296875 61.90625 29.09375 61.015625 
L 15.59375 7.375 
C 14.703125 3.890625 14.5 2.890625 7.203125 2.890625 
C 5 2.890625 4.09375 2.890625 4.09375 1 
C 4.09375 0 5.09375 0 5.59375 0 
C 7.40625 0 9.59375 0.1875 11.40625 0.1875 
L 23.703125 0.1875 
C 25.703125 0.1875 27.90625 0 29.90625 0 
C 30.703125 0 31.90625 0 31.90625 1.796875 
C 31.90625 2.890625 31.296875 2.890625 29.09375 2.890625 
C 22.90625 2.890625 22.90625 3.6875 22.90625 4.875 
C 22.90625 5.078125 22.90625 5.578125 23.296875 7.171875 
z
" id="CMMI12-73"/>
     <path d="M 67.59375 30.53125 
C 67.59375 35.5625 66.703125 44 54.796875 44 
C 48 44 43.296875 39.375 41.5 33.953125 
L 41.40625 33.953125 
C 40.203125 42.1875 34.296875 44 28.703125 44 
C 20.796875 44 16.703125 37.875 15.203125 33.84375 
L 15.09375 33.84375 
L 15.09375 44 
L 3.296875 42.890625 
L 3.296875 40.28125 
C 9.203125 40.28125 10.09375 39.6875 10.09375 34.859375 
L 10.09375 6.921875 
C 10.09375 3.09375 9.703125 2.59375 3.296875 2.59375 
L 3.296875 0 
C 5.703125 0.1875 10.09375 0.1875 12.703125 0.1875 
C 15.296875 0.1875 19.796875 0.1875 22.203125 0 
L 22.203125 2.59375 
C 15.796875 2.59375 15.40625 3 15.40625 6.921875 
L 15.40625 26.21875 
C 15.40625 35.453125 21 42.390625 28 42.390625 
C 35.40625 42.390625 36.203125 35.765625 36.203125 30.9375 
L 36.203125 6.921875 
C 36.203125 3.09375 35.796875 2.59375 29.40625 2.59375 
L 29.40625 0 
C 31.796875 0.1875 36.203125 0.1875 38.796875 0.1875 
C 41.40625 0.1875 45.90625 0.1875 48.296875 0 
L 48.296875 2.59375 
C 41.90625 2.59375 41.5 3 41.5 6.921875 
L 41.5 26.21875 
C 41.5 35.453125 47.09375 42.390625 54.09375 42.390625 
C 61.5 42.390625 62.296875 35.765625 62.296875 30.9375 
L 62.296875 6.921875 
C 62.296875 3.09375 61.90625 2.59375 55.5 2.59375 
L 55.5 0 
C 57.90625 0.1875 62.296875 0.1875 64.90625 0.1875 
C 67.5 0.1875 72 0.1875 74.40625 0 
L 74.40625 2.59375 
C 68 2.59375 67.59375 3 67.59375 6.921875 
z
" id="CMR17-109"/>
     <path d="M 36 25.875 
C 36 32 36 35.546875 31.796875 39.59375 
C 28.09375 42.984375 23.796875 44 20.40625 44 
C 12.5 44 6.796875 37.625 6.796875 30.890625 
C 6.796875 27.1875 9.796875 27 10.40625 27 
C 11.703125 27 14 27.796875 14 30.59375 
C 14 33.09375 12.09375 34.1875 10.40625 34.1875 
C 10 34.1875 9.5 34.09375 9.203125 34 
C 11.296875 40.53125 16.703125 42.390625 20.203125 42.390625 
C 25.203125 42.390625 30.703125 37.828125 30.703125 29.296875 
L 30.703125 25.5 
C 24.796875 25.296875 17.703125 24.5 12.09375 21.453125 
C 5.796875 17.921875 4 12.84375 4 9 
C 4 1.203125 13 -1 18.296875 -1 
C 23.796875 -1 28.90625 2.109375 31.09375 7.890625 
C 31.296875 3.421875 34.09375 -0.609375 38.5 -0.609375 
C 40.59375 -0.609375 45.90625 0.796875 45.90625 8.796875 
L 45.90625 14.46875 
L 44.09375 14.46875 
L 44.09375 8.703125 
C 44.09375 2.515625 41.40625 1.703125 40.09375 1.703125 
C 36 1.703125 36 6.96875 36 11.4375 
z
M 30.703125 13.859375 
C 30.703125 5.046875 24.5 0.59375 19 0.59375 
C 14 0.59375 10.09375 4.34375 10.09375 9 
C 10.09375 12.046875 11.40625 17.40625 17.203125 20.65625 
C 22 23.390625 27.5 23.796875 30.703125 24 
z
" id="CMR17-97"/>
     <path d="M 26 23.296875 
C 29 27.1875 32.40625 31.59375 35.203125 34.890625 
C 38.5 38.6875 42.296875 40.296875 46.703125 40.390625 
L 46.703125 43 
C 45 42.890625 41.5 42.796875 39.703125 42.796875 
C 37 42.796875 33.90625 42.796875 31.59375 43 
L 31.59375 40.390625 
C 33 40.1875 33.796875 39.1875 33.796875 37.796875 
C 33.796875 36 32.796875 34.890625 32.296875 34.1875 
L 24.90625 24.796875 
L 16.09375 36.296875 
C 15.203125 37.390625 15.203125 37.59375 15.203125 38.09375 
C 15.203125 39.296875 16.203125 40.296875 17.90625 40.390625 
L 17.90625 43 
C 15.5 42.796875 11.203125 42.796875 8.703125 42.796875 
C 6 42.796875 2.796875 42.796875 0.59375 43 
L 0.59375 40.390625 
C 6 40.390625 7.203125 40 9.59375 37 
L 21.09375 22.09375 
C 21.296875 21.890625 21.796875 21.296875 21.796875 21 
C 21.796875 20.59375 13.09375 9.890625 12 8.5 
C 7.5 3.09375 2.796875 2.6875 0.09375 2.59375 
L 0.09375 0 
C 1.796875 0.09375 5.296875 0.1875 7.09375 0.1875 
C 9.09375 0.1875 13.5 0.1875 15.296875 0 
L 15.296875 2.59375 
C 14.703125 2.6875 13.09375 2.890625 13.09375 5.1875 
C 13.09375 7 13.90625 8.09375 14.796875 9.296875 
L 23.09375 19.5 
L 31.796875 8.1875 
C 32.59375 7.09375 33.796875 5.59375 33.796875 4.890625 
C 33.796875 3.5 32.59375 2.6875 31 2.59375 
L 31 0 
C 33.40625 0.1875 37.703125 0.1875 40.203125 0.1875 
C 42.90625 0.1875 46.09375 0.1875 48.296875 0 
L 48.296875 2.59375 
C 43.296875 2.59375 41.796875 2.796875 39.40625 5.890625 
z
" id="CMR17-120"/>
    </defs>
    <g transform="translate(242.463464 46.740685)scale(0.16 -0.16)">
     <use transform="translate(0 25.404611)scale(0.996264)" xlink:href="#CMMI12-80"/>
     <use transform="translate(62.877232 10.460696)scale(0.697382)" xlink:href="#CMMI12-73"/>
     <use transform="translate(92.994015 0)scale(0.498132)" xlink:href="#CMR17-50"/>
     <use transform="translate(116.337386 10.460696)scale(0.996264)" xlink:href="#CMR17-109"/>
     <use transform="translate(193.256976 10.460696)scale(0.996264)" xlink:href="#CMR17-97"/>
     <use transform="translate(238.947453 10.460696)scale(0.996264)" xlink:href="#CMR17-120"/>
    </g>
   </g>
   <g id="text_4">
    <!-- $P_{I_1 \textrm{max}}$ -->
    <g transform="translate(137.592972 46.7407)scale(0.16 -0.16)">
     <use transform="translate(0 25.404611)scale(0.996264)" xlink:href="#CMMI12-80"/>
     <use transform="translate(62.877232 10.460696)scale(0.697382)" xlink:href="#CMMI12-73"/>
     <use transform="translate(92.994015 0)scale(0.498132)" xlink:href="#CMR17-49"/>
     <use transform="translate(116.337386 10.460696)scale(0.996264)" xlink:href="#CMR17-109"/>
     <use transform="translate(193.256976 10.460696)scale(0.996264)" xlink:href="#CMR17-97"/>
     <use transform="translate(238.947453 10.460696)scale(0.996264)" xlink:href="#CMR17-120"/>
    </g>
   </g>
   <g id="patch_5">
    <path d="M 140.710638 48.046152 
Q 190.027844 48.046145 239.34505 48.046138 
" style="fill:none;stroke:#000000;stroke-linecap:round;"/>
    <path d="M 144.710638 50.046151 
L 140.710638 48.046152 
L 144.710637 46.046151 
" style="fill:none;stroke:#000000;stroke-linecap:round;"/>
    <path d="M 235.345049 46.046138 
L 239.34505 48.046138 
L 235.34505 50.046138 
" style="fill:none;stroke:#000000;stroke-linecap:round;"/>
   </g>
   <g id="text_5">
    <!-- $P_I$ -->
    <g transform="translate(207.600598 24.636997)scale(0.2 -0.2)">
     <use transform="translate(0 14.943915)scale(0.996264)" xlink:href="#CMMI12-80"/>
     <use transform="translate(62.877232 0)scale(0.697382)" xlink:href="#CMMI12-73"/>
    </g>
   </g>
  </g>
  <g id="axes_2">
   <g id="patch_6">
    <path d="M 448 324.48737 
L 853.2 324.48737 
L 853.2 30.636997 
L 448 30.636997 
z
" style="fill:#ffffff;"/>
   </g>
   <g id="matplotlib.axis_3"/>
   <g id="matplotlib.axis_4"/>
   <g id="LineCollection_3">
    <path clip-path="url(#p0ff2efec7f)" d="M 466.418182 43.993832 
L 834.781818 43.993832 
" style="fill:none;stroke:#ff0000;stroke-dasharray:5.55,2.4;stroke-dashoffset:0;stroke-width:1.5;"/>
   </g>
   <g id="line2d_5">
    <path clip-path="url(#p0ff2efec7f)" d="M 466.418182 311.130534 
L 474.525947 310.565037 
L 481.200762 309.8826 
L 486.892037 309.082264 
L 491.872364 308.161506 
L 496.314874 307.11747 
L 500.341128 305.945618 
L 504.035853 304.641149 
L 507.469036 303.195201 
L 510.69225 301.59781 
L 513.746015 299.837106 
L 516.667168 297.89616 
L 519.477811 295.761384 
L 522.207412 293.407877 
L 524.874392 290.812979 
L 527.497167 287.948413 
L 530.090473 284.784007 
L 532.672728 281.278751 
L 535.258667 277.389047 
L 537.863024 273.064443 
L 540.500534 268.24745 
L 543.189615 262.866106 
L 545.95237 256.831504 
L 548.814584 250.036055 
L 551.816778 242.323872 
L 555.014206 233.482809 
L 558.498961 223.175596 
L 562.462593 210.73221 
L 567.446603 194.3051 
L 581.768724 146.64835 
L 585.813398 134.234749 
L 589.382877 123.979789 
L 592.672397 115.190669 
L 595.777734 107.51561 
L 598.750458 100.749974 
L 601.63109 94.737294 
L 604.445417 89.370008 
L 607.211855 84.566159 
L 609.948824 80.253234 
L 612.671059 76.373422 
L 615.393293 72.876287 
L 618.130263 69.718396 
L 620.900385 66.859157 
L 623.714711 64.271691 
L 626.595344 61.923991 
L 629.560701 59.793512 
L 632.632884 57.860011 
L 635.83768 56.106058 
L 639.208241 54.515654 
L 642.785087 53.075395 
L 646.612424 51.776218 
L 650.745505 50.610592 
L 655.265372 49.570175 
L 660.2678 48.650774 
L 665.889086 47.848288 
L 672.324463 47.159568 
L 679.872309 46.581958 
L 689.015186 46.113501 
L 700.611389 45.752531 
L 716.443817 45.49678 
L 741.183366 45.342797 
L 794.83975 45.281902 
L 834.781818 45.277798 
L 834.781818 45.277798 
" style="fill:none;stroke:#000000;stroke-linecap:square;stroke-width:1.5;"/>
   </g>
   <g id="patch_7">
    <path d="M 448 324.48737 
L 448 30.636997 
" style="fill:none;stroke:#000000;stroke-linecap:square;stroke-linejoin:miter;stroke-width:0.8;"/>
   </g>
   <g id="patch_8">
    <path d="M 448 324.48737 
L 853.2 324.48737 
" style="fill:none;stroke:#000000;stroke-linecap:square;stroke-linejoin:miter;stroke-width:0.8;"/>
   </g>
   <g id="text_6">
    <!-- $P_{R1 \infty }$ -->
    <defs>
     <path d="M 36.796875 61.203125 
C 37.703125 64.890625 38.09375 65.09375 42 65.09375 
L 49.203125 65.09375 
C 57.796875 65.09375 64.203125 62.5 64.203125 54.734375 
C 64.203125 49.640625 61.59375 35 41.5 35 
L 30.203125 35 
z
M 50.703125 33.796875 
C 63.09375 36.484375 72.796875 44.46875 72.796875 53.03125 
C 72.796875 60.8125 64.90625 68 51 68 
L 23.90625 68 
C 21.90625 68 21 68 21 66.09375 
C 21 65.09375 21.703125 65.09375 23.59375 65.09375 
C 29.59375 65.09375 29.59375 64.296875 29.59375 63.203125 
C 29.59375 63 29.59375 62.40625 29.203125 60.90625 
L 15.703125 7.421875 
C 14.796875 3.953125 14.59375 2.96875 7.703125 2.96875 
C 5.40625 2.96875 4.703125 2.96875 4.703125 1.078125 
C 4.703125 0.09375 5.796875 0.09375 6.09375 0.09375 
C 7.90625 0.09375 10 0.296875 11.90625 0.296875 
L 23.703125 0.296875 
C 25.5 0.296875 27.59375 0.09375 29.40625 0.09375 
C 30.203125 0.09375 31.296875 0.09375 31.296875 1.96875 
C 31.296875 2.96875 30.40625 2.96875 28.90625 2.96875 
C 22.796875 2.96875 22.796875 3.765625 22.796875 4.75 
C 22.796875 4.84375 22.796875 5.546875 23 6.328125 
L 29.703125 33 
L 41.703125 33 
C 51.203125 33 53 27.046875 53 23.78125 
C 53 22.28125 52 18.421875 51.296875 15.84375 
C 50.203125 11.296875 49.90625 10.203125 49.90625 8.3125 
C 49.90625 1.28125 55.703125 -2 62.40625 -2 
C 70.5 -2 74 7.828125 74 9.203125 
C 74 9.90625 73.5 10.203125 72.90625 10.203125 
C 72.09375 10.203125 71.90625 9.609375 71.703125 8.8125 
C 69.296875 1.78125 65.203125 0 62.703125 0 
C 60.203125 0 58.59375 1.078125 58.59375 5.546875 
C 58.59375 7.921875 59.796875 16.9375 59.90625 17.4375 
C 60.40625 21.09375 60.40625 21.5 60.40625 22.28125 
C 60.40625 29.515625 54.5 32.59375 50.703125 33.796875 
z
" id="CMMI12-82"/>
     <path d="M 50.796875 27.125 
C 45.40625 33.90625 44.203125 35.40625 41.09375 37.90625 
C 35.5 42.390625 29.90625 44.1875 24.796875 44.1875 
C 13.09375 44.1875 5.5 33.21875 5.5 21.546875 
C 5.5 10.078125 12.90625 -1 24.40625 -1 
C 35.90625 -1 44.203125 8.078125 49.09375 16.0625 
C 54.5 9.28125 55.703125 7.78125 58.796875 5.28125 
C 64.40625 0.796875 70 -1 75.09375 -1 
C 86.796875 -1 94.40625 9.96875 94.40625 21.640625 
C 94.40625 33.109375 87 44.1875 75.5 44.1875 
C 64 44.1875 55.703125 35.109375 50.796875 27.125 
z
M 53.40625 23.734375 
C 57.5 30.921875 64.90625 41 76.203125 41 
C 86.796875 41 92.203125 30.625 92.203125 21.640625 
C 92.203125 11.875 85.5 3.78125 76.703125 3.78125 
C 70.90625 3.78125 66.40625 7.984375 64.296875 10.078125 
C 61.796875 12.765625 59.5 15.859375 53.40625 23.734375 
z
M 46.5 19.453125 
C 42.40625 12.265625 35 2.1875 23.703125 2.1875 
C 13.09375 2.1875 7.703125 12.5625 7.703125 21.546875 
C 7.703125 31.3125 14.40625 39.390625 23.203125 39.390625 
C 29 39.390625 33.5 35.203125 35.59375 33.109375 
C 38.09375 30.421875 40.40625 27.328125 46.5 19.453125 
z
" id="CMSY10-49"/>
    </defs>
    <g transform="translate(466.418182 38.857965)scale(0.17 -0.17)">
     <use transform="translate(0 14.943915)scale(0.996264)" xlink:href="#CMMI12-80"/>
     <use transform="translate(62.877232 0)scale(0.697382)" xlink:href="#CMMI12-82"/>
     <use transform="translate(115.426662 0)scale(0.697382)" xlink:href="#CMR17-49"/>
     <use transform="translate(147.409844 0)scale(0.697382)" xlink:href="#CMSY10-49"/>
    </g>
   </g>
   <g id="text_7">
    <!-- $P_R$ -->
    <g transform="translate(639.114742 24.636997)scale(0.2 -0.2)">
     <use transform="translate(0 14.943915)scale(0.996264)" xlink:href="#CMMI12-80"/>
     <use transform="translate(62.877232 0)scale(0.697382)" xlink:href="#CMMI12-82"/>
    </g>
   </g>
  </g>
 </g>
 <defs>
  <clipPath id="pce7419a6a1">
   <rect height="293.850373" width="405.2" x="14.3" y="30.636997"/>
  </clipPath>
  <clipPath id="p0ff2efec7f">
   <rect height="293.850373" width="405.2" x="448" y="30.636997"/>
  </clipPath>
 </defs>
</svg>
