<?xml version="1.0" encoding="utf-8" standalone="no"?>
<!DOCTYPE svg PUBLIC "-//W3C//DTD SVG 1.1//EN"
  "http://www.w3.org/Graphics/SVG/1.1/DTD/svg11.dtd">
<!-- Created with matplotlib (https://matplotlib.org/) -->
<svg height="345.6pt" version="1.1" viewBox="0 0 460.8 345.6" width="460.8pt" xmlns="http://www.w3.org/2000/svg" xmlns:xlink="http://www.w3.org/1999/xlink">
 <defs>
  <style type="text/css">
*{stroke-linecap:butt;stroke-linejoin:round;white-space:pre;}
  </style>
 </defs>
 <g id="figure_1">
  <g id="patch_1">
   <path d="M 0 345.6 
L 460.8 345.6 
L 460.8 0 
L 0 0 
z
" style="fill:#ffffff;"/>
  </g>
  <g id="axes_1">
   <g id="patch_2">
    <path d="M 57.6 239.458909 
L 187.461818 239.458909 
L 187.461818 109.597091 
L 57.6 109.597091 
z
" style="fill:#ffffff;"/>
   </g>
   <g id="PathCollection_1">
    <path clip-path="url(#p237b59069b)" d="M 153.287656 239.458909 
L 160.122488 239.458909 
L 166.957321 239.458909 
L 173.792153 239.458909 
L 180.626986 239.458909 
L 187.461818 239.458909 
L 187.461818 232.624077 
L 187.461818 225.789244 
L 187.461818 220.279444 
L 180.626986 223.839961 
L 176.885047 225.789244 
L 173.792153 227.419485 
L 166.957321 231.02082 
L 163.913392 232.624077 
L 160.122488 234.644305 
L 153.287656 238.286457 
L 151.085488 239.458909 
z
" style="fill:#471365;"/>
   </g>
   <g id="PathCollection_2">
    <path clip-path="url(#p237b59069b)" d="M 112.27866 239.458909 
L 119.113493 239.458909 
L 125.948325 239.458909 
L 132.783158 239.458909 
L 139.61799 239.458909 
L 146.452823 239.458909 
L 151.085488 239.458909 
L 153.287656 238.286457 
L 160.122488 234.644305 
L 163.913392 232.624077 
L 166.957321 231.02082 
L 173.792153 227.419485 
L 176.885047 225.789244 
L 180.626986 223.839961 
L 187.461818 220.279444 
L 187.461818 218.954411 
L 187.461818 212.119579 
L 187.461818 205.284746 
L 187.461818 200.786001 
L 180.626986 204.19242 
L 178.432214 205.284746 
L 173.792153 207.622434 
L 166.957321 211.065302 
L 164.861019 212.119579 
L 160.122488 214.531849 
L 153.287656 218.010896 
L 151.430563 218.954411 
L 146.452823 221.514257 
L 139.61799 225.029258 
L 138.136846 225.789244 
L 132.783158 228.569706 
L 125.948325 232.120521 
L 124.976327 232.624077 
L 119.113493 235.698319 
L 112.27866 239.284888 
L 111.945875 239.458909 
z
" style="fill:#463480;"/>
   </g>
   <g id="PathCollection_3">
    <path clip-path="url(#p237b59069b)" d="M 71.269665 239.458909 
L 78.104498 239.458909 
L 84.93933 239.458909 
L 91.774163 239.458909 
L 98.608995 239.458909 
L 105.443828 239.458909 
L 111.945875 239.458909 
L 112.27866 239.284888 
L 119.113493 235.698319 
L 124.976327 232.624077 
L 125.948325 232.120521 
L 132.783158 228.569706 
L 138.136846 225.789244 
L 139.61799 225.029258 
L 146.452823 221.514257 
L 151.430563 218.954411 
L 153.287656 218.010896 
L 160.122488 214.531849 
L 164.861019 212.119579 
L 166.957321 211.065302 
L 173.792153 207.622434 
L 178.432214 205.284746 
L 180.626986 204.19242 
L 187.461818 200.786001 
L 187.461818 198.449914 
L 187.461818 191.615081 
L 187.461818 184.780249 
L 187.461818 181.770746 
L 181.127618 184.780249 
L 180.626986 185.021122 
L 173.792153 188.299044 
L 166.957321 191.579144 
L 166.882153 191.615081 
L 160.122488 194.8878 
L 153.287656 198.199088 
L 152.767986 198.449914 
L 146.452823 201.53655 
L 139.61799 204.878502 
L 138.784041 205.284746 
L 132.783158 208.244853 
L 125.948325 211.616992 
L 124.925761 212.119579 
L 119.113493 215.012292 
L 112.27866 218.414206 
L 111.189009 218.954411 
L 105.443828 221.838515 
L 98.608995 225.269851 
L 97.570045 225.789244 
L 91.774163 228.723227 
L 84.93933 232.183687 
L 84.065515 232.624077 
L 78.104498 235.666207 
L 71.269665 239.155593 
L 70.672529 239.458909 
z
" style="fill:#3b528b;"/>
   </g>
   <g id="PathCollection_4">
    <path clip-path="url(#p237b59069b)" d="M 64.434833 239.458909 
L 70.672529 239.458909 
L 71.269665 239.155593 
L 78.104498 235.666207 
L 84.065515 232.624077 
L 84.93933 232.183687 
L 91.774163 228.723227 
L 97.570045 225.789244 
L 98.608995 225.269851 
L 105.443828 221.838515 
L 111.189009 218.954411 
L 112.27866 218.414206 
L 119.113493 215.012292 
L 124.925761 212.119579 
L 125.948325 211.616992 
L 132.783158 208.244853 
L 138.784041 205.284746 
L 139.61799 204.878502 
L 146.452823 201.53655 
L 152.767986 198.449914 
L 153.287656 198.199088 
L 160.122488 194.8878 
L 166.882153 191.615081 
L 166.957321 191.579144 
L 173.792153 188.299044 
L 180.626986 185.021122 
L 181.127618 184.780249 
L 187.461818 181.770746 
L 187.461818 177.945416 
L 187.461818 171.110584 
L 187.461818 164.275751 
L 187.461818 163.196858 
L 185.065753 164.275751 
L 180.626986 166.300599 
L 173.792153 169.413672 
L 170.058868 171.110584 
L 166.957321 172.538751 
L 160.122488 175.677706 
L 155.178539 177.945416 
L 153.287656 178.824026 
L 146.452823 181.987998 
L 140.418405 184.780249 
L 139.61799 185.155429 
L 132.783158 188.343559 
L 125.948325 191.532513 
L 125.770338 191.615081 
L 119.113493 194.743447 
L 112.27866 197.955808 
L 111.221881 198.449914 
L 105.443828 201.186698 
L 98.608995 204.421727 
L 96.777114 205.284746 
L 91.774163 207.67241 
L 84.93933 210.929428 
L 82.431408 212.119579 
L 78.104498 214.199716 
L 71.269665 217.478087 
L 68.180481 218.954411 
L 64.434833 220.767822 
L 57.6 224.066967 
L 57.6 225.789244 
L 57.6 232.624077 
L 57.6 239.458909 
z
" style="fill:#2f6c8e;"/>
   </g>
   <g id="PathCollection_5">
    <path clip-path="url(#p237b59069b)" d="M 64.434833 220.767822 
L 68.180481 218.954411 
L 71.269665 217.478087 
L 78.104498 214.199716 
L 82.431408 212.119579 
L 84.93933 210.929428 
L 91.774163 207.67241 
L 96.777114 205.284746 
L 98.608995 204.421727 
L 105.443828 201.186698 
L 111.221881 198.449914 
L 112.27866 197.955808 
L 119.113493 194.743447 
L 125.770338 191.615081 
L 125.948325 191.532513 
L 132.783158 188.343559 
L 139.61799 185.155429 
L 140.418405 184.780249 
L 146.452823 181.987998 
L 153.287656 178.824026 
L 155.178539 177.945416 
L 160.122488 175.677706 
L 166.957321 172.538751 
L 170.058868 171.110584 
L 173.792153 169.413672 
L 180.626986 166.300599 
L 185.065753 164.275751 
L 187.461818 163.196858 
L 187.461818 157.440919 
L 187.461818 150.606086 
L 187.461818 145.041337 
L 180.626986 147.98825 
L 174.549286 150.606086 
L 173.792153 150.936584 
L 166.957321 153.904138 
L 160.122488 156.87028 
L 158.800698 157.440919 
L 153.287656 159.852988 
L 146.452823 162.838323 
L 143.149669 164.275751 
L 139.61799 165.833251 
L 132.783158 168.83659 
L 127.597346 171.110584 
L 125.948325 171.843376 
L 119.113493 174.863555 
L 112.27866 177.882174 
L 112.134386 177.945416 
L 105.443828 180.917651 
L 98.608995 183.951795 
L 96.731617 184.780249 
L 91.774163 186.997327 
L 84.93933 190.045883 
L 81.405981 191.615081 
L 78.104498 193.10105 
L 71.269665 196.162968 
L 66.151526 198.449914 
L 64.434833 199.227323 
L 57.6 202.301559 
L 57.6 205.284746 
L 57.6 212.119579 
L 57.6 218.954411 
L 57.6 224.066967 
z
" style="fill:#25848e;"/>
   </g>
   <g id="PathCollection_6">
    <path clip-path="url(#p237b59069b)" d="M 64.434833 199.227323 
L 66.151526 198.449914 
L 71.269665 196.162968 
L 78.104498 193.10105 
L 81.405981 191.615081 
L 84.93933 190.045883 
L 91.774163 186.997327 
L 96.731617 184.780249 
L 98.608995 183.951795 
L 105.443828 180.917651 
L 112.134386 177.945416 
L 112.27866 177.882174 
L 119.113493 174.863555 
L 125.948325 171.843376 
L 127.597346 171.110584 
L 132.783158 168.83659 
L 139.61799 165.833251 
L 143.149669 164.275751 
L 146.452823 162.838323 
L 153.287656 159.852988 
L 158.800698 157.440919 
L 160.122488 156.87028 
L 166.957321 153.904138 
L 173.792153 150.936584 
L 174.549286 150.606086 
L 180.626986 147.98825 
L 187.461818 145.041337 
L 187.461818 143.771254 
L 187.461818 136.936421 
L 187.461818 130.101589 
L 187.461818 127.274699 
L 180.626986 130.054045 
L 180.509246 130.101589 
L 173.792153 132.851544 
L 166.957321 135.645881 
L 163.786156 136.936421 
L 160.122488 138.447981 
L 153.287656 141.255766 
L 147.152152 143.771254 
L 146.452823 144.061922 
L 139.61799 146.881616 
L 132.783158 149.697212 
L 130.562952 150.606086 
L 125.948325 152.521263 
L 119.113493 155.346774 
L 114.030308 157.440919 
L 112.27866 158.172521 
L 105.443828 161.006411 
L 98.608995 163.835681 
L 97.536848 164.275751 
L 91.774163 166.673909 
L 84.93933 169.50961 
L 81.059719 171.110584 
L 78.104498 172.347021 
L 71.269665 175.187631 
L 64.620624 177.945416 
L 64.434833 178.023546 
L 57.6 180.867575 
L 57.6 184.780249 
L 57.6 191.615081 
L 57.6 198.449914 
L 57.6 202.301559 
z
" style="fill:#1e9c89;"/>
   </g>
   <g id="PathCollection_7">
    <path clip-path="url(#p237b59069b)" d="M 64.434833 178.023546 
L 64.620624 177.945416 
L 71.269665 175.187631 
L 78.104498 172.347021 
L 81.059719 171.110584 
L 84.93933 169.50961 
L 91.774163 166.673909 
L 97.536848 164.275751 
L 98.608995 163.835681 
L 105.443828 161.006411 
L 112.27866 158.172521 
L 114.030308 157.440919 
L 119.113493 155.346774 
L 125.948325 152.521263 
L 130.562952 150.606086 
L 132.783158 149.697212 
L 139.61799 146.881616 
L 146.452823 144.061922 
L 147.152152 143.771254 
L 153.287656 141.255766 
L 160.122488 138.447981 
L 163.786156 136.936421 
L 166.957321 135.645881 
L 173.792153 132.851544 
L 180.509246 130.101589 
L 180.626986 130.054045 
L 187.461818 127.274699 
L 187.461818 123.266756 
L 187.461818 116.431923 
L 187.461818 109.862033 
L 180.626986 112.492663 
L 173.792153 115.117724 
L 170.351786 116.431923 
L 166.957321 117.74696 
L 160.122488 120.37979 
L 153.287656 123.006589 
L 152.604689 123.266756 
L 146.452823 125.643487 
L 139.61799 128.275481 
L 134.85303 130.101589 
L 132.783158 130.906083 
L 125.948325 133.541344 
L 119.113493 136.169405 
L 117.101651 136.936421 
L 112.27866 138.801343 
L 105.443828 141.430041 
L 99.332988 143.771254 
L 98.608995 144.052577 
L 91.774163 146.679966 
L 84.93933 149.298926 
L 81.501557 150.606086 
L 78.104498 151.916217 
L 71.269665 154.531215 
L 64.434833 157.137258 
L 63.628824 157.440919 
L 57.6 159.744886 
L 57.6 164.275751 
L 57.6 171.110584 
L 57.6 177.945416 
L 57.6 180.867575 
z
" style="fill:#2fb47c;"/>
   </g>
   <g id="PathCollection_8">
    <path clip-path="url(#p237b59069b)" d="M 63.628824 157.440919 
L 64.434833 157.137258 
L 71.269665 154.531215 
L 78.104498 151.916217 
L 81.501557 150.606086 
L 84.93933 149.298926 
L 91.774163 146.679966 
L 98.608995 144.052577 
L 99.332988 143.771254 
L 105.443828 141.430041 
L 112.27866 138.801343 
L 117.101651 136.936421 
L 119.113493 136.169405 
L 125.948325 133.541344 
L 132.783158 130.906083 
L 134.85303 130.101589 
L 139.61799 128.275481 
L 146.452823 125.643487 
L 152.604689 123.266756 
L 153.287656 123.006589 
L 160.122488 120.37979 
L 166.957321 117.74696 
L 170.351786 116.431923 
L 173.792153 115.117724 
L 180.626986 112.492663 
L 187.461818 109.862033 
L 187.461818 109.597091 
L 180.626986 109.597091 
L 173.792153 109.597091 
L 166.957321 109.597091 
L 160.122488 109.597091 
L 153.287656 109.597091 
L 146.452823 109.597091 
L 140.715465 109.597091 
L 139.61799 109.994483 
L 132.783158 112.442992 
L 125.948325 114.881367 
L 121.570485 116.431923 
L 119.113493 117.314823 
L 112.27866 119.746637 
L 105.443828 122.167402 
L 102.310125 123.266756 
L 98.608995 124.584156 
L 91.774163 126.995021 
L 84.93933 129.393848 
L 82.898751 130.101589 
L 78.104498 131.788808 
L 71.269665 134.174328 
L 64.434833 136.546808 
L 63.296452 136.936421 
L 57.6 138.914809 
L 57.6 143.771254 
L 57.6 150.606086 
L 57.6 157.440919 
L 57.6 159.744886 
z
" style="fill:#5ec962;"/>
   </g>
   <g id="PathCollection_9">
    <path clip-path="url(#p237b59069b)" d="M 63.296452 136.936421 
L 64.434833 136.546808 
L 71.269665 134.174328 
L 78.104498 131.788808 
L 82.898751 130.101589 
L 84.93933 129.393848 
L 91.774163 126.995021 
L 98.608995 124.584156 
L 102.310125 123.266756 
L 105.443828 122.167402 
L 112.27866 119.746637 
L 119.113493 117.314823 
L 121.570485 116.431923 
L 125.948325 114.881367 
L 132.783158 112.442992 
L 139.61799 109.994483 
L 140.715465 109.597091 
L 139.61799 109.597091 
L 132.783158 109.597091 
L 125.948325 109.597091 
L 119.113493 109.597091 
L 112.27866 109.597091 
L 105.443828 109.597091 
L 98.608995 109.597091 
L 91.774163 109.597091 
L 85.49563 109.597091 
L 84.93933 109.776684 
L 78.104498 111.946435 
L 71.269665 114.099026 
L 64.434833 116.234224 
L 63.790445 116.431923 
L 57.6 118.359913 
L 57.6 123.266756 
L 57.6 130.101589 
L 57.6 136.936421 
L 57.6 138.914809 
z
" style="fill:#9bd93c;"/>
   </g>
   <g id="PathCollection_10">
    <path clip-path="url(#p237b59069b)" d="M 63.790445 116.431923 
L 64.434833 116.234224 
L 71.269665 114.099026 
L 78.104498 111.946435 
L 84.93933 109.776684 
L 85.49563 109.597091 
L 84.93933 109.597091 
L 78.104498 109.597091 
L 71.269665 109.597091 
L 64.434833 109.597091 
L 57.6 109.597091 
L 57.6 116.431923 
L 57.6 118.359913 
z
" style="fill:#dfe318;"/>
   </g>
   <g id="matplotlib.axis_1">
    <g id="xtick_1">
     <g id="line2d_1">
      <defs>
       <path d="M 0 0 
L 0 3.5 
" id="mcb12e3e926" style="stroke:#000000;stroke-width:0.8;"/>
      </defs>
      <g>
       <use style="stroke:#000000;stroke-width:0.8;" x="57.6" xlink:href="#mcb12e3e926" y="239.458909"/>
      </g>
     </g>
     <g id="text_1">
      <!-- 0 -->
      <defs>
       <path d="M 31.78125 66.40625 
Q 24.171875 66.40625 20.328125 58.90625 
Q 16.5 51.421875 16.5 36.375 
Q 16.5 21.390625 20.328125 13.890625 
Q 24.171875 6.390625 31.78125 6.390625 
Q 39.453125 6.390625 43.28125 13.890625 
Q 47.125 21.390625 47.125 36.375 
Q 47.125 51.421875 43.28125 58.90625 
Q 39.453125 66.40625 31.78125 66.40625 
z
M 31.78125 74.21875 
Q 44.046875 74.21875 50.515625 64.515625 
Q 56.984375 54.828125 56.984375 36.375 
Q 56.984375 17.96875 50.515625 8.265625 
Q 44.046875 -1.421875 31.78125 -1.421875 
Q 19.53125 -1.421875 13.0625 8.265625 
Q 6.59375 17.96875 6.59375 36.375 
Q 6.59375 54.828125 13.0625 64.515625 
Q 19.53125 74.21875 31.78125 74.21875 
z
" id="DejaVuSans-48"/>
      </defs>
      <g transform="translate(54.41875 254.057347)scale(0.1 -0.1)">
       <use xlink:href="#DejaVuSans-48"/>
      </g>
     </g>
    </g>
    <g id="xtick_2">
     <g id="line2d_2">
      <g>
       <use style="stroke:#000000;stroke-width:0.8;" x="91.774163" xlink:href="#mcb12e3e926" y="239.458909"/>
      </g>
     </g>
     <g id="text_2">
      <!-- 10 -->
      <defs>
       <path d="M 12.40625 8.296875 
L 28.515625 8.296875 
L 28.515625 63.921875 
L 10.984375 60.40625 
L 10.984375 69.390625 
L 28.421875 72.90625 
L 38.28125 72.90625 
L 38.28125 8.296875 
L 54.390625 8.296875 
L 54.390625 0 
L 12.40625 0 
z
" id="DejaVuSans-49"/>
      </defs>
      <g transform="translate(85.411663 254.057347)scale(0.1 -0.1)">
       <use xlink:href="#DejaVuSans-49"/>
       <use x="63.623047" xlink:href="#DejaVuSans-48"/>
      </g>
     </g>
    </g>
    <g id="xtick_3">
     <g id="line2d_3">
      <g>
       <use style="stroke:#000000;stroke-width:0.8;" x="125.948325" xlink:href="#mcb12e3e926" y="239.458909"/>
      </g>
     </g>
     <g id="text_3">
      <!-- 20 -->
      <defs>
       <path d="M 19.1875 8.296875 
L 53.609375 8.296875 
L 53.609375 0 
L 7.328125 0 
L 7.328125 8.296875 
Q 12.9375 14.109375 22.625 23.890625 
Q 32.328125 33.6875 34.8125 36.53125 
Q 39.546875 41.84375 41.421875 45.53125 
Q 43.3125 49.21875 43.3125 52.78125 
Q 43.3125 58.59375 39.234375 62.25 
Q 35.15625 65.921875 28.609375 65.921875 
Q 23.96875 65.921875 18.8125 64.3125 
Q 13.671875 62.703125 7.8125 59.421875 
L 7.8125 69.390625 
Q 13.765625 71.78125 18.9375 73 
Q 24.125 74.21875 28.421875 74.21875 
Q 39.75 74.21875 46.484375 68.546875 
Q 53.21875 62.890625 53.21875 53.421875 
Q 53.21875 48.921875 51.53125 44.890625 
Q 49.859375 40.875 45.40625 35.40625 
Q 44.1875 33.984375 37.640625 27.21875 
Q 31.109375 20.453125 19.1875 8.296875 
z
" id="DejaVuSans-50"/>
      </defs>
      <g transform="translate(119.585825 254.057347)scale(0.1 -0.1)">
       <use xlink:href="#DejaVuSans-50"/>
       <use x="63.623047" xlink:href="#DejaVuSans-48"/>
      </g>
     </g>
    </g>
    <g id="xtick_4">
     <g id="line2d_4">
      <g>
       <use style="stroke:#000000;stroke-width:0.8;" x="160.122488" xlink:href="#mcb12e3e926" y="239.458909"/>
      </g>
     </g>
     <g id="text_4">
      <!-- 30 -->
      <defs>
       <path d="M 40.578125 39.3125 
Q 47.65625 37.796875 51.625 33 
Q 55.609375 28.21875 55.609375 21.1875 
Q 55.609375 10.40625 48.1875 4.484375 
Q 40.765625 -1.421875 27.09375 -1.421875 
Q 22.515625 -1.421875 17.65625 -0.515625 
Q 12.796875 0.390625 7.625 2.203125 
L 7.625 11.71875 
Q 11.71875 9.328125 16.59375 8.109375 
Q 21.484375 6.890625 26.8125 6.890625 
Q 36.078125 6.890625 40.9375 10.546875 
Q 45.796875 14.203125 45.796875 21.1875 
Q 45.796875 27.640625 41.28125 31.265625 
Q 36.765625 34.90625 28.71875 34.90625 
L 20.21875 34.90625 
L 20.21875 43.015625 
L 29.109375 43.015625 
Q 36.375 43.015625 40.234375 45.921875 
Q 44.09375 48.828125 44.09375 54.296875 
Q 44.09375 59.90625 40.109375 62.90625 
Q 36.140625 65.921875 28.71875 65.921875 
Q 24.65625 65.921875 20.015625 65.03125 
Q 15.375 64.15625 9.8125 62.3125 
L 9.8125 71.09375 
Q 15.4375 72.65625 20.34375 73.4375 
Q 25.25 74.21875 29.59375 74.21875 
Q 40.828125 74.21875 47.359375 69.109375 
Q 53.90625 64.015625 53.90625 55.328125 
Q 53.90625 49.265625 50.4375 45.09375 
Q 46.96875 40.921875 40.578125 39.3125 
z
" id="DejaVuSans-51"/>
      </defs>
      <g transform="translate(153.759988 254.057347)scale(0.1 -0.1)">
       <use xlink:href="#DejaVuSans-51"/>
       <use x="63.623047" xlink:href="#DejaVuSans-48"/>
      </g>
     </g>
    </g>
    <g id="text_5">
     <!-- Beta1' -->
     <defs>
      <path d="M 19.671875 34.8125 
L 19.671875 8.109375 
L 35.5 8.109375 
Q 43.453125 8.109375 47.28125 11.40625 
Q 51.125 14.703125 51.125 21.484375 
Q 51.125 28.328125 47.28125 31.5625 
Q 43.453125 34.8125 35.5 34.8125 
z
M 19.671875 64.796875 
L 19.671875 42.828125 
L 34.28125 42.828125 
Q 41.5 42.828125 45.03125 45.53125 
Q 48.578125 48.25 48.578125 53.8125 
Q 48.578125 59.328125 45.03125 62.0625 
Q 41.5 64.796875 34.28125 64.796875 
z
M 9.8125 72.90625 
L 35.015625 72.90625 
Q 46.296875 72.90625 52.390625 68.21875 
Q 58.5 63.53125 58.5 54.890625 
Q 58.5 48.1875 55.375 44.234375 
Q 52.25 40.28125 46.1875 39.3125 
Q 53.46875 37.75 57.5 32.78125 
Q 61.53125 27.828125 61.53125 20.40625 
Q 61.53125 10.640625 54.890625 5.3125 
Q 48.25 0 35.984375 0 
L 9.8125 0 
z
" id="DejaVuSans-66"/>
      <path d="M 56.203125 29.59375 
L 56.203125 25.203125 
L 14.890625 25.203125 
Q 15.484375 15.921875 20.484375 11.0625 
Q 25.484375 6.203125 34.421875 6.203125 
Q 39.59375 6.203125 44.453125 7.46875 
Q 49.3125 8.734375 54.109375 11.28125 
L 54.109375 2.78125 
Q 49.265625 0.734375 44.1875 -0.34375 
Q 39.109375 -1.421875 33.890625 -1.421875 
Q 20.796875 -1.421875 13.15625 6.1875 
Q 5.515625 13.8125 5.515625 26.8125 
Q 5.515625 40.234375 12.765625 48.109375 
Q 20.015625 56 32.328125 56 
Q 43.359375 56 49.78125 48.890625 
Q 56.203125 41.796875 56.203125 29.59375 
z
M 47.21875 32.234375 
Q 47.125 39.59375 43.09375 43.984375 
Q 39.0625 48.390625 32.421875 48.390625 
Q 24.90625 48.390625 20.390625 44.140625 
Q 15.875 39.890625 15.1875 32.171875 
z
" id="DejaVuSans-101"/>
      <path d="M 18.3125 70.21875 
L 18.3125 54.6875 
L 36.8125 54.6875 
L 36.8125 47.703125 
L 18.3125 47.703125 
L 18.3125 18.015625 
Q 18.3125 11.328125 20.140625 9.421875 
Q 21.96875 7.515625 27.59375 7.515625 
L 36.8125 7.515625 
L 36.8125 0 
L 27.59375 0 
Q 17.1875 0 13.234375 3.875 
Q 9.28125 7.765625 9.28125 18.015625 
L 9.28125 47.703125 
L 2.6875 47.703125 
L 2.6875 54.6875 
L 9.28125 54.6875 
L 9.28125 70.21875 
z
" id="DejaVuSans-116"/>
      <path d="M 34.28125 27.484375 
Q 23.390625 27.484375 19.1875 25 
Q 14.984375 22.515625 14.984375 16.5 
Q 14.984375 11.71875 18.140625 8.90625 
Q 21.296875 6.109375 26.703125 6.109375 
Q 34.1875 6.109375 38.703125 11.40625 
Q 43.21875 16.703125 43.21875 25.484375 
L 43.21875 27.484375 
z
M 52.203125 31.203125 
L 52.203125 0 
L 43.21875 0 
L 43.21875 8.296875 
Q 40.140625 3.328125 35.546875 0.953125 
Q 30.953125 -1.421875 24.3125 -1.421875 
Q 15.921875 -1.421875 10.953125 3.296875 
Q 6 8.015625 6 15.921875 
Q 6 25.140625 12.171875 29.828125 
Q 18.359375 34.515625 30.609375 34.515625 
L 43.21875 34.515625 
L 43.21875 35.40625 
Q 43.21875 41.609375 39.140625 45 
Q 35.0625 48.390625 27.6875 48.390625 
Q 23 48.390625 18.546875 47.265625 
Q 14.109375 46.140625 10.015625 43.890625 
L 10.015625 52.203125 
Q 14.9375 54.109375 19.578125 55.046875 
Q 24.21875 56 28.609375 56 
Q 40.484375 56 46.34375 49.84375 
Q 52.203125 43.703125 52.203125 31.203125 
z
" id="DejaVuSans-97"/>
      <path d="M 17.921875 72.90625 
L 17.921875 45.796875 
L 9.625 45.796875 
L 9.625 72.90625 
z
" id="DejaVuSans-39"/>
     </defs>
     <g transform="translate(106.44419 267.735472)scale(0.1 -0.1)">
      <use xlink:href="#DejaVuSans-66"/>
      <use x="68.603516" xlink:href="#DejaVuSans-101"/>
      <use x="130.126953" xlink:href="#DejaVuSans-116"/>
      <use x="169.335938" xlink:href="#DejaVuSans-97"/>
      <use x="230.615234" xlink:href="#DejaVuSans-49"/>
      <use x="294.238281" xlink:href="#DejaVuSans-39"/>
     </g>
    </g>
   </g>
   <g id="matplotlib.axis_2">
    <g id="ytick_1">
     <g id="line2d_5">
      <defs>
       <path d="M 0 0 
L -3.5 0 
" id="m8744baf6da" style="stroke:#000000;stroke-width:0.8;"/>
      </defs>
      <g>
       <use style="stroke:#000000;stroke-width:0.8;" x="57.6" xlink:href="#m8744baf6da" y="239.458909"/>
      </g>
     </g>
     <g id="text_6">
      <!-- 0 -->
      <g transform="translate(44.2375 243.258128)scale(0.1 -0.1)">
       <use xlink:href="#DejaVuSans-48"/>
      </g>
     </g>
    </g>
    <g id="ytick_2">
     <g id="line2d_6">
      <g>
       <use style="stroke:#000000;stroke-width:0.8;" x="57.6" xlink:href="#m8744baf6da" y="205.284746"/>
      </g>
     </g>
     <g id="text_7">
      <!-- 10 -->
      <g transform="translate(37.875 209.083965)scale(0.1 -0.1)">
       <use xlink:href="#DejaVuSans-49"/>
       <use x="63.623047" xlink:href="#DejaVuSans-48"/>
      </g>
     </g>
    </g>
    <g id="ytick_3">
     <g id="line2d_7">
      <g>
       <use style="stroke:#000000;stroke-width:0.8;" x="57.6" xlink:href="#m8744baf6da" y="171.110584"/>
      </g>
     </g>
     <g id="text_8">
      <!-- 20 -->
      <g transform="translate(37.875 174.909802)scale(0.1 -0.1)">
       <use xlink:href="#DejaVuSans-50"/>
       <use x="63.623047" xlink:href="#DejaVuSans-48"/>
      </g>
     </g>
    </g>
    <g id="ytick_4">
     <g id="line2d_8">
      <g>
       <use style="stroke:#000000;stroke-width:0.8;" x="57.6" xlink:href="#m8744baf6da" y="136.936421"/>
      </g>
     </g>
     <g id="text_9">
      <!-- 30 -->
      <g transform="translate(37.875 140.73564)scale(0.1 -0.1)">
       <use xlink:href="#DejaVuSans-51"/>
       <use x="63.623047" xlink:href="#DejaVuSans-48"/>
      </g>
     </g>
    </g>
    <g id="text_10">
     <!-- Beta2' -->
     <g transform="translate(31.795312 190.614719)rotate(-90)scale(0.1 -0.1)">
      <use xlink:href="#DejaVuSans-66"/>
      <use x="68.603516" xlink:href="#DejaVuSans-101"/>
      <use x="130.126953" xlink:href="#DejaVuSans-116"/>
      <use x="169.335938" xlink:href="#DejaVuSans-97"/>
      <use x="230.615234" xlink:href="#DejaVuSans-50"/>
      <use x="294.238281" xlink:href="#DejaVuSans-39"/>
     </g>
    </g>
   </g>
   <g id="line2d_9">
    <path clip-path="url(#p237b59069b)" d="M 91.774163 239.458909 
L 91.774163 232.624077 
L 91.774163 225.789244 
L 91.774163 218.954411 
L 91.774163 212.119579 
L 91.774163 205.284746 
L 91.774163 198.449914 
L 91.774163 191.615081 
L 91.774163 184.780249 
L 91.774163 177.945416 
L 91.774163 171.110584 
L 91.774163 164.275751 
L 91.774163 157.440919 
L 91.774163 150.606086 
L 91.774163 143.771254 
L 91.774163 136.936421 
L 91.774163 130.101589 
L 91.774163 123.266756 
L 91.774163 116.431923 
L 91.774163 109.597091 
" style="fill:none;stroke:#ff0000;stroke-dasharray:9.6,2.4,1.5,2.4;stroke-dashoffset:0;stroke-width:1.5;"/>
   </g>
   <g id="line2d_10">
    <path clip-path="url(#p237b59069b)" d="M 57.6 205.284746 
L 64.434833 205.284746 
L 71.269665 205.284746 
L 78.104498 205.284746 
L 84.93933 205.284746 
L 91.774163 205.284746 
L 98.608995 205.284746 
L 105.443828 205.284746 
L 112.27866 205.284746 
L 119.113493 205.284746 
L 125.948325 205.284746 
L 132.783158 205.284746 
L 139.61799 205.284746 
L 146.452823 205.284746 
L 153.287656 205.284746 
L 160.122488 205.284746 
L 166.957321 205.284746 
L 173.792153 205.284746 
L 180.626986 205.284746 
L 187.461818 205.284746 
" style="fill:none;stroke:#ff0000;stroke-linecap:square;stroke-width:1.5;"/>
   </g>
   <g id="patch_3">
    <path d="M 57.6 239.458909 
L 57.6 109.597091 
" style="fill:none;stroke:#000000;stroke-linecap:square;stroke-linejoin:miter;stroke-width:0.8;"/>
   </g>
   <g id="patch_4">
    <path d="M 187.461818 239.458909 
L 187.461818 109.597091 
" style="fill:none;stroke:#000000;stroke-linecap:square;stroke-linejoin:miter;stroke-width:0.8;"/>
   </g>
   <g id="patch_5">
    <path d="M 57.6 239.458909 
L 187.461818 239.458909 
" style="fill:none;stroke:#000000;stroke-linecap:square;stroke-linejoin:miter;stroke-width:0.8;"/>
   </g>
   <g id="patch_6">
    <path d="M 57.6 109.597091 
L 187.461818 109.597091 
" style="fill:none;stroke:#000000;stroke-linecap:square;stroke-linejoin:miter;stroke-width:0.8;"/>
   </g>
   <g id="text_11">
    <g id="patch_7">
     <path d="M 135.517091 192.793682 
L 186.118341 192.793682 
Q 188.518341 192.793682 188.518341 190.393682 
L 188.518341 155.776432 
Q 188.518341 153.376432 186.118341 153.376432 
L 135.517091 153.376432 
Q 133.117091 153.376432 133.117091 155.776432 
L 133.117091 190.393682 
Q 133.117091 192.793682 135.517091 192.793682 
z
" style="fill:#f5deb3;opacity:0.8;stroke:#000000;stroke-linejoin:miter;"/>
    </g>
    <!-- Beta1 = 10 -->
    <defs>
     <path id="DejaVuSans-32"/>
     <path d="M 10.59375 45.40625 
L 73.1875 45.40625 
L 73.1875 37.203125 
L 10.59375 37.203125 
z
M 10.59375 25.484375 
L 73.1875 25.484375 
L 73.1875 17.1875 
L 10.59375 17.1875 
z
" id="DejaVuSans-61"/>
    </defs>
    <g transform="translate(135.517091 161.855182)scale(0.08 -0.08)">
     <use xlink:href="#DejaVuSans-66"/>
     <use x="68.603516" xlink:href="#DejaVuSans-101"/>
     <use x="130.126953" xlink:href="#DejaVuSans-116"/>
     <use x="169.335938" xlink:href="#DejaVuSans-97"/>
     <use x="230.615234" xlink:href="#DejaVuSans-49"/>
     <use x="294.238281" xlink:href="#DejaVuSans-32"/>
     <use x="326.025391" xlink:href="#DejaVuSans-61"/>
     <use x="409.814453" xlink:href="#DejaVuSans-32"/>
     <use x="441.601562" xlink:href="#DejaVuSans-49"/>
     <use x="505.224609" xlink:href="#DejaVuSans-48"/>
    </g>
    <!-- Delta1 = 9 -->
    <defs>
     <path d="M 19.671875 64.796875 
L 19.671875 8.109375 
L 31.59375 8.109375 
Q 46.6875 8.109375 53.6875 14.9375 
Q 60.6875 21.78125 60.6875 36.53125 
Q 60.6875 51.171875 53.6875 57.984375 
Q 46.6875 64.796875 31.59375 64.796875 
z
M 9.8125 72.90625 
L 30.078125 72.90625 
Q 51.265625 72.90625 61.171875 64.09375 
Q 71.09375 55.28125 71.09375 36.53125 
Q 71.09375 17.671875 61.125 8.828125 
Q 51.171875 0 30.078125 0 
L 9.8125 0 
z
" id="DejaVuSans-68"/>
     <path d="M 9.421875 75.984375 
L 18.40625 75.984375 
L 18.40625 0 
L 9.421875 0 
z
" id="DejaVuSans-108"/>
     <path d="M 10.984375 1.515625 
L 10.984375 10.5 
Q 14.703125 8.734375 18.5 7.8125 
Q 22.3125 6.890625 25.984375 6.890625 
Q 35.75 6.890625 40.890625 13.453125 
Q 46.046875 20.015625 46.78125 33.40625 
Q 43.953125 29.203125 39.59375 26.953125 
Q 35.25 24.703125 29.984375 24.703125 
Q 19.046875 24.703125 12.671875 31.3125 
Q 6.296875 37.9375 6.296875 49.421875 
Q 6.296875 60.640625 12.9375 67.421875 
Q 19.578125 74.21875 30.609375 74.21875 
Q 43.265625 74.21875 49.921875 64.515625 
Q 56.59375 54.828125 56.59375 36.375 
Q 56.59375 19.140625 48.40625 8.859375 
Q 40.234375 -1.421875 26.421875 -1.421875 
Q 22.703125 -1.421875 18.890625 -0.6875 
Q 15.09375 0.046875 10.984375 1.515625 
z
M 30.609375 32.421875 
Q 37.25 32.421875 41.125 36.953125 
Q 45.015625 41.5 45.015625 49.421875 
Q 45.015625 57.28125 41.125 61.84375 
Q 37.25 66.40625 30.609375 66.40625 
Q 23.96875 66.40625 20.09375 61.84375 
Q 16.21875 57.28125 16.21875 49.421875 
Q 16.21875 41.5 20.09375 36.953125 
Q 23.96875 32.421875 30.609375 32.421875 
z
" id="DejaVuSans-57"/>
    </defs>
    <g transform="translate(135.517091 170.813432)scale(0.08 -0.08)">
     <use xlink:href="#DejaVuSans-68"/>
     <use x="77.001953" xlink:href="#DejaVuSans-101"/>
     <use x="138.525391" xlink:href="#DejaVuSans-108"/>
     <use x="166.308594" xlink:href="#DejaVuSans-116"/>
     <use x="205.517578" xlink:href="#DejaVuSans-97"/>
     <use x="266.796875" xlink:href="#DejaVuSans-49"/>
     <use x="330.419922" xlink:href="#DejaVuSans-32"/>
     <use x="362.207031" xlink:href="#DejaVuSans-61"/>
     <use x="445.996094" xlink:href="#DejaVuSans-32"/>
     <use x="477.783203" xlink:href="#DejaVuSans-57"/>
    </g>
    <!-- Beta1' = 10 -->
    <g transform="translate(135.517091 179.771682)scale(0.08 -0.08)">
     <use xlink:href="#DejaVuSans-66"/>
     <use x="68.603516" xlink:href="#DejaVuSans-101"/>
     <use x="130.126953" xlink:href="#DejaVuSans-116"/>
     <use x="169.335938" xlink:href="#DejaVuSans-97"/>
     <use x="230.615234" xlink:href="#DejaVuSans-49"/>
     <use x="294.238281" xlink:href="#DejaVuSans-39"/>
     <use x="321.728516" xlink:href="#DejaVuSans-32"/>
     <use x="353.515625" xlink:href="#DejaVuSans-61"/>
     <use x="437.304688" xlink:href="#DejaVuSans-32"/>
     <use x="469.091797" xlink:href="#DejaVuSans-49"/>
     <use x="532.714844" xlink:href="#DejaVuSans-48"/>
    </g>
    <!-- Delta1' = 15 -->
    <defs>
     <path d="M 10.796875 72.90625 
L 49.515625 72.90625 
L 49.515625 64.59375 
L 19.828125 64.59375 
L 19.828125 46.734375 
Q 21.96875 47.46875 24.109375 47.828125 
Q 26.265625 48.1875 28.421875 48.1875 
Q 40.625 48.1875 47.75 41.5 
Q 54.890625 34.8125 54.890625 23.390625 
Q 54.890625 11.625 47.5625 5.09375 
Q 40.234375 -1.421875 26.90625 -1.421875 
Q 22.3125 -1.421875 17.546875 -0.640625 
Q 12.796875 0.140625 7.71875 1.703125 
L 7.71875 11.625 
Q 12.109375 9.234375 16.796875 8.0625 
Q 21.484375 6.890625 26.703125 6.890625 
Q 35.15625 6.890625 40.078125 11.328125 
Q 45.015625 15.765625 45.015625 23.390625 
Q 45.015625 31 40.078125 35.4375 
Q 35.15625 39.890625 26.703125 39.890625 
Q 22.75 39.890625 18.8125 39.015625 
Q 14.890625 38.140625 10.796875 36.28125 
z
" id="DejaVuSans-53"/>
    </defs>
    <g transform="translate(135.517091 188.729932)scale(0.08 -0.08)">
     <use xlink:href="#DejaVuSans-68"/>
     <use x="77.001953" xlink:href="#DejaVuSans-101"/>
     <use x="138.525391" xlink:href="#DejaVuSans-108"/>
     <use x="166.308594" xlink:href="#DejaVuSans-116"/>
     <use x="205.517578" xlink:href="#DejaVuSans-97"/>
     <use x="266.796875" xlink:href="#DejaVuSans-49"/>
     <use x="330.419922" xlink:href="#DejaVuSans-39"/>
     <use x="357.910156" xlink:href="#DejaVuSans-32"/>
     <use x="389.697266" xlink:href="#DejaVuSans-61"/>
     <use x="473.486328" xlink:href="#DejaVuSans-32"/>
     <use x="505.273438" xlink:href="#DejaVuSans-49"/>
     <use x="568.896484" xlink:href="#DejaVuSans-53"/>
    </g>
   </g>
   <g id="text_12">
    <!-- Disease 1 -->
    <defs>
     <path d="M 9.421875 54.6875 
L 18.40625 54.6875 
L 18.40625 0 
L 9.421875 0 
z
M 9.421875 75.984375 
L 18.40625 75.984375 
L 18.40625 64.59375 
L 9.421875 64.59375 
z
" id="DejaVuSans-105"/>
     <path d="M 44.28125 53.078125 
L 44.28125 44.578125 
Q 40.484375 46.53125 36.375 47.5 
Q 32.28125 48.484375 27.875 48.484375 
Q 21.1875 48.484375 17.84375 46.4375 
Q 14.5 44.390625 14.5 40.28125 
Q 14.5 37.15625 16.890625 35.375 
Q 19.28125 33.59375 26.515625 31.984375 
L 29.59375 31.296875 
Q 39.15625 29.25 43.1875 25.515625 
Q 47.21875 21.78125 47.21875 15.09375 
Q 47.21875 7.46875 41.1875 3.015625 
Q 35.15625 -1.421875 24.609375 -1.421875 
Q 20.21875 -1.421875 15.453125 -0.5625 
Q 10.6875 0.296875 5.421875 2 
L 5.421875 11.28125 
Q 10.40625 8.6875 15.234375 7.390625 
Q 20.0625 6.109375 24.8125 6.109375 
Q 31.15625 6.109375 34.5625 8.28125 
Q 37.984375 10.453125 37.984375 14.40625 
Q 37.984375 18.0625 35.515625 20.015625 
Q 33.0625 21.96875 24.703125 23.78125 
L 21.578125 24.515625 
Q 13.234375 26.265625 9.515625 29.90625 
Q 5.8125 33.546875 5.8125 39.890625 
Q 5.8125 47.609375 11.28125 51.796875 
Q 16.75 56 26.8125 56 
Q 31.78125 56 36.171875 55.265625 
Q 40.578125 54.546875 44.28125 53.078125 
z
" id="DejaVuSans-115"/>
    </defs>
    <g transform="translate(93.207784 103.597091)scale(0.12 -0.12)">
     <use xlink:href="#DejaVuSans-68"/>
     <use x="77.001953" xlink:href="#DejaVuSans-105"/>
     <use x="104.785156" xlink:href="#DejaVuSans-115"/>
     <use x="156.884766" xlink:href="#DejaVuSans-101"/>
     <use x="218.408203" xlink:href="#DejaVuSans-97"/>
     <use x="279.6875" xlink:href="#DejaVuSans-115"/>
     <use x="331.787109" xlink:href="#DejaVuSans-101"/>
     <use x="393.310547" xlink:href="#DejaVuSans-32"/>
     <use x="425.097656" xlink:href="#DejaVuSans-49"/>
    </g>
   </g>
   <g id="legend_1">
    <g id="patch_8">
     <path d="M 132.721818 139.482091 
L 181.861818 139.482091 
Q 183.461818 139.482091 183.461818 137.882091 
L 183.461818 115.197091 
Q 183.461818 113.597091 181.861818 113.597091 
L 132.721818 113.597091 
Q 131.121818 113.597091 131.121818 115.197091 
L 131.121818 137.882091 
Q 131.121818 139.482091 132.721818 139.482091 
z
" style="fill:#ffffff;opacity:0.8;stroke:#cccccc;stroke-linejoin:miter;"/>
    </g>
    <g id="line2d_11">
     <path d="M 134.321818 120.075841 
L 150.321818 120.075841 
" style="fill:none;stroke:#ff0000;stroke-dasharray:9.6,2.4,1.5,2.4;stroke-dashoffset:0;stroke-width:1.5;"/>
    </g>
    <g id="line2d_12"/>
    <g id="text_13">
     <!-- Beta1 -->
     <g transform="translate(156.721818 122.875841)scale(0.08 -0.08)">
      <use xlink:href="#DejaVuSans-66"/>
      <use x="68.603516" xlink:href="#DejaVuSans-101"/>
      <use x="130.126953" xlink:href="#DejaVuSans-116"/>
      <use x="169.335938" xlink:href="#DejaVuSans-97"/>
      <use x="230.615234" xlink:href="#DejaVuSans-49"/>
     </g>
    </g>
    <g id="line2d_13">
     <path d="M 134.321818 131.818341 
L 150.321818 131.818341 
" style="fill:none;stroke:#ff0000;stroke-linecap:square;stroke-width:1.5;"/>
    </g>
    <g id="line2d_14"/>
    <g id="text_14">
     <!-- Beta2 -->
     <g transform="translate(156.721818 134.618341)scale(0.08 -0.08)">
      <use xlink:href="#DejaVuSans-66"/>
      <use x="68.603516" xlink:href="#DejaVuSans-101"/>
      <use x="130.126953" xlink:href="#DejaVuSans-116"/>
      <use x="169.335938" xlink:href="#DejaVuSans-97"/>
      <use x="230.615234" xlink:href="#DejaVuSans-50"/>
     </g>
    </g>
   </g>
  </g>
  <g id="axes_2">
   <g id="patch_9">
    <path d="M 252.392727 239.458909 
L 382.254545 239.458909 
L 382.254545 109.597091 
L 252.392727 109.597091 
z
" style="fill:#ffffff;"/>
   </g>
   <g id="PathCollection_11">
    <path clip-path="url(#pa9d9368fb9)" d="M 255.181641 232.624077 
L 254.198658 225.789244 
L 253.215954 218.954411 
L 252.392727 213.231661 
L 252.392727 218.954411 
L 252.392727 225.789244 
L 252.392727 232.624077 
L 252.392727 239.458909 
L 256.164748 239.458909 
z
" style="fill:#471063;"/>
   </g>
   <g id="PathCollection_12">
    <path clip-path="url(#pa9d9368fb9)" d="M 259.22756 239.458909 
L 266.062392 239.458909 
L 271.405764 239.458909 
L 270.327779 232.624077 
L 269.250813 225.789244 
L 268.175029 218.954411 
L 267.100584 212.119579 
L 266.062392 205.507489 
L 266.027692 205.284746 
L 264.958007 198.449914 
L 263.889793 191.615081 
L 262.8232 184.780249 
L 261.758387 177.945416 
L 260.695505 171.110584 
L 259.634713 164.275751 
L 259.22756 161.656839 
L 258.576135 157.440919 
L 257.519669 150.606086 
L 256.465402 143.771254 
L 255.413482 136.936421 
L 254.36406 130.101589 
L 253.317286 123.266756 
L 252.392727 117.218031 
L 252.392727 123.266756 
L 252.392727 130.101589 
L 252.392727 136.936421 
L 252.392727 143.771254 
L 252.392727 150.606086 
L 252.392727 157.440919 
L 252.392727 164.275751 
L 252.392727 171.110584 
L 252.392727 177.945416 
L 252.392727 184.780249 
L 252.392727 191.615081 
L 252.392727 198.449914 
L 252.392727 205.284746 
L 252.392727 212.119579 
L 252.392727 213.231661 
L 253.215954 218.954411 
L 254.198658 225.789244 
L 255.181641 232.624077 
L 256.164748 239.458909 
z
" style="fill:#472d7b;"/>
   </g>
   <g id="PathCollection_13">
    <path clip-path="url(#pa9d9368fb9)" d="M 272.897225 239.458909 
L 279.732057 239.458909 
L 286.56689 239.458909 
L 286.744099 239.458909 
L 286.56689 238.443487 
L 285.561907 232.624077 
L 284.382451 225.789244 
L 283.205175 218.954411 
L 282.03024 212.119579 
L 280.857809 205.284746 
L 279.732057 198.708704 
L 279.688158 198.449914 
L 278.524095 191.615081 
L 277.362639 184.780249 
L 276.203963 177.945416 
L 275.04822 171.110584 
L 273.895563 164.275751 
L 272.897225 158.344298 
L 272.746327 157.440919 
L 271.601407 150.606086 
L 270.459678 143.771254 
L 269.321289 136.936421 
L 268.186387 130.101589 
L 267.055127 123.266756 
L 266.062392 117.253335 
L 265.927602 116.431923 
L 264.803413 109.597091 
L 259.22756 109.597091 
L 252.392727 109.597091 
L 252.392727 116.431923 
L 252.392727 117.218031 
L 253.317286 123.266756 
L 254.36406 130.101589 
L 255.413482 136.936421 
L 256.465402 143.771254 
L 257.519669 150.606086 
L 258.576135 157.440919 
L 259.22756 161.656839 
L 259.634713 164.275751 
L 260.695505 171.110584 
L 261.758387 177.945416 
L 262.8232 184.780249 
L 263.889793 191.615081 
L 264.958007 198.449914 
L 266.027692 205.284746 
L 266.062392 205.507489 
L 267.100584 212.119579 
L 268.175029 218.954411 
L 269.250813 225.789244 
L 270.327779 232.624077 
L 271.405764 239.458909 
z
" style="fill:#404688;"/>
   </g>
   <g id="PathCollection_14">
    <path clip-path="url(#pa9d9368fb9)" d="M 286.56689 238.443487 
L 286.744099 239.458909 
L 293.401722 239.458909 
L 300.236555 239.458909 
L 302.229512 239.458909 
L 300.928611 232.624077 
L 300.236555 228.98992 
L 299.63414 225.789244 
L 298.346383 218.954411 
L 297.062074 212.119579 
L 295.781387 205.284746 
L 294.504473 198.449914 
L 293.401722 192.534422 
L 293.232114 191.615081 
L 291.967548 184.780249 
L 290.706857 177.945416 
L 289.450203 171.110584 
L 288.197746 164.275751 
L 286.949654 157.440919 
L 286.56689 155.347131 
L 285.707861 150.606086 
L 284.471215 143.771254 
L 283.239 136.936421 
L 282.011374 130.101589 
L 280.788492 123.266756 
L 279.732057 117.343825 
L 279.570621 116.431923 
L 278.358355 109.597091 
L 272.897225 109.597091 
L 266.062392 109.597091 
L 264.803413 109.597091 
L 265.927602 116.431923 
L 266.062392 117.253335 
L 267.055127 123.266756 
L 268.186387 130.101589 
L 269.321289 136.936421 
L 270.459678 143.771254 
L 271.601407 150.606086 
L 272.746327 157.440919 
L 272.897225 158.344298 
L 273.895563 164.275751 
L 275.04822 171.110584 
L 276.203963 177.945416 
L 277.362639 184.780249 
L 278.524095 191.615081 
L 279.688158 198.449914 
L 279.732057 198.708704 
L 280.857809 205.284746 
L 282.03024 212.119579 
L 283.205175 218.954411 
L 284.382451 225.789244 
L 285.561907 232.624077 
z
" style="fill:#365d8d;"/>
   </g>
   <g id="PathCollection_15">
    <path clip-path="url(#pa9d9368fb9)" d="M 307.071388 239.458909 
L 313.90622 239.458909 
L 317.900099 239.458909 
L 316.474356 232.624077 
L 315.053363 225.789244 
L 313.90622 220.259971 
L 313.638826 218.954411 
L 312.235626 212.119579 
L 310.837265 205.284746 
L 309.443917 198.449914 
L 308.055751 191.615081 
L 307.071388 186.759737 
L 306.674703 184.780249 
L 305.303267 177.945416 
L 303.937079 171.110584 
L 302.576307 164.275751 
L 301.221117 157.440919 
L 300.236555 152.463789 
L 299.872832 150.606086 
L 298.533292 143.771254 
L 297.199386 136.936421 
L 295.871277 130.101589 
L 294.549126 123.266756 
L 293.401722 117.313196 
L 293.233387 116.431923 
L 291.925793 109.597091 
L 286.56689 109.597091 
L 279.732057 109.597091 
L 278.358355 109.597091 
L 279.570621 116.431923 
L 279.732057 117.343825 
L 280.788492 123.266756 
L 282.011374 130.101589 
L 283.239 136.936421 
L 284.471215 143.771254 
L 285.707861 150.606086 
L 286.56689 155.347131 
L 286.949654 157.440919 
L 288.197746 164.275751 
L 289.450203 171.110584 
L 290.706857 177.945416 
L 291.967548 184.780249 
L 293.232114 191.615081 
L 293.401722 192.534422 
L 294.504473 198.449914 
L 295.781387 205.284746 
L 297.062074 212.119579 
L 298.346383 218.954411 
L 299.63414 225.789244 
L 300.236555 228.98992 
L 300.928611 232.624077 
L 302.229512 239.458909 
z
" style="fill:#2c728e;"/>
   </g>
   <g id="PathCollection_16">
    <path clip-path="url(#pa9d9368fb9)" d="M 320.741053 239.458909 
L 327.575885 239.458909 
L 333.799523 239.458909 
L 332.238081 232.624077 
L 330.682748 225.789244 
L 329.133707 218.954411 
L 327.591144 212.119579 
L 327.575885 212.052183 
L 326.064908 205.284746 
L 324.545138 198.449914 
L 323.031902 191.615081 
L 321.525377 184.780249 
L 320.741053 181.218343 
L 320.029526 177.945416 
L 318.544543 171.110584 
L 317.066317 164.275751 
L 315.595017 157.440919 
L 314.130806 150.606086 
L 313.90622 149.55912 
L 312.678867 143.771254 
L 311.234827 136.936421 
L 309.797909 130.101589 
L 308.368272 123.266756 
L 307.071388 117.038215 
L 306.946442 116.431923 
L 305.53574 109.597091 
L 300.236555 109.597091 
L 293.401722 109.597091 
L 291.925793 109.597091 
L 293.233387 116.431923 
L 293.401722 117.313196 
L 294.549126 123.266756 
L 295.871277 130.101589 
L 297.199386 136.936421 
L 298.533292 143.771254 
L 299.872832 150.606086 
L 300.236555 152.463789 
L 301.221117 157.440919 
L 302.576307 164.275751 
L 303.937079 171.110584 
L 305.303267 177.945416 
L 306.674703 184.780249 
L 307.071388 186.759737 
L 308.055751 191.615081 
L 309.443917 198.449914 
L 310.837265 205.284746 
L 312.235626 212.119579 
L 313.638826 218.954411 
L 313.90622 220.259971 
L 315.053363 225.789244 
L 316.474356 232.624077 
L 317.900099 239.458909 
z
" style="fill:#24868e;"/>
   </g>
   <g id="PathCollection_17">
    <path clip-path="url(#pa9d9368fb9)" d="M 334.410718 239.458909 
L 341.24555 239.458909 
L 348.080383 239.458909 
L 349.989043 239.458909 
L 348.265669 232.624077 
L 348.080383 231.890912 
L 346.562915 225.789244 
L 344.869477 218.954411 
L 343.18402 212.119579 
L 341.506721 205.284746 
L 341.24555 204.222214 
L 339.84787 198.449914 
L 338.198941 191.615081 
L 336.558211 184.780249 
L 334.925861 177.945416 
L 334.410718 175.788607 
L 333.308871 171.110584 
L 331.703351 164.275751 
L 330.106218 157.440919 
L 328.517657 150.606086 
L 327.575885 146.544394 
L 326.941079 143.771254 
L 325.377816 136.936421 
L 323.823124 130.101589 
L 322.277164 123.266756 
L 320.741053 116.436151 
L 320.740113 116.431923 
L 319.21794 109.597091 
L 313.90622 109.597091 
L 307.071388 109.597091 
L 305.53574 109.597091 
L 306.946442 116.431923 
L 307.071388 117.038215 
L 308.368272 123.266756 
L 309.797909 130.101589 
L 311.234827 136.936421 
L 312.678867 143.771254 
L 313.90622 149.55912 
L 314.130806 150.606086 
L 315.595017 157.440919 
L 317.066317 164.275751 
L 318.544543 171.110584 
L 320.029526 177.945416 
L 320.741053 181.218343 
L 321.525377 184.780249 
L 323.031902 191.615081 
L 324.545138 198.449914 
L 326.064908 205.284746 
L 327.575885 212.052183 
L 327.591144 212.119579 
L 329.133707 218.954411 
L 330.682748 225.789244 
L 332.238081 232.624077 
L 333.799523 239.458909 
z
" style="fill:#1f9a8a;"/>
   </g>
   <g id="PathCollection_18">
    <path clip-path="url(#pa9d9368fb9)" d="M 354.915215 239.458909 
L 361.750048 239.458909 
L 366.511783 239.458909 
L 364.625126 232.624077 
L 362.748245 225.789244 
L 361.750048 222.148611 
L 360.889097 218.954411 
L 359.048575 212.119579 
L 357.217858 205.284746 
L 355.397142 198.449914 
L 354.915215 196.641436 
L 353.597185 191.615081 
L 351.810949 184.780249 
L 350.034713 177.945416 
L 348.268666 171.110584 
L 348.080383 170.382869 
L 346.523904 164.275751 
L 344.790472 157.440919 
L 343.067221 150.606086 
L 341.354328 143.771254 
L 341.24555 143.337803 
L 339.661383 136.936421 
L 337.979262 130.101589 
L 336.30745 123.266756 
L 334.646135 116.431923 
L 334.410718 115.463809 
L 333.002315 109.597091 
L 327.575885 109.597091 
L 320.741053 109.597091 
L 319.21794 109.597091 
L 320.740113 116.431923 
L 320.741053 116.436151 
L 322.277164 123.266756 
L 323.823124 130.101589 
L 325.377816 136.936421 
L 326.941079 143.771254 
L 327.575885 146.544394 
L 328.517657 150.606086 
L 330.106218 157.440919 
L 331.703351 164.275751 
L 333.308871 171.110584 
L 334.410718 175.788607 
L 334.925861 177.945416 
L 336.558211 184.780249 
L 338.198941 191.615081 
L 339.84787 198.449914 
L 341.24555 204.222214 
L 341.506721 205.284746 
L 343.18402 212.119579 
L 344.869477 218.954411 
L 346.562915 225.789244 
L 348.080383 231.890912 
L 348.265669 232.624077 
L 349.989043 239.458909 
z
" style="fill:#28ae80;"/>
   </g>
   <g id="PathCollection_19">
    <path clip-path="url(#pa9d9368fb9)" d="M 368.58488 239.458909 
L 375.419713 239.458909 
L 382.254545 239.458909 
L 382.254545 235.634071 
L 381.349881 232.624077 
L 379.297617 225.789244 
L 377.257144 218.954411 
L 375.419713 212.768226 
L 375.230508 212.119579 
L 373.233416 205.284746 
L 371.248111 198.449914 
L 369.274799 191.615081 
L 368.58488 189.223687 
L 367.324758 184.780249 
L 365.392592 177.945416 
L 363.472403 171.110584 
L 361.750048 164.945902 
L 361.565835 164.275751 
L 359.684807 157.440919 
L 357.815709 150.606086 
L 355.958729 143.771254 
L 354.915215 139.918861 
L 354.119553 136.936421 
L 352.299552 130.101589 
L 350.491607 123.266756 
L 348.69589 116.431923 
L 348.080383 114.085696 
L 346.919365 109.597091 
L 341.24555 109.597091 
L 334.410718 109.597091 
L 333.002315 109.597091 
L 334.410718 115.463809 
L 334.646135 116.431923 
L 336.30745 123.266756 
L 337.979262 130.101589 
L 339.661383 136.936421 
L 341.24555 143.337803 
L 341.354328 143.771254 
L 343.067221 150.606086 
L 344.790472 157.440919 
L 346.523904 164.275751 
L 348.080383 170.382869 
L 348.268666 171.110584 
L 350.034713 177.945416 
L 351.810949 184.780249 
L 353.597185 191.615081 
L 354.915215 196.641436 
L 355.397142 198.449914 
L 357.217858 205.284746 
L 359.048575 212.119579 
L 360.889097 218.954411 
L 361.750048 222.148611 
L 362.748245 225.789244 
L 364.625126 232.624077 
L 366.511783 239.458909 
z
" style="fill:#48c16e;"/>
   </g>
   <g id="PathCollection_20">
    <path clip-path="url(#pa9d9368fb9)" d="M 382.254545 235.634071 
L 382.254545 232.624077 
L 382.254545 225.789244 
L 382.254545 218.954411 
L 382.254545 212.119579 
L 382.254545 205.284746 
L 382.254545 198.449914 
L 382.254545 191.615081 
L 382.254545 184.780249 
L 382.254545 181.904608 
L 381.041845 177.945416 
L 378.954646 171.110584 
L 376.881551 164.275751 
L 375.419713 159.434886 
L 374.827919 157.440919 
L 372.800934 150.606086 
L 370.787978 143.771254 
L 368.789236 136.936421 
L 368.58488 136.237972 
L 366.818523 130.101589 
L 364.86332 123.266756 
L 362.922244 116.431923 
L 361.750048 112.287803 
L 361.000571 109.597091 
L 354.915215 109.597091 
L 348.080383 109.597091 
L 346.919365 109.597091 
L 348.080383 114.085696 
L 348.69589 116.431923 
L 350.491607 123.266756 
L 352.299552 130.101589 
L 354.119553 136.936421 
L 354.915215 139.918861 
L 355.958729 143.771254 
L 357.815709 150.606086 
L 359.684807 157.440919 
L 361.565835 164.275751 
L 361.750048 164.945902 
L 363.472403 171.110584 
L 365.392592 177.945416 
L 367.324758 184.780249 
L 368.58488 189.223687 
L 369.274799 191.615081 
L 371.248111 198.449914 
L 373.233416 205.284746 
L 375.230508 212.119579 
L 375.419713 212.768226 
L 377.257144 218.954411 
L 379.297617 225.789244 
L 381.349881 232.624077 
z
" style="fill:#75d054;"/>
   </g>
   <g id="PathCollection_21">
    <path clip-path="url(#pa9d9368fb9)" d="M 382.254545 181.904608 
L 382.254545 177.945416 
L 382.254545 171.110584 
L 382.254545 164.275751 
L 382.254545 157.440919 
L 382.254545 150.606086 
L 382.254545 143.771254 
L 382.254545 136.936421 
L 382.254545 132.303319 
L 381.572332 130.101589 
L 379.457866 123.266756 
L 377.359575 116.431923 
L 375.419713 110.067368 
L 375.278733 109.597091 
L 368.58488 109.597091 
L 361.750048 109.597091 
L 361.000571 109.597091 
L 361.750048 112.287803 
L 362.922244 116.431923 
L 364.86332 123.266756 
L 366.818523 130.101589 
L 368.58488 136.237972 
L 368.789236 136.936421 
L 370.787978 143.771254 
L 372.800934 150.606086 
L 374.827919 157.440919 
L 375.419713 159.434886 
L 376.881551 164.275751 
L 378.954646 171.110584 
L 381.041845 177.945416 
z
" style="fill:#addc30;"/>
   </g>
   <g id="PathCollection_22">
    <path clip-path="url(#pa9d9368fb9)" d="M 382.254545 132.303319 
L 382.254545 130.101589 
L 382.254545 123.266756 
L 382.254545 116.431923 
L 382.254545 109.597091 
L 375.419713 109.597091 
L 375.278733 109.597091 
L 375.419713 110.067368 
L 377.359575 116.431923 
L 379.457866 123.266756 
L 381.572332 130.101589 
z
" style="fill:#e5e419;"/>
   </g>
   <g id="matplotlib.axis_3">
    <g id="xtick_5">
     <g id="line2d_15">
      <g>
       <use style="stroke:#000000;stroke-width:0.8;" x="252.392727" xlink:href="#mcb12e3e926" y="239.458909"/>
      </g>
     </g>
     <g id="text_15">
      <!-- 0 -->
      <g transform="translate(249.211477 254.057347)scale(0.1 -0.1)">
       <use xlink:href="#DejaVuSans-48"/>
      </g>
     </g>
    </g>
    <g id="xtick_6">
     <g id="line2d_16">
      <g>
       <use style="stroke:#000000;stroke-width:0.8;" x="286.56689" xlink:href="#mcb12e3e926" y="239.458909"/>
      </g>
     </g>
     <g id="text_16">
      <!-- 10 -->
      <g transform="translate(280.20439 254.057347)scale(0.1 -0.1)">
       <use xlink:href="#DejaVuSans-49"/>
       <use x="63.623047" xlink:href="#DejaVuSans-48"/>
      </g>
     </g>
    </g>
    <g id="xtick_7">
     <g id="line2d_17">
      <g>
       <use style="stroke:#000000;stroke-width:0.8;" x="320.741053" xlink:href="#mcb12e3e926" y="239.458909"/>
      </g>
     </g>
     <g id="text_17">
      <!-- 20 -->
      <g transform="translate(314.378553 254.057347)scale(0.1 -0.1)">
       <use xlink:href="#DejaVuSans-50"/>
       <use x="63.623047" xlink:href="#DejaVuSans-48"/>
      </g>
     </g>
    </g>
    <g id="xtick_8">
     <g id="line2d_18">
      <g>
       <use style="stroke:#000000;stroke-width:0.8;" x="354.915215" xlink:href="#mcb12e3e926" y="239.458909"/>
      </g>
     </g>
     <g id="text_18">
      <!-- 30 -->
      <g transform="translate(348.552715 254.057347)scale(0.1 -0.1)">
       <use xlink:href="#DejaVuSans-51"/>
       <use x="63.623047" xlink:href="#DejaVuSans-48"/>
      </g>
     </g>
    </g>
    <g id="text_19">
     <!-- Beta1' -->
     <g transform="translate(301.236918 267.735472)scale(0.1 -0.1)">
      <use xlink:href="#DejaVuSans-66"/>
      <use x="68.603516" xlink:href="#DejaVuSans-101"/>
      <use x="130.126953" xlink:href="#DejaVuSans-116"/>
      <use x="169.335938" xlink:href="#DejaVuSans-97"/>
      <use x="230.615234" xlink:href="#DejaVuSans-49"/>
      <use x="294.238281" xlink:href="#DejaVuSans-39"/>
     </g>
    </g>
   </g>
   <g id="matplotlib.axis_4">
    <g id="ytick_5">
     <g id="line2d_19">
      <g>
       <use style="stroke:#000000;stroke-width:0.8;" x="252.392727" xlink:href="#m8744baf6da" y="239.458909"/>
      </g>
     </g>
     <g id="text_20">
      <!-- 0 -->
      <g transform="translate(239.030227 243.258128)scale(0.1 -0.1)">
       <use xlink:href="#DejaVuSans-48"/>
      </g>
     </g>
    </g>
    <g id="ytick_6">
     <g id="line2d_20">
      <g>
       <use style="stroke:#000000;stroke-width:0.8;" x="252.392727" xlink:href="#m8744baf6da" y="205.284746"/>
      </g>
     </g>
     <g id="text_21">
      <!-- 10 -->
      <g transform="translate(232.667727 209.083965)scale(0.1 -0.1)">
       <use xlink:href="#DejaVuSans-49"/>
       <use x="63.623047" xlink:href="#DejaVuSans-48"/>
      </g>
     </g>
    </g>
    <g id="ytick_7">
     <g id="line2d_21">
      <g>
       <use style="stroke:#000000;stroke-width:0.8;" x="252.392727" xlink:href="#m8744baf6da" y="171.110584"/>
      </g>
     </g>
     <g id="text_22">
      <!-- 20 -->
      <g transform="translate(232.667727 174.909802)scale(0.1 -0.1)">
       <use xlink:href="#DejaVuSans-50"/>
       <use x="63.623047" xlink:href="#DejaVuSans-48"/>
      </g>
     </g>
    </g>
    <g id="ytick_8">
     <g id="line2d_22">
      <g>
       <use style="stroke:#000000;stroke-width:0.8;" x="252.392727" xlink:href="#m8744baf6da" y="136.936421"/>
      </g>
     </g>
     <g id="text_23">
      <!-- 30 -->
      <g transform="translate(232.667727 140.73564)scale(0.1 -0.1)">
       <use xlink:href="#DejaVuSans-51"/>
       <use x="63.623047" xlink:href="#DejaVuSans-48"/>
      </g>
     </g>
    </g>
    <g id="text_24">
     <!-- Beta2' -->
     <g transform="translate(226.58804 190.614719)rotate(-90)scale(0.1 -0.1)">
      <use xlink:href="#DejaVuSans-66"/>
      <use x="68.603516" xlink:href="#DejaVuSans-101"/>
      <use x="130.126953" xlink:href="#DejaVuSans-116"/>
      <use x="169.335938" xlink:href="#DejaVuSans-97"/>
      <use x="230.615234" xlink:href="#DejaVuSans-50"/>
      <use x="294.238281" xlink:href="#DejaVuSans-39"/>
     </g>
    </g>
   </g>
   <g id="line2d_23">
    <path clip-path="url(#pa9d9368fb9)" d="M 286.56689 239.458909 
L 286.56689 232.624077 
L 286.56689 225.789244 
L 286.56689 218.954411 
L 286.56689 212.119579 
L 286.56689 205.284746 
L 286.56689 198.449914 
L 286.56689 191.615081 
L 286.56689 184.780249 
L 286.56689 177.945416 
L 286.56689 171.110584 
L 286.56689 164.275751 
L 286.56689 157.440919 
L 286.56689 150.606086 
L 286.56689 143.771254 
L 286.56689 136.936421 
L 286.56689 130.101589 
L 286.56689 123.266756 
L 286.56689 116.431923 
L 286.56689 109.597091 
" style="fill:none;stroke:#ff0000;stroke-dasharray:9.6,2.4,1.5,2.4;stroke-dashoffset:0;stroke-width:1.5;"/>
   </g>
   <g id="line2d_24">
    <path clip-path="url(#pa9d9368fb9)" d="M 252.392727 205.284746 
L 259.22756 205.284746 
L 266.062392 205.284746 
L 272.897225 205.284746 
L 279.732057 205.284746 
L 286.56689 205.284746 
L 293.401722 205.284746 
L 300.236555 205.284746 
L 307.071388 205.284746 
L 313.90622 205.284746 
L 320.741053 205.284746 
L 327.575885 205.284746 
L 334.410718 205.284746 
L 341.24555 205.284746 
L 348.080383 205.284746 
L 354.915215 205.284746 
L 361.750048 205.284746 
L 368.58488 205.284746 
L 375.419713 205.284746 
L 382.254545 205.284746 
" style="fill:none;stroke:#ff0000;stroke-linecap:square;stroke-width:1.5;"/>
   </g>
   <g id="patch_10">
    <path d="M 252.392727 239.458909 
L 252.392727 109.597091 
" style="fill:none;stroke:#000000;stroke-linecap:square;stroke-linejoin:miter;stroke-width:0.8;"/>
   </g>
   <g id="patch_11">
    <path d="M 382.254545 239.458909 
L 382.254545 109.597091 
" style="fill:none;stroke:#000000;stroke-linecap:square;stroke-linejoin:miter;stroke-width:0.8;"/>
   </g>
   <g id="patch_12">
    <path d="M 252.392727 239.458909 
L 382.254545 239.458909 
" style="fill:none;stroke:#000000;stroke-linecap:square;stroke-linejoin:miter;stroke-width:0.8;"/>
   </g>
   <g id="patch_13">
    <path d="M 252.392727 109.597091 
L 382.254545 109.597091 
" style="fill:none;stroke:#000000;stroke-linecap:square;stroke-linejoin:miter;stroke-width:0.8;"/>
   </g>
   <g id="text_25">
    <g id="patch_14">
     <path d="M 330.309818 192.793682 
L 378.017318 192.793682 
Q 380.417318 192.793682 380.417318 190.393682 
L 380.417318 155.776432 
Q 380.417318 153.376432 378.017318 153.376432 
L 330.309818 153.376432 
Q 327.909818 153.376432 327.909818 155.776432 
L 327.909818 190.393682 
Q 327.909818 192.793682 330.309818 192.793682 
z
" style="fill:#f5deb3;opacity:0.8;stroke:#000000;stroke-linejoin:miter;"/>
    </g>
    <!-- Beta2 = 10 -->
    <g transform="translate(330.309818 161.855182)scale(0.08 -0.08)">
     <use xlink:href="#DejaVuSans-66"/>
     <use x="68.603516" xlink:href="#DejaVuSans-101"/>
     <use x="130.126953" xlink:href="#DejaVuSans-116"/>
     <use x="169.335938" xlink:href="#DejaVuSans-97"/>
     <use x="230.615234" xlink:href="#DejaVuSans-50"/>
     <use x="294.238281" xlink:href="#DejaVuSans-32"/>
     <use x="326.025391" xlink:href="#DejaVuSans-61"/>
     <use x="409.814453" xlink:href="#DejaVuSans-32"/>
     <use x="441.601562" xlink:href="#DejaVuSans-49"/>
     <use x="505.224609" xlink:href="#DejaVuSans-48"/>
    </g>
    <!-- Delta2 = 9 -->
    <g transform="translate(330.309818 170.813432)scale(0.08 -0.08)">
     <use xlink:href="#DejaVuSans-68"/>
     <use x="77.001953" xlink:href="#DejaVuSans-101"/>
     <use x="138.525391" xlink:href="#DejaVuSans-108"/>
     <use x="166.308594" xlink:href="#DejaVuSans-116"/>
     <use x="205.517578" xlink:href="#DejaVuSans-97"/>
     <use x="266.796875" xlink:href="#DejaVuSans-50"/>
     <use x="330.419922" xlink:href="#DejaVuSans-32"/>
     <use x="362.207031" xlink:href="#DejaVuSans-61"/>
     <use x="445.996094" xlink:href="#DejaVuSans-32"/>
     <use x="477.783203" xlink:href="#DejaVuSans-57"/>
    </g>
    <!-- Beta2' = 10 -->
    <g transform="translate(330.309818 179.771682)scale(0.08 -0.08)">
     <use xlink:href="#DejaVuSans-66"/>
     <use x="68.603516" xlink:href="#DejaVuSans-101"/>
     <use x="130.126953" xlink:href="#DejaVuSans-116"/>
     <use x="169.335938" xlink:href="#DejaVuSans-97"/>
     <use x="230.615234" xlink:href="#DejaVuSans-50"/>
     <use x="294.238281" xlink:href="#DejaVuSans-39"/>
     <use x="321.728516" xlink:href="#DejaVuSans-32"/>
     <use x="353.515625" xlink:href="#DejaVuSans-61"/>
     <use x="437.304688" xlink:href="#DejaVuSans-32"/>
     <use x="469.091797" xlink:href="#DejaVuSans-49"/>
     <use x="532.714844" xlink:href="#DejaVuSans-48"/>
    </g>
    <!-- Delta2' = 5 -->
    <g transform="translate(330.309818 188.729932)scale(0.08 -0.08)">
     <use xlink:href="#DejaVuSans-68"/>
     <use x="77.001953" xlink:href="#DejaVuSans-101"/>
     <use x="138.525391" xlink:href="#DejaVuSans-108"/>
     <use x="166.308594" xlink:href="#DejaVuSans-116"/>
     <use x="205.517578" xlink:href="#DejaVuSans-97"/>
     <use x="266.796875" xlink:href="#DejaVuSans-50"/>
     <use x="330.419922" xlink:href="#DejaVuSans-39"/>
     <use x="357.910156" xlink:href="#DejaVuSans-32"/>
     <use x="389.697266" xlink:href="#DejaVuSans-61"/>
     <use x="473.486328" xlink:href="#DejaVuSans-32"/>
     <use x="505.273438" xlink:href="#DejaVuSans-53"/>
    </g>
   </g>
   <g id="text_26">
    <!-- Disease 2 -->
    <g transform="translate(288.000511 103.597091)scale(0.12 -0.12)">
     <use xlink:href="#DejaVuSans-68"/>
     <use x="77.001953" xlink:href="#DejaVuSans-105"/>
     <use x="104.785156" xlink:href="#DejaVuSans-115"/>
     <use x="156.884766" xlink:href="#DejaVuSans-101"/>
     <use x="218.408203" xlink:href="#DejaVuSans-97"/>
     <use x="279.6875" xlink:href="#DejaVuSans-115"/>
     <use x="331.787109" xlink:href="#DejaVuSans-101"/>
     <use x="393.310547" xlink:href="#DejaVuSans-32"/>
     <use x="425.097656" xlink:href="#DejaVuSans-50"/>
    </g>
   </g>
   <g id="legend_2">
    <g id="patch_15">
     <path d="M 327.514545 139.482091 
L 376.654545 139.482091 
Q 378.254545 139.482091 378.254545 137.882091 
L 378.254545 115.197091 
Q 378.254545 113.597091 376.654545 113.597091 
L 327.514545 113.597091 
Q 325.914545 113.597091 325.914545 115.197091 
L 325.914545 137.882091 
Q 325.914545 139.482091 327.514545 139.482091 
z
" style="fill:#ffffff;opacity:0.8;stroke:#cccccc;stroke-linejoin:miter;"/>
    </g>
    <g id="line2d_25">
     <path d="M 329.114545 120.075841 
L 345.114545 120.075841 
" style="fill:none;stroke:#ff0000;stroke-dasharray:9.6,2.4,1.5,2.4;stroke-dashoffset:0;stroke-width:1.5;"/>
    </g>
    <g id="line2d_26"/>
    <g id="text_27">
     <!-- Beta1 -->
     <g transform="translate(351.514545 122.875841)scale(0.08 -0.08)">
      <use xlink:href="#DejaVuSans-66"/>
      <use x="68.603516" xlink:href="#DejaVuSans-101"/>
      <use x="130.126953" xlink:href="#DejaVuSans-116"/>
      <use x="169.335938" xlink:href="#DejaVuSans-97"/>
      <use x="230.615234" xlink:href="#DejaVuSans-49"/>
     </g>
    </g>
    <g id="line2d_27">
     <path d="M 329.114545 131.818341 
L 345.114545 131.818341 
" style="fill:none;stroke:#ff0000;stroke-linecap:square;stroke-width:1.5;"/>
    </g>
    <g id="line2d_28"/>
    <g id="text_28">
     <!-- Beta2 -->
     <g transform="translate(351.514545 134.618341)scale(0.08 -0.08)">
      <use xlink:href="#DejaVuSans-66"/>
      <use x="68.603516" xlink:href="#DejaVuSans-101"/>
      <use x="130.126953" xlink:href="#DejaVuSans-116"/>
      <use x="169.335938" xlink:href="#DejaVuSans-97"/>
      <use x="230.615234" xlink:href="#DejaVuSans-50"/>
     </g>
    </g>
   </g>
  </g>
  <g id="axes_3">
   <g id="patch_16">
    <path clip-path="url(#p1d9c08d81c)" d="M 195.578182 307.584 
L 195.578182 280.9728 
L 195.578182 68.0832 
L 195.578182 41.472 
L 208.883782 41.472 
L 208.883782 68.0832 
L 208.883782 280.9728 
L 208.883782 307.584 
z
" style="fill:#ffffff;stroke:#ffffff;stroke-linejoin:miter;stroke-width:0.01;"/>
   </g>
   <g id="QuadMesh_1">
    <path clip-path="url(#p1d9c08d81c)" d="M 195.578182 307.584 
L 208.883782 307.584 
L 208.883782 280.9728 
L 195.578182 280.9728 
L 195.578182 307.584 
" style="fill:#471365;"/>
    <path clip-path="url(#p1d9c08d81c)" d="M 195.578182 280.9728 
L 208.883782 280.9728 
L 208.883782 254.3616 
L 195.578182 254.3616 
L 195.578182 280.9728 
" style="fill:#463480;"/>
    <path clip-path="url(#p1d9c08d81c)" d="M 195.578182 254.3616 
L 208.883782 254.3616 
L 208.883782 227.7504 
L 195.578182 227.7504 
L 195.578182 254.3616 
" style="fill:#3b528b;"/>
    <path clip-path="url(#p1d9c08d81c)" d="M 195.578182 227.7504 
L 208.883782 227.7504 
L 208.883782 201.1392 
L 195.578182 201.1392 
L 195.578182 227.7504 
" style="fill:#2f6c8e;"/>
    <path clip-path="url(#p1d9c08d81c)" d="M 195.578182 201.1392 
L 208.883782 201.1392 
L 208.883782 174.528 
L 195.578182 174.528 
L 195.578182 201.1392 
" style="fill:#25848e;"/>
    <path clip-path="url(#p1d9c08d81c)" d="M 195.578182 174.528 
L 208.883782 174.528 
L 208.883782 147.9168 
L 195.578182 147.9168 
L 195.578182 174.528 
" style="fill:#1e9c89;"/>
    <path clip-path="url(#p1d9c08d81c)" d="M 195.578182 147.9168 
L 208.883782 147.9168 
L 208.883782 121.3056 
L 195.578182 121.3056 
L 195.578182 147.9168 
" style="fill:#2fb47c;"/>
    <path clip-path="url(#p1d9c08d81c)" d="M 195.578182 121.3056 
L 208.883782 121.3056 
L 208.883782 94.6944 
L 195.578182 94.6944 
L 195.578182 121.3056 
" style="fill:#5ec962;"/>
    <path clip-path="url(#p1d9c08d81c)" d="M 195.578182 94.6944 
L 208.883782 94.6944 
L 208.883782 68.0832 
L 195.578182 68.0832 
L 195.578182 94.6944 
" style="fill:#9bd93c;"/>
    <path clip-path="url(#p1d9c08d81c)" d="M 195.578182 68.0832 
L 208.883782 68.0832 
L 208.883782 41.472 
L 195.578182 41.472 
L 195.578182 68.0832 
" style="fill:#dfe318;"/>
   </g>
   <g id="matplotlib.axis_5"/>
   <g id="matplotlib.axis_6">
    <g id="ytick_9">
     <g id="line2d_29">
      <defs>
       <path d="M 0 0 
L 3.5 0 
" id="m723cf94423" style="stroke:#000000;stroke-width:0.8;"/>
      </defs>
      <g>
       <use style="stroke:#000000;stroke-width:0.8;" x="208.883782" xlink:href="#m723cf94423" y="307.584"/>
      </g>
     </g>
     <g id="text_29">
      <!-- 180000 -->
      <defs>
       <path d="M 31.78125 34.625 
Q 24.75 34.625 20.71875 30.859375 
Q 16.703125 27.09375 16.703125 20.515625 
Q 16.703125 13.921875 20.71875 10.15625 
Q 24.75 6.390625 31.78125 6.390625 
Q 38.8125 6.390625 42.859375 10.171875 
Q 46.921875 13.96875 46.921875 20.515625 
Q 46.921875 27.09375 42.890625 30.859375 
Q 38.875 34.625 31.78125 34.625 
z
M 21.921875 38.8125 
Q 15.578125 40.375 12.03125 44.71875 
Q 8.5 49.078125 8.5 55.328125 
Q 8.5 64.0625 14.71875 69.140625 
Q 20.953125 74.21875 31.78125 74.21875 
Q 42.671875 74.21875 48.875 69.140625 
Q 55.078125 64.0625 55.078125 55.328125 
Q 55.078125 49.078125 51.53125 44.71875 
Q 48 40.375 41.703125 38.8125 
Q 48.828125 37.15625 52.796875 32.3125 
Q 56.78125 27.484375 56.78125 20.515625 
Q 56.78125 9.90625 50.3125 4.234375 
Q 43.84375 -1.421875 31.78125 -1.421875 
Q 19.734375 -1.421875 13.25 4.234375 
Q 6.78125 9.90625 6.78125 20.515625 
Q 6.78125 27.484375 10.78125 32.3125 
Q 14.796875 37.15625 21.921875 38.8125 
z
M 18.3125 54.390625 
Q 18.3125 48.734375 21.84375 45.5625 
Q 25.390625 42.390625 31.78125 42.390625 
Q 38.140625 42.390625 41.71875 45.5625 
Q 45.3125 48.734375 45.3125 54.390625 
Q 45.3125 60.0625 41.71875 63.234375 
Q 38.140625 66.40625 31.78125 66.40625 
Q 25.390625 66.40625 21.84375 63.234375 
Q 18.3125 60.0625 18.3125 54.390625 
z
" id="DejaVuSans-56"/>
      </defs>
      <g transform="translate(215.883782 311.383219)scale(0.1 -0.1)">
       <use xlink:href="#DejaVuSans-49"/>
       <use x="63.623047" xlink:href="#DejaVuSans-56"/>
       <use x="127.246094" xlink:href="#DejaVuSans-48"/>
       <use x="190.869141" xlink:href="#DejaVuSans-48"/>
       <use x="254.492188" xlink:href="#DejaVuSans-48"/>
       <use x="318.115234" xlink:href="#DejaVuSans-48"/>
      </g>
     </g>
    </g>
    <g id="ytick_10">
     <g id="line2d_30">
      <g>
       <use style="stroke:#000000;stroke-width:0.8;" x="208.883782" xlink:href="#m723cf94423" y="254.3616"/>
      </g>
     </g>
     <g id="text_30">
      <!-- 185000 -->
      <g transform="translate(215.883782 258.160819)scale(0.1 -0.1)">
       <use xlink:href="#DejaVuSans-49"/>
       <use x="63.623047" xlink:href="#DejaVuSans-56"/>
       <use x="127.246094" xlink:href="#DejaVuSans-53"/>
       <use x="190.869141" xlink:href="#DejaVuSans-48"/>
       <use x="254.492188" xlink:href="#DejaVuSans-48"/>
       <use x="318.115234" xlink:href="#DejaVuSans-48"/>
      </g>
     </g>
    </g>
    <g id="ytick_11">
     <g id="line2d_31">
      <g>
       <use style="stroke:#000000;stroke-width:0.8;" x="208.883782" xlink:href="#m723cf94423" y="201.1392"/>
      </g>
     </g>
     <g id="text_31">
      <!-- 190000 -->
      <g transform="translate(215.883782 204.938419)scale(0.1 -0.1)">
       <use xlink:href="#DejaVuSans-49"/>
       <use x="63.623047" xlink:href="#DejaVuSans-57"/>
       <use x="127.246094" xlink:href="#DejaVuSans-48"/>
       <use x="190.869141" xlink:href="#DejaVuSans-48"/>
       <use x="254.492188" xlink:href="#DejaVuSans-48"/>
       <use x="318.115234" xlink:href="#DejaVuSans-48"/>
      </g>
     </g>
    </g>
    <g id="ytick_12">
     <g id="line2d_32">
      <g>
       <use style="stroke:#000000;stroke-width:0.8;" x="208.883782" xlink:href="#m723cf94423" y="147.9168"/>
      </g>
     </g>
     <g id="text_32">
      <!-- 195000 -->
      <g transform="translate(215.883782 151.716019)scale(0.1 -0.1)">
       <use xlink:href="#DejaVuSans-49"/>
       <use x="63.623047" xlink:href="#DejaVuSans-57"/>
       <use x="127.246094" xlink:href="#DejaVuSans-53"/>
       <use x="190.869141" xlink:href="#DejaVuSans-48"/>
       <use x="254.492188" xlink:href="#DejaVuSans-48"/>
       <use x="318.115234" xlink:href="#DejaVuSans-48"/>
      </g>
     </g>
    </g>
    <g id="ytick_13">
     <g id="line2d_33">
      <g>
       <use style="stroke:#000000;stroke-width:0.8;" x="208.883782" xlink:href="#m723cf94423" y="94.6944"/>
      </g>
     </g>
     <g id="text_33">
      <!-- 200000 -->
      <g transform="translate(215.883782 98.493619)scale(0.1 -0.1)">
       <use xlink:href="#DejaVuSans-50"/>
       <use x="63.623047" xlink:href="#DejaVuSans-48"/>
       <use x="127.246094" xlink:href="#DejaVuSans-48"/>
       <use x="190.869141" xlink:href="#DejaVuSans-48"/>
       <use x="254.492188" xlink:href="#DejaVuSans-48"/>
       <use x="318.115234" xlink:href="#DejaVuSans-48"/>
      </g>
     </g>
    </g>
    <g id="ytick_14">
     <g id="line2d_34">
      <g>
       <use style="stroke:#000000;stroke-width:0.8;" x="208.883782" xlink:href="#m723cf94423" y="41.472"/>
      </g>
     </g>
     <g id="text_34">
      <!-- 205000 -->
      <g transform="translate(215.883782 45.271219)scale(0.1 -0.1)">
       <use xlink:href="#DejaVuSans-50"/>
       <use x="63.623047" xlink:href="#DejaVuSans-48"/>
       <use x="127.246094" xlink:href="#DejaVuSans-53"/>
       <use x="190.869141" xlink:href="#DejaVuSans-48"/>
       <use x="254.492188" xlink:href="#DejaVuSans-48"/>
       <use x="318.115234" xlink:href="#DejaVuSans-48"/>
      </g>
     </g>
    </g>
   </g>
   <g id="patch_17">
    <path d="M 195.578182 307.584 
L 195.578182 280.9728 
L 195.578182 68.0832 
L 195.578182 41.472 
L 208.883782 41.472 
L 208.883782 68.0832 
L 208.883782 280.9728 
L 208.883782 307.584 
z
" style="fill:none;stroke:#000000;stroke-linejoin:miter;stroke-width:0.8;"/>
   </g>
  </g>
  <g id="axes_4">
   <g id="patch_18">
    <path clip-path="url(#p15d2cae578)" d="M 390.370909 307.584 
L 390.370909 285.408 
L 390.370909 63.648 
L 390.370909 41.472 
L 403.676509 41.472 
L 403.676509 63.648 
L 403.676509 285.408 
L 403.676509 307.584 
z
" style="fill:#ffffff;stroke:#ffffff;stroke-linejoin:miter;stroke-width:0.01;"/>
   </g>
   <g id="QuadMesh_2">
    <path clip-path="url(#p15d2cae578)" d="M 390.370909 307.584 
L 403.676509 307.584 
L 403.676509 285.408 
L 390.370909 285.408 
L 390.370909 307.584 
" style="fill:#471063;"/>
    <path clip-path="url(#p15d2cae578)" d="M 390.370909 285.408 
L 403.676509 285.408 
L 403.676509 263.232 
L 390.370909 263.232 
L 390.370909 285.408 
" style="fill:#472d7b;"/>
    <path clip-path="url(#p15d2cae578)" d="M 390.370909 263.232 
L 403.676509 263.232 
L 403.676509 241.056 
L 390.370909 241.056 
L 390.370909 263.232 
" style="fill:#404688;"/>
    <path clip-path="url(#p15d2cae578)" d="M 390.370909 241.056 
L 403.676509 241.056 
L 403.676509 218.88 
L 390.370909 218.88 
L 390.370909 241.056 
" style="fill:#365d8d;"/>
    <path clip-path="url(#p15d2cae578)" d="M 390.370909 218.88 
L 403.676509 218.88 
L 403.676509 196.704 
L 390.370909 196.704 
L 390.370909 218.88 
" style="fill:#2c728e;"/>
    <path clip-path="url(#p15d2cae578)" d="M 390.370909 196.704 
L 403.676509 196.704 
L 403.676509 174.528 
L 390.370909 174.528 
L 390.370909 196.704 
" style="fill:#24868e;"/>
    <path clip-path="url(#p15d2cae578)" d="M 390.370909 174.528 
L 403.676509 174.528 
L 403.676509 152.352 
L 390.370909 152.352 
L 390.370909 174.528 
" style="fill:#1f9a8a;"/>
    <path clip-path="url(#p15d2cae578)" d="M 390.370909 152.352 
L 403.676509 152.352 
L 403.676509 130.176 
L 390.370909 130.176 
L 390.370909 152.352 
" style="fill:#28ae80;"/>
    <path clip-path="url(#p15d2cae578)" d="M 390.370909 130.176 
L 403.676509 130.176 
L 403.676509 108 
L 390.370909 108 
L 390.370909 130.176 
" style="fill:#48c16e;"/>
    <path clip-path="url(#p15d2cae578)" d="M 390.370909 108 
L 403.676509 108 
L 403.676509 85.824 
L 390.370909 85.824 
L 390.370909 108 
" style="fill:#75d054;"/>
    <path clip-path="url(#p15d2cae578)" d="M 390.370909 85.824 
L 403.676509 85.824 
L 403.676509 63.648 
L 390.370909 63.648 
L 390.370909 85.824 
" style="fill:#addc30;"/>
    <path clip-path="url(#p15d2cae578)" d="M 390.370909 63.648 
L 403.676509 63.648 
L 403.676509 41.472 
L 390.370909 41.472 
L 390.370909 63.648 
" style="fill:#e5e419;"/>
   </g>
   <g id="matplotlib.axis_7"/>
   <g id="matplotlib.axis_8">
    <g id="ytick_15">
     <g id="line2d_35">
      <g>
       <use style="stroke:#000000;stroke-width:0.8;" x="403.676509" xlink:href="#m723cf94423" y="307.584"/>
      </g>
     </g>
     <g id="text_35">
      <!-- 186000 -->
      <defs>
       <path d="M 33.015625 40.375 
Q 26.375 40.375 22.484375 35.828125 
Q 18.609375 31.296875 18.609375 23.390625 
Q 18.609375 15.53125 22.484375 10.953125 
Q 26.375 6.390625 33.015625 6.390625 
Q 39.65625 6.390625 43.53125 10.953125 
Q 47.40625 15.53125 47.40625 23.390625 
Q 47.40625 31.296875 43.53125 35.828125 
Q 39.65625 40.375 33.015625 40.375 
z
M 52.59375 71.296875 
L 52.59375 62.3125 
Q 48.875 64.0625 45.09375 64.984375 
Q 41.3125 65.921875 37.59375 65.921875 
Q 27.828125 65.921875 22.671875 59.328125 
Q 17.53125 52.734375 16.796875 39.40625 
Q 19.671875 43.65625 24.015625 45.921875 
Q 28.375 48.1875 33.59375 48.1875 
Q 44.578125 48.1875 50.953125 41.515625 
Q 57.328125 34.859375 57.328125 23.390625 
Q 57.328125 12.15625 50.6875 5.359375 
Q 44.046875 -1.421875 33.015625 -1.421875 
Q 20.359375 -1.421875 13.671875 8.265625 
Q 6.984375 17.96875 6.984375 36.375 
Q 6.984375 53.65625 15.1875 63.9375 
Q 23.390625 74.21875 37.203125 74.21875 
Q 40.921875 74.21875 44.703125 73.484375 
Q 48.484375 72.75 52.59375 71.296875 
z
" id="DejaVuSans-54"/>
      </defs>
      <g transform="translate(410.676509 311.383219)scale(0.1 -0.1)">
       <use xlink:href="#DejaVuSans-49"/>
       <use x="63.623047" xlink:href="#DejaVuSans-56"/>
       <use x="127.246094" xlink:href="#DejaVuSans-54"/>
       <use x="190.869141" xlink:href="#DejaVuSans-48"/>
       <use x="254.492188" xlink:href="#DejaVuSans-48"/>
       <use x="318.115234" xlink:href="#DejaVuSans-48"/>
      </g>
     </g>
    </g>
    <g id="ytick_16">
     <g id="line2d_36">
      <g>
       <use style="stroke:#000000;stroke-width:0.8;" x="403.676509" xlink:href="#m723cf94423" y="263.232"/>
      </g>
     </g>
     <g id="text_36">
      <!-- 192000 -->
      <g transform="translate(410.676509 267.031219)scale(0.1 -0.1)">
       <use xlink:href="#DejaVuSans-49"/>
       <use x="63.623047" xlink:href="#DejaVuSans-57"/>
       <use x="127.246094" xlink:href="#DejaVuSans-50"/>
       <use x="190.869141" xlink:href="#DejaVuSans-48"/>
       <use x="254.492188" xlink:href="#DejaVuSans-48"/>
       <use x="318.115234" xlink:href="#DejaVuSans-48"/>
      </g>
     </g>
    </g>
    <g id="ytick_17">
     <g id="line2d_37">
      <g>
       <use style="stroke:#000000;stroke-width:0.8;" x="403.676509" xlink:href="#m723cf94423" y="218.88"/>
      </g>
     </g>
     <g id="text_37">
      <!-- 198000 -->
      <g transform="translate(410.676509 222.679219)scale(0.1 -0.1)">
       <use xlink:href="#DejaVuSans-49"/>
       <use x="63.623047" xlink:href="#DejaVuSans-57"/>
       <use x="127.246094" xlink:href="#DejaVuSans-56"/>
       <use x="190.869141" xlink:href="#DejaVuSans-48"/>
       <use x="254.492188" xlink:href="#DejaVuSans-48"/>
       <use x="318.115234" xlink:href="#DejaVuSans-48"/>
      </g>
     </g>
    </g>
    <g id="ytick_18">
     <g id="line2d_38">
      <g>
       <use style="stroke:#000000;stroke-width:0.8;" x="403.676509" xlink:href="#m723cf94423" y="174.528"/>
      </g>
     </g>
     <g id="text_38">
      <!-- 204000 -->
      <defs>
       <path d="M 37.796875 64.3125 
L 12.890625 25.390625 
L 37.796875 25.390625 
z
M 35.203125 72.90625 
L 47.609375 72.90625 
L 47.609375 25.390625 
L 58.015625 25.390625 
L 58.015625 17.1875 
L 47.609375 17.1875 
L 47.609375 0 
L 37.796875 0 
L 37.796875 17.1875 
L 4.890625 17.1875 
L 4.890625 26.703125 
z
" id="DejaVuSans-52"/>
      </defs>
      <g transform="translate(410.676509 178.327219)scale(0.1 -0.1)">
       <use xlink:href="#DejaVuSans-50"/>
       <use x="63.623047" xlink:href="#DejaVuSans-48"/>
       <use x="127.246094" xlink:href="#DejaVuSans-52"/>
       <use x="190.869141" xlink:href="#DejaVuSans-48"/>
       <use x="254.492188" xlink:href="#DejaVuSans-48"/>
       <use x="318.115234" xlink:href="#DejaVuSans-48"/>
      </g>
     </g>
    </g>
    <g id="ytick_19">
     <g id="line2d_39">
      <g>
       <use style="stroke:#000000;stroke-width:0.8;" x="403.676509" xlink:href="#m723cf94423" y="130.176"/>
      </g>
     </g>
     <g id="text_39">
      <!-- 210000 -->
      <g transform="translate(410.676509 133.975219)scale(0.1 -0.1)">
       <use xlink:href="#DejaVuSans-50"/>
       <use x="63.623047" xlink:href="#DejaVuSans-49"/>
       <use x="127.246094" xlink:href="#DejaVuSans-48"/>
       <use x="190.869141" xlink:href="#DejaVuSans-48"/>
       <use x="254.492188" xlink:href="#DejaVuSans-48"/>
       <use x="318.115234" xlink:href="#DejaVuSans-48"/>
      </g>
     </g>
    </g>
    <g id="ytick_20">
     <g id="line2d_40">
      <g>
       <use style="stroke:#000000;stroke-width:0.8;" x="403.676509" xlink:href="#m723cf94423" y="85.824"/>
      </g>
     </g>
     <g id="text_40">
      <!-- 216000 -->
      <g transform="translate(410.676509 89.623219)scale(0.1 -0.1)">
       <use xlink:href="#DejaVuSans-50"/>
       <use x="63.623047" xlink:href="#DejaVuSans-49"/>
       <use x="127.246094" xlink:href="#DejaVuSans-54"/>
       <use x="190.869141" xlink:href="#DejaVuSans-48"/>
       <use x="254.492188" xlink:href="#DejaVuSans-48"/>
       <use x="318.115234" xlink:href="#DejaVuSans-48"/>
      </g>
     </g>
    </g>
    <g id="ytick_21">
     <g id="line2d_41">
      <g>
       <use style="stroke:#000000;stroke-width:0.8;" x="403.676509" xlink:href="#m723cf94423" y="41.472"/>
      </g>
     </g>
     <g id="text_41">
      <!-- 222000 -->
      <g transform="translate(410.676509 45.271219)scale(0.1 -0.1)">
       <use xlink:href="#DejaVuSans-50"/>
       <use x="63.623047" xlink:href="#DejaVuSans-50"/>
       <use x="127.246094" xlink:href="#DejaVuSans-50"/>
       <use x="190.869141" xlink:href="#DejaVuSans-48"/>
       <use x="254.492188" xlink:href="#DejaVuSans-48"/>
       <use x="318.115234" xlink:href="#DejaVuSans-48"/>
      </g>
     </g>
    </g>
   </g>
   <g id="patch_19">
    <path d="M 390.370909 307.584 
L 390.370909 285.408 
L 390.370909 63.648 
L 390.370909 41.472 
L 403.676509 41.472 
L 403.676509 63.648 
L 403.676509 285.408 
L 403.676509 307.584 
z
" style="fill:none;stroke:#000000;stroke-linejoin:miter;stroke-width:0.8;"/>
   </g>
  </g>
 </g>
 <defs>
  <clipPath id="p237b59069b">
   <rect height="129.861818" width="129.861818" x="57.6" y="109.597091"/>
  </clipPath>
  <clipPath id="pa9d9368fb9">
   <rect height="129.861818" width="129.861818" x="252.392727" y="109.597091"/>
  </clipPath>
  <clipPath id="p1d9c08d81c">
   <rect height="266.112" width="13.3056" x="195.578182" y="41.472"/>
  </clipPath>
  <clipPath id="p15d2cae578">
   <rect height="266.112" width="13.3056" x="390.370909" y="41.472"/>
  </clipPath>
 </defs>
</svg>
