<?xml version="1.0" encoding="utf-8" standalone="no"?>
<!DOCTYPE svg PUBLIC "-//W3C//DTD SVG 1.1//EN"
  "http://www.w3.org/Graphics/SVG/1.1/DTD/svg11.dtd">
<!-- Created with matplotlib (https://matplotlib.org/) -->
<svg height="345.6pt" version="1.1" viewBox="0 0 460.8 345.6" width="460.8pt" xmlns="http://www.w3.org/2000/svg" xmlns:xlink="http://www.w3.org/1999/xlink">
 <defs>
  <style type="text/css">
*{stroke-linecap:butt;stroke-linejoin:round;white-space:pre;}
  </style>
 </defs>
 <g id="figure_1">
  <g id="patch_1">
   <path d="M 0 345.6 
L 460.8 345.6 
L 460.8 0 
L 0 0 
z
" style="fill:#ffffff;"/>
  </g>
  <g id="axes_1">
   <g id="patch_2">
    <path d="M 57.6 239.458909 
L 187.461818 239.458909 
L 187.461818 109.597091 
L 57.6 109.597091 
z
" style="fill:#ffffff;"/>
   </g>
   <g id="PathCollection_1">
    <path clip-path="url(#pfa94d95c59)" d="M 180.626986 239.458909 
L 187.461818 239.458909 
L 187.461818 232.624077 
L 187.461818 232.084125 
L 186.921866 232.624077 
L 180.626986 238.918957 
L 180.087034 239.458909 
z
" style="fill:#471365;"/>
   </g>
   <g id="PathCollection_2">
    <path clip-path="url(#pfa94d95c59)" d="M 173.792153 239.458909 
L 180.087034 239.458909 
L 180.626986 238.918957 
L 186.921866 232.624077 
L 187.461818 232.084125 
L 187.461818 225.789244 
L 187.461818 218.99542 
L 180.667995 225.789244 
L 180.626986 225.830253 
L 173.833162 232.624077 
L 173.792153 232.665086 
L 166.99833 239.458909 
z
" style="fill:#463480;"/>
   </g>
   <g id="PathCollection_3">
    <path clip-path="url(#pfa94d95c59)" d="M 153.287656 239.458909 
L 160.122488 239.458909 
L 166.957321 239.458909 
L 166.99833 239.458909 
L 173.792153 232.665086 
L 173.833162 232.624077 
L 180.626986 225.830253 
L 180.667995 225.789244 
L 187.461818 218.99542 
L 187.461818 218.954411 
L 187.461818 212.119579 
L 187.461818 205.886212 
L 180.626986 210.643255 
L 179.150662 212.119579 
L 173.792153 217.478088 
L 172.315829 218.954411 
L 166.957321 224.31292 
L 165.480997 225.789244 
L 160.122488 231.147753 
L 158.646164 232.624077 
L 153.287656 237.982585 
L 151.811332 239.458909 
z
" style="fill:#3b528b;"/>
   </g>
   <g id="PathCollection_4">
    <path clip-path="url(#pfa94d95c59)" d="M 139.61799 239.458909 
L 146.452823 239.458909 
L 151.811332 239.458909 
L 153.287656 237.982585 
L 158.646164 232.624077 
L 160.122488 231.147753 
L 165.480997 225.789244 
L 166.957321 224.31292 
L 172.315829 218.954411 
L 173.792153 217.478088 
L 179.150662 212.119579 
L 180.626986 210.643255 
L 187.461818 205.886212 
L 187.461818 205.284746 
L 187.461818 198.449914 
L 187.461818 191.615081 
L 187.461818 188.621425 
L 184.468162 191.615081 
L 180.626986 195.456257 
L 177.633329 198.449914 
L 173.792153 202.29109 
L 170.798496 205.284746 
L 166.957321 209.125922 
L 163.963664 212.119579 
L 160.122488 215.960755 
L 157.128831 218.954411 
L 153.287656 222.795587 
L 150.293999 225.789244 
L 146.452823 229.63042 
L 143.459166 232.624077 
L 139.61799 236.465252 
L 136.624334 239.458909 
z
" style="fill:#2f6c8e;"/>
   </g>
   <g id="PathCollection_5">
    <path clip-path="url(#pfa94d95c59)" d="M 125.948325 239.458909 
L 132.783158 239.458909 
L 136.624334 239.458909 
L 139.61799 236.465252 
L 143.459166 232.624077 
L 146.452823 229.63042 
L 150.293999 225.789244 
L 153.287656 222.795587 
L 157.128831 218.954411 
L 160.122488 215.960755 
L 163.963664 212.119579 
L 166.957321 209.125922 
L 170.798496 205.284746 
L 173.792153 202.29109 
L 177.633329 198.449914 
L 180.626986 195.456257 
L 184.468162 191.615081 
L 187.461818 188.621425 
L 187.461818 184.780249 
L 187.461818 177.945416 
L 187.461818 173.434427 
L 180.695334 177.945416 
L 180.626986 178.013765 
L 173.860501 184.780249 
L 173.792153 184.825814 
L 167.002886 191.615081 
L 166.957321 191.660647 
L 160.168054 198.449914 
L 160.122488 198.495479 
L 153.333221 205.284746 
L 153.287656 205.330312 
L 146.498389 212.119579 
L 146.452823 212.165144 
L 139.663556 218.954411 
L 139.61799 218.999977 
L 132.828723 225.789244 
L 132.783158 225.83481 
L 125.993891 232.624077 
L 125.948325 232.692425 
L 119.181841 239.458909 
z
" style="fill:#25848e;"/>
   </g>
   <g id="PathCollection_6">
    <path clip-path="url(#pfa94d95c59)" d="M 105.443828 239.458909 
L 112.27866 239.458909 
L 119.113493 239.458909 
L 119.181841 239.458909 
L 125.948325 232.692425 
L 125.993891 232.624077 
L 132.783158 225.83481 
L 132.828723 225.789244 
L 139.61799 218.999977 
L 139.663556 218.954411 
L 146.452823 212.165144 
L 146.498389 212.119579 
L 153.287656 205.330312 
L 153.333221 205.284746 
L 160.122488 198.495479 
L 160.168054 198.449914 
L 166.957321 191.660647 
L 167.002886 191.615081 
L 173.792153 184.825814 
L 173.860501 184.780249 
L 180.626986 178.013765 
L 180.695334 177.945416 
L 187.461818 173.434427 
L 187.461818 171.110584 
L 187.461818 164.275751 
L 187.461818 157.440919 
L 187.461818 155.233268 
L 183.046516 157.440919 
L 180.626986 158.650684 
L 175.001918 164.275751 
L 173.792153 165.485517 
L 168.167086 171.110584 
L 166.957321 172.320349 
L 161.332253 177.945416 
L 160.122488 178.751927 
L 153.287656 182.572598 
L 151.080005 184.780249 
L 146.452823 189.40743 
L 144.245172 191.615081 
L 139.61799 196.242263 
L 137.41034 198.449914 
L 132.783158 203.077096 
L 130.575507 205.284746 
L 125.948325 209.911928 
L 123.740674 212.119579 
L 119.113493 216.746761 
L 117.641726 218.954411 
L 113.085171 225.789244 
L 112.27866 226.999009 
L 106.653593 232.624077 
L 105.443828 233.833842 
L 99.818761 239.458909 
z
" style="fill:#1e9c89;"/>
   </g>
   <g id="PathCollection_7">
    <path clip-path="url(#pfa94d95c59)" d="M 84.93933 239.458909 
L 91.774163 239.458909 
L 98.608995 239.458909 
L 99.818761 239.458909 
L 105.443828 233.833842 
L 106.653593 232.624077 
L 112.27866 226.999009 
L 113.085171 225.789244 
L 117.641726 218.954411 
L 119.113493 216.746761 
L 123.740674 212.119579 
L 125.948325 209.911928 
L 130.575507 205.284746 
L 132.783158 203.077096 
L 137.41034 198.449914 
L 139.61799 196.242263 
L 144.245172 191.615081 
L 146.452823 189.40743 
L 151.080005 184.780249 
L 153.287656 182.572598 
L 160.122488 178.751927 
L 161.332253 177.945416 
L 166.957321 172.320349 
L 168.167086 171.110584 
L 173.792153 165.485517 
L 175.001918 164.275751 
L 180.626986 158.650684 
L 183.046516 157.440919 
L 187.461818 155.233268 
L 187.461818 150.606086 
L 187.461818 143.771254 
L 187.461818 136.936421 
L 187.461818 132.452771 
L 182.978168 136.936421 
L 180.626986 139.287603 
L 173.792153 142.70502 
L 172.725919 143.771254 
L 166.957321 149.539852 
L 165.891087 150.606086 
L 160.122488 156.374685 
L 157.99002 157.440919 
L 153.287656 159.792101 
L 148.804005 164.275751 
L 146.452823 166.626934 
L 141.969173 171.110584 
L 139.61799 173.461766 
L 135.13434 177.945416 
L 132.783158 180.296599 
L 128.299508 184.780249 
L 125.948325 187.131431 
L 121.464675 191.615081 
L 119.113493 193.966264 
L 114.629843 198.449914 
L 112.27866 200.801096 
L 107.79501 205.284746 
L 105.443828 207.635929 
L 100.960178 212.119579 
L 98.608995 214.470761 
L 94.125345 218.954411 
L 91.774163 223.656776 
L 90.707929 225.789244 
L 84.93933 231.557843 
L 83.873096 232.624077 
L 80.45568 239.458909 
z
" style="fill:#2fb47c;"/>
   </g>
   <g id="PathCollection_8">
    <path clip-path="url(#pfa94d95c59)" d="M 64.434833 239.458909 
L 71.269665 239.458909 
L 78.104498 239.458909 
L 80.45568 239.458909 
L 83.873096 232.624077 
L 84.93933 231.557843 
L 90.707929 225.789244 
L 91.774163 223.656776 
L 94.125345 218.954411 
L 98.608995 214.470761 
L 100.960178 212.119579 
L 105.443828 207.635929 
L 107.79501 205.284746 
L 112.27866 200.801096 
L 114.629843 198.449914 
L 119.113493 193.966264 
L 121.464675 191.615081 
L 125.948325 187.131431 
L 128.299508 184.780249 
L 132.783158 180.296599 
L 135.13434 177.945416 
L 139.61799 173.461766 
L 141.969173 171.110584 
L 146.452823 166.626934 
L 148.804005 164.275751 
L 153.287656 159.792101 
L 157.99002 157.440919 
L 160.122488 156.374685 
L 165.891087 150.606086 
L 166.957321 149.539852 
L 172.725919 143.771254 
L 173.792153 142.70502 
L 180.626986 139.287603 
L 182.978168 136.936421 
L 187.461818 132.452771 
L 187.461818 130.101589 
L 187.461818 123.266756 
L 187.461818 116.431923 
L 187.461818 109.672274 
L 180.626986 113.08969 
L 177.284753 116.431923 
L 173.792153 119.924523 
L 167.107687 123.266756 
L 166.957321 123.341939 
L 160.197671 130.101589 
L 160.122488 130.176772 
L 153.287656 133.594188 
L 146.603189 136.936421 
L 146.452823 137.086787 
L 139.768357 143.771254 
L 139.61799 143.92162 
L 132.933524 150.606086 
L 132.783158 150.681269 
L 126.023509 157.440919 
L 125.948325 157.516102 
L 119.188676 164.275751 
L 119.113493 164.350934 
L 112.27866 167.768351 
L 108.936427 171.110584 
L 105.443828 174.603183 
L 102.101595 177.945416 
L 98.608995 181.438016 
L 95.266762 184.780249 
L 91.849346 191.615081 
L 91.774163 191.690264 
L 85.014513 198.449914 
L 84.93933 198.60028 
L 78.254864 205.284746 
L 78.104498 205.435113 
L 71.420031 212.119579 
L 71.269665 212.269945 
L 67.927432 218.954411 
L 64.510016 225.789244 
L 64.434833 225.864427 
L 57.675183 232.624077 
L 57.6 232.774443 
L 57.6 239.458909 
z
" style="fill:#5ec962;"/>
   </g>
   <g id="PathCollection_9">
    <path clip-path="url(#pfa94d95c59)" d="M 57.675183 232.624077 
L 64.434833 225.864427 
L 64.510016 225.789244 
L 67.927432 218.954411 
L 71.269665 212.269945 
L 71.420031 212.119579 
L 78.104498 205.435113 
L 78.254864 205.284746 
L 84.93933 198.60028 
L 85.014513 198.449914 
L 91.774163 191.690264 
L 91.849346 191.615081 
L 95.266762 184.780249 
L 98.608995 181.438016 
L 102.101595 177.945416 
L 105.443828 174.603183 
L 108.936427 171.110584 
L 112.27866 167.768351 
L 119.113493 164.350934 
L 119.188676 164.275751 
L 125.948325 157.516102 
L 126.023509 157.440919 
L 132.783158 150.681269 
L 132.933524 150.606086 
L 139.61799 143.92162 
L 139.768357 143.771254 
L 146.452823 137.086787 
L 146.603189 136.936421 
L 153.287656 133.594188 
L 160.122488 130.176772 
L 160.197671 130.101589 
L 166.957321 123.341939 
L 167.107687 123.266756 
L 173.792153 119.924523 
L 177.284753 116.431923 
L 180.626986 113.08969 
L 187.461818 109.672274 
L 187.461818 109.597091 
L 180.626986 109.597091 
L 173.792153 109.597091 
L 166.957321 109.597091 
L 160.122488 109.597091 
L 153.287656 109.597091 
L 146.452823 109.597091 
L 139.61799 109.597091 
L 135.216358 109.597091 
L 132.783158 112.030291 
L 128.381526 116.431923 
L 125.948325 118.865124 
L 119.113493 118.865124 
L 114.711861 123.266756 
L 112.27866 125.699956 
L 107.877028 130.101589 
L 105.443828 132.534789 
L 98.608995 132.534789 
L 94.207363 136.936421 
L 91.774163 139.369621 
L 87.372531 143.771254 
L 84.93933 146.204454 
L 80.537698 150.606086 
L 78.104498 153.039287 
L 73.702865 157.440919 
L 71.269665 159.874119 
L 66.868033 164.275751 
L 64.434833 166.708952 
L 60.0332 171.110584 
L 57.6 173.543784 
L 57.6 177.945416 
L 57.6 184.780249 
L 57.6 191.615081 
L 57.6 198.449914 
L 57.6 205.284746 
L 57.6 212.119579 
L 57.6 218.954411 
L 57.6 225.789244 
L 57.6 232.624077 
L 57.6 232.774443 
z
" style="fill:#9bd93c;"/>
   </g>
   <g id="PathCollection_10">
    <path clip-path="url(#pfa94d95c59)" d="M 60.0332 171.110584 
L 64.434833 166.708952 
L 66.868033 164.275751 
L 71.269665 159.874119 
L 73.702865 157.440919 
L 78.104498 153.039287 
L 80.537698 150.606086 
L 84.93933 146.204454 
L 87.372531 143.771254 
L 91.774163 139.369621 
L 94.207363 136.936421 
L 98.608995 132.534789 
L 105.443828 132.534789 
L 107.877028 130.101589 
L 112.27866 125.699956 
L 114.711861 123.266756 
L 119.113493 118.865124 
L 125.948325 118.865124 
L 128.381526 116.431923 
L 132.783158 112.030291 
L 135.216358 109.597091 
L 132.783158 109.597091 
L 125.948325 109.597091 
L 119.113493 109.597091 
L 112.27866 109.597091 
L 105.443828 109.597091 
L 98.608995 109.597091 
L 91.774163 109.597091 
L 84.93933 109.597091 
L 78.104498 109.597091 
L 71.269665 109.597091 
L 64.434833 109.597091 
L 57.6 109.597091 
L 57.6 116.431923 
L 57.6 123.266756 
L 57.6 130.101589 
L 57.6 136.936421 
L 57.6 143.771254 
L 57.6 150.606086 
L 57.6 157.440919 
L 57.6 164.275751 
L 57.6 171.110584 
L 57.6 173.543784 
z
" style="fill:#dfe318;"/>
   </g>
   <g id="matplotlib.axis_1">
    <g id="xtick_1">
     <g id="line2d_1">
      <defs>
       <path d="M 0 0 
L 0 3.5 
" id="m439d79e555" style="stroke:#000000;stroke-width:0.8;"/>
      </defs>
      <g>
       <use style="stroke:#000000;stroke-width:0.8;" x="57.6" xlink:href="#m439d79e555" y="239.458909"/>
      </g>
     </g>
     <g id="text_1">
      <!-- 0 -->
      <defs>
       <path d="M 31.78125 66.40625 
Q 24.171875 66.40625 20.328125 58.90625 
Q 16.5 51.421875 16.5 36.375 
Q 16.5 21.390625 20.328125 13.890625 
Q 24.171875 6.390625 31.78125 6.390625 
Q 39.453125 6.390625 43.28125 13.890625 
Q 47.125 21.390625 47.125 36.375 
Q 47.125 51.421875 43.28125 58.90625 
Q 39.453125 66.40625 31.78125 66.40625 
z
M 31.78125 74.21875 
Q 44.046875 74.21875 50.515625 64.515625 
Q 56.984375 54.828125 56.984375 36.375 
Q 56.984375 17.96875 50.515625 8.265625 
Q 44.046875 -1.421875 31.78125 -1.421875 
Q 19.53125 -1.421875 13.0625 8.265625 
Q 6.59375 17.96875 6.59375 36.375 
Q 6.59375 54.828125 13.0625 64.515625 
Q 19.53125 74.21875 31.78125 74.21875 
z
" id="DejaVuSans-48"/>
      </defs>
      <g transform="translate(54.41875 254.057347)scale(0.1 -0.1)">
       <use xlink:href="#DejaVuSans-48"/>
      </g>
     </g>
    </g>
    <g id="xtick_2">
     <g id="line2d_2">
      <g>
       <use style="stroke:#000000;stroke-width:0.8;" x="91.774163" xlink:href="#m439d79e555" y="239.458909"/>
      </g>
     </g>
     <g id="text_2">
      <!-- 10 -->
      <defs>
       <path d="M 12.40625 8.296875 
L 28.515625 8.296875 
L 28.515625 63.921875 
L 10.984375 60.40625 
L 10.984375 69.390625 
L 28.421875 72.90625 
L 38.28125 72.90625 
L 38.28125 8.296875 
L 54.390625 8.296875 
L 54.390625 0 
L 12.40625 0 
z
" id="DejaVuSans-49"/>
      </defs>
      <g transform="translate(85.411663 254.057347)scale(0.1 -0.1)">
       <use xlink:href="#DejaVuSans-49"/>
       <use x="63.623047" xlink:href="#DejaVuSans-48"/>
      </g>
     </g>
    </g>
    <g id="xtick_3">
     <g id="line2d_3">
      <g>
       <use style="stroke:#000000;stroke-width:0.8;" x="125.948325" xlink:href="#m439d79e555" y="239.458909"/>
      </g>
     </g>
     <g id="text_3">
      <!-- 20 -->
      <defs>
       <path d="M 19.1875 8.296875 
L 53.609375 8.296875 
L 53.609375 0 
L 7.328125 0 
L 7.328125 8.296875 
Q 12.9375 14.109375 22.625 23.890625 
Q 32.328125 33.6875 34.8125 36.53125 
Q 39.546875 41.84375 41.421875 45.53125 
Q 43.3125 49.21875 43.3125 52.78125 
Q 43.3125 58.59375 39.234375 62.25 
Q 35.15625 65.921875 28.609375 65.921875 
Q 23.96875 65.921875 18.8125 64.3125 
Q 13.671875 62.703125 7.8125 59.421875 
L 7.8125 69.390625 
Q 13.765625 71.78125 18.9375 73 
Q 24.125 74.21875 28.421875 74.21875 
Q 39.75 74.21875 46.484375 68.546875 
Q 53.21875 62.890625 53.21875 53.421875 
Q 53.21875 48.921875 51.53125 44.890625 
Q 49.859375 40.875 45.40625 35.40625 
Q 44.1875 33.984375 37.640625 27.21875 
Q 31.109375 20.453125 19.1875 8.296875 
z
" id="DejaVuSans-50"/>
      </defs>
      <g transform="translate(119.585825 254.057347)scale(0.1 -0.1)">
       <use xlink:href="#DejaVuSans-50"/>
       <use x="63.623047" xlink:href="#DejaVuSans-48"/>
      </g>
     </g>
    </g>
    <g id="xtick_4">
     <g id="line2d_4">
      <g>
       <use style="stroke:#000000;stroke-width:0.8;" x="160.122488" xlink:href="#m439d79e555" y="239.458909"/>
      </g>
     </g>
     <g id="text_4">
      <!-- 30 -->
      <defs>
       <path d="M 40.578125 39.3125 
Q 47.65625 37.796875 51.625 33 
Q 55.609375 28.21875 55.609375 21.1875 
Q 55.609375 10.40625 48.1875 4.484375 
Q 40.765625 -1.421875 27.09375 -1.421875 
Q 22.515625 -1.421875 17.65625 -0.515625 
Q 12.796875 0.390625 7.625 2.203125 
L 7.625 11.71875 
Q 11.71875 9.328125 16.59375 8.109375 
Q 21.484375 6.890625 26.8125 6.890625 
Q 36.078125 6.890625 40.9375 10.546875 
Q 45.796875 14.203125 45.796875 21.1875 
Q 45.796875 27.640625 41.28125 31.265625 
Q 36.765625 34.90625 28.71875 34.90625 
L 20.21875 34.90625 
L 20.21875 43.015625 
L 29.109375 43.015625 
Q 36.375 43.015625 40.234375 45.921875 
Q 44.09375 48.828125 44.09375 54.296875 
Q 44.09375 59.90625 40.109375 62.90625 
Q 36.140625 65.921875 28.71875 65.921875 
Q 24.65625 65.921875 20.015625 65.03125 
Q 15.375 64.15625 9.8125 62.3125 
L 9.8125 71.09375 
Q 15.4375 72.65625 20.34375 73.4375 
Q 25.25 74.21875 29.59375 74.21875 
Q 40.828125 74.21875 47.359375 69.109375 
Q 53.90625 64.015625 53.90625 55.328125 
Q 53.90625 49.265625 50.4375 45.09375 
Q 46.96875 40.921875 40.578125 39.3125 
z
" id="DejaVuSans-51"/>
      </defs>
      <g transform="translate(153.759988 254.057347)scale(0.1 -0.1)">
       <use xlink:href="#DejaVuSans-51"/>
       <use x="63.623047" xlink:href="#DejaVuSans-48"/>
      </g>
     </g>
    </g>
    <g id="text_5">
     <!-- Beta1' -->
     <defs>
      <path d="M 19.671875 34.8125 
L 19.671875 8.109375 
L 35.5 8.109375 
Q 43.453125 8.109375 47.28125 11.40625 
Q 51.125 14.703125 51.125 21.484375 
Q 51.125 28.328125 47.28125 31.5625 
Q 43.453125 34.8125 35.5 34.8125 
z
M 19.671875 64.796875 
L 19.671875 42.828125 
L 34.28125 42.828125 
Q 41.5 42.828125 45.03125 45.53125 
Q 48.578125 48.25 48.578125 53.8125 
Q 48.578125 59.328125 45.03125 62.0625 
Q 41.5 64.796875 34.28125 64.796875 
z
M 9.8125 72.90625 
L 35.015625 72.90625 
Q 46.296875 72.90625 52.390625 68.21875 
Q 58.5 63.53125 58.5 54.890625 
Q 58.5 48.1875 55.375 44.234375 
Q 52.25 40.28125 46.1875 39.3125 
Q 53.46875 37.75 57.5 32.78125 
Q 61.53125 27.828125 61.53125 20.40625 
Q 61.53125 10.640625 54.890625 5.3125 
Q 48.25 0 35.984375 0 
L 9.8125 0 
z
" id="DejaVuSans-66"/>
      <path d="M 56.203125 29.59375 
L 56.203125 25.203125 
L 14.890625 25.203125 
Q 15.484375 15.921875 20.484375 11.0625 
Q 25.484375 6.203125 34.421875 6.203125 
Q 39.59375 6.203125 44.453125 7.46875 
Q 49.3125 8.734375 54.109375 11.28125 
L 54.109375 2.78125 
Q 49.265625 0.734375 44.1875 -0.34375 
Q 39.109375 -1.421875 33.890625 -1.421875 
Q 20.796875 -1.421875 13.15625 6.1875 
Q 5.515625 13.8125 5.515625 26.8125 
Q 5.515625 40.234375 12.765625 48.109375 
Q 20.015625 56 32.328125 56 
Q 43.359375 56 49.78125 48.890625 
Q 56.203125 41.796875 56.203125 29.59375 
z
M 47.21875 32.234375 
Q 47.125 39.59375 43.09375 43.984375 
Q 39.0625 48.390625 32.421875 48.390625 
Q 24.90625 48.390625 20.390625 44.140625 
Q 15.875 39.890625 15.1875 32.171875 
z
" id="DejaVuSans-101"/>
      <path d="M 18.3125 70.21875 
L 18.3125 54.6875 
L 36.8125 54.6875 
L 36.8125 47.703125 
L 18.3125 47.703125 
L 18.3125 18.015625 
Q 18.3125 11.328125 20.140625 9.421875 
Q 21.96875 7.515625 27.59375 7.515625 
L 36.8125 7.515625 
L 36.8125 0 
L 27.59375 0 
Q 17.1875 0 13.234375 3.875 
Q 9.28125 7.765625 9.28125 18.015625 
L 9.28125 47.703125 
L 2.6875 47.703125 
L 2.6875 54.6875 
L 9.28125 54.6875 
L 9.28125 70.21875 
z
" id="DejaVuSans-116"/>
      <path d="M 34.28125 27.484375 
Q 23.390625 27.484375 19.1875 25 
Q 14.984375 22.515625 14.984375 16.5 
Q 14.984375 11.71875 18.140625 8.90625 
Q 21.296875 6.109375 26.703125 6.109375 
Q 34.1875 6.109375 38.703125 11.40625 
Q 43.21875 16.703125 43.21875 25.484375 
L 43.21875 27.484375 
z
M 52.203125 31.203125 
L 52.203125 0 
L 43.21875 0 
L 43.21875 8.296875 
Q 40.140625 3.328125 35.546875 0.953125 
Q 30.953125 -1.421875 24.3125 -1.421875 
Q 15.921875 -1.421875 10.953125 3.296875 
Q 6 8.015625 6 15.921875 
Q 6 25.140625 12.171875 29.828125 
Q 18.359375 34.515625 30.609375 34.515625 
L 43.21875 34.515625 
L 43.21875 35.40625 
Q 43.21875 41.609375 39.140625 45 
Q 35.0625 48.390625 27.6875 48.390625 
Q 23 48.390625 18.546875 47.265625 
Q 14.109375 46.140625 10.015625 43.890625 
L 10.015625 52.203125 
Q 14.9375 54.109375 19.578125 55.046875 
Q 24.21875 56 28.609375 56 
Q 40.484375 56 46.34375 49.84375 
Q 52.203125 43.703125 52.203125 31.203125 
z
" id="DejaVuSans-97"/>
      <path d="M 17.921875 72.90625 
L 17.921875 45.796875 
L 9.625 45.796875 
L 9.625 72.90625 
z
" id="DejaVuSans-39"/>
     </defs>
     <g transform="translate(106.44419 267.735472)scale(0.1 -0.1)">
      <use xlink:href="#DejaVuSans-66"/>
      <use x="68.603516" xlink:href="#DejaVuSans-101"/>
      <use x="130.126953" xlink:href="#DejaVuSans-116"/>
      <use x="169.335938" xlink:href="#DejaVuSans-97"/>
      <use x="230.615234" xlink:href="#DejaVuSans-49"/>
      <use x="294.238281" xlink:href="#DejaVuSans-39"/>
     </g>
    </g>
   </g>
   <g id="matplotlib.axis_2">
    <g id="ytick_1">
     <g id="line2d_5">
      <defs>
       <path d="M 0 0 
L -3.5 0 
" id="mf74c52749a" style="stroke:#000000;stroke-width:0.8;"/>
      </defs>
      <g>
       <use style="stroke:#000000;stroke-width:0.8;" x="57.6" xlink:href="#mf74c52749a" y="239.458909"/>
      </g>
     </g>
     <g id="text_6">
      <!-- 0 -->
      <g transform="translate(44.2375 243.258128)scale(0.1 -0.1)">
       <use xlink:href="#DejaVuSans-48"/>
      </g>
     </g>
    </g>
    <g id="ytick_2">
     <g id="line2d_6">
      <g>
       <use style="stroke:#000000;stroke-width:0.8;" x="57.6" xlink:href="#mf74c52749a" y="205.284746"/>
      </g>
     </g>
     <g id="text_7">
      <!-- 10 -->
      <g transform="translate(37.875 209.083965)scale(0.1 -0.1)">
       <use xlink:href="#DejaVuSans-49"/>
       <use x="63.623047" xlink:href="#DejaVuSans-48"/>
      </g>
     </g>
    </g>
    <g id="ytick_3">
     <g id="line2d_7">
      <g>
       <use style="stroke:#000000;stroke-width:0.8;" x="57.6" xlink:href="#mf74c52749a" y="171.110584"/>
      </g>
     </g>
     <g id="text_8">
      <!-- 20 -->
      <g transform="translate(37.875 174.909802)scale(0.1 -0.1)">
       <use xlink:href="#DejaVuSans-50"/>
       <use x="63.623047" xlink:href="#DejaVuSans-48"/>
      </g>
     </g>
    </g>
    <g id="ytick_4">
     <g id="line2d_8">
      <g>
       <use style="stroke:#000000;stroke-width:0.8;" x="57.6" xlink:href="#mf74c52749a" y="136.936421"/>
      </g>
     </g>
     <g id="text_9">
      <!-- 30 -->
      <g transform="translate(37.875 140.73564)scale(0.1 -0.1)">
       <use xlink:href="#DejaVuSans-51"/>
       <use x="63.623047" xlink:href="#DejaVuSans-48"/>
      </g>
     </g>
    </g>
    <g id="text_10">
     <!-- Beta2' -->
     <g transform="translate(31.795312 190.614719)rotate(-90)scale(0.1 -0.1)">
      <use xlink:href="#DejaVuSans-66"/>
      <use x="68.603516" xlink:href="#DejaVuSans-101"/>
      <use x="130.126953" xlink:href="#DejaVuSans-116"/>
      <use x="169.335938" xlink:href="#DejaVuSans-97"/>
      <use x="230.615234" xlink:href="#DejaVuSans-50"/>
      <use x="294.238281" xlink:href="#DejaVuSans-39"/>
     </g>
    </g>
   </g>
   <g id="line2d_9">
    <path clip-path="url(#pfa94d95c59)" d="M 91.774163 239.458909 
L 91.774163 232.624077 
L 91.774163 225.789244 
L 91.774163 218.954411 
L 91.774163 212.119579 
L 91.774163 205.284746 
L 91.774163 198.449914 
L 91.774163 191.615081 
L 91.774163 184.780249 
L 91.774163 177.945416 
L 91.774163 171.110584 
L 91.774163 164.275751 
L 91.774163 157.440919 
L 91.774163 150.606086 
L 91.774163 143.771254 
L 91.774163 136.936421 
L 91.774163 130.101589 
L 91.774163 123.266756 
L 91.774163 116.431923 
L 91.774163 109.597091 
" style="fill:none;stroke:#ff0000;stroke-dasharray:9.6,2.4,1.5,2.4;stroke-dashoffset:0;stroke-width:1.5;"/>
   </g>
   <g id="line2d_10">
    <path clip-path="url(#pfa94d95c59)" d="M 57.6 205.284746 
L 64.434833 205.284746 
L 71.269665 205.284746 
L 78.104498 205.284746 
L 84.93933 205.284746 
L 91.774163 205.284746 
L 98.608995 205.284746 
L 105.443828 205.284746 
L 112.27866 205.284746 
L 119.113493 205.284746 
L 125.948325 205.284746 
L 132.783158 205.284746 
L 139.61799 205.284746 
L 146.452823 205.284746 
L 153.287656 205.284746 
L 160.122488 205.284746 
L 166.957321 205.284746 
L 173.792153 205.284746 
L 180.626986 205.284746 
L 187.461818 205.284746 
" style="fill:none;stroke:#ff0000;stroke-linecap:square;stroke-width:1.5;"/>
   </g>
   <g id="patch_3">
    <path d="M 57.6 239.458909 
L 57.6 109.597091 
" style="fill:none;stroke:#000000;stroke-linecap:square;stroke-linejoin:miter;stroke-width:0.8;"/>
   </g>
   <g id="patch_4">
    <path d="M 187.461818 239.458909 
L 187.461818 109.597091 
" style="fill:none;stroke:#000000;stroke-linecap:square;stroke-linejoin:miter;stroke-width:0.8;"/>
   </g>
   <g id="patch_5">
    <path d="M 57.6 239.458909 
L 187.461818 239.458909 
" style="fill:none;stroke:#000000;stroke-linecap:square;stroke-linejoin:miter;stroke-width:0.8;"/>
   </g>
   <g id="patch_6">
    <path d="M 57.6 109.597091 
L 187.461818 109.597091 
" style="fill:none;stroke:#000000;stroke-linecap:square;stroke-linejoin:miter;stroke-width:0.8;"/>
   </g>
   <g id="text_11">
    <g id="patch_7">
     <path d="M 135.517091 192.793682 
L 186.118341 192.793682 
Q 188.518341 192.793682 188.518341 190.393682 
L 188.518341 155.776432 
Q 188.518341 153.376432 186.118341 153.376432 
L 135.517091 153.376432 
Q 133.117091 153.376432 133.117091 155.776432 
L 133.117091 190.393682 
Q 133.117091 192.793682 135.517091 192.793682 
z
" style="fill:#f5deb3;opacity:0.8;stroke:#000000;stroke-linejoin:miter;"/>
    </g>
    <!-- Beta1 = 10 -->
    <defs>
     <path id="DejaVuSans-32"/>
     <path d="M 10.59375 45.40625 
L 73.1875 45.40625 
L 73.1875 37.203125 
L 10.59375 37.203125 
z
M 10.59375 25.484375 
L 73.1875 25.484375 
L 73.1875 17.1875 
L 10.59375 17.1875 
z
" id="DejaVuSans-61"/>
    </defs>
    <g transform="translate(135.517091 161.855182)scale(0.08 -0.08)">
     <use xlink:href="#DejaVuSans-66"/>
     <use x="68.603516" xlink:href="#DejaVuSans-101"/>
     <use x="130.126953" xlink:href="#DejaVuSans-116"/>
     <use x="169.335938" xlink:href="#DejaVuSans-97"/>
     <use x="230.615234" xlink:href="#DejaVuSans-49"/>
     <use x="294.238281" xlink:href="#DejaVuSans-32"/>
     <use x="326.025391" xlink:href="#DejaVuSans-61"/>
     <use x="409.814453" xlink:href="#DejaVuSans-32"/>
     <use x="441.601562" xlink:href="#DejaVuSans-49"/>
     <use x="505.224609" xlink:href="#DejaVuSans-48"/>
    </g>
    <!-- Delta1 = 9 -->
    <defs>
     <path d="M 19.671875 64.796875 
L 19.671875 8.109375 
L 31.59375 8.109375 
Q 46.6875 8.109375 53.6875 14.9375 
Q 60.6875 21.78125 60.6875 36.53125 
Q 60.6875 51.171875 53.6875 57.984375 
Q 46.6875 64.796875 31.59375 64.796875 
z
M 9.8125 72.90625 
L 30.078125 72.90625 
Q 51.265625 72.90625 61.171875 64.09375 
Q 71.09375 55.28125 71.09375 36.53125 
Q 71.09375 17.671875 61.125 8.828125 
Q 51.171875 0 30.078125 0 
L 9.8125 0 
z
" id="DejaVuSans-68"/>
     <path d="M 9.421875 75.984375 
L 18.40625 75.984375 
L 18.40625 0 
L 9.421875 0 
z
" id="DejaVuSans-108"/>
     <path d="M 10.984375 1.515625 
L 10.984375 10.5 
Q 14.703125 8.734375 18.5 7.8125 
Q 22.3125 6.890625 25.984375 6.890625 
Q 35.75 6.890625 40.890625 13.453125 
Q 46.046875 20.015625 46.78125 33.40625 
Q 43.953125 29.203125 39.59375 26.953125 
Q 35.25 24.703125 29.984375 24.703125 
Q 19.046875 24.703125 12.671875 31.3125 
Q 6.296875 37.9375 6.296875 49.421875 
Q 6.296875 60.640625 12.9375 67.421875 
Q 19.578125 74.21875 30.609375 74.21875 
Q 43.265625 74.21875 49.921875 64.515625 
Q 56.59375 54.828125 56.59375 36.375 
Q 56.59375 19.140625 48.40625 8.859375 
Q 40.234375 -1.421875 26.421875 -1.421875 
Q 22.703125 -1.421875 18.890625 -0.6875 
Q 15.09375 0.046875 10.984375 1.515625 
z
M 30.609375 32.421875 
Q 37.25 32.421875 41.125 36.953125 
Q 45.015625 41.5 45.015625 49.421875 
Q 45.015625 57.28125 41.125 61.84375 
Q 37.25 66.40625 30.609375 66.40625 
Q 23.96875 66.40625 20.09375 61.84375 
Q 16.21875 57.28125 16.21875 49.421875 
Q 16.21875 41.5 20.09375 36.953125 
Q 23.96875 32.421875 30.609375 32.421875 
z
" id="DejaVuSans-57"/>
    </defs>
    <g transform="translate(135.517091 170.813432)scale(0.08 -0.08)">
     <use xlink:href="#DejaVuSans-68"/>
     <use x="77.001953" xlink:href="#DejaVuSans-101"/>
     <use x="138.525391" xlink:href="#DejaVuSans-108"/>
     <use x="166.308594" xlink:href="#DejaVuSans-116"/>
     <use x="205.517578" xlink:href="#DejaVuSans-97"/>
     <use x="266.796875" xlink:href="#DejaVuSans-49"/>
     <use x="330.419922" xlink:href="#DejaVuSans-32"/>
     <use x="362.207031" xlink:href="#DejaVuSans-61"/>
     <use x="445.996094" xlink:href="#DejaVuSans-32"/>
     <use x="477.783203" xlink:href="#DejaVuSans-57"/>
    </g>
    <!-- Beta1' = 10 -->
    <g transform="translate(135.517091 179.771682)scale(0.08 -0.08)">
     <use xlink:href="#DejaVuSans-66"/>
     <use x="68.603516" xlink:href="#DejaVuSans-101"/>
     <use x="130.126953" xlink:href="#DejaVuSans-116"/>
     <use x="169.335938" xlink:href="#DejaVuSans-97"/>
     <use x="230.615234" xlink:href="#DejaVuSans-49"/>
     <use x="294.238281" xlink:href="#DejaVuSans-39"/>
     <use x="321.728516" xlink:href="#DejaVuSans-32"/>
     <use x="353.515625" xlink:href="#DejaVuSans-61"/>
     <use x="437.304688" xlink:href="#DejaVuSans-32"/>
     <use x="469.091797" xlink:href="#DejaVuSans-49"/>
     <use x="532.714844" xlink:href="#DejaVuSans-48"/>
    </g>
    <!-- Delta1' = 15 -->
    <defs>
     <path d="M 10.796875 72.90625 
L 49.515625 72.90625 
L 49.515625 64.59375 
L 19.828125 64.59375 
L 19.828125 46.734375 
Q 21.96875 47.46875 24.109375 47.828125 
Q 26.265625 48.1875 28.421875 48.1875 
Q 40.625 48.1875 47.75 41.5 
Q 54.890625 34.8125 54.890625 23.390625 
Q 54.890625 11.625 47.5625 5.09375 
Q 40.234375 -1.421875 26.90625 -1.421875 
Q 22.3125 -1.421875 17.546875 -0.640625 
Q 12.796875 0.140625 7.71875 1.703125 
L 7.71875 11.625 
Q 12.109375 9.234375 16.796875 8.0625 
Q 21.484375 6.890625 26.703125 6.890625 
Q 35.15625 6.890625 40.078125 11.328125 
Q 45.015625 15.765625 45.015625 23.390625 
Q 45.015625 31 40.078125 35.4375 
Q 35.15625 39.890625 26.703125 39.890625 
Q 22.75 39.890625 18.8125 39.015625 
Q 14.890625 38.140625 10.796875 36.28125 
z
" id="DejaVuSans-53"/>
    </defs>
    <g transform="translate(135.517091 188.729932)scale(0.08 -0.08)">
     <use xlink:href="#DejaVuSans-68"/>
     <use x="77.001953" xlink:href="#DejaVuSans-101"/>
     <use x="138.525391" xlink:href="#DejaVuSans-108"/>
     <use x="166.308594" xlink:href="#DejaVuSans-116"/>
     <use x="205.517578" xlink:href="#DejaVuSans-97"/>
     <use x="266.796875" xlink:href="#DejaVuSans-49"/>
     <use x="330.419922" xlink:href="#DejaVuSans-39"/>
     <use x="357.910156" xlink:href="#DejaVuSans-32"/>
     <use x="389.697266" xlink:href="#DejaVuSans-61"/>
     <use x="473.486328" xlink:href="#DejaVuSans-32"/>
     <use x="505.273438" xlink:href="#DejaVuSans-49"/>
     <use x="568.896484" xlink:href="#DejaVuSans-53"/>
    </g>
   </g>
   <g id="text_12">
    <!-- Disease 1 -->
    <defs>
     <path d="M 9.421875 54.6875 
L 18.40625 54.6875 
L 18.40625 0 
L 9.421875 0 
z
M 9.421875 75.984375 
L 18.40625 75.984375 
L 18.40625 64.59375 
L 9.421875 64.59375 
z
" id="DejaVuSans-105"/>
     <path d="M 44.28125 53.078125 
L 44.28125 44.578125 
Q 40.484375 46.53125 36.375 47.5 
Q 32.28125 48.484375 27.875 48.484375 
Q 21.1875 48.484375 17.84375 46.4375 
Q 14.5 44.390625 14.5 40.28125 
Q 14.5 37.15625 16.890625 35.375 
Q 19.28125 33.59375 26.515625 31.984375 
L 29.59375 31.296875 
Q 39.15625 29.25 43.1875 25.515625 
Q 47.21875 21.78125 47.21875 15.09375 
Q 47.21875 7.46875 41.1875 3.015625 
Q 35.15625 -1.421875 24.609375 -1.421875 
Q 20.21875 -1.421875 15.453125 -0.5625 
Q 10.6875 0.296875 5.421875 2 
L 5.421875 11.28125 
Q 10.40625 8.6875 15.234375 7.390625 
Q 20.0625 6.109375 24.8125 6.109375 
Q 31.15625 6.109375 34.5625 8.28125 
Q 37.984375 10.453125 37.984375 14.40625 
Q 37.984375 18.0625 35.515625 20.015625 
Q 33.0625 21.96875 24.703125 23.78125 
L 21.578125 24.515625 
Q 13.234375 26.265625 9.515625 29.90625 
Q 5.8125 33.546875 5.8125 39.890625 
Q 5.8125 47.609375 11.28125 51.796875 
Q 16.75 56 26.8125 56 
Q 31.78125 56 36.171875 55.265625 
Q 40.578125 54.546875 44.28125 53.078125 
z
" id="DejaVuSans-115"/>
    </defs>
    <g transform="translate(93.207784 103.597091)scale(0.12 -0.12)">
     <use xlink:href="#DejaVuSans-68"/>
     <use x="77.001953" xlink:href="#DejaVuSans-105"/>
     <use x="104.785156" xlink:href="#DejaVuSans-115"/>
     <use x="156.884766" xlink:href="#DejaVuSans-101"/>
     <use x="218.408203" xlink:href="#DejaVuSans-97"/>
     <use x="279.6875" xlink:href="#DejaVuSans-115"/>
     <use x="331.787109" xlink:href="#DejaVuSans-101"/>
     <use x="393.310547" xlink:href="#DejaVuSans-32"/>
     <use x="425.097656" xlink:href="#DejaVuSans-49"/>
    </g>
   </g>
   <g id="legend_1">
    <g id="patch_8">
     <path d="M 132.721818 139.482091 
L 181.861818 139.482091 
Q 183.461818 139.482091 183.461818 137.882091 
L 183.461818 115.197091 
Q 183.461818 113.597091 181.861818 113.597091 
L 132.721818 113.597091 
Q 131.121818 113.597091 131.121818 115.197091 
L 131.121818 137.882091 
Q 131.121818 139.482091 132.721818 139.482091 
z
" style="fill:#ffffff;opacity:0.8;stroke:#cccccc;stroke-linejoin:miter;"/>
    </g>
    <g id="line2d_11">
     <path d="M 134.321818 120.075841 
L 150.321818 120.075841 
" style="fill:none;stroke:#ff0000;stroke-dasharray:9.6,2.4,1.5,2.4;stroke-dashoffset:0;stroke-width:1.5;"/>
    </g>
    <g id="line2d_12"/>
    <g id="text_13">
     <!-- Beta1 -->
     <g transform="translate(156.721818 122.875841)scale(0.08 -0.08)">
      <use xlink:href="#DejaVuSans-66"/>
      <use x="68.603516" xlink:href="#DejaVuSans-101"/>
      <use x="130.126953" xlink:href="#DejaVuSans-116"/>
      <use x="169.335938" xlink:href="#DejaVuSans-97"/>
      <use x="230.615234" xlink:href="#DejaVuSans-49"/>
     </g>
    </g>
    <g id="line2d_13">
     <path d="M 134.321818 131.818341 
L 150.321818 131.818341 
" style="fill:none;stroke:#ff0000;stroke-linecap:square;stroke-width:1.5;"/>
    </g>
    <g id="line2d_14"/>
    <g id="text_14">
     <!-- Beta2 -->
     <g transform="translate(156.721818 134.618341)scale(0.08 -0.08)">
      <use xlink:href="#DejaVuSans-66"/>
      <use x="68.603516" xlink:href="#DejaVuSans-101"/>
      <use x="130.126953" xlink:href="#DejaVuSans-116"/>
      <use x="169.335938" xlink:href="#DejaVuSans-97"/>
      <use x="230.615234" xlink:href="#DejaVuSans-50"/>
     </g>
    </g>
   </g>
  </g>
  <g id="axes_2">
   <g id="patch_9">
    <path d="M 252.392727 239.458909 
L 382.254545 239.458909 
L 382.254545 109.597091 
L 252.392727 109.597091 
z
" style="fill:#ffffff;"/>
   </g>
   <g id="PathCollection_11">
    <path clip-path="url(#p2ec093eea7)" d="M 254.620883 232.624077 
L 252.392727 225.93961 
L 252.392727 232.624077 
L 252.392727 239.458909 
L 254.620883 239.458909 
z
" style="fill:#471164;"/>
   </g>
   <g id="PathCollection_12">
    <path clip-path="url(#p2ec093eea7)" d="M 259.22756 239.458909 
L 263.707793 239.458909 
L 262.214382 232.624077 
L 260.290376 225.789244 
L 259.936104 218.954411 
L 259.22756 216.828779 
L 257.657827 212.119579 
L 257.657827 205.284746 
L 255.379549 198.449914 
L 255.379549 191.615081 
L 253.101272 184.780249 
L 253.101272 177.945416 
L 252.392727 175.819783 
L 252.392727 177.945416 
L 252.392727 184.780249 
L 252.392727 191.615081 
L 252.392727 198.449914 
L 252.392727 205.284746 
L 252.392727 212.119579 
L 252.392727 218.954411 
L 252.392727 225.789244 
L 252.392727 225.93961 
L 254.620883 232.624077 
L 254.620883 239.458909 
z
" style="fill:#472f7d;"/>
   </g>
   <g id="PathCollection_13">
    <path clip-path="url(#p2ec093eea7)" d="M 266.062392 239.458909 
L 272.086158 239.458909 
L 271.680625 232.624077 
L 269.807881 225.789244 
L 268.263208 218.954411 
L 267.529603 212.119579 
L 266.062392 207.717947 
L 265.251326 205.284746 
L 262.973048 198.449914 
L 262.973048 191.615081 
L 260.694771 184.780249 
L 260.694771 177.945416 
L 259.22756 173.543784 
L 258.416493 171.110584 
L 256.910552 164.275751 
L 256.138216 157.440919 
L 255.201843 150.606086 
L 253.859938 143.771254 
L 252.392727 139.369621 
L 252.392727 143.771254 
L 252.392727 150.606086 
L 252.392727 157.440919 
L 252.392727 164.275751 
L 252.392727 171.110584 
L 252.392727 175.819783 
L 253.101272 177.945416 
L 253.101272 184.780249 
L 255.379549 191.615081 
L 255.379549 198.449914 
L 257.657827 205.284746 
L 257.657827 212.119579 
L 259.22756 216.828779 
L 259.936104 218.954411 
L 260.290376 225.789244 
L 262.214382 232.624077 
L 263.707793 239.458909 
z
" style="fill:#3e4c8a;"/>
   </g>
   <g id="PathCollection_14">
    <path clip-path="url(#p2ec093eea7)" d="M 272.897225 239.458909 
L 279.732057 239.458909 
L 283.070873 239.458909 
L 283.070873 232.624077 
L 279.732057 225.946445 
L 279.653457 225.789244 
L 279.653457 218.954411 
L 276.236041 212.119579 
L 275.123102 205.284746 
L 272.897225 198.607115 
L 272.818624 198.449914 
L 270.566547 191.615081 
L 269.401208 184.780249 
L 268.288269 177.945416 
L 266.062392 171.267785 
L 266.009992 171.110584 
L 263.731714 164.275751 
L 263.731714 157.440919 
L 261.453437 150.606086 
L 260.896968 143.771254 
L 259.22756 137.093622 
L 259.175159 136.936421 
L 257.479551 130.101589 
L 255.770843 123.266756 
L 254.618604 116.431923 
L 254.062135 109.597091 
L 252.392727 109.597091 
L 252.392727 116.431923 
L 252.392727 123.266756 
L 252.392727 130.101589 
L 252.392727 136.936421 
L 252.392727 139.369621 
L 253.859938 143.771254 
L 255.201843 150.606086 
L 256.138216 157.440919 
L 256.910552 164.275751 
L 258.416493 171.110584 
L 259.22756 173.543784 
L 260.694771 177.945416 
L 260.694771 184.780249 
L 262.973048 191.615081 
L 262.973048 198.449914 
L 265.251326 205.284746 
L 266.062392 207.717947 
L 267.529603 212.119579 
L 268.263208 218.954411 
L 269.807881 225.789244 
L 271.680625 232.624077 
L 272.086158 239.458909 
z
" style="fill:#32648e;"/>
    <path clip-path="url(#p2ec093eea7)" d="M 382.254545 239.458909 
L 382.254545 232.781278 
L 375.576914 239.458909 
z
" style="fill:#32648e;"/>
   </g>
   <g id="PathCollection_15">
    <path clip-path="url(#p2ec093eea7)" d="M 286.56689 239.458909 
L 293.401722 239.458909 
L 300.236555 239.458909 
L 302.355353 239.458909 
L 300.236555 237.340111 
L 295.520521 232.624077 
L 295.520521 225.789244 
L 293.401722 223.670446 
L 291.043705 218.954411 
L 288.685688 212.119579 
L 287.626289 205.284746 
L 286.56689 203.165948 
L 284.208873 198.449914 
L 280.791456 191.615081 
L 279.732057 189.496283 
L 278.160046 184.780249 
L 277.37404 177.945416 
L 273.956624 171.110584 
L 273.603491 164.275751 
L 272.897225 162.156953 
L 271.325213 157.440919 
L 269.046936 150.606086 
L 267.121791 143.771254 
L 266.768658 136.936421 
L 266.062392 134.817623 
L 264.490381 130.101589 
L 262.212103 123.266756 
L 262.212103 116.431923 
L 259.933826 109.597091 
L 259.22756 109.597091 
L 254.062135 109.597091 
L 254.618604 116.431923 
L 255.770843 123.266756 
L 257.479551 130.101589 
L 259.175159 136.936421 
L 259.22756 137.093622 
L 260.896968 143.771254 
L 261.453437 150.606086 
L 263.731714 157.440919 
L 263.731714 164.275751 
L 266.009992 171.110584 
L 266.062392 171.267785 
L 268.288269 177.945416 
L 269.401208 184.780249 
L 270.566547 191.615081 
L 272.818624 198.449914 
L 272.897225 198.607115 
L 275.123102 205.284746 
L 276.236041 212.119579 
L 279.653457 218.954411 
L 279.653457 225.789244 
L 279.732057 225.946445 
L 283.070873 232.624077 
L 283.070873 239.458909 
z
" style="fill:#297a8e;"/>
    <path clip-path="url(#p2ec093eea7)" d="M 361.750048 239.458909 
L 368.58488 239.458909 
L 375.419713 239.458909 
L 375.576914 239.458909 
L 382.254545 232.781278 
L 382.254545 232.624077 
L 382.254545 225.789244 
L 382.254545 218.954411 
L 382.254545 212.119579 
L 382.254545 210.000781 
L 380.135747 212.119579 
L 375.419713 216.835613 
L 373.300915 218.954411 
L 368.58488 223.670446 
L 366.466082 225.789244 
L 364.108065 232.624077 
L 361.750048 237.340111 
L 359.63125 239.458909 
z
" style="fill:#297a8e;"/>
   </g>
   <g id="PathCollection_16">
    <path clip-path="url(#p2ec093eea7)" d="M 300.236555 237.340111 
L 302.355353 239.458909 
L 307.071388 239.458909 
L 313.90622 239.458909 
L 320.741053 239.458909 
L 327.575885 239.458909 
L 334.410718 239.458909 
L 341.24555 239.458909 
L 348.080383 239.458909 
L 354.915215 239.458909 
L 359.63125 239.458909 
L 361.750048 237.340111 
L 364.108065 232.624077 
L 366.466082 225.789244 
L 368.58488 223.670446 
L 373.300915 218.954411 
L 375.419713 216.835613 
L 380.135747 212.119579 
L 382.254545 210.000781 
L 382.254545 205.284746 
L 382.254545 198.449914 
L 382.254545 191.615081 
L 382.254545 187.220284 
L 377.859748 191.615081 
L 375.419713 194.055117 
L 371.024916 198.449914 
L 368.58488 200.889949 
L 364.190083 205.284746 
L 361.750048 207.724782 
L 357.355251 212.119579 
L 354.915215 214.559614 
L 350.520418 218.954411 
L 348.080383 221.394447 
L 341.24555 221.394447 
L 334.410718 221.394447 
L 330.01592 225.789244 
L 327.575885 228.229279 
L 325.13585 225.789244 
L 320.741053 221.394447 
L 313.90622 221.394447 
L 311.466185 218.954411 
L 307.071388 214.559614 
L 304.631352 212.119579 
L 304.631352 205.284746 
L 300.236555 200.889949 
L 297.79652 198.449914 
L 295.599121 191.615081 
L 293.401722 187.220284 
L 292.181705 184.780249 
L 288.764289 177.945416 
L 286.56689 173.550619 
L 285.346872 171.110584 
L 281.929456 164.275751 
L 281.929456 157.440919 
L 279.732057 153.046121 
L 278.51204 150.606086 
L 276.640435 143.771254 
L 275.094624 136.936421 
L 272.897225 132.541624 
L 272.08388 130.101589 
L 269.805602 123.266756 
L 269.805602 116.431923 
L 267.527325 109.597091 
L 266.062392 109.597091 
L 259.933826 109.597091 
L 262.212103 116.431923 
L 262.212103 123.266756 
L 264.490381 130.101589 
L 266.062392 134.817623 
L 266.768658 136.936421 
L 267.121791 143.771254 
L 269.046936 150.606086 
L 271.325213 157.440919 
L 272.897225 162.156953 
L 273.603491 164.275751 
L 273.956624 171.110584 
L 277.37404 177.945416 
L 278.160046 184.780249 
L 279.732057 189.496283 
L 280.791456 191.615081 
L 284.208873 198.449914 
L 286.56689 203.165948 
L 287.626289 205.284746 
L 288.685688 212.119579 
L 291.043705 218.954411 
L 293.401722 223.670446 
L 295.520521 225.789244 
L 295.520521 232.624077 
z
" style="fill:#21918c;"/>
   </g>
   <g id="PathCollection_17">
    <path clip-path="url(#p2ec093eea7)" d="M 327.575885 228.229279 
L 330.01592 225.789244 
L 334.410718 221.394447 
L 341.24555 221.394447 
L 348.080383 221.394447 
L 350.520418 218.954411 
L 354.915215 214.559614 
L 357.355251 212.119579 
L 361.750048 207.724782 
L 364.190083 205.284746 
L 368.58488 200.889949 
L 371.024916 198.449914 
L 375.419713 194.055117 
L 377.859748 191.615081 
L 382.254545 187.220284 
L 382.254545 184.780249 
L 382.254545 177.945416 
L 382.254545 171.110584 
L 382.254545 164.357769 
L 375.501731 171.110584 
L 375.419713 171.27462 
L 368.748916 177.945416 
L 368.58488 178.109452 
L 361.914084 184.780249 
L 361.750048 184.944285 
L 354.915215 184.944285 
L 348.244419 191.615081 
L 348.080383 191.779117 
L 341.24555 191.779117 
L 334.574754 198.449914 
L 334.410718 198.61395 
L 327.575885 198.61395 
L 327.411849 198.449914 
L 320.741053 191.779117 
L 313.90622 191.779117 
L 313.742184 191.615081 
L 307.071388 184.944285 
L 306.98937 184.780249 
L 306.907352 177.945416 
L 300.236555 171.27462 
L 300.072519 171.110584 
L 296.737121 164.275751 
L 293.401722 157.604955 
L 293.319704 157.440919 
L 289.902288 150.606086 
L 286.56689 143.93529 
L 286.484872 143.771254 
L 284.233934 136.936421 
L 283.067456 130.101589 
L 279.732057 123.430792 
L 279.650039 123.266756 
L 277.399101 116.431923 
L 275.120824 109.597091 
L 272.897225 109.597091 
L 267.527325 109.597091 
L 269.805602 116.431923 
L 269.805602 123.266756 
L 272.08388 130.101589 
L 272.897225 132.541624 
L 275.094624 136.936421 
L 276.640435 143.771254 
L 278.51204 150.606086 
L 279.732057 153.046121 
L 281.929456 157.440919 
L 281.929456 164.275751 
L 285.346872 171.110584 
L 286.56689 173.550619 
L 288.764289 177.945416 
L 292.181705 184.780249 
L 293.401722 187.220284 
L 295.599121 191.615081 
L 297.79652 198.449914 
L 300.236555 200.889949 
L 304.631352 205.284746 
L 304.631352 212.119579 
L 307.071388 214.559614 
L 311.466185 218.954411 
L 313.90622 221.394447 
L 320.741053 221.394447 
L 325.13585 225.789244 
z
" style="fill:#21a685;"/>
   </g>
   <g id="PathCollection_18">
    <path clip-path="url(#p2ec093eea7)" d="M 327.575885 198.61395 
L 334.410718 198.61395 
L 334.574754 198.449914 
L 341.24555 191.779117 
L 348.080383 191.779117 
L 348.244419 191.615081 
L 354.915215 184.944285 
L 361.750048 184.944285 
L 361.914084 184.780249 
L 368.58488 178.109452 
L 368.748916 177.945416 
L 375.419713 171.27462 
L 375.501731 171.110584 
L 382.254545 164.357769 
L 382.254545 164.275751 
L 382.254545 157.440919 
L 382.254545 150.606086 
L 382.254545 143.771254 
L 382.254545 141.65929 
L 380.142582 143.771254 
L 375.419713 148.494123 
L 373.30775 150.606086 
L 368.58488 155.328955 
L 361.750048 155.328955 
L 359.638085 157.440919 
L 354.915215 162.163788 
L 352.803252 164.275751 
L 348.080383 168.99862 
L 341.24555 168.99862 
L 334.410718 168.99862 
L 327.575885 168.99862 
L 322.853016 164.275751 
L 320.741053 162.163788 
L 313.90622 162.163788 
L 309.183351 157.440919 
L 309.183351 150.606086 
L 307.071388 148.494123 
L 302.348518 143.771254 
L 300.236555 141.65929 
L 297.87512 136.936421 
L 294.457704 130.101589 
L 293.401722 127.989625 
L 291.040288 123.266756 
L 287.622872 116.431923 
L 286.56689 114.31996 
L 284.205455 109.597091 
L 279.732057 109.597091 
L 275.120824 109.597091 
L 277.399101 116.431923 
L 279.650039 123.266756 
L 279.732057 123.430792 
L 283.067456 130.101589 
L 284.233934 136.936421 
L 286.484872 143.771254 
L 286.56689 143.93529 
L 289.902288 150.606086 
L 293.319704 157.440919 
L 293.401722 157.604955 
L 296.737121 164.275751 
L 300.072519 171.110584 
L 300.236555 171.27462 
L 306.907352 177.945416 
L 306.98937 184.780249 
L 307.071388 184.944285 
L 313.742184 191.615081 
L 313.90622 191.779117 
L 320.741053 191.779117 
L 327.411849 198.449914 
z
" style="fill:#3bbb75;"/>
   </g>
   <g id="PathCollection_19">
    <path clip-path="url(#p2ec093eea7)" d="M 327.575885 168.99862 
L 334.410718 168.99862 
L 341.24555 168.99862 
L 348.080383 168.99862 
L 352.803252 164.275751 
L 354.915215 162.163788 
L 359.638085 157.440919 
L 361.750048 155.328955 
L 368.58488 155.328955 
L 373.30775 150.606086 
L 375.419713 148.494123 
L 380.142582 143.771254 
L 382.254545 141.65929 
L 382.254545 136.936421 
L 382.254545 130.101589 
L 382.254545 123.266756 
L 382.254545 118.878793 
L 377.866583 123.266756 
L 375.419713 125.713626 
L 371.03175 130.101589 
L 368.58488 132.548459 
L 361.750048 134.74244 
L 357.362085 136.936421 
L 354.915215 139.383291 
L 348.080383 139.383291 
L 343.69242 143.771254 
L 341.24555 146.218124 
L 334.410718 146.218124 
L 331.963848 143.771254 
L 327.575885 139.383291 
L 320.741053 139.383291 
L 318.294183 136.936421 
L 313.90622 132.548459 
L 311.45935 130.101589 
L 307.071388 125.713626 
L 304.624518 123.266756 
L 302.430536 116.431923 
L 300.236555 112.043961 
L 297.789685 109.597091 
L 293.401722 109.597091 
L 286.56689 109.597091 
L 284.205455 109.597091 
L 286.56689 114.31996 
L 287.622872 116.431923 
L 291.040288 123.266756 
L 293.401722 127.989625 
L 294.457704 130.101589 
L 297.87512 136.936421 
L 300.236555 141.65929 
L 302.348518 143.771254 
L 307.071388 148.494123 
L 309.183351 150.606086 
L 309.183351 157.440919 
L 313.90622 162.163788 
L 320.741053 162.163788 
L 322.853016 164.275751 
z
" style="fill:#69cd5b;"/>
   </g>
   <g id="PathCollection_20">
    <path clip-path="url(#p2ec093eea7)" d="M 334.410718 146.218124 
L 341.24555 146.218124 
L 343.69242 143.771254 
L 348.080383 139.383291 
L 354.915215 139.383291 
L 357.362085 136.936421 
L 361.750048 134.74244 
L 368.58488 132.548459 
L 371.03175 130.101589 
L 375.419713 125.713626 
L 377.866583 123.266756 
L 382.254545 118.878793 
L 382.254545 116.431923 
L 382.254545 109.597091 
L 375.419713 109.597091 
L 368.755751 109.597091 
L 368.58488 109.767962 
L 361.920919 116.431923 
L 361.750048 116.602794 
L 354.915215 116.602794 
L 348.080383 116.602794 
L 341.416421 123.266756 
L 341.24555 123.437627 
L 341.074679 123.266756 
L 334.410718 116.602794 
L 327.575885 116.602794 
L 320.741053 116.602794 
L 320.570182 116.431923 
L 313.90622 109.767962 
L 313.735349 109.597091 
L 307.071388 109.597091 
L 300.236555 109.597091 
L 297.789685 109.597091 
L 300.236555 112.043961 
L 302.430536 116.431923 
L 304.624518 123.266756 
L 307.071388 125.713626 
L 311.45935 130.101589 
L 313.90622 132.548459 
L 318.294183 136.936421 
L 320.741053 139.383291 
L 327.575885 139.383291 
L 331.963848 143.771254 
z
" style="fill:#a5db36;"/>
   </g>
   <g id="PathCollection_21">
    <path clip-path="url(#p2ec093eea7)" d="M 341.24555 123.437627 
L 341.416421 123.266756 
L 348.080383 116.602794 
L 354.915215 116.602794 
L 361.750048 116.602794 
L 361.920919 116.431923 
L 368.58488 109.767962 
L 368.755751 109.597091 
L 368.58488 109.597091 
L 361.750048 109.597091 
L 354.915215 109.597091 
L 348.080383 109.597091 
L 341.24555 109.597091 
L 334.410718 109.597091 
L 327.575885 109.597091 
L 320.741053 109.597091 
L 313.90622 109.597091 
L 313.735349 109.597091 
L 313.90622 109.767962 
L 320.570182 116.431923 
L 320.741053 116.602794 
L 327.575885 116.602794 
L 334.410718 116.602794 
L 341.074679 123.266756 
z
" style="fill:#e2e418;"/>
   </g>
   <g id="matplotlib.axis_3">
    <g id="xtick_5">
     <g id="line2d_15">
      <g>
       <use style="stroke:#000000;stroke-width:0.8;" x="252.392727" xlink:href="#m439d79e555" y="239.458909"/>
      </g>
     </g>
     <g id="text_15">
      <!-- 0 -->
      <g transform="translate(249.211477 254.057347)scale(0.1 -0.1)">
       <use xlink:href="#DejaVuSans-48"/>
      </g>
     </g>
    </g>
    <g id="xtick_6">
     <g id="line2d_16">
      <g>
       <use style="stroke:#000000;stroke-width:0.8;" x="286.56689" xlink:href="#m439d79e555" y="239.458909"/>
      </g>
     </g>
     <g id="text_16">
      <!-- 10 -->
      <g transform="translate(280.20439 254.057347)scale(0.1 -0.1)">
       <use xlink:href="#DejaVuSans-49"/>
       <use x="63.623047" xlink:href="#DejaVuSans-48"/>
      </g>
     </g>
    </g>
    <g id="xtick_7">
     <g id="line2d_17">
      <g>
       <use style="stroke:#000000;stroke-width:0.8;" x="320.741053" xlink:href="#m439d79e555" y="239.458909"/>
      </g>
     </g>
     <g id="text_17">
      <!-- 20 -->
      <g transform="translate(314.378553 254.057347)scale(0.1 -0.1)">
       <use xlink:href="#DejaVuSans-50"/>
       <use x="63.623047" xlink:href="#DejaVuSans-48"/>
      </g>
     </g>
    </g>
    <g id="xtick_8">
     <g id="line2d_18">
      <g>
       <use style="stroke:#000000;stroke-width:0.8;" x="354.915215" xlink:href="#m439d79e555" y="239.458909"/>
      </g>
     </g>
     <g id="text_18">
      <!-- 30 -->
      <g transform="translate(348.552715 254.057347)scale(0.1 -0.1)">
       <use xlink:href="#DejaVuSans-51"/>
       <use x="63.623047" xlink:href="#DejaVuSans-48"/>
      </g>
     </g>
    </g>
    <g id="text_19">
     <!-- Beta1' -->
     <g transform="translate(301.236918 267.735472)scale(0.1 -0.1)">
      <use xlink:href="#DejaVuSans-66"/>
      <use x="68.603516" xlink:href="#DejaVuSans-101"/>
      <use x="130.126953" xlink:href="#DejaVuSans-116"/>
      <use x="169.335938" xlink:href="#DejaVuSans-97"/>
      <use x="230.615234" xlink:href="#DejaVuSans-49"/>
      <use x="294.238281" xlink:href="#DejaVuSans-39"/>
     </g>
    </g>
   </g>
   <g id="matplotlib.axis_4">
    <g id="ytick_5">
     <g id="line2d_19">
      <g>
       <use style="stroke:#000000;stroke-width:0.8;" x="252.392727" xlink:href="#mf74c52749a" y="239.458909"/>
      </g>
     </g>
     <g id="text_20">
      <!-- 0 -->
      <g transform="translate(239.030227 243.258128)scale(0.1 -0.1)">
       <use xlink:href="#DejaVuSans-48"/>
      </g>
     </g>
    </g>
    <g id="ytick_6">
     <g id="line2d_20">
      <g>
       <use style="stroke:#000000;stroke-width:0.8;" x="252.392727" xlink:href="#mf74c52749a" y="205.284746"/>
      </g>
     </g>
     <g id="text_21">
      <!-- 10 -->
      <g transform="translate(232.667727 209.083965)scale(0.1 -0.1)">
       <use xlink:href="#DejaVuSans-49"/>
       <use x="63.623047" xlink:href="#DejaVuSans-48"/>
      </g>
     </g>
    </g>
    <g id="ytick_7">
     <g id="line2d_21">
      <g>
       <use style="stroke:#000000;stroke-width:0.8;" x="252.392727" xlink:href="#mf74c52749a" y="171.110584"/>
      </g>
     </g>
     <g id="text_22">
      <!-- 20 -->
      <g transform="translate(232.667727 174.909802)scale(0.1 -0.1)">
       <use xlink:href="#DejaVuSans-50"/>
       <use x="63.623047" xlink:href="#DejaVuSans-48"/>
      </g>
     </g>
    </g>
    <g id="ytick_8">
     <g id="line2d_22">
      <g>
       <use style="stroke:#000000;stroke-width:0.8;" x="252.392727" xlink:href="#mf74c52749a" y="136.936421"/>
      </g>
     </g>
     <g id="text_23">
      <!-- 30 -->
      <g transform="translate(232.667727 140.73564)scale(0.1 -0.1)">
       <use xlink:href="#DejaVuSans-51"/>
       <use x="63.623047" xlink:href="#DejaVuSans-48"/>
      </g>
     </g>
    </g>
    <g id="text_24">
     <!-- Beta2' -->
     <g transform="translate(226.58804 190.614719)rotate(-90)scale(0.1 -0.1)">
      <use xlink:href="#DejaVuSans-66"/>
      <use x="68.603516" xlink:href="#DejaVuSans-101"/>
      <use x="130.126953" xlink:href="#DejaVuSans-116"/>
      <use x="169.335938" xlink:href="#DejaVuSans-97"/>
      <use x="230.615234" xlink:href="#DejaVuSans-50"/>
      <use x="294.238281" xlink:href="#DejaVuSans-39"/>
     </g>
    </g>
   </g>
   <g id="line2d_23">
    <path clip-path="url(#p2ec093eea7)" d="M 286.56689 239.458909 
L 286.56689 232.624077 
L 286.56689 225.789244 
L 286.56689 218.954411 
L 286.56689 212.119579 
L 286.56689 205.284746 
L 286.56689 198.449914 
L 286.56689 191.615081 
L 286.56689 184.780249 
L 286.56689 177.945416 
L 286.56689 171.110584 
L 286.56689 164.275751 
L 286.56689 157.440919 
L 286.56689 150.606086 
L 286.56689 143.771254 
L 286.56689 136.936421 
L 286.56689 130.101589 
L 286.56689 123.266756 
L 286.56689 116.431923 
L 286.56689 109.597091 
" style="fill:none;stroke:#ff0000;stroke-dasharray:9.6,2.4,1.5,2.4;stroke-dashoffset:0;stroke-width:1.5;"/>
   </g>
   <g id="line2d_24">
    <path clip-path="url(#p2ec093eea7)" d="M 252.392727 205.284746 
L 259.22756 205.284746 
L 266.062392 205.284746 
L 272.897225 205.284746 
L 279.732057 205.284746 
L 286.56689 205.284746 
L 293.401722 205.284746 
L 300.236555 205.284746 
L 307.071388 205.284746 
L 313.90622 205.284746 
L 320.741053 205.284746 
L 327.575885 205.284746 
L 334.410718 205.284746 
L 341.24555 205.284746 
L 348.080383 205.284746 
L 354.915215 205.284746 
L 361.750048 205.284746 
L 368.58488 205.284746 
L 375.419713 205.284746 
L 382.254545 205.284746 
" style="fill:none;stroke:#ff0000;stroke-linecap:square;stroke-width:1.5;"/>
   </g>
   <g id="patch_10">
    <path d="M 252.392727 239.458909 
L 252.392727 109.597091 
" style="fill:none;stroke:#000000;stroke-linecap:square;stroke-linejoin:miter;stroke-width:0.8;"/>
   </g>
   <g id="patch_11">
    <path d="M 382.254545 239.458909 
L 382.254545 109.597091 
" style="fill:none;stroke:#000000;stroke-linecap:square;stroke-linejoin:miter;stroke-width:0.8;"/>
   </g>
   <g id="patch_12">
    <path d="M 252.392727 239.458909 
L 382.254545 239.458909 
" style="fill:none;stroke:#000000;stroke-linecap:square;stroke-linejoin:miter;stroke-width:0.8;"/>
   </g>
   <g id="patch_13">
    <path d="M 252.392727 109.597091 
L 382.254545 109.597091 
" style="fill:none;stroke:#000000;stroke-linecap:square;stroke-linejoin:miter;stroke-width:0.8;"/>
   </g>
   <g id="text_25">
    <g id="patch_14">
     <path d="M 330.309818 192.793682 
L 378.017318 192.793682 
Q 380.417318 192.793682 380.417318 190.393682 
L 380.417318 155.776432 
Q 380.417318 153.376432 378.017318 153.376432 
L 330.309818 153.376432 
Q 327.909818 153.376432 327.909818 155.776432 
L 327.909818 190.393682 
Q 327.909818 192.793682 330.309818 192.793682 
z
" style="fill:#f5deb3;opacity:0.8;stroke:#000000;stroke-linejoin:miter;"/>
    </g>
    <!-- Beta2 = 10 -->
    <g transform="translate(330.309818 161.855182)scale(0.08 -0.08)">
     <use xlink:href="#DejaVuSans-66"/>
     <use x="68.603516" xlink:href="#DejaVuSans-101"/>
     <use x="130.126953" xlink:href="#DejaVuSans-116"/>
     <use x="169.335938" xlink:href="#DejaVuSans-97"/>
     <use x="230.615234" xlink:href="#DejaVuSans-50"/>
     <use x="294.238281" xlink:href="#DejaVuSans-32"/>
     <use x="326.025391" xlink:href="#DejaVuSans-61"/>
     <use x="409.814453" xlink:href="#DejaVuSans-32"/>
     <use x="441.601562" xlink:href="#DejaVuSans-49"/>
     <use x="505.224609" xlink:href="#DejaVuSans-48"/>
    </g>
    <!-- Delta2 = 9 -->
    <g transform="translate(330.309818 170.813432)scale(0.08 -0.08)">
     <use xlink:href="#DejaVuSans-68"/>
     <use x="77.001953" xlink:href="#DejaVuSans-101"/>
     <use x="138.525391" xlink:href="#DejaVuSans-108"/>
     <use x="166.308594" xlink:href="#DejaVuSans-116"/>
     <use x="205.517578" xlink:href="#DejaVuSans-97"/>
     <use x="266.796875" xlink:href="#DejaVuSans-50"/>
     <use x="330.419922" xlink:href="#DejaVuSans-32"/>
     <use x="362.207031" xlink:href="#DejaVuSans-61"/>
     <use x="445.996094" xlink:href="#DejaVuSans-32"/>
     <use x="477.783203" xlink:href="#DejaVuSans-57"/>
    </g>
    <!-- Beta2' = 10 -->
    <g transform="translate(330.309818 179.771682)scale(0.08 -0.08)">
     <use xlink:href="#DejaVuSans-66"/>
     <use x="68.603516" xlink:href="#DejaVuSans-101"/>
     <use x="130.126953" xlink:href="#DejaVuSans-116"/>
     <use x="169.335938" xlink:href="#DejaVuSans-97"/>
     <use x="230.615234" xlink:href="#DejaVuSans-50"/>
     <use x="294.238281" xlink:href="#DejaVuSans-39"/>
     <use x="321.728516" xlink:href="#DejaVuSans-32"/>
     <use x="353.515625" xlink:href="#DejaVuSans-61"/>
     <use x="437.304688" xlink:href="#DejaVuSans-32"/>
     <use x="469.091797" xlink:href="#DejaVuSans-49"/>
     <use x="532.714844" xlink:href="#DejaVuSans-48"/>
    </g>
    <!-- Delta2' = 5 -->
    <g transform="translate(330.309818 188.729932)scale(0.08 -0.08)">
     <use xlink:href="#DejaVuSans-68"/>
     <use x="77.001953" xlink:href="#DejaVuSans-101"/>
     <use x="138.525391" xlink:href="#DejaVuSans-108"/>
     <use x="166.308594" xlink:href="#DejaVuSans-116"/>
     <use x="205.517578" xlink:href="#DejaVuSans-97"/>
     <use x="266.796875" xlink:href="#DejaVuSans-50"/>
     <use x="330.419922" xlink:href="#DejaVuSans-39"/>
     <use x="357.910156" xlink:href="#DejaVuSans-32"/>
     <use x="389.697266" xlink:href="#DejaVuSans-61"/>
     <use x="473.486328" xlink:href="#DejaVuSans-32"/>
     <use x="505.273438" xlink:href="#DejaVuSans-53"/>
    </g>
   </g>
   <g id="text_26">
    <!-- Disease 2 -->
    <g transform="translate(288.000511 103.597091)scale(0.12 -0.12)">
     <use xlink:href="#DejaVuSans-68"/>
     <use x="77.001953" xlink:href="#DejaVuSans-105"/>
     <use x="104.785156" xlink:href="#DejaVuSans-115"/>
     <use x="156.884766" xlink:href="#DejaVuSans-101"/>
     <use x="218.408203" xlink:href="#DejaVuSans-97"/>
     <use x="279.6875" xlink:href="#DejaVuSans-115"/>
     <use x="331.787109" xlink:href="#DejaVuSans-101"/>
     <use x="393.310547" xlink:href="#DejaVuSans-32"/>
     <use x="425.097656" xlink:href="#DejaVuSans-50"/>
    </g>
   </g>
   <g id="legend_2">
    <g id="patch_15">
     <path d="M 327.514545 139.482091 
L 376.654545 139.482091 
Q 378.254545 139.482091 378.254545 137.882091 
L 378.254545 115.197091 
Q 378.254545 113.597091 376.654545 113.597091 
L 327.514545 113.597091 
Q 325.914545 113.597091 325.914545 115.197091 
L 325.914545 137.882091 
Q 325.914545 139.482091 327.514545 139.482091 
z
" style="fill:#ffffff;opacity:0.8;stroke:#cccccc;stroke-linejoin:miter;"/>
    </g>
    <g id="line2d_25">
     <path d="M 329.114545 120.075841 
L 345.114545 120.075841 
" style="fill:none;stroke:#ff0000;stroke-dasharray:9.6,2.4,1.5,2.4;stroke-dashoffset:0;stroke-width:1.5;"/>
    </g>
    <g id="line2d_26"/>
    <g id="text_27">
     <!-- Beta1 -->
     <g transform="translate(351.514545 122.875841)scale(0.08 -0.08)">
      <use xlink:href="#DejaVuSans-66"/>
      <use x="68.603516" xlink:href="#DejaVuSans-101"/>
      <use x="130.126953" xlink:href="#DejaVuSans-116"/>
      <use x="169.335938" xlink:href="#DejaVuSans-97"/>
      <use x="230.615234" xlink:href="#DejaVuSans-49"/>
     </g>
    </g>
    <g id="line2d_27">
     <path d="M 329.114545 131.818341 
L 345.114545 131.818341 
" style="fill:none;stroke:#ff0000;stroke-linecap:square;stroke-width:1.5;"/>
    </g>
    <g id="line2d_28"/>
    <g id="text_28">
     <!-- Beta2 -->
     <g transform="translate(351.514545 134.618341)scale(0.08 -0.08)">
      <use xlink:href="#DejaVuSans-66"/>
      <use x="68.603516" xlink:href="#DejaVuSans-101"/>
      <use x="130.126953" xlink:href="#DejaVuSans-116"/>
      <use x="169.335938" xlink:href="#DejaVuSans-97"/>
      <use x="230.615234" xlink:href="#DejaVuSans-50"/>
     </g>
    </g>
   </g>
  </g>
  <g id="axes_3">
   <g id="patch_16">
    <path clip-path="url(#pb7ee88bc57)" d="M 195.578182 307.584 
L 195.578182 280.9728 
L 195.578182 68.0832 
L 195.578182 41.472 
L 208.883782 41.472 
L 208.883782 68.0832 
L 208.883782 280.9728 
L 208.883782 307.584 
z
" style="fill:#ffffff;stroke:#ffffff;stroke-linejoin:miter;stroke-width:0.01;"/>
   </g>
   <g id="QuadMesh_1">
    <path clip-path="url(#pb7ee88bc57)" d="M 195.578182 307.584 
L 208.883782 307.584 
L 208.883782 280.9728 
L 195.578182 280.9728 
L 195.578182 307.584 
" style="fill:#471365;"/>
    <path clip-path="url(#pb7ee88bc57)" d="M 195.578182 280.9728 
L 208.883782 280.9728 
L 208.883782 254.3616 
L 195.578182 254.3616 
L 195.578182 280.9728 
" style="fill:#463480;"/>
    <path clip-path="url(#pb7ee88bc57)" d="M 195.578182 254.3616 
L 208.883782 254.3616 
L 208.883782 227.7504 
L 195.578182 227.7504 
L 195.578182 254.3616 
" style="fill:#3b528b;"/>
    <path clip-path="url(#pb7ee88bc57)" d="M 195.578182 227.7504 
L 208.883782 227.7504 
L 208.883782 201.1392 
L 195.578182 201.1392 
L 195.578182 227.7504 
" style="fill:#2f6c8e;"/>
    <path clip-path="url(#pb7ee88bc57)" d="M 195.578182 201.1392 
L 208.883782 201.1392 
L 208.883782 174.528 
L 195.578182 174.528 
L 195.578182 201.1392 
" style="fill:#25848e;"/>
    <path clip-path="url(#pb7ee88bc57)" d="M 195.578182 174.528 
L 208.883782 174.528 
L 208.883782 147.9168 
L 195.578182 147.9168 
L 195.578182 174.528 
" style="fill:#1e9c89;"/>
    <path clip-path="url(#pb7ee88bc57)" d="M 195.578182 147.9168 
L 208.883782 147.9168 
L 208.883782 121.3056 
L 195.578182 121.3056 
L 195.578182 147.9168 
" style="fill:#2fb47c;"/>
    <path clip-path="url(#pb7ee88bc57)" d="M 195.578182 121.3056 
L 208.883782 121.3056 
L 208.883782 94.6944 
L 195.578182 94.6944 
L 195.578182 121.3056 
" style="fill:#5ec962;"/>
    <path clip-path="url(#pb7ee88bc57)" d="M 195.578182 94.6944 
L 208.883782 94.6944 
L 208.883782 68.0832 
L 195.578182 68.0832 
L 195.578182 94.6944 
" style="fill:#9bd93c;"/>
    <path clip-path="url(#pb7ee88bc57)" d="M 195.578182 68.0832 
L 208.883782 68.0832 
L 208.883782 41.472 
L 195.578182 41.472 
L 195.578182 68.0832 
" style="fill:#dfe318;"/>
   </g>
   <g id="matplotlib.axis_5"/>
   <g id="matplotlib.axis_6">
    <g id="ytick_9">
     <g id="line2d_29">
      <defs>
       <path d="M 0 0 
L 3.5 0 
" id="m0092b12d1c" style="stroke:#000000;stroke-width:0.8;"/>
      </defs>
      <g>
       <use style="stroke:#000000;stroke-width:0.8;" x="208.883782" xlink:href="#m0092b12d1c" y="307.584"/>
      </g>
     </g>
     <g id="text_29">
      <!-- 5.25 -->
      <defs>
       <path d="M 10.6875 12.40625 
L 21 12.40625 
L 21 0 
L 10.6875 0 
z
" id="DejaVuSans-46"/>
      </defs>
      <g transform="translate(215.883782 311.383219)scale(0.1 -0.1)">
       <use xlink:href="#DejaVuSans-53"/>
       <use x="63.623047" xlink:href="#DejaVuSans-46"/>
       <use x="95.410156" xlink:href="#DejaVuSans-50"/>
       <use x="159.033203" xlink:href="#DejaVuSans-53"/>
      </g>
     </g>
    </g>
    <g id="ytick_10">
     <g id="line2d_30">
      <g>
       <use style="stroke:#000000;stroke-width:0.8;" x="208.883782" xlink:href="#m0092b12d1c" y="254.3616"/>
      </g>
     </g>
     <g id="text_30">
      <!-- 5.27 -->
      <defs>
       <path d="M 8.203125 72.90625 
L 55.078125 72.90625 
L 55.078125 68.703125 
L 28.609375 0 
L 18.3125 0 
L 43.21875 64.59375 
L 8.203125 64.59375 
z
" id="DejaVuSans-55"/>
      </defs>
      <g transform="translate(215.883782 258.160819)scale(0.1 -0.1)">
       <use xlink:href="#DejaVuSans-53"/>
       <use x="63.623047" xlink:href="#DejaVuSans-46"/>
       <use x="95.410156" xlink:href="#DejaVuSans-50"/>
       <use x="159.033203" xlink:href="#DejaVuSans-55"/>
      </g>
     </g>
    </g>
    <g id="ytick_11">
     <g id="line2d_31">
      <g>
       <use style="stroke:#000000;stroke-width:0.8;" x="208.883782" xlink:href="#m0092b12d1c" y="201.1392"/>
      </g>
     </g>
     <g id="text_31">
      <!-- 5.29 -->
      <g transform="translate(215.883782 204.938419)scale(0.1 -0.1)">
       <use xlink:href="#DejaVuSans-53"/>
       <use x="63.623047" xlink:href="#DejaVuSans-46"/>
       <use x="95.410156" xlink:href="#DejaVuSans-50"/>
       <use x="159.033203" xlink:href="#DejaVuSans-57"/>
      </g>
     </g>
    </g>
    <g id="ytick_12">
     <g id="line2d_32">
      <g>
       <use style="stroke:#000000;stroke-width:0.8;" x="208.883782" xlink:href="#m0092b12d1c" y="147.9168"/>
      </g>
     </g>
     <g id="text_32">
      <!-- 5.31 -->
      <g transform="translate(215.883782 151.716019)scale(0.1 -0.1)">
       <use xlink:href="#DejaVuSans-53"/>
       <use x="63.623047" xlink:href="#DejaVuSans-46"/>
       <use x="95.410156" xlink:href="#DejaVuSans-51"/>
       <use x="159.033203" xlink:href="#DejaVuSans-49"/>
      </g>
     </g>
    </g>
    <g id="ytick_13">
     <g id="line2d_33">
      <g>
       <use style="stroke:#000000;stroke-width:0.8;" x="208.883782" xlink:href="#m0092b12d1c" y="94.6944"/>
      </g>
     </g>
     <g id="text_33">
      <!-- 5.33 -->
      <g transform="translate(215.883782 98.493619)scale(0.1 -0.1)">
       <use xlink:href="#DejaVuSans-53"/>
       <use x="63.623047" xlink:href="#DejaVuSans-46"/>
       <use x="95.410156" xlink:href="#DejaVuSans-51"/>
       <use x="159.033203" xlink:href="#DejaVuSans-51"/>
      </g>
     </g>
    </g>
    <g id="ytick_14">
     <g id="line2d_34">
      <g>
       <use style="stroke:#000000;stroke-width:0.8;" x="208.883782" xlink:href="#m0092b12d1c" y="41.472"/>
      </g>
     </g>
     <g id="text_34">
      <!-- 5.35 -->
      <g transform="translate(215.883782 45.271219)scale(0.1 -0.1)">
       <use xlink:href="#DejaVuSans-53"/>
       <use x="63.623047" xlink:href="#DejaVuSans-46"/>
       <use x="95.410156" xlink:href="#DejaVuSans-51"/>
       <use x="159.033203" xlink:href="#DejaVuSans-53"/>
      </g>
     </g>
    </g>
   </g>
   <g id="patch_17">
    <path d="M 195.578182 307.584 
L 195.578182 280.9728 
L 195.578182 68.0832 
L 195.578182 41.472 
L 208.883782 41.472 
L 208.883782 68.0832 
L 208.883782 280.9728 
L 208.883782 307.584 
z
" style="fill:none;stroke:#000000;stroke-linejoin:miter;stroke-width:0.8;"/>
   </g>
  </g>
  <g id="axes_4">
   <g id="patch_18">
    <path clip-path="url(#pd27a8ba5d8)" d="M 390.370909 307.584 
L 390.370909 283.392 
L 390.370909 65.664 
L 390.370909 41.472 
L 403.676509 41.472 
L 403.676509 65.664 
L 403.676509 283.392 
L 403.676509 307.584 
z
" style="fill:#ffffff;stroke:#ffffff;stroke-linejoin:miter;stroke-width:0.01;"/>
   </g>
   <g id="QuadMesh_2">
    <path clip-path="url(#pd27a8ba5d8)" d="M 390.370909 307.584 
L 403.676509 307.584 
L 403.676509 283.392 
L 390.370909 283.392 
L 390.370909 307.584 
" style="fill:#471164;"/>
    <path clip-path="url(#pd27a8ba5d8)" d="M 390.370909 283.392 
L 403.676509 283.392 
L 403.676509 259.2 
L 390.370909 259.2 
L 390.370909 283.392 
" style="fill:#472f7d;"/>
    <path clip-path="url(#pd27a8ba5d8)" d="M 390.370909 259.2 
L 403.676509 259.2 
L 403.676509 235.008 
L 390.370909 235.008 
L 390.370909 259.2 
" style="fill:#3e4c8a;"/>
    <path clip-path="url(#pd27a8ba5d8)" d="M 390.370909 235.008 
L 403.676509 235.008 
L 403.676509 210.816 
L 390.370909 210.816 
L 390.370909 235.008 
" style="fill:#32648e;"/>
    <path clip-path="url(#pd27a8ba5d8)" d="M 390.370909 210.816 
L 403.676509 210.816 
L 403.676509 186.624 
L 390.370909 186.624 
L 390.370909 210.816 
" style="fill:#297a8e;"/>
    <path clip-path="url(#pd27a8ba5d8)" d="M 390.370909 186.624 
L 403.676509 186.624 
L 403.676509 162.432 
L 390.370909 162.432 
L 390.370909 186.624 
" style="fill:#21918c;"/>
    <path clip-path="url(#pd27a8ba5d8)" d="M 390.370909 162.432 
L 403.676509 162.432 
L 403.676509 138.24 
L 390.370909 138.24 
L 390.370909 162.432 
" style="fill:#21a685;"/>
    <path clip-path="url(#pd27a8ba5d8)" d="M 390.370909 138.24 
L 403.676509 138.24 
L 403.676509 114.048 
L 390.370909 114.048 
L 390.370909 138.24 
" style="fill:#3bbb75;"/>
    <path clip-path="url(#pd27a8ba5d8)" d="M 390.370909 114.048 
L 403.676509 114.048 
L 403.676509 89.856 
L 390.370909 89.856 
L 390.370909 114.048 
" style="fill:#69cd5b;"/>
    <path clip-path="url(#pd27a8ba5d8)" d="M 390.370909 89.856 
L 403.676509 89.856 
L 403.676509 65.664 
L 390.370909 65.664 
L 390.370909 89.856 
" style="fill:#a5db36;"/>
    <path clip-path="url(#pd27a8ba5d8)" d="M 390.370909 65.664 
L 403.676509 65.664 
L 403.676509 41.472 
L 390.370909 41.472 
L 390.370909 65.664 
" style="fill:#e2e418;"/>
   </g>
   <g id="matplotlib.axis_7"/>
   <g id="matplotlib.axis_8">
    <g id="ytick_15">
     <g id="line2d_35">
      <g>
       <use style="stroke:#000000;stroke-width:0.8;" x="403.676509" xlink:href="#m0092b12d1c" y="307.584"/>
      </g>
     </g>
     <g id="text_35">
      <!-- 5.325 -->
      <g transform="translate(410.676509 311.383219)scale(0.1 -0.1)">
       <use xlink:href="#DejaVuSans-53"/>
       <use x="63.623047" xlink:href="#DejaVuSans-46"/>
       <use x="95.410156" xlink:href="#DejaVuSans-51"/>
       <use x="159.033203" xlink:href="#DejaVuSans-50"/>
       <use x="222.65625" xlink:href="#DejaVuSans-53"/>
      </g>
     </g>
    </g>
    <g id="ytick_16">
     <g id="line2d_36">
      <g>
       <use style="stroke:#000000;stroke-width:0.8;" x="403.676509" xlink:href="#m0092b12d1c" y="259.2"/>
      </g>
     </g>
     <g id="text_36">
      <!-- 5.335 -->
      <g transform="translate(410.676509 262.999219)scale(0.1 -0.1)">
       <use xlink:href="#DejaVuSans-53"/>
       <use x="63.623047" xlink:href="#DejaVuSans-46"/>
       <use x="95.410156" xlink:href="#DejaVuSans-51"/>
       <use x="159.033203" xlink:href="#DejaVuSans-51"/>
       <use x="222.65625" xlink:href="#DejaVuSans-53"/>
      </g>
     </g>
    </g>
    <g id="ytick_17">
     <g id="line2d_37">
      <g>
       <use style="stroke:#000000;stroke-width:0.8;" x="403.676509" xlink:href="#m0092b12d1c" y="210.816"/>
      </g>
     </g>
     <g id="text_37">
      <!-- 5.345 -->
      <defs>
       <path d="M 37.796875 64.3125 
L 12.890625 25.390625 
L 37.796875 25.390625 
z
M 35.203125 72.90625 
L 47.609375 72.90625 
L 47.609375 25.390625 
L 58.015625 25.390625 
L 58.015625 17.1875 
L 47.609375 17.1875 
L 47.609375 0 
L 37.796875 0 
L 37.796875 17.1875 
L 4.890625 17.1875 
L 4.890625 26.703125 
z
" id="DejaVuSans-52"/>
      </defs>
      <g transform="translate(410.676509 214.615219)scale(0.1 -0.1)">
       <use xlink:href="#DejaVuSans-53"/>
       <use x="63.623047" xlink:href="#DejaVuSans-46"/>
       <use x="95.410156" xlink:href="#DejaVuSans-51"/>
       <use x="159.033203" xlink:href="#DejaVuSans-52"/>
       <use x="222.65625" xlink:href="#DejaVuSans-53"/>
      </g>
     </g>
    </g>
    <g id="ytick_18">
     <g id="line2d_38">
      <g>
       <use style="stroke:#000000;stroke-width:0.8;" x="403.676509" xlink:href="#m0092b12d1c" y="162.432"/>
      </g>
     </g>
     <g id="text_38">
      <!-- 5.355 -->
      <g transform="translate(410.676509 166.231219)scale(0.1 -0.1)">
       <use xlink:href="#DejaVuSans-53"/>
       <use x="63.623047" xlink:href="#DejaVuSans-46"/>
       <use x="95.410156" xlink:href="#DejaVuSans-51"/>
       <use x="159.033203" xlink:href="#DejaVuSans-53"/>
       <use x="222.65625" xlink:href="#DejaVuSans-53"/>
      </g>
     </g>
    </g>
    <g id="ytick_19">
     <g id="line2d_39">
      <g>
       <use style="stroke:#000000;stroke-width:0.8;" x="403.676509" xlink:href="#m0092b12d1c" y="114.048"/>
      </g>
     </g>
     <g id="text_39">
      <!-- 5.365 -->
      <defs>
       <path d="M 33.015625 40.375 
Q 26.375 40.375 22.484375 35.828125 
Q 18.609375 31.296875 18.609375 23.390625 
Q 18.609375 15.53125 22.484375 10.953125 
Q 26.375 6.390625 33.015625 6.390625 
Q 39.65625 6.390625 43.53125 10.953125 
Q 47.40625 15.53125 47.40625 23.390625 
Q 47.40625 31.296875 43.53125 35.828125 
Q 39.65625 40.375 33.015625 40.375 
z
M 52.59375 71.296875 
L 52.59375 62.3125 
Q 48.875 64.0625 45.09375 64.984375 
Q 41.3125 65.921875 37.59375 65.921875 
Q 27.828125 65.921875 22.671875 59.328125 
Q 17.53125 52.734375 16.796875 39.40625 
Q 19.671875 43.65625 24.015625 45.921875 
Q 28.375 48.1875 33.59375 48.1875 
Q 44.578125 48.1875 50.953125 41.515625 
Q 57.328125 34.859375 57.328125 23.390625 
Q 57.328125 12.15625 50.6875 5.359375 
Q 44.046875 -1.421875 33.015625 -1.421875 
Q 20.359375 -1.421875 13.671875 8.265625 
Q 6.984375 17.96875 6.984375 36.375 
Q 6.984375 53.65625 15.1875 63.9375 
Q 23.390625 74.21875 37.203125 74.21875 
Q 40.921875 74.21875 44.703125 73.484375 
Q 48.484375 72.75 52.59375 71.296875 
z
" id="DejaVuSans-54"/>
      </defs>
      <g transform="translate(410.676509 117.847219)scale(0.1 -0.1)">
       <use xlink:href="#DejaVuSans-53"/>
       <use x="63.623047" xlink:href="#DejaVuSans-46"/>
       <use x="95.410156" xlink:href="#DejaVuSans-51"/>
       <use x="159.033203" xlink:href="#DejaVuSans-54"/>
       <use x="222.65625" xlink:href="#DejaVuSans-53"/>
      </g>
     </g>
    </g>
    <g id="ytick_20">
     <g id="line2d_40">
      <g>
       <use style="stroke:#000000;stroke-width:0.8;" x="403.676509" xlink:href="#m0092b12d1c" y="65.664"/>
      </g>
     </g>
     <g id="text_40">
      <!-- 5.375 -->
      <g transform="translate(410.676509 69.463219)scale(0.1 -0.1)">
       <use xlink:href="#DejaVuSans-53"/>
       <use x="63.623047" xlink:href="#DejaVuSans-46"/>
       <use x="95.410156" xlink:href="#DejaVuSans-51"/>
       <use x="159.033203" xlink:href="#DejaVuSans-55"/>
       <use x="222.65625" xlink:href="#DejaVuSans-53"/>
      </g>
     </g>
    </g>
   </g>
   <g id="patch_19">
    <path d="M 390.370909 307.584 
L 390.370909 283.392 
L 390.370909 65.664 
L 390.370909 41.472 
L 403.676509 41.472 
L 403.676509 65.664 
L 403.676509 283.392 
L 403.676509 307.584 
z
" style="fill:none;stroke:#000000;stroke-linejoin:miter;stroke-width:0.8;"/>
   </g>
  </g>
 </g>
 <defs>
  <clipPath id="pfa94d95c59">
   <rect height="129.861818" width="129.861818" x="57.6" y="109.597091"/>
  </clipPath>
  <clipPath id="p2ec093eea7">
   <rect height="129.861818" width="129.861818" x="252.392727" y="109.597091"/>
  </clipPath>
  <clipPath id="pb7ee88bc57">
   <rect height="266.112" width="13.3056" x="195.578182" y="41.472"/>
  </clipPath>
  <clipPath id="pd27a8ba5d8">
   <rect height="266.112" width="13.3056" x="390.370909" y="41.472"/>
  </clipPath>
 </defs>
</svg>
